g CH0069_Halo
v 0.016812129 0.017906768 -0.01888011
v 0.033624247 0.007821159 0.00843698
v 0.023775944 0.030786952 0.002283321
v 0.02377593 0.0016675007 -0.014528816
v 0.023775926 -0.015144625 0.014590642
v -4.7683715E-09 0.024633301 -0.020682478
v -9.536743E-09 0.040299706 -0.0002656132
v 0.01681212 -0.014571762 -0.010177521
v -4.7683715E-09 -0.024657363 0.017139567
v -0.01681213 0.017906776 -0.018880112
v -0.023775944 0.030786961 0.0022833175
v -0.023775944 0.0016675049 -0.014528816
v -0.033624258 0.007821167 0.008436978
v -0.008406072 0.0070396713 -0.02695817
v -0.016812129 -0.014571762 -0.010177521
v -0.023775939 -0.015144625 0.014590642
v -4.7683715E-09 -0.021298284 -0.008375157
v -0.011887977 -0.0010799646 -0.024782524
v -0.008406069 -0.009199599 -0.022606876
v -4.7683715E-09 -0.012562861 -0.021705704
v -0.0037781287 -0.010907647 -0.059861932
v -4.7683715E-09 0.0104029365 -0.027859353
v 0.008406057 -0.009199599 -0.022606876
v -4.7683715E-09 -0.014681225 -0.058850843
v -4.7683715E-09 -0.0071340725 -0.060873058
v 0.011887969 -0.001079967 -0.024782524
v 0.008406062 0.007039669 -0.02695817
v 0.0037781287 -0.010907647 -0.059861932
v -4.7683715E-09 -0.011878876 -0.06348658
v 0.016812129 0.030214094 0.027051477
v 0.023775944 0.030786952 0.002283321
v 0.033624247 0.007821159 0.00843698
v 0.02377593 0.013974825 0.031402774
v 0.023775926 -0.015144625 0.014590642
v -4.7683715E-09 0.036940627 0.025249109
v -9.536743E-09 0.040299706 -0.0002656132
v 0.01681212 -0.0022644377 0.035754073
v -4.7683715E-09 -0.024657363 0.017139567
v -0.01681213 0.0302141 0.027051477
v -0.023775944 0.030786961 0.0022833175
v -0.023775944 0.01397483 0.031402774
v -0.033624258 0.007821167 0.008436978
v -0.008406072 0.024841933 0.039480828
v -0.016812129 -0.0022644377 0.035754073
v -0.023775939 -0.015144625 0.014590642
v -4.7683715E-09 -0.008990958 0.037556436
v -0.011887977 0.016722301 0.041656476
v -0.008406069 0.008602666 0.04383213
v -4.7683715E-09 0.0052394085 0.044733323
v -0.0041173124 0.025938762 0.07378845
v -4.7683715E-09 0.0282052 0.038579643
v 0.008406057 0.008602666 0.04383213
v -4.7683715E-09 0.021826414 0.07489037
v -4.7683715E-09 0.030051112 0.072686546
v 0.011887969 0.0167223 0.04165648
v 0.008406062 0.024841933 0.039480828
v 0.0041173124 0.025938753 0.07378845
v -4.7683715E-09 0.026726842 0.07645964
v 0.056629524 -0.09606959 -0.02175959
v 0.10378491 -0.057878584 -0.026687182
v 0.098085284 -0.05602644 -0.032489114
v 0.059920195 -0.10024858 -0.015334186
v 0.05333885 -0.089237764 -0.018284524
v -5.7220458E-08 -0.11072639 -0.017832324
v -5.7220458E-08 -0.103042856 -0.014585468
v 0.09238567 -0.051521476 -0.028390566
v -6.198883E-08 -0.115757056 -0.011178711
v 0.10667782 1.7881392E-08 -0.0421957
v 0.11984053 1.7881392E-08 -0.0421957
v 0.11325918 -0.001326394 -0.047145937
v -0.059920315 -0.10024852 -0.0153342
v -0.056629628 -0.09606952 -0.021759607
v -0.053338956 -0.089237705 -0.018284542
v 0.09238571 0.051521458 -0.056000818
v 0.10378494 0.05787855 -0.057704195
v 0.09808532 0.053373598 -0.061802737
v -0.09808535 -0.05602636 -0.032489136
v -0.10378497 -0.057878487 -0.026687209
v -0.09238573 -0.05152139 -0.028390588
v 0.0533389 0.089237764 -0.06610686
v 0.05992025 0.10024859 -0.069057204
v 0.05662958 0.09341676 -0.072532274
v -0.11325919 -0.0013263774 -0.047145944
v -0.11984053 3.5762785E-08 -0.042195704
v -0.10667782 3.33786E-08 -0.042195704
v -9.536743E-09 0.10304289 -0.069805935
v -9.536743E-09 0.11575708 -0.07321269
v -9.536743E-09 0.10807358 -0.07645955
v -0.09808534 0.053373598 -0.061802737
v -0.10378495 0.05787856 -0.057704195
v -0.0923857 0.051521458 -0.056000818
v -0.053338926 0.089237764 -0.06610686
v -0.05992028 0.10024858 -0.069057204
v -0.05662961 0.09341676 -0.072532274
vt 0.1583252 0.33447266
vt 0.20288086 0.02684021
vt 0.17675781 0.02684021
vt 0.17675781 0.33447266
vt 0.17675781 0.02684021
vt 0.113586426 0.33447266
vt 0.113586426 0.02684021
vt 0.1583252 0.33447266
vt 0.113586426 0.02684021
vt 0.06890869 0.33447266
vt 0.050445557 0.02684021
vt 0.050445557 0.33447266
vt 0.024276733 0.02684021
vt 0.09124756 0.4716797
vt 0.06890869 0.33447266
vt 0.050445557 0.02684021
vt 0.113586426 0.33447266
vt 0.08203125 0.4716797
vt 0.09124756 0.4716797
vt 0.113586426 0.4716797
vt 0.10809326 0.92871094
vt 0.113586426 0.4716797
vt 0.13598633 0.4716797
vt 0.113586426 0.92871094
vt 0.113586426 0.92871094
vt 0.1451416 0.4716797
vt 0.13598633 0.4716797
vt 0.11907959 0.92871094
vt 0.113586426 0.97753906
vt 0.1583252 0.33325195
vt 0.17675781 0.025726318
vt 0.20288086 0.025726318
vt 0.17675781 0.33325195
vt 0.17675781 0.025726318
vt 0.113586426 0.33325195
vt 0.113586426 0.025726318
vt 0.1583252 0.33325195
vt 0.113586426 0.025726318
vt 0.06890869 0.33325195
vt 0.050445557 0.025726318
vt 0.050445557 0.33325195
vt 0.024276733 0.025726318
vt 0.09124756 0.47070312
vt 0.06890869 0.33325195
vt 0.050445557 0.025726318
vt 0.113586426 0.33325195
vt 0.08203125 0.47070312
vt 0.09124756 0.47070312
vt 0.113586426 0.47070312
vt 0.10809326 0.9277344
vt 0.113586426 0.47070312
vt 0.13598633 0.47070312
vt 0.113586426 0.9277344
vt 0.113586426 0.9277344
vt 0.1451416 0.47070312
vt 0.13598633 0.47070312
vt 0.11907959 0.9277344
vt 0.113586426 0.9760742
vt 0.14123535 0.08227539
vt 0.14770508 0.06866455
vt 0.14562988 0.06866455
vt 0.14294434 0.08300781
vt 0.13952637 0.08148193
vt 0.12878418 0.092285156
vt 0.12780762 0.09094238
vt 0.14367676 0.06866455
vt 0.12976074 0.09362793
vt 0.13916016 0.081848145
vt 0.14257812 0.083496094
vt 0.14086914 0.08270264
vt 0.111694336 0.09765625
vt 0.111694336 0.096069336
vt 0.1116333 0.09448242
vt 0.12719727 0.09112549
vt 0.12915039 0.09387207
vt 0.12817383 0.0925293
vt 0.09442139 0.0925293
vt 0.093444824 0.093933105
vt 0.09539795 0.09118652
vt 0.110961914 0.09442139
vt 0.110961914 0.097595215
vt 0.110961914 0.0960083
vt 0.081726074 0.08276367
vt 0.08001709 0.08355713
vt 0.08343506 0.08190918
vt 0.09484863 0.09088135
vt 0.09283447 0.093566895
vt 0.093811035 0.09222412
vt 0.07696533 0.06921387
vt 0.07495117 0.06921387
vt 0.07897949 0.06921387
vt 0.08312988 0.0814209
vt 0.07965088 0.08294678
vt 0.0814209 0.082214355
vn 0.5883789 0.42504883 -0.6879883
vn 1 0 0
vn 0.70703125 0.68310547 -0.1829834
vn 0.83203125 -0.14343262 -0.53564453
vn 0.70703125 -0.68310547 0.1829834
vn -0 0.66064453 -0.75097656
vn -0 0.9658203 -0.25878906
vn 0.5883789 -0.71191406 -0.38305664
vn -0 -0.9658203 0.25878906
vn -0.5883789 0.42504883 -0.6879883
vn -0.70703125 0.68310547 -0.1829834
vn -0.83203125 -0.14343262 -0.53564453
vn -1 0 0
vn -0.59716797 0.43798828 -0.671875
vn -0.5883789 -0.71191406 -0.38305664
vn -0.70703125 -0.68310547 0.1829834
vn -0 -0.9472656 -0.32006836
vn -0.8442383 -0.13867188 -0.5175781
vn -0.59716797 -0.71533203 -0.3630371
vn -0 -0.95458984 -0.29858398
vn -0.9301758 -0.09484863 -0.3540039
vn -0 0.6772461 -0.73583984
vn 0.59716797 -0.71533203 -0.3630371
vn -0 -0.9926758 -0.122558594
vn -0 0.79833984 -0.60253906
vn 0.8442383 -0.13867188 -0.5175781
vn 0.59716797 0.43798828 -0.671875
vn 0.9301758 -0.09484863 -0.3540039
vn -0 -0.25878906 -0.9658203
vn 0.5883789 0.71191406 0.38305664
vn 0.70703125 0.68310547 -0.1829834
vn 1 0 0
vn 0.83251953 0.14343262 0.53564453
vn 0.70703125 -0.68310547 0.1829834
vn -0 0.9472656 0.32006836
vn -0 0.9658203 -0.25878906
vn 0.5883789 -0.42504883 0.6879883
vn -0 -0.9658203 0.25878906
vn -0.5883789 0.71191406 0.38305664
vn -0.70703125 0.68310547 -0.1829834
vn -0.83251953 0.14343262 0.53564453
vn -1 0 0
vn -0.59716797 0.71533203 0.3630371
vn -0.5883789 -0.42504883 0.6879883
vn -0.70703125 -0.68310547 0.1829834
vn -0 -0.66064453 0.75097656
vn -0.8442383 0.13867188 0.5175781
vn -0.59716797 -0.43798828 0.671875
vn -0 -0.6772461 0.73583984
vn -0.9301758 0.09490967 0.3540039
vn -0 0.95458984 0.29858398
vn 0.59716797 -0.43798828 0.671875
vn -0 -0.79833984 0.60253906
vn -0 0.9926758 0.122558594
vn 0.8442383 0.13867188 0.5175781
vn 0.59716797 0.71533203 0.3630371
vn 0.9301758 0.09490967 0.3540039
vn -0 0.25878906 0.9658203
vn 0.050720215 -0.34228516 -0.9379883
vn 0.8300781 -0.38916016 0.39941406
vn 0.08782959 -0.30639648 -0.9477539
vn 0.47924805 -0.72802734 0.49023438
vn -0.46142578 0.87158203 0.1652832
vn -0 -0.35546875 -0.9345703
vn -0 0.99121094 0.13330078
vn -0.7993164 0.54541016 0.25268555
vn -0 -0.8520508 0.5234375
vn -0.92285156 0.099731445 0.3720703
vn 0.9584961 0.073791504 0.27539062
vn 0.101501465 -0.25756836 -0.9609375
vn -0.47924805 -0.72802734 0.49023438
vn -0.050720215 -0.34228516 -0.9379883
vn 0.46142578 0.87158203 0.1652832
vn -0.7993164 -0.34594727 0.49145508
vn 0.8300781 0.5366211 0.15136719
vn 0.08782959 -0.2084961 -0.9741211
vn -0.08782959 -0.30639648 -0.9477539
vn -0.8300781 -0.38916016 0.39941406
vn 0.7993164 0.54541016 0.25268555
vn -0.46142578 -0.6723633 0.57910156
vn 0.47924805 0.8754883 0.06060791
vn 0.050720215 -0.17260742 -0.9838867
vn -0.101501465 -0.25756836 -0.9609375
vn -0.9584961 0.073791504 0.27539062
vn 0.92285156 0.099731445 0.3720703
vn -0 -0.7915039 0.61083984
vn -0 0.9995117 0.027374268
vn -0 -0.15930176 -0.9873047
vn -0.08782959 -0.2084961 -0.9741211
vn -0.8300781 0.5366211 0.15136719
vn 0.7993164 -0.34594727 0.49145508
vn 0.46142578 -0.6723633 0.57910156
vn -0.47924805 0.8754883 0.06060791
vn -0.050689697 -0.17260742 -0.9838867
g CH0069_Halo_0
f 3/3/3 2/2/2 1/1/1
f 2/2/2 4/4/4 1/1/1
f 2/2/2 5/5/5 4/4/4
f 3/3/3 1/1/1 6/6/6
f 7/7/7 3/3/3 6/6/6
f 5/5/5 8/8/8 4/4/4
f 5/5/5 9/9/9 8/8/8
f 7/7/7 6/6/6 10/10/10
f 11/11/11 7/7/7 10/10/10
f 11/11/11 10/10/10 12/12/12
f 13/13/13 11/11/11 12/12/12
f 14/14/14 10/10/10 6/6/6
f 10/10/10 14/14/14 12/12/12
f 13/13/13 12/12/12 15/15/15
f 16/16/16 13/13/13 15/15/15
f 9/9/9 16/16/16 17/17/17
f 9/9/9 17/17/17 8/8/8
f 16/16/16 15/15/15 17/17/17
f 12/12/12 18/18/18 15/15/15
f 14/14/14 18/18/18 12/12/12
f 15/15/15 19/19/19 17/17/17
f 18/18/18 19/19/19 15/15/15
f 17/17/17 20/20/20 8/8/8
f 19/19/19 20/20/20 17/17/17
f 18/18/18 21/21/21 19/19/19
f 14/14/14 21/21/21 18/18/18
f 22/22/22 14/14/14 6/6/6
f 22/22/22 6/6/6 1/1/1
f 20/20/20 23/23/23 8/8/8
f 8/8/8 23/23/23 4/4/4
f 19/19/19 24/24/24 20/20/20
f 21/21/21 24/24/24 19/19/19
f 20/20/20 24/24/24 23/23/23
f 22/22/22 25/25/25 14/14/14
f 14/14/14 25/25/25 21/21/21
f 4/4/4 26/26/26 1/1/1
f 23/23/23 26/26/26 4/4/4
f 27/27/27 22/22/22 1/1/1
f 26/26/26 27/27/27 1/1/1
f 27/27/27 25/25/25 22/22/22
f 23/23/23 28/28/28 26/26/26
f 26/26/26 28/28/28 27/27/27
f 23/23/23 24/24/24 28/28/28
f 28/28/28 25/25/25 27/27/27
f 29/29/29 21/21/21 25/25/25
f 29/29/29 24/24/24 21/21/21
f 29/29/29 28/28/28 24/24/24
f 29/29/29 25/25/25 28/28/28
f 32/32/32 31/31/31 30/30/30
f 33/33/33 32/32/32 30/30/30
f 34/34/34 32/32/32 33/33/33
f 30/30/30 31/31/31 35/35/35
f 31/31/31 36/36/36 35/35/35
f 37/37/37 34/34/34 33/33/33
f 38/38/38 34/34/34 37/37/37
f 35/35/35 36/36/36 39/39/39
f 36/36/36 40/40/40 39/39/39
f 39/39/39 40/40/40 41/41/41
f 40/40/40 42/42/42 41/41/41
f 39/39/39 43/43/43 35/35/35
f 43/43/43 39/39/39 41/41/41
f 41/41/41 42/42/42 44/44/44
f 42/42/42 45/45/45 44/44/44
f 45/45/45 38/38/38 46/46/46
f 46/46/46 38/38/38 37/37/37
f 44/44/44 45/45/45 46/46/46
f 47/47/47 41/41/41 44/44/44
f 47/47/47 43/43/43 41/41/41
f 48/48/48 44/44/44 46/46/46
f 48/48/48 47/47/47 44/44/44
f 49/49/49 46/46/46 37/37/37
f 49/49/49 48/48/48 46/46/46
f 50/50/50 47/47/47 48/48/48
f 50/50/50 43/43/43 47/47/47
f 43/43/43 51/51/51 35/35/35
f 35/35/35 51/51/51 30/30/30
f 52/52/52 49/49/49 37/37/37
f 52/52/52 37/37/37 33/33/33
f 53/53/53 48/48/48 49/49/49
f 53/53/53 50/50/50 48/48/48
f 53/53/53 49/49/49 52/52/52
f 54/54/54 51/51/51 43/43/43
f 50/50/50 54/54/54 43/43/43
f 55/55/55 33/33/33 30/30/30
f 55/55/55 52/52/52 33/33/33
f 51/51/51 56/56/56 30/30/30
f 56/56/56 55/55/55 30/30/30
f 54/54/54 56/56/56 51/51/51
f 57/57/57 52/52/52 55/55/55
f 57/57/57 55/55/55 56/56/56
f 57/57/57 53/53/53 52/52/52
f 54/54/54 57/57/57 56/56/56
f 50/50/50 58/58/58 54/54/54
f 53/53/53 58/58/58 50/50/50
f 57/57/57 58/58/58 53/53/53
f 54/54/54 58/58/58 57/57/57
f 61/61/61 60/60/60 59/59/59
f 60/60/60 62/62/62 59/59/59
f 59/59/59 63/63/63 61/61/61
f 59/59/59 62/62/62 64/64/64
f 65/65/65 63/63/63 59/59/59
f 64/64/64 65/65/65 59/59/59
f 62/62/62 60/60/60 66/66/66
f 63/63/63 62/62/62 66/66/66
f 63/63/63 66/66/66 61/61/61
f 67/67/67 62/62/62 63/63/63
f 65/65/65 67/67/67 63/63/63
f 62/62/62 67/67/67 64/64/64
f 66/66/66 60/60/60 68/68/68
f 69/69/69 60/60/60 61/61/61
f 60/60/60 69/69/69 68/68/68
f 61/61/61 66/66/66 70/70/70
f 66/66/66 68/68/68 70/70/70
f 70/70/70 69/69/69 61/61/61
f 71/71/71 67/67/67 65/65/65
f 64/64/64 67/67/67 72/72/72
f 67/67/67 71/71/71 72/72/72
f 73/73/73 65/65/65 64/64/64
f 72/72/72 73/73/73 64/64/64
f 73/73/73 71/71/71 65/65/65
f 68/68/68 69/69/69 74/74/74
f 75/75/75 69/69/69 70/70/70
f 69/69/69 75/75/75 74/74/74
f 70/70/70 68/68/68 76/76/76
f 68/68/68 74/74/74 76/76/76
f 76/76/76 75/75/75 70/70/70
f 72/72/72 71/71/71 77/77/77
f 78/78/78 71/71/71 73/73/73
f 71/71/71 78/78/78 77/77/77
f 79/79/79 73/73/73 72/72/72
f 77/77/77 79/79/79 72/72/72
f 79/79/79 78/78/78 73/73/73
f 74/74/74 75/75/75 80/80/80
f 81/81/81 75/75/75 76/76/76
f 75/75/75 81/81/81 80/80/80
f 76/76/76 74/74/74 82/82/82
f 74/74/74 80/80/80 82/82/82
f 82/82/82 81/81/81 76/76/76
f 77/77/77 78/78/78 83/83/83
f 84/84/84 78/78/78 79/79/79
f 78/78/78 84/84/84 83/83/83
f 85/85/85 79/79/79 77/77/77
f 83/83/83 85/85/85 77/77/77
f 85/85/85 84/84/84 79/79/79
f 80/80/80 81/81/81 86/86/86
f 87/87/87 81/81/81 82/82/82
f 81/81/81 87/87/87 86/86/86
f 82/82/82 80/80/80 88/88/88
f 80/80/80 86/86/86 88/88/88
f 88/88/88 87/87/87 82/82/82
f 83/83/83 84/84/84 89/89/89
f 90/90/90 84/84/84 85/85/85
f 84/84/84 90/90/90 89/89/89
f 91/91/91 85/85/85 83/83/83
f 89/89/89 91/91/91 83/83/83
f 91/91/91 90/90/90 85/85/85
f 86/86/86 87/87/87 92/92/92
f 92/92/92 91/91/91 89/89/89
f 93/93/93 87/87/87 88/88/88
f 87/87/87 93/93/93 92/92/92
f 93/93/93 90/90/90 91/91/91
f 92/92/92 93/93/93 91/91/91
f 86/86/86 92/92/92 94/94/94
f 94/94/94 92/92/92 89/89/89
f 88/88/88 86/86/86 94/94/94
f 89/89/89 90/90/90 94/94/94
f 94/94/94 93/93/93 88/88/88
f 90/90/90 93/93/93 94/94/94
