g FX_Cylinder_Ring_004_In001
v 1.853664E-08 0.19961154 -0.046219785
v 1.0664558E-08 0.10875192 -0.05183112
v 0.028147079 0.1050463 -0.05183112
v 0.05166326 0.19280992 -0.046219785
v 0.05437595 0.094181925 -0.051831115
v 0.09980574 0.17286862 -0.04621978
v 0.07689922 0.07689923 -0.05183112
v 0.14114666 0.14114664 -0.04621978
v 0.094181925 0.054375976 -0.051831115
v 0.17286864 0.09980577 -0.04621978
v 0.10504629 0.02814707 -0.051831115
v 0.19280992 0.051663257 -0.04621978
v 0.10875192 7.837363E-09 -0.051831108
v 0.19961151 -3.088772E-09 -0.04621977
v 0.10504629 -0.028147131 -0.051831108
v 0.19280988 -0.05166339 -0.04621977
v 0.10504629 -0.028147131 -0.051831108
v 0.09418191 -0.054376014 -0.051831104
v 0.17286858 -0.099805884 -0.046219762
v 0.09418191 -0.054376014 -0.051831104
v 0.07689915 -0.076899275 -0.051831104
v 0.14114653 -0.14114676 -0.046219762
v 0.05437591 -0.09418195 -0.051831104
v 0.09980566 -0.17286871 -0.046219762
v 0.028147021 -0.1050463 -0.051831096
v 0.051663183 -0.19280992 -0.046219762
v -6.398735E-08 -0.10875192 -0.051831104
v -1.1121984E-07 -0.19961151 -0.046219755
v -0.028147107 -0.105046265 -0.051831096
v -0.051663328 -0.19280988 -0.046219762
v -0.054376 -0.094181895 -0.051831104
v -0.09980582 -0.1728686 -0.04621977
v -0.07689927 -0.07689916 -0.051831104
v -0.14114673 -0.14114659 -0.046219762
v -0.09418194 -0.05437589 -0.051831104
v -0.17286868 -0.09980566 -0.046219762
v -0.1050463 -0.028147008 -0.051831108
v -0.19280994 -0.051663157 -0.04621977
v -0.10875192 6.1160144E-08 -0.051831108
v -0.19961151 9.453625E-08 -0.04621977
v -0.1050463 0.028147113 -0.051831115
v -0.19280992 0.051663324 -0.046219777
v -0.09418191 0.054376014 -0.051831115
v -0.17286861 0.09980582 -0.046219777
v -0.07689919 0.076899245 -0.05183112
v -0.14114662 0.14114667 -0.046219774
v -0.054375947 0.09418195 -0.051831115
v -0.09980574 0.17286867 -0.046219774
v -0.028147051 0.1050463 -0.05183112
v -0.05166323 0.19280992 -0.046219785
v 1.0664558E-08 0.10875192 -0.05183112
v 1.853664E-08 0.19961154 -0.046219785
v 1.853664E-08 0.19961154 -0.046219785
v 0.06657865 0.24847487 -0.035593804
v 2.2828514E-08 0.25724018 -0.035593808
v 0.05166326 0.19280992 -0.046219785
v 0.12862004 0.22277649 -0.035593797
v 0.09980574 0.17286862 -0.04621978
v 0.18189625 0.18189624 -0.0355938
v 0.14114666 0.14114664 -0.04621978
v 0.22277649 0.12862009 -0.035593797
v 0.17286864 0.09980577 -0.04621978
v 0.24847487 0.06657863 -0.035593797
v 0.19280992 0.051663257 -0.04621978
v 0.25724012 -1.1577688E-08 -0.03559379
v 0.19961151 -3.088772E-09 -0.04621977
v 0.24847482 -0.06657881 -0.035593785
v 0.19280988 -0.05166339 -0.04621977
v 0.22277643 -0.1286202 -0.035593778
v 0.17286858 -0.099805884 -0.046219762
v 0.18189612 -0.18189636 -0.035593778
v 0.14114653 -0.14114676 -0.046219762
v 0.12861994 -0.22277656 -0.03559378
v 0.09980566 -0.17286871 -0.046219762
v 0.06657854 -0.2484749 -0.03559378
v 0.051663183 -0.19280992 -0.046219762
v -1.3697108E-07 -0.25724015 -0.03559377
v -1.1121984E-07 -0.19961151 -0.046219755
v -0.06657873 -0.24847485 -0.03559378
v -0.051663328 -0.19280988 -0.046219762
v -0.12862013 -0.22277643 -0.035593785
v -0.09980582 -0.1728686 -0.04621977
v -0.18189634 -0.18189617 -0.035593785
v -0.14114673 -0.14114659 -0.046219762
v -0.22277653 -0.12861994 -0.035593778
v -0.17286868 -0.09980566 -0.046219762
v -0.2484749 -0.06657852 -0.03559379
v -0.19280994 -0.051663157 -0.04621977
v -0.25724015 1.1397914E-07 -0.035593785
v -0.19961151 9.453625E-08 -0.04621977
v -0.2484749 0.06657872 -0.035593797
v -0.19280992 0.051663324 -0.046219777
v -0.22277649 0.12862013 -0.035593797
v -0.17286861 0.09980582 -0.046219777
v -0.18189618 0.18189625 -0.035593793
v -0.14114662 0.14114667 -0.046219774
v -0.12862004 0.2227765 -0.03559379
v -0.09980574 0.17286867 -0.046219774
v -0.06657862 0.2484749 -0.035593804
v -0.05166323 0.19280992 -0.046219785
v 2.2828514E-08 0.25724018 -0.035593808
v 1.853664E-08 0.19961154 -0.046219785
vt 1 0.5000644
vt 1 0
vt 0.9583333 0
vt 0.9583333 0.5000644
vt 0.9166667 0
vt 0.9166667 0.5000644
vt 0.875 0
vt 0.875 0.5000644
vt 0.8333334 0
vt 0.8333334 0.5000644
vt 0.7916666 0
vt 0.7916666 0.5000644
vt 0.75 0
vt 0.75 0.5000644
vt 0.7083332 0
vt 0.7083332 0.5000644
vt 0.7083332 0
vt 0.66666657 0
vt 0.66666657 0.5000644
vt 0.66666657 0
vt 0.6249999 0
vt 0.6249999 0.5000644
vt 0.58333325 0
vt 0.58333325 0.5000644
vt 0.54166657 0
vt 0.54166657 0.5000644
vt 0.49999994 0
vt 0.49999994 0.5000644
vt 0.45833328 0
vt 0.45833328 0.5000644
vt 0.41666663 0
vt 0.41666663 0.5000644
vt 0.37499994 0
vt 0.37499994 0.5000644
vt 0.33333325 0
vt 0.33333325 0.5000644
vt 0.2916666 0
vt 0.2916666 0.5000644
vt 0.24999994 0
vt 0.24999994 0.5000644
vt 0.20833328 0
vt 0.20833328 0.5000644
vt 0.16666663 0
vt 0.16666663 0.5000644
vt 0.12499997 0
vt 0.12499997 0.5000644
vt 0.08333331 0
vt 0.08333331 0.5000644
vt 0.041666657 0
vt 0.041666657 0.5000644
vt 0 0
vt 0 0.5000644
vt 1 0.5000644
vt 0.9583333 1.0001287
vt 1 1.0001287
vt 0.9583333 0.5000644
vt 0.9166667 1.0001287
vt 0.9166667 0.5000644
vt 0.875 1.0001287
vt 0.875 0.5000644
vt 0.8333334 1.0001287
vt 0.8333334 0.5000644
vt 0.7916666 1.0001287
vt 0.7916666 0.5000644
vt 0.75 1.0001287
vt 0.75 0.5000644
vt 0.7083332 1.0001287
vt 0.7083332 0.5000644
vt 0.66666657 1.0001287
vt 0.66666657 0.5000644
vt 0.6249999 1.0001287
vt 0.6249999 0.5000644
vt 0.58333325 1.0001287
vt 0.58333325 0.5000644
vt 0.54166657 1.0001287
vt 0.54166657 0.5000644
vt 0.49999994 1.0001287
vt 0.49999994 0.5000644
vt 0.45833328 1.0001287
vt 0.45833328 0.5000644
vt 0.41666663 1.0001287
vt 0.41666663 0.5000644
vt 0.37499994 1.0001287
vt 0.37499994 0.5000644
vt 0.33333325 1.0001287
vt 0.33333325 0.5000644
vt 0.2916666 1.0001287
vt 0.2916666 0.5000644
vt 0.24999994 1.0001287
vt 0.24999994 0.5000644
vt 0.20833328 1.0001287
vt 0.20833328 0.5000644
vt 0.16666663 1.0001287
vt 0.16666663 0.5000644
vt 0.12499997 1.0001287
vt 0.12499997 0.5000644
vt 0.08333331 1.0001287
vt 0.08333331 0.5000644
vt 0.041666657 1.0001287
vt 0.041666657 0.5000644
vt 0 1.0001287
vt 0 0.5000644
vn 0.008114943 0.061638843 -0.99806553
vn 0.008114943 0.061638843 -0.99806553
vn 0.02379184 0.05743824 -0.99806553
vn 0.023791842 0.05743825 -0.99806553
vn 0.037847083 0.04932346 -0.99806553
vn 0.037847083 0.04932346 -0.99806553
vn 0.049323425 0.037847105 -0.99806553
vn 0.04932343 0.03784711 -0.99806553
vn 0.057438303 0.023791716 -0.99806553
vn 0.057438307 0.02379172 -0.99806553
vn 0.06163891 0.008114696 -0.99806553
vn 0.06163891 0.0081146965 -0.99806553
vn 0.06163891 0.0081146965 -0.99806553
vn 0.06163891 0.008114696 -0.99806553
vn 0.06163889 -0.00811495 -0.99806553
vn 0.057438247 -0.02379192 -0.99806553
vn 0.8849847 -0.20823169 -0.41646338
vn 0.7642559 -0.47765997 -0.43330583
vn 0.049323358 -0.037847232 -0.99806553
vn 0.049323358 -0.037847225 -0.99806553
vn 0.03784716 -0.04932338 -0.99806553
vn 0.037847165 -0.04932338 -0.99806553
vn 0.023791563 -0.057438336 -0.99806553
vn 0.023791565 -0.057438344 -0.99806553
vn 0.008114946 -0.061638903 -0.99806553
vn 0.008114946 -0.0616389 -0.99806553
vn -0.008115012 -0.06163888 -0.99806553
vn -0.008115013 -0.061638884 -0.99806553
vn -0.023791578 -0.057438314 -0.99806553
vn -0.02379158 -0.057438314 -0.99806553
vn -0.037847184 -0.049323328 -0.99806553
vn -0.037847187 -0.04932333 -0.99806553
vn -0.04932341 -0.037847105 -0.99806553
vn -0.04932341 -0.03784711 -0.99806553
vn -0.05743824 -0.023791848 -0.99806553
vn -0.05743824 -0.023791848 -0.99806553
vn -0.061638884 -0.008114877 -0.99806553
vn -0.061638884 -0.008114877 -0.99806553
vn -0.06163892 0.008114692 -0.99806553
vn -0.06163893 0.008114693 -0.99806553
vn -0.057438295 0.023791768 -0.99806553
vn -0.057438307 0.02379177 -0.99806553
vn -0.049323406 0.037847213 -0.99806553
vn -0.04932341 0.037847217 -0.99806553
vn -0.037847165 0.049323477 -0.99806553
vn -0.037847165 0.04932347 -0.99806553
vn -0.023791857 0.05743827 -0.99806553
vn -0.023791859 0.05743827 -0.99806553
vn -0.008114946 0.061638854 -0.99806553
vn -0.008114947 0.061638854 -0.99806553
vn -0.008114946 0.061638854 -0.99806553
vn -0.008114946 0.061638854 -0.99806553
vn 0.023865988 0.18127878 -0.98314214
vn 0.069971174 0.16892497 -0.98314214
vn 0.02386599 0.1812788 -0.98314214
vn 0.069971174 0.16892496 -0.98314214
vn 0.11130771 0.14505929 -0.98314214
vn 0.11130772 0.1450593 -0.98314214
vn 0.14505926 0.111307785 -0.98314214
vn 0.14505926 0.11130779 -0.98314214
vn 0.16892508 0.06997101 -0.98314214
vn 0.16892508 0.069971025 -0.98314214
vn 0.18127896 0.023865687 -0.98314214
vn 0.18127899 0.023865687 -0.98314214
vn 0.18127899 0.023865692 -0.98314214
vn 0.18127896 0.023865687 -0.98314214
vn 0.16892497 -0.069971174 -0.98314214
vn 0.16892496 -0.06997117 -0.98314214
vn 0.14505903 -0.11130797 -0.98314214
vn 0.14505905 -0.11130797 -0.98314214
vn 0.11130782 -0.14505926 -0.98314214
vn 0.11130783 -0.14505926 -0.98314214
vn 0.06997087 -0.16892508 -0.98314214
vn 0.06997087 -0.16892506 -0.98314214
vn 0.023865702 -0.18127887 -0.98314214
vn 0.023865703 -0.18127887 -0.98314214
vn -0.023865858 -0.18127885 -0.98314214
vn -0.023865858 -0.18127885 -0.98314214
vn -0.06997099 -0.16892499 -0.98314214
vn -0.06997099 -0.16892496 -0.98314214
vn -0.11130783 -0.14505917 -0.98314214
vn -0.111307845 -0.14505917 -0.98314214
vn -0.14505933 -0.111307636 -0.98314214
vn -0.14505933 -0.111307636 -0.98314214
vn -0.16892505 -0.0699711 -0.98314214
vn -0.16892506 -0.0699711 -0.98314214
vn -0.18127888 -0.023865769 -0.98314214
vn -0.18127888 -0.02386577 -0.98314214
vn -0.18127887 0.023865702 -0.98314214
vn -0.18127885 0.023865698 -0.98314214
vn -0.16892493 0.06997108 -0.98314214
vn -0.16892493 0.06997108 -0.98314214
vn -0.14505906 0.11130797 -0.98314214
vn -0.14505908 0.11130797 -0.98314214
vn -0.11130792 0.14505926 -0.98314214
vn -0.1113079 0.14505926 -0.98314214
vn -0.069971174 0.16892496 -0.98314214
vn -0.069971174 0.16892496 -0.98314214
vn -0.02386594 0.18127877 -0.98314214
vn -0.02386594 0.18127877 -0.98314214
vn -0.023865938 0.18127875 -0.98314214
vn -0.023865942 0.18127875 -0.98314214
g FX_Cylinder_Ring_004_In001_0
f 3/3/3 2/2/2 1/1/1
f 4/4/4 3/3/3 1/1/1
f 5/5/5 3/3/3 4/4/4
f 6/6/6 5/5/5 4/4/4
f 7/7/7 5/5/5 6/6/6
f 8/8/8 7/7/7 6/6/6
f 9/9/9 7/7/7 8/8/8
f 10/10/10 9/9/9 8/8/8
f 11/11/11 9/9/9 10/10/10
f 12/12/12 11/11/11 10/10/10
f 13/13/13 11/11/11 12/12/12
f 14/14/14 13/13/13 12/12/12
f 15/15/15 13/13/13 14/14/14
f 16/16/16 15/15/15 14/14/14
f 18/18/18 17/17/17 16/16/16
f 19/19/19 18/18/18 16/16/16
f 21/21/21 20/20/20 19/19/19
f 22/22/22 21/21/21 19/19/19
f 23/23/23 21/21/21 22/22/22
f 24/24/24 23/23/23 22/22/22
f 25/25/25 23/23/23 24/24/24
f 26/26/26 25/25/25 24/24/24
f 27/27/27 25/25/25 26/26/26
f 28/28/28 27/27/27 26/26/26
f 29/29/29 27/27/27 28/28/28
f 30/30/30 29/29/29 28/28/28
f 31/31/31 29/29/29 30/30/30
f 32/32/32 31/31/31 30/30/30
f 33/33/33 31/31/31 32/32/32
f 34/34/34 33/33/33 32/32/32
f 35/35/35 33/33/33 34/34/34
f 36/36/36 35/35/35 34/34/34
f 37/37/37 35/35/35 36/36/36
f 38/38/38 37/37/37 36/36/36
f 39/39/39 37/37/37 38/38/38
f 40/40/40 39/39/39 38/38/38
f 41/41/41 39/39/39 40/40/40
f 42/42/42 41/41/41 40/40/40
f 43/43/43 41/41/41 42/42/42
f 44/44/44 43/43/43 42/42/42
f 45/45/45 43/43/43 44/44/44
f 46/46/46 45/45/45 44/44/44
f 47/47/47 45/45/45 46/46/46
f 48/48/48 47/47/47 46/46/46
f 49/49/49 47/47/47 48/48/48
f 50/50/50 49/49/49 48/48/48
f 51/51/51 49/49/49 50/50/50
f 52/52/52 51/51/51 50/50/50
f 55/55/55 54/54/54 53/53/53
f 54/54/54 56/56/56 53/53/53
f 54/54/54 57/57/57 56/56/56
f 57/57/57 58/58/58 56/56/56
f 57/57/57 59/59/59 58/58/58
f 59/59/59 60/60/60 58/58/58
f 59/59/59 61/61/61 60/60/60
f 61/61/61 62/62/62 60/60/60
f 61/61/61 63/63/63 62/62/62
f 63/63/63 64/64/64 62/62/62
f 63/63/63 65/65/65 64/64/64
f 65/65/65 66/66/66 64/64/64
f 65/65/65 67/67/67 66/66/66
f 67/67/67 68/68/68 66/66/66
f 67/67/67 69/69/69 68/68/68
f 69/69/69 70/70/70 68/68/68
f 69/69/69 71/71/71 70/70/70
f 71/71/71 72/72/72 70/70/70
f 71/71/71 73/73/73 72/72/72
f 73/73/73 74/74/74 72/72/72
f 73/73/73 75/75/75 74/74/74
f 75/75/75 76/76/76 74/74/74
f 75/75/75 77/77/77 76/76/76
f 77/77/77 78/78/78 76/76/76
f 77/77/77 79/79/79 78/78/78
f 79/79/79 80/80/80 78/78/78
f 79/79/79 81/81/81 80/80/80
f 81/81/81 82/82/82 80/80/80
f 81/81/81 83/83/83 82/82/82
f 83/83/83 84/84/84 82/82/82
f 83/83/83 85/85/85 84/84/84
f 85/85/85 86/86/86 84/84/84
f 85/85/85 87/87/87 86/86/86
f 87/87/87 88/88/88 86/86/86
f 87/87/87 89/89/89 88/88/88
f 89/89/89 90/90/90 88/88/88
f 89/89/89 91/91/91 90/90/90
f 91/91/91 92/92/92 90/90/90
f 91/91/91 93/93/93 92/92/92
f 93/93/93 94/94/94 92/92/92
f 93/93/93 95/95/95 94/94/94
f 95/95/95 96/96/96 94/94/94
f 95/95/95 97/97/97 96/96/96
f 97/97/97 98/98/98 96/96/96
f 97/97/97 99/99/99 98/98/98
f 99/99/99 100/100/100 98/98/98
f 99/99/99 101/101/101 100/100/100
f 101/101/101 102/102/102 100/100/100
