g FX_Cylinder_Ring_004_In002
v 2.4414062E-08 0.32847703 0.07118757
v 2.4414062E-08 0.3012508 -1.5258788E-08
v 0.07796943 0.29098585 -1.5258788E-08
v 0.08501609 0.31728444 0.07118757
v 0.15062533 0.26089078 3.0517577E-09
v 0.16423853 0.28446946 0.07118759
v 0.21301645 0.21301648 -9.155273E-09
v 0.2322683 0.23226838 0.07118757
v 0.2608908 0.15062541 3.0517577E-09
v 0.2844695 0.1642385 0.07118759
v 0.29098588 0.07796941 3.0517577E-09
v 0.31728446 0.08501618 0.07118759
v 0.30125067 -2.4414062E-08 3.0517577E-09
v 0.32847705 0 0.07118759
v 0.29098573 -0.077969626 9.155273E-09
v 0.31728446 -0.085016295 0.07118759
v 0.26089072 -0.15062556 1.5258788E-08
v 0.24847482 -0.06657881 -0.035593785
v 0.22277643 -0.1286202 -0.035593778
v 0.28446943 -0.16423869 0.07118761
v 0.21301635 -0.2130166 1.5258788E-08
v 0.23226821 -0.2322685 0.07118761
v 0.15062524 -0.2608909 9.155273E-09
v 0.16423832 -0.28446957 0.07118759
v 0.07796931 -0.29098594 3.0517577E-09
v 0.08501594 -0.31728452 0.071187586
v -1.4648437E-07 -0.3012508 2.746582E-08
v -1.4648437E-07 -0.32847705 0.07118762
v -0.07796953 -0.29098582 3.0517577E-09
v -0.08501624 -0.3172844 0.07118759
v -0.15062547 -0.26089075 3.0517577E-09
v -0.1642386 -0.2844694 0.071187586
v -0.21301655 -0.21301635 9.155273E-09
v -0.23226848 -0.23226821 0.07118761
v -0.2608909 -0.15062524 1.5258788E-08
v -0.28446954 -0.16423836 0.07118761
v -0.2909859 -0.07796928 3.0517577E-09
v -0.31728452 -0.08501597 0.07118759
v -0.3012508 1.220703E-07 9.155273E-09
v -0.32847703 1.4648437E-07 0.07118759
v -0.29098588 0.07796951 3.0517577E-09
v -0.31728444 0.08501628 0.07118759
v -0.26089078 0.15062547 3.0517577E-09
v -0.28446946 0.16423865 0.07118759
v -0.2130164 0.21301648 3.0517577E-09
v -0.23226827 0.23226842 0.07118757
v -0.15062535 0.26089084 9.155273E-09
v -0.16423847 0.28446946 0.07118759
v -0.07796941 0.2909859 -1.5258788E-08
v -0.085016064 0.31728444 0.07118757
v 2.4414062E-08 0.3012508 -1.5258788E-08
v 2.4414062E-08 0.32847703 0.07118757
v 0.24847487 0.06657863 -0.035593797
v 0.25724012 -1.1577688E-08 -0.03559379
v 0.30125067 -2.4414062E-08 3.0517577E-09
v 0.29098588 0.07796941 3.0517577E-09
v 0.22277649 0.12862009 -0.035593797
v 0.24847487 0.06657863 -0.035593797
v 0.29098588 0.07796941 3.0517577E-09
v 0.2608908 0.15062541 3.0517577E-09
v 0.18189625 0.18189624 -0.0355938
v 0.22277649 0.12862009 -0.035593797
v 0.2608908 0.15062541 3.0517577E-09
v 0.21301645 0.21301648 -9.155273E-09
v 0.12862004 0.22277649 -0.035593797
v 0.18189625 0.18189624 -0.0355938
v 0.21301645 0.21301648 -9.155273E-09
v 0.15062533 0.26089078 3.0517577E-09
v 0.06657865 0.24847487 -0.035593804
v 0.12862004 0.22277649 -0.035593797
v 0.15062533 0.26089078 3.0517577E-09
v 0.07796943 0.29098585 -1.5258788E-08
v 2.2828514E-08 0.25724018 -0.035593808
v 0.06657865 0.24847487 -0.035593804
v 0.07796943 0.29098585 -1.5258788E-08
v 2.4414062E-08 0.3012508 -1.5258788E-08
v -0.06657862 0.2484749 -0.035593804
v 2.2828514E-08 0.25724018 -0.035593808
v 2.4414062E-08 0.3012508 -1.5258788E-08
v -0.07796941 0.2909859 -1.5258788E-08
v -0.12862004 0.2227765 -0.03559379
v -0.06657862 0.2484749 -0.035593804
v -0.07796941 0.2909859 -1.5258788E-08
v -0.15062535 0.26089084 9.155273E-09
v -0.18189618 0.18189625 -0.035593793
v -0.12862004 0.2227765 -0.03559379
v -0.15062535 0.26089084 9.155273E-09
v -0.2130164 0.21301648 3.0517577E-09
v -0.22277649 0.12862013 -0.035593797
v -0.18189618 0.18189625 -0.035593793
v -0.2130164 0.21301648 3.0517577E-09
v -0.26089078 0.15062547 3.0517577E-09
v -0.2484749 0.06657872 -0.035593797
v -0.22277649 0.12862013 -0.035593797
v -0.26089078 0.15062547 3.0517577E-09
v -0.29098588 0.07796951 3.0517577E-09
v -0.25724015 1.1397914E-07 -0.035593785
v -0.2484749 0.06657872 -0.035593797
v -0.29098588 0.07796951 3.0517577E-09
v -0.3012508 1.220703E-07 9.155273E-09
v -0.2484749 -0.06657852 -0.03559379
v -0.25724015 1.1397914E-07 -0.035593785
v -0.3012508 1.220703E-07 9.155273E-09
v -0.2909859 -0.07796928 3.0517577E-09
v -0.22277653 -0.12861994 -0.035593778
v -0.2484749 -0.06657852 -0.03559379
v -0.2909859 -0.07796928 3.0517577E-09
v -0.2608909 -0.15062524 1.5258788E-08
v -0.18189634 -0.18189617 -0.035593785
v -0.22277653 -0.12861994 -0.035593778
v -0.2608909 -0.15062524 1.5258788E-08
v -0.21301655 -0.21301635 9.155273E-09
v -0.12862013 -0.22277643 -0.035593785
v -0.18189634 -0.18189617 -0.035593785
v -0.21301655 -0.21301635 9.155273E-09
v -0.15062547 -0.26089075 3.0517577E-09
v -0.06657873 -0.24847485 -0.03559378
v -0.12862013 -0.22277643 -0.035593785
v -0.15062547 -0.26089075 3.0517577E-09
v -0.07796953 -0.29098582 3.0517577E-09
v -1.3697108E-07 -0.25724015 -0.03559377
v -0.06657873 -0.24847485 -0.03559378
v -0.07796953 -0.29098582 3.0517577E-09
v -1.4648437E-07 -0.3012508 2.746582E-08
v 0.06657854 -0.2484749 -0.03559378
v -1.3697108E-07 -0.25724015 -0.03559377
v -1.4648437E-07 -0.3012508 2.746582E-08
v 0.07796931 -0.29098594 3.0517577E-09
v 0.12861994 -0.22277656 -0.03559378
v 0.06657854 -0.2484749 -0.03559378
v 0.07796931 -0.29098594 3.0517577E-09
v 0.15062524 -0.2608909 9.155273E-09
v 0.18189612 -0.18189636 -0.035593778
v 0.12861994 -0.22277656 -0.03559378
v 0.15062524 -0.2608909 9.155273E-09
v 0.21301635 -0.2130166 1.5258788E-08
v 0.22277643 -0.1286202 -0.035593778
v 0.18189612 -0.18189636 -0.035593778
v 0.21301635 -0.2130166 1.5258788E-08
v 0.26089072 -0.15062556 1.5258788E-08
v 0.25724012 -1.1577688E-08 -0.03559379
v 0.24847482 -0.06657881 -0.035593785
v 0.29098573 -0.077969626 9.155273E-09
v 0.30125067 -2.4414062E-08 3.0517577E-09
vt 1 1
vt 1 0.33376265
vt 0.9583333 0.33376265
vt 0.9583333 1
vt 0.9166667 0.33376265
vt 0.9166667 1
vt 0.875 0.33376265
vt 0.875 1
vt 0.8333334 0.33376265
vt 0.8333334 1
vt 0.7916666 0.33376265
vt 0.7916666 1
vt 0.75 0.33376265
vt 0.75 1
vt 0.7083332 0.33376265
vt 0.7083332 1
vt 0.66666657 0.33376265
vt 0.7083332 0.0006439686
vt 0.66666657 0.0006439686
vt 0.66666657 1
vt 0.6249999 0.33376265
vt 0.6249999 1
vt 0.58333325 0.33376265
vt 0.58333325 1
vt 0.54166657 0.33376265
vt 0.54166657 1
vt 0.49999994 0.33376265
vt 0.49999994 1
vt 0.45833328 0.33376265
vt 0.45833328 1
vt 0.41666663 0.33376265
vt 0.41666663 1
vt 0.37499994 0.33376265
vt 0.37499994 1
vt 0.33333325 0.33376265
vt 0.33333325 1
vt 0.2916666 0.33376265
vt 0.2916666 1
vt 0.24999994 0.33376265
vt 0.24999994 1
vt 0.20833328 0.33376265
vt 0.20833328 1
vt 0.16666663 0.33376265
vt 0.16666663 1
vt 0.12499997 0.33376265
vt 0.12499997 1
vt 0.08333331 0.33376265
vt 0.08333331 1
vt 0.041666657 0.33376265
vt 0.041666657 1
vt 0 0.33376265
vt 0 1
vt 0.7916666 0.0006439686
vt 0.75 0.0006439686
vt 0.75 0.33376265
vt 0.7916666 0.33376265
vt 0.8333334 0.0006439686
vt 0.7916666 0.0006439686
vt 0.7916666 0.33376265
vt 0.8333334 0.33376265
vt 0.875 0.0006439686
vt 0.8333334 0.0006439686
vt 0.8333334 0.33376265
vt 0.875 0.33376265
vt 0.9166667 0.0006439686
vt 0.875 0.0006439686
vt 0.875 0.33376265
vt 0.9166667 0.33376265
vt 0.9583333 0.0006439686
vt 0.9166667 0.0006439686
vt 0.9166667 0.33376265
vt 0.9583333 0.33376265
vt 1 0.0006439686
vt 0.9583333 0.0006439686
vt 0.9583333 0.33376265
vt 1 0.33376265
vt 0.041666657 0.0006439686
vt 0 0.0006439686
vt 0 0.33376265
vt 0.041666657 0.33376265
vt 0.08333331 0.0006439686
vt 0.041666657 0.0006439686
vt 0.041666657 0.33376265
vt 0.08333331 0.33376265
vt 0.12499997 0.0006439686
vt 0.08333331 0.0006439686
vt 0.08333331 0.33376265
vt 0.12499997 0.33376265
vt 0.16666663 0.0006439686
vt 0.12499997 0.0006439686
vt 0.12499997 0.33376265
vt 0.16666663 0.33376265
vt 0.20833328 0.0006439686
vt 0.16666663 0.0006439686
vt 0.16666663 0.33376265
vt 0.20833328 0.33376265
vt 0.24999994 0.0006439686
vt 0.20833328 0.0006439686
vt 0.20833328 0.33376265
vt 0.24999994 0.33376265
vt 0.2916666 0.0006439686
vt 0.24999994 0.0006439686
vt 0.24999994 0.33376265
vt 0.2916666 0.33376265
vt 0.33333325 0.0006439686
vt 0.2916666 0.0006439686
vt 0.2916666 0.33376265
vt 0.33333325 0.33376265
vt 0.37499994 0.0006439686
vt 0.33333325 0.0006439686
vt 0.33333325 0.33376265
vt 0.37499994 0.33376265
vt 0.41666663 0.0006439686
vt 0.37499994 0.0006439686
vt 0.37499994 0.33376265
vt 0.41666663 0.33376265
vt 0.45833328 0.0006439686
vt 0.41666663 0.0006439686
vt 0.41666663 0.33376265
vt 0.45833328 0.33376265
vt 0.49999994 0.0006439686
vt 0.45833328 0.0006439686
vt 0.45833328 0.33376265
vt 0.49999994 0.33376265
vt 0.54166657 0.0006439686
vt 0.49999994 0.0006439686
vt 0.49999994 0.33376265
vt 0.54166657 0.33376265
vt 0.58333325 0.0006439686
vt 0.54166657 0.0006439686
vt 0.54166657 0.33376265
vt 0.58333325 0.33376265
vt 0.6249999 0.0006439686
vt 0.58333325 0.0006439686
vt 0.58333325 0.33376265
vt 0.6249999 0.33376265
vt 0.66666657 0.0006439686
vt 0.6249999 0.0006439686
vt 0.6249999 0.33376265
vt 0.66666657 0.33376265
vt 0.75 0.0006439686
vt 0.7083332 0.0006439686
vt 0.7083332 0.33376265
vt 0.75 0.33376265
vn -0 0.99913305 -0.041630544
vn -0 0.97659564 -0.21508355
vn 0.23665325 0.946613 -0.21890424
vn 0.26286477 0.96383744 -0.043810796
vn 0.4936297 0.83917046 -0.22830375
vn 0.5331688 0.84418386 -0.055538412
vn 0.6865999 0.6865999 -0.2390839
vn 0.66017824 0.748202 -0.06601782
vn 0.8540018 0.47444543 -0.21350046
vn 0.86402696 0.50022614 -0.05684388
vn 0.95630246 0.1912605 -0.22114494
vn 0.9575972 0.28292644 -0.05440893
vn 0.96818894 -0.026894137 -0.24877077
vn 0.99864644 0 -0.05201284
vn 0.9399924 -0.24736644 -0.2349981
vn 0.9734787 -0.22308886 -0.050702017
vn 0.8421772 -0.49127007 -0.22224121
vn 0.58398527 -0.24189445 -0.77488595
vn 0.5839852 -0.24189445 -0.7748861
vn 0.87538 -0.47937474 -0.06252714
vn 0.73446864 -0.6426601 -0.21804538
vn 0.7064959 -0.7064959 -0.041558582
vn 0.47321543 -0.8517878 -0.22477731
vn 0.4811977 -0.87490493 -0.05468156
vn 0.23665325 -0.946613 -0.21890424
vn 0.28274235 -0.9569741 -0.065248236
vn -0 -0.9767444 -0.21440731
vn -0 -0.99852645 -0.05426774
vn -0.24206884 -0.94406843 -0.2239137
vn -0.29289058 -0.95460635 -0.054239
vn -0.4633264 -0.8553718 -0.2316632
vn -0.50687355 -0.8594813 -0.06611394
vn -0.6616807 -0.71069413 -0.23894025
vn -0.70645833 -0.70645833 -0.042815655
vn -0.8410705 -0.49062443 -0.22778992
vn -0.87586653 -0.48065847 -0.042725194
vn -0.9414517 -0.24139786 -0.23536293
vn -0.9593488 -0.27714518 -0.05329715
vn -0.9741906 0 -0.2257271
vn -0.99852645 0 -0.05426774
vn -0.9516899 0.21413024 -0.22007829
vn -0.94514436 0.32220832 -0.053701382
vn -0.84738064 0.48421752 -0.21789786
vn -0.8377079 0.5445101 -0.041885395
vn -0.6895213 0.6895213 -0.22163182
vn -0.71637636 0.694668 -0.06512512
vn -0.5340902 0.81385165 -0.22889578
vn -0.5616991 0.8253538 -0.057316232
vn -0.2264808 0.9512194 -0.20949474
vn -0.27301624 0.96101713 -0.0436826
vn -0 0.97659564 -0.21508355
vn -0 0.99913305 -0.041630544
vn 0.6266931 0.082505316 -0.77488613
vn 0.6266931 0.082505316 -0.7748862
vn 0.6266931 0.082505316 -0.7748862
vn 0.6266931 0.082505316 -0.7748862
vn 0.5839849 0.24189414 -0.7748864
vn 0.5839849 0.24189417 -0.7748864
vn 0.5839849 0.24189417 -0.7748864
vn 0.5839849 0.24189417 -0.7748864
vn 0.5014791 0.3847984 -0.7748864
vn 0.501479 0.38479844 -0.7748864
vn 0.50147915 0.38479844 -0.7748864
vn 0.50147915 0.38479844 -0.7748864
vn 0.38479817 0.5014793 -0.7748864
vn 0.3847981 0.5014793 -0.7748863
vn 0.3847981 0.5014793 -0.7748863
vn 0.3847981 0.5014793 -0.7748863
vn 0.24189463 0.5839849 -0.7748862
vn 0.24189463 0.5839849 -0.7748862
vn 0.24189462 0.58398485 -0.77488625
vn 0.24189463 0.58398485 -0.7748862
vn 0.082506284 0.6266928 -0.77488625
vn 0.08250629 0.6266929 -0.77488625
vn 0.08250629 0.6266929 -0.77488625
vn 0.082506284 0.6266928 -0.77488625
vn -0.08250596 0.6266928 -0.7748864
vn -0.08250596 0.6266927 -0.7748864
vn -0.08250596 0.62669283 -0.7748864
vn -0.08250596 0.6266928 -0.7748864
vn -0.24189451 0.5839847 -0.7748864
vn -0.24189451 0.5839847 -0.7748865
vn -0.24189451 0.5839847 -0.7748865
vn -0.24189451 0.5839847 -0.7748864
vn -0.38479856 0.501479 -0.77488625
vn -0.38479856 0.5014791 -0.7748863
vn -0.38479853 0.50147915 -0.77488625
vn -0.38479856 0.5014791 -0.7748863
vn -0.50147873 0.38479897 -0.7748864
vn -0.50147873 0.38479897 -0.7748863
vn -0.50147873 0.38479894 -0.77488625
vn -0.50147873 0.38479897 -0.7748863
vn -0.58398485 0.24189456 -0.77488625
vn -0.5839849 0.24189457 -0.77488625
vn -0.5839849 0.24189456 -0.7748862
vn -0.5839849 0.24189456 -0.7748862
vn -0.6266929 0.0825058 -0.77488625
vn -0.6266929 0.08250579 -0.77488625
vn -0.62669295 0.08250581 -0.77488625
vn -0.62669295 0.08250581 -0.77488625
vn -0.62669283 -0.082505696 -0.7748863
vn -0.62669283 -0.0825057 -0.7748864
vn -0.62669283 -0.082505696 -0.7748863
vn -0.62669283 -0.082505696 -0.7748863
vn -0.5839848 -0.24189413 -0.7748864
vn -0.5839848 -0.24189413 -0.7748864
vn -0.5839848 -0.24189413 -0.7748865
vn -0.5839848 -0.24189413 -0.7748865
vn -0.50147945 -0.38479802 -0.7748864
vn -0.50147945 -0.38479805 -0.7748864
vn -0.50147945 -0.38479805 -0.7748864
vn -0.5014794 -0.384798 -0.7748863
vn -0.38479862 -0.501479 -0.7748864
vn -0.38479862 -0.501479 -0.7748863
vn -0.38479856 -0.501479 -0.7748863
vn -0.38479856 -0.5014789 -0.7748863
vn -0.24189442 -0.58398473 -0.7748864
vn -0.24189442 -0.5839847 -0.7748864
vn -0.24189442 -0.58398473 -0.7748864
vn -0.24189445 -0.5839847 -0.7748864
vn -0.08250612 -0.6266929 -0.77488625
vn -0.08250612 -0.62669295 -0.77488625
vn -0.08250611 -0.6266929 -0.77488625
vn -0.082506105 -0.6266929 -0.77488625
vn 0.08250538 -0.6266928 -0.7748864
vn 0.08250539 -0.6266928 -0.7748865
vn 0.08250539 -0.62669283 -0.7748864
vn 0.0825054 -0.62669283 -0.7748864
vn 0.2418941 -0.5839848 -0.7748865
vn 0.24189408 -0.58398473 -0.7748865
vn 0.2418941 -0.5839848 -0.7748865
vn 0.24189408 -0.58398473 -0.7748865
vn 0.38479802 -0.50147927 -0.7748865
vn 0.38479805 -0.5014792 -0.77488655
vn 0.38479802 -0.50147927 -0.7748865
vn 0.38479802 -0.50147927 -0.7748865
vn 0.50147885 -0.38479874 -0.7748864
vn 0.5014788 -0.38479874 -0.7748864
vn 0.50147873 -0.38479877 -0.7748865
vn 0.50147873 -0.38479874 -0.7748864
vn 0.62669337 -0.08250608 -0.77488583
vn 0.62669337 -0.08250608 -0.77488583
vn 0.6266935 -0.08250608 -0.77488583
vn 0.62669337 -0.082506076 -0.7748859
g FX_Cylinder_Ring_004_In002_0
f 3/3/3 2/2/2 1/1/1
f 4/4/4 3/3/3 1/1/1
f 5/5/5 3/3/3 4/4/4
f 6/6/6 5/5/5 4/4/4
f 7/7/7 5/5/5 6/6/6
f 8/8/8 7/7/7 6/6/6
f 9/9/9 7/7/7 8/8/8
f 10/10/10 9/9/9 8/8/8
f 11/11/11 9/9/9 10/10/10
f 12/12/12 11/11/11 10/10/10
f 13/13/13 11/11/11 12/12/12
f 14/14/14 13/13/13 12/12/12
f 15/15/15 13/13/13 14/14/14
f 16/16/16 15/15/15 14/14/14
f 17/17/17 15/15/15 16/16/16
f 15/15/15 17/17/17 18/18/18
f 17/17/17 19/19/19 18/18/18
f 20/20/20 17/17/17 16/16/16
f 21/21/21 17/17/17 20/20/20
f 22/22/22 21/21/21 20/20/20
f 23/23/23 21/21/21 22/22/22
f 24/24/24 23/23/23 22/22/22
f 25/25/25 23/23/23 24/24/24
f 26/26/26 25/25/25 24/24/24
f 27/27/27 25/25/25 26/26/26
f 28/28/28 27/27/27 26/26/26
f 29/29/29 27/27/27 28/28/28
f 30/30/30 29/29/29 28/28/28
f 31/31/31 29/29/29 30/30/30
f 32/32/32 31/31/31 30/30/30
f 33/33/33 31/31/31 32/32/32
f 34/34/34 33/33/33 32/32/32
f 35/35/35 33/33/33 34/34/34
f 36/36/36 35/35/35 34/34/34
f 37/37/37 35/35/35 36/36/36
f 38/38/38 37/37/37 36/36/36
f 39/39/39 37/37/37 38/38/38
f 40/40/40 39/39/39 38/38/38
f 41/41/41 39/39/39 40/40/40
f 42/42/42 41/41/41 40/40/40
f 43/43/43 41/41/41 42/42/42
f 44/44/44 43/43/43 42/42/42
f 45/45/45 43/43/43 44/44/44
f 46/46/46 45/45/45 44/44/44
f 47/47/47 45/45/45 46/46/46
f 48/48/48 47/47/47 46/46/46
f 49/49/49 47/47/47 48/48/48
f 50/50/50 49/49/49 48/48/48
f 51/51/51 49/49/49 50/50/50
f 52/52/52 51/51/51 50/50/50
f 55/55/55 54/54/54 53/53/53
f 56/56/56 55/55/55 53/53/53
f 59/59/59 58/58/58 57/57/57
f 60/60/60 59/59/59 57/57/57
f 63/63/63 62/62/62 61/61/61
f 64/64/64 63/63/63 61/61/61
f 67/67/67 66/66/66 65/65/65
f 68/68/68 67/67/67 65/65/65
f 71/71/71 70/70/70 69/69/69
f 72/72/72 71/71/71 69/69/69
f 75/75/75 74/74/74 73/73/73
f 76/76/76 75/75/75 73/73/73
f 79/79/79 78/78/78 77/77/77
f 80/80/80 79/79/79 77/77/77
f 83/83/83 82/82/82 81/81/81
f 84/84/84 83/83/83 81/81/81
f 87/87/87 86/86/86 85/85/85
f 88/88/88 87/87/87 85/85/85
f 91/91/91 90/90/90 89/89/89
f 92/92/92 91/91/91 89/89/89
f 95/95/95 94/94/94 93/93/93
f 96/96/96 95/95/95 93/93/93
f 99/99/99 98/98/98 97/97/97
f 100/100/100 99/99/99 97/97/97
f 103/103/103 102/102/102 101/101/101
f 104/104/104 103/103/103 101/101/101
f 107/107/107 106/106/106 105/105/105
f 108/108/108 107/107/107 105/105/105
f 111/111/111 110/110/110 109/109/109
f 112/112/112 111/111/111 109/109/109
f 115/115/115 114/114/114 113/113/113
f 116/116/116 115/115/115 113/113/113
f 119/119/119 118/118/118 117/117/117
f 120/120/120 119/119/119 117/117/117
f 123/123/123 122/122/122 121/121/121
f 124/124/124 123/123/123 121/121/121
f 127/127/127 126/126/126 125/125/125
f 128/128/128 127/127/127 125/125/125
f 131/131/131 130/130/130 129/129/129
f 132/132/132 131/131/131 129/129/129
f 135/135/135 134/134/134 133/133/133
f 136/136/136 135/135/135 133/133/133
f 139/139/139 138/138/138 137/137/137
f 140/140/140 139/139/139 137/137/137
f 143/143/143 142/142/142 141/141/141
f 144/144/144 143/143/143 141/141/141
