g FX_MESH_Cone_UV_01
v 0.6937166 -0.07816261 -4.9552864E-07
v 0.62529474 4.982249E-07 -0.007997836
v 0.69810605 5.563737E-07 -5E-07
v 0.62136406 -0.06999353 -0.007997826
v 0.68060315 -0.15534271 -4.911003E-07
v 0.55248356 4.400761E-07 -0.01599517
v 0.6096212 -0.13910726 -0.007997821
v 0.6589308 -0.2305693 -4.8675736E-07
v 0.54901165 -0.06182445 -0.015995162
v 0.47967234 3.819273E-07 -0.023992505
v 0.5902139 -0.2064716 -0.007997816
v 0.62897205 -0.30289635 -4.8254117E-07
v 0.47665903 -0.05365537 -0.023992497
v 0.40686107 3.237785E-07 -0.031989835
v 0.5386393 -0.12287178 -0.015995158
v 0.5633863 -0.2712395 -0.007997816
v 0.59110355 -0.3714143 -4.784915E-07
v 0.4043066 -0.04548629 -0.031989835
v 0.3340498 2.6562972E-07 -0.039987173
v 0.46765736 -0.10663629 -0.023992497
v 0.521497 -0.1823739 -0.015995152
v 0.52947557 -0.33259636 -0.007997806
v 0.54580164 -0.4352615 -4.7464596E-07
v 0.33195415 -0.03731721 -0.03998717
v 0.26123857 2.0748091E-07 -0.047984514
v 0.49780056 -0.23958261 -0.015995152
v 0.39667538 -0.090400815 -0.03198983
v 0.4527801 -0.15827619 -0.023992492
v 0.48890835 -0.38977066 -0.007997806
v 0.49363598 -0.49363503 -4.710397E-07
v 0.2596017 -0.02914813 -0.047984507
v 0.18842739 1.4933215E-07 -0.055981845
v 0.46784762 -0.29377842 -0.015995143
v 0.43221477 -0.20792572 -0.023992488
v 0.32569346 -0.074165344 -0.039987165
v 0.3840632 -0.1341785 -0.031989828
v 0.4421946 -0.44204324 -0.007997811
v 0.43526247 -0.5458008 -4.6770478E-07
v 0.18724921 -0.020979047 -0.055981845
v 0.11561615 9.118335E-08 -0.06397918
v 0.43201503 -0.34427974 -0.015995149
v 0.4062196 -0.25496045 -0.023992483
v 0.25471157 -0.057929866 -0.047984507
v 0.31534642 -0.11008081 -0.03998716
v 0.36662897 -0.17626885 -0.03198982
v 0.11489674 -0.012809967 -0.06397918
v 0.042804908 3.3034567E-08 -0.07197651
v 0.042544287 -0.004640888 -0.07197651
v 0.18372959 -0.04169439 -0.05598184
v 0.11274765 -0.025458911 -0.06397918
v 0.04176571 -0.00922344 -0.07197651
v 0.24662952 -0.085983105 -0.0479845
v 0.3010432 -0.14461194 -0.03998716
v 0.34459162 -0.21614246 -0.03198982
v 0.10919575 -0.0377877 -0.06397917
v 0.040478896 -0.0136899995 -0.071976505
v 0.17791264 -0.061885398 -0.055981833
v 0.23545742 -0.112955056 -0.0479845
v 0.10428589 -0.049641285 -0.06397917
v 0.038700104 -0.017984403 -0.071976505
v 0.16987163 -0.081298165 -0.055981833
v 0.28296366 -0.1773245 -0.039987154
v 0.3751217 -0.29878888 -0.023992479
v 0.09807968 -0.0608706 -0.06397917
v 0.036451682 -0.02205264 -0.071976505
v 0.15970764 -0.09968857 -0.055981833
v 0.22133563 -0.13850653 -0.0479845
v 0.31822842 -0.25329795 -0.03198982
v 0.39075342 -0.39045155 -0.015995149
v 0.09065517 -0.07133443 -0.063979164
v 0.033761863 -0.025843553 -0.071976505
v 0.2613351 -0.20780708 -0.039987154
v 0.14754848 -0.11682532 -0.05598183
v 0.20444179 -0.1623162 -0.04798449
v 0.33931208 -0.33885983 -0.023992483
v 0.38992205 -0.48875704 -0.0079978015
v 0.37141535 -0.59110284 -4.6466985E-07
v 0.28787088 -0.28726813 -0.031989817
v 0.23642963 -0.23567638 -0.039987154
v 0.18498836 -0.18408465 -0.047984496
v 0.34458163 -0.43171325 -0.01599514
v 0.3327479 -0.5293244 -0.007997797
v 0.3028975 -0.62897146 -4.619599E-07
v 0.29924121 -0.3746695 -0.023992473
v 0.2539008 -0.3176257 -0.031989813
v 0.2713911 -0.5632352 -0.007997797
v 0.23057055 -0.65893036 -4.5959567E-07
v 0.29408038 -0.46754596 -0.015995134
v 0.20662326 -0.5900629 -0.0079978015
v 0.15534401 -0.68060285 -4.5759367E-07
v 0.25541285 -0.40576747 -0.02399247
v 0.2398846 -0.49749893 -0.015995134
v 0.20856036 -0.26058194 -0.03998715
v 0.13925895 -0.6094705 -0.007997788
v 0.078163944 -0.69371635 -4.5596576E-07
v 0.18267605 -0.5211956 -0.015995134
v 0.21674533 -0.343989 -0.031989805
v 0.20837818 -0.43176264 -0.023992473
v 0.0701453 -0.6212133 -0.007997792
v 8.7738033E-07 -0.698106 -4.547192E-07
v 0.1231739 -0.538338 -0.015995128
v 0.15872875 -0.45232818 -0.023992473
v 0.17687175 -0.36602637 -0.03198981
v 0.1780778 -0.28221053 -0.039987143
v 0.00015132903 -0.6251443 -0.007997783
v -0.07816223 -0.6937166 -4.538564E-07
v 0.062126618 -0.54871035 -0.015995128
v 0.10708885 -0.46720552 -0.023992464
v 0.1347815 -0.3834608 -0.03198981
v -0.069842644 -0.62121356 -0.007997792
v -0.1553424 -0.68060327 -4.5337492E-07
v 0.00030181883 -0.5521825 -0.015995124
v 0.05410797 -0.47620735 -0.023992464
v -0.13895641 -0.6094707 -0.007997792
v -0.23056905 -0.6589309 -4.5326755E-07
v -0.061523017 -0.5487105 -0.015995128
v -0.20632085 -0.5900635 -0.007997783
v -0.30289614 -0.6289721 -4.5352243E-07
v 0.1453653 -0.3002901 -0.039987147
v 0.0910038 -0.396073 -0.0319898
v 0.0004522705 -0.4792207 -0.023992458
v -0.122570395 -0.5383381 -0.015995128
v -0.27108872 -0.56323576 -0.007997788
v -0.37141418 -0.5911037 -4.5412304E-07
v 0.11083423 -0.3145934 -0.039987147
v 0.046089284 -0.40370432 -0.0319898
v -0.05320343 -0.47620746 -0.02399247
v -0.1820726 -0.521196 -0.015995124
v -0.33244568 -0.52932507 -0.007997797
v -0.43526146 -0.5458017 -4.5504854E-07
v 0.07491875 -0.32494056 -0.03998714
v 0.0006027603 -0.4062589 -0.031989798
v -0.106184386 -0.46720567 -0.023992464
v -0.23928131 -0.4974994 -0.015995124
v -0.38961998 -0.48875782 -0.007997797
v -0.49363503 -0.493636 -4.5627408E-07
v 0.03807064 -0.33120131 -0.03998714
v -0.04488384 -0.40370443 -0.0319898
v -0.15782437 -0.45232856 -0.023992458
v -0.29347715 -0.46754652 -0.015995134
v -0.44189268 -0.44204417 -0.007997792
v -0.54580086 -0.43526253 -4.5777102E-07
v 0.00075321196 -0.3332971 -0.039987136
v -0.08979839 -0.3960732 -0.0319898
v -0.20747389 -0.43176305 -0.023992464
v -0.34397858 -0.43171394 -0.015995134
v -0.4886065 -0.38977152 -0.007997788
v -0.59110296 -0.37141532 -4.5950716E-07
v -0.036564216 -0.3312014 -0.03998714
v -0.13357612 -0.38346112 -0.031989798
v -0.25450864 -0.40576798 -0.02399247
v -0.3901504 -0.39045233 -0.015995128
v -0.5291739 -0.33259726 -0.007997792
v -0.6289715 -0.3028974 -4.614475E-07
v -0.073412396 -0.32494068 -0.03998714
v -0.17566647 -0.36602676 -0.0319898
v -0.29833713 -0.3746701 -0.023992464
v -0.4314122 -0.34428054 -0.015995124
v -0.5630847 -0.2712404 -0.007997792
v -0.6589305 -0.23057035 -4.6355433E-07
v -0.10932788 -0.31459367 -0.039987136
v -0.21554014 -0.3439894 -0.0319898
v -0.3384081 -0.3388605 -0.023992464
v -0.46724486 -0.29377922 -0.015995128
v -0.58991253 -0.20647255 -0.007997797
v -0.6806029 -0.15534374 -4.657879E-07
v -0.14385906 -0.3002904 -0.03998714
v -0.25269568 -0.3176262 -0.031989805
v -0.37421784 -0.29878956 -0.023992464
v -0.4971979 -0.23958343 -0.015995128
v -0.60932 -0.13910817 -0.007997797
v -0.6937164 -0.0781636 -4.6810686E-07
v -0.17657161 -0.28221086 -0.03998714
v -0.2866659 -0.28726867 -0.0319898
v -0.40531582 -0.25496113 -0.02399247
v -0.5208946 -0.18237475 -0.015995134
v -0.6210628 -0.06999441 -0.007997806
v -0.69810605 -5.108228E-07 -4.7046882E-07
v -0.20705427 -0.26058236 -0.03998714
v -0.3170235 -0.25329855 -0.0319898
v -0.43131107 -0.20792644 -0.023992464
v -0.5380369 -0.122872576 -0.015995134
v -0.62499374 -4.574348E-07 -0.007997797
v -0.6937166 0.07816259 -4.7283075E-07
v -0.23492357 -0.23567684 -0.03998714
v -0.34338677 -0.21614307 -0.0319898
v -0.45187658 -0.15827692 -0.02399247
v -0.5484093 -0.061825234 -0.01599514
v -0.62106293 0.0699935 -0.007997811
v -0.68060315 0.15534274 -4.751497E-07
v -0.25982916 -0.20780757 -0.039987136
v -0.36542428 -0.17626946 -0.031989798
v -0.46675384 -0.106636986 -0.02399247
v -0.5518814 -4.0404666E-07 -0.015995134
v -0.6093201 0.13910727 -0.007997806
v -0.6589308 0.23056938 -4.7738325E-07
v -0.28145775 -0.177325 -0.03998714
v -0.38285866 -0.13417912 -0.0319898
v -0.47575572 -0.053656053 -0.02399247
v -0.54840934 0.061824426 -0.015995143
v -0.5899128 0.20647167 -0.007997811
v -0.62897193 0.30289647 -4.7949015E-07
v -0.2995374 -0.14461245 -0.039987136
v -0.3954708 -0.09040141 -0.031989805
v -0.47876897 -3.5065852E-07 -0.023992473
v -0.5380371 0.122871794 -0.015995143
v -0.56308514 0.27123958 -0.007997811
v -0.59110343 0.37141448 -4.8143045E-07
v -0.3138407 -0.1100813 -0.039987136
v -0.4031021 -0.045486867 -0.03198981
v -0.47575578 0.053655356 -0.023992473
v -0.5208948 0.18237397 -0.015995143
v -0.5291744 0.3325965 -0.007997811
v -0.5458015 0.43526173 -4.831667E-07
v -0.32418776 -0.07416583 -0.03998714
v -0.40565667 -2.9727047E-07 -0.031989805
v -0.466754 0.106636316 -0.023992479
v -0.49719825 0.2395827 -0.015995143
v -0.48860714 0.38977084 -0.007997811
v -0.49363577 0.49363524 -4.8466353E-07
v -0.33044854 -0.037317682 -0.03998714
v -0.4031022 0.04548628 -0.03198981
v -0.4518768 0.15827624 -0.023992479
v -0.4672453 0.29377854 -0.015995143
v -0.44189343 0.4420435 -0.007997816
v -0.43526226 0.5458011 -4.858891E-07
v -0.33254427 -2.4388237E-07 -0.03998714
v -0.39547095 0.09040084 -0.031989813
v -0.43131137 0.2079258 -0.023992479
v -0.43141273 0.34427994 -0.015995149
v -0.3896207 0.48875722 -0.007997826
v -0.37141505 0.5911031 -4.8681466E-07
v -0.3304486 0.037317198 -0.039987143
v -0.38285884 0.13417855 -0.03198981
v -0.4053162 0.25496054 -0.023992479
v -0.39015105 0.39045173 -0.015995152
v -0.33244643 0.5293246 -0.007997816
v -0.3028971 0.62897164 -4.874152E-07
v -0.32418787 0.07416536 -0.039987143
v -0.36542448 0.17626892 -0.03198981
v -0.37421829 0.298789 -0.023992479
v -0.34397918 0.43171343 -0.015995152
v -0.2710896 0.5632354 -0.007997821
v -0.23057005 0.6589306 -4.876701E-07
v -0.3138408 0.11008084 -0.039987143
v -0.3433871 0.21614258 -0.03198981
v -0.33840868 0.33886 -0.023992483
v -0.29347786 0.4675461 -0.015995149
v -0.20632172 0.59006315 -0.007997821
v -0.15534341 0.680603 -4.875628E-07
v -0.2995376 0.144612 -0.039987143
v -0.31702387 0.2532981 -0.031989813
v -0.2983377 0.37466964 -0.023992483
v -0.23928207 0.49749908 -0.015995152
v -0.13895732 0.6094706 -0.007997816
v -0.07816326 0.6937164 -4.8708125E-07
v -0.28145802 0.1773246 -0.039987143
v -0.2866663 0.28726822 -0.031989817
v -0.25450927 0.40576762 -0.023992483
v -0.18207335 0.52119577 -0.015995152
v -0.06984356 0.6212135 -0.007997811
v -2.2888183E-07 0.698106 -4.862185E-07
v -0.2598295 0.2078072 -0.039987143
v -0.25269616 0.31762585 -0.031989817
v -0.20747454 0.43176275 -0.023992488
v -0.122571215 0.53833807 -0.015995149
v 0.00015033722 0.6251443 -0.007997811
v 0.078162804 0.69371647 -4.849719E-07
v -0.23492394 0.2356765 -0.039987147
v -0.21554068 0.3439891 -0.031989813
v -0.15782501 0.45232832 -0.023992488
v -0.061523855 0.54871047 -0.015995143
v 0.07014427 0.62121344 -0.007997821
v 0.1553429 0.6806031 -4.83344E-07
v -0.20705464 0.26058203 -0.039987147
v -0.17566703 0.3660265 -0.031989817
v -0.10618511 0.4672056 -0.023992479
v 0.00030094146 0.5521825 -0.015995143
v 0.139258 0.6094706 -0.007997811
v 0.2305695 0.6589307 -4.81342E-07
v -0.17657207 0.28221062 -0.039987147
v -0.13357669 0.3834609 -0.031989817
v -0.053204153 0.4762074 -0.023992479
v 0.06212574 0.5487104 -0.015995149
v 0.20662235 0.59006333 -0.007997811
v 0.30289653 0.62897193 -4.789778E-07
v -0.14385952 0.30029023 -0.03998715
v -0.089799 0.3960731 -0.031989813
v 0.00045150757 0.4792207 -0.023992473
v 0.12317302 0.5383381 -0.015995143
v 0.27139017 0.56323564 -0.007997806
v 0.37141445 0.59110343 -4.7626784E-07
v -0.109328344 0.3145935 -0.03998715
v -0.04488445 0.40370438 -0.03198981
v 0.05410717 0.47620746 -0.023992479
v 0.1826752 0.5211959 -0.015995143
v 0.33274707 0.52932495 -0.0079978015
v 0.43526164 0.5458015 -4.7323292E-07
v -0.073412895 0.32494062 -0.039987143
v 0.0006021118 0.4062589 -0.031989805
v 0.107088126 0.46720564 -0.023992473
v 0.23988384 0.49749932 -0.015995143
v 0.38992137 0.4887577 -0.0079978015
v 0.49363512 0.4936358 -4.6989803E-07
v -0.03656475 0.33120134 -0.03998714
v 0.046088636 0.4037044 -0.031989813
v 0.15872802 0.45232844 -0.023992473
v 0.2940797 0.46754646 -0.015995134
v 0.44219393 0.44204405 -0.007997806
v 0.545801 0.43526235 -4.6629174E-07
v 0.0007526779 0.3332971 -0.03998714
v 0.09100319 0.39607313 -0.03198981
v 0.2083775 0.431763 -0.023992473
v 0.34458095 0.43171382 -0.01599514
v 0.48890772 0.3897714 -0.007997797
v 0.591103 0.37141526 -4.6244622E-07
v 0.038070105 0.33120134 -0.039987143
v 0.13478084 0.38346103 -0.0319898
v 0.25541225 0.4057679 -0.02399247
v 0.39075282 0.39045227 -0.015995134
v 0.52947515 0.33259723 -0.007997783
v 0.6289715 0.30289736 -4.5839653E-07
v 0.07491825 0.32494062 -0.03998714
v 0.17687118 0.36602667 -0.031989805
v 0.29924068 0.37466997 -0.02399247
v 0.4320145 0.34428042 -0.015995128
v 0.5633858 0.27124035 -0.007997788
v 0.6589305 0.23057035 -4.5418034E-07
v 0.1108337 0.3145936 -0.039987136
v 0.2167448 0.34398937 -0.031989798
v 0.33931163 0.3388604 -0.02399247
v 0.46784717 0.29377913 -0.015995119
v 0.59021366 0.20647255 -0.007997788
v 0.68060285 0.1553438 -4.498374E-07
v 0.14536484 0.30029032 -0.039987136
v 0.25390026 0.31762612 -0.0319898
v 0.37512127 0.29878944 -0.023992464
v 0.49780008 0.23958337 -0.015995124
v 0.60962105 0.13910821 -0.007997783
v 0.6937164 0.078163594 -4.4540906E-07
v 0.17807738 0.2822108 -0.039987132
v 0.28787044 0.2872686 -0.031989798
v 0.40621927 0.25496107 -0.023992455
v 0.52149683 0.18237472 -0.015995124
v 0.62136394 0.06999441 -0.007997778
v 0.69810605 4.3431297E-07 -4.4093775E-07
v 0.62529474 3.889212E-07 -0.007997778
v 0.5386392 0.122872636 -0.015995115
v 0.54901147 0.061825227 -0.015995115
v 0.55248356 3.4352945E-07 -0.01599511
v 0.43221432 0.20792638 -0.023992455
v 0.31822804 0.2532985 -0.031989794
v 0.45277995 0.1582769 -0.023992458
v 0.47665897 0.053656038 -0.023992449
v 0.47967234 2.9813773E-07 -0.02399244
v 0.46765712 0.10663704 -0.023992449
v 0.34459132 0.21614301 -0.031989787
v 0.4043066 0.04548686 -0.031989783
v 0.40686107 2.5274596E-07 -0.03198978
v 0.36662868 0.1762694 -0.03198979
v 0.38406307 0.1341791 -0.03198979
v 0.39667523 0.090401456 -0.031989783
v 0.33195406 0.03731768 -0.039987113
v 0.33404988 2.0735422E-07 -0.039987113
v 0.3256934 0.074165866 -0.039987117
v 0.31534624 0.110081285 -0.039987125
v 0.30104288 0.1446124 -0.03998712
v 0.28296337 0.17732497 -0.03998712
v 0.25960162 0.029148493 -0.04798445
v 0.26123866 1.6196249E-07 -0.04798445
v 0.25471142 0.057930272 -0.04798445
v 0.24662937 0.085983485 -0.047984462
v 0.23545726 0.112955436 -0.047984462
v 0.18724918 0.020979311 -0.05598179
v 0.18842739 1.1657073E-07 -0.05598178
v 0.18372951 0.04169468 -0.05598179
v 0.17791255 0.06188568 -0.055981793
v 0.11489674 0.012810128 -0.06397913
v 0.11561615 7.117899E-08 -0.06397912
v 0.11274761 0.025459094 -0.06397913
v 0.042544287 0.004640946 -0.07197645
v 0.042804908 2.5787235E-08 -0.07197645
v 0.04176571 0.009223504 -0.07197645
v 0.04047886 0.013690064 -0.07197646
v 0.10919567 0.037787866 -0.06397913
v 0.038700067 0.017984461 -0.07197646
v 0.10428577 0.04964145 -0.06397913
v 0.036451645 0.022052692 -0.07197646
v 0.16987152 0.08129845 -0.055981793
v 0.09807956 0.06087075 -0.06397913
v 0.033761863 0.025843605 -0.07197647
v 0.15970752 0.09968881 -0.055981793
v 0.090655096 0.07133458 -0.063979134
v 0.03066452 0.02930952 -0.07197647
v 0.22133544 0.13850689 -0.047984462
v 0.08210571 0.08090135 -0.063979134
v 0.0271986 0.032406844 -0.07197647
v 0.14754833 0.11682554 -0.0559818
v 0.20444156 0.16231652 -0.04798447
v 0.07253895 0.089450695 -0.063979134
v 0.023407707 0.035096634 -0.07197647
v 0.13354686 0.13249315 -0.0559818
v 0.2613348 0.2078075 -0.03998713
v 0.06207512 0.09687519 -0.063979134
v 0.019339446 0.03734507 -0.07197647
v 0.117879294 0.14649455 -0.0559818
v 0.18498805 0.18408497 -0.04798447
v 0.23642924 0.23567678 -0.039987132
v 0.050845794 0.10308138 -0.06397914
v 0.015045051 0.039123867 -0.07197647
v 0.10074256 0.15865372 -0.0559818
v 0.16321965 0.20353842 -0.04798447
v 0.20855995 0.26058224 -0.039987136
v 0.13940997 0.22043228 -0.04798447
v 0.038992234 0.10799131 -0.063979134
v 0.010578498 0.04041066 -0.071976475
v 0.08235214 0.16881771 -0.0559818
v 0.113858484 0.23455402 -0.04798447
v 0.026663436 0.11154316 -0.06397914
v 0.005995941 0.04118926 -0.071976475
v 0.062939376 0.17685874 -0.0559818
v 0.08688652 0.24572615 -0.04798447
v 0.014014472 0.1136923 -0.06397914
v 0.0013550186 0.04144989 -0.071976475
v 0.042748373 0.18267566 -0.055981807
v 0.058833312 0.25380817 -0.047984473
v 0.0012044525 0.11441168 -0.06397914
v -0.003285904 0.04118926 -0.071976475
v 0.022033004 0.18619533 -0.05598181
v 0.030051574 0.25869834 -0.04798448
v -0.0116056055 0.11369228 -0.06397914
v -0.007868461 0.040410653 -0.071976475
v 0.0010538482 0.18737347 -0.05598181
v 0.00090328214 0.26033527 -0.04798448
v -0.02425457 0.11154314 -0.06397914
v -0.0123350145 0.03912386 -0.071976475
v -0.019925307 0.1861953 -0.05598181
v -0.02824501 0.25869834 -0.04798448
v -0.036583327 0.107991256 -0.06397915
v -0.016629448 0.037345055 -0.071976475
v -0.04064068 0.18267563 -0.05598181
v -0.057026785 0.25380814 -0.04798448
v -0.048436966 0.10308134 -0.06397915
v -0.02069767 0.035096616 -0.071976475
v -0.060831677 0.17685866 -0.055981815
v -0.08508003 0.24572608 -0.047984485
v -0.05966625 0.09687511 -0.06397915
v -0.024488563 0.032406814 -0.071976475
v -0.08024448 0.16881762 -0.055981815
v -0.112052 0.2345539 -0.047984485
v -0.07013008 0.089450635 -0.06397914
v -0.027954482 0.029309481 -0.071976475
v -0.09863487 0.1586536 -0.055981815
v -0.13760345 0.22043209 -0.04798448
v -0.07969684 0.08090122 -0.06397915
v -0.031051826 0.025843568 -0.071976475
v -0.115771614 0.14649443 -0.05598181
v -0.16141313 0.20353824 -0.04798448
v -0.08824623 0.071334474 -0.06397915
v -0.03374161 0.02205265 -0.071976475
v -0.13143921 0.13249299 -0.055981815
v -0.18318158 0.18408473 -0.04798448
v -0.0956707 0.06087063 -0.06397915
v -0.035990026 0.01798441 -0.07197648
v -0.14544065 0.11682539 -0.05598181
v -0.20263505 0.16231628 -0.04798448
v -0.10187692 0.04964131 -0.06397915
v -0.037768822 0.013690006 -0.07197648
v -0.15759979 0.09968861 -0.05598181
v -0.2195289 0.1385066 -0.04798448
v -0.10678684 0.037787717 -0.06397915
v -0.039055634 0.009223441 -0.07197648
v -0.16776381 0.08129821 -0.055981815
v -0.2336507 0.1129551 -0.04798448
v -0.11033869 0.025458917 -0.06397915
v -0.03983425 0.0046408866 -0.07197648
v -0.17580482 0.061885424 -0.055981815
v -0.2448228 0.085983135 -0.04798448
v -0.112487845 0.012809966 -0.06397915
v -0.04009487 -3.0329993E-08 -0.07197648
v -0.18162175 0.041694395 -0.055981815
v -0.2529048 0.057929877 -0.04798448
v -0.113207206 -8.371808E-08 -0.06397915
v -0.03983425 -0.004640947 -0.07197648
v -0.18514144 0.020979041 -0.05598181
v -0.25779504 0.02914812 -0.04798448
v -0.11248783 -0.0128101325 -0.06397915
v -0.039055593 -0.009223501 -0.07197648
v -0.18631957 -1.3710617E-07 -0.055981815
v -0.25943193 -1.9049426E-07 -0.04798448
v -0.11033863 -0.02545908 -0.06397915
v -0.037768822 -0.013690064 -0.07197648
v -0.1851414 -0.020979315 -0.05598181
v -0.25779498 -0.029148499 -0.04798448
v -0.1067868 -0.037787877 -0.06397915
v -0.035990026 -0.017984467 -0.07197648
v -0.18162166 -0.041694663 -0.05598181
v -0.2529047 -0.05793025 -0.04798448
v -0.101876885 -0.049641464 -0.06397915
v -0.033741567 -0.022052702 -0.07197649
v -0.17580475 -0.06188568 -0.05598181
v -0.24482271 -0.08598349 -0.04798448
v -0.0956706 -0.06087077 -0.06397915
v -0.031051788 -0.025843615 -0.07197649
v -0.16776371 -0.08129846 -0.05598181
v -0.23365055 -0.11295545 -0.047984473
v -0.088246115 -0.0713346 -0.06397915
v -0.027954444 -0.02930953 -0.07197649
v -0.15759964 -0.09968884 -0.055981815
v -0.21952869 -0.1385069 -0.04798448
v -0.07969673 -0.080901355 -0.06397915
v -0.024488525 -0.032406855 -0.07197649
v -0.14544047 -0.116825595 -0.05598181
v -0.20263481 -0.16231659 -0.04798448
v -0.07012997 -0.08945074 -0.06397915
v -0.020697594 -0.035096645 -0.07197649
v -0.13143902 -0.13249318 -0.055981815
v -0.18318129 -0.184085 -0.04798448
v -0.059666097 -0.09687519 -0.06397915
v -0.016629372 -0.037345078 -0.07197649
v -0.115771405 -0.14649461 -0.055981815
v -0.16141282 -0.20353848 -0.04798448
v -0.048436776 -0.1030814 -0.06397915
v -0.012334938 -0.039123878 -0.07197649
v -0.0986346 -0.15865374 -0.055981815
v -0.1376031 -0.2204323 -0.04798448
v -0.036583174 -0.10799131 -0.06397915
v -0.007868385 -0.040410664 -0.07197649
v -0.08024421 -0.16881774 -0.055981815
v -0.11205162 -0.23455408 -0.04798448
v -0.024254378 -0.11154318 -0.06397915
v -0.0032858276 -0.04118927 -0.07197649
v -0.060831413 -0.17685877 -0.05598181
v -0.08507965 -0.24572621 -0.047984473
v -0.0116054155 -0.1136923 -0.06397916
v 0.0013550948 -0.04144989 -0.07197649
v -0.040640373 -0.18267567 -0.055981815
v -0.057026405 -0.2538082 -0.04798448
v 0.0012046432 -0.11441168 -0.06397916
v 0.005995979 -0.041189253 -0.07197649
v -0.019925041 -0.18619533 -0.055981822
v -0.028244628 -0.25869837 -0.04798448
v 0.014014625 -0.11369228 -0.06397915
v 0.010578536 -0.04041064 -0.07197649
v 0.0010541534 -0.18737347 -0.055981815
v 0.00090370176 -0.26033527 -0.04798448
v 0.026663588 -0.11154312 -0.06397916
v 0.015045128 -0.039123844 -0.0719765
v 0.02203331 -0.1861953 -0.055981815
v 0.030051956 -0.25869828 -0.04798448
v 0.038992386 -0.10799125 -0.063979164
v 0.019339485 -0.037345037 -0.0719765
v 0.04274864 -0.18267559 -0.055981815
v 0.058833692 -0.25380808 -0.04798448
v 0.050845947 -0.1030813 -0.063979164
v 0.023407707 -0.035096597 -0.0719765
v 0.06293968 -0.17685863 -0.055981822
v 0.086886935 -0.245726 -0.04798449
v 0.06207523 -0.09687509 -0.06397916
v 0.027198676 -0.032406807 -0.071976505
v 0.08235237 -0.16881758 -0.055981822
v 0.113858834 -0.23455383 -0.04798449
v 0.0725391 -0.08945058 -0.063979164
v 0.030664558 -0.029309472 -0.071976505
v 0.10074276 -0.15865356 -0.055981822
v 0.13941029 -0.22043204 -0.047984485
v 0.08210582 -0.0809012 -0.063979164
v 0.117879525 -0.14649436 -0.05598183
v 0.16321994 -0.20353812 -0.04798449
v 0.1335471 -0.13249293 -0.05598183
vt 1 0.017857144
vt 0.8888889 0
vt 1 0
vt 0.8888889 0.017857144
vt 1 0.035714287
vt 0.7777778 0
vt 0.8888889 0.035714287
vt 1 0.053571433
vt 0.7777778 0.017857144
vt 0.6666667 0
vt 0.8888889 0.053571433
vt 1 0.071428575
vt 0.6666667 0.017857144
vt 0.5555556 0
vt 0.7777778 0.035714287
vt 0.8888889 0.071428575
vt 1 0.08928572
vt 0.5555556 0.017857144
vt 0.44444442 0
vt 0.6666667 0.035714287
vt 0.7777778 0.053571433
vt 0.8888889 0.08928572
vt 1 0.10714286
vt 0.44444442 0.017857144
vt 0.3333333 0
vt 0.7777778 0.071428575
vt 0.5555556 0.035714287
vt 0.6666667 0.053571433
vt 0.8888889 0.10714286
vt 1 0.125
vt 0.3333333 0.017857144
vt 0.22222221 0
vt 0.7777778 0.08928572
vt 0.6666667 0.071428575
vt 0.44444442 0.035714287
vt 0.5555556 0.053571433
vt 0.8888889 0.125
vt 1 0.14285715
vt 0.22222221 0.017857144
vt 0.111111104 0
vt 0.7777778 0.10714286
vt 0.6666667 0.08928572
vt 0.3333333 0.035714287
vt 0.44444442 0.053571433
vt 0.5555556 0.071428575
vt 0.111111104 0.017857144
vt 0 0
vt 0 0.017857144
vt 0.22222221 0.035714287
vt 0.111111104 0.035714287
vt 0 0.035714287
vt 0.3333333 0.053571433
vt 0.44444442 0.071428575
vt 0.5555556 0.08928572
vt 0.111111104 0.053571433
vt 0 0.053571433
vt 0.22222221 0.053571433
vt 0.3333333 0.071428575
vt 0.111111104 0.071428575
vt 0 0.071428575
vt 0.22222221 0.071428575
vt 0.44444442 0.08928572
vt 0.6666667 0.10714286
vt 0.111111104 0.08928572
vt 0 0.08928572
vt 0.22222221 0.08928572
vt 0.3333333 0.08928572
vt 0.5555556 0.10714286
vt 0.7777778 0.125
vt 0.111111104 0.10714286
vt 0 0.10714286
vt 0.44444442 0.10714286
vt 0.22222221 0.10714286
vt 0.3333333 0.10714286
vt 0.6666667 0.125
vt 0.8888889 0.14285715
vt 1 0.1607143
vt 0.5555556 0.125
vt 0.44444442 0.125
vt 0.3333333 0.125
vt 0.7777778 0.14285715
vt 0.8888889 0.1607143
vt 1 0.17857145
vt 0.6666667 0.14285715
vt 0.5555556 0.14285715
vt 0.8888889 0.17857145
vt 1 0.1964286
vt 0.7777778 0.1607143
vt 0.8888889 0.1964286
vt 1 0.21428575
vt 0.6666667 0.1607143
vt 0.7777778 0.17857145
vt 0.44444442 0.14285715
vt 0.8888889 0.21428575
vt 1 0.2321429
vt 0.7777778 0.1964286
vt 0.5555556 0.1607143
vt 0.6666667 0.17857145
vt 0.8888889 0.2321429
vt 1 0.25000003
vt 0.7777778 0.21428575
vt 0.6666667 0.1964286
vt 0.5555556 0.17857145
vt 0.44444442 0.1607143
vt 0.8888889 0.25000003
vt 1 0.26785716
vt 0.7777778 0.2321429
vt 0.6666667 0.21428575
vt 0.5555556 0.1964286
vt 0.8888889 0.26785716
vt 1 0.2857143
vt 0.7777778 0.25000003
vt 0.6666667 0.2321429
vt 0.8888889 0.2857143
vt 1 0.30357143
vt 0.7777778 0.26785716
vt 0.8888889 0.30357143
vt 1 0.32142857
vt 0.44444442 0.17857145
vt 0.5555556 0.21428575
vt 0.6666667 0.25000003
vt 0.7777778 0.2857143
vt 0.8888889 0.32142857
vt 1 0.3392857
vt 0.44444442 0.1964286
vt 0.5555556 0.2321429
vt 0.6666667 0.26785716
vt 0.7777778 0.30357143
vt 0.8888889 0.3392857
vt 1 0.35714284
vt 0.44444442 0.21428575
vt 0.5555556 0.25000003
vt 0.6666667 0.2857143
vt 0.7777778 0.32142857
vt 0.8888889 0.35714284
vt 1 0.37499997
vt 0.44444442 0.2321429
vt 0.5555556 0.26785716
vt 0.6666667 0.30357143
vt 0.7777778 0.3392857
vt 0.8888889 0.37499997
vt 1 0.3928571
vt 0.44444442 0.25000003
vt 0.5555556 0.2857143
vt 0.6666667 0.32142857
vt 0.7777778 0.35714284
vt 0.8888889 0.3928571
vt 1 0.41071424
vt 0.44444442 0.26785716
vt 0.5555556 0.30357143
vt 0.6666667 0.3392857
vt 0.7777778 0.37499997
vt 0.8888889 0.41071424
vt 1 0.42857137
vt 0.44444442 0.2857143
vt 0.5555556 0.32142857
vt 0.6666667 0.35714284
vt 0.7777778 0.3928571
vt 0.8888889 0.42857137
vt 1 0.4464285
vt 0.44444442 0.30357143
vt 0.5555556 0.3392857
vt 0.6666667 0.37499997
vt 0.7777778 0.41071424
vt 0.8888889 0.4464285
vt 1 0.46428564
vt 0.44444442 0.32142857
vt 0.5555556 0.35714284
vt 0.6666667 0.3928571
vt 0.7777778 0.42857137
vt 0.8888889 0.46428564
vt 1 0.48214278
vt 0.44444442 0.3392857
vt 0.5555556 0.37499997
vt 0.6666667 0.41071424
vt 0.7777778 0.4464285
vt 0.8888889 0.48214278
vt 1 0.4999999
vt 0.44444442 0.35714284
vt 0.5555556 0.3928571
vt 0.6666667 0.42857137
vt 0.7777778 0.46428564
vt 0.8888889 0.4999999
vt 1 0.5178571
vt 0.44444442 0.37499997
vt 0.5555556 0.41071424
vt 0.6666667 0.4464285
vt 0.7777778 0.48214278
vt 0.8888889 0.5178571
vt 1 0.5357142
vt 0.44444442 0.3928571
vt 0.5555556 0.42857137
vt 0.6666667 0.46428564
vt 0.7777778 0.4999999
vt 0.8888889 0.5357142
vt 1 0.55357134
vt 0.44444442 0.41071424
vt 0.5555556 0.4464285
vt 0.6666667 0.48214278
vt 0.7777778 0.5178571
vt 0.8888889 0.55357134
vt 1 0.5714285
vt 0.44444442 0.42857137
vt 0.5555556 0.46428564
vt 0.6666667 0.4999999
vt 0.7777778 0.5357142
vt 0.8888889 0.5714285
vt 1 0.5892856
vt 0.44444442 0.4464285
vt 0.5555556 0.48214278
vt 0.6666667 0.5178571
vt 0.7777778 0.55357134
vt 0.8888889 0.5892856
vt 1 0.60714275
vt 0.44444442 0.46428564
vt 0.5555556 0.4999999
vt 0.6666667 0.5357142
vt 0.7777778 0.5714285
vt 0.8888889 0.60714275
vt 1 0.6249999
vt 0.44444442 0.48214278
vt 0.5555556 0.5178571
vt 0.6666667 0.55357134
vt 0.7777778 0.5892856
vt 0.8888889 0.6249999
vt 1 0.642857
vt 0.44444442 0.4999999
vt 0.5555556 0.5357142
vt 0.6666667 0.5714285
vt 0.7777778 0.60714275
vt 0.8888889 0.642857
vt 1 0.66071415
vt 0.44444442 0.5178571
vt 0.5555556 0.55357134
vt 0.6666667 0.5892856
vt 0.7777778 0.6249999
vt 0.8888889 0.66071415
vt 1 0.6785713
vt 0.44444442 0.5357142
vt 0.5555556 0.5714285
vt 0.6666667 0.60714275
vt 0.7777778 0.642857
vt 0.8888889 0.6785713
vt 1 0.6964284
vt 0.44444442 0.55357134
vt 0.5555556 0.5892856
vt 0.6666667 0.6249999
vt 0.7777778 0.66071415
vt 0.8888889 0.6964284
vt 1 0.71428555
vt 0.44444442 0.5714285
vt 0.5555556 0.60714275
vt 0.6666667 0.642857
vt 0.7777778 0.6785713
vt 0.8888889 0.71428555
vt 1 0.7321427
vt 0.44444442 0.5892856
vt 0.5555556 0.6249999
vt 0.6666667 0.66071415
vt 0.7777778 0.6964284
vt 0.8888889 0.7321427
vt 1 0.7499998
vt 0.44444442 0.60714275
vt 0.5555556 0.642857
vt 0.6666667 0.6785713
vt 0.7777778 0.71428555
vt 0.8888889 0.7499998
vt 1 0.76785696
vt 0.44444442 0.6249999
vt 0.5555556 0.66071415
vt 0.6666667 0.6964284
vt 0.7777778 0.7321427
vt 0.8888889 0.76785696
vt 1 0.7857141
vt 0.44444442 0.642857
vt 0.5555556 0.6785713
vt 0.6666667 0.71428555
vt 0.7777778 0.7499998
vt 0.8888889 0.7857141
vt 1 0.8035712
vt 0.44444442 0.66071415
vt 0.5555556 0.6964284
vt 0.6666667 0.7321427
vt 0.7777778 0.76785696
vt 0.8888889 0.8035712
vt 1 0.82142836
vt 0.44444442 0.6785713
vt 0.5555556 0.71428555
vt 0.6666667 0.7499998
vt 0.7777778 0.7857141
vt 0.8888889 0.82142836
vt 1 0.8392855
vt 0.44444442 0.6964284
vt 0.5555556 0.7321427
vt 0.6666667 0.76785696
vt 0.7777778 0.8035712
vt 0.8888889 0.8392855
vt 1 0.8571426
vt 0.44444442 0.71428555
vt 0.5555556 0.7499998
vt 0.6666667 0.7857141
vt 0.7777778 0.82142836
vt 0.8888889 0.8571426
vt 1 0.87499976
vt 0.44444442 0.7321427
vt 0.5555556 0.76785696
vt 0.6666667 0.8035712
vt 0.7777778 0.8392855
vt 0.8888889 0.87499976
vt 1 0.8928569
vt 0.44444442 0.7499998
vt 0.5555556 0.7857141
vt 0.6666667 0.82142836
vt 0.7777778 0.8571426
vt 0.8888889 0.8928569
vt 1 0.91071403
vt 0.44444442 0.76785696
vt 0.5555556 0.8035712
vt 0.6666667 0.8392855
vt 0.7777778 0.87499976
vt 0.8888889 0.91071403
vt 1 0.92857116
vt 0.44444442 0.7857141
vt 0.5555556 0.82142836
vt 0.6666667 0.8571426
vt 0.7777778 0.8928569
vt 0.8888889 0.92857116
vt 1 0.9464283
vt 0.44444442 0.8035712
vt 0.5555556 0.8392855
vt 0.6666667 0.87499976
vt 0.7777778 0.91071403
vt 0.8888889 0.9464283
vt 1 0.96428543
vt 0.44444442 0.82142836
vt 0.5555556 0.8571426
vt 0.6666667 0.8928569
vt 0.7777778 0.92857116
vt 0.8888889 0.96428543
vt 1 0.98214257
vt 0.44444442 0.8392855
vt 0.5555556 0.87499976
vt 0.6666667 0.91071403
vt 0.7777778 0.9464283
vt 0.8888889 0.98214257
vt 1 0.9999997
vt 0.8888889 0.9999997
vt 0.7777778 0.96428543
vt 0.7777778 0.98214257
vt 0.7777778 0.9999997
vt 0.6666667 0.92857116
vt 0.5555556 0.8928569
vt 0.6666667 0.9464283
vt 0.6666667 0.98214257
vt 0.6666667 0.9999997
vt 0.6666667 0.96428543
vt 0.5555556 0.91071403
vt 0.5555556 0.98214257
vt 0.5555556 0.9999997
vt 0.5555556 0.92857116
vt 0.5555556 0.9464283
vt 0.5555556 0.96428543
vt 0.44444442 0.98214257
vt 0.44444442 0.9999997
vt 0.44444442 0.96428543
vt 0.44444442 0.9464283
vt 0.44444442 0.92857116
vt 0.44444442 0.91071403
vt 0.3333333 0.98214257
vt 0.3333333 0.9999997
vt 0.3333333 0.96428543
vt 0.3333333 0.9464283
vt 0.3333333 0.92857116
vt 0.22222221 0.98214257
vt 0.22222221 0.9999997
vt 0.22222221 0.96428543
vt 0.22222221 0.9464283
vt 0.111111104 0.98214257
vt 0.111111104 0.9999997
vt 0.111111104 0.96428543
vt 0 0.98214257
vt 0 0.9999997
vt 0 0.96428543
vt 0 0.9464283
vt 0.111111104 0.9464283
vt 0 0.92857116
vt 0.111111104 0.92857116
vt 0 0.91071403
vt 0.22222221 0.92857116
vt 0.111111104 0.91071403
vt 0 0.8928569
vt 0.22222221 0.91071403
vt 0.111111104 0.8928569
vt 0 0.87499976
vt 0.3333333 0.91071403
vt 0.111111104 0.87499976
vt 0 0.8571426
vt 0.22222221 0.8928569
vt 0.3333333 0.8928569
vt 0.111111104 0.8571426
vt 0 0.8392855
vt 0.22222221 0.87499976
vt 0.44444442 0.8928569
vt 0.111111104 0.8392855
vt 0 0.82142836
vt 0.22222221 0.8571426
vt 0.3333333 0.87499976
vt 0.44444442 0.87499976
vt 0.111111104 0.82142836
vt 0 0.8035712
vt 0.22222221 0.8392855
vt 0.3333333 0.8571426
vt 0.44444442 0.8571426
vt 0.3333333 0.8392855
vt 0.111111104 0.8035712
vt 0 0.7857141
vt 0.22222221 0.82142836
vt 0.3333333 0.82142836
vt 0.111111104 0.7857141
vt 0 0.76785696
vt 0.22222221 0.8035712
vt 0.3333333 0.8035712
vt 0.111111104 0.76785696
vt 0 0.7499998
vt 0.22222221 0.7857141
vt 0.3333333 0.7857141
vt 0.111111104 0.7499998
vt 0 0.7321427
vt 0.22222221 0.76785696
vt 0.3333333 0.76785696
vt 0.111111104 0.7321427
vt 0 0.71428555
vt 0.22222221 0.7499998
vt 0.3333333 0.7499998
vt 0.111111104 0.71428555
vt 0 0.6964284
vt 0.22222221 0.7321427
vt 0.3333333 0.7321427
vt 0.111111104 0.6964284
vt 0 0.6785713
vt 0.22222221 0.71428555
vt 0.3333333 0.71428555
vt 0.111111104 0.6785713
vt 0 0.66071415
vt 0.22222221 0.6964284
vt 0.3333333 0.6964284
vt 0.111111104 0.66071415
vt 0 0.642857
vt 0.22222221 0.6785713
vt 0.3333333 0.6785713
vt 0.111111104 0.642857
vt 0 0.6249999
vt 0.22222221 0.66071415
vt 0.3333333 0.66071415
vt 0.111111104 0.6249999
vt 0 0.60714275
vt 0.22222221 0.642857
vt 0.3333333 0.642857
vt 0.111111104 0.60714275
vt 0 0.5892856
vt 0.22222221 0.6249999
vt 0.3333333 0.6249999
vt 0.111111104 0.5892856
vt 0 0.5714285
vt 0.22222221 0.60714275
vt 0.3333333 0.60714275
vt 0.111111104 0.5714285
vt 0 0.55357134
vt 0.22222221 0.5892856
vt 0.3333333 0.5892856
vt 0.111111104 0.55357134
vt 0 0.5357142
vt 0.22222221 0.5714285
vt 0.3333333 0.5714285
vt 0.111111104 0.5357142
vt 0 0.5178571
vt 0.22222221 0.55357134
vt 0.3333333 0.55357134
vt 0.111111104 0.5178571
vt 0 0.4999999
vt 0.22222221 0.5357142
vt 0.3333333 0.5357142
vt 0.111111104 0.4999999
vt 0 0.48214278
vt 0.22222221 0.5178571
vt 0.3333333 0.5178571
vt 0.111111104 0.48214278
vt 0 0.46428564
vt 0.22222221 0.4999999
vt 0.3333333 0.4999999
vt 0.111111104 0.46428564
vt 0 0.4464285
vt 0.22222221 0.48214278
vt 0.3333333 0.48214278
vt 0.111111104 0.4464285
vt 0 0.42857137
vt 0.22222221 0.46428564
vt 0.3333333 0.46428564
vt 0.111111104 0.42857137
vt 0 0.41071424
vt 0.22222221 0.4464285
vt 0.3333333 0.4464285
vt 0.111111104 0.41071424
vt 0 0.3928571
vt 0.22222221 0.42857137
vt 0.3333333 0.42857137
vt 0.111111104 0.3928571
vt 0 0.37499997
vt 0.22222221 0.41071424
vt 0.3333333 0.41071424
vt 0.111111104 0.37499997
vt 0 0.35714284
vt 0.22222221 0.3928571
vt 0.3333333 0.3928571
vt 0.111111104 0.35714284
vt 0 0.3392857
vt 0.22222221 0.37499997
vt 0.3333333 0.37499997
vt 0.111111104 0.3392857
vt 0 0.32142857
vt 0.22222221 0.35714284
vt 0.3333333 0.35714284
vt 0.111111104 0.32142857
vt 0 0.30357143
vt 0.22222221 0.3392857
vt 0.3333333 0.3392857
vt 0.111111104 0.30357143
vt 0 0.2857143
vt 0.22222221 0.32142857
vt 0.3333333 0.32142857
vt 0.111111104 0.2857143
vt 0 0.26785716
vt 0.22222221 0.30357143
vt 0.3333333 0.30357143
vt 0.111111104 0.26785716
vt 0 0.25000003
vt 0.22222221 0.2857143
vt 0.3333333 0.2857143
vt 0.111111104 0.25000003
vt 0 0.2321429
vt 0.22222221 0.26785716
vt 0.3333333 0.26785716
vt 0.111111104 0.2321429
vt 0 0.21428575
vt 0.22222221 0.25000003
vt 0.3333333 0.25000003
vt 0.111111104 0.21428575
vt 0 0.1964286
vt 0.22222221 0.2321429
vt 0.3333333 0.2321429
vt 0.111111104 0.1964286
vt 0 0.17857145
vt 0.22222221 0.21428575
vt 0.3333333 0.21428575
vt 0.111111104 0.17857145
vt 0 0.1607143
vt 0.22222221 0.1964286
vt 0.3333333 0.1964286
vt 0.111111104 0.1607143
vt 0 0.14285715
vt 0.22222221 0.17857145
vt 0.3333333 0.17857145
vt 0.111111104 0.14285715
vt 0 0.125
vt 0.22222221 0.1607143
vt 0.3333333 0.1607143
vt 0.111111104 0.125
vt 0.22222221 0.14285715
vt 0.3333333 0.14285715
vt 0.22222221 0.125
vn -0.10849193 0.012224959 0.9940222
vn -0.109177895 0.006131265 0.99400336
vn -0.10917786 0.00613127 0.99400336
vn -0.10849208 0.012224033 0.9940222
vn -0.106436715 0.02429525 0.99402267
vn -0.10917789 0.0061313226 0.99400336
vn -0.10643717 0.024293477 0.99402267
vn -0.1030405 0.03605802 0.9940234
vn -0.108492054 0.012224024 0.9940222
vn -0.10917784 0.006131426 0.99400336
vn -0.10304144 0.036055434 0.9940234
vn -0.09834644 0.047364756 0.99402446
vn -0.108492024 0.012224027 0.9940222
vn -0.10917788 0.006131376 0.99400336
vn -0.10643717 0.024293482 0.99402267
vn -0.098348014 0.047361493 0.99402446
vn -0.09241424 0.05807248 0.9940257
vn -0.10849208 0.012224016 0.9940222
vn -0.10917794 0.0061312565 0.99400336
vn -0.10643714 0.024293434 0.99402267
vn -0.10304144 0.036055453 0.9940234
vn -0.09241661 0.058068756 0.9940257
vn -0.08531936 0.06804591 0.9940274
vn -0.10849212 0.012223965 0.9940222
vn -0.10917795 0.0061312644 0.99400336
vn -0.098348014 0.04736148 0.99402446
vn -0.10643717 0.024293434 0.99402267
vn -0.10304142 0.036055464 0.9940234
vn -0.085322626 0.06804188 0.99402726
vn -0.07715193 0.077159494 0.99402916
vn -0.10849211 0.01222394 0.9940222
vn -0.10917789 0.0061312565 0.99400336
vn -0.09241658 0.058068763 0.9940257
vn -0.09834801 0.047361463 0.99402446
vn -0.10643721 0.02429348 0.99402267
vn -0.10304142 0.036055468 0.9940234
vn -0.0771561 0.07715536 0.99402916
vn -0.06801567 0.08529839 0.99403125
vn -0.108492054 0.012223958 0.9940222
vn -0.10917789 0.006131152 0.99400336
vn -0.08532261 0.06804188 0.99402726
vn -0.09241656 0.058068756 0.9940257
vn -0.10643714 0.024293518 0.99402267
vn -0.10304144 0.036055524 0.9940234
vn -0.098348014 0.047361463 0.99402446
vn -0.10849206 0.012223896 0.9940222
vn -0.10917791 0.0061310837 0.99400336
vn -0.108492196 0.012222941 0.9940222
vn -0.106437095 0.02429359 0.99402267
vn -0.1064371 0.02429369 0.99402267
vn -0.10643748 0.02429207 0.99402267
vn -0.10304139 0.036055606 0.9940234
vn -0.09834804 0.04736147 0.99402446
vn -0.09241658 0.058068763 0.9940257
vn -0.103041396 0.036055684 0.9940234
vn -0.10304223 0.036053363 0.9940234
vn -0.10304139 0.036055624 0.9940234
vn -0.098348014 0.047361452 0.99402446
vn -0.098348096 0.04736135 0.99402446
vn -0.098349564 0.047358274 0.99402446
vn -0.098348044 0.047361422 0.99402446
vn -0.09241657 0.058068767 0.9940257
vn -0.08532259 0.06804188 0.99402726
vn -0.092416465 0.058068898 0.9940257
vn -0.092418574 0.058065485 0.9940257
vn -0.09241654 0.058068816 0.9940257
vn -0.092416525 0.058068782 0.9940257
vn -0.08532262 0.068041906 0.99402726
vn -0.07715608 0.07715536 0.99402916
vn -0.085322514 0.068042025 0.99402726
vn -0.08532546 0.06803832 0.99402726
vn -0.08532259 0.068041906 0.99402726
vn -0.08532259 0.06804195 0.99402726
vn -0.08532259 0.06804193 0.99402726
vn -0.0771561 0.07715536 0.99402916
vn -0.06802077 0.08529436 0.99403125
vn -0.05802641 0.09236041 0.9940335
vn -0.07715612 0.07715537 0.99402916
vn -0.07715611 0.07715534 0.99402916
vn -0.07715615 0.077155314 0.99402916
vn -0.06802076 0.08529435 0.99403125
vn -0.058032356 0.09235666 0.9940335
vn -0.047310606 0.09825704 0.99403584
vn -0.06802076 0.08529438 0.99403125
vn -0.068020746 0.0852944 0.99403125
vn -0.04731735 0.09825379 0.99403584
vn -0.036003917 0.10291468 0.99403834
vn -0.058032356 0.09235666 0.9940335
vn -0.036011327 0.102912106 0.99403834
vn -0.02424917 0.10627542 0.994041
vn -0.058032367 0.09235667 0.9940335
vn -0.047317352 0.09825379 0.99403584
vn -0.06802072 0.08529439 0.99403125
vn -0.024257055 0.106273636 0.994041
vn -0.012194742 0.10829782 0.99404377
vn -0.036011353 0.1029121 0.99403834
vn -0.058032352 0.09235667 0.9940335
vn -0.047317367 0.09825379 0.99403584
vn -0.012202929 0.10829692 0.99404377
vn 7.4244413E-06 0.108957365 0.99404633
vn -0.024257047 0.10627366 0.994041
vn -0.036011335 0.102912076 0.99403834
vn -0.047317356 0.09825378 0.99403584
vn -0.058032326 0.0923567 0.9940335
vn -8.589775E-07 0.10895738 0.99404633
vn 0.012203911 0.108246714 0.9940492
vn -0.012202912 0.10829691 0.99404377
vn -0.02425703 0.10627361 0.994041
vn -0.036011312 0.1029121 0.99403834
vn 0.012195755 0.108247645 0.9940492
vn 0.024241399 0.10617577 0.9940519
vn -8.549754E-07 0.10895736 0.99404633
vn -0.012202909 0.1082969 0.99404377
vn 0.024233535 0.10617757 0.9940519
vn 0.035968766 0.10277148 0.9940545
vn 0.01219578 0.10824763 0.9940492
vn 0.035961397 0.10277407 0.9940545
vn 0.047239043 0.0980775 0.99405694
vn -0.047317374 0.098253794 0.99403584
vn -0.024257025 0.10627362 0.994041
vn -8.4963915E-07 0.10895736 0.99404633
vn 0.024233552 0.10617756 0.9940519
vn 0.04723232 0.09808075 0.99405694
vn 0.057911295 0.09215353 0.9940593
vn -0.036011312 0.102912106 0.99403834
vn -0.01220293 0.10829692 0.99404377
vn 0.012195788 0.108247645 0.9940492
vn 0.035961393 0.102774076 0.9940545
vn 0.057905342 0.09215726 0.9940593
vn 0.06785208 0.0850745 0.9940615
vn -0.024256997 0.106273636 0.994041
vn -8.494909E-07 0.10895736 0.99404633
vn 0.024233572 0.10617759 0.9940519
vn 0.04723231 0.09808078 0.99405694
vn 0.06784704 0.085078515 0.9940615
vn 0.07693723 0.07692982 0.9940637
vn -0.012202938 0.10829689 0.99404377
vn 0.012195788 0.108247645 0.9940492
vn 0.035961397 0.1027741 0.9940545
vn 0.05790533 0.09215727 0.9940593
vn 0.07693314 0.076933965 0.9940637
vn 0.085053526 0.067822054 0.9940654
vn -8.447477E-07 0.10895734 0.99404633
vn 0.024233574 0.10617759 0.9940519
vn 0.04723231 0.09808076 0.99405694
vn 0.06784705 0.085078515 0.9940615
vn 0.08505032 0.06782611 0.9940654
vn 0.09209985 0.057865594 0.99406695
vn 0.012195776 0.108247645 0.9940492
vn 0.035961412 0.102774106 0.9940545
vn 0.057905335 0.092157245 0.9940593
vn 0.07693316 0.07693398 0.9940637
vn 0.09209753 0.057869323 0.99406695
vn 0.09798853 0.04718528 0.99406826
vn 0.024233561 0.10617759 0.9940519
vn 0.047232334 0.09808078 0.99405694
vn 0.06784704 0.08507852 0.9940615
vn 0.08505036 0.06782614 0.9940654
vn 0.097986974 0.047188524 0.99406826
vn 0.102646254 0.03591497 0.99406934
vn 0.035961416 0.1027741 0.9940545
vn 0.057905342 0.09215728 0.9940593
vn 0.07693316 0.076933995 0.9940637
vn 0.092097536 0.057869337 0.99406695
vn 0.102645345 0.035917554 0.99406934
vn 0.10601518 0.024195654 0.9940701
vn 0.047232345 0.09808076 0.99405694
vn 0.06784705 0.08507853 0.9940615
vn 0.08505035 0.067826144 0.9940654
vn 0.097986974 0.04718853 0.99406826
vn 0.10601474 0.024197433 0.9940701
vn 0.10805339 0.012173927 0.9940706
vn 0.057905335 0.092157274 0.9940593
vn 0.07693317 0.076933995 0.9940637
vn 0.092097566 0.057869337 0.99406695
vn 0.10264534 0.03591754 0.99406934
vn 0.108053274 0.012174835 0.9940706
vn 0.10873561 1.15877356E-07 0.9940707
vn 0.067847036 0.08507853 0.9940615
vn 0.08505032 0.067826115 0.9940654
vn 0.097986974 0.04718851 0.99406826
vn 0.106014736 0.02419742 0.9940701
vn 0.108735606 1.1576555E-07 0.9940707
vn 0.10805341 -0.012173723 0.9940706
vn 0.076933175 0.07693397 0.9940637
vn 0.092097536 0.057869323 0.99406695
vn 0.10264534 0.035917513 0.99406934
vn 0.10805329 0.012174842 0.9940706
vn 0.108053304 -0.012174627 0.9940706
vn 0.106015176 -0.024195442 0.9940701
vn 0.085050344 0.06782613 0.9940654
vn 0.09798698 0.04718849 0.99406826
vn 0.106014736 0.024197424 0.9940701
vn 0.108735606 1.1443151E-07 0.9940707
vn 0.106014766 -0.024197236 0.9940701
vn 0.102646284 -0.035914753 0.99406934
vn 0.092097536 0.05786931 0.99406695
vn 0.102645345 0.035917506 0.99406934
vn 0.108053274 0.01217487 0.9940706
vn 0.1080533 -0.012174612 0.9940706
vn 0.10264539 -0.03591733 0.99406934
vn 0.097988605 -0.047185086 0.99406826
vn 0.09798698 0.047188483 0.99406826
vn 0.106014736 0.024197446 0.9940701
vn 0.108735606 1.1606201E-07 0.9940707
vn 0.10601475 -0.024197245 0.9940701
vn 0.09798704 -0.0471883 0.99406826
vn 0.09209999 -0.0578654 0.99406695
vn 0.10264537 0.035917506 0.99406934
vn 0.10805328 0.012174873 0.9940706
vn 0.108053304 -0.012174621 0.9940706
vn 0.10264539 -0.035917338 0.99406934
vn 0.09209764 -0.057869103 0.99406695
vn 0.08505367 -0.0678219 0.9940654
vn 0.10601475 0.02419745 0.9940701
vn 0.108735606 1.1769252E-07 0.9940707
vn 0.106014766 -0.024197249 0.9940701
vn 0.09798704 -0.04718829 0.99406826
vn 0.085050456 -0.067825936 0.9940654
vn 0.07693737 -0.076929696 0.9940637
vn 0.10805329 0.012174859 0.9940705
vn 0.10805328 -0.012174627 0.9940706
vn 0.10264541 -0.035917345 0.99406934
vn 0.09209763 -0.057869095 0.99406695
vn 0.07693324 -0.07693383 0.9940637
vn 0.06785216 -0.08507439 0.9940615
vn 0.10873562 1.0657547E-07 0.9940707
vn 0.106014766 -0.024197245 0.9940701
vn 0.09798704 -0.047188297 0.99406826
vn 0.085050434 -0.06782589 0.9940654
vn 0.0678471 -0.0850784 0.9940615
vn 0.05791142 -0.09215338 0.9940593
vn 0.1080533 -0.012174644 0.9940706
vn 0.10264539 -0.03591733 0.99406934
vn 0.0920976 -0.05786912 0.99406695
vn 0.076933205 -0.07693383 0.9940637
vn 0.0579055 -0.09215711 0.9940593
vn 0.047239244 -0.09807738 0.99405694
vn 0.106014736 -0.024197264 0.9940701
vn 0.097987026 -0.047188304 0.99406826
vn 0.085050434 -0.067825876 0.9940654
vn 0.0678471 -0.0850784 0.9940615
vn 0.04723252 -0.09808059 0.99405694
vn 0.035968896 -0.1027714 0.9940545
vn 0.10264537 -0.035917323 0.99406934
vn 0.0920976 -0.057869125 0.99406695
vn 0.07693322 -0.076933816 0.9940637
vn 0.05790551 -0.0921571 0.9940593
vn 0.035961524 -0.102773964 0.9940545
vn 0.024241475 -0.10617568 0.9940519
vn 0.09798701 -0.04718829 0.99406826
vn 0.08505044 -0.06782589 0.9940654
vn 0.06784711 -0.0850784 0.9940615
vn 0.047232516 -0.09808059 0.99405694
vn 0.024233608 -0.10617749 0.9940519
vn 0.0122040445 -0.108246654 0.9940492
vn 0.0920976 -0.057869125 0.99406695
vn 0.076933235 -0.076933816 0.9940637
vn 0.057905506 -0.0921571 0.9940593
vn 0.035961516 -0.10277396 0.9940545
vn 0.0121958675 -0.108247586 0.9940492
vn 7.6220786E-06 -0.10895731 0.99404645
vn 0.085050434 -0.0678259 0.9940654
vn 0.0678471 -0.08507839 0.9940615
vn 0.04723251 -0.0980806 0.99405694
vn 0.02423361 -0.106177494 0.9940519
vn -6.67616E-07 -0.1089573 0.99404645
vn -0.012194628 -0.10829777 0.99404377
vn 0.07693322 -0.0769338 0.9940637
vn 0.057905506 -0.09215709 0.99405944
vn 0.035961516 -0.102773964 0.9940545
vn 0.012195862 -0.10824756 0.9940492
vn -0.012202822 -0.108296834 0.99404377
vn -0.024249049 -0.10627536 0.994041
vn 0.06784707 -0.08507839 0.9940615
vn 0.04723252 -0.09808059 0.99405694
vn 0.024233595 -0.106177494 0.9940519
vn -6.8036366E-07 -0.10895729 0.99404645
vn -0.024256932 -0.10627357 0.994041
vn -0.036003776 -0.102914624 0.99403834
vn 0.05790551 -0.09215707 0.9940593
vn 0.035961516 -0.102773964 0.9940545
vn 0.012195851 -0.10824756 0.9940492
vn -0.01220283 -0.10829686 0.99404377
vn -0.036011174 -0.10291207 0.99403834
vn -0.047310445 -0.09825699 0.99403584
vn 0.04723254 -0.098080575 0.99405694
vn 0.024233574 -0.106177494 0.9940519
vn -6.645033E-07 -0.108957306 0.99404645
vn -0.024256933 -0.10627359 0.994041
vn -0.047317207 -0.098253794 0.99403584
vn -0.058026236 -0.092360415 0.9940335
vn 0.035961498 -0.102773964 0.9940545
vn 0.012195854 -0.10824756 0.9940492
vn -0.012202817 -0.10829686 0.99404377
vn -0.03601116 -0.10291207 0.99403834
vn -0.058032207 -0.09235671 0.9940335
vn -0.06801559 -0.085298434 0.99403125
vn 0.024233568 -0.10617751 0.9940519
vn -6.4923586E-07 -0.1089573 0.99404645
vn -0.02425697 -0.10627359 0.994041
vn -0.0473172 -0.09825382 0.99403584
vn -0.068020664 -0.08529437 0.99403125
vn -0.07715191 -0.077159554 0.99402916
vn 0.012195866 -0.10824759 0.9940492
vn -0.012202824 -0.108296834 0.99404377
vn -0.036011156 -0.10291207 0.99403834
vn -0.05803222 -0.0923567 0.9940335
vn -0.07715604 -0.07715536 0.99402916
vn -0.08531929 -0.06804597 0.9940274
vn -6.6479976E-07 -0.108957306 0.99404645
vn -0.024256987 -0.10627356 0.994041
vn -0.047317177 -0.09825379 0.99403584
vn -0.06802064 -0.08529436 0.99403125
vn -0.08532254 -0.068041906 0.9940274
vn -0.09241414 -0.058072433 0.9940258
vn -0.012202842 -0.10829686 0.99404377
vn -0.036011174 -0.10291207 0.99403834
vn -0.058032215 -0.09235667 0.9940335
vn -0.07715604 -0.07715535 0.99402916
vn -0.09241651 -0.0580687 0.9940257
vn -0.098346345 -0.047364827 0.99402446
vn -0.024256997 -0.10627358 0.994041
vn -0.047317185 -0.09825378 0.99403584
vn -0.06802064 -0.08529435 0.99403125
vn -0.085322574 -0.06804189 0.9940274
vn -0.09834792 -0.047361623 0.99402446
vn -0.10304048 -0.036058184 0.9940234
vn -0.03601121 -0.10291205 0.99403834
vn -0.05803222 -0.092356645 0.9940335
vn -0.07715602 -0.07715535 0.99402916
vn -0.092416555 -0.058068708 0.9940257
vn -0.10304139 -0.03605561 0.9940234
vn -0.1064368 -0.02429523 0.99402267
vn -0.047317192 -0.098253794 0.99403584
vn -0.06802063 -0.08529434 0.99403125
vn -0.08532256 -0.068041906 0.9940274
vn -0.09834791 -0.047361646 0.99402446
vn -0.106437206 -0.024293406 0.99402267
vn -0.10849198 -0.012224968 0.9940222
vn -0.058032233 -0.0923567 0.9940335
vn -0.077156 -0.07715535 0.99402916
vn -0.092416584 -0.058068696 0.9940257
vn -0.10304132 -0.036055587 0.9940234
vn -0.108492084 -0.012224022 0.9940222
vn -0.10917788 -0.0061313678 0.99400336
vn -0.10917788 -0.0061313524 0.99400336
vn -0.10643713 -0.024293358 0.99402267
vn -0.108492024 -0.012224015 0.9940222
vn -0.10917788 -0.006131345 0.99400336
vn -0.09834792 -0.047361623 0.99402446
vn -0.08532254 -0.06804189 0.9940274
vn -0.10304131 -0.03605554 0.9940234
vn -0.10849203 -0.012224067 0.9940222
vn -0.109177895 -0.0061313347 0.99400336
vn -0.106437124 -0.024293361 0.99402267
vn -0.092416555 -0.058068674 0.9940257
vn -0.108492084 -0.012224081 0.9940222
vn -0.10917791 -0.0061313375 0.99400336
vn -0.09834794 -0.04736159 0.99402446
vn -0.10304138 -0.036055546 0.9940234
vn -0.106437184 -0.024293404 0.99402267
vn -0.10849203 -0.012224084 0.9940222
vn -0.10917788 -0.006131486 0.99400336
vn -0.10643715 -0.02429336 0.99402267
vn -0.10304136 -0.036055546 0.9940234
vn -0.09834794 -0.04736159 0.99402446
vn -0.092416584 -0.058068685 0.9940257
vn -0.10849205 -0.012224118 0.9940222
vn -0.10917787 -0.006131571 0.99400336
vn -0.10643715 -0.024293335 0.99402267
vn -0.10304139 -0.036055475 0.9940234
vn -0.09834798 -0.047361564 0.99402446
vn -0.108492084 -0.012224039 0.9940222
vn -0.10917789 -0.0061313678 0.99400336
vn -0.1064372 -0.024293384 0.99402267
vn -0.10304139 -0.03605549 0.9940234
vn -0.10849209 -0.012223862 0.9940222
vn -0.109177925 -0.0061311433 0.99400336
vn -0.10643717 -0.024293412 0.99402267
vn -0.10849217 -0.012222896 0.9940222
vn -0.10917791 -0.0061310753 0.99400336
vn -0.10643751 -0.024291746 0.99402267
vn -0.10304217 -0.036053304 0.9940234
vn -0.10304133 -0.036055632 0.9940234
vn -0.098349504 -0.04735841 0.99402446
vn -0.09834798 -0.04736147 0.99402446
vn -0.09241903 -0.05806479 0.9940257
vn -0.09834793 -0.04736151 0.99402446
vn -0.09241675 -0.0580684 0.9940257
vn -0.0853257 -0.06803786 0.9940274
vn -0.09241661 -0.058068566 0.9940257
vn -0.08532266 -0.06804171 0.9940274
vn -0.077159785 -0.07715155 0.99402916
vn -0.09241661 -0.05806866 0.9940257
vn -0.07715595 -0.0771554 0.99402916
vn -0.06802548 -0.08529053 0.99403125
vn -0.08532259 -0.0680418 0.9940274
vn -0.08532259 -0.068041876 0.9940274
vn -0.068020694 -0.08529429 0.99403125
vn -0.058037966 -0.092353076 0.9940335
vn -0.077155985 -0.07715537 0.99402916
vn -0.08532257 -0.06804189 0.9940274
vn -0.058032326 -0.0923566 0.9940335
vn -0.047323454 -0.098250814 0.99403584
vn -0.06802068 -0.08529429 0.99403125
vn -0.07715603 -0.07715538 0.99402916
vn -0.07715603 -0.07715539 0.99402916
vn -0.047317185 -0.09825382 0.99403584
vn -0.03601837 -0.10290959 0.99403834
vn -0.0580322 -0.092356645 0.9940335
vn -0.06802068 -0.08529435 0.99403125
vn -0.06802067 -0.08529438 0.99403125
vn -0.05803219 -0.09235671 0.9940335
vn -0.036011413 -0.102912 0.99403834
vn -0.024264596 -0.106271796 0.994041
vn -0.047317144 -0.098253824 0.99403584
vn -0.047317155 -0.09825382 0.99403584
vn -0.024257205 -0.10627351 0.994041
vn -0.012210363 -0.10829599 0.99404377
vn -0.036011312 -0.10291204 0.99403834
vn -0.03601126 -0.10291204 0.99403834
vn -0.012202777 -0.10829686 0.99404377
vn -8.35855E-06 -0.1089573 0.99404645
vn -0.024257123 -0.10627356 0.994041
vn -0.024257042 -0.106273554 0.994041
vn -6.277429E-07 -0.10895729 0.99404645
vn 0.012188284 -0.10824841 0.9940492
vn -0.012202824 -0.108296834 0.99404377
vn -0.012202843 -0.108296864 0.99404377
vn 0.012195893 -0.10824756 0.9940492
vn 0.02422612 -0.10617923 0.9940519
vn -6.358954E-07 -0.10895729 0.99404645
vn -6.72804E-07 -0.10895732 0.99404645
vn 0.024233492 -0.10617751 0.9940519
vn 0.03595436 -0.1027765 0.9940545
vn 0.012195874 -0.10824753 0.9940492
vn 0.012195861 -0.10824756 0.9940492
vn 0.0359613 -0.10277404 0.9940545
vn 0.047226176 -0.09808364 0.99405694
vn 0.024233552 -0.10617747 0.9940519
vn 0.024233574 -0.106177494 0.9940519
vn 0.047232438 -0.09808061 0.99405694
vn 0.05790017 -0.09216044 0.9940593
vn 0.03596142 -0.102773964 0.9940545
vn 0.035961483 -0.10277396 0.9940545
vn 0.057905644 -0.092157006 0.9940593
vn 0.06784249 -0.08508214 0.9940615
vn 0.047232505 -0.0980806 0.99405694
vn 0.047232546 -0.09808056 0.99405694
vn 0.067847155 -0.08507838 0.9940615
vn 0.07692924 -0.07693785 0.9940637
vn 0.057905596 -0.09215704 0.9940593
vn 0.057905544 -0.09215707 0.9940593
vn 0.07693311 -0.07693394 0.9940637
vn 0.08504742 -0.06782969 0.9940654
vn 0.06784712 -0.0850784 0.9940615
vn 0.06784708 -0.08507839 0.9940615
vn 0.08505044 -0.067825906 0.9940654
vn 0.09209542 -0.057872638 0.99406695
vn 0.076933175 -0.07693387 0.9940637
vn 0.076933205 -0.07693382 0.9940637
vn 0.0920976 -0.057869185 0.99406695
vn 0.09798552 -0.04719144 0.99406826
vn 0.085050456 -0.067825876 0.9940654
vn 0.085050434 -0.0678259 0.9940654
vn 0.09798697 -0.047188424 0.99406826
vn 0.1026445 -0.0359199 0.99406934
vn 0.0920976 -0.057869174 0.99406695
vn 0.0920976 -0.057869144 0.99406695
vn 0.10264537 -0.035917427 0.99406934
vn 0.10601433 -0.024199089 0.9940701
vn 0.097986996 -0.047188368 0.99406826
vn 0.097987026 -0.047188308 0.99406826
vn 0.10601474 -0.024197344 0.9940701
vn 0.108053185 -0.01217555 0.9940706
vn 0.10264541 -0.035917334 0.99406934
vn 0.102645405 -0.035917323 0.99406934
vn 0.10805331 -0.012174706 0.9940706
vn 0.10873561 0 0.9940707
vn 0.10601477 -0.024197292 0.9940701
vn 0.106014736 -0.024197292 0.9940701
vn 0.10873561 0 0.9940707
vn 0.10805314 0.012175862 0.9940706
vn 0.108053274 -0.0121747125 0.9940706
vn 0.10805328 -0.012174687 0.9940706
vn 0.10805327 0.012174995 0.9940706
vn 0.10601434 0.024199152 0.9940701
vn 0.10873559 0 0.9940707
vn 0.108735606 0 0.9940707
vn 0.10601476 0.024197467 0.9940701
vn 0.10264453 0.035919715 0.99406934
vn 0.10805326 0.012174968 0.9940706
vn 0.108053274 0.012174902 0.9940706
vn 0.102645405 0.035917375 0.99406934
vn 0.09798559 0.04719136 0.99406826
vn 0.10601473 0.02419745 0.9940701
vn 0.106014736 0.02419745 0.9940701
vn 0.09798702 0.047188397 0.99406826
vn 0.092095464 0.05787263 0.99406695
vn 0.102645375 0.03591744 0.99406934
vn 0.10264534 0.035917483 0.99406934
vn 0.0920976 0.057869226 0.99406695
vn 0.085047424 0.06782979 0.9940654
vn 0.09798699 0.04718846 0.99406826
vn 0.09798697 0.047188483 0.99406826
vn 0.085050404 0.067826055 0.9940654
vn 0.07692931 0.076937824 0.9940637
vn 0.092097566 0.057869278 0.99406695
vn 0.092097566 0.057869278 0.99406695
vn 0.076933175 0.07693395 0.9940637
vn 0.067842215 0.085082345 0.9940615
vn 0.08505037 0.06782606 0.9940654
vn 0.08505035 0.06782611 0.9940654
vn 0.067846954 0.08507857 0.9940615
vn 0.057899788 0.09216078 0.9940593
vn 0.07693319 0.07693395 0.9940637
vn 0.076933175 0.07693398 0.9940637
vn 0.0579053 0.0921573 0.9940593
vn 0.047226146 0.09808377 0.99405694
vn 0.06784699 0.08507856 0.9940615
vn 0.06784701 0.08507853 0.9940615
vn 0.047232345 0.098080754 0.99405694
vn 0.035954695 0.102776475 0.9940545
vn 0.057905335 0.09215728 0.9940593
vn 0.057905346 0.092157274 0.9940593
vn 0.03596149 0.102774076 0.9940545
vn 0.024226481 0.10617922 0.9940519
vn 0.04723232 0.09808075 0.99405694
vn 0.047232326 0.09808075 0.99405694
vn 0.024233764 0.10617754 0.9940519
vn 0.012188255 0.108248495 0.9940492
vn 0.03596141 0.10277407 0.9940545
vn 0.035961412 0.102774076 0.9940545
vn 0.012195845 0.10824763 0.9940492
vn -8.679769E-06 0.10895736 0.99404633
vn 0.024233686 0.10617754 0.9940519
vn 0.024233596 0.10617755 0.9940519
vn -9.5339834E-07 0.10895736 0.99404633
vn -0.0122105945 0.10829608 0.99404377
vn 0.012195788 0.108247645 0.9940492
vn 0.012195759 0.10824766 0.9940492
vn -0.012202967 0.10829692 0.99404377
vn -0.02426399 0.10627206 0.994041
vn -9.087819E-07 0.10895738 0.99404633
vn -8.643137E-07 0.10895734 0.99404633
vn -0.024256773 0.1062737 0.994041
vn -0.03601802 0.10290971 0.99403834
vn -0.0122029465 0.10829692 0.99404377
vn -0.012202923 0.1082969 0.99404377
vn -0.036011193 0.10291212 0.99403834
vn -0.047323886 0.098250665 0.99403584
vn -0.024256917 0.106273666 0.994041
vn -0.024256958 0.106273636 0.994041
vn -0.047317535 0.09825372 0.99403584
vn -0.058037534 0.09235351 0.9940335
vn -0.036011267 0.10291207 0.99403834
vn -0.036011294 0.102912076 0.99403834
vn -0.058032073 0.09235689 0.9940335
vn -0.068025105 0.085290864 0.99403125
vn -0.047317427 0.09825373 0.99403584
vn -0.04731739 0.09825376 0.99403584
vn -0.068020456 0.08529454 0.99403125
vn -0.077160195 0.077151276 0.99402916
vn -0.0580322 0.09235678 0.9940335
vn -0.05803229 0.09235671 0.9940335
vn -0.07715625 0.07715519 0.99402916
vn -0.06802061 0.085294455 0.99403125
vn -0.068020694 0.0852944 0.99403125
vn -0.077156186 0.07715528 0.99402916
g FX_MESH_Cone_UV_01_0
f 3/3/3 2/2/2 1/1/1
f 2/2/2 4/4/4 1/1/1
f 1/1/1 4/4/4 5/5/5
f 2/2/2 6/6/6 4/4/4
f 4/4/4 7/7/7 5/5/5
f 5/5/5 7/7/7 8/8/8
f 6/6/6 9/9/9 4/4/4
f 4/4/4 9/9/9 7/7/7
f 6/6/6 10/10/10 9/9/9
f 7/7/7 11/11/11 8/8/8
f 8/8/8 11/11/11 12/12/12
f 10/10/10 13/13/13 9/9/9
f 10/10/10 14/14/14 13/13/13
f 9/9/9 15/15/15 7/7/7
f 7/7/7 15/15/15 11/11/11
f 9/9/9 13/13/13 15/15/15
f 11/11/11 16/16/16 12/12/12
f 12/12/12 16/16/16 17/17/17
f 14/14/14 18/18/18 13/13/13
f 18/18/18 14/14/14 19/19/19
f 13/13/13 20/20/20 15/15/15
f 13/13/13 18/18/18 20/20/20
f 15/15/15 21/21/21 11/11/11
f 11/11/11 21/21/21 16/16/16
f 15/15/15 20/20/20 21/21/21
f 16/16/16 22/22/22 17/17/17
f 17/17/17 22/22/22 23/23/23
f 24/24/24 18/18/18 19/19/19
f 24/24/24 19/19/19 25/25/25
f 21/21/21 26/26/26 16/16/16
f 16/16/16 26/26/26 22/22/22
f 18/18/18 27/27/27 20/20/20
f 27/27/27 18/18/18 24/24/24
f 20/20/20 28/28/28 21/21/21
f 21/21/21 28/28/28 26/26/26
f 20/20/20 27/27/27 28/28/28
f 22/22/22 29/29/29 23/23/23
f 23/23/23 29/29/29 30/30/30
f 31/31/31 24/24/24 25/25/25
f 31/31/31 25/25/25 32/32/32
f 26/26/26 33/33/33 22/22/22
f 22/22/22 33/33/33 29/29/29
f 28/28/28 34/34/34 26/26/26
f 26/26/26 34/34/34 33/33/33
f 35/35/35 27/27/27 24/24/24
f 35/35/35 24/24/24 31/31/31
f 27/27/27 36/36/36 28/28/28
f 28/28/28 36/36/36 34/34/34
f 36/36/36 27/27/27 35/35/35
f 29/29/29 37/37/37 30/30/30
f 30/30/30 37/37/37 38/38/38
f 39/39/39 31/31/31 32/32/32
f 39/39/39 32/32/32 40/40/40
f 33/33/33 41/41/41 29/29/29
f 29/29/29 41/41/41 37/37/37
f 34/34/34 42/42/42 33/33/33
f 33/33/33 42/42/42 41/41/41
f 43/43/43 35/35/35 31/31/31
f 43/43/43 31/31/31 39/39/39
f 44/44/44 36/36/36 35/35/35
f 44/44/44 35/35/35 43/43/43
f 36/36/36 45/45/45 34/34/34
f 34/34/34 45/45/45 42/42/42
f 45/45/45 36/36/36 44/44/44
f 46/46/46 39/39/39 40/40/40
f 46/46/46 40/40/40 47/47/47
f 48/48/48 46/46/46 47/47/47
f 49/49/49 43/43/43 39/39/39
f 49/49/49 39/39/39 46/46/46
f 50/50/50 46/46/46 48/48/48
f 50/50/50 49/49/49 46/46/46
f 51/51/51 50/50/50 48/48/48
f 52/52/52 44/44/44 43/43/43
f 52/52/52 43/43/43 49/49/49
f 53/53/53 45/45/45 44/44/44
f 53/53/53 44/44/44 52/52/52
f 45/45/45 54/54/54 42/42/42
f 54/54/54 45/45/45 53/53/53
f 55/55/55 50/50/50 51/51/51
f 56/56/56 55/55/55 51/51/51
f 57/57/57 49/49/49 50/50/50
f 57/57/57 52/52/52 49/49/49
f 55/55/55 57/57/57 50/50/50
f 58/58/58 53/53/53 52/52/52
f 58/58/58 52/52/52 57/57/57
f 59/59/59 55/55/55 56/56/56
f 60/60/60 59/59/59 56/56/56
f 61/61/61 57/57/57 55/55/55
f 61/61/61 58/58/58 57/57/57
f 59/59/59 61/61/61 55/55/55
f 62/62/62 53/53/53 58/58/58
f 62/62/62 54/54/54 53/53/53
f 42/42/42 54/54/54 63/63/63
f 42/42/42 63/63/63 41/41/41
f 64/64/64 59/59/59 60/60/60
f 65/65/65 64/64/64 60/60/60
f 66/66/66 61/61/61 59/59/59
f 64/64/64 66/66/66 59/59/59
f 67/67/67 58/58/58 61/61/61
f 67/67/67 62/62/62 58/58/58
f 66/66/66 67/67/67 61/61/61
f 68/68/68 54/54/54 62/62/62
f 54/54/54 68/68/68 63/63/63
f 41/41/41 63/63/63 69/69/69
f 41/41/41 69/69/69 37/37/37
f 70/70/70 64/64/64 65/65/65
f 71/71/71 70/70/70 65/65/65
f 72/72/72 62/62/62 67/67/67
f 72/72/72 68/68/68 62/62/62
f 73/73/73 66/66/66 64/64/64
f 70/70/70 73/73/73 64/64/64
f 74/74/74 67/67/67 66/66/66
f 74/74/74 72/72/72 67/67/67
f 73/73/73 74/74/74 66/66/66
f 63/63/63 68/68/68 75/75/75
f 63/63/63 75/75/75 69/69/69
f 37/37/37 69/69/69 76/76/76
f 37/37/37 76/76/76 38/38/38
f 38/38/38 76/76/76 77/77/77
f 78/78/78 68/68/68 72/72/72
f 68/68/68 78/78/78 75/75/75
f 79/79/79 72/72/72 74/74/74
f 79/79/79 78/78/78 72/72/72
f 80/80/80 74/74/74 73/73/73
f 80/80/80 79/79/79 74/74/74
f 69/69/69 81/81/81 76/76/76
f 69/69/69 75/75/75 81/81/81
f 76/76/76 82/82/82 77/77/77
f 76/76/76 81/81/81 82/82/82
f 77/77/77 82/82/82 83/83/83
f 75/75/75 78/78/78 84/84/84
f 75/75/75 84/84/84 81/81/81
f 85/85/85 78/78/78 79/79/79
f 78/78/78 85/85/85 84/84/84
f 82/82/82 86/86/86 83/83/83
f 83/83/83 86/86/86 87/87/87
f 81/81/81 88/88/88 82/82/82
f 81/81/81 84/84/84 88/88/88
f 82/82/82 88/88/88 86/86/86
f 86/86/86 89/89/89 87/87/87
f 87/87/87 89/89/89 90/90/90
f 84/84/84 91/91/91 88/88/88
f 84/84/84 85/85/85 91/91/91
f 88/88/88 92/92/92 86/86/86
f 86/86/86 92/92/92 89/89/89
f 88/88/88 91/91/91 92/92/92
f 93/93/93 85/85/85 79/79/79
f 93/93/93 79/79/79 80/80/80
f 89/89/89 94/94/94 90/90/90
f 90/90/90 94/94/94 95/95/95
f 92/92/92 96/96/96 89/89/89
f 89/89/89 96/96/96 94/94/94
f 85/85/85 97/97/97 91/91/91
f 97/97/97 85/85/85 93/93/93
f 91/91/91 98/98/98 92/92/92
f 92/92/92 98/98/98 96/96/96
f 91/91/91 97/97/97 98/98/98
f 94/94/94 99/99/99 95/95/95
f 95/95/95 99/99/99 100/100/100
f 96/96/96 101/101/101 94/94/94
f 94/94/94 101/101/101 99/99/99
f 98/98/98 102/102/102 96/96/96
f 96/96/96 102/102/102 101/101/101
f 97/97/97 103/103/103 98/98/98
f 98/98/98 103/103/103 102/102/102
f 104/104/104 97/97/97 93/93/93
f 103/103/103 97/97/97 104/104/104
f 99/99/99 105/105/105 100/100/100
f 100/100/100 105/105/105 106/106/106
f 101/101/101 107/107/107 99/99/99
f 99/99/99 107/107/107 105/105/105
f 102/102/102 108/108/108 101/101/101
f 101/101/101 108/108/108 107/107/107
f 103/103/103 109/109/109 102/102/102
f 102/102/102 109/109/109 108/108/108
f 105/105/105 110/110/110 106/106/106
f 106/106/106 110/110/110 111/111/111
f 107/107/107 112/112/112 105/105/105
f 105/105/105 112/112/112 110/110/110
f 108/108/108 113/113/113 107/107/107
f 107/107/107 113/113/113 112/112/112
f 110/110/110 114/114/114 111/111/111
f 111/111/111 114/114/114 115/115/115
f 112/112/112 116/116/116 110/110/110
f 110/110/110 116/116/116 114/114/114
f 114/114/114 117/117/117 115/115/115
f 115/115/115 117/117/117 118/118/118
f 109/109/109 103/103/103 119/119/119
f 119/119/119 103/103/103 104/104/104
f 109/109/109 120/120/120 108/108/108
f 108/108/108 120/120/120 113/113/113
f 113/113/113 121/121/121 112/112/112
f 112/112/112 121/121/121 116/116/116
f 116/116/116 122/122/122 114/114/114
f 114/114/114 122/122/122 117/117/117
f 117/117/117 123/123/123 118/118/118
f 118/118/118 123/123/123 124/124/124
f 125/125/125 109/109/109 119/119/119
f 120/120/120 109/109/109 125/125/125
f 120/120/120 126/126/126 113/113/113
f 113/113/113 126/126/126 121/121/121
f 121/121/121 127/127/127 116/116/116
f 116/116/116 127/127/127 122/122/122
f 122/122/122 128/128/128 117/117/117
f 117/117/117 128/128/128 123/123/123
f 123/123/123 129/129/129 124/124/124
f 124/124/124 129/129/129 130/130/130
f 131/131/131 120/120/120 125/125/125
f 126/126/126 120/120/120 131/131/131
f 126/126/126 132/132/132 121/121/121
f 121/121/121 132/132/132 127/127/127
f 127/127/127 133/133/133 122/122/122
f 122/122/122 133/133/133 128/128/128
f 128/128/128 134/134/134 123/123/123
f 123/123/123 134/134/134 129/129/129
f 129/129/129 135/135/135 130/130/130
f 130/130/130 135/135/135 136/136/136
f 137/137/137 126/126/126 131/131/131
f 132/132/132 126/126/126 137/137/137
f 132/132/132 138/138/138 127/127/127
f 127/127/127 138/138/138 133/133/133
f 133/133/133 139/139/139 128/128/128
f 128/128/128 139/139/139 134/134/134
f 134/134/134 140/140/140 129/129/129
f 129/129/129 140/140/140 135/135/135
f 135/135/135 141/141/141 136/136/136
f 136/136/136 141/141/141 142/142/142
f 143/143/143 132/132/132 137/137/137
f 138/138/138 132/132/132 143/143/143
f 138/138/138 144/144/144 133/133/133
f 133/133/133 144/144/144 139/139/139
f 139/139/139 145/145/145 134/134/134
f 134/134/134 145/145/145 140/140/140
f 140/140/140 146/146/146 135/135/135
f 135/135/135 146/146/146 141/141/141
f 141/141/141 147/147/147 142/142/142
f 142/142/142 147/147/147 148/148/148
f 149/149/149 138/138/138 143/143/143
f 144/144/144 138/138/138 149/149/149
f 144/144/144 150/150/150 139/139/139
f 139/139/139 150/150/150 145/145/145
f 145/145/145 151/151/151 140/140/140
f 140/140/140 151/151/151 146/146/146
f 146/146/146 152/152/152 141/141/141
f 141/141/141 152/152/152 147/147/147
f 147/147/147 153/153/153 148/148/148
f 148/148/148 153/153/153 154/154/154
f 155/155/155 144/144/144 149/149/149
f 150/150/150 144/144/144 155/155/155
f 150/150/150 156/156/156 145/145/145
f 145/145/145 156/156/156 151/151/151
f 151/151/151 157/157/157 146/146/146
f 146/146/146 157/157/157 152/152/152
f 152/152/152 158/158/158 147/147/147
f 147/147/147 158/158/158 153/153/153
f 153/153/153 159/159/159 154/154/154
f 154/154/154 159/159/159 160/160/160
f 161/161/161 150/150/150 155/155/155
f 156/156/156 150/150/150 161/161/161
f 156/156/156 162/162/162 151/151/151
f 151/151/151 162/162/162 157/157/157
f 157/157/157 163/163/163 152/152/152
f 152/152/152 163/163/163 158/158/158
f 158/158/158 164/164/164 153/153/153
f 153/153/153 164/164/164 159/159/159
f 159/159/159 165/165/165 160/160/160
f 160/160/160 165/165/165 166/166/166
f 167/167/167 156/156/156 161/161/161
f 162/162/162 156/156/156 167/167/167
f 162/162/162 168/168/168 157/157/157
f 157/157/157 168/168/168 163/163/163
f 163/163/163 169/169/169 158/158/158
f 158/158/158 169/169/169 164/164/164
f 164/164/164 170/170/170 159/159/159
f 159/159/159 170/170/170 165/165/165
f 165/165/165 171/171/171 166/166/166
f 166/166/166 171/171/171 172/172/172
f 173/173/173 162/162/162 167/167/167
f 168/168/168 162/162/162 173/173/173
f 168/168/168 174/174/174 163/163/163
f 163/163/163 174/174/174 169/169/169
f 169/169/169 175/175/175 164/164/164
f 164/164/164 175/175/175 170/170/170
f 170/170/170 176/176/176 165/165/165
f 165/165/165 176/176/176 171/171/171
f 171/171/171 177/177/177 172/172/172
f 172/172/172 177/177/177 178/178/178
f 179/179/179 168/168/168 173/173/173
f 174/174/174 168/168/168 179/179/179
f 174/174/174 180/180/180 169/169/169
f 169/169/169 180/180/180 175/175/175
f 175/175/175 181/181/181 170/170/170
f 170/170/170 181/181/181 176/176/176
f 176/176/176 182/182/182 171/171/171
f 171/171/171 182/182/182 177/177/177
f 177/177/177 183/183/183 178/178/178
f 178/178/178 183/183/183 184/184/184
f 185/185/185 174/174/174 179/179/179
f 180/180/180 174/174/174 185/185/185
f 180/180/180 186/186/186 175/175/175
f 175/175/175 186/186/186 181/181/181
f 181/181/181 187/187/187 176/176/176
f 176/176/176 187/187/187 182/182/182
f 182/182/182 188/188/188 177/177/177
f 177/177/177 188/188/188 183/183/183
f 183/183/183 189/189/189 184/184/184
f 184/184/184 189/189/189 190/190/190
f 191/191/191 180/180/180 185/185/185
f 186/186/186 180/180/180 191/191/191
f 186/186/186 192/192/192 181/181/181
f 181/181/181 192/192/192 187/187/187
f 187/187/187 193/193/193 182/182/182
f 182/182/182 193/193/193 188/188/188
f 188/188/188 194/194/194 183/183/183
f 183/183/183 194/194/194 189/189/189
f 189/189/189 195/195/195 190/190/190
f 190/190/190 195/195/195 196/196/196
f 197/197/197 186/186/186 191/191/191
f 192/192/192 186/186/186 197/197/197
f 192/192/192 198/198/198 187/187/187
f 187/187/187 198/198/198 193/193/193
f 193/193/193 199/199/199 188/188/188
f 188/188/188 199/199/199 194/194/194
f 194/194/194 200/200/200 189/189/189
f 189/189/189 200/200/200 195/195/195
f 195/195/195 201/201/201 196/196/196
f 196/196/196 201/201/201 202/202/202
f 203/203/203 192/192/192 197/197/197
f 198/198/198 192/192/192 203/203/203
f 198/198/198 204/204/204 193/193/193
f 193/193/193 204/204/204 199/199/199
f 199/199/199 205/205/205 194/194/194
f 194/194/194 205/205/205 200/200/200
f 200/200/200 206/206/206 195/195/195
f 195/195/195 206/206/206 201/201/201
f 201/201/201 207/207/207 202/202/202
f 202/202/202 207/207/207 208/208/208
f 209/209/209 198/198/198 203/203/203
f 204/204/204 198/198/198 209/209/209
f 204/204/204 210/210/210 199/199/199
f 199/199/199 210/210/210 205/205/205
f 205/205/205 211/211/211 200/200/200
f 200/200/200 211/211/211 206/206/206
f 206/206/206 212/212/212 201/201/201
f 201/201/201 212/212/212 207/207/207
f 207/207/207 213/213/213 208/208/208
f 208/208/208 213/213/213 214/214/214
f 215/215/215 204/204/204 209/209/209
f 210/210/210 204/204/204 215/215/215
f 210/210/210 216/216/216 205/205/205
f 205/205/205 216/216/216 211/211/211
f 211/211/211 217/217/217 206/206/206
f 206/206/206 217/217/217 212/212/212
f 212/212/212 218/218/218 207/207/207
f 207/207/207 218/218/218 213/213/213
f 213/213/213 219/219/219 214/214/214
f 214/214/214 219/219/219 220/220/220
f 221/221/221 210/210/210 215/215/215
f 216/216/216 210/210/210 221/221/221
f 216/216/216 222/222/222 211/211/211
f 211/211/211 222/222/222 217/217/217
f 217/217/217 223/223/223 212/212/212
f 212/212/212 223/223/223 218/218/218
f 218/218/218 224/224/224 213/213/213
f 213/213/213 224/224/224 219/219/219
f 219/219/219 225/225/225 220/220/220
f 220/220/220 225/225/225 226/226/226
f 227/227/227 216/216/216 221/221/221
f 222/222/222 216/216/216 227/227/227
f 222/222/222 228/228/228 217/217/217
f 217/217/217 228/228/228 223/223/223
f 223/223/223 229/229/229 218/218/218
f 218/218/218 229/229/229 224/224/224
f 224/224/224 230/230/230 219/219/219
f 219/219/219 230/230/230 225/225/225
f 225/225/225 231/231/231 226/226/226
f 226/226/226 231/231/231 232/232/232
f 233/233/233 222/222/222 227/227/227
f 228/228/228 222/222/222 233/233/233
f 228/228/228 234/234/234 223/223/223
f 223/223/223 234/234/234 229/229/229
f 229/229/229 235/235/235 224/224/224
f 224/224/224 235/235/235 230/230/230
f 230/230/230 236/236/236 225/225/225
f 225/225/225 236/236/236 231/231/231
f 231/231/231 237/237/237 232/232/232
f 232/232/232 237/237/237 238/238/238
f 239/239/239 228/228/228 233/233/233
f 234/234/234 228/228/228 239/239/239
f 234/234/234 240/240/240 229/229/229
f 229/229/229 240/240/240 235/235/235
f 235/235/235 241/241/241 230/230/230
f 230/230/230 241/241/241 236/236/236
f 236/236/236 242/242/242 231/231/231
f 231/231/231 242/242/242 237/237/237
f 237/237/237 243/243/243 238/238/238
f 238/238/238 243/243/243 244/244/244
f 245/245/245 234/234/234 239/239/239
f 240/240/240 234/234/234 245/245/245
f 240/240/240 246/246/246 235/235/235
f 235/235/235 246/246/246 241/241/241
f 241/241/241 247/247/247 236/236/236
f 236/236/236 247/247/247 242/242/242
f 242/242/242 248/248/248 237/237/237
f 237/237/237 248/248/248 243/243/243
f 243/243/243 249/249/249 244/244/244
f 244/244/244 249/249/249 250/250/250
f 251/251/251 240/240/240 245/245/245
f 246/246/246 240/240/240 251/251/251
f 246/246/246 252/252/252 241/241/241
f 241/241/241 252/252/252 247/247/247
f 247/247/247 253/253/253 242/242/242
f 242/242/242 253/253/253 248/248/248
f 248/248/248 254/254/254 243/243/243
f 243/243/243 254/254/254 249/249/249
f 249/249/249 255/255/255 250/250/250
f 250/250/250 255/255/255 256/256/256
f 257/257/257 246/246/246 251/251/251
f 252/252/252 246/246/246 257/257/257
f 252/252/252 258/258/258 247/247/247
f 247/247/247 258/258/258 253/253/253
f 253/253/253 259/259/259 248/248/248
f 248/248/248 259/259/259 254/254/254
f 254/254/254 260/260/260 249/249/249
f 249/249/249 260/260/260 255/255/255
f 255/255/255 261/261/261 256/256/256
f 256/256/256 261/261/261 262/262/262
f 263/263/263 252/252/252 257/257/257
f 258/258/258 252/252/252 263/263/263
f 258/258/258 264/264/264 253/253/253
f 253/253/253 264/264/264 259/259/259
f 259/259/259 265/265/265 254/254/254
f 254/254/254 265/265/265 260/260/260
f 260/260/260 266/266/266 255/255/255
f 255/255/255 266/266/266 261/261/261
f 261/261/261 267/267/267 262/262/262
f 262/262/262 267/267/267 268/268/268
f 269/269/269 258/258/258 263/263/263
f 264/264/264 258/258/258 269/269/269
f 264/264/264 270/270/270 259/259/259
f 259/259/259 270/270/270 265/265/265
f 265/265/265 271/271/271 260/260/260
f 260/260/260 271/271/271 266/266/266
f 266/266/266 272/272/272 261/261/261
f 261/261/261 272/272/272 267/267/267
f 267/267/267 273/273/273 268/268/268
f 268/268/268 273/273/273 274/274/274
f 275/275/275 264/264/264 269/269/269
f 270/270/270 264/264/264 275/275/275
f 270/270/270 276/276/276 265/265/265
f 265/265/265 276/276/276 271/271/271
f 271/271/271 277/277/277 266/266/266
f 266/266/266 277/277/277 272/272/272
f 272/272/272 278/278/278 267/267/267
f 267/267/267 278/278/278 273/273/273
f 273/273/273 279/279/279 274/274/274
f 274/274/274 279/279/279 280/280/280
f 281/281/281 270/270/270 275/275/275
f 276/276/276 270/270/270 281/281/281
f 276/276/276 282/282/282 271/271/271
f 271/271/271 282/282/282 277/277/277
f 277/277/277 283/283/283 272/272/272
f 272/272/272 283/283/283 278/278/278
f 278/278/278 284/284/284 273/273/273
f 273/273/273 284/284/284 279/279/279
f 279/279/279 285/285/285 280/280/280
f 280/280/280 285/285/285 286/286/286
f 287/287/287 276/276/276 281/281/281
f 282/282/282 276/276/276 287/287/287
f 282/282/282 288/288/288 277/277/277
f 277/277/277 288/288/288 283/283/283
f 283/283/283 289/289/289 278/278/278
f 278/278/278 289/289/289 284/284/284
f 284/284/284 290/290/290 279/279/279
f 279/279/279 290/290/290 285/285/285
f 285/285/285 291/291/291 286/286/286
f 286/286/286 291/291/291 292/292/292
f 293/293/293 282/282/282 287/287/287
f 288/288/288 282/282/282 293/293/293
f 288/288/288 294/294/294 283/283/283
f 283/283/283 294/294/294 289/289/289
f 289/289/289 295/295/295 284/284/284
f 284/284/284 295/295/295 290/290/290
f 290/290/290 296/296/296 285/285/285
f 285/285/285 296/296/296 291/291/291
f 291/291/291 297/297/297 292/292/292
f 292/292/292 297/297/297 298/298/298
f 299/299/299 288/288/288 293/293/293
f 294/294/294 288/288/288 299/299/299
f 294/294/294 300/300/300 289/289/289
f 289/289/289 300/300/300 295/295/295
f 295/295/295 301/301/301 290/290/290
f 290/290/290 301/301/301 296/296/296
f 296/296/296 302/302/302 291/291/291
f 291/291/291 302/302/302 297/297/297
f 297/297/297 303/303/303 298/298/298
f 298/298/298 303/303/303 304/304/304
f 305/305/305 294/294/294 299/299/299
f 300/300/300 294/294/294 305/305/305
f 300/300/300 306/306/306 295/295/295
f 295/295/295 306/306/306 301/301/301
f 301/301/301 307/307/307 296/296/296
f 296/296/296 307/307/307 302/302/302
f 302/302/302 308/308/308 297/297/297
f 297/297/297 308/308/308 303/303/303
f 303/303/303 309/309/309 304/304/304
f 304/304/304 309/309/309 310/310/310
f 311/311/311 300/300/300 305/305/305
f 306/306/306 300/300/300 311/311/311
f 306/306/306 312/312/312 301/301/301
f 301/301/301 312/312/312 307/307/307
f 307/307/307 313/313/313 302/302/302
f 302/302/302 313/313/313 308/308/308
f 308/308/308 314/314/314 303/303/303
f 303/303/303 314/314/314 309/309/309
f 309/309/309 315/315/315 310/310/310
f 310/310/310 315/315/315 316/316/316
f 317/317/317 306/306/306 311/311/311
f 312/312/312 306/306/306 317/317/317
f 312/312/312 318/318/318 307/307/307
f 307/307/307 318/318/318 313/313/313
f 313/313/313 319/319/319 308/308/308
f 308/308/308 319/319/319 314/314/314
f 314/314/314 320/320/320 309/309/309
f 309/309/309 320/320/320 315/315/315
f 315/315/315 321/321/321 316/316/316
f 316/316/316 321/321/321 322/322/322
f 323/323/323 312/312/312 317/317/317
f 318/318/318 312/312/312 323/323/323
f 318/318/318 324/324/324 313/313/313
f 313/313/313 324/324/324 319/319/319
f 319/319/319 325/325/325 314/314/314
f 314/314/314 325/325/325 320/320/320
f 320/320/320 326/326/326 315/315/315
f 315/315/315 326/326/326 321/321/321
f 321/321/321 327/327/327 322/322/322
f 322/322/322 327/327/327 328/328/328
f 329/329/329 318/318/318 323/323/323
f 324/324/324 318/318/318 329/329/329
f 324/324/324 330/330/330 319/319/319
f 319/319/319 330/330/330 325/325/325
f 325/325/325 331/331/331 320/320/320
f 320/320/320 331/331/331 326/326/326
f 326/326/326 332/332/332 321/321/321
f 321/321/321 332/332/332 327/327/327
f 327/327/327 333/333/333 328/328/328
f 328/328/328 333/333/333 334/334/334
f 335/335/335 324/324/324 329/329/329
f 330/330/330 324/324/324 335/335/335
f 330/330/330 336/336/336 325/325/325
f 325/325/325 336/336/336 331/331/331
f 331/331/331 337/337/337 326/326/326
f 326/326/326 337/337/337 332/332/332
f 332/332/332 338/338/338 327/327/327
f 327/327/327 338/338/338 333/333/333
f 333/333/333 339/339/339 334/334/334
f 334/334/334 339/339/339 340/340/340
f 341/341/341 330/330/330 335/335/335
f 336/336/336 330/330/330 341/341/341
f 336/336/336 342/342/342 331/331/331
f 331/331/331 342/342/342 337/337/337
f 337/337/337 343/343/343 332/332/332
f 332/332/332 343/343/343 338/338/338
f 338/338/338 344/344/344 333/333/333
f 333/333/333 344/344/344 339/339/339
f 339/339/339 345/345/345 340/340/340
f 340/340/340 345/345/345 346/346/346
f 345/345/345 347/347/347 346/346/346
f 339/339/339 348/348/348 345/345/345
f 344/344/344 348/348/348 339/339/339
f 345/345/345 349/349/349 347/347/347
f 348/348/348 349/349/349 345/345/345
f 349/349/349 350/350/350 347/347/347
f 338/338/338 351/351/351 344/344/344
f 343/343/343 351/351/351 338/338/338
f 337/337/337 352/352/352 343/343/343
f 342/342/342 352/352/352 337/337/337
f 344/344/344 353/353/353 348/348/348
f 351/351/351 353/353/353 344/344/344
f 349/349/349 354/354/354 350/350/350
f 354/354/354 355/355/355 350/350/350
f 348/348/348 356/356/356 349/349/349
f 353/353/353 356/356/356 348/348/348
f 356/356/356 354/354/354 349/349/349
f 343/343/343 357/357/357 351/351/351
f 352/352/352 357/357/357 343/343/343
f 354/354/354 358/358/358 355/355/355
f 358/358/358 359/359/359 355/355/355
f 351/351/351 360/360/360 353/353/353
f 357/357/357 360/360/360 351/351/351
f 353/353/353 361/361/361 356/356/356
f 360/360/360 361/361/361 353/353/353
f 356/356/356 362/362/362 354/354/354
f 362/362/362 358/358/358 354/354/354
f 361/361/361 362/362/362 356/356/356
f 359/359/359 358/358/358 363/363/363
f 364/364/364 359/359/359 363/363/363
f 358/358/358 362/362/362 365/365/365
f 363/363/363 358/358/358 365/365/365
f 362/362/362 361/361/361 366/366/366
f 365/365/365 362/362/362 366/366/366
f 361/361/361 360/360/360 367/367/367
f 366/366/366 361/361/361 367/367/367
f 360/360/360 357/357/357 368/368/368
f 367/367/367 360/360/360 368/368/368
f 364/364/364 363/363/363 369/369/369
f 370/370/370 364/364/364 369/369/369
f 363/363/363 365/365/365 371/371/371
f 369/369/369 363/363/363 371/371/371
f 365/365/365 366/366/366 372/372/372
f 371/371/371 365/365/365 372/372/372
f 366/366/366 367/367/367 373/373/373
f 372/372/372 366/366/366 373/373/373
f 370/370/370 369/369/369 374/374/374
f 375/375/375 370/370/370 374/374/374
f 369/369/369 371/371/371 376/376/376
f 374/374/374 369/369/369 376/376/376
f 371/371/371 372/372/372 377/377/377
f 376/376/376 371/371/371 377/377/377
f 375/375/375 374/374/374 378/378/378
f 379/379/379 375/375/375 378/378/378
f 374/374/374 376/376/376 380/380/380
f 378/378/378 374/374/374 380/380/380
f 379/379/379 378/378/378 381/381/381
f 382/382/382 379/379/379 381/381/381
f 381/381/381 378/378/378 383/383/383
f 378/378/378 380/380/380 383/383/383
f 383/383/383 380/380/380 384/384/384
f 380/380/380 376/376/376 385/385/385
f 380/380/380 385/385/385 384/384/384
f 376/376/376 377/377/377 385/385/385
f 384/384/384 385/385/385 386/386/386
f 385/385/385 387/387/387 386/386/386
f 385/385/385 377/377/377 387/387/387
f 386/386/386 387/387/387 388/388/388
f 377/377/377 389/389/389 387/387/387
f 377/377/377 372/372/372 389/389/389
f 372/372/372 373/373/373 389/389/389
f 387/387/387 390/390/390 388/388/388
f 387/387/387 389/389/389 390/390/390
f 388/388/388 390/390/390 391/391/391
f 389/389/389 373/373/373 392/392/392
f 389/389/389 392/392/392 390/390/390
f 390/390/390 393/393/393 391/391/391
f 390/390/390 392/392/392 393/393/393
f 391/391/391 393/393/393 394/394/394
f 373/373/373 395/395/395 392/392/392
f 373/373/373 367/367/367 395/395/395
f 367/367/367 368/368/368 395/395/395
f 393/393/393 396/396/396 394/394/394
f 394/394/394 396/396/396 397/397/397
f 392/392/392 398/398/398 393/393/393
f 392/392/392 395/395/395 398/398/398
f 393/393/393 398/398/398 396/396/396
f 395/395/395 368/368/368 399/399/399
f 395/395/395 399/399/399 398/398/398
f 396/396/396 400/400/400 397/397/397
f 397/397/397 400/400/400 401/401/401
f 398/398/398 402/402/402 396/396/396
f 398/398/398 399/399/399 402/402/402
f 396/396/396 402/402/402 400/400/400
f 368/368/368 403/403/403 399/399/399
f 368/368/368 357/357/357 403/403/403
f 357/357/357 352/352/352 403/403/403
f 400/400/400 404/404/404 401/401/401
f 401/401/401 404/404/404 405/405/405
f 402/402/402 406/406/406 400/400/400
f 400/400/400 406/406/406 404/404/404
f 399/399/399 407/407/407 402/402/402
f 399/399/399 403/403/403 407/407/407
f 402/402/402 407/407/407 406/406/406
f 403/403/403 352/352/352 408/408/408
f 403/403/403 408/408/408 407/407/407
f 352/352/352 342/342/342 408/408/408
f 404/404/404 409/409/409 405/405/405
f 405/405/405 409/409/409 410/410/410
f 406/406/406 411/411/411 404/404/404
f 404/404/404 411/411/411 409/409/409
f 407/407/407 412/412/412 406/406/406
f 407/407/407 408/408/408 412/412/412
f 406/406/406 412/412/412 411/411/411
f 408/408/408 342/342/342 413/413/413
f 408/408/408 413/413/413 412/412/412
f 342/342/342 336/336/336 413/413/413
f 413/413/413 336/336/336 341/341/341
f 412/412/412 413/413/413 414/414/414
f 412/412/412 414/414/414 411/411/411
f 413/413/413 341/341/341 414/414/414
f 409/409/409 415/415/415 410/410/410
f 410/410/410 415/415/415 416/416/416
f 411/411/411 417/417/417 409/409/409
f 411/411/411 414/414/414 417/417/417
f 409/409/409 417/417/417 415/415/415
f 414/414/414 341/341/341 418/418/418
f 414/414/414 418/418/418 417/417/417
f 341/341/341 335/335/335 418/418/418
f 415/415/415 419/419/419 416/416/416
f 416/416/416 419/419/419 420/420/420
f 417/417/417 421/421/421 415/415/415
f 417/417/417 418/418/418 421/421/421
f 415/415/415 421/421/421 419/419/419
f 418/418/418 335/335/335 422/422/422
f 418/418/418 422/422/422 421/421/421
f 335/335/335 329/329/329 422/422/422
f 419/419/419 423/423/423 420/420/420
f 420/420/420 423/423/423 424/424/424
f 421/421/421 425/425/425 419/419/419
f 421/421/421 422/422/422 425/425/425
f 419/419/419 425/425/425 423/423/423
f 422/422/422 329/329/329 426/426/426
f 422/422/422 426/426/426 425/425/425
f 329/329/329 323/323/323 426/426/426
f 423/423/423 427/427/427 424/424/424
f 424/424/424 427/427/427 428/428/428
f 425/425/425 429/429/429 423/423/423
f 425/425/425 426/426/426 429/429/429
f 423/423/423 429/429/429 427/427/427
f 426/426/426 323/323/323 430/430/430
f 426/426/426 430/430/430 429/429/429
f 323/323/323 317/317/317 430/430/430
f 427/427/427 431/431/431 428/428/428
f 428/428/428 431/431/431 432/432/432
f 429/429/429 433/433/433 427/427/427
f 429/429/429 430/430/430 433/433/433
f 427/427/427 433/433/433 431/431/431
f 430/430/430 317/317/317 434/434/434
f 430/430/430 434/434/434 433/433/433
f 317/317/317 311/311/311 434/434/434
f 431/431/431 435/435/435 432/432/432
f 432/432/432 435/435/435 436/436/436
f 433/433/433 437/437/437 431/431/431
f 433/433/433 434/434/434 437/437/437
f 431/431/431 437/437/437 435/435/435
f 434/434/434 311/311/311 438/438/438
f 434/434/434 438/438/438 437/437/437
f 311/311/311 305/305/305 438/438/438
f 435/435/435 439/439/439 436/436/436
f 436/436/436 439/439/439 440/440/440
f 437/437/437 441/441/441 435/435/435
f 437/437/437 438/438/438 441/441/441
f 435/435/435 441/441/441 439/439/439
f 438/438/438 305/305/305 442/442/442
f 438/438/438 442/442/442 441/441/441
f 305/305/305 299/299/299 442/442/442
f 439/439/439 443/443/443 440/440/440
f 440/440/440 443/443/443 444/444/444
f 441/441/441 445/445/445 439/439/439
f 441/441/441 442/442/442 445/445/445
f 439/439/439 445/445/445 443/443/443
f 442/442/442 299/299/299 446/446/446
f 442/442/442 446/446/446 445/445/445
f 299/299/299 293/293/293 446/446/446
f 443/443/443 447/447/447 444/444/444
f 444/444/444 447/447/447 448/448/448
f 445/445/445 449/449/449 443/443/443
f 445/445/445 446/446/446 449/449/449
f 443/443/443 449/449/449 447/447/447
f 446/446/446 293/293/293 450/450/450
f 446/446/446 450/450/450 449/449/449
f 293/293/293 287/287/287 450/450/450
f 447/447/447 451/451/451 448/448/448
f 448/448/448 451/451/451 452/452/452
f 449/449/449 453/453/453 447/447/447
f 449/449/449 450/450/450 453/453/453
f 447/447/447 453/453/453 451/451/451
f 450/450/450 287/287/287 454/454/454
f 450/450/450 454/454/454 453/453/453
f 287/287/287 281/281/281 454/454/454
f 451/451/451 455/455/455 452/452/452
f 452/452/452 455/455/455 456/456/456
f 453/453/453 457/457/457 451/451/451
f 453/453/453 454/454/454 457/457/457
f 451/451/451 457/457/457 455/455/455
f 454/454/454 281/281/281 458/458/458
f 454/454/454 458/458/458 457/457/457
f 281/281/281 275/275/275 458/458/458
f 455/455/455 459/459/459 456/456/456
f 456/456/456 459/459/459 460/460/460
f 457/457/457 461/461/461 455/455/455
f 457/457/457 458/458/458 461/461/461
f 455/455/455 461/461/461 459/459/459
f 458/458/458 275/275/275 462/462/462
f 458/458/458 462/462/462 461/461/461
f 275/275/275 269/269/269 462/462/462
f 459/459/459 463/463/463 460/460/460
f 460/460/460 463/463/463 464/464/464
f 461/461/461 465/465/465 459/459/459
f 461/461/461 462/462/462 465/465/465
f 459/459/459 465/465/465 463/463/463
f 462/462/462 269/269/269 466/466/466
f 462/462/462 466/466/466 465/465/465
f 269/269/269 263/263/263 466/466/466
f 463/463/463 467/467/467 464/464/464
f 464/464/464 467/467/467 468/468/468
f 465/465/465 469/469/469 463/463/463
f 465/465/465 466/466/466 469/469/469
f 463/463/463 469/469/469 467/467/467
f 466/466/466 263/263/263 470/470/470
f 466/466/466 470/470/470 469/469/469
f 263/263/263 257/257/257 470/470/470
f 467/467/467 471/471/471 468/468/468
f 468/468/468 471/471/471 472/472/472
f 469/469/469 473/473/473 467/467/467
f 469/469/469 470/470/470 473/473/473
f 467/467/467 473/473/473 471/471/471
f 470/470/470 257/257/257 474/474/474
f 470/470/470 474/474/474 473/473/473
f 257/257/257 251/251/251 474/474/474
f 471/471/471 475/475/475 472/472/472
f 472/472/472 475/475/475 476/476/476
f 473/473/473 477/477/477 471/471/471
f 473/473/473 474/474/474 477/477/477
f 471/471/471 477/477/477 475/475/475
f 474/474/474 251/251/251 478/478/478
f 474/474/474 478/478/478 477/477/477
f 251/251/251 245/245/245 478/478/478
f 475/475/475 479/479/479 476/476/476
f 476/476/476 479/479/479 480/480/480
f 477/477/477 481/481/481 475/475/475
f 477/477/477 478/478/478 481/481/481
f 475/475/475 481/481/481 479/479/479
f 478/478/478 245/245/245 482/482/482
f 478/478/478 482/482/482 481/481/481
f 245/245/245 239/239/239 482/482/482
f 479/479/479 483/483/483 480/480/480
f 480/480/480 483/483/483 484/484/484
f 481/481/481 485/485/485 479/479/479
f 481/481/481 482/482/482 485/485/485
f 479/479/479 485/485/485 483/483/483
f 482/482/482 239/239/239 486/486/486
f 482/482/482 486/486/486 485/485/485
f 239/239/239 233/233/233 486/486/486
f 483/483/483 487/487/487 484/484/484
f 484/484/484 487/487/487 488/488/488
f 485/485/485 489/489/489 483/483/483
f 485/485/485 486/486/486 489/489/489
f 483/483/483 489/489/489 487/487/487
f 486/486/486 233/233/233 490/490/490
f 486/486/486 490/490/490 489/489/489
f 233/233/233 227/227/227 490/490/490
f 487/487/487 491/491/491 488/488/488
f 488/488/488 491/491/491 492/492/492
f 489/489/489 493/493/493 487/487/487
f 489/489/489 490/490/490 493/493/493
f 487/487/487 493/493/493 491/491/491
f 490/490/490 227/227/227 494/494/494
f 490/490/490 494/494/494 493/493/493
f 227/227/227 221/221/221 494/494/494
f 491/491/491 495/495/495 492/492/492
f 492/492/492 495/495/495 496/496/496
f 493/493/493 497/497/497 491/491/491
f 493/493/493 494/494/494 497/497/497
f 491/491/491 497/497/497 495/495/495
f 494/494/494 221/221/221 498/498/498
f 494/494/494 498/498/498 497/497/497
f 221/221/221 215/215/215 498/498/498
f 495/495/495 499/499/499 496/496/496
f 496/496/496 499/499/499 500/500/500
f 497/497/497 501/501/501 495/495/495
f 497/497/497 498/498/498 501/501/501
f 495/495/495 501/501/501 499/499/499
f 498/498/498 215/215/215 502/502/502
f 498/498/498 502/502/502 501/501/501
f 215/215/215 209/209/209 502/502/502
f 499/499/499 503/503/503 500/500/500
f 500/500/500 503/503/503 504/504/504
f 501/501/501 505/505/505 499/499/499
f 501/501/501 502/502/502 505/505/505
f 499/499/499 505/505/505 503/503/503
f 502/502/502 209/209/209 506/506/506
f 502/502/502 506/506/506 505/505/505
f 209/209/209 203/203/203 506/506/506
f 503/503/503 507/507/507 504/504/504
f 504/504/504 507/507/507 508/508/508
f 505/505/505 509/509/509 503/503/503
f 505/505/505 506/506/506 509/509/509
f 503/503/503 509/509/509 507/507/507
f 506/506/506 203/203/203 510/510/510
f 506/506/506 510/510/510 509/509/509
f 203/203/203 197/197/197 510/510/510
f 507/507/507 511/511/511 508/508/508
f 508/508/508 511/511/511 512/512/512
f 509/509/509 513/513/513 507/507/507
f 509/509/509 510/510/510 513/513/513
f 507/507/507 513/513/513 511/511/511
f 510/510/510 197/197/197 514/514/514
f 510/510/510 514/514/514 513/513/513
f 197/197/197 191/191/191 514/514/514
f 511/511/511 515/515/515 512/512/512
f 512/512/512 515/515/515 516/516/516
f 513/513/513 517/517/517 511/511/511
f 513/513/513 514/514/514 517/517/517
f 511/511/511 517/517/517 515/515/515
f 514/514/514 191/191/191 518/518/518
f 514/514/514 518/518/518 517/517/517
f 191/191/191 185/185/185 518/518/518
f 515/515/515 519/519/519 516/516/516
f 516/516/516 519/519/519 520/520/520
f 517/517/517 521/521/521 515/515/515
f 517/517/517 518/518/518 521/521/521
f 515/515/515 521/521/521 519/519/519
f 518/518/518 185/185/185 522/522/522
f 518/518/518 522/522/522 521/521/521
f 185/185/185 179/179/179 522/522/522
f 519/519/519 523/523/523 520/520/520
f 520/520/520 523/523/523 524/524/524
f 521/521/521 525/525/525 519/519/519
f 521/521/521 522/522/522 525/525/525
f 519/519/519 525/525/525 523/523/523
f 522/522/522 179/179/179 526/526/526
f 522/522/522 526/526/526 525/525/525
f 179/179/179 173/173/173 526/526/526
f 523/523/523 527/527/527 524/524/524
f 524/524/524 527/527/527 528/528/528
f 525/525/525 529/529/529 523/523/523
f 525/525/525 526/526/526 529/529/529
f 523/523/523 529/529/529 527/527/527
f 526/526/526 173/173/173 530/530/530
f 526/526/526 530/530/530 529/529/529
f 173/173/173 167/167/167 530/530/530
f 527/527/527 531/531/531 528/528/528
f 528/528/528 531/531/531 532/532/532
f 529/529/529 533/533/533 527/527/527
f 529/529/529 530/530/530 533/533/533
f 527/527/527 533/533/533 531/531/531
f 530/530/530 167/167/167 534/534/534
f 530/530/530 534/534/534 533/533/533
f 167/167/167 161/161/161 534/534/534
f 531/531/531 535/535/535 532/532/532
f 532/532/532 535/535/535 536/536/536
f 533/533/533 537/537/537 531/531/531
f 533/533/533 534/534/534 537/537/537
f 531/531/531 537/537/537 535/535/535
f 534/534/534 161/161/161 538/538/538
f 534/534/534 538/538/538 537/537/537
f 161/161/161 155/155/155 538/538/538
f 535/535/535 539/539/539 536/536/536
f 536/536/536 539/539/539 540/540/540
f 537/537/537 541/541/541 535/535/535
f 537/537/537 538/538/538 541/541/541
f 535/535/535 541/541/541 539/539/539
f 538/538/538 155/155/155 542/542/542
f 538/538/538 542/542/542 541/541/541
f 155/155/155 149/149/149 542/542/542
f 539/539/539 543/543/543 540/540/540
f 540/540/540 543/543/543 544/544/544
f 541/541/541 545/545/545 539/539/539
f 541/541/541 542/542/542 545/545/545
f 539/539/539 545/545/545 543/543/543
f 542/542/542 149/149/149 546/546/546
f 542/542/542 546/546/546 545/545/545
f 149/149/149 143/143/143 546/546/546
f 543/543/543 547/547/547 544/544/544
f 544/544/544 547/547/547 548/548/548
f 545/545/545 549/549/549 543/543/543
f 545/545/545 546/546/546 549/549/549
f 543/543/543 549/549/549 547/547/547
f 546/546/546 143/143/143 550/550/550
f 546/546/546 550/550/550 549/549/549
f 143/143/143 137/137/137 550/550/550
f 547/547/547 551/551/551 548/548/548
f 548/548/548 551/551/551 552/552/552
f 549/549/549 553/553/553 547/547/547
f 549/549/549 550/550/550 553/553/553
f 547/547/547 553/553/553 551/551/551
f 550/550/550 137/137/137 554/554/554
f 550/550/550 554/554/554 553/553/553
f 137/137/137 131/131/131 554/554/554
f 551/551/551 555/555/555 552/552/552
f 552/552/552 555/555/555 556/556/556
f 553/553/553 557/557/557 551/551/551
f 553/553/553 554/554/554 557/557/557
f 551/551/551 557/557/557 555/555/555
f 554/554/554 131/131/131 558/558/558
f 554/554/554 558/558/558 557/557/557
f 131/131/131 125/125/125 558/558/558
f 555/555/555 559/559/559 556/556/556
f 556/556/556 559/559/559 560/560/560
f 557/557/557 561/561/561 555/555/555
f 557/557/557 558/558/558 561/561/561
f 555/555/555 561/561/561 559/559/559
f 558/558/558 125/125/125 562/562/562
f 558/558/558 562/562/562 561/561/561
f 125/125/125 119/119/119 562/562/562
f 559/559/559 563/563/563 560/560/560
f 560/560/560 563/563/563 564/564/564
f 561/561/561 565/565/565 559/559/559
f 561/561/561 562/562/562 565/565/565
f 559/559/559 565/565/565 563/563/563
f 562/562/562 119/119/119 566/566/566
f 562/562/562 566/566/566 565/565/565
f 119/119/119 104/104/104 566/566/566
f 563/563/563 567/567/567 564/564/564
f 564/564/564 567/567/567 71/71/71
f 567/567/567 70/70/70 71/71/71
f 565/565/565 568/568/568 563/563/563
f 565/565/565 566/566/566 568/568/568
f 563/563/563 568/568/568 567/567/567
f 566/566/566 104/104/104 569/569/569
f 566/566/566 569/569/569 568/568/568
f 104/104/104 93/93/93 569/569/569
f 569/569/569 93/93/93 80/80/80
f 567/567/567 570/570/570 70/70/70
f 568/568/568 570/570/570 567/567/567
f 568/568/568 569/569/569 570/570/570
f 569/569/569 80/80/80 570/570/570
f 570/570/570 73/73/73 70/70/70
f 570/570/570 80/80/80 73/73/73
