g FX_MESH_Spin_01
v 0.974095 -0.13849373 -0.072073504
v 1.3788128 -0.21419533 0
v 1.3398023 -0.3347889 -0.0074820905
v 0.955675 -0.19726631 -0.07368587
v 0.571548 -0.059744034 -0.12052444
v 1.3154761 -0.3916558 -0.0116491355
v 0.9348651 -0.25539207 -0.075126
v 1.2627527 -0.5054811 -0.01919712
v 0.5608066 -0.11950409 -0.12051563
v 0.91177946 -0.31249267 -0.07632564
v 1.2297326 -0.55778104 -0.023154654
v 0.88203216 -0.36659208 -0.077850886
v 0.5390314 -0.17588119 -0.120851494
v 1.1967126 -0.6100811 -0.026340982
v 0.85228467 -0.42069137 -0.07865995
v 1.1230997 -0.7096974 -0.031280395
v 0.5109535 -0.23120147 -0.121021114
v 0.81595093 -0.47045463 -0.079688944
v 1.0822148 -0.7561091 -0.03294255
v 0.7780127 -0.5191612 -0.080135666
v 0.9974917 -0.84465915 -0.033791285
v 0.4769316 -0.28583497 -0.120886706
v 0.73721147 -0.56524694 -0.08020664
v 0.9497709 -0.88400817 -0.033498388
v 0.69203657 -0.60732883 -0.08014009
v 0.85523254 -0.9601128 -0.030141355
v 0.4355783 -0.33518058 -0.12071195
v 0.6466838 -0.649186 -0.079248086
v 0.8018788 -0.9914018 -0.028171176
v 0.59541047 -0.68357646 -0.07873121
v 0.38894165 -0.37575102 -0.12063304
v 0.7485257 -1.0226909 -0.025350435
v 0.54413724 -0.71796715 -0.077427156
v 0.64140135 -1.0762043 -0.018911982
v 0.33974898 -0.41324332 -0.120183
v 0.48947737 -0.7463203 -0.076337695
v 0.5642477 -1.1067668 -0.014253119
v 0.43339995 -0.772146 -0.07499977
v 0.4715512 -1.1366868 -0.008885979
v 0.28303862 -0.44565412 -0.11975662
v 0.3758908 -0.7940735 -0.073694736
v 0.41108245 -1.1520447 -0.0058013904
v 0.3164267 -0.8106764 -0.07276502
v 0.31989396 -1.1665841 -0.0026710725
v 0.22177108 -0.47166008 -0.119347356
v 0.2566188 -0.8255183 -0.07168497
v 0.23407912 -1.174793 -0.00077914906
v 0.19527328 -0.8324725 -0.07157988
v 0.15646759 -0.49015197 -0.11909332
v 0.17231262 -1.1780363 4.203393E-09
v 0.13392776 -0.8394267 -0.07114495
v 0.056558073 -1.1733816 -0.001148804
v 0.09554275 -0.50081694 -0.11896185
v 0.0722612 -0.8367038 -0.072103806
v -0.0049397275 -1.1667746 -0.0027762756
v 0.0105896 -0.8338273 -0.07280329
v 0.026118621 -0.5008801 -0.11948627
v -0.11752769 -1.1454579 -0.007900629
v -0.050054166 -0.82286423 -0.0746187
v 0.01741928 -0.5002706 -0.11957424
v -0.17719421 -1.1291625 -0.011659618
v -0.11048508 -0.8102244 -0.076393686
v -0.04386856 -0.49239454 -0.120293416
v -0.28416815 -1.0916227 -0.019744612
v -0.16893157 -0.79083675 -0.07894778
v -0.05369461 -0.4900508 -0.12047442
v -0.34048432 -1.0660475 -0.024811016
v -0.22658363 -0.76874906 -0.08151034
v -0.11332634 -0.4734886 -0.121508785
v -0.4393868 -1.0131092 -0.034136005
v -0.28150734 -0.74095154 -0.08450895
v -0.12362808 -0.46879363 -0.12181308
v -0.49091643 -0.9788993 -0.039434426
v -0.33491105 -0.7099721 -0.08742896
v -0.17979881 -0.4431156 -0.12313221
v -0.5793485 -0.91179574 -0.048170213
v -0.38487822 -0.6740296 -0.09049372
v -0.19040817 -0.4362638 -0.12349484
v -0.62477344 -0.8698175 -0.052735787
v -0.43266785 -0.6349424 -0.09332636
v -0.2405622 -0.40006727 -0.12514931
v -0.70047194 -0.79020095 -0.059543192
v -0.47618964 -0.59141487 -0.096115366
v -0.25190735 -0.3926287 -0.1253692
v -0.73862773 -0.7415208 -0.06281491
v -0.5171402 -0.5452119 -0.09852494
v -0.29565278 -0.34890303 -0.12698731
v -0.79954535 -0.65145856 -0.06722758
v -0.5527407 -0.49498275 -0.100838326
v -0.3059362 -0.33850685 -0.12726854
v -0.8294496 -0.59731674 -0.069168255
v -0.5857991 -0.44284064 -0.10267286
v -0.33506843 -0.3022933 -0.12824939
v -0.87384015 -0.4992697 -0.07162099
v -0.6120906 -0.38713318 -0.10450045
v -0.3521997 -0.27545387 -0.1289292
v -0.9040248 -0.41004744 -0.07310523
v -0.63640267 -0.33038336 -0.10579154
v -0.37437484 -0.2370597 -0.12967658
v -0.9212216 -0.33783072 -0.07413171
v -0.65216666 -0.2707572 -0.1072806
v -0.3873184 -0.2058129 -0.1302907
v -0.9388069 -0.23357756 -0.075187385
v -0.66621006 -0.21070449 -0.108264886
v -0.39745712 -0.17920509 -0.13068624
v -0.94353545 -0.15029632 -0.076318346
v -0.6713723 -0.14918227 -0.109527834
v -0.40462387 -0.14251098 -0.13138954
v -0.93873 -0.067165606 -0.07802088
v -0.67343426 -0.08764946 -0.110485114
v -0.40813848 -0.10813316 -0.13200007
v -0.9302535 -0.0058974456 -0.079489194
v -0.6686814 -0.026094055 -0.11153494
v -0.40972725 -0.046290662 -0.13281658
v -0.9143936 0.080059506 -0.081358984
v -0.6582809 0.034564283 -0.1125519
v -0.406148 -0.010069427 -0.13323635
v -0.8914206 0.1546559 -0.08345673
v -0.64372456 0.094561845 -0.11336817
v -0.39602882 0.034468535 -0.13375448
v -0.85225385 0.24942398 -0.08611987
v -0.6208504 0.15181671 -0.114391476
v -0.3869844 0.06528488 -0.13399978
v -0.8043926 0.3391838 -0.088268094
v -0.59484 0.20765258 -0.11506048
v -0.3761541 0.093697354 -0.13419257
v -0.76840734 0.3894899 -0.089594685
v -0.562018 0.259944 -0.11574043
v -0.35562864 0.13039795 -0.13453086
v -0.7043235 0.46715057 -0.09087679
v -0.52426744 0.3085553 -0.11624898
v -0.34421143 0.14996047 -0.1345959
v -0.6329098 0.537189 -0.09121609
v -0.48312888 0.35454208 -0.11639903
v -0.31832632 0.18396346 -0.13476063
v -0.5828022 0.57345 -0.09144138
v -0.43538955 0.39369032 -0.116686866
v -0.28797668 0.21393158 -0.13493942
v -0.4992871 0.62652737 -0.090915315
v -0.38468978 0.4285655 -0.116741255
v -0.2661982 0.23493102 -0.13488106
v -0.4108715 0.6695814 -0.08999843
v -0.33111176 0.45918837 -0.11660169
v -0.23888953 0.25483826 -0.13490327
v -0.35181838 0.6879744 -0.08988409
v -0.27338248 0.48107314 -0.11679456
v -0.20568398 0.27245757 -0.13502817
v -0.2571554 0.71048707 -0.08960443
v -0.21401215 0.49727353 -0.117018804
v -0.1687532 0.28620192 -0.13523749
v -0.16110206 0.7213092 -0.08995942
v -0.15327828 0.5076521 -0.11734275
v -0.13179748 0.29526976 -0.13549031
v -0.099268265 0.7198361 -0.09095381
v -0.09158111 0.5099115 -0.118046224
v -0.08389374 0.29998657 -0.13593936
v -0.004161987 0.7085318 -0.093124524
v -0.030259246 0.50385785 -0.11915712
v -0.056356046 0.29918426 -0.13626704
v 0.08798553 0.68514675 -0.09615876
v 0.029924316 0.49104843 -0.12049762
v -0.023227539 0.29512298 -0.13671
v 0.1756166 0.649841 -0.09986054
v 0.08823379 0.47120726 -0.12205983
v 0.017848205 0.28590652 -0.1372888
v 0.2294345 0.6193573 -0.10265177
v 0.14369231 0.4440779 -0.1238129
v 0.057950437 0.26879898 -0.1380652
v 0.30516234 0.56409943 -0.10694222
v 0.19399765 0.40830046 -0.12583725
v 0.08283295 0.25250137 -0.13870038
v 0.37166855 0.4989897 -0.11102825
v 0.23901717 0.3662535 -0.12784204
v 0.106365815 0.23351684 -0.13933867
v 0.42739943 0.42520446 -0.11470435
v 0.27768356 0.3183737 -0.12976348
v 0.12796769 0.21154281 -0.1399848
v 0.4708885 0.34423172 -0.11788315
v 0.3088852 0.26534727 -0.13155241
v 0.14688186 0.18646331 -0.14063624
v 0.50082946 0.25787994 -0.12058614
v 0.3315306 0.20814255 -0.13317896
v 0.16223189 0.15840515 -0.14128448
v 0.5161499 0.16827422 -0.12289981
v 0.34462205 0.14802612 -0.13463134
v 0.17309433 0.12777801 -0.14191699
v 0.5160954 0.077831954 -0.12491634
v 0.3473372 0.0865641 -0.13590914
v 0.17857864 0.09529609 -0.14251977
v 0.50030637 -0.010780868 -0.12668504
v 0.33911163 0.025601195 -0.13701557
v 0.17791702 0.06198326 -0.14307941
v 0.4688954 -0.09470871 -0.12819813
v 0.31972474 -0.03278099 -0.1379537
v 0.17055358 0.029146956 -0.14358559
v 0.42251495 -0.17099044 -0.1294199
v 0.289375 -0.08632423 -0.13873039
v 0.15623519 -0.0016579437 -0.14403237
v 0.3417485 -0.25427443 -0.13056245
v 0.24809615 -0.1319661 -0.13941039
v 0.15109757 -0.009348145 -0.14414477
v 0.26581252 -0.3000129 -0.1313719
v 0.19707656 -0.16633888 -0.14007567
v 0.12713882 -0.030828247 -0.14456637
v 0.22390366 -0.31417677 -0.13195434
v 0.16830459 -0.17719428 -0.14048015
v 0.11270584 -0.041300505 -0.144753
v 0.097071074 -0.050762024 -0.14491329
v 0.13953307 -0.18804969 -0.14073193
v 0.18199539 -0.32834074 -0.13222687
v 0.12302841 -0.3355705 -0.13299938
v 0.10399353 -0.19004035 -0.14130057
v 0.087334745 -0.054828186 -0.14500585
v 0.077976376 -0.05787674 -0.14508833
v 0.07819748 -0.19148529 -0.1415941
v 0.06713455 -0.33389762 -0.1338664
v 0.011859436 -0.32313454 -0.13491803
v 0.043516845 -0.18252495 -0.14226149
v 0.06551712 -0.061345976 -0.14518179
v 0.053746335 -0.06273964 -0.1452711
v 0.018908232 -0.17616722 -0.14261627
v -0.03110672 -0.30595106 -0.13599528
v -0.06715607 -0.2843911 -0.13707674
v -0.004110565 -0.1627729 -0.14311913
v 0.042844083 -0.063511506 -0.14534146
v -0.09206131 -0.26794907 -0.13774072
v -0.016767425 -0.15401053 -0.14339101
v -0.11651482 -0.24827316 -0.1384298
v 0.03348938 -0.06255157 -0.14540881
v -0.030296478 -0.13993286 -0.14377783
v -0.13619071 -0.22731857 -0.13910268
v -0.15545814 -0.20162483 -0.13983148
v -0.04442398 -0.12107429 -0.14421493
v 0.0284848 -0.060585175 -0.145458
v 0.02421234 -0.057633054 -0.14551193
v -0.052957457 -0.105919875 -0.14451297
v -0.17051621 -0.1769551 -0.1404327
v 0.021692809 -0.054582976 -0.14555675
v -0.18041168 -0.1472145 -0.14116846
v -0.058705747 -0.09296905 -0.14473441
v -0.18747719 -0.11775055 -0.14177774
v 0.019760894 -0.050710905 -0.14560573
v -0.06012802 -0.07783401 -0.14499278
v -0.19105567 -0.07526497 -0.14252038
v -0.057738036 -0.057999037 -0.1452971
v -0.18603934 -0.03276764 -0.14313887
v -0.053447418 -0.041999206 -0.1455016
v 0.019098815 -0.046929624 -0.14564653
v -0.17655815 0.0032229614 -0.14351249
v -0.047558594 -0.031084517 -0.14563094
v 0.019859161 -0.042130128 -0.14568919
v -0.039746094 -0.018354263 -0.14574936
v -0.15786971 0.036772612 -0.14385293
v -0.13047896 0.07283623 -0.1440466
v -0.026410675 -0.007193451 -0.14584702
v -0.098242335 0.09752265 -0.14417037
v -0.017021026 -0.002284546 -0.14588322
v -0.05509201 0.11595917 -0.14426155
v -0.0036935424 0.0021453856 -0.14590447
v 0.010111389 0.00090255734 -0.14589807
v -0.013722839 0.123542175 -0.144287
v -0.974095 0.13849364 -0.072073564
v -1.3788131 0.2141957 -6.9793714E-08
v -1.3398023 0.33478913 -0.007482199
v -0.9556751 0.19726638 -0.07368593
v -0.57154816 0.059743345 -0.12052446
v -1.3154762 0.39165542 -0.011649265
v -0.93486524 0.25539184 -0.07512609
v -1.2627528 0.50548124 -0.019197285
v -0.5608064 0.11950363 -0.120515674
v -0.9117796 0.31249237 -0.07632573
v -1.2297328 0.5577806 -0.023154845
v -0.88203216 0.36659148 -0.07785102
v -0.53903127 0.17588073 -0.12085156
v -1.1967126 0.61008084 -0.02634119
v -0.85228467 0.42069107 -0.07866011
v -1.1230992 0.7096974 -0.031280633
v -0.5109537 0.23120071 -0.121021174
v -0.815951 0.47045425 -0.07968909
v -1.0822145 0.7561093 -0.032942798
v -0.77801275 0.51916045 -0.08013583
v -0.9974917 0.8446591 -0.033791568
v -0.47693145 0.28583434 -0.1208868
v -0.7372116 0.5652469 -0.08020684
v -0.94977105 0.884008 -0.03349867
v -0.6920365 0.6073283 -0.080140285
v -0.85523236 0.96011275 -0.030141653
v -0.43557838 0.3351799 -0.12071205
v -0.6466835 0.6491856 -0.07924831
v -0.8018788 0.991402 -0.028171487
v -0.5954102 0.68357587 -0.07873142
v -0.38894156 0.37575072 -0.12063316
v -0.7485252 1.0226907 -0.025350751
v -0.5441369 0.71796644 -0.0774274
v -0.6414013 1.0762043 -0.018912323
v -0.33974877 0.41324234 -0.12018314
v -0.48947746 0.74632 -0.076337926
v -0.56424767 1.1067669 -0.014253456
v -0.4333999 0.7721455 -0.075000025
v -0.47155082 1.1366866 -0.00888635
v -0.28303826 0.44565368 -0.11975679
v -0.3758908 0.794073 -0.07369501
v -0.4110824 1.1520447 -0.005801749
v -0.3164267 0.8106756 -0.072765306
v -0.31989416 1.1665839 -0.002671453
v -0.22177093 0.4716594 -0.11934755
v -0.2566187 0.8255179 -0.07168528
v -0.23407897 1.1747934 -0.0007795149
v -0.19527298 0.8324724 -0.07158015
v -0.15646736 0.4901515 -0.11909347
v -0.17231269 1.1780363 -3.7964958E-07
v -0.13392745 0.8394266 -0.07114519
v -0.056558225 1.1733816 -0.0011492039
v -0.0955426 0.50081617 -0.11896201
v -0.072261505 0.8367032 -0.07210408
v 0.0049397275 1.1667746 -0.0027766558
v -0.010589447 0.833827 -0.07280357
v -0.026118927 0.50087935 -0.11948642
v 0.117527924 1.1454579 -0.007900985
v 0.050054472 0.8228639 -0.07461899
v -0.017419128 0.50027007 -0.1195744
v 0.17719421 1.1291625 -0.011659968
v 0.110485226 0.8102241 -0.07639394
v 0.043868866 0.4923941 -0.12029355
v 0.2841684 1.0916222 -0.019744964
v 0.16893142 0.79083645 -0.07894805
v 0.053694915 0.4900505 -0.12047458
v 0.34048462 1.0660475 -0.024811352
v 0.22658356 0.76874846 -0.08151059
v 0.113326415 0.47348815 -0.121508926
v 0.4393869 1.0131088 -0.03413633
v 0.28150788 0.74095136 -0.08450917
v 0.123628385 0.46879348 -0.12181324
v 0.49091643 0.9788992 -0.039434757
v 0.33491135 0.7099716 -0.08742918
v 0.17979904 0.4431151 -0.12313236
v 0.57934827 0.9117953 -0.04817052
v 0.38487807 0.67402893 -0.0904939
v 0.19040832 0.43626297 -0.123495005
v 0.62477356 0.8698173 -0.052736085
v 0.432668 0.6349419 -0.093326606
v 0.24056244 0.40006652 -0.12514946
v 0.70047224 0.79020065 -0.05954346
v 0.47618926 0.59141415 -0.096115604
v 0.2519072 0.392628 -0.12536934
v 0.7386279 0.74152035 -0.06281516
v 0.5171402 0.5452113 -0.098525144
v 0.29565278 0.34890243 -0.12698741
v 0.7995453 0.65145797 -0.06722778
v 0.55274075 0.49498212 -0.100838475
v 0.30593628 0.3385063 -0.12726861
v 0.8294498 0.59731615 -0.06916848
v 0.5857992 0.4428401 -0.102672994
v 0.33506835 0.30229247 -0.12824947
v 0.87384015 0.49926925 -0.07162116
v 0.61209047 0.3871327 -0.104500584
v 0.35219955 0.27545303 -0.12892927
v 0.90402496 0.410047 -0.073105365
v 0.63640255 0.33038282 -0.10579164
v 0.37437484 0.23705916 -0.12967665
v 0.92122173 0.3378302 -0.07413182
v 0.6521667 0.27075684 -0.107280694
v 0.3873181 0.20581207 -0.13029075
v 0.9388072 0.23357712 -0.07518746
v 0.6662099 0.21070388 -0.10826495
v 0.39745697 0.17920426 -0.13068631
v 0.94353527 0.1502957 -0.07631838
v 0.67137253 0.14918151 -0.10952789
v 0.40462387 0.14251022 -0.13138963
v 0.9387301 0.067164995 -0.0780209
v 0.67343414 0.087648615 -0.11048512
v 0.40813857 0.10813293 -0.13200007
v 0.93025345 0.005897064 -0.079489194
v 0.6686813 0.026093444 -0.11153494
v 0.40972716 0.046289902 -0.13281658
v 0.9143936 -0.08006004 -0.08135895
v 0.6582809 -0.03456474 -0.11255187
v 0.40614823 0.010068741 -0.13323633
v 0.8914206 -0.1546566 -0.08345666
v 0.6437245 -0.09456291 -0.113368146
v 0.39602873 -0.034469146 -0.13375445
v 0.85225385 -0.24942435 -0.08611976
v 0.6208504 -0.15181725 -0.11439143
v 0.38698408 -0.065285794 -0.13399975
v 0.8043924 -0.3391844 -0.08826795
v 0.59483975 -0.20765334 -0.11506042
v 0.37615415 -0.09369804 -0.13419254
v 0.7684074 -0.38949028 -0.08959454
v 0.562018 -0.25994444 -0.11574035
v 0.35562834 -0.13039894 -0.13453081
v 0.7043234 -0.46715096 -0.09087666
v 0.52426744 -0.3085562 -0.11624887
v 0.3442111 -0.14996123 -0.13459584
v 0.63290966 -0.5371893 -0.0912159
v 0.4831291 -0.35454237 -0.116398916
v 0.3183264 -0.183964 -0.13476056
v 0.5828024 -0.57345045 -0.09144121
v 0.4353894 -0.3936914 -0.11668676
v 0.28797668 -0.21393226 -0.13493934
v 0.49928725 -0.6265278 -0.09091511
v 0.38468963 -0.4285662 -0.1167411
v 0.26619813 -0.23493195 -0.13488097
v 0.41087112 -0.6695819 -0.089998245
v 0.33111176 -0.459189 -0.11660154
v 0.23888946 -0.25483894 -0.13490318
v 0.35181823 -0.68797475 -0.08988384
v 0.27338257 -0.48107398 -0.116794415
v 0.20568374 -0.27245826 -0.13502805
v 0.2571553 -0.7104878 -0.08960422
v 0.21401183 -0.49727425 -0.11701865
v 0.16875336 -0.2862024 -0.13523738
v 0.16110215 -0.72130966 -0.08995918
v 0.15327865 -0.5076527 -0.11734259
v 0.13179748 -0.29527053 -0.13549021
v 0.09926818 -0.71983665 -0.09095356
v 0.09158111 -0.5099121 -0.11804606
v 0.08389374 -0.29998726 -0.13593926
v 0.0041618347 -0.7085322 -0.09312426
v 0.030259246 -0.50385857 -0.11915696
v 0.05635635 -0.2991848 -0.13626693
v -0.08798538 -0.6851471 -0.09615852
v -0.029924773 -0.49104902 -0.12049748
v 0.023227386 -0.2951239 -0.13670991
v -0.17561668 -0.64984185 -0.099860325
v -0.088233486 -0.4712078 -0.12205969
v -0.017848052 -0.28590727 -0.13728872
v -0.22943489 -0.61935776 -0.10265153
v -0.14369263 -0.4440789 -0.12381278
v -0.05795059 -0.26879975 -0.13806514
v -0.30516264 -0.56410027 -0.10694204
v -0.19399773 -0.40830123 -0.12583709
v -0.0828331 -0.25250214 -0.13870029
v -0.3716686 -0.4989904 -0.1110281
v -0.23901717 -0.36625403 -0.1278419
v -0.10636589 -0.23351783 -0.13933861
v -0.42739913 -0.42520508 -0.11470422
v -0.27768356 -0.31837448 -0.12976336
v -0.12796791 -0.2115438 -0.13998473
v -0.47088858 -0.34423193 -0.11788306
v -0.3088852 -0.26534805 -0.13155231
v -0.14688194 -0.18646392 -0.14063619
v -0.5008292 -0.25788063 -0.12058606
v -0.3315305 -0.20814316 -0.1331789
v -0.16223213 -0.15840599 -0.14128439
v -0.5161499 -0.16827498 -0.12289974
v -0.3446221 -0.14802681 -0.13463128
v -0.17309433 -0.12777886 -0.14191693
v -0.5160955 -0.07783271 -0.12491633
v -0.3473371 -0.08656464 -0.13590911
v -0.17857872 -0.09529686 -0.1425197
v -0.5003063 0.0107803345 -0.12668507
v -0.33911178 -0.025602112 -0.13701554
v -0.17791687 -0.06198402 -0.14307939
v -0.46889564 0.09470794 -0.12819815
v -0.31972456 0.03278 -0.13795371
v -0.17055365 -0.02914772 -0.14358558
v -0.42251456 0.17098999 -0.12941994
v -0.289375 0.086323544 -0.1387304
v -0.15623511 0.0016571045 -0.14403237
v -0.34174803 0.25427398 -0.13056254
v -0.24809623 0.13196549 -0.13941044
v -0.15109757 0.009347381 -0.14414476
v -0.26581222 0.30001235 -0.131372
v -0.19707656 0.16633789 -0.1400757
v -0.12713875 0.03082756 -0.14456639
v -0.22390373 0.31417602 -0.13195446
v -0.16830459 0.1771936 -0.14048019
v -0.112705916 0.041300047 -0.14475301
v -0.09707092 0.050761413 -0.14491327
v -0.13953307 0.18804885 -0.14073198
v -0.18199515 0.32834 -0.13222699
v -0.12302849 0.33556977 -0.1329995
v -0.10399345 0.19003937 -0.1413006
v -0.0873349 0.054827347 -0.14500585
v -0.077976376 0.05787605 -0.14508833
v -0.07819732 0.19148453 -0.14159416
v -0.0671347 0.3338968 -0.13386653
v -0.011859283 0.32313386 -0.13491814
v -0.043516845 0.18252441 -0.14226153
v -0.06551727 0.06134529 -0.1451818
v -0.053746182 0.06273895 -0.14527111
v -0.018907929 0.17616637 -0.14261635
v 0.031107025 0.30595076 -0.13599537
v 0.06715607 0.28439042 -0.13707681
v 0.004110565 0.16277221 -0.14311919
v -0.042844083 0.06351074 -0.14534149
v 0.09206146 0.2679483 -0.13774079
v 0.016767578 0.15400985 -0.14339109
v 0.11651489 0.24827239 -0.13842987
v -0.033489075 0.06255104 -0.14540884
v 0.030296173 0.1399321 -0.1437779
v 0.13619095 0.22731796 -0.13910273
v 0.15545838 0.20162399 -0.13983153
v 0.04442398 0.121073455 -0.14421499
v -0.0284848 0.060584716 -0.14545801
v -0.024212189 0.05763252 -0.14551194
v 0.052957304 0.10591903 -0.144513
v 0.17051621 0.17695434 -0.14043275
v -0.021692658 0.054582212 -0.14555676
v 0.18041153 0.14721374 -0.14116852
v 0.058705594 0.09296821 -0.14473446
v 0.18747741 0.11774978 -0.14177775
v -0.01976074 0.05071014 -0.14560573
v 0.06012802 0.07783325 -0.14499283
v 0.1910556 0.075264126 -0.14252043
v 0.057738036 0.0579982 -0.14529712
v 0.18603927 0.032766953 -0.14313889
v 0.053447418 0.04199829 -0.14550161
v -0.019098815 0.046928864 -0.14564654
v 0.17655808 -0.0032235717 -0.14351249
v 0.047558744 0.031083832 -0.14563096
v -0.019859314 0.042129286 -0.1456892
v 0.039746094 0.018353347 -0.14574939
v 0.15786971 -0.036773376 -0.1438529
v 0.13047913 -0.07283706 -0.14404659
v 0.026410522 0.0071926876 -0.14584704
v 0.098242335 -0.097523496 -0.14417037
v 0.017020874 0.0022838593 -0.1458832
v 0.05509201 -0.11596016 -0.14426152
v 0.003693695 -0.0021460725 -0.14590447
v -0.0101115415 -0.000903244 -0.14589807
v 0.013722992 -0.12354286 -0.14428696
vt 0 0.5
vt 0 1
vt 0.012987013 1
vt 0.012987013 0.5
vt 0 0
vt 0.025974026 1
vt 0.025974026 0.5
vt 0.038961038 1
vt 0.025974026 0
vt 0.038961038 0.5
vt 0.051948052 1
vt 0.051948052 0.5
vt 0.051948052 0
vt 0.064935066 1
vt 0.064935066 0.5
vt 0.077922076 1
vt 0.064935066 0
vt 0.077922076 0.5
vt 0.090909086 1
vt 0.090909086 0.5
vt 0.1038961 1
vt 0.090909086 0
vt 0.1038961 0.5
vt 0.11688311 1
vt 0.11688311 0.5
vt 0.12987012 1
vt 0.11688311 0
vt 0.12987012 0.5
vt 0.14285713 1
vt 0.14285713 0.5
vt 0.14285713 0
vt 0.15584415 1
vt 0.15584415 0.5
vt 0.16883117 1
vt 0.15584415 0
vt 0.16883117 0.5
vt 0.18181819 1
vt 0.18181819 0.5
vt 0.1948052 1
vt 0.18181819 0
vt 0.1948052 0.5
vt 0.20779222 1
vt 0.20779222 0.5
vt 0.22077924 1
vt 0.20779222 0
vt 0.22077924 0.5
vt 0.23376626 1
vt 0.23376626 0.5
vt 0.23376626 0
vt 0.24675328 1
vt 0.24675328 0.5
vt 0.2597403 1
vt 0.24675328 0
vt 0.2597403 0.5
vt 0.2727273 1
vt 0.2727273 0.5
vt 0.2727273 0
vt 0.28571433 1
vt 0.28571433 0.5
vt 0.28571433 0
vt 0.29870135 1
vt 0.29870135 0.5
vt 0.29870135 0
vt 0.31168836 1
vt 0.31168836 0.5
vt 0.31168836 0
vt 0.32467538 1
vt 0.32467538 0.5
vt 0.32467538 0
vt 0.3376624 1
vt 0.3376624 0.5
vt 0.3376624 0
vt 0.35064942 1
vt 0.35064942 0.5
vt 0.35064942 0
vt 0.36363643 1
vt 0.36363643 0.5
vt 0.36363643 0
vt 0.37662345 1
vt 0.37662345 0.5
vt 0.37662345 0
vt 0.38961047 1
vt 0.38961047 0.5
vt 0.38961047 0
vt 0.4025975 1
vt 0.4025975 0.5
vt 0.4025975 0
vt 0.4155845 1
vt 0.4155845 0.5
vt 0.4155845 0
vt 0.42857152 1
vt 0.42857152 0.5
vt 0.42857152 0
vt 0.44155854 1
vt 0.44155854 0.5
vt 0.44155854 0
vt 0.45454556 1
vt 0.45454556 0.5
vt 0.45454556 0
vt 0.46753258 1
vt 0.46753258 0.5
vt 0.46753258 0
vt 0.4805196 1
vt 0.4805196 0.5
vt 0.4805196 0
vt 0.4935066 1
vt 0.4935066 0.5
vt 0.4935066 0
vt 0.5064936 1
vt 0.5064936 0.5
vt 0.5064936 0
vt 0.51948065 1
vt 0.51948065 0.5
vt 0.51948065 0
vt 0.53246766 1
vt 0.53246766 0.5
vt 0.53246766 0
vt 0.5454547 1
vt 0.5454547 0.5
vt 0.5454547 0
vt 0.5584417 1
vt 0.5584417 0.5
vt 0.5584417 0
vt 0.5714287 1
vt 0.5714287 0.5
vt 0.5714287 0
vt 0.58441573 1
vt 0.58441573 0.5
vt 0.58441573 0
vt 0.59740275 1
vt 0.59740275 0.5
vt 0.59740275 0
vt 0.61038977 1
vt 0.61038977 0.5
vt 0.61038977 0
vt 0.6233768 1
vt 0.6233768 0.5
vt 0.6233768 0
vt 0.6363638 1
vt 0.6363638 0.5
vt 0.6363638 0
vt 0.6493508 1
vt 0.6493508 0.5
vt 0.6493508 0
vt 0.66233784 1
vt 0.66233784 0.5
vt 0.66233784 0
vt 0.67532486 1
vt 0.67532486 0.5
vt 0.67532486 0
vt 0.6883119 1
vt 0.6883119 0.5
vt 0.6883119 0
vt 0.7012989 1
vt 0.7012989 0.5
vt 0.7012989 0
vt 0.7142859 1
vt 0.7142859 0.5
vt 0.7142859 0
vt 0.7272729 1
vt 0.7272729 0.5
vt 0.7272729 0
vt 0.74025995 1
vt 0.74025995 0.5
vt 0.74025995 0
vt 0.75324696 1
vt 0.75324696 0.5
vt 0.75324696 0
vt 0.766234 1
vt 0.766234 0.5
vt 0.766234 0
vt 0.779221 1
vt 0.779221 0.5
vt 0.779221 0
vt 0.792208 1
vt 0.792208 0.5
vt 0.792208 0
vt 0.80519503 1
vt 0.80519503 0.5
vt 0.80519503 0
vt 0.81818205 1
vt 0.81818205 0.5
vt 0.81818205 0
vt 0.83116907 1
vt 0.83116907 0.5
vt 0.83116907 0
vt 0.8441561 1
vt 0.8441561 0.5
vt 0.8441561 0
vt 0.8571431 1
vt 0.8571431 0.5
vt 0.8571431 0
vt 0.8701301 1
vt 0.8701301 0.5
vt 0.8701301 0
vt 0.88311714 1
vt 0.88311714 0.5
vt 0.88311714 0
vt 0.89610416 1
vt 0.89610416 0.5
vt 0.89610416 0
vt 0.9090912 1
vt 0.9090912 0.5
vt 0.9090912 0
vt 0.9155847 1
vt 0.9155847 0.5
vt 0.9155847 0
vt 0.9220782 0
vt 0.9220782 0.5
vt 0.9220782 1
vt 0.9289727 1
vt 0.9296032 0.5
vt 0.9287001 0
vt 0.9350652 0
vt 0.9350652 0.5
vt 0.9350652 1
vt 0.94068754 1
vt 0.94266176 0.5
vt 0.94174314 0
vt 0.9480522 0
vt 0.9480522 0.5
vt 0.9480522 1
vt 0.9512445 1
vt 0.95436186 0.5
vt 0.9539286 0
vt 0.9543345 1
vt 0.9567454 0.5
vt 0.9579536 1
vt 0.96103925 0
vt 0.96103925 0.5
vt 0.96103925 1
vt 0.96489435 1
vt 0.9670444 0.5
vt 0.9637738 0
vt 0.96682644 0
vt 0.9698105 0.5
vt 0.9679168 1
vt 0.97008455 0
vt 0.9709858 1
vt 0.9728347 0.5
vt 0.97402626 1
vt 0.97402626 0
vt 0.97402626 0.5
vt 0.97698736 1
vt 0.97961956 0.5
vt 0.97994924 1
vt 0.9814732 0.5
vt 0.9796139 0
vt 0.9833951 1
vt 0.986005 0.5
vt 0.9870133 0
vt 0.9870133 0.5
vt 0.9870133 1
vt 0.99060535 1
vt 0.9933163 0.5
vt 0.9936727 1
vt 0.9956428 0.5
vt 0.99712396 1
vt 0.9981521 0.5
vt 1.0000002 0.5
vt 1.0000002 1
vt 0 0.5
vt 0 1
vt 0.012987013 1
vt 0.012987013 0.5
vt 0 0
vt 0.025974026 1
vt 0.025974026 0.5
vt 0.038961038 1
vt 0.025974026 0
vt 0.038961038 0.5
vt 0.051948052 1
vt 0.051948052 0.5
vt 0.051948052 0
vt 0.064935066 1
vt 0.064935066 0.5
vt 0.077922076 1
vt 0.064935066 0
vt 0.077922076 0.5
vt 0.090909086 1
vt 0.090909086 0.5
vt 0.1038961 1
vt 0.090909086 0
vt 0.1038961 0.5
vt 0.11688311 1
vt 0.11688311 0.5
vt 0.12987012 1
vt 0.11688311 0
vt 0.12987012 0.5
vt 0.14285713 1
vt 0.14285713 0.5
vt 0.14285713 0
vt 0.15584415 1
vt 0.15584415 0.5
vt 0.16883117 1
vt 0.15584415 0
vt 0.16883117 0.5
vt 0.18181819 1
vt 0.18181819 0.5
vt 0.1948052 1
vt 0.18181819 0
vt 0.1948052 0.5
vt 0.20779222 1
vt 0.20779222 0.5
vt 0.22077924 1
vt 0.20779222 0
vt 0.22077924 0.5
vt 0.23376626 1
vt 0.23376626 0.5
vt 0.23376626 0
vt 0.24675328 1
vt 0.24675328 0.5
vt 0.2597403 1
vt 0.24675328 0
vt 0.2597403 0.5
vt 0.2727273 1
vt 0.2727273 0.5
vt 0.2727273 0
vt 0.28571433 1
vt 0.28571433 0.5
vt 0.28571433 0
vt 0.29870135 1
vt 0.29870135 0.5
vt 0.29870135 0
vt 0.31168836 1
vt 0.31168836 0.5
vt 0.31168836 0
vt 0.32467538 1
vt 0.32467538 0.5
vt 0.32467538 0
vt 0.3376624 1
vt 0.3376624 0.5
vt 0.3376624 0
vt 0.35064942 1
vt 0.35064942 0.5
vt 0.35064942 0
vt 0.36363643 1
vt 0.36363643 0.5
vt 0.36363643 0
vt 0.37662345 1
vt 0.37662345 0.5
vt 0.37662345 0
vt 0.38961047 1
vt 0.38961047 0.5
vt 0.38961047 0
vt 0.4025975 1
vt 0.4025975 0.5
vt 0.4025975 0
vt 0.4155845 1
vt 0.4155845 0.5
vt 0.4155845 0
vt 0.42857152 1
vt 0.42857152 0.5
vt 0.42857152 0
vt 0.44155854 1
vt 0.44155854 0.5
vt 0.44155854 0
vt 0.45454556 1
vt 0.45454556 0.5
vt 0.45454556 0
vt 0.46753258 1
vt 0.46753258 0.5
vt 0.46753258 0
vt 0.4805196 1
vt 0.4805196 0.5
vt 0.4805196 0
vt 0.4935066 1
vt 0.4935066 0.5
vt 0.4935066 0
vt 0.5064936 1
vt 0.5064936 0.5
vt 0.5064936 0
vt 0.51948065 1
vt 0.51948065 0.5
vt 0.51948065 0
vt 0.53246766 1
vt 0.53246766 0.5
vt 0.53246766 0
vt 0.5454547 1
vt 0.5454547 0.5
vt 0.5454547 0
vt 0.5584417 1
vt 0.5584417 0.5
vt 0.5584417 0
vt 0.5714287 1
vt 0.5714287 0.5
vt 0.5714287 0
vt 0.58441573 1
vt 0.58441573 0.5
vt 0.58441573 0
vt 0.59740275 1
vt 0.59740275 0.5
vt 0.59740275 0
vt 0.61038977 1
vt 0.61038977 0.5
vt 0.61038977 0
vt 0.6233768 1
vt 0.6233768 0.5
vt 0.6233768 0
vt 0.6363638 1
vt 0.6363638 0.5
vt 0.6363638 0
vt 0.6493508 1
vt 0.6493508 0.5
vt 0.6493508 0
vt 0.66233784 1
vt 0.66233784 0.5
vt 0.66233784 0
vt 0.67532486 1
vt 0.67532486 0.5
vt 0.67532486 0
vt 0.6883119 1
vt 0.6883119 0.5
vt 0.6883119 0
vt 0.7012989 1
vt 0.7012989 0.5
vt 0.7012989 0
vt 0.7142859 1
vt 0.7142859 0.5
vt 0.7142859 0
vt 0.7272729 1
vt 0.7272729 0.5
vt 0.7272729 0
vt 0.74025995 1
vt 0.74025995 0.5
vt 0.74025995 0
vt 0.75324696 1
vt 0.75324696 0.5
vt 0.75324696 0
vt 0.766234 1
vt 0.766234 0.5
vt 0.766234 0
vt 0.779221 1
vt 0.779221 0.5
vt 0.779221 0
vt 0.792208 1
vt 0.792208 0.5
vt 0.792208 0
vt 0.80519503 1
vt 0.80519503 0.5
vt 0.80519503 0
vt 0.81818205 1
vt 0.81818205 0.5
vt 0.81818205 0
vt 0.83116907 1
vt 0.83116907 0.5
vt 0.83116907 0
vt 0.8441561 1
vt 0.8441561 0.5
vt 0.8441561 0
vt 0.8571431 1
vt 0.8571431 0.5
vt 0.8571431 0
vt 0.8701301 1
vt 0.8701301 0.5
vt 0.8701301 0
vt 0.88311714 1
vt 0.88311714 0.5
vt 0.88311714 0
vt 0.89610416 1
vt 0.89610416 0.5
vt 0.89610416 0
vt 0.9090912 1
vt 0.9090912 0.5
vt 0.9090912 0
vt 0.9155847 1
vt 0.9155847 0.5
vt 0.9155847 0
vt 0.9220782 0
vt 0.9220782 0.5
vt 0.9220782 1
vt 0.9289727 1
vt 0.9296032 0.5
vt 0.9287001 0
vt 0.9350652 0
vt 0.9350652 0.5
vt 0.9350652 1
vt 0.94068754 1
vt 0.94266176 0.5
vt 0.94174314 0
vt 0.9480522 0
vt 0.9480522 0.5
vt 0.9480522 1
vt 0.9512445 1
vt 0.95436186 0.5
vt 0.9539286 0
vt 0.9543345 1
vt 0.9567454 0.5
vt 0.9579536 1
vt 0.96103925 0
vt 0.96103925 0.5
vt 0.96103925 1
vt 0.96489435 1
vt 0.9670444 0.5
vt 0.9637738 0
vt 0.96682644 0
vt 0.9698105 0.5
vt 0.9679168 1
vt 0.97008455 0
vt 0.9709858 1
vt 0.9728347 0.5
vt 0.97402626 1
vt 0.97402626 0
vt 0.97402626 0.5
vt 0.97698736 1
vt 0.97961956 0.5
vt 0.97994924 1
vt 0.9814732 0.5
vt 0.9796139 0
vt 0.9833951 1
vt 0.986005 0.5
vt 0.9870133 0
vt 0.9870133 0.5
vt 0.9870133 1
vt 0.99060535 1
vt 0.9933163 0.5
vt 0.9936727 1
vt 0.9956428 0.5
vt 0.99712396 1
vt 0.9981521 0.5
vt 1.0000002 0.5
vt 1.0000002 1
vn -0 2.246318E-06 1
vn 0.0030517434 -0.0005722019 0.99999523
vn -0 5.031194E-06 1
vn 1.0339912E-06 5.169956E-07 1
vn 6.3249155E-07 2.9252735E-06 1
vn 1.298716E-05 6.49358E-06 1
vn 3.0425892E-06 1.7748437E-06 1
vn 7.907288E-06 0 1
vn -1.5813443E-06 2.3720165E-06 1
vn 1.9965537E-06 2.9948303E-06 1
vn 6.5616064E-06 3.2808032E-06 1
vn -0 3.4256032E-06 1
vn -1.8923439E-06 2.2077345E-06 1
vn 5.770885E-06 4.328164E-06 1
vn -0 1.937379E-06 1
vn -9.725045E-06 0 1
vn 9.4484693E-07 3.3069643E-06 1
vn 2.8685909E-06 2.8685909E-06 1
vn -4.617921E-06 4.617921E-06 1
vn 1.9017463E-06 3.8034925E-06 1
vn 2.2511374E-06 4.502275E-06 1
vn -6.305978E-07 3.625937E-06 1
vn 2.8500986E-06 1.9000657E-06 1
vn 4.541524E-06 2.270762E-06 1
vn -0 3.3278725E-06 1
vn -2.5228346E-06 2.5228346E-06 1
vn 9.472649E-07 2.8417946E-06 1
vn -3.8460385E-06 3.8460385E-06 1
vn 2.6986474E-06 2.6986474E-06 1
vn -2.4195347E-06 2.9034418E-06 1
vn -0 1.8957678E-06 1
vn -1.4988729E-05 2.9977462E-06 1
vn -2.9522794E-06 2.9522794E-06 1
vn -0 4.0129394E-06 1
vn -1.9028611E-06 2.5371482E-06 1
vn 4.9905964E-07 3.992477E-06 1
vn 5.3154945E-06 0 1
vn -0 2.0318023E-06 1
vn -1.6980657E-05 8.490329E-06 1
vn -2.7053095E-06 2.5461738E-06 1
vn 2.067734E-06 3.1016011E-06 1
vn -6.464061E-06 0 1
vn -5.2352925E-07 4.188234E-06 1
vn 0.000110128996 0 1
vn -1.43713E-06 1.9161732E-06 1
vn 2.9227335E-06 3.1884365E-06 1
vn -8.678119E-05 0 1
vn 5.321852E-07 3.1931113E-06 1
vn -0 3.5204714E-06 1
vn 0.0007629393 0 0.99999976
vn -1.7401605E-06 3.2126038E-06 1
vn 8.7821754E-05 6.109339E-05 1
vn -1.4417833E-06 2.8835666E-06 1
vn 1.1226875E-06 2.1132942E-06 1
vn 6.0510643E-05 0 1
vn -7.848817E-07 2.0930179E-06 1
vn 1.3955868E-07 2.2329389E-06 1
vn -1.1919984E-05 9.535987E-06 1
vn -1.0210823E-06 3.063247E-06 1
vn 1.593784E-07 3.5063244E-06 1
vn 1.1353632E-05 6.487789E-06 1
vn -7.480416E-07 1.9947777E-06 1
vn -7.5252507E-07 2.5348213E-06 1
vn -9.6114145E-06 3.844566E-06 1
vn 7.238718E-07 2.8954871E-06 1
vn -2.3728275E-07 2.847393E-06 1
vn -4.5939873E-06 3.0626582E-06 1
vn -4.6742815E-07 1.8697126E-06 1
vn 8.626365E-07 2.195802E-06 1
vn -2.2284707E-06 4.4569415E-06 1
vn -2.2543104E-06 2.7051726E-06 1
vn -7.0403183E-07 1.8774183E-06 1
vn 9.649051E-07 1.9298102E-06 1
vn 4.3582114E-07 3.486569E-06 1
vn -6.1910725E-07 2.476429E-06 1
vn 2.3708392E-06 3.1611187E-06 1
vn -4.2107746E-07 2.5264649E-06 1
vn 1.5432268E-07 4.321035E-06 1
vn -1.4439822E-06 2.8879645E-06 1
vn -0 3.2664848E-06 1
vn 1.5228417E-07 3.6548204E-06 1
vn -0 2.5583452E-06 1
vn 3.9647483E-07 3.1717987E-06 1
vn 4.5605182E-07 2.4322765E-06 1
vn -0 2.4253054E-06 1
vn -7.735765E-07 3.094306E-06 1
vn -6.003271E-07 3.0016354E-06 1
vn -0 4.5327E-06 1
vn -3.7792358E-07 3.401312E-06 1
vn 2.9950078E-07 2.3960063E-06 1
vn -0 3.854995E-06 1
vn -1.1135324E-06 2.227065E-06 1
vn 5.944239E-07 1.6346659E-06 1
vn -1.0637602E-06 4.255041E-06 1
vn 1.458769E-06 1.8234612E-06 1
vn -8.869382E-07 1.6260533E-06 1
vn -1.0421925E-06 3.1265777E-06 1
vn -3.6024574E-07 2.8819659E-06 1
vn 2.9394343E-07 2.057604E-06 1
vn -1.027781E-06 3.5972334E-06 1
vn -7.105002E-07 7.105002E-07 1
vn 8.7767717E-07 3.2181492E-06 1
vn -0 3.0401084E-06 1
vn -0 8.8005834E-07 1
vn -0 2.3333937E-06 1
vn -0 2.246337E-06 1
vn -0 3.1317113E-06 1
vn 2.9011414E-07 3.8440126E-06 1
vn -0 5.61553E-06 1
vn 6.8991153E-07 2.5871682E-06 1
vn -0 0 1
vn -9.585967E-07 1.7374566E-06 1
vn -0 2.2211266E-06 1
vn -2.8699938E-07 2.7264941E-06 1
vn -0 2.8097797E-06 1
vn -0 1.3121796E-06 1
vn -8.5828754E-07 1.788099E-06 1
vn -9.130794E-07 3.6523177E-06 1
vn -1.3447639E-06 5.883342E-06 1
vn -2.8498843E-07 1.8880485E-06 1
vn -0 6.636573E-07 1
vn -3.3318614E-07 2.3323028E-06 1
vn 5.689342E-07 3.0935798E-06 1
vn 8.6336513E-07 3.885143E-06 1
vn -3.3125053E-07 2.9812547E-06 1
vn -5.681174E-07 2.4855137E-06 1
vn -0 1.2758941E-06 1
vn -0 1.9758372E-06 1
vn -0 3.7543207E-06 1
vn 8.3860886E-07 8.3860886E-07 1
vn 6.557337E-07 4.262269E-06 1
vn 8.496244E-07 3.5401017E-06 1
vn 4.177464E-07 4.177464E-07 1
vn 6.548891E-07 -3.2744455E-07 1
vn 5.6572435E-07 1.1314487E-06 1
vn -0 2.5003094E-06 1
vn 9.799126E-07 6.2061126E-06 1
vn -2.8248772E-07 2.2599017E-06 1
vn -8.382538E-07 8.382538E-07 1
vn 3.2648546E-07 2.6118837E-06 1
vn 2.8260982E-07 4.380452E-06 1
vn -0 1.6935685E-06 1
vn 6.537518E-07 1.6343795E-06 1
vn 1.4128168E-06 2.6843516E-06 1
vn -8.478603E-07 1.6957206E-06 1
vn -3.263366E-07 3.916039E-06 1
vn 2.8230215E-07 1.5526618E-06 1
vn -4.2525176E-07 5.1030206E-06 1
vn 9.771353E-07 3.5828293E-06 1
vn -2.8186554E-07 1.4093279E-06 1
vn -2.541453E-06 1.694302E-06 1
vn -4.8722006E-07 2.2736936E-06 1
vn -0 2.1100498E-06 1
vn -3.142123E-07 3.3515976E-06 1
vn 9.68638E-07 1.937276E-06 1
vn 2.1030846E-07 2.9443188E-06 1
vn -1.5344796E-07 1.6367783E-06 1
vn 1.2794866E-06 3.1987165E-06 1
vn -1.0140486E-06 1.818294E-06 1
vn -0 7.925921E-07 1
vn 2.4909893E-06 1.8978967E-06 1
vn 1.0804731E-06 3.903645E-06 1
vn 1.9081012E-06 4.579443E-06 1
vn -8.5874524E-07 2.498168E-06 1
vn -1.0498909E-06 2.3600853E-06 1
vn 1.1137608E-06 2.970029E-06 1
vn 2.0010452E-06 4.3099435E-06 1
vn 7.5926636E-07 2.7609685E-06 1
vn 3.563731E-07 4.276477E-06 1
vn 1.5145228E-07 2.4232365E-06 1
vn -0 2.198667E-06 1
vn -0 3.7759673E-06 1
vn 1.4907913E-07 2.0871078E-06 1
vn 2.0518146E-07 3.830054E-06 1
vn -1.3291124E-06 2.6582247E-06 1
vn -0 2.6437206E-06 1
vn 1.0211755E-06 3.9485453E-06 1
vn -0 6.466511E-07 1
vn -0 2.897552E-06 1
vn 5.4210597E-07 1.626318E-06 1
vn -1.5804203E-06 3.0027988E-06 1
vn -0 2.86219E-06 1
vn 4.047153E-07 2.8330073E-06 1
vn 6.2027686E-07 3.721661E-06 1
vn 5.6626726E-07 2.6189862E-06 1
vn -5.3721703E-07 1.7459555E-06 1
vn 6.1027174E-07 3.7760565E-06 1
vn -8.414207E-07 2.454144E-06 1
vn -0 2.4072597E-06 1
vn -0 2.2565932E-06 1
vn 2.7821036E-07 2.6256103E-06 1
vn -6.660695E-07 3.0639196E-06 1
vn 2.0813145E-06 3.4193029E-06 1
vn -4.144797E-07 4.248417E-06 1
vn 6.637231E-07 3.4845461E-06 1
vn -1.7671558E-06 2.2089448E-06 1
vn -6.8693475E-07 2.8164327E-06 1
vn -7.2783223E-07 2.7789956E-06 1
vn -1.7517029E-06 2.335604E-06 1
vn 4.1015196E-07 2.1191183E-06 1
vn -4.6280505E-07 2.330554E-06 1
vn -1.740918E-06 2.6113769E-06 1
vn 5.442738E-07 3.4017112E-06 1
vn -3.2961165E-07 2.999466E-06 1
vn 8.6661976E-07 2.744296E-06 1
vn 1.8994774E-06 2.984893E-06 1
vn 8.558862E-07 2.403065E-06 1
vn -1.052234E-06 2.5977026E-06 1
vn -0 2.5732531E-06 1
vn -1.0089741E-06 3.4593402E-06 1
vn -1.4330259E-07 2.2928414E-06 1
vn 4.0466918E-07 2.9675741E-06 1
vn 1.3144534E-06 2.4646004E-06 1
vn 1.3137068E-07 2.890155E-06 1
vn -9.759246E-07 3.2306475E-06 1
vn 3.9153164E-07 2.2780023E-06 1
vn -0 2.825324E-06 1
vn -0 1.7417302E-06 1
vn 1.5097908E-06 3.0195815E-06 1
vn -5.2482204E-07 1.6728703E-06 1
vn -8.519944E-07 3.3411548E-06 1
vn -7.357771E-07 1.4014801E-06 1
vn -1.2513882E-06 2.919906E-06 1
vn 2.1641253E-07 1.5981234E-06 1
vn 7.868522E-07 1.8359883E-06 1
vn 1.3837335E-07 2.4907204E-06 1
vn -7.144697E-07 2.3261805E-06 1
vn -4.818977E-07 2.2029608E-06 1
vn -1.671287E-06 2.2939234E-06 1
vn 1.4582396E-06 2.7176284E-06 1
vn -8.2211704E-07 1.7812537E-06 1
vn -1.090447E-06 2.7261174E-06 1
vn -9.2516E-07 3.634557E-06 1
vn -5.896667E-07 1.7362408E-06 1
vn -1.162523E-06 2.063069E-06 1
vn 9.892E-07 2.3081334E-06 1
vn 5.42891E-07 2.3072866E-06 1
vn -8.0205774E-07 2.7171752E-06 1
vn -4.0504753E-07 2.5653012E-06 1
vn -0 2.6996793E-06 1
vn -4.0330823E-07 3.2936837E-06 1
vn -1.6526651E-06 2.0944667E-06 1
vn 2.957786E-07 3.6808005E-06 1
vn -6.686802E-07 2.6412868E-06 1
vn 4.591371E-07 2.6236403E-06 1
vn 2.663172E-07 2.3968546E-06 1
vn 3.9299337E-07 3.6351887E-06 1
vn 2.2901818E-07 2.2247482E-06 1
vn 2.6562432E-07 2.4860776E-06 1
vn -2.2904264E-07 1.7341799E-06 1
vn 1.2101706E-06 2.7474143E-06 1
vn -0 3.661707E-06 1
vn -3.9749418E-07 2.2855916E-06 1
vn 3.9696013E-07 2.877961E-06 1
vn 8.004624E-07 2.8751301E-06 1
vn 1.1898587E-06 2.7102337E-06 1
vn 1.1269022E-06 2.9152473E-06 1
vn -4.2939985E-07 3.1709526E-06 1
vn -4.6335066E-07 2.1207989E-06 1
vn -2.2862356E-07 3.040489E-06 1
vn -8.751606E-07 2.5759443E-06 1
vn -0 0 1
vn -0 -0.002098079 0.99999785
vn -0 -2.012478E-05 1
vn -0 -5.1699567E-07 1
vn 6.3249155E-07 3.1624577E-06 1
vn -0 3.5714682E-05 1
vn -1.0141964E-06 2.281942E-06 1
vn -0 -1.976822E-06 1
vn 3.1626888E-07 1.818546E-06 1
vn -0 1.996554E-06 1
vn -0 2.1325213E-05 1
vn -0 5.38309E-06 1
vn 1.2615624E-06 1.8923439E-06 1
vn -2.8854417E-06 7.2136045E-06 1
vn -0 2.9060682E-06 1
vn -2.4312608E-06 2.4312608E-06 1
vn 1.2597961E-06 3.306965E-06 1
vn -9.56197E-07 2.868591E-06 1
vn -2.3089603E-06 -6.926881E-06 1
vn -0 6.656113E-06 1
vn -0 0 1
vn -3.152989E-07 1.7341438E-06 1
vn -0 0 1
vn -0 4.5415245E-06 1
vn -0 3.8032833E-06 1
vn -0 2.5228358E-06 1
vn -0 3.15755E-06 1
vn 9.615094E-07 1.9230188E-06 1
vn -0 -5.397297E-06 1
vn 4.8390706E-07 5.806885E-06 1
vn -3.1596133E-07 9.47884E-07 1
vn -0 5.9954964E-06 1
vn -9.84093E-07 6.8886507E-06 1
vn -0 0 1
vn 3.171435E-07 6.025727E-06 1
vn 1.4971794E-06 9.981195E-07 1
vn -2.6577516E-06 -5.315503E-06 1
vn -0 4.0636046E-06 1
vn -1.2735492E-05 2.5470985E-05 1
vn -1.5913582E-07 1.5913582E-06 1
vn -1.0338669E-06 4.1354674E-06 1
vn 1.2928158E-05 0 1
vn 1.5705875E-06 6.28235E-06 1
vn 6.8830614E-06 0.00011012898 1
vn 4.790432E-07 4.151708E-06 1
vn -2.9227317E-06 3.188435E-06 1
vn 2.1695716E-05 -0.00034713146 1
vn -3.7252967E-06 -1.0643705E-06 1
vn -1.6802253E-06 3.200429E-07 1
vn 0.00095367385 0 0.9999995
vn -1.4724443E-06 -1.0708686E-06 1
vn 0.0001183668 -6.109254E-05 1
vn 5.6069354E-07 3.5243593E-06 1
vn 4.0945074E-06 6.339883E-06 1
vn -2.5074616E-05 0 1
vn -3.106823E-07 2.0930174E-06 1
vn 2.7712367E-06 4.1468866E-06 1
vn -3.5760029E-06 -1.9072015E-05 1
vn -2.1059818E-06 1.0210821E-06 1
vn -1.065843E-06 9.562704E-07 1
vn -3.243899E-06 -6.487798E-06 1
vn -3.7402086E-07 1.994778E-06 1
vn -1.4258374E-06 1.267411E-06 1
vn 2.883425E-06 1.5378268E-05 1
vn 2.171615E-06 9.651623E-07 1
vn -1.9378092E-06 -3.16377E-07 1
vn -4.5939896E-06 0 1
vn 2.337141E-06 5.609139E-06 1
vn -1.1763226E-06 1.5684302E-06 1
vn 2.2284712E-06 6.6854136E-06 1
vn -3.381467E-06 -9.0172455E-07 1
vn -1.4862894E-06 -6.258061E-07 1
vn 9.649046E-07 -1.9298093E-06 1
vn -3.050748E-06 1.7432848E-06 1
vn -9.286608E-07 1.8573216E-06 1
vn 3.951397E-06 3.1611175E-06 1
vn 2.947543E-06 5.052931E-06 1
vn -1.0802587E-06 2.4691624E-06 1
vn 1.4439818E-06 -1.4439818E-06 1
vn -1.2249313E-06 2.041552E-06 1
vn -1.6751259E-06 2.1319781E-06 1
vn -3.837517E-06 1.2791722E-06 1
vn 3.964746E-06 3.5682717E-06 1
vn 1.064121E-06 2.736311E-06 1
vn -1.2126526E-06 3.637958E-06 1
vn 1.1603646E-06 2.7075175E-06 1
vn 9.004907E-07 1.5008178E-06 1
vn 2.2663505E-06 3.3995257E-06 1
vn -0 2.2675415E-06 1
vn -5.990017E-07 1.4975042E-06 1
vn -1.1014267E-06 4.405707E-06 1
vn -0 2.5982426E-06 1
vn 2.97212E-07 4.606786E-06 1
vn 2.1275205E-06 1.0637602E-06 1
vn 3.6469217E-07 2.188153E-06 1
vn 2.3651687E-06 4.582514E-06 1
vn -1.0421925E-06 2.084385E-06 1
vn 1.4409829E-06 1.8012287E-06 1
vn -0 1.7636606E-06 1
vn -1.027781E-06 2.5694524E-06 1
vn -0 2.3091256E-06 1
vn 1.4627952E-06 2.9255905E-06 1
vn -4.0534783E-06 2.0267391E-06 1
vn 2.1121402E-06 4.2242805E-06 1
vn 1.1666967E-06 3.7917644E-06 1
vn 1.9967445E-06 4.6174714E-06 1
vn -2.0878074E-06 3.305695E-06 1
vn -2.9011403E-07 1.6681556E-06 1
vn -1.9532279E-06 1.1597291E-06 1
vn 6.899116E-07 4.4844255E-06 1
vn -5.7754676E-07 1.5160603E-06 1
vn 1.9171935E-06 2.037018E-06 1
vn 6.834236E-07 2.7123374E-06 1
vn 8.609983E-07 2.7264944E-06 1
vn -0 2.8097797E-06 1
vn -0 2.2434042E-06 1
vn -8.5828765E-07 3.0934118E-06 1
vn 9.130797E-07 3.6523188E-06 1
vn 2.0171456E-06 3.0257183E-06 1
vn 8.549653E-07 2.40459E-06 1
vn -0 2.8758495E-06 1
vn 3.3318614E-07 1.8325237E-06 1
vn 1.7068028E-06 3.4847221E-06 1
vn 1.7267309E-06 2.1584137E-06 1
vn 2.3187536E-06 3.1468799E-06 1
vn -0 2.4144992E-06 1
vn -8.505961E-07 2.1264902E-06 1
vn -3.2930618E-07 1.4818778E-06 1
vn 2.2667598E-06 3.4001396E-06 1
vn -8.386085E-07 2.5158256E-06 1
vn -9.836006E-07 3.2786688E-06 1
vn 1.4160407E-06 1.911655E-06 1
vn -0 2.5064787E-06 1
vn -2.947001E-06 2.6195564E-06 1
vn -1.27288E-06 2.6871912E-06 1
vn -2.9170276E-06 2.0835914E-06 1
vn -0 2.6130997E-06 1
vn 1.4124386E-07 2.6836333E-06 1
vn -1.2573807E-06 2.9338883E-06 1
vn 6.5297104E-07 2.9383696E-06 1
vn 1.4130492E-07 2.2608788E-06 1
vn 3.3871358E-06 3.3871358E-06 1
vn -9.806278E-07 3.2687592E-06 1
vn -9.889718E-07 2.260507E-06 1
vn 1.695721E-06 2.5435816E-06 1
vn -6.526731E-07 2.937029E-06 1
vn 1.27036E-06 3.3876267E-06 1
vn 6.378775E-07 3.4020134E-06 1
vn 1.302847E-06 2.2799823E-06 1
vn -9.865295E-07 1.8321261E-06 1
vn 1.0589388E-06 3.388604E-06 1
vn -3.16693E-06 2.92332E-06 1
vn -2.1100497E-07 3.3760796E-06 1
vn 4.1894978E-07 2.5136987E-06 1
vn -1.372237E-06 3.2287928E-06 1
vn -4.2061697E-07 2.1030849E-06 1
vn 1.1252854E-06 3.2735575E-06 1
vn -1.639342E-06 2.5589732E-06 1
vn -1.3986876E-06 2.0980315E-06 1
vn -2.0805549E-06 2.3777768E-06 1
vn 9.4894824E-07 3.163161E-06 1
vn -1.5684286E-07 2.7883175E-06 1
vn -1.7172913E-06 3.816203E-06 1
vn -1.9516935E-06 1.8736259E-06 1
vn -2.4294994E-07 3.1930567E-06 1
vn 2.0418959E-06 2.2275226E-06 1
vn 1.5392654E-07 3.6942367E-06 1
vn 1.7256048E-07 2.7609676E-06 1
vn 1.9600523E-06 3.9201045E-06 1
vn 1.5145234E-07 3.6348563E-06 1
vn 8.932085E-07 3.2980006E-06 1
vn 3.4326976E-07 2.746158E-06 1
vn -4.4723737E-07 2.385266E-06 1
vn 2.0518146E-07 3.2829034E-06 1
vn -1.6613901E-06 2.9905023E-06 1
vn -1.4687338E-07 3.3780877E-06 1
vn 4.7654856E-07 3.2677615E-06 1
vn 3.233255E-07 1.6166275E-06 1
vn -1.4487762E-07 3.0424299E-06 1
vn -1.3552648E-07 2.8460558E-06 1
vn -6.3216817E-07 3.0027988E-06 1
vn -5.72438E-07 2.0035332E-06 1
vn 1.0792411E-06 3.1702707E-06 1
vn -6.202769E-07 2.7912458E-06 1
vn -0 2.6897694E-06 1
vn 4.0291286E-07 4.297737E-06 1
vn -0 2.6699383E-06 1
vn 2.8047359E-07 1.6828413E-06 1
vn 5.3494665E-07 3.0759431E-06 1
vn -6.017581E-07 2.303605E-06 1
vn 8.3463124E-07 4.260097E-06 1
vn -3.996417E-07 2.3645468E-06 1
vn -2.9733067E-07 2.8246413E-06 1
vn -6.907996E-07 3.1431377E-06 1
vn -1.3274462E-07 1.9247968E-06 1
vn -1.178104E-06 1.619893E-06 1
vn 6.8693487E-07 2.3355785E-06 1
vn 1.984997E-07 3.1387765E-06 1
vn -1.4597523E-06 1.4597523E-06 1
vn 2.7343464E-07 2.3925531E-06 1
vn 4.6280513E-07 3.0495553E-06 1
vn -4.3522948E-07 1.5958415E-06 1
vn -4.0820544E-07 3.8099176E-06 1
vn -1.9776698E-07 1.8293447E-06 1
vn -1.444366E-07 3.177605E-06 1
vn -1.7638007E-06 2.0351542E-06 1
vn -3.2918695E-07 8.2296737E-07 1
vn -0 1.6769984E-06 1
vn 1.354344E-07 3.5212945E-06 1
vn -4.3241744E-07 2.3062264E-06 1
vn 9.3146673E-07 3.4392617E-06 1
vn -8.0933853E-07 4.046693E-06 1
vn -1.9716805E-07 3.384718E-06 1
vn -0 1.8720323E-06 1
vn -0 2.1537649E-06 1
vn 9.61032E-07 3.986503E-06 1
vn -1.0065216E-06 2.2602592E-06 1
vn 1.6747407E-07 2.0096888E-06 1
vn -4.2668006E-07 1.7395417E-06 1
vn -4.9202066E-07 3.0833296E-06 1
vn -1.177757E-06 2.5392774E-06 1
vn -1.3138878E-06 8.408882E-07 1
vn 1.4251923E-06 2.0856473E-06 1
vn -1.1652983E-07 3.1962468E-06 1
vn -7.5406655E-07 3.442478E-06 1
vn -1.106987E-06 3.0442143E-06 1
vn -2.575414E-07 2.459105E-06 1
vn -0 3.1667569E-06 1
vn -3.9324397E-07 1.4091243E-06 1
vn 7.4569044E-07 2.5850604E-06 1
vn -6.850977E-07 2.4663516E-06 1
vn -4.0891769E-07 3.1350357E-06 1
vn 9.912427E-07 2.1807339E-06 1
vn 6.2242594E-07 1.4414074E-06 1
vn 1.4736207E-07 1.6046092E-06 1
vn 1.3189333E-07 3.495173E-06 1
vn -4.0716827E-07 2.985901E-06 1
vn -2.1279082E-07 2.520753E-06 1
vn 1.6201901E-06 2.700317E-06 1
vn 1.0864562E-06 3.028908E-06 1
vn -1.0754887E-06 1.9493234E-06 1
vn 6.381579E-07 3.1417005E-06 1
vn -2.6291428E-07 1.5446215E-06 1
vn 1.203624E-06 3.1093625E-06 1
vn -4.263416E-07 3.115573E-06 1
vn 2.6631713E-07 2.2803404E-06 1
vn -3.6024392E-07 2.6199555E-06 1
vn -2.0448053E-07 3.0099532E-06 1
vn 2.656243E-07 1.6560014E-06 1
vn -7.85289E-07 2.9448338E-06 1
vn -1.3900606E-07 3.0090723E-06 1
vn -0 2.590984E-06 1
vn 3.9749423E-07 2.9149576E-06 1
vn -1.5216802E-06 2.8779605E-06 1
vn 2.450395E-07 2.3360433E-06 1
vn -1.2559617E-06 3.0407493E-06 1
vn -0 1.7781376E-06 1
vn 3.6333824E-07 3.6333827E-06 1
vn -5.8378106E-07 2.5800673E-06 1
vn 1.2737598E-06 1.6677272E-06 1
vn -2.5594326E-07 2.1796454E-06 1
g FX_MESH_Spin_01_0
f 3/3/3 2/2/2 1/1/1
f 4/4/4 3/3/3 1/1/1
f 4/4/4 1/1/1 5/5/5
f 6/6/6 3/3/3 4/4/4
f 7/7/7 4/4/4 5/5/5
f 7/7/7 6/6/6 4/4/4
f 8/8/8 6/6/6 7/7/7
f 9/9/9 7/7/7 5/5/5
f 10/10/10 8/8/8 7/7/7
f 10/10/10 7/7/7 9/9/9
f 11/11/11 8/8/8 10/10/10
f 12/12/12 10/10/10 9/9/9
f 12/12/12 11/11/11 10/10/10
f 13/13/13 12/12/12 9/9/9
f 14/14/14 11/11/11 12/12/12
f 15/15/15 12/12/12 13/13/13
f 15/15/15 14/14/14 12/12/12
f 16/16/16 14/14/14 15/15/15
f 17/17/17 15/15/15 13/13/13
f 18/18/18 16/16/16 15/15/15
f 18/18/18 15/15/15 17/17/17
f 19/19/19 16/16/16 18/18/18
f 20/20/20 18/18/18 17/17/17
f 20/20/20 19/19/19 18/18/18
f 21/21/21 19/19/19 20/20/20
f 22/22/22 20/20/20 17/17/17
f 23/23/23 21/21/21 20/20/20
f 23/23/23 20/20/20 22/22/22
f 24/24/24 21/21/21 23/23/23
f 25/25/25 23/23/23 22/22/22
f 25/25/25 24/24/24 23/23/23
f 26/26/26 24/24/24 25/25/25
f 27/27/27 25/25/25 22/22/22
f 28/28/28 26/26/26 25/25/25
f 28/28/28 25/25/25 27/27/27
f 29/29/29 26/26/26 28/28/28
f 30/30/30 28/28/28 27/27/27
f 30/30/30 29/29/29 28/28/28
f 31/31/31 30/30/30 27/27/27
f 32/32/32 29/29/29 30/30/30
f 33/33/33 30/30/30 31/31/31
f 33/33/33 32/32/32 30/30/30
f 34/34/34 32/32/32 33/33/33
f 35/35/35 33/33/33 31/31/31
f 36/36/36 34/34/34 33/33/33
f 36/36/36 33/33/33 35/35/35
f 37/37/37 34/34/34 36/36/36
f 38/38/38 36/36/36 35/35/35
f 38/38/38 37/37/37 36/36/36
f 39/39/39 37/37/37 38/38/38
f 40/40/40 38/38/38 35/35/35
f 41/41/41 39/39/39 38/38/38
f 41/41/41 38/38/38 40/40/40
f 42/42/42 39/39/39 41/41/41
f 43/43/43 41/41/41 40/40/40
f 43/43/43 42/42/42 41/41/41
f 44/44/44 42/42/42 43/43/43
f 45/45/45 43/43/43 40/40/40
f 46/46/46 44/44/44 43/43/43
f 46/46/46 43/43/43 45/45/45
f 47/47/47 44/44/44 46/46/46
f 48/48/48 46/46/46 45/45/45
f 48/48/48 47/47/47 46/46/46
f 49/49/49 48/48/48 45/45/45
f 50/50/50 47/47/47 48/48/48
f 51/51/51 48/48/48 49/49/49
f 51/51/51 50/50/50 48/48/48
f 52/52/52 50/50/50 51/51/51
f 53/53/53 51/51/51 49/49/49
f 54/54/54 52/52/52 51/51/51
f 54/54/54 51/51/51 53/53/53
f 55/55/55 52/52/52 54/54/54
f 56/56/56 54/54/54 53/53/53
f 56/56/56 55/55/55 54/54/54
f 57/57/57 56/56/56 53/53/53
f 58/58/58 55/55/55 56/56/56
f 59/59/59 56/56/56 57/57/57
f 59/59/59 58/58/58 56/56/56
f 60/60/60 59/59/59 57/57/57
f 61/61/61 58/58/58 59/59/59
f 62/62/62 59/59/59 60/60/60
f 62/62/62 61/61/61 59/59/59
f 63/63/63 62/62/62 60/60/60
f 64/64/64 61/61/61 62/62/62
f 65/65/65 62/62/62 63/63/63
f 65/65/65 64/64/64 62/62/62
f 66/66/66 65/65/65 63/63/63
f 67/67/67 64/64/64 65/65/65
f 68/68/68 65/65/65 66/66/66
f 68/68/68 67/67/67 65/65/65
f 69/69/69 68/68/68 66/66/66
f 70/70/70 67/67/67 68/68/68
f 71/71/71 68/68/68 69/69/69
f 71/71/71 70/70/70 68/68/68
f 72/72/72 71/71/71 69/69/69
f 73/73/73 70/70/70 71/71/71
f 74/74/74 71/71/71 72/72/72
f 74/74/74 73/73/73 71/71/71
f 75/75/75 74/74/74 72/72/72
f 76/76/76 73/73/73 74/74/74
f 77/77/77 74/74/74 75/75/75
f 77/77/77 76/76/76 74/74/74
f 78/78/78 77/77/77 75/75/75
f 79/79/79 76/76/76 77/77/77
f 80/80/80 77/77/77 78/78/78
f 80/80/80 79/79/79 77/77/77
f 81/81/81 80/80/80 78/78/78
f 82/82/82 79/79/79 80/80/80
f 83/83/83 80/80/80 81/81/81
f 83/83/83 82/82/82 80/80/80
f 84/84/84 83/83/83 81/81/81
f 85/85/85 82/82/82 83/83/83
f 86/86/86 83/83/83 84/84/84
f 86/86/86 85/85/85 83/83/83
f 87/87/87 86/86/86 84/84/84
f 88/88/88 85/85/85 86/86/86
f 89/89/89 86/86/86 87/87/87
f 89/89/89 88/88/88 86/86/86
f 90/90/90 89/89/89 87/87/87
f 91/91/91 88/88/88 89/89/89
f 92/92/92 89/89/89 90/90/90
f 92/92/92 91/91/91 89/89/89
f 93/93/93 92/92/92 90/90/90
f 94/94/94 91/91/91 92/92/92
f 95/95/95 92/92/92 93/93/93
f 95/95/95 94/94/94 92/92/92
f 96/96/96 95/95/95 93/93/93
f 97/97/97 94/94/94 95/95/95
f 98/98/98 95/95/95 96/96/96
f 98/98/98 97/97/97 95/95/95
f 99/99/99 98/98/98 96/96/96
f 100/100/100 97/97/97 98/98/98
f 101/101/101 98/98/98 99/99/99
f 101/101/101 100/100/100 98/98/98
f 102/102/102 101/101/101 99/99/99
f 103/103/103 100/100/100 101/101/101
f 104/104/104 101/101/101 102/102/102
f 104/104/104 103/103/103 101/101/101
f 105/105/105 104/104/104 102/102/102
f 106/106/106 103/103/103 104/104/104
f 107/107/107 104/104/104 105/105/105
f 107/107/107 106/106/106 104/104/104
f 108/108/108 107/107/107 105/105/105
f 109/109/109 106/106/106 107/107/107
f 110/110/110 107/107/107 108/108/108
f 110/110/110 109/109/109 107/107/107
f 111/111/111 110/110/110 108/108/108
f 112/112/112 109/109/109 110/110/110
f 113/113/113 110/110/110 111/111/111
f 113/113/113 112/112/112 110/110/110
f 114/114/114 113/113/113 111/111/111
f 115/115/115 112/112/112 113/113/113
f 116/116/116 113/113/113 114/114/114
f 116/116/116 115/115/115 113/113/113
f 117/117/117 116/116/116 114/114/114
f 118/118/118 115/115/115 116/116/116
f 119/119/119 116/116/116 117/117/117
f 119/119/119 118/118/118 116/116/116
f 120/120/120 119/119/119 117/117/117
f 121/121/121 118/118/118 119/119/119
f 122/122/122 119/119/119 120/120/120
f 122/122/122 121/121/121 119/119/119
f 123/123/123 122/122/122 120/120/120
f 124/124/124 121/121/121 122/122/122
f 125/125/125 122/122/122 123/123/123
f 125/125/125 124/124/124 122/122/122
f 126/126/126 125/125/125 123/123/123
f 127/127/127 124/124/124 125/125/125
f 128/128/128 125/125/125 126/126/126
f 128/128/128 127/127/127 125/125/125
f 129/129/129 128/128/128 126/126/126
f 130/130/130 127/127/127 128/128/128
f 131/131/131 128/128/128 129/129/129
f 131/131/131 130/130/130 128/128/128
f 132/132/132 131/131/131 129/129/129
f 133/133/133 130/130/130 131/131/131
f 134/134/134 131/131/131 132/132/132
f 134/134/134 133/133/133 131/131/131
f 135/135/135 134/134/134 132/132/132
f 136/136/136 133/133/133 134/134/134
f 137/137/137 134/134/134 135/135/135
f 137/137/137 136/136/136 134/134/134
f 138/138/138 137/137/137 135/135/135
f 139/139/139 136/136/136 137/137/137
f 140/140/140 137/137/137 138/138/138
f 140/140/140 139/139/139 137/137/137
f 141/141/141 140/140/140 138/138/138
f 142/142/142 139/139/139 140/140/140
f 143/143/143 140/140/140 141/141/141
f 143/143/143 142/142/142 140/140/140
f 144/144/144 143/143/143 141/141/141
f 145/145/145 142/142/142 143/143/143
f 146/146/146 143/143/143 144/144/144
f 146/146/146 145/145/145 143/143/143
f 147/147/147 146/146/146 144/144/144
f 148/148/148 145/145/145 146/146/146
f 149/149/149 146/146/146 147/147/147
f 149/149/149 148/148/148 146/146/146
f 150/150/150 149/149/149 147/147/147
f 151/151/151 148/148/148 149/149/149
f 152/152/152 149/149/149 150/150/150
f 152/152/152 151/151/151 149/149/149
f 153/153/153 152/152/152 150/150/150
f 154/154/154 151/151/151 152/152/152
f 155/155/155 152/152/152 153/153/153
f 155/155/155 154/154/154 152/152/152
f 156/156/156 155/155/155 153/153/153
f 157/157/157 154/154/154 155/155/155
f 158/158/158 155/155/155 156/156/156
f 158/158/158 157/157/157 155/155/155
f 159/159/159 158/158/158 156/156/156
f 160/160/160 157/157/157 158/158/158
f 161/161/161 158/158/158 159/159/159
f 161/161/161 160/160/160 158/158/158
f 162/162/162 161/161/161 159/159/159
f 163/163/163 160/160/160 161/161/161
f 164/164/164 161/161/161 162/162/162
f 164/164/164 163/163/163 161/161/161
f 165/165/165 164/164/164 162/162/162
f 166/166/166 163/163/163 164/164/164
f 167/167/167 164/164/164 165/165/165
f 167/167/167 166/166/166 164/164/164
f 168/168/168 167/167/167 165/165/165
f 169/169/169 166/166/166 167/167/167
f 170/170/170 167/167/167 168/168/168
f 170/170/170 169/169/169 167/167/167
f 171/171/171 170/170/170 168/168/168
f 172/172/172 169/169/169 170/170/170
f 173/173/173 170/170/170 171/171/171
f 173/173/173 172/172/172 170/170/170
f 174/174/174 173/173/173 171/171/171
f 175/175/175 172/172/172 173/173/173
f 176/176/176 173/173/173 174/174/174
f 176/176/176 175/175/175 173/173/173
f 177/177/177 176/176/176 174/174/174
f 178/178/178 175/175/175 176/176/176
f 179/179/179 176/176/176 177/177/177
f 179/179/179 178/178/178 176/176/176
f 180/180/180 179/179/179 177/177/177
f 181/181/181 178/178/178 179/179/179
f 182/182/182 179/179/179 180/180/180
f 182/182/182 181/181/181 179/179/179
f 183/183/183 182/182/182 180/180/180
f 184/184/184 181/181/181 182/182/182
f 185/185/185 182/182/182 183/183/183
f 185/185/185 184/184/184 182/182/182
f 186/186/186 185/185/185 183/183/183
f 187/187/187 184/184/184 185/185/185
f 188/188/188 185/185/185 186/186/186
f 188/188/188 187/187/187 185/185/185
f 189/189/189 188/188/188 186/186/186
f 190/190/190 187/187/187 188/188/188
f 191/191/191 188/188/188 189/189/189
f 191/191/191 190/190/190 188/188/188
f 192/192/192 191/191/191 189/189/189
f 193/193/193 190/190/190 191/191/191
f 194/194/194 191/191/191 192/192/192
f 194/194/194 193/193/193 191/191/191
f 195/195/195 194/194/194 192/192/192
f 196/196/196 193/193/193 194/194/194
f 197/197/197 194/194/194 195/195/195
f 197/197/197 196/196/196 194/194/194
f 198/198/198 197/197/197 195/195/195
f 199/199/199 196/196/196 197/197/197
f 200/200/200 197/197/197 198/198/198
f 200/200/200 199/199/199 197/197/197
f 201/201/201 200/200/200 198/198/198
f 202/202/202 199/199/199 200/200/200
f 203/203/203 200/200/200 201/201/201
f 203/203/203 202/202/202 200/200/200
f 204/204/204 203/203/203 201/201/201
f 205/205/205 202/202/202 203/203/203
f 206/206/206 203/203/203 204/204/204
f 206/206/206 205/205/205 203/203/203
f 207/207/207 206/206/206 204/204/204
f 206/206/206 207/207/207 208/208/208
f 205/205/205 206/206/206 209/209/209
f 209/209/209 206/206/206 208/208/208
f 210/210/210 205/205/205 209/209/209
f 210/210/210 209/209/209 211/211/211
f 209/209/209 208/208/208 212/212/212
f 209/209/209 212/212/212 211/211/211
f 208/208/208 213/213/213 212/212/212
f 212/212/212 213/213/213 214/214/214
f 211/211/211 212/212/212 215/215/215
f 215/215/215 212/212/212 214/214/214
f 216/216/216 211/211/211 215/215/215
f 216/216/216 215/215/215 217/217/217
f 215/215/215 214/214/214 218/218/218
f 215/215/215 218/218/218 217/217/217
f 214/214/214 219/219/219 218/218/218
f 218/218/218 219/219/219 220/220/220
f 217/217/217 218/218/218 221/221/221
f 221/221/221 218/218/218 220/220/220
f 222/222/222 217/217/217 221/221/221
f 222/222/222 221/221/221 223/223/223
f 221/221/221 220/220/220 224/224/224
f 221/221/221 224/224/224 223/223/223
f 220/220/220 225/225/225 224/224/224
f 226/226/226 223/223/223 224/224/224
f 227/227/227 224/224/224 225/225/225
f 227/227/227 226/226/226 224/224/224
f 226/226/226 227/227/227 228/228/228
f 225/225/225 229/229/229 227/227/227
f 227/227/227 230/230/230 228/228/228
f 229/229/229 230/230/230 227/227/227
f 231/231/231 228/228/228 230/230/230
f 231/231/231 230/230/230 232/232/232
f 230/230/230 229/229/229 233/233/233
f 230/230/230 233/233/233 232/232/232
f 229/229/229 234/234/234 233/233/233
f 234/234/234 235/235/235 233/233/233
f 233/233/233 236/236/236 232/232/232
f 235/235/235 236/236/236 233/233/233
f 236/236/236 237/237/237 232/232/232
f 235/235/235 238/238/238 236/236/236
f 237/237/237 236/236/236 239/239/239
f 238/238/238 240/240/240 236/236/236
f 236/236/236 240/240/240 239/239/239
f 239/239/239 240/240/240 241/241/241
f 240/240/240 238/238/238 242/242/242
f 240/240/240 243/243/243 241/241/241
f 243/243/243 240/240/240 242/242/242
f 241/241/241 243/243/243 244/244/244
f 243/243/243 245/245/245 244/244/244
f 243/243/243 242/242/242 245/245/245
f 244/244/244 245/245/245 246/246/246
f 245/245/245 242/242/242 247/247/247
f 245/245/245 247/247/247 246/246/246
f 242/242/242 248/248/248 247/247/247
f 246/246/246 247/247/247 249/249/249
f 248/248/248 250/250/250 247/247/247
f 247/247/247 250/250/250 249/249/249
f 250/250/250 248/248/248 251/251/251
f 249/249/249 250/250/250 252/252/252
f 252/252/252 250/250/250 251/251/251
f 253/253/253 249/249/249 252/252/252
f 253/253/253 252/252/252 254/254/254
f 252/252/252 255/255/255 254/254/254
f 252/252/252 251/251/251 255/255/255
f 254/254/254 255/255/255 256/256/256
f 255/255/255 257/257/257 256/256/256
f 255/255/255 251/251/251 257/257/257
f 256/256/256 257/257/257 258/258/258
f 257/257/257 251/251/251 259/259/259
f 257/257/257 259/259/259 258/258/258
f 260/260/260 259/259/259 251/251/251
f 258/258/258 259/259/259 260/260/260
f 261/261/261 258/258/258 260/260/260
f 264/264/264 263/263/263 262/262/262
f 265/265/265 264/264/264 262/262/262
f 265/265/265 262/262/262 266/266/266
f 267/267/267 264/264/264 265/265/265
f 268/268/268 265/265/265 266/266/266
f 268/268/268 267/267/267 265/265/265
f 269/269/269 267/267/267 268/268/268
f 270/270/270 268/268/268 266/266/266
f 271/271/271 269/269/269 268/268/268
f 271/271/271 268/268/268 270/270/270
f 272/272/272 269/269/269 271/271/271
f 273/273/273 271/271/271 270/270/270
f 273/273/273 272/272/272 271/271/271
f 274/274/274 273/273/273 270/270/270
f 275/275/275 272/272/272 273/273/273
f 276/276/276 273/273/273 274/274/274
f 276/276/276 275/275/275 273/273/273
f 277/277/277 275/275/275 276/276/276
f 278/278/278 276/276/276 274/274/274
f 279/279/279 277/277/277 276/276/276
f 279/279/279 276/276/276 278/278/278
f 280/280/280 277/277/277 279/279/279
f 281/281/281 279/279/279 278/278/278
f 281/281/281 280/280/280 279/279/279
f 282/282/282 280/280/280 281/281/281
f 283/283/283 281/281/281 278/278/278
f 284/284/284 282/282/282 281/281/281
f 284/284/284 281/281/281 283/283/283
f 285/285/285 282/282/282 284/284/284
f 286/286/286 284/284/284 283/283/283
f 286/286/286 285/285/285 284/284/284
f 287/287/287 285/285/285 286/286/286
f 288/288/288 286/286/286 283/283/283
f 289/289/289 287/287/287 286/286/286
f 289/289/289 286/286/286 288/288/288
f 290/290/290 287/287/287 289/289/289
f 291/291/291 289/289/289 288/288/288
f 291/291/291 290/290/290 289/289/289
f 292/292/292 291/291/291 288/288/288
f 293/293/293 290/290/290 291/291/291
f 294/294/294 291/291/291 292/292/292
f 294/294/294 293/293/293 291/291/291
f 295/295/295 293/293/293 294/294/294
f 296/296/296 294/294/294 292/292/292
f 297/297/297 295/295/295 294/294/294
f 297/297/297 294/294/294 296/296/296
f 298/298/298 295/295/295 297/297/297
f 299/299/299 297/297/297 296/296/296
f 299/299/299 298/298/298 297/297/297
f 300/300/300 298/298/298 299/299/299
f 301/301/301 299/299/299 296/296/296
f 302/302/302 300/300/300 299/299/299
f 302/302/302 299/299/299 301/301/301
f 303/303/303 300/300/300 302/302/302
f 304/304/304 302/302/302 301/301/301
f 304/304/304 303/303/303 302/302/302
f 305/305/305 303/303/303 304/304/304
f 306/306/306 304/304/304 301/301/301
f 307/307/307 305/305/305 304/304/304
f 307/307/307 304/304/304 306/306/306
f 308/308/308 305/305/305 307/307/307
f 309/309/309 307/307/307 306/306/306
f 309/309/309 308/308/308 307/307/307
f 310/310/310 309/309/309 306/306/306
f 311/311/311 308/308/308 309/309/309
f 312/312/312 309/309/309 310/310/310
f 312/312/312 311/311/311 309/309/309
f 313/313/313 311/311/311 312/312/312
f 314/314/314 312/312/312 310/310/310
f 315/315/315 313/313/313 312/312/312
f 315/315/315 312/312/312 314/314/314
f 316/316/316 313/313/313 315/315/315
f 317/317/317 315/315/315 314/314/314
f 317/317/317 316/316/316 315/315/315
f 318/318/318 317/317/317 314/314/314
f 319/319/319 316/316/316 317/317/317
f 320/320/320 317/317/317 318/318/318
f 320/320/320 319/319/319 317/317/317
f 321/321/321 320/320/320 318/318/318
f 322/322/322 319/319/319 320/320/320
f 323/323/323 320/320/320 321/321/321
f 323/323/323 322/322/322 320/320/320
f 324/324/324 323/323/323 321/321/321
f 325/325/325 322/322/322 323/323/323
f 326/326/326 323/323/323 324/324/324
f 326/326/326 325/325/325 323/323/323
f 327/327/327 326/326/326 324/324/324
f 328/328/328 325/325/325 326/326/326
f 329/329/329 326/326/326 327/327/327
f 329/329/329 328/328/328 326/326/326
f 330/330/330 329/329/329 327/327/327
f 331/331/331 328/328/328 329/329/329
f 332/332/332 329/329/329 330/330/330
f 332/332/332 331/331/331 329/329/329
f 333/333/333 332/332/332 330/330/330
f 334/334/334 331/331/331 332/332/332
f 335/335/335 332/332/332 333/333/333
f 335/335/335 334/334/334 332/332/332
f 336/336/336 335/335/335 333/333/333
f 337/337/337 334/334/334 335/335/335
f 338/338/338 335/335/335 336/336/336
f 338/338/338 337/337/337 335/335/335
f 339/339/339 338/338/338 336/336/336
f 340/340/340 337/337/337 338/338/338
f 341/341/341 338/338/338 339/339/339
f 341/341/341 340/340/340 338/338/338
f 342/342/342 341/341/341 339/339/339
f 343/343/343 340/340/340 341/341/341
f 344/344/344 341/341/341 342/342/342
f 344/344/344 343/343/343 341/341/341
f 345/345/345 344/344/344 342/342/342
f 346/346/346 343/343/343 344/344/344
f 347/347/347 344/344/344 345/345/345
f 347/347/347 346/346/346 344/344/344
f 348/348/348 347/347/347 345/345/345
f 349/349/349 346/346/346 347/347/347
f 350/350/350 347/347/347 348/348/348
f 350/350/350 349/349/349 347/347/347
f 351/351/351 350/350/350 348/348/348
f 352/352/352 349/349/349 350/350/350
f 353/353/353 350/350/350 351/351/351
f 353/353/353 352/352/352 350/350/350
f 354/354/354 353/353/353 351/351/351
f 355/355/355 352/352/352 353/353/353
f 356/356/356 353/353/353 354/354/354
f 356/356/356 355/355/355 353/353/353
f 357/357/357 356/356/356 354/354/354
f 358/358/358 355/355/355 356/356/356
f 359/359/359 356/356/356 357/357/357
f 359/359/359 358/358/358 356/356/356
f 360/360/360 359/359/359 357/357/357
f 361/361/361 358/358/358 359/359/359
f 362/362/362 359/359/359 360/360/360
f 362/362/362 361/361/361 359/359/359
f 363/363/363 362/362/362 360/360/360
f 364/364/364 361/361/361 362/362/362
f 365/365/365 362/362/362 363/363/363
f 365/365/365 364/364/364 362/362/362
f 366/366/366 365/365/365 363/363/363
f 367/367/367 364/364/364 365/365/365
f 368/368/368 365/365/365 366/366/366
f 368/368/368 367/367/367 365/365/365
f 369/369/369 368/368/368 366/366/366
f 370/370/370 367/367/367 368/368/368
f 371/371/371 368/368/368 369/369/369
f 371/371/371 370/370/370 368/368/368
f 372/372/372 371/371/371 369/369/369
f 373/373/373 370/370/370 371/371/371
f 374/374/374 371/371/371 372/372/372
f 374/374/374 373/373/373 371/371/371
f 375/375/375 374/374/374 372/372/372
f 376/376/376 373/373/373 374/374/374
f 377/377/377 374/374/374 375/375/375
f 377/377/377 376/376/376 374/374/374
f 378/378/378 377/377/377 375/375/375
f 379/379/379 376/376/376 377/377/377
f 380/380/380 377/377/377 378/378/378
f 380/380/380 379/379/379 377/377/377
f 381/381/381 380/380/380 378/378/378
f 382/382/382 379/379/379 380/380/380
f 383/383/383 380/380/380 381/381/381
f 383/383/383 382/382/382 380/380/380
f 384/384/384 383/383/383 381/381/381
f 385/385/385 382/382/382 383/383/383
f 386/386/386 383/383/383 384/384/384
f 386/386/386 385/385/385 383/383/383
f 387/387/387 386/386/386 384/384/384
f 388/388/388 385/385/385 386/386/386
f 389/389/389 386/386/386 387/387/387
f 389/389/389 388/388/388 386/386/386
f 390/390/390 389/389/389 387/387/387
f 391/391/391 388/388/388 389/389/389
f 392/392/392 389/389/389 390/390/390
f 392/392/392 391/391/391 389/389/389
f 393/393/393 392/392/392 390/390/390
f 394/394/394 391/391/391 392/392/392
f 395/395/395 392/392/392 393/393/393
f 395/395/395 394/394/394 392/392/392
f 396/396/396 395/395/395 393/393/393
f 397/397/397 394/394/394 395/395/395
f 398/398/398 395/395/395 396/396/396
f 398/398/398 397/397/397 395/395/395
f 399/399/399 398/398/398 396/396/396
f 400/400/400 397/397/397 398/398/398
f 401/401/401 398/398/398 399/399/399
f 401/401/401 400/400/400 398/398/398
f 402/402/402 401/401/401 399/399/399
f 403/403/403 400/400/400 401/401/401
f 404/404/404 401/401/401 402/402/402
f 404/404/404 403/403/403 401/401/401
f 405/405/405 404/404/404 402/402/402
f 406/406/406 403/403/403 404/404/404
f 407/407/407 404/404/404 405/405/405
f 407/407/407 406/406/406 404/404/404
f 408/408/408 407/407/407 405/405/405
f 409/409/409 406/406/406 407/407/407
f 410/410/410 407/407/407 408/408/408
f 410/410/410 409/409/409 407/407/407
f 411/411/411 410/410/410 408/408/408
f 412/412/412 409/409/409 410/410/410
f 413/413/413 410/410/410 411/411/411
f 413/413/413 412/412/412 410/410/410
f 414/414/414 413/413/413 411/411/411
f 415/415/415 412/412/412 413/413/413
f 416/416/416 413/413/413 414/414/414
f 416/416/416 415/415/415 413/413/413
f 417/417/417 416/416/416 414/414/414
f 418/418/418 415/415/415 416/416/416
f 419/419/419 416/416/416 417/417/417
f 419/419/419 418/418/418 416/416/416
f 420/420/420 419/419/419 417/417/417
f 421/421/421 418/418/418 419/419/419
f 422/422/422 419/419/419 420/420/420
f 422/422/422 421/421/421 419/419/419
f 423/423/423 422/422/422 420/420/420
f 424/424/424 421/421/421 422/422/422
f 425/425/425 422/422/422 423/423/423
f 425/425/425 424/424/424 422/422/422
f 426/426/426 425/425/425 423/423/423
f 427/427/427 424/424/424 425/425/425
f 428/428/428 425/425/425 426/426/426
f 428/428/428 427/427/427 425/425/425
f 429/429/429 428/428/428 426/426/426
f 430/430/430 427/427/427 428/428/428
f 431/431/431 428/428/428 429/429/429
f 431/431/431 430/430/430 428/428/428
f 432/432/432 431/431/431 429/429/429
f 433/433/433 430/430/430 431/431/431
f 434/434/434 431/431/431 432/432/432
f 434/434/434 433/433/433 431/431/431
f 435/435/435 434/434/434 432/432/432
f 436/436/436 433/433/433 434/434/434
f 437/437/437 434/434/434 435/435/435
f 437/437/437 436/436/436 434/434/434
f 438/438/438 437/437/437 435/435/435
f 439/439/439 436/436/436 437/437/437
f 440/440/440 437/437/437 438/438/438
f 440/440/440 439/439/439 437/437/437
f 441/441/441 440/440/440 438/438/438
f 442/442/442 439/439/439 440/440/440
f 443/443/443 440/440/440 441/441/441
f 443/443/443 442/442/442 440/440/440
f 444/444/444 443/443/443 441/441/441
f 445/445/445 442/442/442 443/443/443
f 446/446/446 443/443/443 444/444/444
f 446/446/446 445/445/445 443/443/443
f 447/447/447 446/446/446 444/444/444
f 448/448/448 445/445/445 446/446/446
f 449/449/449 446/446/446 447/447/447
f 449/449/449 448/448/448 446/446/446
f 450/450/450 449/449/449 447/447/447
f 451/451/451 448/448/448 449/449/449
f 452/452/452 449/449/449 450/450/450
f 452/452/452 451/451/451 449/449/449
f 453/453/453 452/452/452 450/450/450
f 454/454/454 451/451/451 452/452/452
f 455/455/455 452/452/452 453/453/453
f 455/455/455 454/454/454 452/452/452
f 456/456/456 455/455/455 453/453/453
f 457/457/457 454/454/454 455/455/455
f 458/458/458 455/455/455 456/456/456
f 458/458/458 457/457/457 455/455/455
f 459/459/459 458/458/458 456/456/456
f 460/460/460 457/457/457 458/458/458
f 461/461/461 458/458/458 459/459/459
f 461/461/461 460/460/460 458/458/458
f 462/462/462 461/461/461 459/459/459
f 463/463/463 460/460/460 461/461/461
f 464/464/464 461/461/461 462/462/462
f 464/464/464 463/463/463 461/461/461
f 465/465/465 464/464/464 462/462/462
f 466/466/466 463/463/463 464/464/464
f 467/467/467 464/464/464 465/465/465
f 467/467/467 466/466/466 464/464/464
f 468/468/468 467/467/467 465/465/465
f 467/467/467 468/468/468 469/469/469
f 466/466/466 467/467/467 470/470/470
f 470/470/470 467/467/467 469/469/469
f 471/471/471 466/466/466 470/470/470
f 471/471/471 470/470/470 472/472/472
f 470/470/470 469/469/469 473/473/473
f 470/470/470 473/473/473 472/472/472
f 469/469/469 474/474/474 473/473/473
f 473/473/473 474/474/474 475/475/475
f 472/472/472 473/473/473 476/476/476
f 476/476/476 473/473/473 475/475/475
f 477/477/477 472/472/472 476/476/476
f 477/477/477 476/476/476 478/478/478
f 476/476/476 475/475/475 479/479/479
f 476/476/476 479/479/479 478/478/478
f 475/475/475 480/480/480 479/479/479
f 479/479/479 480/480/480 481/481/481
f 478/478/478 479/479/479 482/482/482
f 482/482/482 479/479/479 481/481/481
f 483/483/483 478/478/478 482/482/482
f 483/483/483 482/482/482 484/484/484
f 482/482/482 481/481/481 485/485/485
f 482/482/482 485/485/485 484/484/484
f 481/481/481 486/486/486 485/485/485
f 487/487/487 484/484/484 485/485/485
f 488/488/488 485/485/485 486/486/486
f 488/488/488 487/487/487 485/485/485
f 487/487/487 488/488/488 489/489/489
f 486/486/486 490/490/490 488/488/488
f 488/488/488 491/491/491 489/489/489
f 490/490/490 491/491/491 488/488/488
f 492/492/492 489/489/489 491/491/491
f 492/492/492 491/491/491 493/493/493
f 491/491/491 490/490/490 494/494/494
f 491/491/491 494/494/494 493/493/493
f 490/490/490 495/495/495 494/494/494
f 495/495/495 496/496/496 494/494/494
f 494/494/494 497/497/497 493/493/493
f 496/496/496 497/497/497 494/494/494
f 497/497/497 498/498/498 493/493/493
f 496/496/496 499/499/499 497/497/497
f 498/498/498 497/497/497 500/500/500
f 499/499/499 501/501/501 497/497/497
f 497/497/497 501/501/501 500/500/500
f 500/500/500 501/501/501 502/502/502
f 501/501/501 499/499/499 503/503/503
f 501/501/501 504/504/504 502/502/502
f 504/504/504 501/501/501 503/503/503
f 502/502/502 504/504/504 505/505/505
f 504/504/504 506/506/506 505/505/505
f 504/504/504 503/503/503 506/506/506
f 505/505/505 506/506/506 507/507/507
f 506/506/506 503/503/503 508/508/508
f 506/506/506 508/508/508 507/507/507
f 503/503/503 509/509/509 508/508/508
f 507/507/507 508/508/508 510/510/510
f 509/509/509 511/511/511 508/508/508
f 508/508/508 511/511/511 510/510/510
f 511/511/511 509/509/509 512/512/512
f 510/510/510 511/511/511 513/513/513
f 513/513/513 511/511/511 512/512/512
f 514/514/514 510/510/510 513/513/513
f 514/514/514 513/513/513 515/515/515
f 513/513/513 516/516/516 515/515/515
f 513/513/513 512/512/512 516/516/516
f 515/515/515 516/516/516 517/517/517
f 516/516/516 518/518/518 517/517/517
f 516/516/516 512/512/512 518/518/518
f 517/517/517 518/518/518 519/519/519
f 518/518/518 512/512/512 520/520/520
f 518/518/518 520/520/520 519/519/519
f 521/521/521 520/520/520 512/512/512
f 519/519/519 520/520/520 521/521/521
f 522/522/522 519/519/519 521/521/521
