g FX_Mesh_Sphere_UV_01
v -0 0.09130825 0.01536747
v -2.7916007E-09 0.0004482609 0.016671466
v -9.9752244E-05 0.00043701648 0.01667139
v -0.020317916 0.08901882 0.01536747
v -0.0001944907 0.0004038721 0.016671505
v -3.8146972E-08 0.1661774 0.013573532
v -0.039617196 0.082265735 0.01536747
v -0.00027948647 0.0003504631 0.016671428
v -0.036977958 0.16201103 0.013573532
v -0.05692974 0.07138767 0.015367508
v -0.00035046873 0.00027948112 0.01667139
v -0.05312397 0.23275141 0.012161217
v 3.8146972E-08 0.23873694 0.012161255
v -0.072101705 0.14972056 0.013573532
v -0.07138752 0.05692978 0.015367508
v -0.00040386379 0.00019449636 0.016671505
v -0.103584155 0.21509457 0.012161255
v -0.066534616 0.29150704 0.007268791
v -7.6293944E-08 0.29900366 0.0072688293
v -0.103609905 0.12992282 0.013573532
v -0.08226576 0.039617043 0.015367508
v -0.00043701945 9.974941E-05 0.016671505
v -0.14885016 0.18665211 0.012161255
v -0.12973295 0.26939315 0.0072688675
v -0.07646673 0.33502257 -0.0011178398
v -7.6293944E-08 0.34363815 -0.0011178779
v -0.12992276 0.103609845 0.013573532
v -0.08901876 0.020318069 0.015367508
v -0.0004482585 0 0.016671505
v -0.08192953 0.35895652 -0.016671456
v -7.6293944E-08 0.3681878 -0.016671572
v -0.15975069 0.33172593 -0.016671551
v -0.14909902 0.3096073 -0.0011178398
v -0.22956142 0.28786072 -0.016671456
v -0.21425496 0.26866713 -0.0011178398
v -0.28786087 0.22956112 -0.016671496
v -0.18642585 0.23377074 0.007268791
v -0.26866722 0.21425502 -0.0011178016
v -0.33172578 0.1597507 -0.016671533
v -0.23377067 0.18642578 0.0072688293
v -0.30960736 0.14909889 -0.0011178398
v -0.35895655 0.08192928 -0.016671496
v -0.18665206 0.1488501 0.012161255
v -0.26939318 0.1297327 0.007268791
v -0.3350225 0.0764666 -0.0011178398
v -0.3681878 -1.9073485E-07 -0.016671514
v -0.2150946 0.103583984 0.012161217
v -0.29150724 0.066534616 0.0072688675
v -0.34363818 -2.670288E-07 -0.0011178779
v -0.3589565 -0.08192968 -0.016671438
v -0.14972064 0.07210174 0.01357357
v -0.23275127 0.05312397 0.012161217
v -0.2990038 -1.14440915E-07 0.0072689056
v -0.3350224 -0.07646692 -0.0011178398
v -0.33172557 -0.15975079 -0.016671477
v -0.16201103 0.036977805 0.01357357
v -0.23873691 -7.6293944E-08 0.012161217
v -0.29150718 -0.06653473 0.0072688293
v -0.3096072 -0.14909923 -0.0011178016
v -0.2878606 -0.22956157 -0.016671533
v -0.091308095 0 0.015367393
v -0.00043702484 -9.974941E-05 0.016671505
v -0.16617742 -1.14440915E-07 0.013573532
v -0.08901882 -0.020317916 0.015367432
v -0.00040386379 -0.00019448518 0.016671581
v -0.23275124 -0.05312416 0.012161217
v -0.2693931 -0.12973312 0.0072688293
v -0.26866698 -0.21425514 -0.0011178398
v -0.22956112 -0.287861 -0.016671533
v -0.08226576 -0.039617196 0.015367432
v -0.00035047144 -0.00027949215 0.016671352
v -0.16201095 -0.036978073 0.01357357
v -0.21509449 -0.10358423 0.0121611785
v -0.23377044 -0.186426 0.0072688293
v -0.21425472 -0.26866728 -0.0011178779
v -0.15975033 -0.33172587 -0.016671551
v -0.07138752 -0.0569297 0.01536747
v -0.00027948944 -0.00035046873 0.016671428
v -0.14972064 -0.072101824 0.013573532
v -0.18665195 -0.14885017 0.012161255
v -0.18642572 -0.23377074 0.007268791
v -0.14909877 -0.30960745 -0.0011177635
v -0.08192921 -0.35895663 -0.016671551
v -0.056929663 -0.07138754 0.01536747
v -0.00019448802 -0.00040386379 0.016671581
v -0.12992261 -0.10360994 0.013573532
v -0.14884992 -0.18665215 0.012161217
v -0.12973271 -0.2693933 0.0072688293
v -0.07646639 -0.3350225 -0.0011178398
v 4.5776366E-07 -0.3681878 -0.016671496
v -0.039617043 -0.08226578 0.01536747
v -9.974658E-05 -0.00043702245 0.016671505
v -0.103609785 -0.12992273 0.013573494
v -0.10358383 -0.21509464 0.012161255
v -0.06653442 -0.29150727 0.0072688293
v 2.670288E-07 -0.34363818 -0.0011178398
v 0.081929736 -0.3589565 -0.016671496
v -0.020317916 -0.08901886 0.015367432
v -2.7916007E-09 -0.0004482585 0.016671505
v -0.07210152 -0.14972068 0.013573532
v -0.053123817 -0.23275134 0.0121611785
v 3.0517577E-07 -0.29900384 0.0072688675
v 0.07646694 -0.3350224 -0.0011178398
v 0.15975101 -0.33172557 -0.016671477
v 1.5258789E-07 -0.09130808 0.015367508
v 9.974941E-05 -0.00043701945 0.016671505
v -0.036977842 -0.162011 0.013573532
v 2.2888183E-07 -0.23873691 0.012161255
v 0.06653503 -0.29150712 0.0072688293
v 0.14909942 -0.30960715 -0.0011178016
v 0.22956157 -0.2878605 -0.016671514
v 0.020318184 -0.08901876 0.015367546
v 0.00019449636 -0.00040386379 0.016671542
v 1.9073485E-07 -0.16617736 0.013573532
v 0.053124122 -0.23275124 0.012161217
v 0.12973323 -0.26939303 0.0072688293
v 0.21425517 -0.26866692 -0.0011179161
v 0.28786108 -0.22956096 -0.016671533
v 0.03961735 -0.08226566 0.015367584
v 0.00027948112 -0.00035046577 0.01667139
v 0.036978185 -0.16201082 0.01357357
v 0.1035844 -0.2150944 0.012161255
v 0.18642616 -0.2337704 0.0072688675
v 0.26866737 -0.21425456 -0.0011178779
v 0.33172598 -0.1597502 -0.016671496
v 0.05692974 -0.07138734 0.015367508
v 0.00035046873 -0.00027948647 0.016671428
v 0.07210186 -0.14972052 0.013573532
v 0.1488502 -0.18665184 0.0121611785
v 0.23377098 -0.1864255 0.0072688293
v 0.30960745 -0.14909859 -0.0011179161
v 0.35895666 -0.08192892 -0.016671496
v 0.0713876 -0.056929547 0.015367508
v 0.0004038721 -0.00019448802 0.016671505
v 0.103610076 -0.12992252 0.013573532
v 0.18665218 -0.14884979 0.0121611785
v 0.26939344 -0.12973249 0.0072688293
v 0.33502257 -0.07646616 -0.0011178398
v 0.3681878 6.1035155E-07 -0.016671496
v 0.082265735 -0.039617002 0.015367432
v 0.00043701945 -9.974941E-05 0.016671428
v 0.12992287 -0.103609696 0.013573494
v 0.21509472 -0.10358375 0.012161255
v 0.29150742 -0.06653421 0.0072688293
v 0.34363815 5.340576E-07 -0.0011178398
v 0.35895646 0.08193012 -0.016671477
v 0.089019045 -0.020317726 0.015367508
v 0.0004482609 -2.7916007E-09 0.016671466
v 0.14972088 -0.072101384 0.01357357
v 0.23275138 -0.053123586 0.012161217
v 0.2990038 4.959106E-07 0.0072688293
v 0.33502227 0.076467246 -0.0011178398
v 0.33172545 0.15975128 -0.016671496
v 0.091308095 2.2888183E-07 0.01536747
v 0.00043701945 9.974941E-05 0.016671466
v 0.1620111 -0.03697773 0.013573532
v 0.23873699 4.196167E-07 0.012161293
v 0.2915071 0.066535145 0.0072688293
v 0.309607 0.14909957 -0.0011178398
v 0.2878604 0.22956195 -0.016671496
v 0.08901882 0.020318145 0.01536747
v 0.00040386617 0.00019449352 0.016671505
v 0.16617733 3.0517577E-07 0.013573532
v 0.23275119 0.053124387 0.012161217
v 0.269393 0.12973338 0.0072688293
v 0.26866674 0.21425533 -0.0011178398
v 0.2295608 0.28786117 -0.016671477
v 0.082265586 0.03961727 0.01536747
v 0.0003504604 0.00027948112 0.016671428
v 0.16201091 0.036978226 0.013573494
v 0.2150944 0.10358451 0.012161255
v 0.23377033 0.18642636 0.0072688293
v 0.21425438 0.2686676 -0.0011178398
v 0.15975009 0.33172613 -0.016671496
v 0.0713874 0.056929853 0.015367508
v 0.00027948647 0.00035046577 0.01667139
v 0.14972049 0.072101936 0.013573494
v 0.1866518 0.14885044 0.012161255
v 0.18642548 0.23377106 0.0072688293
v 0.14909843 0.30960768 -0.0011178016
v 0.08192867 0.35895666 -0.016671533
v 0.056929547 0.07138763 0.015367508
v 0.0001944907 0.00040386617 0.016671505
v 0.1299226 0.10361019 0.013573532
v 0.14884971 0.18665233 0.012161217
v 0.12973228 0.26939338 0.0072688293
v 0.076466024 0.33502266 -0.0011178016
v -7.6293944E-08 0.3681878 -0.016671572
v -7.6293944E-08 0.34363815 -0.0011178779
v 0.066534005 0.29150724 0.0072688675
v -7.6293944E-08 0.29900366 0.0072688293
v 0.039616965 0.08226582 0.015367546
v 9.974658E-05 0.00043701945 0.016671466
v 0.10360958 0.1299229 0.013573494
v 0.10358364 0.21509483 0.012161217
v 0.05312351 0.2327515 0.012161293
v 3.8146972E-08 0.23873694 0.012161255
v 0.072101325 0.14972073 0.013573494
v 0.020317802 0.08901897 0.015367508
v -2.7916007E-09 0.0004482609 0.016671466
v -0 0.09130825 0.01536747
v 0.036977615 0.1620111 0.013573494
v -3.8146972E-08 0.1661774 0.013573532
vt 0.1331912 0.99950004
vt 0.0005 0.99950004
vt 0.0005 0.9637846
vt 0.1331912 0.9637846
vt 0.0005 0.9280693
vt 0.23379621 0.99950004
vt 0.1331912 0.9280693
vt 0.0005 0.8923539
vt 0.23379621 0.9637846
vt 0.1331912 0.8923539
vt 0.0005 0.85663855
vt 0.3440953 0.9637846
vt 0.3440953 0.99950004
vt 0.23379621 0.9280693
vt 0.1331912 0.85663855
vt 0.0005 0.8209231
vt 0.3440953 0.9280693
vt 0.45439425 0.9637846
vt 0.45439425 0.99950004
vt 0.23379621 0.8923539
vt 0.13319126 0.8209231
vt 0.0005 0.78520775
vt 0.3440953 0.8923539
vt 0.45439425 0.9280693
vt 0.5646932 0.9637846
vt 0.5646932 0.99950004
vt 0.23379621 0.85663855
vt 0.13319126 0.78520775
vt 0.0005 0.7494924
vt 0.6749922 0.9637846
vt 0.6749922 0.99950004
vt 0.6749922 0.9280693
vt 0.5646932 0.9280693
vt 0.6749922 0.8923539
vt 0.5646932 0.8923539
vt 0.6749922 0.85663855
vt 0.45439425 0.8923539
vt 0.5646932 0.85663855
vt 0.6749922 0.8209232
vt 0.45439425 0.85663855
vt 0.5646932 0.8209232
vt 0.6749922 0.7852078
vt 0.3440953 0.85663855
vt 0.45439425 0.8209232
vt 0.5646932 0.7852078
vt 0.6749922 0.74949247
vt 0.3440953 0.8209232
vt 0.45439425 0.7852078
vt 0.5646932 0.74949247
vt 0.6749922 0.71377707
vt 0.23379633 0.8209231
vt 0.3440953 0.7852078
vt 0.45439425 0.74949247
vt 0.5646932 0.71377707
vt 0.6749922 0.6780617
vt 0.23379633 0.78520775
vt 0.3440953 0.74949247
vt 0.45439425 0.71377707
vt 0.5646932 0.6780617
vt 0.6749922 0.6423464
vt 0.13319126 0.7494924
vt 0.0005 0.71377707
vt 0.23379633 0.7494924
vt 0.13319126 0.71377707
vt 0.0005 0.6780617
vt 0.3440953 0.71377707
vt 0.45439425 0.6780617
vt 0.5646932 0.6423464
vt 0.6749922 0.60663104
vt 0.13319126 0.6780617
vt 0.0005 0.6423464
vt 0.23379633 0.71377707
vt 0.3440953 0.6780617
vt 0.45439425 0.6423464
vt 0.5646932 0.60663104
vt 0.6749922 0.5709156
vt 0.13319126 0.6423464
vt 0.0005 0.60663104
vt 0.23379633 0.6780617
vt 0.3440953 0.6423464
vt 0.45439425 0.60663104
vt 0.5646932 0.5709156
vt 0.6749922 0.5352002
vt 0.13319126 0.60663104
vt 0.0005 0.5709156
vt 0.23379633 0.6423464
vt 0.3440953 0.60663104
vt 0.45439425 0.5709156
vt 0.5646932 0.5352002
vt 0.6749922 0.4994847
vt 0.13319126 0.5709156
vt 0.0005 0.5352002
vt 0.23379633 0.60663104
vt 0.3440953 0.5709156
vt 0.45439425 0.5352002
vt 0.5646932 0.4994847
vt 0.6749923 0.46376944
vt 0.13319126 0.5352002
vt 0.0005 0.4994848
vt 0.23379633 0.5709156
vt 0.3440953 0.5352002
vt 0.45439425 0.4994848
vt 0.5646932 0.46376944
vt 0.6749923 0.42805403
vt 0.13319126 0.4994848
vt 0.0005 0.46376944
vt 0.23379633 0.5352002
vt 0.3440953 0.4994848
vt 0.45439425 0.46376944
vt 0.5646932 0.42805403
vt 0.6749923 0.3923387
vt 0.13319126 0.46376944
vt 0.0005 0.42805403
vt 0.23379633 0.4994848
vt 0.3440953 0.46376944
vt 0.45439425 0.42805403
vt 0.5646932 0.3923387
vt 0.6749923 0.3566233
vt 0.13319126 0.42805403
vt 0.0005 0.3923387
vt 0.23379633 0.46376944
vt 0.3440953 0.42805403
vt 0.45439425 0.3923387
vt 0.5646932 0.3566233
vt 0.6749923 0.32090795
vt 0.13319126 0.3923387
vt 0.0005 0.3566233
vt 0.23379633 0.42805403
vt 0.3440953 0.3923387
vt 0.45439425 0.3566233
vt 0.5646932 0.32090795
vt 0.6749923 0.28519255
vt 0.13319126 0.3566233
vt 0.0005 0.32090795
vt 0.23379633 0.3923387
vt 0.3440953 0.3566233
vt 0.45439425 0.32090795
vt 0.5646932 0.28519255
vt 0.6749923 0.24947721
vt 0.13319126 0.32090795
vt 0.0005000595 0.28519255
vt 0.23379633 0.3566233
vt 0.3440953 0.32090795
vt 0.4543943 0.28519255
vt 0.5646932 0.24947721
vt 0.6749923 0.2137618
vt 0.13319123 0.28519255
vt 0.0005000595 0.24947721
vt 0.23379633 0.32090795
vt 0.34409535 0.28519255
vt 0.4543943 0.24947721
vt 0.5646932 0.2137618
vt 0.6749923 0.1780465
vt 0.13319123 0.24947721
vt 0.0005000595 0.2137618
vt 0.23379621 0.28519255
vt 0.34409535 0.24947721
vt 0.4543943 0.2137618
vt 0.5646932 0.1780465
vt 0.6749923 0.14233105
vt 0.13319123 0.2137618
vt 0.0005000595 0.17804644
vt 0.23379621 0.24947721
vt 0.34409535 0.2137618
vt 0.4543943 0.17804644
vt 0.5646932 0.14233105
vt 0.6749923 0.10661573
vt 0.13319123 0.17804644
vt 0.0005000595 0.14233099
vt 0.23379621 0.2137618
vt 0.34409535 0.17804644
vt 0.4543943 0.14233099
vt 0.5646932 0.10661573
vt 0.6749923 0.07090034
vt 0.13319129 0.14233099
vt 0.0005000595 0.10661579
vt 0.23379621 0.17804644
vt 0.34409535 0.14233099
vt 0.4543943 0.10661579
vt 0.5646932 0.07090034
vt 0.6749923 0.03621533
vt 0.13319129 0.10661579
vt 0.0005000595 0.07090034
vt 0.23379633 0.14233099
vt 0.34409535 0.10661579
vt 0.4543943 0.07090034
vt 0.5646932 0.03621533
vt 0.6749923 0.0005
vt 0.5646932 0.0005
vt 0.4543943 0.03621533
vt 0.4543943 0.0005
vt 0.13319129 0.07090034
vt 0.0005000595 0.03621533
vt 0.23379633 0.10661579
vt 0.34409535 0.07090034
vt 0.34409535 0.03621533
vt 0.34409535 0.0005
vt 0.23379633 0.07090034
vt 0.13319129 0.03621533
vt 0.0005000595 0.0005
vt 0.13319129 0.0005
vt 0.23379633 0.03621533
vt 0.23379633 0.0005
vn -1.2379201E-06 0.019939158 0.9998012
vn -2.6701875E-06 0.015305984 0.9998828
vn -0.0034052494 0.01492302 0.9998828
vn -0.004436561 0.019439436 0.9998012
vn -0.0066393097 0.0137908645 0.9998828
vn -1.4422281E-07 0.021546667 0.99976784
vn -0.008650295 0.017964875 0.9998012
vn -0.00954431 0.011965463 0.9998828
vn -0.0047946316 0.02100655 0.99976784
vn -0.012432296 0.015588634 0.9998012
vn -0.011965651 0.009544362 0.9998828
vn -0.011660432 0.051088296 0.9986261
vn -4.8765753E-07 0.052401863 0.9986261
vn -0.00934854 0.019413086 0.99976784
vn -0.015588516 0.0124326125 0.9998012
vn -0.013788975 0.0066432315 0.9998828
vn -0.022736074 0.047212463 0.9986261
vn -0.030404985 0.13321434 0.99062073
vn -5.845796E-07 0.13664033 0.99062073
vn -0.013434069 0.016846044 0.99976784
vn -0.017963797 0.008652412 0.9998012
vn -0.014923307 0.0034034715 0.9998828
vn -0.03267217 0.04096944 0.9986261
vn -0.059285857 0.123108685 0.99062073
vn -0.08411663 0.36854112 0.92579794
vn -2.198455E-07 0.37801906 0.92579776
vn -0.016846023 0.013434399 0.99976784
vn -0.019439518 0.004434994 0.9998012
vn -0.0153077375 -1.6945379E-06 0.9998828
vn -0.19348513 0.8477178 0.49390066
vn -3.881549E-07 0.869519 0.49389955
vn -0.37726983 0.78340924 0.49390027
vn -0.1640161 0.3405827 0.9257982
vn -0.54213655 0.67981625 0.49390072
vn -0.23569095 0.2955471 0.9257978
vn -0.67981756 0.54213566 0.4938999
vn -0.085193895 0.10682978 0.99062073
vn -0.29554754 0.23569126 0.92579764
vn -0.7834096 0.37727 0.4938996
vn -0.10682949 0.08519339 0.99062073
vn -0.3405836 0.16401607 0.92579776
vn -0.847718 0.19348545 0.49390036
vn -0.04096965 0.032672014 0.9986261
vn -0.12310844 0.059285797 0.99062073
vn -0.36854154 0.08411716 0.92579776
vn -0.8695185 -3.5236786E-07 0.49390036
vn -0.04721266 0.022736402 0.9986261
vn -0.13321443 0.03040564 0.99062073
vn -0.37801912 -2.769324E-07 0.92579776
vn -0.8477176 -0.19348665 0.49390063
vn -0.019413194 0.009349053 0.99976784
vn -0.051087767 0.011660634 0.9986261
vn -0.13664049 -2.0614749E-07 0.99062073
vn -0.36854082 -0.084117256 0.92579794
vn -0.78340894 -0.37727043 0.4939002
vn -0.021006849 0.0047939476 0.99976784
vn -0.052401423 -1.15536864E-07 0.9986261
vn -0.13321428 -0.030405512 0.99062073
vn -0.3405832 -0.16401672 0.9257978
vn -0.6798169 -0.54213655 0.49389976
vn -0.01993952 -1.138904E-06 0.9998012
vn -0.014924541 -0.003403811 0.9998828
vn -0.02154682 -3.0267523E-07 0.99976784
vn -0.019439671 -0.0044355704 0.9998012
vn -0.013789654 -0.006643499 0.9998828
vn -0.05108772 -0.011660833 0.9986261
vn -0.123108245 -0.05928586 0.99062073
vn -0.29554704 -0.2356916 0.92579776
vn -0.5421356 -0.67981774 0.49389973
vn -0.017963927 -0.008652303 0.9998012
vn -0.0119658215 -0.009545532 0.9998828
vn -0.021006407 -0.0047945515 0.99976784
vn -0.047212455 -0.022736274 0.9986261
vn -0.10682929 -0.08519395 0.99062073
vn -0.23569116 -0.29554746 0.92579776
vn -0.3772694 -0.78340995 0.4938994
vn -0.015588456 -0.012432918 0.9998012
vn -0.009547286 -0.011963952 0.9998828
vn -0.019413069 -0.009348864 0.99976784
vn -0.040969267 -0.032671962 0.9986261
vn -0.08519392 -0.10682963 0.99062073
vn -0.16401641 -0.34058392 0.92579764
vn -0.19348554 -0.8477184 0.49389958
vn -0.012433837 -0.015587783 0.9998012
vn -0.006641968 -0.013790392 0.9998828
vn -0.016845856 -0.013434165 0.99976784
vn -0.03267203 -0.04096947 0.9986261
vn -0.059285857 -0.12310821 0.99062073
vn -0.0841168 -0.36854178 0.92579764
vn 9.3322404E-07 -0.86951846 0.49390045
vn -0.008651664 -0.017964453 0.9998012
vn -0.0034055023 -0.01492409 0.9998828
vn -0.013434216 -0.016845996 0.99976784
vn -0.022736188 -0.04721226 0.9986261
vn -0.030405127 -0.13321428 0.99062073
vn 1.2632007E-07 -0.37801898 0.9257978
vn 0.1934868 -0.84771764 0.4939003
vn -0.0044368017 -0.019439917 0.9998012
vn -2.5934212E-06 -0.015306466 0.9998828
vn -0.00934875 -0.019412892 0.99976784
vn -0.011660521 -0.051087894 0.9986261
vn -0 -0.13664025 0.99062073
vn 0.08411729 -0.36854106 0.92579794
vn 0.37727088 -0.7834087 0.4939003
vn -1.8635875E-06 -0.019939363 0.9998012
vn 0.0034034331 -0.01492302 0.9998828
vn -0.004794772 -0.021006692 0.99976784
vn -2.0467378E-07 -0.052401558 0.9986261
vn 0.030405529 -0.13321438 0.99062073
vn 0.16401696 -0.34058303 0.9257978
vn 0.54213643 -0.67981625 0.49390092
vn 0.0044354727 -0.019439898 0.9998012
vn 0.006643769 -0.013787789 0.99988294
vn -7.76995E-07 -0.021546999 0.99976784
vn 0.011660623 -0.051087953 0.9986261
vn 0.059286185 -0.123108454 0.99062073
vn 0.23569179 -0.29554686 0.92579776
vn 0.679817 -0.54213494 0.49390134
vn 0.008653059 -0.017963596 0.9998012
vn 0.009546595 -0.011964144 0.9998828
vn 0.004794455 -0.021007055 0.99976784
vn 0.022736462 -0.047212176 0.9986261
vn 0.08519439 -0.1068296 0.99062073
vn 0.2955472 -0.23569055 0.92579794
vn 0.78340924 -0.37726828 0.49390143
vn 0.0124341175 -0.015587774 0.9998012
vn 0.011966042 -0.009543654 0.9998828
vn 0.00934954 -0.019413216 0.99976784
vn 0.03267215 -0.040968746 0.9986261
vn 0.10683026 -0.08519404 0.99062073
vn 0.34058294 -0.16401583 0.92579806
vn 0.847718 -0.19348456 0.49390066
vn 0.015588902 -0.012432022 0.9998012
vn 0.013790653 -0.0066412133 0.9998828
vn 0.013435249 -0.016845932 0.99976784
vn 0.04096898 -0.03267208 0.9986261
vn 0.12310927 -0.05928627 0.9906206
vn 0.36854085 -0.08411663 0.92579806
vn 0.86951846 1.2580637E-06 0.49390054
vn 0.017964462 -0.008651461 0.9998012
vn 0.014922437 -0.0034059673 0.9998828
vn 0.016846176 -0.01343464 0.99976784
vn 0.04721218 -0.022736428 0.9986261
vn 0.13321494 -0.030405423 0.99062073
vn 0.37801835 5.842303E-07 0.9257982
vn 0.8477172 0.1934874 0.4939008
vn 0.019439178 -0.0044368166 0.9998012
vn 0.01530622 0 0.9998828
vn 0.019412823 -0.009349145 0.99976784
vn 0.05108806 -0.011660499 0.9986261
vn 0.13664047 2.9407204E-07 0.99062073
vn 0.36854017 0.0841175 0.92579824
vn 0.7834083 0.37727088 0.49390107
vn 0.019939242 4.5090732E-07 0.9998012
vn 0.014923052 0.0034053002 0.9998828
vn 0.021006567 -0.0047945627 0.99976784
vn 0.052401688 2.0333897E-07 0.9986261
vn 0.13321464 0.030405635 0.99062073
vn 0.34058225 0.16401654 0.92579824
vn 0.6798156 0.54213727 0.49390084
vn 0.01943965 0.00443682 0.9998012
vn 0.013790434 0.006641199 0.9998828
vn 0.021546625 4.728374E-07 0.99976784
vn 0.051087763 0.0116607975 0.9986261
vn 0.12310884 0.059286233 0.99062073
vn 0.2955462 0.23569094 0.9257982
vn 0.5421348 0.6798176 0.4939007
vn 0.017964933 0.008651113 0.9998012
vn 0.011965509 0.009544291 0.9998828
vn 0.021006405 0.0047950093 0.99976784
vn 0.047212306 0.022736028 0.9986261
vn 0.10682971 0.085194245 0.99062073
vn 0.2356903 0.29554713 0.92579806
vn 0.3772686 0.7834102 0.4938998
vn 0.015588685 0.012432371 0.9998012
vn 0.009545115 0.011965036 0.9998828
vn 0.01941317 0.009348334 0.99976784
vn 0.040969055 0.032672092 0.9986261
vn 0.08519359 0.1068298 0.99062073
vn 0.16401568 0.34058383 0.92579776
vn 0.19348384 0.8477187 0.49389982
vn 0.012433002 0.015588668 0.9998012
vn 0.0066421963 0.01378877 0.99988294
vn 0.016845908 0.013434183 0.99976784
vn 0.032671526 0.04096945 0.9986261
vn 0.059285797 0.123108245 0.99062073
vn 0.084116094 0.36854208 0.92579764
vn -3.881549E-07 0.869519 0.49389955
vn -2.198455E-07 0.37801906 0.92579776
vn 0.030404866 0.13321434 0.99062073
vn -5.845796E-07 0.13664033 0.99062073
vn 0.008652047 0.017964324 0.9998012
vn 0.003403461 0.014922997 0.9998828
vn 0.013434193 0.016846437 0.99976784
vn 0.02273648 0.047212027 0.9986261
vn 0.011660595 0.051087696 0.9986261
vn -4.8765753E-07 0.052401863 0.9986261
vn 0.00934913 0.019413142 0.99976784
vn 0.004435677 0.01943998 0.9998012
vn -2.6701875E-06 0.015305984 0.9998828
vn -1.2379201E-06 0.019939158 0.9998012
vn 0.004794683 0.021006502 0.99976784
vn -1.4422281E-07 0.021546667 0.99976784
g FX_Mesh_Sphere_UV_01_0
f 3/3/3 2/2/2 1/1/1
f 4/4/4 3/3/3 1/1/1
f 5/5/5 3/3/3 4/4/4
f 4/4/4 1/1/1 6/6/6
f 7/7/7 5/5/5 4/4/4
f 8/8/8 5/5/5 7/7/7
f 9/9/9 4/4/4 6/6/6
f 7/7/7 4/4/4 9/9/9
f 10/10/10 8/8/8 7/7/7
f 11/11/11 8/8/8 10/10/10
f 12/12/12 9/9/9 6/6/6
f 13/13/13 12/12/12 6/6/6
f 14/14/14 7/7/7 9/9/9
f 10/10/10 7/7/7 14/14/14
f 15/15/15 11/11/11 10/10/10
f 16/16/16 11/11/11 15/15/15
f 12/12/12 17/17/17 9/9/9
f 17/17/17 14/14/14 9/9/9
f 18/18/18 12/12/12 13/13/13
f 19/19/19 18/18/18 13/13/13
f 20/20/20 10/10/10 14/14/14
f 15/15/15 10/10/10 20/20/20
f 21/21/21 16/16/16 15/15/15
f 22/22/22 16/16/16 21/21/21
f 17/17/17 23/23/23 14/14/14
f 23/23/23 20/20/20 14/14/14
f 24/24/24 17/17/17 12/12/12
f 18/18/18 24/24/24 12/12/12
f 25/25/25 18/18/18 19/19/19
f 26/26/26 25/25/25 19/19/19
f 27/27/27 15/15/15 20/20/20
f 21/21/21 15/15/15 27/27/27
f 28/28/28 22/22/22 21/21/21
f 29/29/29 22/22/22 28/28/28
f 30/30/30 25/25/25 26/26/26
f 31/31/31 30/30/30 26/26/26
f 30/30/30 32/32/32 25/25/25
f 25/25/25 33/33/33 18/18/18
f 32/32/32 33/33/33 25/25/25
f 33/33/33 24/24/24 18/18/18
f 32/32/32 34/34/34 33/33/33
f 34/34/34 35/35/35 33/33/33
f 33/33/33 35/35/35 24/24/24
f 34/34/34 36/36/36 35/35/35
f 35/35/35 37/37/37 24/24/24
f 24/24/24 37/37/37 17/17/17
f 37/37/37 23/23/23 17/17/17
f 36/36/36 38/38/38 35/35/35
f 35/35/35 38/38/38 37/37/37
f 36/36/36 39/39/39 38/38/38
f 37/37/37 40/40/40 23/23/23
f 38/38/38 40/40/40 37/37/37
f 39/39/39 41/41/41 38/38/38
f 38/38/38 41/41/41 40/40/40
f 39/39/39 42/42/42 41/41/41
f 40/40/40 43/43/43 23/23/23
f 23/23/23 43/43/43 20/20/20
f 43/43/43 27/27/27 20/20/20
f 41/41/41 44/44/44 40/40/40
f 40/40/40 44/44/44 43/43/43
f 42/42/42 45/45/45 41/41/41
f 41/41/41 45/45/45 44/44/44
f 42/42/42 46/46/46 45/45/45
f 43/43/43 47/47/47 27/27/27
f 44/44/44 47/47/47 43/43/43
f 45/45/45 48/48/48 44/44/44
f 44/44/44 48/48/48 47/47/47
f 46/46/46 49/49/49 45/45/45
f 45/45/45 49/49/49 48/48/48
f 46/46/46 50/50/50 49/49/49
f 47/47/47 51/51/51 27/27/27
f 51/51/51 21/21/21 27/27/27
f 28/28/28 21/21/21 51/51/51
f 48/48/48 52/52/52 47/47/47
f 47/47/47 52/52/52 51/51/51
f 49/49/49 53/53/53 48/48/48
f 48/48/48 53/53/53 52/52/52
f 50/50/50 54/54/54 49/49/49
f 49/49/49 54/54/54 53/53/53
f 50/50/50 55/55/55 54/54/54
f 56/56/56 28/28/28 51/51/51
f 52/52/52 56/56/56 51/51/51
f 53/53/53 57/57/57 52/52/52
f 52/52/52 57/57/57 56/56/56
f 54/54/54 58/58/58 53/53/53
f 53/53/53 58/58/58 57/57/57
f 55/55/55 59/59/59 54/54/54
f 54/54/54 59/59/59 58/58/58
f 55/55/55 60/60/60 59/59/59
f 61/61/61 28/28/28 56/56/56
f 61/61/61 29/29/29 28/28/28
f 62/62/62 29/29/29 61/61/61
f 57/57/57 63/63/63 56/56/56
f 63/63/63 61/61/61 56/56/56
f 64/64/64 62/62/62 61/61/61
f 64/64/64 61/61/61 63/63/63
f 65/65/65 62/62/62 64/64/64
f 58/58/58 66/66/66 57/57/57
f 57/57/57 66/66/66 63/63/63
f 59/59/59 67/67/67 58/58/58
f 58/58/58 67/67/67 66/66/66
f 60/60/60 68/68/68 59/59/59
f 59/59/59 68/68/68 67/67/67
f 60/60/60 69/69/69 68/68/68
f 70/70/70 65/65/65 64/64/64
f 71/71/71 65/65/65 70/70/70
f 72/72/72 64/64/64 63/63/63
f 66/66/66 72/72/72 63/63/63
f 70/70/70 64/64/64 72/72/72
f 67/67/67 73/73/73 66/66/66
f 66/66/66 73/73/73 72/72/72
f 68/68/68 74/74/74 67/67/67
f 67/67/67 74/74/74 73/73/73
f 69/69/69 75/75/75 68/68/68
f 68/68/68 75/75/75 74/74/74
f 69/69/69 76/76/76 75/75/75
f 77/77/77 71/71/71 70/70/70
f 78/78/78 71/71/71 77/77/77
f 79/79/79 70/70/70 72/72/72
f 73/73/73 79/79/79 72/72/72
f 77/77/77 70/70/70 79/79/79
f 74/74/74 80/80/80 73/73/73
f 73/73/73 80/80/80 79/79/79
f 75/75/75 81/81/81 74/74/74
f 74/74/74 81/81/81 80/80/80
f 76/76/76 82/82/82 75/75/75
f 75/75/75 82/82/82 81/81/81
f 76/76/76 83/83/83 82/82/82
f 84/84/84 78/78/78 77/77/77
f 85/85/85 78/78/78 84/84/84
f 86/86/86 77/77/77 79/79/79
f 80/80/80 86/86/86 79/79/79
f 84/84/84 77/77/77 86/86/86
f 81/81/81 87/87/87 80/80/80
f 80/80/80 87/87/87 86/86/86
f 82/82/82 88/88/88 81/81/81
f 81/81/81 88/88/88 87/87/87
f 83/83/83 89/89/89 82/82/82
f 82/82/82 89/89/89 88/88/88
f 83/83/83 90/90/90 89/89/89
f 91/91/91 85/85/85 84/84/84
f 92/92/92 85/85/85 91/91/91
f 93/93/93 84/84/84 86/86/86
f 87/87/87 93/93/93 86/86/86
f 91/91/91 84/84/84 93/93/93
f 88/88/88 94/94/94 87/87/87
f 87/87/87 94/94/94 93/93/93
f 89/89/89 95/95/95 88/88/88
f 88/88/88 95/95/95 94/94/94
f 90/90/90 96/96/96 89/89/89
f 89/89/89 96/96/96 95/95/95
f 90/90/90 97/97/97 96/96/96
f 98/98/98 92/92/92 91/91/91
f 99/99/99 92/92/92 98/98/98
f 100/100/100 91/91/91 93/93/93
f 94/94/94 100/100/100 93/93/93
f 98/98/98 91/91/91 100/100/100
f 95/95/95 101/101/101 94/94/94
f 94/94/94 101/101/101 100/100/100
f 96/96/96 102/102/102 95/95/95
f 95/95/95 102/102/102 101/101/101
f 97/97/97 103/103/103 96/96/96
f 96/96/96 103/103/103 102/102/102
f 97/97/97 104/104/104 103/103/103
f 105/105/105 99/99/99 98/98/98
f 106/106/106 99/99/99 105/105/105
f 107/107/107 98/98/98 100/100/100
f 101/101/101 107/107/107 100/100/100
f 105/105/105 98/98/98 107/107/107
f 102/102/102 108/108/108 101/101/101
f 101/101/101 108/108/108 107/107/107
f 103/103/103 109/109/109 102/102/102
f 102/102/102 109/109/109 108/108/108
f 104/104/104 110/110/110 103/103/103
f 103/103/103 110/110/110 109/109/109
f 104/104/104 111/111/111 110/110/110
f 112/112/112 106/106/106 105/105/105
f 113/113/113 106/106/106 112/112/112
f 114/114/114 105/105/105 107/107/107
f 108/108/108 114/114/114 107/107/107
f 112/112/112 105/105/105 114/114/114
f 109/109/109 115/115/115 108/108/108
f 108/108/108 115/115/115 114/114/114
f 110/110/110 116/116/116 109/109/109
f 109/109/109 116/116/116 115/115/115
f 111/111/111 117/117/117 110/110/110
f 110/110/110 117/117/117 116/116/116
f 111/111/111 118/118/118 117/117/117
f 119/119/119 113/113/113 112/112/112
f 120/120/120 113/113/113 119/119/119
f 121/121/121 112/112/112 114/114/114
f 115/115/115 121/121/121 114/114/114
f 119/119/119 112/112/112 121/121/121
f 116/116/116 122/122/122 115/115/115
f 115/115/115 122/122/122 121/121/121
f 117/117/117 123/123/123 116/116/116
f 116/116/116 123/123/123 122/122/122
f 118/118/118 124/124/124 117/117/117
f 117/117/117 124/124/124 123/123/123
f 118/118/118 125/125/125 124/124/124
f 126/126/126 120/120/120 119/119/119
f 127/127/127 120/120/120 126/126/126
f 128/128/128 119/119/119 121/121/121
f 122/122/122 128/128/128 121/121/121
f 126/126/126 119/119/119 128/128/128
f 123/123/123 129/129/129 122/122/122
f 122/122/122 129/129/129 128/128/128
f 124/124/124 130/130/130 123/123/123
f 123/123/123 130/130/130 129/129/129
f 125/125/125 131/131/131 124/124/124
f 124/124/124 131/131/131 130/130/130
f 125/125/125 132/132/132 131/131/131
f 133/133/133 127/127/127 126/126/126
f 134/134/134 127/127/127 133/133/133
f 135/135/135 126/126/126 128/128/128
f 129/129/129 135/135/135 128/128/128
f 133/133/133 126/126/126 135/135/135
f 130/130/130 136/136/136 129/129/129
f 129/129/129 136/136/136 135/135/135
f 131/131/131 137/137/137 130/130/130
f 130/130/130 137/137/137 136/136/136
f 132/132/132 138/138/138 131/131/131
f 131/131/131 138/138/138 137/137/137
f 132/132/132 139/139/139 138/138/138
f 140/140/140 134/134/134 133/133/133
f 141/141/141 134/134/134 140/140/140
f 142/142/142 133/133/133 135/135/135
f 136/136/136 142/142/142 135/135/135
f 140/140/140 133/133/133 142/142/142
f 137/137/137 143/143/143 136/136/136
f 136/136/136 143/143/143 142/142/142
f 138/138/138 144/144/144 137/137/137
f 137/137/137 144/144/144 143/143/143
f 139/139/139 145/145/145 138/138/138
f 138/138/138 145/145/145 144/144/144
f 139/139/139 146/146/146 145/145/145
f 147/147/147 141/141/141 140/140/140
f 148/148/148 141/141/141 147/147/147
f 149/149/149 140/140/140 142/142/142
f 143/143/143 149/149/149 142/142/142
f 147/147/147 140/140/140 149/149/149
f 144/144/144 150/150/150 143/143/143
f 143/143/143 150/150/150 149/149/149
f 145/145/145 151/151/151 144/144/144
f 144/144/144 151/151/151 150/150/150
f 146/146/146 152/152/152 145/145/145
f 145/145/145 152/152/152 151/151/151
f 146/146/146 153/153/153 152/152/152
f 154/154/154 148/148/148 147/147/147
f 155/155/155 148/148/148 154/154/154
f 156/156/156 147/147/147 149/149/149
f 150/150/150 156/156/156 149/149/149
f 154/154/154 147/147/147 156/156/156
f 151/151/151 157/157/157 150/150/150
f 150/150/150 157/157/157 156/156/156
f 152/152/152 158/158/158 151/151/151
f 151/151/151 158/158/158 157/157/157
f 153/153/153 159/159/159 152/152/152
f 152/152/152 159/159/159 158/158/158
f 153/153/153 160/160/160 159/159/159
f 161/161/161 155/155/155 154/154/154
f 162/162/162 155/155/155 161/161/161
f 163/163/163 154/154/154 156/156/156
f 157/157/157 163/163/163 156/156/156
f 161/161/161 154/154/154 163/163/163
f 158/158/158 164/164/164 157/157/157
f 157/157/157 164/164/164 163/163/163
f 159/159/159 165/165/165 158/158/158
f 158/158/158 165/165/165 164/164/164
f 160/160/160 166/166/166 159/159/159
f 159/159/159 166/166/166 165/165/165
f 160/160/160 167/167/167 166/166/166
f 168/168/168 162/162/162 161/161/161
f 169/169/169 162/162/162 168/168/168
f 170/170/170 161/161/161 163/163/163
f 164/164/164 170/170/170 163/163/163
f 168/168/168 161/161/161 170/170/170
f 165/165/165 171/171/171 164/164/164
f 164/164/164 171/171/171 170/170/170
f 166/166/166 172/172/172 165/165/165
f 165/165/165 172/172/172 171/171/171
f 167/167/167 173/173/173 166/166/166
f 166/166/166 173/173/173 172/172/172
f 167/167/167 174/174/174 173/173/173
f 175/175/175 169/169/169 168/168/168
f 176/176/176 169/169/169 175/175/175
f 177/177/177 168/168/168 170/170/170
f 171/171/171 177/177/177 170/170/170
f 175/175/175 168/168/168 177/177/177
f 172/172/172 178/178/178 171/171/171
f 171/171/171 178/178/178 177/177/177
f 173/173/173 179/179/179 172/172/172
f 172/172/172 179/179/179 178/178/178
f 174/174/174 180/180/180 173/173/173
f 173/173/173 180/180/180 179/179/179
f 174/174/174 181/181/181 180/180/180
f 182/182/182 176/176/176 175/175/175
f 183/183/183 176/176/176 182/182/182
f 184/184/184 175/175/175 177/177/177
f 178/178/178 184/184/184 177/177/177
f 182/182/182 175/175/175 184/184/184
f 179/179/179 185/185/185 178/178/178
f 178/178/178 185/185/185 184/184/184
f 180/180/180 186/186/186 179/179/179
f 179/179/179 186/186/186 185/185/185
f 181/181/181 187/187/187 180/180/180
f 180/180/180 187/187/187 186/186/186
f 181/181/181 188/188/188 187/187/187
f 188/188/188 189/189/189 187/187/187
f 187/187/187 189/189/189 190/190/190
f 187/187/187 190/190/190 186/186/186
f 189/189/189 191/191/191 190/190/190
f 192/192/192 183/183/183 182/182/182
f 193/193/193 183/183/183 192/192/192
f 194/194/194 182/182/182 184/184/184
f 185/185/185 194/194/194 184/184/184
f 192/192/192 182/182/182 194/194/194
f 186/186/186 195/195/195 185/185/185
f 186/186/186 190/190/190 195/195/195
f 185/185/185 195/195/195 194/194/194
f 190/190/190 191/191/191 196/196/196
f 190/190/190 196/196/196 195/195/195
f 191/191/191 197/197/197 196/196/196
f 195/195/195 198/198/198 194/194/194
f 198/198/198 192/192/192 194/194/194
f 195/195/195 196/196/196 198/198/198
f 199/199/199 193/193/193 192/192/192
f 199/199/199 192/192/192 198/198/198
f 200/200/200 193/193/193 199/199/199
f 201/201/201 200/200/200 199/199/199
f 196/196/196 197/197/197 202/202/202
f 196/196/196 202/202/202 198/198/198
f 202/202/202 199/199/199 198/198/198
f 201/201/201 199/199/199 202/202/202
f 197/197/197 203/203/203 202/202/202
f 203/203/203 201/201/201 202/202/202
