g FX_Sphere_Half_003
v 0.0004769516 1.5055695E-08 -0.10969353
v -0.018553166 0.09567088 -0.12185108
v 0.00047694735 0.097545184 -0.12185108
v -0.036851965 0.18766513 -0.15811974
v 0.0004769432 0.19134174 -0.15811974
v -0.05371624 0.2724476 -0.21789752
v 0.00047693946 0.27778515 -0.21789752
v -0.06849789 0.34675995 -0.3002145
v 0.00047693614 0.35355338 -0.3002145
v -0.08062889 0.40774658 -0.40377837
v 0.0004769334 0.41573483 -0.40377837
v -0.08964302 0.4530637 -0.52703434
v 0.0004769314 0.46193972 -0.52703434
v -0.0951939 0.48096988 -0.6682333
v 0.00047693017 0.4903926 -0.6682333
v -0.09706821 0.4903926 -0.8255022
v 0.0004769297 0.5 -0.8255022
v -0.09519391 0.4809699 -0.9969134
v 0.00047693017 0.49039268 -0.9969134
v -0.08964303 0.45306373 -1.1805444
v 0.0004769314 0.4619398 -1.1805443
v -0.08062889 0.4077466 -1.3745264
v 0.0004769334 0.41573486 -1.3745264
v -0.06849789 0.34675997 -1.5770773
v 0.00047693614 0.3535534 -1.5770773
v -0.053716227 0.2724476 -1.786517
v 0.00047693946 0.27778515 -1.786517
v -0.03685195 0.18766509 -2.0012653
v 0.0004769432 0.1913417 -2.0012653
v -0.018553142 0.095670804 -2.219824
v 0.00047694735 0.09754511 -2.219824
v 0.0004769516 8.2024115E-08 -2.4407442
v -0.036851916 0.090119936 -2.219824
v 0.0004769516 8.2024115E-08 -2.4407442
v -0.072746314 0.17677669 -2.0012653
v -0.10582679 0.25664002 -1.786517
v -0.13482206 0.32664078 -1.5770773
v -0.053716164 0.081105806 -2.219824
v 0.0004769516 8.2024115E-08 -2.4407442
v -0.10582675 0.15909483 -2.0012653
v -0.15861785 0.38408893 -1.3745261
v -0.15385216 0.23096992 -1.786517
v -0.06849781 0.06897482 -2.219824
v 0.0004769516 8.2024115E-08 -2.4407442
v -0.134822 0.13529901 -2.0012653
v -0.19594677 0.29396895 -1.5770773
v -0.17629972 0.42677677 -1.1805443
v -0.08062878 0.05419318 -2.219824
v 0.0004769516 8.2024115E-08 -2.4407442
v -0.19594677 0.19642375 -1.786517
v -0.2304929 0.3456709 -1.3745261
v -0.18718816 0.45306376 -0.9969134
v -0.15861781 0.10630376 -2.0012653
v -0.24952304 0.25000003 -1.5770773
v -0.256163 0.38408893 -1.1805443
v -0.19086476 0.46193975 -0.8255022
v -0.08964292 0.037328925 -2.219824
v 0.0004769516 8.2024115E-08 -2.4407442
v -0.2304929 0.15432917 -1.786517
v -0.29349196 0.29396895 -1.3745261
v -0.27197057 0.40774664 -0.9969134
v -0.18718815 0.45306373 -0.6682333
v -0.17629968 0.0732233 -2.0012653
v -0.29349196 0.19642375 -1.5770773
v -0.32616377 0.32664078 -1.1805443
v -0.27730814 0.41573483 -0.8255022
v -0.17629972 0.42677668 -0.52703434
v -0.095193796 0.01903014 -2.219824
v 0.0004769516 8.2024115E-08 -2.4407442
v -0.34519392 0.23096992 -1.3745261
v -0.346283 0.34675997 -0.9969134
v -0.27197054 0.40774658 -0.6682333
v -0.15861785 0.3840889 -0.40377837
v -0.38361195 0.25663996 -1.1805443
v -0.35307643 0.35355338 -0.8255022
v -0.25616297 0.38408884 -0.52703434
v -0.13482206 0.32664073 -0.3002145
v -0.40726966 0.27244756 -0.9969134
v -0.346283 0.34675995 -0.6682333
v -0.2304929 0.34567088 -0.40377837
v -0.1058268 0.25664002 -0.21789752
v -0.41525787 0.2777851 -0.8255022
v -0.32616374 0.3266407 -0.52703434
v -0.19594677 0.29396892 -0.3002145
v -0.072746344 0.17677672 -0.15811974
v -0.40726963 0.27244756 -0.6682333
v -0.29349196 0.29396892 -0.40377837
v -0.15385218 0.23096992 -0.21789752
v -0.036851965 0.090119995 -0.12185108
v 0.0004769516 1.5055695E-08 -0.10969353
v -0.1058268 0.15909486 -0.15811974
v -0.24952304 0.25 -0.3002145
v -0.3836119 0.25663996 -0.52703434
v -0.053716235 0.08110586 -0.12185108
v 0.0004769516 1.5055695E-08 -0.10969353
v -0.19594678 0.19642375 -0.21789752
v -0.34519392 0.23096988 -0.40377837
v -0.13482207 0.13529904 -0.15811974
v -0.29349196 0.19642372 -0.3002145
v -0.068497896 0.06897486 -0.12185108
v 0.0004769516 1.5055695E-08 -0.10969353
v -0.23049295 0.15432915 -0.21789752
v -0.15861788 0.106303774 -0.15811974
v -0.08062889 0.0541932 -0.12185108
v 0.0004769516 1.5055695E-08 -0.10969353
v -0.42629972 0.17677665 -0.52703434
v -0.38361198 0.15909478 -0.40377837
v -0.32616383 0.13529898 -0.30021444
v -0.25616306 0.10630374 -0.21789752
v -0.17629977 0.073223285 -0.15811974
v -0.45258677 0.18766506 -0.6682333
v -0.08964304 0.037328918 -0.12185108
v 0.0004769516 1.5055695E-08 -0.10969353
v -0.46146286 0.19134167 -0.8255022
v -0.4525868 0.18766509 -0.9969134
v -0.42629978 0.17677665 -1.1805443
v -0.38361198 0.1590948 -1.3745261
v -0.32616383 0.13529901 -1.5770773
v -0.25616303 0.10630377 -1.786517
v -0.1871881 0.037328914 -2.0012653
v -0.27197057 0.054193165 -1.786517
v -0.34628302 0.06897481 -1.5770773
v -0.40726966 0.08110578 -1.3745261
v -0.45258677 0.090119906 -1.1805444
v -0.097068086 3.960824E-08 -2.219824
v 0.0004769516 8.2024115E-08 -2.4407442
v -0.19086467 -5.192396E-10 -2.0012653
v -0.27730814 -3.716594E-08 -1.786517
v -0.35307643 -6.9263315E-08 -1.5770773
v -0.09519377 -0.01903006 -2.219824
v 0.0004769516 8.2024115E-08 -2.4407442
v -0.18718809 -0.037328914 -2.0012653
v -0.48049292 0.095670775 -0.9969134
v -0.41525787 -9.590334E-08 -1.3745261
v -0.27197054 -0.054193243 -1.786517
v -0.0896429 -0.03732884 -2.219824
v 0.0004769516 8.2024115E-08 -2.4407442
v -0.17629963 -0.0732233 -2.0012653
v -0.34628296 -0.068974935 -1.5770773
v -0.46146283 -1.1636936E-07 -1.1805443
v -0.4899157 0.097545065 -0.8255022
v -0.08062875 -0.054193098 -2.219824
v 0.0004769516 8.2024115E-08 -2.4407442
v -0.25616294 -0.10630381 -1.786517
v -0.4072696 -0.08110596 -1.3745261
v -0.4899157 -1.3016027E-07 -0.9969134
v -0.4804929 0.09567075 -0.6682333
v -0.15861773 -0.106303744 -2.0012653
v -0.3261637 -0.13529913 -1.5770773
v -0.45258674 -0.09012012 -1.1805443
v -0.49952304 -1.3700712E-07 -0.8255022
v -0.45258674 0.090119876 -0.52703434
v -0.06849777 -0.06897473 -2.219824
v 0.0004769516 8.2024115E-08 -2.4407442
v -0.38361186 -0.15909497 -1.3745261
v -0.4804929 -0.09567102 -0.9969134
v -0.48991564 -1.3688148E-07 -0.6682333
v -0.40726966 0.08110576 -0.40377837
v -0.42629966 -0.17677689 -1.1805443
v -0.48991564 -0.09754533 -0.8255022
v -0.46146277 -1.2999529E-07 -0.52703434
v -0.34628302 0.06897478 -0.30021444
v -0.45258665 -0.18766533 -0.9969134
v -0.48049286 -0.095671035 -0.6682333
v -0.41525787 -1.1679196E-07 -0.40377837
v -0.2719706 0.05419314 -0.21789752
v -0.4614627 -0.19134189 -0.8255022
v -0.4525867 -0.090120144 -0.52703434
v -0.35307643 -9.792913E-08 -0.3002145
v -0.18718821 0.037328888 -0.15811974
v -0.45258662 -0.18766533 -0.6682333
v -0.4072696 -0.081105985 -0.40377837
v -0.27730817 -7.425376E-08 -0.21789752
v -0.09519391 0.01903011 -0.12185108
v 0.0004769516 1.5055695E-08 -0.10969353
v -0.19086477 -4.6769816E-08 -0.15811974
v -0.34628296 -0.068974964 -0.3002145
v -0.42629963 -0.17677684 -0.52703434
v -0.09706821 -1.660025E-08 -0.12185108
v 0.0004769516 1.5055695E-08 -0.10969353
v -0.2719706 -0.054193284 -0.21789752
v -0.38361186 -0.15909499 -0.40377837
v -0.18718818 -0.03732898 -0.15811974
v -0.3261637 -0.13529916 -0.3002145
v -0.0951939 -0.01903014 -0.12185108
v 0.0004769516 1.5055695E-08 -0.10969353
v -0.25616297 -0.10630387 -0.21789752
v -0.1762997 -0.073223375 -0.15811974
v -0.08964301 -0.037328947 -0.12185108
v 0.0004769516 1.5055695E-08 -0.10969353
v -0.38361174 -0.25664017 -0.52703434
v -0.34519377 -0.23097007 -0.40377837
v -0.29349184 -0.1964239 -0.3002145
v -0.23049286 -0.15432926 -0.21789752
v -0.15861782 -0.10630384 -0.15811974
v -0.40726942 -0.27244774 -0.6682333
v -0.08062886 -0.054193225 -0.12185108
v 0.0004769516 1.5055695E-08 -0.10969353
v -0.41525766 -0.27778533 -0.8255022
v -0.40726948 -0.27244776 -0.9969134
v -0.3836118 -0.25664017 -1.1805443
v -0.34519377 -0.23097004 -1.3745261
v -0.29349184 -0.19642387 -1.5770773
v -0.23049282 -0.15432921 -1.786517
v -0.13482192 -0.135299 -2.0012653
v -0.19594665 -0.1964238 -1.786517
v -0.2495229 -0.25000012 -1.5770773
v -0.29349178 -0.29396906 -1.3745261
v -0.3261636 -0.32664093 -1.1805443
v -0.05371611 -0.08110571 -2.219824
v 0.0004769516 8.2024115E-08 -2.4407442
v -0.10582665 -0.15909477 -2.0012653
v -0.15385202 -0.23096992 -1.786517
v -0.19594657 -0.293969 -1.5770773
v -0.036851846 -0.090119824 -2.219824
v 0.0004769516 8.2024115E-08 -2.4407442
v -0.07274617 -0.17677662 -2.0012653
v -0.3462828 -0.34676012 -0.9969134
v -0.2304927 -0.345671 -1.3745261
v -0.10582659 -0.25664002 -1.786517
v -0.01855306 -0.095670685 -2.219824
v 0.0004769516 8.2024115E-08 -2.4407442
v -0.036851786 -0.18766502 -2.0012653
v -0.1348218 -0.3266408 -1.5770773
v -0.25616276 -0.38408905 -1.1805443
v -0.3530762 -0.35355356 -0.8255022
v 0.00047704577 -0.097544976 -2.219824
v 0.0004769516 8.2024115E-08 -2.4407442
v 0.00047713637 -0.19134155 -2.0012653
v -0.05371599 -0.2724475 -1.786517
v 0.00047721982 -0.27778503 -1.786517
v -0.06849758 -0.34675997 -1.5770773
v 0.00047729298 -0.35355335 -1.5770773
v -0.15861756 -0.384089 -1.3745261
v -0.08062853 -0.4077466 -1.3745261
v 0.00047735302 -0.41573477 -1.3745261
v -0.1762994 -0.4267768 -1.1805443
v -0.08964263 -0.45306376 -1.1805443
v 0.00047739767 -0.46193972 -1.1805443
v -0.2719703 -0.40774673 -0.9969134
v -0.18718782 -0.45306385 -0.9969134
v -0.09519348 -0.4809699 -0.9969134
v 0.0004774251 -0.4903926 -0.9969134
v -0.27730787 -0.415735 -0.82550216
v -0.19086438 -0.4619399 -0.8255022
v -0.09706777 -0.4903927 -0.8255022
v 0.0004774344 -0.49999994 -0.8255022
v -0.34628275 -0.34676012 -0.6682333
v -0.27197027 -0.40774673 -0.6682333
v -0.32616356 -0.32664093 -0.52703434
v -0.1871878 -0.45306382 -0.6682333
v -0.09519348 -0.4809699 -0.6682333
v 0.0004774251 -0.49039257 -0.6682333
v -0.29349178 -0.29396906 -0.40377837
v -0.25616273 -0.38408905 -0.52703434
v -0.17629938 -0.4267768 -0.52703434
v -0.08964262 -0.45306376 -0.52703434
v 0.00047739767 -0.46193972 -0.52703434
v -0.2495229 -0.25000015 -0.30021444
v -0.2304927 -0.34567103 -0.40377837
v -0.15861756 -0.38408905 -0.40377837
v -0.08062853 -0.40774664 -0.40377834
v 0.00047735302 -0.41573483 -0.40377834
v -0.19594666 -0.19642387 -0.21789752
v -0.19594657 -0.293969 -0.3002145
v -0.1348218 -0.32664084 -0.3002145
v -0.06849758 -0.34676 -0.3002145
v 0.00047729298 -0.35355338 -0.3002145
v -0.134822 -0.1352991 -0.15811974
v -0.15385203 -0.23097 -0.21789752
v -0.1058266 -0.25664008 -0.21789752
v -0.053716 -0.2724476 -0.21789752
v 0.00047721982 -0.2777851 -0.21789752
v -0.06849785 -0.06897488 -0.12185108
v 0.0004769516 1.5055695E-08 -0.10969353
v -0.1058267 -0.1590949 -0.15811974
v -0.07274621 -0.17677677 -0.15811974
v -0.0368518 -0.18766518 -0.15811974
v 0.00047713637 -0.1913417 -0.15811974
v -0.053716183 -0.08110586 -0.12185108
v 0.0004769516 1.5055695E-08 -0.10969353
v -0.036851894 -0.09011999 -0.12185108
v 0.0004769516 1.5055695E-08 -0.10969353
v -0.018553082 -0.09567086 -0.12185108
v 0.0004769516 1.5055695E-08 -0.10969353
v 0.00047704577 -0.09754515 -0.12185108
v 0.0004769516 1.5055695E-08 -0.10969353
v -0.00047702788 1.5055695E-08 -0.109693564
v -0.00047702363 0.097545184 -0.12185112
v 0.01855309 0.09567088 -0.12185112
v 0.03685189 0.18766513 -0.15811977
v -0.00047701955 0.19134174 -0.15811977
v 0.053716164 0.2724476 -0.21789755
v -0.00047701574 0.27778515 -0.21789755
v 0.068497814 0.34675995 -0.3002145
v -0.00047701245 0.35355338 -0.3002145
v 0.08062881 0.40774658 -0.40377837
v -0.00047700971 0.41573483 -0.40377837
v 0.08964294 0.4530637 -0.52703434
v -0.00047700768 0.46193972 -0.52703434
v 0.095193826 0.48096988 -0.6682333
v -0.00047700643 0.4903926 -0.6682333
v 0.09706814 0.4903926 -0.82550216
v -0.00047700605 0.5 -0.82550216
v 0.09519383 0.4809699 -0.99691325
v -0.00047700643 0.49039268 -0.99691325
v 0.08964295 0.45306373 -1.1805444
v -0.00047700768 0.4619398 -1.1805441
v 0.08062881 0.4077466 -1.3745261
v -0.00047700971 0.41573486 -1.3745261
v 0.068497814 0.34675997 -1.5770772
v -0.00047701245 0.3535534 -1.5770772
v 0.053716153 0.2724476 -1.7865168
v -0.00047701574 0.27778515 -1.7865168
v 0.03685187 0.18766509 -2.0012653
v -0.00047701955 0.1913417 -2.0012653
v 0.018553065 0.095670804 -2.2198238
v -0.00047702363 0.09754511 -2.2198238
v -0.00047702788 8.2024115E-08 -2.440744
v 0.03685184 0.090119936 -2.2198238
v -0.00047702788 8.2024115E-08 -2.440744
v 0.07274624 0.17677669 -2.0012653
v 0.105826706 0.25664002 -1.7865168
v 0.13482198 0.32664078 -1.5770772
v 0.053716086 0.081105806 -2.2198238
v -0.00047702788 8.2024115E-08 -2.440744
v 0.10582667 0.15909483 -2.001265
v 0.15861778 0.38408893 -1.374526
v 0.15385209 0.23096992 -1.7865168
v 0.068497725 0.06897482 -2.2198238
v -0.00047702788 8.2024115E-08 -2.440744
v 0.13482192 0.13529901 -2.0012653
v 0.1959467 0.29396895 -1.5770772
v 0.17629965 0.42677677 -1.1805441
v 0.08062871 0.05419318 -2.2198238
v -0.00047702788 8.2024115E-08 -2.440744
v 0.1959467 0.19642375 -1.7865168
v 0.23049283 0.3456709 -1.374526
v 0.18718809 0.45306376 -0.99691325
v 0.15861773 0.10630376 -2.001265
v 0.24952297 0.25000003 -1.5770772
v 0.2561629 0.38408893 -1.1805441
v 0.19086467 0.46193975 -0.82550216
v 0.089642845 0.037328925 -2.2198238
v -0.00047702788 8.2024115E-08 -2.440744
v 0.23049283 0.15432917 -1.7865168
v 0.29349187 0.29396895 -1.374526
v 0.27197048 0.40774664 -0.99691325
v 0.18718807 0.45306373 -0.6682333
v 0.1762996 0.0732233 -2.001265
v 0.29349187 0.19642375 -1.5770772
v 0.3261637 0.32664078 -1.1805441
v 0.27730805 0.41573483 -0.82550216
v 0.17629965 0.42677668 -0.52703434
v 0.09519372 0.01903014 -2.2198238
v -0.00047702788 8.2024115E-08 -2.440744
v 0.34519386 0.23096992 -1.374526
v 0.3462829 0.34675997 -0.99691325
v 0.27197048 0.40774658 -0.6682333
v 0.15861778 0.3840889 -0.40377837
v 0.38361186 0.25663996 -1.1805441
v 0.35307637 0.35355338 -0.82550216
v 0.2561629 0.38408884 -0.52703434
v 0.13482198 0.32664073 -0.3002145
v 0.4072696 0.27244756 -0.99691325
v 0.3462829 0.34675995 -0.6682333
v 0.23049283 0.34567088 -0.40377837
v 0.10582673 0.25664002 -0.21789755
v 0.41525778 0.2777851 -0.82550216
v 0.32616368 0.3266407 -0.52703434
v 0.1959467 0.29396892 -0.3002145
v 0.07274627 0.17677672 -0.15811977
v 0.40726954 0.27244756 -0.6682333
v 0.29349187 0.29396892 -0.40377837
v 0.1538521 0.23096992 -0.21789755
v 0.036851887 0.090119995 -0.12185112
v -0.00047702788 1.5055695E-08 -0.109693564
v 0.10582673 0.15909486 -0.15811977
v 0.24952297 0.25 -0.3002145
v 0.38361183 0.25663996 -0.52703434
v 0.053716157 0.08110586 -0.12185112
v -0.00047702788 1.5055695E-08 -0.109693564
v 0.19594671 0.19642375 -0.21789755
v 0.34519386 0.23096988 -0.40377837
v 0.134822 0.13529904 -0.15811977
v 0.29349187 0.19642372 -0.3002145
v 0.06849782 0.06897486 -0.12185112
v -0.00047702788 1.5055695E-08 -0.109693564
v 0.23049287 0.15432915 -0.21789755
v 0.15861781 0.106303774 -0.15811977
v 0.08062881 0.0541932 -0.12185112
v -0.00047702788 1.5055695E-08 -0.109693564
v 0.42629966 0.17677665 -0.52703434
v 0.3836119 0.15909478 -0.40377837
v 0.32616374 0.13529898 -0.30021447
v 0.25616297 0.10630374 -0.21789755
v 0.17629968 0.073223285 -0.15811977
v 0.4525867 0.18766506 -0.6682333
v 0.089642964 0.037328918 -0.12185112
v -0.00047702788 1.5055695E-08 -0.109693564
v 0.46146277 0.19134167 -0.82550216
v 0.45258674 0.18766509 -0.99691325
v 0.4262997 0.17677665 -1.1805441
v 0.3836119 0.1590948 -1.374526
v 0.32616374 0.13529901 -1.5770772
v 0.25616294 0.10630377 -1.7865168
v 0.18718803 0.037328914 -2.001265
v 0.27197048 0.054193165 -1.7865168
v 0.34628296 0.06897481 -1.5770772
v 0.4072696 0.08110578 -1.374526
v 0.4525867 0.090119906 -1.1805444
v 0.09706801 3.960824E-08 -2.2198238
v -0.00047702788 8.2024115E-08 -2.440744
v 0.1908646 -5.192396E-10 -2.0012653
v 0.27730805 -3.716594E-08 -1.7865168
v 0.35307637 -6.9263315E-08 -1.5770772
v 0.0951937 -0.01903006 -2.2198238
v -0.00047702788 8.2024115E-08 -2.440744
v 0.18718801 -0.037328914 -2.001265
v 0.48049286 0.095670775 -0.99691325
v 0.41525778 -9.590334E-08 -1.374526
v 0.27197048 -0.054193243 -1.7865168
v 0.089642815 -0.03732884 -2.2198238
v -0.00047702788 8.2024115E-08 -2.440744
v 0.17629954 -0.0732233 -2.001265
v 0.34628287 -0.068974935 -1.5770772
v 0.46146274 -1.1636936E-07 -1.1805441
v 0.4899156 0.097545065 -0.82550216
v 0.08062868 -0.054193098 -2.2198238
v -0.00047702788 8.2024115E-08 -2.440744
v 0.25616285 -0.10630381 -1.7865168
v 0.4072695 -0.08110596 -1.374526
v 0.4899156 -1.3016027E-07 -0.99691325
v 0.4804928 0.09567075 -0.6682333
v 0.15861766 -0.106303744 -2.0012653
v 0.32616362 -0.13529913 -1.5770772
v 0.45258665 -0.09012012 -1.1805441
v 0.49952295 -1.3700712E-07 -0.82550216
v 0.45258665 0.090119876 -0.52703434
v 0.06849769 -0.06897473 -2.2198238
v -0.00047702788 8.2024115E-08 -2.440744
v 0.3836118 -0.15909497 -1.374526
v 0.4804928 -0.09567102 -0.99691325
v 0.48991558 -1.3688148E-07 -0.6682333
v 0.4072696 0.08110576 -0.40377837
v 0.42629957 -0.17677689 -1.1805441
v 0.48991558 -0.09754533 -0.82550216
v 0.4614627 -1.2999529E-07 -0.52703434
v 0.34628296 0.06897478 -0.30021447
v 0.4525866 -0.18766533 -0.99691325
v 0.48049277 -0.095671035 -0.6682333
v 0.41525778 -1.1679196E-07 -0.40377837
v 0.27197054 0.05419314 -0.21789755
v 0.46146262 -0.19134189 -0.82550216
v 0.45258662 -0.090120144 -0.52703434
v 0.35307637 -9.792913E-08 -0.3002145
v 0.18718812 0.037328888 -0.15811977
v 0.45258653 -0.18766533 -0.6682333
v 0.4072695 -0.081105985 -0.40377837
v 0.2773081 -7.425376E-08 -0.21789755
v 0.09519383 0.01903011 -0.12185112
v -0.00047702788 1.5055695E-08 -0.109693564
v 0.1908647 -4.6769816E-08 -0.15811977
v 0.34628287 -0.068974964 -0.3002145
v 0.42629954 -0.17677684 -0.52703434
v 0.09706814 -1.660025E-08 -0.12185112
v -0.00047702788 1.5055695E-08 -0.109693564
v 0.2719705 -0.054193284 -0.21789755
v 0.3836118 -0.15909499 -0.40377837
v 0.1871881 -0.03732898 -0.15811977
v 0.32616362 -0.13529916 -0.3002145
v 0.095193826 -0.01903014 -0.12185112
v -0.00047702788 1.5055695E-08 -0.109693564
v 0.2561629 -0.10630387 -0.21789755
v 0.17629963 -0.073223375 -0.15811977
v 0.089642935 -0.037328947 -0.12185112
v -0.00047702788 1.5055695E-08 -0.109693564
v 0.38361168 -0.25664017 -0.52703434
v 0.3451937 -0.23097007 -0.40377837
v 0.29349175 -0.1964239 -0.3002145
v 0.23049277 -0.15432926 -0.21789755
v 0.15861773 -0.10630384 -0.15811977
v 0.40726936 -0.27244774 -0.6682333
v 0.08062878 -0.054193225 -0.12185112
v -0.00047702788 1.5055695E-08 -0.109693564
v 0.4152576 -0.27778533 -0.82550216
v 0.4072694 -0.27244776 -0.99691325
v 0.3836117 -0.25664017 -1.1805441
v 0.3451937 -0.23097004 -1.374526
v 0.29349175 -0.19642387 -1.5770772
v 0.23049274 -0.15432921 -1.7865168
v 0.13482185 -0.135299 -2.001265
v 0.19594657 -0.1964238 -1.7865168
v 0.24952282 -0.25000012 -1.5770772
v 0.2934917 -0.29396906 -1.374526
v 0.3261635 -0.32664093 -1.1805441
v 0.053716034 -0.08110571 -2.2198238
v -0.00047702788 8.2024115E-08 -2.440744
v 0.10582658 -0.15909477 -2.001265
v 0.15385194 -0.23096992 -1.7865168
v 0.1959465 -0.293969 -1.5770772
v 0.03685177 -0.090119824 -2.2198238
v -0.00047702788 8.2024115E-08 -2.440744
v 0.0727461 -0.17677662 -2.001265
v 0.34628272 -0.34676012 -0.99691325
v 0.23049262 -0.345671 -1.374526
v 0.10582651 -0.25664002 -1.7865168
v 0.018552983 -0.095670685 -2.2198238
v -0.00047702788 8.2024115E-08 -2.440744
v 0.036851708 -0.18766502 -2.0012653
v 0.13482173 -0.3266408 -1.5770772
v 0.25616267 -0.38408905 -1.1805441
v 0.35307613 -0.35355356 -0.82550216
v -0.00047712206 -0.097544976 -2.2198238
v -0.00047702788 8.2024115E-08 -2.440744
v -0.00047721266 -0.19134155 -2.0012653
v 0.053715914 -0.2724475 -1.7865168
v -0.0004772961 -0.27778503 -1.7865168
v 0.06849751 -0.34675997 -1.5770772
v -0.00047736926 -0.35355335 -1.5770772
v 0.15861748 -0.384089 -1.374526
v 0.08062845 -0.4077466 -1.374526
v -0.00047742933 -0.41573477 -1.374526
v 0.17629932 -0.4267768 -1.1805441
v 0.089642555 -0.45306376 -1.1805441
v -0.00047747395 -0.46193972 -1.1805441
v 0.27197024 -0.40774673 -0.99691325
v 0.18718775 -0.45306385 -0.99691325
v 0.0951934 -0.4809699 -0.99691325
v -0.00047750145 -0.4903926 -0.99691325
v 0.27730778 -0.415735 -0.82550216
v 0.19086431 -0.4619399 -0.82550216
v 0.0970677 -0.4903927 -0.82550216
v -0.00047751068 -0.49999994 -0.82550216
v 0.3462827 -0.34676012 -0.6682333
v 0.2719702 -0.40774673 -0.6682333
v 0.32616347 -0.32664093 -0.52703434
v 0.18718773 -0.45306382 -0.6682333
v 0.0951934 -0.4809699 -0.6682333
v -0.00047750145 -0.49039257 -0.6682333
v 0.2934917 -0.29396906 -0.40377837
v 0.25616264 -0.38408905 -0.52703434
v 0.1762993 -0.4267768 -0.52703434
v 0.08964254 -0.45306376 -0.52703434
v -0.00047747395 -0.46193972 -0.52703434
v 0.24952282 -0.25000015 -0.30021447
v 0.23049262 -0.34567103 -0.40377837
v 0.15861748 -0.38408905 -0.40377837
v 0.08062845 -0.40774664 -0.40377834
v -0.00047742933 -0.41573483 -0.40377834
v 0.19594659 -0.19642387 -0.21789755
v 0.1959465 -0.293969 -0.3002145
v 0.13482173 -0.32664084 -0.3002145
v 0.06849751 -0.34676 -0.3002145
v -0.00047736926 -0.35355338 -0.3002145
v 0.13482192 -0.1352991 -0.15811977
v 0.15385196 -0.23097 -0.21789755
v 0.10582653 -0.25664008 -0.21789755
v 0.053715926 -0.2724476 -0.21789755
v -0.0004772961 -0.2777851 -0.21789755
v 0.06849778 -0.06897488 -0.12185112
v -0.00047702788 1.5055695E-08 -0.109693564
v 0.105826624 -0.1590949 -0.15811977
v 0.072746135 -0.17677677 -0.15811977
v 0.036851726 -0.18766518 -0.15811977
v -0.00047721266 -0.1913417 -0.15811977
v 0.053716104 -0.08110586 -0.12185112
v -0.00047702788 1.5055695E-08 -0.109693564
v 0.036851816 -0.09011999 -0.12185112
v -0.00047702788 1.5055695E-08 -0.109693564
v 0.018553006 -0.09567086 -0.12185112
v -0.00047702788 1.5055695E-08 -0.109693564
v -0.00047712206 -0.09754515 -0.12185112
v -0.00047702788 1.5055695E-08 -0.109693564
vt -1.3311836E-07 -1.004251E-07
vt 0.06249981 0.06229059
vt 0.062499806 -1.004251E-07
vt 0.12499981 0.06229059
vt 0.12499981 -1.004251E-07
vt 0.1874998 0.06229059
vt 0.1874998 -1.004251E-07
vt 0.2499998 0.06229059
vt 0.2499998 -1.004251E-07
vt 0.31249982 0.062290356
vt 0.31249982 -1.004251E-07
vt 0.37499982 0.062290356
vt 0.37499982 -3.380452E-07
vt 0.43749982 0.062290356
vt 0.43749982 -3.380452E-07
vt 0.49999982 0.062290356
vt 0.49999982 -3.380452E-07
vt 0.56249976 0.062290356
vt 0.56249976 -3.380452E-07
vt 0.62499976 0.062290356
vt 0.62499976 -3.380452E-07
vt 0.68749976 0.062290236
vt 0.68749976 -3.380452E-07
vt 0.7499999 0.062290236
vt 0.7499999 -3.380452E-07
vt 0.81249976 0.062290236
vt 0.81249976 -3.380452E-07
vt 0.87499976 0.062290236
vt 0.87499976 -3.380452E-07
vt 0.9374999 0.062290236
vt 0.9374999 -3.380452E-07
vt 0.9999999 -3.380452E-07
vt 0.9374999 0.12458092
vt 0.9999999 0.062290236
vt 0.87499976 0.12458092
vt 0.81249976 0.12458092
vt 0.7499999 0.12458092
vt 0.9374999 0.18687162
vt 0.9999999 0.12458092
vt 0.87499976 0.18687162
vt 0.68749976 0.12458092
vt 0.81249976 0.18687162
vt 0.9374999 0.2491623
vt 0.9999999 0.18687162
vt 0.87499976 0.2491623
vt 0.7499999 0.18687162
vt 0.62499976 0.12458104
vt 0.9374999 0.311453
vt 0.9999999 0.2491623
vt 0.81249976 0.2491623
vt 0.68749976 0.18687162
vt 0.56249976 0.12458104
vt 0.8749999 0.311453
vt 0.7499999 0.2491623
vt 0.62499976 0.18687174
vt 0.49999982 0.12458104
vt 0.9374999 0.3737437
vt 0.9999999 0.311453
vt 0.8124999 0.311453
vt 0.68749976 0.2491623
vt 0.56249976 0.18687174
vt 0.43749982 0.12458104
vt 0.8749999 0.3737437
vt 0.7499999 0.311453
vt 0.62499976 0.24916242
vt 0.49999982 0.18687174
vt 0.37499982 0.12458104
vt 0.9374999 0.43603438
vt 1 0.3737437
vt 0.68749976 0.311453
vt 0.56249976 0.24916242
vt 0.43749982 0.18687174
vt 0.31249982 0.12458104
vt 0.62499976 0.31145313
vt 0.49999982 0.24916242
vt 0.37499982 0.18687174
vt 0.2499998 0.12458104
vt 0.56249976 0.31145313
vt 0.43749982 0.24916242
vt 0.31249982 0.18687174
vt 0.1874998 0.12458128
vt 0.49999982 0.31145313
vt 0.37499982 0.24916242
vt 0.2499998 0.18687174
vt 0.12499981 0.12458128
vt 0.43749982 0.31145313
vt 0.31249982 0.24916242
vt 0.1874998 0.18687198
vt 0.06249981 0.12458128
vt -1.3175239E-07 0.06229059
vt 0.124999814 0.18687198
vt 0.2499998 0.24916242
vt 0.37499982 0.31145313
vt 0.06249981 0.18687198
vt -1.3038641E-07 0.12458128
vt 0.1874998 0.24916242
vt 0.31249982 0.31145313
vt 0.124999814 0.24916266
vt 0.24999982 0.31145313
vt 0.062499814 0.24916266
vt -1.290204E-07 0.18687198
vt 0.18749982 0.31145313
vt 0.124999814 0.31145337
vt 0.062499814 0.31145337
vt -1.2765443E-07 0.24916266
vt 0.37499982 0.37374383
vt 0.31249982 0.37374383
vt 0.24999982 0.37374383
vt 0.18749982 0.37374383
vt 0.124999814 0.37374407
vt 0.43749982 0.37374383
vt 0.062499814 0.37374407
vt -1.2628846E-07 0.31145337
vt 0.49999982 0.37374383
vt 0.56249976 0.37374383
vt 0.62499976 0.37374383
vt 0.68749976 0.3737437
vt 0.7499999 0.3737437
vt 0.8124999 0.3737437
vt 0.8749999 0.43603438
vt 0.8124999 0.43603438
vt 0.7499999 0.43603438
vt 0.68749976 0.43603438
vt 0.62499976 0.4360345
vt 0.9374999 0.49832508
vt 1 0.43603438
vt 0.8749999 0.49832508
vt 0.8124999 0.49832508
vt 0.7499999 0.49832508
vt 0.9374999 0.5606157
vt 1 0.49832508
vt 0.8749999 0.5606157
vt 0.56249976 0.4360345
vt 0.68749976 0.49832508
vt 0.8124999 0.5606157
vt 0.9374999 0.62290645
vt 1 0.5606157
vt 0.8749999 0.62290645
vt 0.7499999 0.5606157
vt 0.62499976 0.4983252
vt 0.49999982 0.4360345
vt 0.9375 0.6851971
vt 1 0.62290645
vt 0.8124999 0.62290645
vt 0.68749976 0.5606157
vt 0.56249976 0.4983252
vt 0.43749982 0.4360345
vt 0.8749999 0.6851971
vt 0.7499999 0.62290645
vt 0.62499976 0.56061584
vt 0.49999982 0.4983252
vt 0.37499982 0.4360345
vt 0.9375 0.74748784
vt 1 0.6851971
vt 0.68749976 0.62290645
vt 0.56249976 0.56061584
vt 0.43749982 0.4983252
vt 0.31249982 0.4360345
vt 0.62499976 0.62290657
vt 0.49999982 0.56061584
vt 0.37499982 0.4983252
vt 0.24999982 0.4360345
vt 0.56249976 0.62290657
vt 0.43749982 0.56061584
vt 0.31249982 0.4983252
vt 0.18749982 0.4360345
vt 0.49999982 0.62290657
vt 0.37499982 0.56061584
vt 0.24999982 0.4983252
vt 0.124999814 0.4360345
vt 0.43749982 0.62290657
vt 0.31249982 0.56061584
vt 0.18749982 0.4983252
vt 0.062499817 0.4360345
vt -1.2492248E-07 0.37374407
vt 0.12499982 0.4983252
vt 0.24999982 0.56061584
vt 0.37499982 0.62290657
vt 0.062499817 0.4983252
vt -1.235565E-07 0.4360345
vt 0.18749982 0.56061584
vt 0.31249982 0.62290657
vt 0.12499982 0.56061584
vt 0.24999982 0.62290657
vt 0.06249982 0.56061584
vt -1.2219053E-07 0.4983252
vt 0.18749982 0.62290657
vt 0.12499982 0.62290657
vt 0.06249982 0.62290657
vt -1.2082455E-07 0.56061584
vt 0.37499988 0.68519723
vt 0.31249988 0.68519723
vt 0.24999988 0.68519723
vt 0.18749988 0.68519723
vt 0.12499988 0.68519723
vt 0.43749988 0.68519723
vt 0.06249988 0.68519723
vt -1.1945855E-07 0.62290657
vt 0.49999988 0.68519723
vt 0.5624999 0.68519723
vt 0.6249999 0.68519723
vt 0.6874999 0.6851971
vt 0.7499999 0.6851971
vt 0.8124999 0.6851971
vt 0.8749999 0.74748784
vt 0.8124999 0.74748784
vt 0.7499999 0.74748784
vt 0.6874999 0.74748784
vt 0.6249999 0.74748796
vt 0.9375 0.8097785
vt 1 0.74748784
vt 0.8749999 0.8097785
vt 0.8124999 0.8097785
vt 0.7499999 0.8097785
vt 0.9375 0.8720692
vt 1 0.8097785
vt 0.8749999 0.8720692
vt 0.5624999 0.74748796
vt 0.6874999 0.8097785
vt 0.8124999 0.8720692
vt 0.9375 0.9343599
vt 1 0.8720692
vt 0.8749999 0.9343599
vt 0.7499999 0.8720692
vt 0.6249999 0.80977863
vt 0.49999988 0.74748796
vt 0.9375 0.9966506
vt 1 0.9343599
vt 0.8749999 0.9966506
vt 0.8124999 0.9343599
vt 0.8124999 0.9966506
vt 0.7499999 0.9343599
vt 0.7499999 0.9966506
vt 0.6874999 0.8720692
vt 0.6874999 0.9343599
vt 0.6874999 0.9966506
vt 0.6249999 0.8720693
vt 0.6249999 0.93436
vt 0.6249999 0.9966508
vt 0.5624999 0.80977863
vt 0.5624999 0.8720693
vt 0.5624999 0.93436
vt 0.5624999 0.9966508
vt 0.49999988 0.80977863
vt 0.49999988 0.8720693
vt 0.49999988 0.93436
vt 0.49999988 0.9966508
vt 0.43749988 0.74748796
vt 0.43749988 0.80977863
vt 0.37499988 0.74748796
vt 0.43749988 0.8720693
vt 0.43749988 0.93436
vt 0.43749988 0.9966508
vt 0.31249988 0.74748796
vt 0.37499988 0.80977863
vt 0.37499988 0.8720693
vt 0.37499988 0.93436
vt 0.37499988 0.9966508
vt 0.24999988 0.74748796
vt 0.31249988 0.80977863
vt 0.31249988 0.8720693
vt 0.31249988 0.93436027
vt 0.31249988 0.99665093
vt 0.18749988 0.74748796
vt 0.24999988 0.80977863
vt 0.24999988 0.8720693
vt 0.24999988 0.93436027
vt 0.2499999 0.99665093
vt 0.12499988 0.74748796
vt 0.18749988 0.80977863
vt 0.18749988 0.8720693
vt 0.18749988 0.93436027
vt 0.1874999 0.99665093
vt 0.062499885 0.74748796
vt -1.1809257E-07 0.68519723
vt 0.12499989 0.80977863
vt 0.12499989 0.8720693
vt 0.12499989 0.93436027
vt 0.12499989 0.99665093
vt 0.062499885 0.80977863
vt -1.16726596E-07 0.74748796
vt 0.062499885 0.8720693
vt -1.1536062E-07 0.80977863
vt 0.06249989 0.93436027
vt -1.13994645E-07 0.8720693
vt 0.06249989 0.99665093
vt -1.1262864E-07 0.93436027
vt -1.3311836E-07 -1.004251E-07
vt 0.062499806 -1.004251E-07
vt 0.06249981 0.06229059
vt 0.12499981 0.06229059
vt 0.12499981 -1.004251E-07
vt 0.1874998 0.06229059
vt 0.1874998 -1.004251E-07
vt 0.2499998 0.06229059
vt 0.2499998 -1.004251E-07
vt 0.31249982 0.062290356
vt 0.31249982 -1.004251E-07
vt 0.37499982 0.062290356
vt 0.37499982 -3.380452E-07
vt 0.43749982 0.062290356
vt 0.43749982 -3.380452E-07
vt 0.49999982 0.062290356
vt 0.49999982 -3.380452E-07
vt 0.56249976 0.062290356
vt 0.56249976 -3.380452E-07
vt 0.62499976 0.062290356
vt 0.62499976 -3.380452E-07
vt 0.68749976 0.062290236
vt 0.68749976 -3.380452E-07
vt 0.7499999 0.062290236
vt 0.7499999 -3.380452E-07
vt 0.81249976 0.062290236
vt 0.81249976 -3.380452E-07
vt 0.87499976 0.062290236
vt 0.87499976 -3.380452E-07
vt 0.9374999 0.062290236
vt 0.9374999 -3.380452E-07
vt 0.9999999 -3.380452E-07
vt 0.9374999 0.12458092
vt 0.9999999 0.062290236
vt 0.87499976 0.12458092
vt 0.81249976 0.12458092
vt 0.7499999 0.12458092
vt 0.9374999 0.18687162
vt 0.9999999 0.12458092
vt 0.87499976 0.18687162
vt 0.68749976 0.12458092
vt 0.81249976 0.18687162
vt 0.9374999 0.2491623
vt 0.9999999 0.18687162
vt 0.87499976 0.2491623
vt 0.7499999 0.18687162
vt 0.62499976 0.12458104
vt 0.9374999 0.311453
vt 0.9999999 0.2491623
vt 0.81249976 0.2491623
vt 0.68749976 0.18687162
vt 0.56249976 0.12458104
vt 0.8749999 0.311453
vt 0.7499999 0.2491623
vt 0.62499976 0.18687174
vt 0.49999982 0.12458104
vt 0.9374999 0.3737437
vt 0.9999999 0.311453
vt 0.8124999 0.311453
vt 0.68749976 0.2491623
vt 0.56249976 0.18687174
vt 0.43749982 0.12458104
vt 0.8749999 0.3737437
vt 0.7499999 0.311453
vt 0.62499976 0.24916242
vt 0.49999982 0.18687174
vt 0.37499982 0.12458104
vt 0.9374999 0.43603438
vt 1 0.3737437
vt 0.68749976 0.311453
vt 0.56249976 0.24916242
vt 0.43749982 0.18687174
vt 0.31249982 0.12458104
vt 0.62499976 0.31145313
vt 0.49999982 0.24916242
vt 0.37499982 0.18687174
vt 0.2499998 0.12458104
vt 0.56249976 0.31145313
vt 0.43749982 0.24916242
vt 0.31249982 0.18687174
vt 0.1874998 0.12458128
vt 0.49999982 0.31145313
vt 0.37499982 0.24916242
vt 0.2499998 0.18687174
vt 0.12499981 0.12458128
vt 0.43749982 0.31145313
vt 0.31249982 0.24916242
vt 0.1874998 0.18687198
vt 0.06249981 0.12458128
vt -1.3175239E-07 0.06229059
vt 0.124999814 0.18687198
vt 0.2499998 0.24916242
vt 0.37499982 0.31145313
vt 0.06249981 0.18687198
vt -1.3038641E-07 0.12458128
vt 0.1874998 0.24916242
vt 0.31249982 0.31145313
vt 0.124999814 0.24916266
vt 0.24999982 0.31145313
vt 0.062499814 0.24916266
vt -1.290204E-07 0.18687198
vt 0.18749982 0.31145313
vt 0.124999814 0.31145337
vt 0.062499814 0.31145337
vt -1.2765443E-07 0.24916266
vt 0.37499982 0.37374383
vt 0.31249982 0.37374383
vt 0.24999982 0.37374383
vt 0.18749982 0.37374383
vt 0.124999814 0.37374407
vt 0.43749982 0.37374383
vt 0.062499814 0.37374407
vt -1.2628846E-07 0.31145337
vt 0.49999982 0.37374383
vt 0.56249976 0.37374383
vt 0.62499976 0.37374383
vt 0.68749976 0.3737437
vt 0.7499999 0.3737437
vt 0.8124999 0.3737437
vt 0.8749999 0.43603438
vt 0.8124999 0.43603438
vt 0.7499999 0.43603438
vt 0.68749976 0.43603438
vt 0.62499976 0.4360345
vt 0.9374999 0.49832508
vt 1 0.43603438
vt 0.8749999 0.49832508
vt 0.8124999 0.49832508
vt 0.7499999 0.49832508
vt 0.9374999 0.5606157
vt 1 0.49832508
vt 0.8749999 0.5606157
vt 0.56249976 0.4360345
vt 0.68749976 0.49832508
vt 0.8124999 0.5606157
vt 0.9374999 0.62290645
vt 1 0.5606157
vt 0.8749999 0.62290645
vt 0.7499999 0.5606157
vt 0.62499976 0.4983252
vt 0.49999982 0.4360345
vt 0.9375 0.6851971
vt 1 0.62290645
vt 0.8124999 0.62290645
vt 0.68749976 0.5606157
vt 0.56249976 0.4983252
vt 0.43749982 0.4360345
vt 0.8749999 0.6851971
vt 0.7499999 0.62290645
vt 0.62499976 0.56061584
vt 0.49999982 0.4983252
vt 0.37499982 0.4360345
vt 0.9375 0.74748784
vt 1 0.6851971
vt 0.68749976 0.62290645
vt 0.56249976 0.56061584
vt 0.43749982 0.4983252
vt 0.31249982 0.4360345
vt 0.62499976 0.62290657
vt 0.49999982 0.56061584
vt 0.37499982 0.4983252
vt 0.24999982 0.4360345
vt 0.56249976 0.62290657
vt 0.43749982 0.56061584
vt 0.31249982 0.4983252
vt 0.18749982 0.4360345
vt 0.49999982 0.62290657
vt 0.37499982 0.56061584
vt 0.24999982 0.4983252
vt 0.124999814 0.4360345
vt 0.43749982 0.62290657
vt 0.31249982 0.56061584
vt 0.18749982 0.4983252
vt 0.062499817 0.4360345
vt -1.2492248E-07 0.37374407
vt 0.12499982 0.4983252
vt 0.24999982 0.56061584
vt 0.37499982 0.62290657
vt 0.062499817 0.4983252
vt -1.235565E-07 0.4360345
vt 0.18749982 0.56061584
vt 0.31249982 0.62290657
vt 0.12499982 0.56061584
vt 0.24999982 0.62290657
vt 0.06249982 0.56061584
vt -1.2219053E-07 0.4983252
vt 0.18749982 0.62290657
vt 0.12499982 0.62290657
vt 0.06249982 0.62290657
vt -1.2082455E-07 0.56061584
vt 0.37499988 0.68519723
vt 0.31249988 0.68519723
vt 0.24999988 0.68519723
vt 0.18749988 0.68519723
vt 0.12499988 0.68519723
vt 0.43749988 0.68519723
vt 0.06249988 0.68519723
vt -1.1945855E-07 0.62290657
vt 0.49999988 0.68519723
vt 0.5624999 0.68519723
vt 0.6249999 0.68519723
vt 0.6874999 0.6851971
vt 0.7499999 0.6851971
vt 0.8124999 0.6851971
vt 0.8749999 0.74748784
vt 0.8124999 0.74748784
vt 0.7499999 0.74748784
vt 0.6874999 0.74748784
vt 0.6249999 0.74748796
vt 0.9375 0.8097785
vt 1 0.74748784
vt 0.8749999 0.8097785
vt 0.8124999 0.8097785
vt 0.7499999 0.8097785
vt 0.9375 0.8720692
vt 1 0.8097785
vt 0.8749999 0.8720692
vt 0.5624999 0.74748796
vt 0.6874999 0.8097785
vt 0.8124999 0.8720692
vt 0.9375 0.9343599
vt 1 0.8720692
vt 0.8749999 0.9343599
vt 0.7499999 0.8720692
vt 0.6249999 0.80977863
vt 0.49999988 0.74748796
vt 0.9375 0.9966506
vt 1 0.9343599
vt 0.8749999 0.9966506
vt 0.8124999 0.9343599
vt 0.8124999 0.9966506
vt 0.7499999 0.9343599
vt 0.7499999 0.9966506
vt 0.6874999 0.8720692
vt 0.6874999 0.9343599
vt 0.6874999 0.9966506
vt 0.6249999 0.8720693
vt 0.6249999 0.93436
vt 0.6249999 0.9966508
vt 0.5624999 0.80977863
vt 0.5624999 0.8720693
vt 0.5624999 0.93436
vt 0.5624999 0.9966508
vt 0.49999988 0.80977863
vt 0.49999988 0.8720693
vt 0.49999988 0.93436
vt 0.49999988 0.9966508
vt 0.43749988 0.74748796
vt 0.43749988 0.80977863
vt 0.37499988 0.74748796
vt 0.43749988 0.8720693
vt 0.43749988 0.93436
vt 0.43749988 0.9966508
vt 0.31249988 0.74748796
vt 0.37499988 0.80977863
vt 0.37499988 0.8720693
vt 0.37499988 0.93436
vt 0.37499988 0.9966508
vt 0.24999988 0.74748796
vt 0.31249988 0.80977863
vt 0.31249988 0.8720693
vt 0.31249988 0.93436027
vt 0.31249988 0.99665093
vt 0.18749988 0.74748796
vt 0.24999988 0.80977863
vt 0.24999988 0.8720693
vt 0.24999988 0.93436027
vt 0.2499999 0.99665093
vt 0.12499988 0.74748796
vt 0.18749988 0.80977863
vt 0.18749988 0.8720693
vt 0.18749988 0.93436027
vt 0.1874999 0.99665093
vt 0.062499885 0.74748796
vt -1.1809257E-07 0.68519723
vt 0.12499989 0.80977863
vt 0.12499989 0.8720693
vt 0.12499989 0.93436027
vt 0.12499989 0.99665093
vt 0.062499885 0.80977863
vt -1.16726596E-07 0.74748796
vt 0.062499885 0.8720693
vt -1.1536062E-07 0.80977863
vt 0.06249989 0.93436027
vt -1.13994645E-07 0.8720693
vt 0.06249989 0.99665093
vt -1.1262864E-07 0.93436027
vn -0 0 1
vn -0.048996307 0.2463211 0.967949
vn -1.9577382E-07 0.25114673 0.967949
vn -0.092409424 0.46457368 0.8806996
vn -3.2508137E-07 0.47367525 0.8806996
vn -0.12879907 0.6475166 0.7510879
vn -3.9395954E-07 0.66020215 0.7510879
vn -0.15664479 0.7875064 0.5960672
vn -4.782948E-07 0.80293447 0.59606725
vn -0.17590182 0.88431823 0.43248108
vn -5.406856E-07 0.90164304 0.43248105
vn -0.18763259 0.94329315 0.27384663
vn -5.45089E-07 0.9617734 0.2738466
vn -0.19345972 0.9725884 0.12901573
vn -6.1167265E-07 0.9916426 0.12901577
vn -0.1950897 0.9807823 0.0025024458
vn -7.1156853E-07 0.9999969 0.0025024982
vn -0.19402525 0.9754309 -0.10434869
vn -6.844035E-07 0.99454075 -0.104348764
vn -0.19145693 0.9625189 -0.19209823
vn -6.0477225E-07 0.9813757 -0.19209816
vn -0.18826374 0.9464654 -0.26222137
vn -5.8030713E-07 0.9650078 -0.2622214
vn -0.18506345 0.93037647 -0.31646675
vn -5.9891556E-07 0.94860363 -0.31646678
vn -0.18227272 0.916347 -0.35648978
vn -4.8642994E-07 0.9342992 -0.35648978
vn -0.1801601 0.90572613 -0.38366985
vn -2.6690657E-07 0.92347026 -0.38366985
vn -0.17888539 0.8993175 -0.39903376
vn -4.1208366E-07 0.9169363 -0.39903373
vn -0 -5.2906003E-06 -1
vn -0.35089648 0.8471385 -0.39903376
vn -0 -5.2906003E-06 -1
vn -0.35339704 0.8531752 -0.38366982
vn -0.35754088 0.8631799 -0.35648975
vn -0.36301485 0.8763955 -0.31646672
vn -0.5094225 0.7624047 -0.39903376
vn -0 -5.2906003E-06 -1
vn -0.51305276 0.7678375 -0.38366973
vn -0.36929244 0.8915509 -0.26222134
vn -0.51906884 0.7768414 -0.3564898
vn -0.6483718 0.6483718 -0.3990338
vn -0 -5.2906003E-06 -1
vn -0.65299207 0.65299207 -0.3836699
vn -0.5270158 0.7887351 -0.3164667
vn -0.37555614 0.90667295 -0.19209814
vn -0.76240474 0.5094224 -0.39903378
vn -0 -5.2906003E-06 -1
vn -0.6606493 0.66064936 -0.35648984
vn -0.5361296 0.8023746 -0.26222137
vn -0.38059413 0.91883594 -0.10434875
vn -0.7678377 0.51305234 -0.3836698
vn -0.670764 0.670764 -0.31646672
vn -0.5452232 0.81598413 -0.19209819
vn -0.38268214 0.92387664 0.0025024489
vn -0.8471387 0.35089627 -0.39903376
vn -0 -5.2906003E-06 -1
vn -0.7768414 0.5190687 -0.35648987
vn -0.6823635 0.6823635 -0.26222128
vn -0.55253726 0.8269304 -0.10434878
vn -0.37948516 0.91615826 0.12901574
vn -0.8531754 0.35339668 -0.3836699
vn -0.78873503 0.5270159 -0.3164667
vn -0.6939374 0.69393736 -0.19209814
vn -0.5555685 0.8314671 0.0025024638
vn -0.3680548 0.88856274 0.27384666
vn -0.8993176 0.17888536 -0.39903373
vn -0 -5.2906003E-06 -1
vn -0.8023746 0.5361296 -0.2622213
vn -0.7032466 0.7032464 -0.10434883
vn -0.55092704 0.82452065 0.12901582
vn -0.3450438 0.8330096 0.43248108
vn -0.81598413 0.5452232 -0.19209814
vn -0.70710444 0.7071046 0.0025024323
vn -0.5343328 0.79968536 0.2738466
vn -0.30726966 0.74181485 0.59606713
vn -0.8269304 0.55253714 -0.10434885
vn -0.7011971 0.70119727 0.12901586
vn -0.5009261 0.74968874 0.43248093
vn -0.2526484 0.60994726 0.75108796
vn -0.831467 0.5555685 0.0025024195
vn -0.6800764 0.6800765 0.27384657
vn -0.4460865 0.6676157 0.5960672
vn -0.18126757 0.43761894 0.8806996
vn -0.82452065 0.55092704 0.12901585
vn -0.63755786 0.6375579 0.432481
vn -0.36678872 0.54893804 0.75108796
vn -0.09610966 0.23202938 0.967949
vn -0 0 1
vn -0.2631599 0.39384657 0.8806996
vn -0.5677604 0.5677605 0.5960672
vn -0.79968536 0.5343328 0.27384654
vn -0.13952965 0.20882088 0.967949
vn -0 0 1
vn -0.4668334 0.46683347 0.7510879
vn -0.7496887 0.5009262 0.43248096
vn -0.33493897 0.33493903 0.8806996
vn -0.6676156 0.4460867 0.59606725
vn -0.17758758 0.17758758 0.967949
vn -0 0 1
vn -0.5489379 0.36678872 0.75108796
vn -0.39384654 0.2631599 0.8806996
vn -0.2088209 0.13952968 0.967949
vn -0 0 1
vn -0.8885629 0.36805454 0.27384648
vn -0.83300966 0.34504378 0.4324809
vn -0.74181473 0.30726972 0.5960673
vn -0.6099471 0.25264832 0.751088
vn -0.43761894 0.18126756 0.8806996
vn -0.9161584 0.37948492 0.12901582
vn -0.23202938 0.096109636 0.967949
vn -0 0 1
vn -0.92387676 0.382682 0.0025024374
vn -0.91883594 0.38059407 -0.10434886
vn -0.90667295 0.37555608 -0.1920981
vn -0.8915509 0.36929238 -0.2622213
vn -0.8763955 0.36301482 -0.31646678
vn -0.8631799 0.35754064 -0.35648987
vn -0.90572613 0.18016022 -0.38366985
vn -0.9163469 0.1822726 -0.3564899
vn -0.93037647 0.1850631 -0.31646672
vn -0.9464654 0.18826339 -0.26222128
vn -0.9625189 0.19145663 -0.19209816
vn -0.9169363 -3.2871418E-07 -0.3990338
vn -0 -5.2906003E-06 -1
vn -0.92347026 -2.6452352E-07 -0.3836699
vn -0.9342992 -2.9090418E-07 -0.3564898
vn -0.94860363 -4.3188734E-07 -0.31646678
vn -0.8993174 -0.17888607 -0.3990338
vn -0 -5.2906003E-06 -1
vn -0.9057259 -0.18016092 -0.38366988
vn -0.97543097 0.19402504 -0.104348846
vn -0.9650078 -4.5851434E-07 -0.26222134
vn -0.9163468 -0.18227331 -0.3564898
vn -0.8471385 -0.3508964 -0.39903376
vn -0 -5.2906003E-06 -1
vn -0.8531753 -0.3533968 -0.38366982
vn -0.93037647 -0.18506385 -0.31646675
vn -0.9813757 -3.442182E-07 -0.19209816
vn -0.9807823 0.1950894 0.0025024358
vn -0.7624044 -0.5094228 -0.39903387
vn -0 -5.2906003E-06 -1
vn -0.86317986 -0.35754105 -0.35648984
vn -0.9464653 -0.18826407 -0.2622214
vn -0.99454075 -2.2494382E-07 -0.10434885
vn -0.97258854 0.1934596 0.1290158
vn -0.7678373 -0.5130529 -0.38366988
vn -0.87639534 -0.36301517 -0.31646672
vn -0.96251875 -0.19145732 -0.19209816
vn -0.9999969 -1.9406419E-07 0.0025024242
vn -0.9432933 0.1876324 0.2738464
vn -0.64837116 -0.6483725 -0.39903378
vn -0 -5.2906003E-06 -1
vn -0.8915507 -0.36929277 -0.2622214
vn -0.9754309 -0.19402578 -0.10434888
vn -0.9916426 -1.94296E-07 0.1290158
vn -0.8843184 0.17590155 0.4324809
vn -0.9066728 -0.37555662 -0.19209816
vn -0.98078215 -0.19509019 0.0025024193
vn -0.9617734 -2.5453497E-07 0.27384648
vn -0.78750646 0.15664436 0.5960672
vn -0.9188357 -0.38059476 -0.10434884
vn -0.9725883 -0.19346035 0.12901577
vn -0.90164304 -4.2293635E-07 0.43248096
vn -0.6475165 0.12879877 0.751088
vn -0.92387635 -0.38268268 0.0025024144
vn -0.94329304 -0.18763311 0.2738465
vn -0.8029345 -4.903123E-07 0.5960672
vn -0.46457377 0.092409335 0.8806996
vn -0.9161581 -0.37948567 0.12901576
vn -0.8843181 -0.17590222 0.43248105
vn -0.6602022 -2.930675E-07 0.7510879
vn -0.24632104 0.04899623 0.967949
vn -0 0 1
vn -0.47367525 -1.1035972E-07 0.8806996
vn -0.7875064 -0.15664513 0.59606713
vn -0.8885626 -0.36805514 0.27384648
vn -0.25114673 0 0.967949
vn -0 0 1
vn -0.64751655 -0.12879938 0.75108784
vn -0.8330094 -0.34504417 0.43248105
vn -0.46457362 -0.09240967 0.8806996
vn -0.7418147 -0.30727002 0.59606713
vn -0.24632101 -0.04899642 0.967949
vn -0 0 1
vn -0.60994714 -0.25264868 0.7510879
vn -0.4376188 -0.1812679 0.8806996
vn -0.23202932 -0.09610981 0.967949
vn -0 0 1
vn -0.7996851 -0.53433305 0.27384645
vn -0.74968857 -0.50092643 0.43248096
vn -0.6676156 -0.44608673 0.59606713
vn -0.54893786 -0.3667888 0.75108796
vn -0.39384648 -0.26316002 0.8806996
vn -0.8245204 -0.5509275 0.12901571
vn -0.20882083 -0.13952975 0.967949
vn -0 0 1
vn -0.83146673 -0.55556893 0.0025024132
vn -0.8269301 -0.5525377 -0.104348816
vn -0.8159838 -0.54522353 -0.19209814
vn -0.8023744 -0.5361299 -0.26222137
vn -0.7887349 -0.5270163 -0.3164668
vn -0.77684116 -0.51906914 -0.35648984
vn -0.6529914 -0.6529928 -0.38366982
vn -0.6606487 -0.6606498 -0.35648993
vn -0.67076355 -0.67076445 -0.31646678
vn -0.68236315 -0.682364 -0.2622214
vn -0.693937 -0.69393784 -0.19209813
vn -0.5094218 -0.762405 -0.3990337
vn -0 -5.2906003E-06 -1
vn -0.513052 -0.7678379 -0.3836699
vn -0.5190682 -0.7768417 -0.35648993
vn -0.52701527 -0.78873557 -0.31646675
vn -0.35089582 -0.84713876 -0.39903378
vn -0 -5.2906003E-06 -1
vn -0.35339636 -0.85317546 -0.38366988
vn -0.7032461 -0.7032469 -0.10434886
vn -0.536129 -0.802375 -0.26222134
vn -0.35754016 -0.8631801 -0.35648984
vn -0.17888486 -0.8993176 -0.3990339
vn -0 -5.2906003E-06 -1
vn -0.18015972 -0.90572613 -0.38366997
vn -0.3630141 -0.87639576 -0.31646675
vn -0.5452225 -0.8159845 -0.1920981
vn -0.70710415 -0.7071049 0.0025023832
vn 1.0266364E-06 -0.91693616 -0.39903387
vn -0 -5.2906003E-06 -1
vn 9.580041E-07 -0.92347026 -0.3836699
vn -0.18227199 -0.916347 -0.35648987
vn 9.0371054E-07 -0.9342992 -0.3564898
vn -0.18506248 -0.93037665 -0.31646672
vn 9.568334E-07 -0.94860363 -0.31646678
vn -0.3692917 -0.8915513 -0.2622214
vn -0.18826278 -0.9464656 -0.26222134
vn 9.719547E-07 -0.9650078 -0.26222134
vn -0.37555543 -0.90667325 -0.19209811
vn -0.19145602 -0.9625191 -0.19209817
vn 9.920177E-07 -0.9813757 -0.19209816
vn -0.5525367 -0.8269308 -0.10434893
vn -0.38059348 -0.9188361 -0.104348965
vn -0.19402435 -0.9754311 -0.104348935
vn 1.0433565E-06 -0.99454075 -0.1043489
vn -0.5555679 -0.8314674 0.0025024004
vn -0.3826814 -0.923877 0.0025023825
vn -0.19508871 -0.9807824 0.0025023716
vn 1.1332392E-06 -0.9999969 0.0025023932
vn -0.7011968 -0.70119756 0.12901573
vn -0.55092645 -0.824521 0.12901574
vn -0.68007606 -0.68007684 0.27384645
vn -0.37948444 -0.91615856 0.12901579
vn -0.19345894 -0.9725886 0.12901577
vn 1.1513838E-06 -0.9916426 0.12901571
vn -0.63755757 -0.6375583 0.43248096
vn -0.53433216 -0.7996858 0.27384642
vn -0.368054 -0.8885631 0.27384633
vn -0.18763182 -0.9432934 0.2738464
vn 1.0325476E-06 -0.9617734 0.2738464
vn -0.56776005 -0.56776077 0.59606725
vn -0.5009254 -0.74968916 0.432481
vn -0.34504315 -0.83300984 0.43248105
vn -0.17590098 -0.8843184 0.432481
vn 9.107551E-07 -0.90164304 0.43248102
vn -0.46683306 -0.46683368 0.751088
vn -0.44608596 -0.667616 0.5960672
vn -0.30726916 -0.74181503 0.5960673
vn -0.15664403 -0.7875066 0.59606725
vn 8.171872E-07 -0.8029345 0.5960672
vn -0.33493873 -0.33493915 0.8806996
vn -0.3667882 -0.54893833 0.75108796
vn -0.25264794 -0.60994744 0.75108796
vn -0.12879843 -0.64751667 0.75108796
vn 6.5459756E-07 -0.6602022 0.7510879
vn -0.17758746 -0.17758767 0.967949
vn -0 0 1
vn -0.26315963 -0.39384672 0.8806997
vn -0.18126729 -0.437619 0.8806996
vn -0.09240898 -0.46457377 0.8806996
vn 4.570332E-07 -0.47367522 0.8806997
vn -0.1395295 -0.20882097 0.967949
vn -0 0 1
vn -0.096109495 -0.23202941 0.967949
vn -0 0 1
vn -0.048996076 -0.24632113 0.967949
vn -0 0 1
vn 2.5265004E-07 -0.25114673 0.967949
vn -0 0 1
vn -0 0 1
vn -1.9577382E-07 0.25114673 0.967949
vn -0.048996307 0.2463211 0.967949
vn -0.092409424 0.46457368 0.8806996
vn -3.2508137E-07 0.47367525 0.8806996
vn -0.12879907 0.6475166 0.7510879
vn -3.9395954E-07 0.66020215 0.7510879
vn -0.15664479 0.7875064 0.5960672
vn -4.782948E-07 0.80293447 0.59606725
vn -0.17590182 0.88431823 0.43248108
vn -5.406856E-07 0.90164304 0.43248105
vn -0.18763259 0.94329315 0.27384663
vn -5.45089E-07 0.9617734 0.2738466
vn -0.19345972 0.9725884 0.12901573
vn -6.1167265E-07 0.9916426 0.12901577
vn -0.1950897 0.9807823 0.0025024458
vn -7.1156853E-07 0.9999969 0.0025024982
vn -0.19402525 0.9754309 -0.10434869
vn -6.844035E-07 0.99454075 -0.104348764
vn -0.19145693 0.9625189 -0.19209823
vn -6.0477225E-07 0.9813757 -0.19209816
vn -0.18826374 0.9464654 -0.26222137
vn -5.8030713E-07 0.9650078 -0.2622214
vn -0.18506345 0.93037647 -0.31646675
vn -5.9891556E-07 0.94860363 -0.31646678
vn -0.18227272 0.916347 -0.35648978
vn -4.8642994E-07 0.9342992 -0.35648978
vn -0.1801601 0.90572613 -0.38366985
vn -2.6690657E-07 0.92347026 -0.38366985
vn -0.17888539 0.8993175 -0.39903376
vn -4.1208366E-07 0.9169363 -0.39903373
vn -0 -5.2906003E-06 -1
vn -0.35089648 0.8471385 -0.39903376
vn -0 -5.2906003E-06 -1
vn -0.35339704 0.8531752 -0.38366982
vn -0.35754088 0.8631799 -0.35648975
vn -0.36301485 0.8763955 -0.31646672
vn -0.5094225 0.7624047 -0.39903376
vn -0 -5.2906003E-06 -1
vn -0.51305276 0.7678375 -0.38366973
vn -0.36929244 0.8915509 -0.26222134
vn -0.51906884 0.7768414 -0.3564898
vn -0.6483718 0.6483718 -0.3990338
vn -0 -5.2906003E-06 -1
vn -0.65299207 0.65299207 -0.3836699
vn -0.5270158 0.7887351 -0.3164667
vn -0.37555614 0.90667295 -0.19209814
vn -0.76240474 0.5094224 -0.39903378
vn -0 -5.2906003E-06 -1
vn -0.6606493 0.66064936 -0.35648984
vn -0.5361296 0.8023746 -0.26222137
vn -0.38059413 0.91883594 -0.10434875
vn -0.7678377 0.51305234 -0.3836698
vn -0.670764 0.670764 -0.31646672
vn -0.5452232 0.81598413 -0.19209819
vn -0.38268214 0.92387664 0.0025024489
vn -0.8471387 0.35089627 -0.39903376
vn -0 -5.2906003E-06 -1
vn -0.7768414 0.5190687 -0.35648987
vn -0.6823635 0.6823635 -0.26222128
vn -0.55253726 0.8269304 -0.10434878
vn -0.37948516 0.91615826 0.12901574
vn -0.8531754 0.35339668 -0.3836699
vn -0.78873503 0.5270159 -0.3164667
vn -0.6939374 0.69393736 -0.19209814
vn -0.5555685 0.8314671 0.0025024638
vn -0.3680548 0.88856274 0.27384666
vn -0.8993176 0.17888536 -0.39903373
vn -0 -5.2906003E-06 -1
vn -0.8023746 0.5361296 -0.2622213
vn -0.7032466 0.7032464 -0.10434883
vn -0.55092704 0.82452065 0.12901582
vn -0.3450438 0.8330096 0.43248108
vn -0.81598413 0.5452232 -0.19209814
vn -0.70710444 0.7071046 0.0025024323
vn -0.5343328 0.79968536 0.2738466
vn -0.30726966 0.74181485 0.59606713
vn -0.8269304 0.55253714 -0.10434885
vn -0.7011971 0.70119727 0.12901586
vn -0.5009261 0.74968874 0.43248093
vn -0.2526484 0.60994726 0.75108796
vn -0.831467 0.5555685 0.0025024195
vn -0.6800764 0.6800765 0.27384657
vn -0.4460865 0.6676157 0.5960672
vn -0.18126757 0.43761894 0.8806996
vn -0.82452065 0.55092704 0.12901585
vn -0.63755786 0.6375579 0.432481
vn -0.36678872 0.54893804 0.75108796
vn -0.09610966 0.23202938 0.967949
vn -0 0 1
vn -0.2631599 0.39384657 0.8806996
vn -0.5677604 0.5677605 0.5960672
vn -0.79968536 0.5343328 0.27384654
vn -0.13952965 0.20882088 0.967949
vn -0 0 1
vn -0.4668334 0.46683347 0.7510879
vn -0.7496887 0.5009262 0.43248096
vn -0.33493897 0.33493903 0.8806996
vn -0.6676156 0.4460867 0.59606725
vn -0.17758758 0.17758758 0.967949
vn -0 0 1
vn -0.5489379 0.36678872 0.75108796
vn -0.39384654 0.2631599 0.8806996
vn -0.2088209 0.13952968 0.967949
vn -0 0 1
vn -0.8885629 0.36805454 0.27384648
vn -0.83300966 0.34504378 0.4324809
vn -0.74181473 0.30726972 0.5960673
vn -0.6099471 0.25264832 0.751088
vn -0.43761894 0.18126756 0.8806996
vn -0.9161584 0.37948492 0.12901582
vn -0.23202938 0.096109636 0.967949
vn -0 0 1
vn -0.92387676 0.382682 0.0025024374
vn -0.91883594 0.38059407 -0.10434886
vn -0.90667295 0.37555608 -0.1920981
vn -0.8915509 0.36929238 -0.2622213
vn -0.8763955 0.36301482 -0.31646678
vn -0.8631799 0.35754064 -0.35648987
vn -0.90572613 0.18016022 -0.38366985
vn -0.9163469 0.1822726 -0.3564899
vn -0.93037647 0.1850631 -0.31646672
vn -0.9464654 0.18826339 -0.26222128
vn -0.9625189 0.19145663 -0.19209816
vn -0.9169363 -3.2871418E-07 -0.3990338
vn -0 -5.2906003E-06 -1
vn -0.92347026 -2.6452352E-07 -0.3836699
vn -0.9342992 -2.9090418E-07 -0.3564898
vn -0.94860363 -4.3188734E-07 -0.31646678
vn -0.8993174 -0.17888607 -0.3990338
vn -0 -5.2906003E-06 -1
vn -0.9057259 -0.18016092 -0.38366988
vn -0.97543097 0.19402504 -0.104348846
vn -0.9650078 -4.5851434E-07 -0.26222134
vn -0.9163468 -0.18227331 -0.3564898
vn -0.8471385 -0.3508964 -0.39903376
vn -0 -5.2906003E-06 -1
vn -0.8531753 -0.3533968 -0.38366982
vn -0.93037647 -0.18506385 -0.31646675
vn -0.9813757 -3.442182E-07 -0.19209816
vn -0.9807823 0.1950894 0.0025024358
vn -0.7624044 -0.5094228 -0.39903387
vn -0 -5.2906003E-06 -1
vn -0.86317986 -0.35754105 -0.35648984
vn -0.9464653 -0.18826407 -0.2622214
vn -0.99454075 -2.2494382E-07 -0.10434885
vn -0.97258854 0.1934596 0.1290158
vn -0.7678373 -0.5130529 -0.38366988
vn -0.87639534 -0.36301517 -0.31646672
vn -0.96251875 -0.19145732 -0.19209816
vn -0.9999969 -1.9406419E-07 0.0025024242
vn -0.9432933 0.1876324 0.2738464
vn -0.64837116 -0.6483725 -0.39903378
vn -0 -5.2906003E-06 -1
vn -0.8915507 -0.36929277 -0.2622214
vn -0.9754309 -0.19402578 -0.10434888
vn -0.9916426 -1.94296E-07 0.1290158
vn -0.8843184 0.17590155 0.4324809
vn -0.9066728 -0.37555662 -0.19209816
vn -0.98078215 -0.19509019 0.0025024193
vn -0.9617734 -2.5453497E-07 0.27384648
vn -0.78750646 0.15664436 0.5960672
vn -0.9188357 -0.38059476 -0.10434884
vn -0.9725883 -0.19346035 0.12901577
vn -0.90164304 -4.2293635E-07 0.43248096
vn -0.6475165 0.12879877 0.751088
vn -0.92387635 -0.38268268 0.0025024144
vn -0.94329304 -0.18763311 0.2738465
vn -0.8029345 -4.903123E-07 0.5960672
vn -0.46457377 0.092409335 0.8806996
vn -0.9161581 -0.37948567 0.12901576
vn -0.8843181 -0.17590222 0.43248105
vn -0.6602022 -2.930675E-07 0.7510879
vn -0.24632104 0.04899623 0.967949
vn -0 0 1
vn -0.47367525 -1.1035972E-07 0.8806996
vn -0.7875064 -0.15664513 0.59606713
vn -0.8885626 -0.36805514 0.27384648
vn -0.25114673 0 0.967949
vn -0 0 1
vn -0.64751655 -0.12879938 0.75108784
vn -0.8330094 -0.34504417 0.43248105
vn -0.46457362 -0.09240967 0.8806996
vn -0.7418147 -0.30727002 0.59606713
vn -0.24632101 -0.04899642 0.967949
vn -0 0 1
vn -0.60994714 -0.25264868 0.7510879
vn -0.4376188 -0.1812679 0.8806996
vn -0.23202932 -0.09610981 0.967949
vn -0 0 1
vn -0.7996851 -0.53433305 0.27384645
vn -0.74968857 -0.50092643 0.43248096
vn -0.6676156 -0.44608673 0.59606713
vn -0.54893786 -0.3667888 0.75108796
vn -0.39384648 -0.26316002 0.8806996
vn -0.8245204 -0.5509275 0.12901571
vn -0.20882083 -0.13952975 0.967949
vn -0 0 1
vn -0.83146673 -0.55556893 0.0025024132
vn -0.8269301 -0.5525377 -0.104348816
vn -0.8159838 -0.54522353 -0.19209814
vn -0.8023744 -0.5361299 -0.26222137
vn -0.7887349 -0.5270163 -0.3164668
vn -0.77684116 -0.51906914 -0.35648984
vn -0.6529914 -0.6529928 -0.38366982
vn -0.6606487 -0.6606498 -0.35648993
vn -0.67076355 -0.67076445 -0.31646678
vn -0.68236315 -0.682364 -0.2622214
vn -0.693937 -0.69393784 -0.19209813
vn -0.5094218 -0.762405 -0.3990337
vn -0 -5.2906003E-06 -1
vn -0.513052 -0.7678379 -0.3836699
vn -0.5190682 -0.7768417 -0.35648993
vn -0.52701527 -0.78873557 -0.31646675
vn -0.35089582 -0.84713876 -0.39903378
vn -0 -5.2906003E-06 -1
vn -0.35339636 -0.85317546 -0.38366988
vn -0.7032461 -0.7032469 -0.10434886
vn -0.536129 -0.802375 -0.26222134
vn -0.35754016 -0.8631801 -0.35648984
vn -0.17888486 -0.8993176 -0.3990339
vn -0 -5.2906003E-06 -1
vn -0.18015972 -0.90572613 -0.38366997
vn -0.3630141 -0.87639576 -0.31646675
vn -0.5452225 -0.8159845 -0.1920981
vn -0.70710415 -0.7071049 0.0025023832
vn 1.0266364E-06 -0.91693616 -0.39903387
vn -0 -5.2906003E-06 -1
vn 9.580041E-07 -0.92347026 -0.3836699
vn -0.18227199 -0.916347 -0.35648987
vn 9.0371054E-07 -0.9342992 -0.3564898
vn -0.18506248 -0.93037665 -0.31646672
vn 9.568334E-07 -0.94860363 -0.31646678
vn -0.3692917 -0.8915513 -0.2622214
vn -0.18826278 -0.9464656 -0.26222134
vn 9.719547E-07 -0.9650078 -0.26222134
vn -0.37555543 -0.90667325 -0.19209811
vn -0.19145602 -0.9625191 -0.19209817
vn 9.920177E-07 -0.9813757 -0.19209816
vn -0.5525367 -0.8269308 -0.10434893
vn -0.38059348 -0.9188361 -0.104348965
vn -0.19402435 -0.9754311 -0.104348935
vn 1.0433565E-06 -0.99454075 -0.1043489
vn -0.5555679 -0.8314674 0.0025024004
vn -0.3826814 -0.923877 0.0025023825
vn -0.19508871 -0.9807824 0.0025023716
vn 1.1332392E-06 -0.9999969 0.0025023932
vn -0.7011968 -0.70119756 0.12901573
vn -0.55092645 -0.824521 0.12901574
vn -0.68007606 -0.68007684 0.27384645
vn -0.37948444 -0.91615856 0.12901579
vn -0.19345894 -0.9725886 0.12901577
vn 1.1513838E-06 -0.9916426 0.12901571
vn -0.63755757 -0.6375583 0.43248096
vn -0.53433216 -0.7996858 0.27384642
vn -0.368054 -0.8885631 0.27384633
vn -0.18763182 -0.9432934 0.2738464
vn 1.0325476E-06 -0.9617734 0.2738464
vn -0.56776005 -0.56776077 0.59606725
vn -0.5009254 -0.74968916 0.432481
vn -0.34504315 -0.83300984 0.43248105
vn -0.17590098 -0.8843184 0.432481
vn 9.107551E-07 -0.90164304 0.43248102
vn -0.46683306 -0.46683368 0.751088
vn -0.44608596 -0.667616 0.5960672
vn -0.30726916 -0.74181503 0.5960673
vn -0.15664403 -0.7875066 0.59606725
vn 8.171872E-07 -0.8029345 0.5960672
vn -0.33493873 -0.33493915 0.8806996
vn -0.3667882 -0.54893833 0.75108796
vn -0.25264794 -0.60994744 0.75108796
vn -0.12879843 -0.64751667 0.75108796
vn 6.5459756E-07 -0.6602022 0.7510879
vn -0.17758746 -0.17758767 0.967949
vn -0 0 1
vn -0.26315963 -0.39384672 0.8806997
vn -0.18126729 -0.437619 0.8806996
vn -0.09240898 -0.46457377 0.8806996
vn 4.570332E-07 -0.47367522 0.8806997
vn -0.1395295 -0.20882097 0.967949
vn -0 0 1
vn -0.096109495 -0.23202941 0.967949
vn -0 0 1
vn -0.048996076 -0.24632113 0.967949
vn -0 0 1
vn 2.5265004E-07 -0.25114673 0.967949
vn -0 0 1
g FX_Sphere_Half_003_0
f 3/3/3 2/2/2 1/1/1
f 4/4/4 2/2/2 3/3/3
f 5/5/5 4/4/4 3/3/3
f 6/6/6 4/4/4 5/5/5
f 7/7/7 6/6/6 5/5/5
f 8/8/8 6/6/6 7/7/7
f 9/9/9 8/8/8 7/7/7
f 10/10/10 8/8/8 9/9/9
f 11/11/11 10/10/10 9/9/9
f 12/12/12 10/10/10 11/11/11
f 13/13/13 12/12/12 11/11/11
f 14/14/14 12/12/12 13/13/13
f 15/15/15 14/14/14 13/13/13
f 16/16/16 14/14/14 15/15/15
f 17/17/17 16/16/16 15/15/15
f 18/18/18 16/16/16 17/17/17
f 19/19/19 18/18/18 17/17/17
f 20/20/20 18/18/18 19/19/19
f 21/21/21 20/20/20 19/19/19
f 22/22/22 20/20/20 21/21/21
f 23/23/23 22/22/22 21/21/21
f 24/24/24 22/22/22 23/23/23
f 25/25/25 24/24/24 23/23/23
f 26/26/26 24/24/24 25/25/25
f 27/27/27 26/26/26 25/25/25
f 28/28/28 26/26/26 27/27/27
f 29/29/29 28/28/28 27/27/27
f 30/30/30 28/28/28 29/29/29
f 31/31/31 30/30/30 29/29/29
f 30/30/30 31/31/31 32/32/32
f 30/30/30 33/33/33 28/28/28
f 33/33/33 30/30/30 34/34/34
f 28/28/28 35/35/35 26/26/26
f 33/33/33 35/35/35 28/28/28
f 26/26/26 36/36/36 24/24/24
f 35/35/35 36/36/36 26/26/26
f 24/24/24 37/37/37 22/22/22
f 36/36/36 37/37/37 24/24/24
f 33/33/33 38/38/38 35/35/35
f 38/38/38 33/33/33 39/39/39
f 35/35/35 40/40/40 36/36/36
f 38/38/38 40/40/40 35/35/35
f 37/37/37 41/41/41 22/22/22
f 22/22/22 41/41/41 20/20/20
f 36/36/36 42/42/42 37/37/37
f 40/40/40 42/42/42 36/36/36
f 38/38/38 43/43/43 40/40/40
f 43/43/43 38/38/38 44/44/44
f 43/43/43 45/45/45 40/40/40
f 40/40/40 45/45/45 42/42/42
f 42/42/42 46/46/46 37/37/37
f 37/37/37 46/46/46 41/41/41
f 41/41/41 47/47/47 20/20/20
f 20/20/20 47/47/47 18/18/18
f 43/43/43 48/48/48 45/45/45
f 48/48/48 43/43/43 49/49/49
f 45/45/45 50/50/50 42/42/42
f 42/42/42 50/50/50 46/46/46
f 46/46/46 51/51/51 41/41/41
f 41/41/41 51/51/51 47/47/47
f 47/47/47 52/52/52 18/18/18
f 18/18/18 52/52/52 16/16/16
f 48/48/48 53/53/53 45/45/45
f 45/45/45 53/53/53 50/50/50
f 50/50/50 54/54/54 46/46/46
f 46/46/46 54/54/54 51/51/51
f 51/51/51 55/55/55 47/47/47
f 47/47/47 55/55/55 52/52/52
f 52/52/52 56/56/56 16/16/16
f 16/16/16 56/56/56 14/14/14
f 48/48/48 57/57/57 53/53/53
f 57/57/57 48/48/48 58/58/58
f 53/53/53 59/59/59 50/50/50
f 50/50/50 59/59/59 54/54/54
f 54/54/54 60/60/60 51/51/51
f 51/51/51 60/60/60 55/55/55
f 55/55/55 61/61/61 52/52/52
f 52/52/52 61/61/61 56/56/56
f 56/56/56 62/62/62 14/14/14
f 14/14/14 62/62/62 12/12/12
f 57/57/57 63/63/63 53/53/53
f 53/53/53 63/63/63 59/59/59
f 59/59/59 64/64/64 54/54/54
f 54/54/54 64/64/64 60/60/60
f 60/60/60 65/65/65 55/55/55
f 55/55/55 65/65/65 61/61/61
f 61/61/61 66/66/66 56/56/56
f 56/56/56 66/66/66 62/62/62
f 62/62/62 67/67/67 12/12/12
f 12/12/12 67/67/67 10/10/10
f 57/57/57 68/68/68 63/63/63
f 68/68/68 57/57/57 69/69/69
f 64/64/64 70/70/70 60/60/60
f 60/60/60 70/70/70 65/65/65
f 65/65/65 71/71/71 61/61/61
f 61/61/61 71/71/71 66/66/66
f 66/66/66 72/72/72 62/62/62
f 62/62/62 72/72/72 67/67/67
f 67/67/67 73/73/73 10/10/10
f 10/10/10 73/73/73 8/8/8
f 70/70/70 74/74/74 65/65/65
f 65/65/65 74/74/74 71/71/71
f 71/71/71 75/75/75 66/66/66
f 66/66/66 75/75/75 72/72/72
f 72/72/72 76/76/76 67/67/67
f 67/67/67 76/76/76 73/73/73
f 73/73/73 77/77/77 8/8/8
f 8/8/8 77/77/77 6/6/6
f 74/74/74 78/78/78 71/71/71
f 71/71/71 78/78/78 75/75/75
f 75/75/75 79/79/79 72/72/72
f 72/72/72 79/79/79 76/76/76
f 76/76/76 80/80/80 73/73/73
f 73/73/73 80/80/80 77/77/77
f 77/77/77 81/81/81 6/6/6
f 6/6/6 81/81/81 4/4/4
f 78/78/78 82/82/82 75/75/75
f 75/75/75 82/82/82 79/79/79
f 79/79/79 83/83/83 76/76/76
f 76/76/76 83/83/83 80/80/80
f 80/80/80 84/84/84 77/77/77
f 77/77/77 84/84/84 81/81/81
f 81/81/81 85/85/85 4/4/4
f 4/4/4 85/85/85 2/2/2
f 82/82/82 86/86/86 79/79/79
f 79/79/79 86/86/86 83/83/83
f 83/83/83 87/87/87 80/80/80
f 80/80/80 87/87/87 84/84/84
f 84/84/84 88/88/88 81/81/81
f 81/81/81 88/88/88 85/85/85
f 85/85/85 89/89/89 2/2/2
f 2/2/2 89/89/89 90/90/90
f 85/85/85 91/91/91 89/89/89
f 88/88/88 91/91/91 85/85/85
f 84/84/84 92/92/92 88/88/88
f 87/87/87 92/92/92 84/84/84
f 83/83/83 93/93/93 87/87/87
f 86/86/86 93/93/93 83/83/83
f 91/91/91 94/94/94 89/89/89
f 89/89/89 94/94/94 95/95/95
f 88/88/88 96/96/96 91/91/91
f 92/92/92 96/96/96 88/88/88
f 87/87/87 97/97/97 92/92/92
f 93/93/93 97/97/97 87/87/87
f 91/91/91 98/98/98 94/94/94
f 96/96/96 98/98/98 91/91/91
f 92/92/92 99/99/99 96/96/96
f 97/97/97 99/99/99 92/92/92
f 98/98/98 100/100/100 94/94/94
f 94/94/94 100/100/100 101/101/101
f 96/96/96 102/102/102 98/98/98
f 99/99/99 102/102/102 96/96/96
f 98/98/98 103/103/103 100/100/100
f 102/102/102 103/103/103 98/98/98
f 103/103/103 104/104/104 100/100/100
f 100/100/100 104/104/104 105/105/105
f 93/93/93 106/106/106 97/97/97
f 97/97/97 107/107/107 99/99/99
f 106/106/106 107/107/107 97/97/97
f 99/99/99 108/108/108 102/102/102
f 107/107/107 108/108/108 99/99/99
f 102/102/102 109/109/109 103/103/103
f 108/108/108 109/109/109 102/102/102
f 103/103/103 110/110/110 104/104/104
f 109/109/109 110/110/110 103/103/103
f 111/111/111 106/106/106 93/93/93
f 86/86/86 111/111/111 93/93/93
f 110/110/110 112/112/112 104/104/104
f 104/104/104 112/112/112 113/113/113
f 114/114/114 111/111/111 86/86/86
f 82/82/82 114/114/114 86/86/86
f 115/115/115 114/114/114 82/82/82
f 78/78/78 115/115/115 82/82/82
f 116/116/116 115/115/115 78/78/78
f 74/74/74 116/116/116 78/78/78
f 117/117/117 116/116/116 74/74/74
f 70/70/70 117/117/117 74/74/74
f 118/118/118 117/117/117 70/70/70
f 64/64/64 118/118/118 70/70/70
f 119/119/119 118/118/118 64/64/64
f 59/59/59 119/119/119 64/64/64
f 63/63/63 119/119/119 59/59/59
f 63/63/63 120/120/120 119/119/119
f 68/68/68 120/120/120 63/63/63
f 119/119/119 121/121/121 118/118/118
f 120/120/120 121/121/121 119/119/119
f 118/118/118 122/122/122 117/117/117
f 121/121/121 122/122/122 118/118/118
f 117/117/117 123/123/123 116/116/116
f 122/122/122 123/123/123 117/117/117
f 116/116/116 124/124/124 115/115/115
f 123/123/123 124/124/124 116/116/116
f 68/68/68 125/125/125 120/120/120
f 125/125/125 68/68/68 126/126/126
f 120/120/120 127/127/127 121/121/121
f 125/125/125 127/127/127 120/120/120
f 121/121/121 128/128/128 122/122/122
f 127/127/127 128/128/128 121/121/121
f 122/122/122 129/129/129 123/123/123
f 128/128/128 129/129/129 122/122/122
f 125/125/125 130/130/130 127/127/127
f 130/130/130 125/125/125 131/131/131
f 127/127/127 132/132/132 128/128/128
f 130/130/130 132/132/132 127/127/127
f 124/124/124 133/133/133 115/115/115
f 115/115/115 133/133/133 114/114/114
f 123/123/123 134/134/134 124/124/124
f 129/129/129 134/134/134 123/123/123
f 128/128/128 135/135/135 129/129/129
f 132/132/132 135/135/135 128/128/128
f 130/130/130 136/136/136 132/132/132
f 136/136/136 130/130/130 137/137/137
f 136/136/136 138/138/138 132/132/132
f 132/132/132 138/138/138 135/135/135
f 135/135/135 139/139/139 129/129/129
f 129/129/129 139/139/139 134/134/134
f 134/134/134 140/140/140 124/124/124
f 124/124/124 140/140/140 133/133/133
f 133/133/133 141/141/141 114/114/114
f 114/114/114 141/141/141 111/111/111
f 136/136/136 142/142/142 138/138/138
f 142/142/142 136/136/136 143/143/143
f 138/138/138 144/144/144 135/135/135
f 135/135/135 144/144/144 139/139/139
f 139/139/139 145/145/145 134/134/134
f 134/134/134 145/145/145 140/140/140
f 140/140/140 146/146/146 133/133/133
f 133/133/133 146/146/146 141/141/141
f 141/141/141 147/147/147 111/111/111
f 111/111/111 147/147/147 106/106/106
f 142/142/142 148/148/148 138/138/138
f 138/138/138 148/148/148 144/144/144
f 144/144/144 149/149/149 139/139/139
f 139/139/139 149/149/149 145/145/145
f 145/145/145 150/150/150 140/140/140
f 140/140/140 150/150/150 146/146/146
f 146/146/146 151/151/151 141/141/141
f 141/141/141 151/151/151 147/147/147
f 147/147/147 152/152/152 106/106/106
f 106/106/106 152/152/152 107/107/107
f 142/142/142 153/153/153 148/148/148
f 153/153/153 142/142/142 154/154/154
f 149/149/149 155/155/155 145/145/145
f 145/145/145 155/155/155 150/150/150
f 150/150/150 156/156/156 146/146/146
f 146/146/146 156/156/156 151/151/151
f 151/151/151 157/157/157 147/147/147
f 147/147/147 157/157/157 152/152/152
f 152/152/152 158/158/158 107/107/107
f 107/107/107 158/158/158 108/108/108
f 155/155/155 159/159/159 150/150/150
f 150/150/150 159/159/159 156/156/156
f 156/156/156 160/160/160 151/151/151
f 151/151/151 160/160/160 157/157/157
f 157/157/157 161/161/161 152/152/152
f 152/152/152 161/161/161 158/158/158
f 158/158/158 162/162/162 108/108/108
f 108/108/108 162/162/162 109/109/109
f 159/159/159 163/163/163 156/156/156
f 156/156/156 163/163/163 160/160/160
f 160/160/160 164/164/164 157/157/157
f 157/157/157 164/164/164 161/161/161
f 161/161/161 165/165/165 158/158/158
f 158/158/158 165/165/165 162/162/162
f 162/162/162 166/166/166 109/109/109
f 109/109/109 166/166/166 110/110/110
f 163/163/163 167/167/167 160/160/160
f 160/160/160 167/167/167 164/164/164
f 164/164/164 168/168/168 161/161/161
f 161/161/161 168/168/168 165/165/165
f 165/165/165 169/169/169 162/162/162
f 162/162/162 169/169/169 166/166/166
f 166/166/166 170/170/170 110/110/110
f 110/110/110 170/170/170 112/112/112
f 167/167/167 171/171/171 164/164/164
f 164/164/164 171/171/171 168/168/168
f 168/168/168 172/172/172 165/165/165
f 165/165/165 172/172/172 169/169/169
f 169/169/169 173/173/173 166/166/166
f 166/166/166 173/173/173 170/170/170
f 170/170/170 174/174/174 112/112/112
f 112/112/112 174/174/174 175/175/175
f 170/170/170 176/176/176 174/174/174
f 173/173/173 176/176/176 170/170/170
f 169/169/169 177/177/177 173/173/173
f 172/172/172 177/177/177 169/169/169
f 168/168/168 178/178/178 172/172/172
f 171/171/171 178/178/178 168/168/168
f 176/176/176 179/179/179 174/174/174
f 174/174/174 179/179/179 180/180/180
f 173/173/173 181/181/181 176/176/176
f 177/177/177 181/181/181 173/173/173
f 172/172/172 182/182/182 177/177/177
f 178/178/178 182/182/182 172/172/172
f 176/176/176 183/183/183 179/179/179
f 181/181/181 183/183/183 176/176/176
f 177/177/177 184/184/184 181/181/181
f 182/182/182 184/184/184 177/177/177
f 183/183/183 185/185/185 179/179/179
f 179/179/179 185/185/185 186/186/186
f 181/181/181 187/187/187 183/183/183
f 184/184/184 187/187/187 181/181/181
f 183/183/183 188/188/188 185/185/185
f 187/187/187 188/188/188 183/183/183
f 188/188/188 189/189/189 185/185/185
f 185/185/185 189/189/189 190/190/190
f 178/178/178 191/191/191 182/182/182
f 182/182/182 192/192/192 184/184/184
f 191/191/191 192/192/192 182/182/182
f 184/184/184 193/193/193 187/187/187
f 192/192/192 193/193/193 184/184/184
f 187/187/187 194/194/194 188/188/188
f 193/193/193 194/194/194 187/187/187
f 188/188/188 195/195/195 189/189/189
f 194/194/194 195/195/195 188/188/188
f 196/196/196 191/191/191 178/178/178
f 171/171/171 196/196/196 178/178/178
f 195/195/195 197/197/197 189/189/189
f 189/189/189 197/197/197 198/198/198
f 199/199/199 196/196/196 171/171/171
f 167/167/167 199/199/199 171/171/171
f 200/200/200 199/199/199 167/167/167
f 163/163/163 200/200/200 167/167/167
f 201/201/201 200/200/200 163/163/163
f 159/159/159 201/201/201 163/163/163
f 202/202/202 201/201/201 159/159/159
f 155/155/155 202/202/202 159/159/159
f 203/203/203 202/202/202 155/155/155
f 149/149/149 203/203/203 155/155/155
f 204/204/204 203/203/203 149/149/149
f 144/144/144 204/204/204 149/149/149
f 148/148/148 204/204/204 144/144/144
f 148/148/148 205/205/205 204/204/204
f 153/153/153 205/205/205 148/148/148
f 204/204/204 206/206/206 203/203/203
f 205/205/205 206/206/206 204/204/204
f 203/203/203 207/207/207 202/202/202
f 206/206/206 207/207/207 203/203/203
f 202/202/202 208/208/208 201/201/201
f 207/207/207 208/208/208 202/202/202
f 201/201/201 209/209/209 200/200/200
f 208/208/208 209/209/209 201/201/201
f 153/153/153 210/210/210 205/205/205
f 210/210/210 153/153/153 211/211/211
f 205/205/205 212/212/212 206/206/206
f 210/210/210 212/212/212 205/205/205
f 206/206/206 213/213/213 207/207/207
f 212/212/212 213/213/213 206/206/206
f 207/207/207 214/214/214 208/208/208
f 213/213/213 214/214/214 207/207/207
f 210/210/210 215/215/215 212/212/212
f 215/215/215 210/210/210 216/216/216
f 212/212/212 217/217/217 213/213/213
f 215/215/215 217/217/217 212/212/212
f 209/209/209 218/218/218 200/200/200
f 200/200/200 218/218/218 199/199/199
f 208/208/208 219/219/219 209/209/209
f 214/214/214 219/219/219 208/208/208
f 213/213/213 220/220/220 214/214/214
f 217/217/217 220/220/220 213/213/213
f 215/215/215 221/221/221 217/217/217
f 221/221/221 215/215/215 222/222/222
f 221/221/221 223/223/223 217/217/217
f 217/217/217 223/223/223 220/220/220
f 220/220/220 224/224/224 214/214/214
f 214/214/214 224/224/224 219/219/219
f 219/219/219 225/225/225 209/209/209
f 209/209/209 225/225/225 218/218/218
f 218/218/218 226/226/226 199/199/199
f 199/199/199 226/226/226 196/196/196
f 221/221/221 227/227/227 223/223/223
f 227/227/227 221/221/221 228/228/228
f 227/227/227 229/229/229 223/223/223
f 223/223/223 230/230/230 220/220/220
f 223/223/223 229/229/229 230/230/230
f 220/220/220 230/230/230 224/224/224
f 229/229/229 231/231/231 230/230/230
f 230/230/230 231/231/231 232/232/232
f 230/230/230 232/232/232 224/224/224
f 231/231/231 233/233/233 232/232/232
f 224/224/224 232/232/232 234/234/234
f 224/224/224 234/234/234 219/219/219
f 219/219/219 234/234/234 225/225/225
f 232/232/232 233/233/233 235/235/235
f 232/232/232 235/235/235 234/234/234
f 233/233/233 236/236/236 235/235/235
f 234/234/234 237/237/237 225/225/225
f 234/234/234 235/235/235 237/237/237
f 235/235/235 236/236/236 238/238/238
f 235/235/235 238/238/238 237/237/237
f 236/236/236 239/239/239 238/238/238
f 225/225/225 237/237/237 240/240/240
f 225/225/225 240/240/240 218/218/218
f 218/218/218 240/240/240 226/226/226
f 237/237/237 238/238/238 241/241/241
f 237/237/237 241/241/241 240/240/240
f 238/238/238 239/239/239 242/242/242
f 238/238/238 242/242/242 241/241/241
f 239/239/239 243/243/243 242/242/242
f 240/240/240 244/244/244 226/226/226
f 240/240/240 241/241/241 244/244/244
f 241/241/241 242/242/242 245/245/245
f 241/241/241 245/245/245 244/244/244
f 242/242/242 243/243/243 246/246/246
f 242/242/242 246/246/246 245/245/245
f 243/243/243 247/247/247 246/246/246
f 226/226/226 244/244/244 248/248/248
f 226/226/226 248/248/248 196/196/196
f 196/196/196 248/248/248 191/191/191
f 244/244/244 245/245/245 249/249/249
f 244/244/244 249/249/249 248/248/248
f 248/248/248 250/250/250 191/191/191
f 248/248/248 249/249/249 250/250/250
f 191/191/191 250/250/250 192/192/192
f 245/245/245 246/246/246 251/251/251
f 245/245/245 251/251/251 249/249/249
f 246/246/246 247/247/247 252/252/252
f 246/246/246 252/252/252 251/251/251
f 247/247/247 253/253/253 252/252/252
f 250/250/250 254/254/254 192/192/192
f 192/192/192 254/254/254 193/193/193
f 249/249/249 255/255/255 250/250/250
f 249/249/249 251/251/251 255/255/255
f 250/250/250 255/255/255 254/254/254
f 251/251/251 252/252/252 256/256/256
f 251/251/251 256/256/256 255/255/255
f 252/252/252 253/253/253 257/257/257
f 252/252/252 257/257/257 256/256/256
f 253/253/253 258/258/258 257/257/257
f 254/254/254 259/259/259 193/193/193
f 193/193/193 259/259/259 194/194/194
f 255/255/255 260/260/260 254/254/254
f 255/255/255 256/256/256 260/260/260
f 254/254/254 260/260/260 259/259/259
f 256/256/256 257/257/257 261/261/261
f 256/256/256 261/261/261 260/260/260
f 257/257/257 258/258/258 262/262/262
f 257/257/257 262/262/262 261/261/261
f 258/258/258 263/263/263 262/262/262
f 259/259/259 264/264/264 194/194/194
f 194/194/194 264/264/264 195/195/195
f 260/260/260 265/265/265 259/259/259
f 260/260/260 261/261/261 265/265/265
f 259/259/259 265/265/265 264/264/264
f 261/261/261 262/262/262 266/266/266
f 261/261/261 266/266/266 265/265/265
f 262/262/262 263/263/263 267/267/267
f 262/262/262 267/267/267 266/266/266
f 263/263/263 268/268/268 267/267/267
f 264/264/264 269/269/269 195/195/195
f 195/195/195 269/269/269 197/197/197
f 265/265/265 270/270/270 264/264/264
f 265/265/265 266/266/266 270/270/270
f 264/264/264 270/270/270 269/269/269
f 266/266/266 267/267/267 271/271/271
f 266/266/266 271/271/271 270/270/270
f 267/267/267 268/268/268 272/272/272
f 267/267/267 272/272/272 271/271/271
f 268/268/268 273/273/273 272/272/272
f 269/269/269 274/274/274 197/197/197
f 197/197/197 274/274/274 275/275/275
f 270/270/270 276/276/276 269/269/269
f 270/270/270 271/271/271 276/276/276
f 269/269/269 276/276/276 274/274/274
f 271/271/271 272/272/272 277/277/277
f 271/271/271 277/277/277 276/276/276
f 272/272/272 273/273/273 278/278/278
f 272/272/272 278/278/278 277/277/277
f 273/273/273 279/279/279 278/278/278
f 276/276/276 280/280/280 274/274/274
f 276/276/276 277/277/277 280/280/280
f 274/274/274 280/280/280 281/281/281
f 277/277/277 282/282/282 280/280/280
f 277/277/277 278/278/278 282/282/282
f 280/280/280 282/282/282 283/283/283
f 278/278/278 279/279/279 284/284/284
f 278/278/278 284/284/284 282/282/282
f 282/282/282 284/284/284 285/285/285
f 279/279/279 286/286/286 284/284/284
f 284/284/284 286/286/286 287/287/287
f 290/290/290 289/289/289 288/288/288
f 290/290/290 291/291/291 289/289/289
f 291/291/291 292/292/292 289/289/289
f 291/291/291 293/293/293 292/292/292
f 293/293/293 294/294/294 292/292/292
f 293/293/293 295/295/295 294/294/294
f 295/295/295 296/296/296 294/294/294
f 295/295/295 297/297/297 296/296/296
f 297/297/297 298/298/298 296/296/296
f 297/297/297 299/299/299 298/298/298
f 299/299/299 300/300/300 298/298/298
f 299/299/299 301/301/301 300/300/300
f 301/301/301 302/302/302 300/300/300
f 301/301/301 303/303/303 302/302/302
f 303/303/303 304/304/304 302/302/302
f 303/303/303 305/305/305 304/304/304
f 305/305/305 306/306/306 304/304/304
f 305/305/305 307/307/307 306/306/306
f 307/307/307 308/308/308 306/306/306
f 307/307/307 309/309/309 308/308/308
f 309/309/309 310/310/310 308/308/308
f 309/309/309 311/311/311 310/310/310
f 311/311/311 312/312/312 310/310/310
f 311/311/311 313/313/313 312/312/312
f 313/313/313 314/314/314 312/312/312
f 313/313/313 315/315/315 314/314/314
f 315/315/315 316/316/316 314/314/314
f 315/315/315 317/317/317 316/316/316
f 317/317/317 318/318/318 316/316/316
f 318/318/318 317/317/317 319/319/319
f 320/320/320 317/317/317 315/315/315
f 317/317/317 320/320/320 321/321/321
f 322/322/322 315/315/315 313/313/313
f 322/322/322 320/320/320 315/315/315
f 323/323/323 313/313/313 311/311/311
f 323/323/323 322/322/322 313/313/313
f 324/324/324 311/311/311 309/309/309
f 324/324/324 323/323/323 311/311/311
f 325/325/325 320/320/320 322/322/322
f 320/320/320 325/325/325 326/326/326
f 327/327/327 322/322/322 323/323/323
f 327/327/327 325/325/325 322/322/322
f 328/328/328 324/324/324 309/309/309
f 328/328/328 309/309/309 307/307/307
f 329/329/329 323/323/323 324/324/324
f 329/329/329 327/327/327 323/323/323
f 330/330/330 325/325/325 327/327/327
f 325/325/325 330/330/330 331/331/331
f 332/332/332 330/330/330 327/327/327
f 332/332/332 327/327/327 329/329/329
f 333/333/333 329/329/329 324/324/324
f 333/333/333 324/324/324 328/328/328
f 334/334/334 328/328/328 307/307/307
f 334/334/334 307/307/307 305/305/305
f 335/335/335 330/330/330 332/332/332
f 330/330/330 335/335/335 336/336/336
f 337/337/337 332/332/332 329/329/329
f 337/337/337 329/329/329 333/333/333
f 338/338/338 333/333/333 328/328/328
f 338/338/338 328/328/328 334/334/334
f 339/339/339 334/334/334 305/305/305
f 339/339/339 305/305/305 303/303/303
f 340/340/340 335/335/335 332/332/332
f 340/340/340 332/332/332 337/337/337
f 341/341/341 337/337/337 333/333/333
f 341/341/341 333/333/333 338/338/338
f 342/342/342 338/338/338 334/334/334
f 342/342/342 334/334/334 339/339/339
f 343/343/343 339/339/339 303/303/303
f 343/343/343 303/303/303 301/301/301
f 344/344/344 335/335/335 340/340/340
f 335/335/335 344/344/344 345/345/345
f 346/346/346 340/340/340 337/337/337
f 346/346/346 337/337/337 341/341/341
f 347/347/347 341/341/341 338/338/338
f 347/347/347 338/338/338 342/342/342
f 348/348/348 342/342/342 339/339/339
f 348/348/348 339/339/339 343/343/343
f 349/349/349 343/343/343 301/301/301
f 349/349/349 301/301/301 299/299/299
f 350/350/350 344/344/344 340/340/340
f 350/350/350 340/340/340 346/346/346
f 351/351/351 346/346/346 341/341/341
f 351/351/351 341/341/341 347/347/347
f 352/352/352 347/347/347 342/342/342
f 352/352/352 342/342/342 348/348/348
f 353/353/353 348/348/348 343/343/343
f 353/353/353 343/343/343 349/349/349
f 354/354/354 349/349/349 299/299/299
f 354/354/354 299/299/299 297/297/297
f 355/355/355 344/344/344 350/350/350
f 344/344/344 355/355/355 356/356/356
f 357/357/357 351/351/351 347/347/347
f 357/357/357 347/347/347 352/352/352
f 358/358/358 352/352/352 348/348/348
f 358/358/358 348/348/348 353/353/353
f 359/359/359 353/353/353 349/349/349
f 359/359/359 349/349/349 354/354/354
f 360/360/360 354/354/354 297/297/297
f 360/360/360 297/297/297 295/295/295
f 361/361/361 357/357/357 352/352/352
f 361/361/361 352/352/352 358/358/358
f 362/362/362 358/358/358 353/353/353
f 362/362/362 353/353/353 359/359/359
f 363/363/363 359/359/359 354/354/354
f 363/363/363 354/354/354 360/360/360
f 364/364/364 360/360/360 295/295/295
f 364/364/364 295/295/295 293/293/293
f 365/365/365 361/361/361 358/358/358
f 365/365/365 358/358/358 362/362/362
f 366/366/366 362/362/362 359/359/359
f 366/366/366 359/359/359 363/363/363
f 367/367/367 363/363/363 360/360/360
f 367/367/367 360/360/360 364/364/364
f 368/368/368 364/364/364 293/293/293
f 368/368/368 293/293/293 291/291/291
f 369/369/369 365/365/365 362/362/362
f 369/369/369 362/362/362 366/366/366
f 370/370/370 366/366/366 363/363/363
f 370/370/370 363/363/363 367/367/367
f 371/371/371 367/367/367 364/364/364
f 371/371/371 364/364/364 368/368/368
f 372/372/372 368/368/368 291/291/291
f 372/372/372 291/291/291 290/290/290
f 373/373/373 369/369/369 366/366/366
f 373/373/373 366/366/366 370/370/370
f 374/374/374 370/370/370 367/367/367
f 374/374/374 367/367/367 371/371/371
f 375/375/375 371/371/371 368/368/368
f 375/375/375 368/368/368 372/372/372
f 376/376/376 372/372/372 290/290/290
f 376/376/376 290/290/290 377/377/377
f 378/378/378 372/372/372 376/376/376
f 378/378/378 375/375/375 372/372/372
f 379/379/379 371/371/371 375/375/375
f 379/379/379 374/374/374 371/371/371
f 380/380/380 370/370/370 374/374/374
f 380/380/380 373/373/373 370/370/370
f 381/381/381 378/378/378 376/376/376
f 381/381/381 376/376/376 382/382/382
f 383/383/383 375/375/375 378/378/378
f 383/383/383 379/379/379 375/375/375
f 384/384/384 374/374/374 379/379/379
f 384/384/384 380/380/380 374/374/374
f 385/385/385 378/378/378 381/381/381
f 385/385/385 383/383/383 378/378/378
f 386/386/386 379/379/379 383/383/383
f 386/386/386 384/384/384 379/379/379
f 387/387/387 385/385/385 381/381/381
f 387/387/387 381/381/381 388/388/388
f 389/389/389 383/383/383 385/385/385
f 389/389/389 386/386/386 383/383/383
f 390/390/390 385/385/385 387/387/387
f 390/390/390 389/389/389 385/385/385
f 391/391/391 390/390/390 387/387/387
f 391/391/391 387/387/387 392/392/392
f 393/393/393 380/380/380 384/384/384
f 394/394/394 384/384/384 386/386/386
f 394/394/394 393/393/393 384/384/384
f 395/395/395 386/386/386 389/389/389
f 395/395/395 394/394/394 386/386/386
f 396/396/396 389/389/389 390/390/390
f 396/396/396 395/395/395 389/389/389
f 397/397/397 390/390/390 391/391/391
f 397/397/397 396/396/396 390/390/390
f 393/393/393 398/398/398 380/380/380
f 398/398/398 373/373/373 380/380/380
f 399/399/399 397/397/397 391/391/391
f 399/399/399 391/391/391 400/400/400
f 398/398/398 401/401/401 373/373/373
f 401/401/401 369/369/369 373/373/373
f 401/401/401 402/402/402 369/369/369
f 402/402/402 365/365/365 369/369/369
f 402/402/402 403/403/403 365/365/365
f 403/403/403 361/361/361 365/365/365
f 403/403/403 404/404/404 361/361/361
f 404/404/404 357/357/357 361/361/361
f 404/404/404 405/405/405 357/357/357
f 405/405/405 351/351/351 357/357/357
f 405/405/405 406/406/406 351/351/351
f 406/406/406 346/346/346 351/351/351
f 406/406/406 350/350/350 346/346/346
f 407/407/407 350/350/350 406/406/406
f 407/407/407 355/355/355 350/350/350
f 408/408/408 406/406/406 405/405/405
f 408/408/408 407/407/407 406/406/406
f 409/409/409 405/405/405 404/404/404
f 409/409/409 408/408/408 405/405/405
f 410/410/410 404/404/404 403/403/403
f 410/410/410 409/409/409 404/404/404
f 411/411/411 403/403/403 402/402/402
f 411/411/411 410/410/410 403/403/403
f 412/412/412 355/355/355 407/407/407
f 355/355/355 412/412/412 413/413/413
f 414/414/414 407/407/407 408/408/408
f 414/414/414 412/412/412 407/407/407
f 415/415/415 408/408/408 409/409/409
f 415/415/415 414/414/414 408/408/408
f 416/416/416 409/409/409 410/410/410
f 416/416/416 415/415/415 409/409/409
f 417/417/417 412/412/412 414/414/414
f 412/412/412 417/417/417 418/418/418
f 419/419/419 414/414/414 415/415/415
f 419/419/419 417/417/417 414/414/414
f 420/420/420 411/411/411 402/402/402
f 420/420/420 402/402/402 401/401/401
f 421/421/421 410/410/410 411/411/411
f 421/421/421 416/416/416 410/410/410
f 422/422/422 415/415/415 416/416/416
f 422/422/422 419/419/419 415/415/415
f 423/423/423 417/417/417 419/419/419
f 417/417/417 423/423/423 424/424/424
f 425/425/425 423/423/423 419/419/419
f 425/425/425 419/419/419 422/422/422
f 426/426/426 422/422/422 416/416/416
f 426/426/426 416/416/416 421/421/421
f 427/427/427 421/421/421 411/411/411
f 427/427/427 411/411/411 420/420/420
f 428/428/428 420/420/420 401/401/401
f 428/428/428 401/401/401 398/398/398
f 429/429/429 423/423/423 425/425/425
f 423/423/423 429/429/429 430/430/430
f 431/431/431 425/425/425 422/422/422
f 431/431/431 422/422/422 426/426/426
f 432/432/432 426/426/426 421/421/421
f 432/432/432 421/421/421 427/427/427
f 433/433/433 427/427/427 420/420/420
f 433/433/433 420/420/420 428/428/428
f 434/434/434 428/428/428 398/398/398
f 434/434/434 398/398/398 393/393/393
f 435/435/435 429/429/429 425/425/425
f 435/435/435 425/425/425 431/431/431
f 436/436/436 431/431/431 426/426/426
f 436/436/436 426/426/426 432/432/432
f 437/437/437 432/432/432 427/427/427
f 437/437/437 427/427/427 433/433/433
f 438/438/438 433/433/433 428/428/428
f 438/438/438 428/428/428 434/434/434
f 439/439/439 434/434/434 393/393/393
f 439/439/439 393/393/393 394/394/394
f 440/440/440 429/429/429 435/435/435
f 429/429/429 440/440/440 441/441/441
f 442/442/442 436/436/436 432/432/432
f 442/442/442 432/432/432 437/437/437
f 443/443/443 437/437/437 433/433/433
f 443/443/443 433/433/433 438/438/438
f 444/444/444 438/438/438 434/434/434
f 444/444/444 434/434/434 439/439/439
f 445/445/445 439/439/439 394/394/394
f 445/445/445 394/394/394 395/395/395
f 446/446/446 442/442/442 437/437/437
f 446/446/446 437/437/437 443/443/443
f 447/447/447 443/443/443 438/438/438
f 447/447/447 438/438/438 444/444/444
f 448/448/448 444/444/444 439/439/439
f 448/448/448 439/439/439 445/445/445
f 449/449/449 445/445/445 395/395/395
f 449/449/449 395/395/395 396/396/396
f 450/450/450 446/446/446 443/443/443
f 450/450/450 443/443/443 447/447/447
f 451/451/451 447/447/447 444/444/444
f 451/451/451 444/444/444 448/448/448
f 452/452/452 448/448/448 445/445/445
f 452/452/452 445/445/445 449/449/449
f 453/453/453 449/449/449 396/396/396
f 453/453/453 396/396/396 397/397/397
f 454/454/454 450/450/450 447/447/447
f 454/454/454 447/447/447 451/451/451
f 455/455/455 451/451/451 448/448/448
f 455/455/455 448/448/448 452/452/452
f 456/456/456 452/452/452 449/449/449
f 456/456/456 449/449/449 453/453/453
f 457/457/457 453/453/453 397/397/397
f 457/457/457 397/397/397 399/399/399
f 458/458/458 454/454/454 451/451/451
f 458/458/458 451/451/451 455/455/455
f 459/459/459 455/455/455 452/452/452
f 459/459/459 452/452/452 456/456/456
f 460/460/460 456/456/456 453/453/453
f 460/460/460 453/453/453 457/457/457
f 461/461/461 457/457/457 399/399/399
f 461/461/461 399/399/399 462/462/462
f 463/463/463 457/457/457 461/461/461
f 463/463/463 460/460/460 457/457/457
f 464/464/464 456/456/456 460/460/460
f 464/464/464 459/459/459 456/456/456
f 465/465/465 455/455/455 459/459/459
f 465/465/465 458/458/458 455/455/455
f 466/466/466 463/463/463 461/461/461
f 466/466/466 461/461/461 467/467/467
f 468/468/468 460/460/460 463/463/463
f 468/468/468 464/464/464 460/460/460
f 469/469/469 459/459/459 464/464/464
f 469/469/469 465/465/465 459/459/459
f 470/470/470 463/463/463 466/466/466
f 470/470/470 468/468/468 463/463/463
f 471/471/471 464/464/464 468/468/468
f 471/471/471 469/469/469 464/464/464
f 472/472/472 470/470/470 466/466/466
f 472/472/472 466/466/466 473/473/473
f 474/474/474 468/468/468 470/470/470
f 474/474/474 471/471/471 468/468/468
f 475/475/475 470/470/470 472/472/472
f 475/475/475 474/474/474 470/470/470
f 476/476/476 475/475/475 472/472/472
f 476/476/476 472/472/472 477/477/477
f 478/478/478 465/465/465 469/469/469
f 479/479/479 469/469/469 471/471/471
f 479/479/479 478/478/478 469/469/469
f 480/480/480 471/471/471 474/474/474
f 480/480/480 479/479/479 471/471/471
f 481/481/481 474/474/474 475/475/475
f 481/481/481 480/480/480 474/474/474
f 482/482/482 475/475/475 476/476/476
f 482/482/482 481/481/481 475/475/475
f 478/478/478 483/483/483 465/465/465
f 483/483/483 458/458/458 465/465/465
f 484/484/484 482/482/482 476/476/476
f 484/484/484 476/476/476 485/485/485
f 483/483/483 486/486/486 458/458/458
f 486/486/486 454/454/454 458/458/458
f 486/486/486 487/487/487 454/454/454
f 487/487/487 450/450/450 454/454/454
f 487/487/487 488/488/488 450/450/450
f 488/488/488 446/446/446 450/450/450
f 488/488/488 489/489/489 446/446/446
f 489/489/489 442/442/442 446/446/446
f 489/489/489 490/490/490 442/442/442
f 490/490/490 436/436/436 442/442/442
f 490/490/490 491/491/491 436/436/436
f 491/491/491 431/431/431 436/436/436
f 491/491/491 435/435/435 431/431/431
f 492/492/492 435/435/435 491/491/491
f 492/492/492 440/440/440 435/435/435
f 493/493/493 491/491/491 490/490/490
f 493/493/493 492/492/492 491/491/491
f 494/494/494 490/490/490 489/489/489
f 494/494/494 493/493/493 490/490/490
f 495/495/495 489/489/489 488/488/488
f 495/495/495 494/494/494 489/489/489
f 496/496/496 488/488/488 487/487/487
f 496/496/496 495/495/495 488/488/488
f 497/497/497 440/440/440 492/492/492
f 440/440/440 497/497/497 498/498/498
f 499/499/499 492/492/492 493/493/493
f 499/499/499 497/497/497 492/492/492
f 500/500/500 493/493/493 494/494/494
f 500/500/500 499/499/499 493/493/493
f 501/501/501 494/494/494 495/495/495
f 501/501/501 500/500/500 494/494/494
f 502/502/502 497/497/497 499/499/499
f 497/497/497 502/502/502 503/503/503
f 504/504/504 499/499/499 500/500/500
f 504/504/504 502/502/502 499/499/499
f 505/505/505 496/496/496 487/487/487
f 505/505/505 487/487/487 486/486/486
f 506/506/506 495/495/495 496/496/496
f 506/506/506 501/501/501 495/495/495
f 507/507/507 500/500/500 501/501/501
f 507/507/507 504/504/504 500/500/500
f 508/508/508 502/502/502 504/504/504
f 502/502/502 508/508/508 509/509/509
f 510/510/510 508/508/508 504/504/504
f 510/510/510 504/504/504 507/507/507
f 511/511/511 507/507/507 501/501/501
f 511/511/511 501/501/501 506/506/506
f 512/512/512 506/506/506 496/496/496
f 512/512/512 496/496/496 505/505/505
f 513/513/513 505/505/505 486/486/486
f 513/513/513 486/486/486 483/483/483
f 514/514/514 508/508/508 510/510/510
f 508/508/508 514/514/514 515/515/515
f 516/516/516 514/514/514 510/510/510
f 517/517/517 510/510/510 507/507/507
f 516/516/516 510/510/510 517/517/517
f 517/517/517 507/507/507 511/511/511
f 518/518/518 516/516/516 517/517/517
f 518/518/518 517/517/517 519/519/519
f 519/519/519 517/517/517 511/511/511
f 520/520/520 518/518/518 519/519/519
f 519/519/519 511/511/511 521/521/521
f 521/521/521 511/511/511 506/506/506
f 521/521/521 506/506/506 512/512/512
f 520/520/520 519/519/519 522/522/522
f 522/522/522 519/519/519 521/521/521
f 523/523/523 520/520/520 522/522/522
f 524/524/524 521/521/521 512/512/512
f 522/522/522 521/521/521 524/524/524
f 523/523/523 522/522/522 525/525/525
f 525/525/525 522/522/522 524/524/524
f 526/526/526 523/523/523 525/525/525
f 524/524/524 512/512/512 527/527/527
f 527/527/527 512/512/512 505/505/505
f 527/527/527 505/505/505 513/513/513
f 525/525/525 524/524/524 528/528/528
f 528/528/528 524/524/524 527/527/527
f 526/526/526 525/525/525 529/529/529
f 529/529/529 525/525/525 528/528/528
f 530/530/530 526/526/526 529/529/529
f 531/531/531 527/527/527 513/513/513
f 528/528/528 527/527/527 531/531/531
f 529/529/529 528/528/528 532/532/532
f 532/532/532 528/528/528 531/531/531
f 530/530/530 529/529/529 533/533/533
f 533/533/533 529/529/529 532/532/532
f 534/534/534 530/530/530 533/533/533
f 531/531/531 513/513/513 535/535/535
f 535/535/535 513/513/513 483/483/483
f 535/535/535 483/483/483 478/478/478
f 532/532/532 531/531/531 536/536/536
f 536/536/536 531/531/531 535/535/535
f 537/537/537 535/535/535 478/478/478
f 536/536/536 535/535/535 537/537/537
f 537/537/537 478/478/478 479/479/479
f 533/533/533 532/532/532 538/538/538
f 538/538/538 532/532/532 536/536/536
f 534/534/534 533/533/533 539/539/539
f 539/539/539 533/533/533 538/538/538
f 540/540/540 534/534/534 539/539/539
f 541/541/541 537/537/537 479/479/479
f 541/541/541 479/479/479 480/480/480
f 542/542/542 536/536/536 537/537/537
f 538/538/538 536/536/536 542/542/542
f 542/542/542 537/537/537 541/541/541
f 539/539/539 538/538/538 543/543/543
f 543/543/543 538/538/538 542/542/542
f 540/540/540 539/539/539 544/544/544
f 544/544/544 539/539/539 543/543/543
f 545/545/545 540/540/540 544/544/544
f 546/546/546 541/541/541 480/480/480
f 546/546/546 480/480/480 481/481/481
f 547/547/547 542/542/542 541/541/541
f 543/543/543 542/542/542 547/547/547
f 547/547/547 541/541/541 546/546/546
f 544/544/544 543/543/543 548/548/548
f 548/548/548 543/543/543 547/547/547
f 545/545/545 544/544/544 549/549/549
f 549/549/549 544/544/544 548/548/548
f 550/550/550 545/545/545 549/549/549
f 551/551/551 546/546/546 481/481/481
f 551/551/551 481/481/481 482/482/482
f 552/552/552 547/547/547 546/546/546
f 548/548/548 547/547/547 552/552/552
f 552/552/552 546/546/546 551/551/551
f 549/549/549 548/548/548 553/553/553
f 553/553/553 548/548/548 552/552/552
f 550/550/550 549/549/549 554/554/554
f 554/554/554 549/549/549 553/553/553
f 555/555/555 550/550/550 554/554/554
f 556/556/556 551/551/551 482/482/482
f 556/556/556 482/482/482 484/484/484
f 557/557/557 552/552/552 551/551/551
f 553/553/553 552/552/552 557/557/557
f 557/557/557 551/551/551 556/556/556
f 554/554/554 553/553/553 558/558/558
f 558/558/558 553/553/553 557/557/557
f 555/555/555 554/554/554 559/559/559
f 559/559/559 554/554/554 558/558/558
f 560/560/560 555/555/555 559/559/559
f 561/561/561 556/556/556 484/484/484
f 561/561/561 484/484/484 562/562/562
f 563/563/563 557/557/557 556/556/556
f 558/558/558 557/557/557 563/563/563
f 563/563/563 556/556/556 561/561/561
f 559/559/559 558/558/558 564/564/564
f 564/564/564 558/558/558 563/563/563
f 560/560/560 559/559/559 565/565/565
f 565/565/565 559/559/559 564/564/564
f 566/566/566 560/560/560 565/565/565
f 567/567/567 563/563/563 561/561/561
f 564/564/564 563/563/563 567/567/567
f 567/567/567 561/561/561 568/568/568
f 569/569/569 564/564/564 567/567/567
f 565/565/565 564/564/564 569/569/569
f 569/569/569 567/567/567 570/570/570
f 566/566/566 565/565/565 571/571/571
f 571/571/571 565/565/565 569/569/569
f 571/571/571 569/569/569 572/572/572
f 573/573/573 566/566/566 571/571/571
f 573/573/573 571/571/571 574/574/574
