g OL_CH0069_Weapon001
v -0.078749105 0.11743284 0.21164678
v -0.061933205 0.11743284 0.21348499
v -0.0773498 0.11743284 0.21348499
v -0.061933205 0.11743284 0.21348499
v -0.060531564 0.11743284 0.17272785
v -0.0605339 0.11743284 0.21164677
v -0.060533892 0.107803725 0.21164677
v -0.07734979 0.107803725 0.21348499
v -0.061933205 0.107803725 0.21348499
v -0.07734979 0.107803725 0.21348499
v -0.07875137 0.10780369 0.17272785
v -0.078749105 0.107803725 0.21164677
v -0.061370075 0.11640486 0.17017303
v -0.060531564 0.11743284 0.17272785
v -0.061735008 0.11743284 0.17114717
v -0.06318149 -0.014703497 0.2120622
v -0.07610154 0.11050569 0.2120622
v -0.06318149 0.11050569 0.2120622
v -0.07610154 -0.014703497 0.2120622
v -0.063014746 0.11050569 0.17257185
v -0.076268226 -0.019609869 0.17257185
v -0.06301474 -0.019609869 0.17257185
v -0.07626823 0.11050569 0.17257185
v -0.06199083 -0.019609869 0.1740099
v -0.06301474 -0.019609869 0.17257185
v -0.076268226 -0.019609869 0.17257185
v -0.077292144 -0.019609869 0.1740099
v -0.07729215 -0.019609878 0.19438869
v -0.061990842 -0.019609878 0.19438869
v -0.07729217 -0.014703488 0.20171674
v -0.061990857 -0.014703488 0.20171674
v -0.061990857 -0.014703497 0.21039015
v -0.07610154 -0.014703497 0.2120622
v -0.07729218 -0.014703497 0.21039015
v -0.06318149 -0.014703497 0.2120622
v -0.06199083 -0.019609869 0.1740099
v -0.063014746 0.11050569 0.17257185
v -0.06301474 -0.019609869 0.17257185
v -0.06199083 0.11050569 0.1740099
v -0.061990857 0.11050569 0.21039015
v -0.06318149 -0.014703497 0.2120622
v -0.06318149 0.11050569 0.2120622
v -0.061990857 -0.014703497 0.21039015
v -0.07729215 0.11050569 0.1740099
v -0.07729215 -0.019609878 0.19438869
v -0.077292144 -0.019609869 0.1740099
v -0.07729218 0.11050569 0.21039015
v -0.07729217 -0.014703488 0.20171674
v -0.07729218 -0.014703497 0.21039015
v -0.077292144 -0.019609869 0.1740099
v -0.07626823 0.11050569 0.17257185
v -0.07729215 0.11050569 0.1740099
v -0.076268226 -0.019609869 0.17257185
v -0.07729218 0.11050569 0.21039015
v -0.07610154 -0.014703497 0.2120622
v -0.07729218 -0.014703497 0.21039015
v -0.07610154 0.11050569 0.2120622
v -0.06199083 -0.019609869 0.1740099
v -0.061990857 0.11050569 0.21039015
v -0.06199083 0.11050569 0.1740099
v -0.061990857 -0.014703488 0.20171674
v -0.061990842 -0.019609878 0.19438869
v -0.061990857 -0.014703497 0.21039015
v -0.07791288 0.11640486 0.17017303
v -0.061370067 0.10883166 0.17017303
v -0.061370075 0.11640486 0.17017303
v -0.07791286 0.10883166 0.17017303
v -0.07770482 0.11640486 0.21446289
v -0.07919093 0.108831696 0.21258762
v -0.07919093 0.11640486 0.21258764
v -0.0777048 0.108831696 0.21446289
v -0.06157819 0.11640486 0.21446289
v -0.06157819 0.108831696 0.21446289
v -0.078749105 0.11743284 0.21164678
v -0.060531564 0.11743284 0.17272785
v -0.061933205 0.11743284 0.21348499
v -0.07754795 0.11743284 0.17114717
v -0.07875141 0.11743284 0.17272785
v -0.061735008 0.11743284 0.17114717
v -0.07919089 0.10883166 0.17178589
v -0.07919093 0.11640486 0.21258764
v -0.07919093 0.108831696 0.21258762
v -0.07919092 0.11640486 0.17178589
v -0.060092073 0.108831696 0.21258762
v -0.060092043 0.11640486 0.17178589
v -0.060092025 0.10883166 0.17178589
v -0.060092073 0.11640486 0.21258762
v -0.061735 0.10780369 0.17114717
v -0.060533892 0.107803725 0.21164677
v -0.060531534 0.10780369 0.17272785
v -0.07875137 0.10780369 0.17272785
v -0.07754793 0.10780369 0.17114717
v -0.07734979 0.107803725 0.21348499
v -0.07791288 0.11640486 0.17017303
v -0.061735008 0.11743284 0.17114717
v -0.07754795 0.11743284 0.17114717
v -0.061370075 0.11640486 0.17017303
v -0.060531564 0.11743284 0.17272785
v -0.060092043 0.11640486 0.17178589
v -0.060092025 0.10883166 0.17178589
v -0.061370067 0.10883166 0.17017303
v -0.061735 0.10780369 0.17114717
v -0.060531534 0.10780369 0.17272785
v -0.060092073 0.108831696 0.21258762
v -0.060092025 0.10883166 0.17178589
v -0.060533892 0.107803725 0.21164677
v -0.060092043 0.11640486 0.17178589
v -0.0605339 0.11743284 0.21164677
v -0.060092073 0.11640486 0.21258762
v -0.060092073 0.11640486 0.21258762
v -0.061933205 0.11743284 0.21348499
v -0.06157819 0.11640486 0.21446289
v -0.060092073 0.108831696 0.21258762
v -0.06157819 0.108831696 0.21446289
v -0.060533892 0.107803725 0.21164677
v -0.061933205 0.107803725 0.21348499
v -0.06157819 0.11640486 0.21446289
v -0.0773498 0.11743284 0.21348499
v -0.07770482 0.11640486 0.21446289
v -0.078749105 0.11743284 0.21164678
v -0.07919093 0.11640486 0.21258764
v -0.07875141 0.11743284 0.17272785
v -0.07919092 0.11640486 0.17178589
v -0.0777048 0.108831696 0.21446289
v -0.06157819 0.108831696 0.21446289
v -0.07734979 0.107803725 0.21348499
v -0.07734979 0.107803725 0.21348499
v -0.07919093 0.108831696 0.21258762
v -0.078749105 0.107803725 0.21164677
v -0.07919092 0.11640486 0.17178589
v -0.07754795 0.11743284 0.17114717
v -0.07791288 0.11640486 0.17017303
v -0.07791286 0.10883166 0.17017303
v -0.07919089 0.10883166 0.17178589
v -0.07875137 0.10780369 0.17272785
v -0.07754793 0.10780369 0.17114717
v -0.07754793 0.10780369 0.17114717
v -0.061370067 0.10883166 0.17017303
v -0.07791286 0.10883166 0.17017303
v -0.061735 0.10780369 0.17114717
v -0.078749105 0.107803725 0.21164677
v -0.07919089 0.10883166 0.17178589
v -0.07919093 0.108831696 0.21258762
v -0.07875137 0.10780369 0.17272785
vt 0.75439453 0.93896484
vt 0.75439453 0.93896484
vt 0.75439453 0.93896484
vt 0.75439453 0.93896484
vt 0.75439453 0.93896484
vt 0.75439453 0.93896484
vt 0.75439453 0.93896484
vt 0.75439453 0.93896484
vt 0.75439453 0.93896484
vt 0.75439453 0.93896484
vt 0.75439453 0.93896484
vt 0.75439453 0.93896484
vt 0.75439453 0.9790039
vt 0.75439453 0.9790039
vt 0.75439453 0.9790039
vt 0.75439453 0.93896484
vt 0.75439453 0.93896484
vt 0.75439453 0.93896484
vt 0.75439453 0.93896484
vt 0.75439453 0.93896484
vt 0.75439453 0.93896484
vt 0.75439453 0.93896484
vt 0.75439453 0.93896484
vt 0.7548828 0.93896484
vt 0.7548828 0.93896484
vt 0.7548828 0.93896484
vt 0.7548828 0.93896484
vt 0.7548828 0.93896484
vt 0.7548828 0.93896484
vt 0.7548828 0.93896484
vt 0.7548828 0.93896484
vt 0.7548828 0.93896484
vt 0.7548828 0.93896484
vt 0.7548828 0.93896484
vt 0.7548828 0.93896484
vt 0.75439453 0.9790039
vt 0.75439453 0.9790039
vt 0.75439453 0.9790039
vt 0.75439453 0.9790039
vt 0.75439453 0.9790039
vt 0.75439453 0.9790039
vt 0.75439453 0.9790039
vt 0.75439453 0.9790039
vt 0.75439453 0.93896484
vt 0.75439453 0.93896484
vt 0.75439453 0.93896484
vt 0.75439453 0.93896484
vt 0.75439453 0.93896484
vt 0.75439453 0.93896484
vt 0.75439453 0.9790039
vt 0.75439453 0.9790039
vt 0.75439453 0.9790039
vt 0.75439453 0.9790039
vt 0.75439453 0.9790039
vt 0.75439453 0.9790039
vt 0.75439453 0.9790039
vt 0.75439453 0.9790039
vt 0.75439453 0.93896484
vt 0.75439453 0.93896484
vt 0.75439453 0.93896484
vt 0.75439453 0.93896484
vt 0.75439453 0.93896484
vt 0.75439453 0.93896484
vt 0.75439453 0.93896484
vt 0.75439453 0.93896484
vt 0.75439453 0.93896484
vt 0.75439453 0.93896484
vt 0.75439453 0.93896484
vt 0.75439453 0.93896484
vt 0.75439453 0.93896484
vt 0.75439453 0.93896484
vt 0.75439453 0.93896484
vt 0.75439453 0.93896484
vt 0.75439453 0.93896484
vt 0.75439453 0.93896484
vt 0.75439453 0.93896484
vt 0.75439453 0.93896484
vt 0.75439453 0.93896484
vt 0.75439453 0.93896484
vt 0.75439453 0.93896484
vt 0.75439453 0.93896484
vt 0.75439453 0.93896484
vt 0.75439453 0.93896484
vt 0.75439453 0.93896484
vt 0.75439453 0.93896484
vt 0.75439453 0.93896484
vt 0.75439453 0.93896484
vt 0.75439453 0.93896484
vt 0.75439453 0.93896484
vt 0.75439453 0.93896484
vt 0.75439453 0.93896484
vt 0.75439453 0.93896484
vt 0.75439453 0.93896484
vt 0.75390625 0.9790039
vt 0.75390625 0.9790039
vt 0.75390625 0.9790039
vt 0.75439453 0.9790039
vt 0.75439453 0.9790039
vt 0.75439453 0.9790039
vt 0.75439453 0.9790039
vt 0.75439453 0.9790039
vt 0.75439453 0.9790039
vt 0.75439453 0.9790039
vt 0.75390625 0.9790039
vt 0.75390625 0.9790039
vt 0.75390625 0.9790039
vt 0.75390625 0.9790039
vt 0.75439453 0.9790039
vt 0.75390625 0.9790039
vt 0.75439453 0.9790039
vt 0.75390625 0.9790039
vt 0.75439453 0.9790039
vt 0.75439453 0.9790039
vt 0.75439453 0.9790039
vt 0.75439453 0.9790039
vt 0.75390625 0.9790039
vt 0.75390625 0.9790039
vt 0.75390625 0.9790039
vt 0.75390625 0.9790039
vt 0.75390625 0.9790039
vt 0.75390625 0.9790039
vt 0.75390625 0.9790039
vt 0.75390625 0.9790039
vt 0.75390625 0.9790039
vt 0.75390625 0.9790039
vt 0.75390625 0.9790039
vt 0.75439453 0.9790039
vt 0.75439453 0.9790039
vt 0.75439453 0.9790039
vt 0.75439453 0.9790039
vt 0.75439453 0.9790039
vt 0.75439453 0.9790039
vt 0.75439453 0.9790039
vt 0.75439453 0.9790039
vt 0.75439453 0.9790039
vt 0.75439453 0.9790039
vt 0.75390625 0.9790039
vt 0.75390625 0.9790039
vt 0.75390625 0.9790039
vt 0.75390625 0.9790039
vt 0.75390625 0.9790039
vt 0.75390625 0.9790039
vt 0.75390625 0.9790039
vt 0.75390625 0.9790039
vn -0 1 0
vn -0 1 0
vn -0 1 0
vn -0 1 0
vn -0 1 0
vn -0 1 0
vn -0 -1 0
vn -0 -1 0
vn -0 -1 0
vn -0 -1 0
vn -0 -1 0
vn -0 -1 0
vn -0 0 -1
vn -0 1 0
vn -0 1 0
vn -0 0 1
vn -0 0 1
vn -0 0 1
vn -0 0 1
vn -0 0 -1
vn -0 0 -1
vn -0 0 -1
vn -0 0 -1
vn -0 -1 -2.9137277E-07
vn -0 -1 0
vn -0 -1 0
vn -0 -1 -2.9137385E-07
vn -0 -0.9568042 0.29073316
vn -0 -0.95680434 0.29073277
vn -0 -0.95680445 0.29073238
vn -0 -0.95680434 0.29073277
vn -0 -1 -6.882721E-07
vn 2.7842825E-07 -1 -9.0421634E-07
vn 1.5441276E-06 -1 -1.0995374E-06
vn -0 -1 0
vn 1 0 0
vn -0 0 -1
vn -0 0 -1
vn 1 0 0
vn 1 0 0
vn -0 0 1
vn -0 0 1
vn 1 0 0
vn -1 0 0
vn -1 0 0
vn -1 0 0
vn -1 0 0
vn -1 0 0
vn -1 0 0
vn -1 0 0
vn -0 0 -1
vn -1 0 0
vn -0 0 -1
vn -1 0 0
vn -0 0 1
vn -1 0 0
vn -0 0 1
vn 1 0 0
vn 1 0 0
vn 1 0 0
vn 1 0 0
vn 1 0 0
vn 1 0 0
vn -0 0 -1
vn -0 0 -1
vn -0 0 -1
vn -0 0 -1
vn -0 0 1
vn -1 0 0
vn -1 0 0
vn -0 0 1
vn -0 0 1
vn -0 0 1
vn -0 1 0
vn -0 1 0
vn -0 1 0
vn -0 1 0
vn -0 1 0
vn -0 1 0
vn -1 0 0
vn -1 0 0
vn -1 0 0
vn -1 0 0
vn 1 0 0
vn 1 0 0
vn 1 0 0
vn 1 0 0
vn -0 -1 0
vn -0 -1 0
vn -0 -1 0
vn -0 -1 0
vn -0 -1 0
vn -0 -1 0
vn -0 0 -1
vn -0 1 0
vn -0 1 0
vn -0 0 -1
vn -0 1 0
vn 1 0 0
vn 1 0 0
vn -0 0 -1
vn -0 -1 0
vn -0 -1 0
vn 1 0 0
vn 1 0 0
vn -0 -1 0
vn 1 0 0
vn -0 1 0
vn 1 0 0
vn 1 0 0
vn -0 1 0
vn -0 0 1
vn 1 0 0
vn -0 0 1
vn -0 -1 0
vn -0 -1 0
vn -0 0 1
vn -0 1 0
vn -0 0 1
vn -0 1 0
vn -1 0 0
vn -0 1 0
vn -1 0 0
vn -0 0 1
vn -0 0 1
vn -0 -1 0
vn -0 -1 0
vn -1 0 0
vn -0 -1 0
vn -1 0 0
vn -0 1 0
vn -0 0 -1
vn -0 0 -1
vn -1 0 0
vn -0 -1 0
vn -0 -1 0
vn -0 -1 0
vn -0 0 -1
vn -0 0 -1
vn -0 -1 0
vn -0 -1 0
vn -1 0 0
vn -1 0 0
vn -0 -1 0
g OL_CH0069_Weapon001_0
f 3/3/3 2/2/2 1/1/1
f 6/6/6 5/5/5 4/4/4
f 9/9/9 8/8/8 7/7/7
f 12/12/12 11/11/11 10/10/10
f 15/15/15 14/14/14 13/13/13
f 18/18/18 17/17/17 16/16/16
f 19/19/19 16/16/16 17/17/17
f 22/22/22 21/21/21 20/20/20
f 23/23/23 20/20/20 21/21/21
f 26/26/26 25/25/25 24/24/24
f 27/27/27 26/26/26 24/24/24
f 28/28/28 27/27/27 24/24/24
f 29/29/29 28/28/28 24/24/24
f 28/28/28 29/29/29 30/30/30
f 31/31/31 30/30/30 29/29/29
f 31/31/31 32/32/32 30/30/30
f 32/32/32 33/33/33 30/30/30
f 33/33/33 34/34/34 30/30/30
f 35/35/35 33/33/33 32/32/32
f 38/38/38 37/37/37 36/36/36
f 39/39/39 36/36/36 37/37/37
f 42/42/42 41/41/41 40/40/40
f 43/43/43 40/40/40 41/41/41
f 46/46/46 45/45/45 44/44/44
f 45/45/45 47/47/47 44/44/44
f 48/48/48 47/47/47 45/45/45
f 49/49/49 47/47/47 48/48/48
f 52/52/52 51/51/51 50/50/50
f 53/53/53 50/50/50 51/51/51
f 56/56/56 55/55/55 54/54/54
f 57/57/57 54/54/54 55/55/55
f 60/60/60 59/59/59 58/58/58
f 59/59/59 61/61/61 58/58/58
f 61/61/61 62/62/62 58/58/58
f 63/63/63 61/61/61 59/59/59
f 66/66/66 65/65/65 64/64/64
f 67/67/67 64/64/64 65/65/65
f 70/70/70 69/69/69 68/68/68
f 71/71/71 68/68/68 69/69/69
f 68/68/68 71/71/71 72/72/72
f 73/73/73 72/72/72 71/71/71
f 76/76/76 75/75/75 74/74/74
f 75/75/75 77/77/77 74/74/74
f 77/77/77 78/78/78 74/74/74
f 79/79/79 77/77/77 75/75/75
f 82/82/82 81/81/81 80/80/80
f 83/83/83 80/80/80 81/81/81
f 86/86/86 85/85/85 84/84/84
f 87/87/87 84/84/84 85/85/85
f 90/90/90 89/89/89 88/88/88
f 89/89/89 91/91/91 88/88/88
f 91/91/91 92/92/92 88/88/88
f 93/93/93 91/91/91 89/89/89
f 96/96/96 95/95/95 94/94/94
f 97/97/97 94/94/94 95/95/95
f 99/99/99 97/97/97 98/98/98
f 99/99/99 100/100/100 97/97/97
f 101/101/101 97/97/97 100/100/100
f 101/101/101 100/100/100 102/102/102
f 103/103/103 102/102/102 100/100/100
f 105/105/105 104/104/104 103/103/103
f 106/106/106 103/103/103 104/104/104
f 98/98/98 108/108/108 107/107/107
f 109/109/109 107/107/107 108/108/108
f 108/108/108 111/111/111 110/110/110
f 112/112/112 110/110/110 111/111/111
f 110/110/110 112/112/112 113/113/113
f 114/114/114 113/113/113 112/112/112
f 113/113/113 114/114/114 115/115/115
f 116/116/116 115/115/115 114/114/114
f 111/111/111 118/118/118 117/117/117
f 119/119/119 117/117/117 118/118/118
f 118/118/118 120/120/120 119/119/119
f 121/121/121 119/119/119 120/120/120
f 120/120/120 122/122/122 121/121/121
f 123/123/123 121/121/121 122/122/122
f 125/125/125 124/124/124 116/116/116
f 126/126/126 116/116/116 124/124/124
f 124/124/124 128/128/128 127/127/127
f 129/129/129 127/127/127 128/128/128
f 122/122/122 131/131/131 130/130/130
f 132/132/132 130/130/130 131/131/131
f 132/132/132 133/133/133 130/130/130
f 134/134/134 130/130/130 133/133/133
f 134/134/134 133/133/133 135/135/135
f 136/136/136 135/135/135 133/133/133
f 139/139/139 138/138/138 137/137/137
f 140/140/140 137/137/137 138/138/138
f 143/143/143 142/142/142 141/141/141
f 144/144/144 141/141/141 142/142/142
