g Sphere003
v -0.049311996 0.12226844 -19.12047
v 0.57660633 0.12226841 -18.20366
v 0.5766066 4.273713 -17.724678
v -0.049311806 4.482048 -18.61745
v 0.5766067 8.085092 -16.36093
v -0.049311627 8.4879265 -17.184107
v 0.57660687 11.448754 -14.22122
v -0.04931225 12.022036 -14.935966
v 0.576607 14.255294 -11.414683
v -0.04931212 14.970038 -11.987965
v 0.5766071 16.394997 -8.051021
v -0.04931202 17.218174 -8.453855
v 0.5766071 17.758745 -4.239641
v -0.049311962 18.65152 -4.447976
v 0.57660717 18.23773 -0.08819741
v -0.049311936 19.154541 -0.08819694
v 0.5766071 17.758749 4.0632477
v -0.049311962 18.651522 4.2715836
v 0.5766071 16.394999 7.874626
v -0.04931202 17.218174 8.277464
v 0.576607 14.255289 11.238287
v -0.04931212 14.970035 11.811569
v 0.57660687 11.448754 14.044827
v -0.04931225 12.022035 14.759574
v 0.5766067 8.08509 16.18453
v -0.049311627 8.487924 17.007708
v 0.5766066 4.2737117 17.54828
v -0.049311806 4.4820447 18.441053
v 0.57660633 0.12226712 18.027264
v -0.049311996 0.12226628 18.944075
v 0.57660633 0.12226841 -18.20366
v -0.6752309 4.273713 -17.724678
v 0.5766066 4.273713 -17.724678
v -0.67523116 0.12226846 -18.20366
v 0.576607 -4.0291758 -17.724676
v -0.67523056 -4.0291758 -17.724676
v 0.57660675 -7.8405547 -16.360926
v -0.6752307 -7.8405547 -16.360926
v 0.5766067 -11.204219 -14.221223
v -0.67523086 -11.204219 -14.221223
v 0.5766065 -14.010754 -11.414683
v -0.675231 -14.010754 -11.414683
v 0.57660645 -16.150463 -8.051022
v -0.6752311 -16.150463 -8.051022
v 0.57660717 -17.514212 -4.2396426
v -0.67523116 -17.514212 -4.2396426
v 0.5766071 -17.993193 -0.08819788
v -0.67523116 -17.993193 -0.08819792
v 0.57660717 -17.51421 4.063246
v -0.67523116 -17.51421 4.063246
v 0.57660645 -16.15046 7.874625
v -0.6752311 -16.15046 7.874625
v 0.5766065 -14.0107565 11.238287
v -0.675231 -14.0107565 11.238287
v 0.5766067 -11.204216 14.044823
v -0.67523086 -11.204217 14.044823
v 0.57660675 -7.8405557 16.184532
v -0.6752307 -7.8405557 16.184532
v 0.576607 -4.029177 17.548283
v -0.67523056 -4.029177 17.548283
v 0.5766066 4.273713 -17.724678
v -0.6752309 4.273713 -17.724678
v -0.6752308 8.085092 -16.36093
v 0.5766067 8.085092 -16.36093
v -0.6752306 11.448754 -14.22122
v 0.57660687 11.448754 -14.22122
v -0.67523056 14.255294 -11.414683
v 0.576607 14.255294 -11.414683
v -0.67523116 16.394997 -8.051021
v 0.5766071 16.394997 -8.051021
v -0.67523116 17.758745 -4.239641
v 0.5766071 17.758745 -4.239641
v -0.6752311 18.23773 -0.088197365
v 0.57660717 18.23773 -0.08819741
v -0.67523116 17.758749 4.0632477
v 0.5766071 17.758749 4.0632477
v -0.67523116 16.394999 7.874626
v 0.5766071 16.394999 7.874626
v -0.67523056 14.255289 11.238287
v 0.576607 14.255289 11.238287
v -0.6752306 11.448754 14.044827
v 0.57660687 11.448754 14.044827
v -0.6752308 8.08509 16.18453
v 0.5766067 8.08509 16.18453
v -0.6752309 4.2737117 17.54828
v 0.5766066 4.2737117 17.54828
v -0.67523116 0.122267075 18.027264
v 0.57660633 0.12226712 18.027264
v -0.049311996 0.12226628 18.944075
v 0.57660633 0.12226712 18.027264
v 0.576607 -4.029177 17.548283
v -0.049312185 -4.2375135 18.441053
v 0.57660675 -7.8405557 16.184532
v -0.04931236 -8.243393 17.007708
v 0.5766067 -11.204216 14.044823
v -0.04931174 -11.777501 14.759566
v 0.5766065 -14.0107565 11.238287
v -0.049311865 -14.725504 11.811568
v 0.57660645 -16.15046 7.874625
v -0.049311966 -16.973637 8.277458
v 0.57660717 -17.51421 4.063246
v -0.04931203 -18.406982 4.2715797
v 0.5766071 -17.993193 -0.08819788
v -0.04931205 -18.910004 -0.088199005
v 0.57660717 -17.514212 -4.2396426
v -0.04931203 -18.406984 -4.447979
v 0.57660645 -16.150463 -8.051022
v -0.049311966 -16.973637 -8.453856
v 0.5766065 -14.010754 -11.414683
v -0.049311865 -14.725499 -11.987966
v 0.5766067 -11.204219 -14.221223
v -0.04931174 -11.7775 -14.93597
v 0.57660675 -7.8405547 -16.360926
v -0.04931236 -8.243388 -17.184103
v 0.576607 -4.0291758 -17.724676
v -0.049312185 -4.23751 -18.617449
v 0.57660633 0.12226841 -18.20366
v -0.049311996 0.12226844 -19.12047
v 0.57660633 0.12226712 18.027264
v -0.67523116 0.122267075 18.027264
v -0.67523056 -4.029177 17.548283
v 0.576607 -4.029177 17.548283
v 3.0298202 18.534138 -0.076406516
v 1.3277173 21.153402 -0.92745733
v 1.3277171 18.534138 -2.8304653
v -1.4263417 20.152935 -2.304487
v -1.4263417 21.153402 0.77464455
v -3.1284432 18.534138 -0.076406516
v 1.3277173 20.152933 2.1516738
v 3.0298202 18.534138 -0.076406516
v -1.426341 16.915342 -2.3044868
v -3.1284432 18.534138 -0.076406516
v 1.3277177 15.914873 -0.92745787
v 3.0298202 18.534138 -0.076406516
v -1.4263412 15.914873 0.7746435
v -3.1284432 18.534138 -0.076406516
v 1.3277179 16.915342 2.1516738
v 3.0298202 18.534138 -0.076406516
v -1.426341 18.534138 2.6776521
v -3.1284432 18.534138 -0.076406516
v 1.3277173 20.152933 2.1516738
v 3.0298202 18.534138 -0.076406516
v -1.4263417 21.153402 0.77464455
v -3.1284432 18.534138 -0.076406516
v -0.6752307 -7.8405547 -16.360926
v -0.049312185 -4.23751 -18.617449
v -0.67523056 -4.0291758 -17.724676
v -0.04931236 -8.243388 -17.184103
v -0.049311996 0.12226844 -19.12047
v -0.67523086 -11.204219 -14.221223
v -0.67523116 0.12226846 -18.20366
v -0.04931174 -11.7775 -14.93597
v -0.049311806 4.482048 -18.61745
v -0.675231 -14.010754 -11.414683
v -0.6752309 4.273713 -17.724678
v -0.049311865 -14.725499 -11.987966
v -0.049311627 8.4879265 -17.184107
v -0.6752311 -16.150463 -8.051022
v -0.6752308 8.085092 -16.36093
v -0.049311966 -16.973637 -8.453856
v -0.04931225 12.022036 -14.935966
v -0.67523116 -17.514212 -4.2396426
v -0.6752306 11.448754 -14.22122
v -0.04931203 -18.406984 -4.447979
v -0.04931212 14.970038 -11.987965
v -0.67523116 -17.993193 -0.08819792
v -0.67523056 14.255294 -11.414683
v -0.04931205 -18.910004 -0.088199005
v -0.04931202 17.218174 -8.453855
v -0.67523116 -17.51421 4.063246
v -0.67523116 16.394997 -8.051021
v -0.04931203 -18.406982 4.2715797
v -0.049311962 18.65152 -4.447976
v -0.6752311 -16.15046 7.874625
v -0.67523116 17.758745 -4.239641
v -0.049311966 -16.973637 8.277458
v -0.049311936 19.154541 -0.08819694
v -0.675231 -14.0107565 11.238287
v -0.6752311 18.23773 -0.088197365
v -0.049311865 -14.725504 11.811568
v -0.049311962 18.651522 4.2715836
v -0.67523086 -11.204217 14.044823
v -0.67523116 17.758749 4.0632477
v -0.04931174 -11.777501 14.759566
v -0.04931202 17.218174 8.277464
v -0.6752307 -7.8405557 16.184532
v -0.67523116 16.394999 7.874626
v -0.04931236 -8.243393 17.007708
v -0.04931212 14.970035 11.811569
v -0.67523056 -4.029177 17.548283
v -0.67523056 14.255289 11.238287
v -0.049312185 -4.2375135 18.441053
v -0.04931225 12.022035 14.759574
v -0.67523116 0.122267075 18.027264
v -0.6752306 11.448754 14.044827
v -0.049311996 0.12226628 18.944075
v -0.049311627 8.487924 17.007708
v -0.6752309 4.2737117 17.54828
v -0.6752308 8.08509 16.18453
v -0.049311806 4.4820447 18.441053
v -9.306755 5.470378 -3.974444
v -9.306754 6.4308105 -2.0894804
v -10.940745 3.3808758 -1.0985038
v -6.7617526 7.5293303 -5.4703546
v -10.940745 2.8759465 -2.0894873
v -6.7617526 5.4703846 -7.529308
v -9.306755 3.974467 -5.4703617
v -11.50378 5.0715255E-07 1.2207031E-06
v -10.940745 2.0895 -2.8759372
v -10.940745 3.5548604 1.376091E-06
v -10.940745 1.0985185 -3.3808696
v -10.940745 3.380873 1.0985135
v -9.306755 2.0895069 -6.4308014
v -9.306754 6.7617497 1.5162685E-06
v -6.7617526 8.851253 -2.875924
v -6.7617526 2.8759594 -8.851239
v -9.306755 1.1266139E-05 -6.761748
v -10.940745 6.189361E-06 -3.554859
v -6.7617536 1.5240528E-05 -9.306749
v -9.306754 6.4308057 2.0894969
v -6.7617526 9.30675 1.627514E-06
v -10.940745 2.8759427 2.0894954
v -3.5548668 3.3808928 -10.405256
v -3.5548668 1.7723489E-05 -10.94074
v -3.5548666 6.430822 -8.851233
v -3.5548666 8.851257 -6.430787
v -3.5548666 10.40527 -3.380851
v -6.7617526 8.851246 2.8759456
v -9.306755 5.4703703 3.9744573
v -3.5548666 10.940741 1.6989381E-06
v -10.940745 2.0894945 2.8759434
v -4.777905E-06 3.554881 -10.940733
v -4.637727E-06 6.761767 -9.306737
v -4.526482E-06 9.306763 -6.76173
v -4.4550584E-06 10.940749 -3.554838
v -4.933293E-06 1.8471974E-05 -11.503774
v -9.306755 3.9744563 5.4703717
v -10.940745 1.0985119 3.3808742
v -6.7617526 7.5293193 5.470371
v -3.5548666 10.405262 3.3808763
v -4.4304475E-06 11.503776 1.7235492E-06
v -10.940745 -6.7577895E-07 3.5548613
v -9.306755 2.0894945 6.430807
v -6.7617526 5.4703703 7.529321
v -3.5548666 8.851245 6.430806
v -10.940745 -1.0985131 3.3808734
v -10.940745 -2.0894954 2.8759422
v -10.940745 -2.8759432 2.0894935
v -9.306755 -1.7921399E-06 6.76175
v -6.7617526 2.8759427 8.851248
v -9.306755 -2.0894978 6.4308057
v -4.4550584E-06 10.940741 3.554864
v -3.5548666 6.4308047 8.851247
v -6.7617536 -2.7326523E-06 9.306751
v -9.306755 -3.9744592 5.4703684
v -4.5264824E-06 9.30675 6.76175
v -3.5548668 3.3808727 10.405265
v -6.7617536 -2.8759477 8.851245
v -4.637728E-06 6.7617493 9.306752
v -3.5548668 -3.4052514E-06 10.940742
v -4.777906E-06 3.55486 10.940743
v -9.306755 -5.470372 3.974454
v -6.7617536 -5.4703746 7.5293174
v -3.5548673 -3.3808792 10.405262
v -4.9332934E-06 -3.7440993E-06 11.503777
v -10.940745 -3.3808734 1.0985106
v 3.5548575 8.851246 6.4308066
v 3.5548575 6.4308057 8.851248
v 3.554857 3.3808725 10.405265
v 3.5548575 10.405262 3.3808763
v 3.5548575 10.940741 1.6989381E-06
v 3.5548575 10.405271 -3.3808517
v 3.5548575 8.851257 -6.430787
v 3.5548575 6.430822 -8.851233
v 3.554857 3.3808928 -10.405256
v 3.554857 1.7412714E-05 -10.94074
v 6.761747 8.851245 2.8759456
v 6.761747 9.306749 1.627514E-06
v 6.761747 8.851252 -2.875924
v 6.761747 7.52933 -5.4703546
v 6.761747 5.4703836 -7.529308
v 6.761747 2.8759587 -8.851239
v 6.761747 1.4649398E-05 -9.306749
v 6.761747 7.529319 5.470371
v 6.761747 5.47037 7.529321
v 9.3067465 5.470378 -3.9744449
v 9.3067465 3.9744666 -5.4703617
v 9.3067465 2.0895064 -6.4308014
v 9.3067465 1.0452518E-05 -6.7617483
v 9.3067465 6.4308105 -2.0894806
v 9.3067465 6.7617493 1.5162686E-06
v 9.3067465 6.4308057 2.089497
v 9.3067465 5.4703703 3.9744575
v 10.940739 1.0985183 -3.380872
v 10.940739 2.0895004 -2.875939
v 10.940739 2.8759477 -2.0894887
v 10.940739 3.3808768 -1.0985044
v 11.503772 -4.985395E-07 1.2207031E-06
v 10.940739 5.2328946E-06 -3.554861
v 10.940739 3.554862 1.3760911E-06
v 10.940739 3.3808746 1.0985142
v 10.940737 -1.0985084 -3.380875
v 10.940739 2.8759434 2.0894966
v 9.3067465 -2.0894866 -6.430808
v 9.3067465 3.974456 5.470372
v 10.940739 2.089495 2.8759456
v 10.940737 -2.0894923 -2.8759456
v 6.761746 -2.8759313 -8.851248
v 6.761747 2.875942 8.851248
v 10.940739 1.0985117 3.3808763
v 10.940737 -2.875942 -2.089498
v 10.940739 -1.6322497E-06 3.5548635
v 9.3067465 -3.9744499 -5.4703746
v 9.3067465 2.0894938 6.430808
v 3.5548568 -3.3808599 -10.405266
v 3.554857 -3.7160275E-06 10.940742
v 6.761746 -5.4703608 -7.529325
v 9.3067465 -5.470366 -3.9744623
v 9.3067465 -2.6057626E-06 6.761751
v 6.761747 -3.3237834E-06 9.306751
v -5.0886806E-06 -3.554846 -10.940744
v 3.5548568 -6.4307947 -8.851253
v -3.5548673 -3.3808594 -10.405266
v 6.761746 -7.5293126 -5.470379
v -5.2288588E-06 -6.7617373 -9.306758
v -6.7617536 -2.8759308 -8.851248
v 3.5548565 -8.851237 -6.4308157
v -3.5548673 -6.430794 -8.851253
v -9.306755 -2.0894856 -6.430807
v -5.340104E-06 -9.306742 -6.76176
v -6.7617536 -5.47036 -7.529325
v -10.940745 -1.0985068 -3.3808734
v -9.306755 -3.9744487 -5.470374
v -3.5548673 -8.851237 -6.4308157
v -10.940745 -2.08949 -2.8759434
v -6.7617536 -7.529312 -5.470379
v -9.306755 -5.470365 -3.9744618
v -10.940745 -2.8759394 -2.0894966
v 3.5548565 -10.40526 -3.3808851
v -5.4115285E-06 -10.940737 -3.5548732
v -3.5548675 -10.405258 -3.380885
v -6.7617536 -8.851242 -2.8759527
v -9.306755 -6.4308033 -2.0895011
v -10.940745 -3.3808708 -1.0985146
v -10.940745 -3.5548596 -2.2118668E-06
v -9.306755 -6.7617483 -5.308436E-06
v -9.306755 -6.4308066 2.0894911
v -6.7617536 -9.306749 -7.765887E-06
v -3.5548675 -10.940741 -9.3436665E-06
v -6.7617536 -7.529323 5.4703665
v -6.7617536 -8.851248 2.8759377
v -3.5548673 -6.430811 8.851242
v -3.5548675 -10.405265 3.3808672
v -3.5548673 -8.851249 6.4308014
v -5.4361394E-06 -11.503776 -9.887333E-06
v -5.088682E-06 -3.5548668 10.94074
v -5.228859E-06 -6.761755 9.306747
v 3.5548568 -3.3808796 10.405262
v -5.3401045E-06 -9.306754 6.761745
v -5.411529E-06 -10.940744 3.5548544
v 3.5548565 -10.940741 -9.3436665E-06
v 6.761746 -2.8759484 8.851245
v 3.5548568 -6.4308114 8.851243
v 3.5548565 -8.851251 6.4308014
v 3.5548565 -10.405266 3.3808675
v 9.3067465 -2.089499 6.4308066
v 6.761746 -5.470375 7.5293174
v 6.761746 -7.5293236 5.4703665
v 6.761746 -8.851248 2.8759377
v 10.940737 -1.0985148 3.3808758
v 9.3067465 -3.9744604 5.4703693
v 9.3067465 -5.4703736 3.9744542
v 10.940737 -2.0894978 2.875944
v 6.761746 -9.30675 -7.765887E-06
v 10.940737 -2.875946 2.089495
v 9.3067465 -6.4308085 2.0894914
v 6.761746 -8.851242 -2.8759527
v 10.940737 -3.3808763 1.0985112
v 9.3067465 -6.76175 -5.3084373E-06
v 9.3067465 -6.4308043 -2.0895016
v 10.940737 -3.554863 -2.211869E-06
v 10.940737 -3.3808742 -1.0985154
vt 0.0020008087 0.62060547
vt 0.025985718 0.63720703
vt 0.038513184 0.63720703
vt 0.015159607 0.62060547
vt 0.07421875 0.63720703
vt 0.05267334 0.62060547
vt 0.13024902 0.63720703
vt 0.11151123 0.62060547
vt 0.20361328 0.63720703
vt 0.18859863 0.62060547
vt 0.29174805 0.63720703
vt 0.28100586 0.62060547
vt 0.39135742 0.63720703
vt 0.38598633 0.62060547
vt 0.5 0.63720703
vt 0.5 0.62060547
vt 0.60839844 0.63720703
vt 0.6142578 0.62060547
vt 0.7084961 0.63720703
vt 0.71875 0.62060547
vt 0.7963867 0.63720703
vt 0.81152344 0.62060547
vt 0.8696289 0.63720703
vt 0.8886719 0.62060547
vt 0.92578125 0.63720703
vt 0.9472656 0.62060547
vt 0.9614258 0.63720703
vt 0.9848633 0.62060547
vt 0.9741211 0.63720703
vt 0.9980469 0.62060547
vt 1492 0.4572754
vt 1453 342.25
vt 1453 342.25
vt 1492 1.7881393E-06
vt 1453 -341.5
vt 1452 -341.75
vt 1340 -655.5
vt 1340 -655.5
vt 1164 -932.5
vt 1164 -932.5
vt 933 -1163
vt 932.5 -1164
vt 656 -1340
vt 655.5 -1340
vt 342.25 -1452
vt 341.75 -1452
vt 0.47094727 -1491
vt -1.0251999E-05 -1492
vt -341.5 -1452
vt -341.75 -1452
vt -655.5 -1340
vt -655.5 -1340
vt -932 -1163
vt -932.5 -1164
vt -1163 -932.5
vt -1164 -932.5
vt -1340 -655.5
vt -1340 -655.5
vt -1452 -341.5
vt -1452 -341.5
vt 0.9614258 0.40600586
vt 0.9614258 0.37329102
vt 0.92578125 0.37329102
vt 0.92578125 0.40600586
vt 0.8696289 0.37329102
vt 0.8696289 0.40600586
vt 0.7963867 0.37329102
vt 0.7963867 0.40600586
vt 0.7084961 0.37329102
vt 0.7084961 0.40600586
vt 0.60839844 0.37329102
vt 0.60839844 0.40600586
vt 0.5 0.37329102
vt 0.5 0.40600586
vt 0.39135742 0.37329102
vt 0.39135742 0.40600586
vt 0.29174805 0.37329102
vt 0.29174805 0.40600586
vt 0.20361328 0.37329102
vt 0.20361328 0.40600586
vt 0.13024902 0.37329102
vt 0.13024902 0.40600586
vt 0.07421875 0.37329102
vt 0.07421875 0.40600586
vt 0.038513184 0.37329102
vt 0.038513184 0.40600586
vt 0.025985718 0.37329102
vt 0.025985718 0.40600586
vt 0.0020008087 0.38964844
vt 0.025985718 0.40600586
vt 0.038513184 0.40600586
vt 0.015159607 0.38964844
vt 0.07421875 0.40600586
vt 0.05267334 0.38964844
vt 0.13024902 0.40600586
vt 0.11151123 0.38964844
vt 0.20361328 0.40600586
vt 0.18859863 0.38964844
vt 0.29174805 0.40600586
vt 0.28100586 0.38964844
vt 0.39135742 0.40600586
vt 0.38598633 0.38964844
vt 0.5 0.40600586
vt 0.5 0.38964844
vt 0.60839844 0.40600586
vt 0.6142578 0.38964844
vt 0.7084961 0.40600586
vt 0.71875 0.38964844
vt 0.7963867 0.40600586
vt 0.81152344 0.38964844
vt 0.8696289 0.40600586
vt 0.8886719 0.38964844
vt 0.92578125 0.40600586
vt 0.9472656 0.38964844
vt 0.9614258 0.40600586
vt 0.9848633 0.38964844
vt 0.9741211 0.40600586
vt 0.9980469 0.38964844
vt 0.9741211 0.63720703
vt 0.9741211 0.6044922
vt 0.9614258 0.6044922
vt 0.9614258 0.63720703
vt 0.60009766 1
vt 0.7001953 0.64746094
vt 0.5 0.64746094
vt 0.60009766 0.35229492
vt 0.7998047 0.35229492
vt 0.7001953 0
vt 0.89990234 0.64746094
vt 0.7998047 1
vt 0.39990234 0.35229492
vt 0.5 0
vt 0.30004883 0.64746094
vt 0.39990234 1
vt 0.19995117 0.35229492
vt 0.30004883 0
vt 0.099975586 0.64746094
vt 0.19995117 1
vt 5.9604645E-08 0.35229492
vt 0.099975586 0
vt -0.099975586 0.64746094
vt 5.9604645E-08 1
vt -0.19995117 0.35229492
vt -0.099975586 0
vt 1340 -655.5
vt 1526 -358.5
vt 1452 -341.75
vt 1408 -688.5
vt 1568 0.4572754
vt 1164 -932.5
vt 1492 1.7881393E-06
vt 1223 -979.5
vt 1526 359.5
vt 932.5 -1164
vt 1453 342.25
vt 980.5 -1222
vt 1408 689.5
vt 655.5 -1340
vt 1340 656
vt 689.5 -1407
vt 1223 980.5
vt 341.75 -1452
vt 1164 933
vt 359.5 -1525
vt 980.5 1223
vt -1.0251999E-05 -1492
vt 933 1164
vt 0.47094727 -1567
vt 689.5 1408
vt -341.75 -1452
vt 656 1340
vt -358.5 -1525
vt 359.5 1526
vt -655.5 -1340
vt 342.25 1453
vt -688.5 -1407
vt 0.47070312 1568
vt -932.5 -1164
vt 0.47070312 1492
vt -979.5 -1222
vt -358.5 1526
vt -1164 -932.5
vt -341.5 1453
vt -1222 -979.5
vt -688.5 1408
vt -1340 -655.5
vt -655.5 1340
vt -1407 -688.5
vt -979.5 1223
vt -1452 -341.5
vt -932 1164
vt -1525 -358.5
vt -1222 980.5
vt -1491 0.4572754
vt -1163 933
vt -1567 0.45703125
vt -1407 689.5
vt -1452 342.25
vt -1340 656
vt -1525 359.5
vt 0.67285156 0.09552002
vt 0.5908203 0.09552002
vt 0.54785156 0.024475098
vt 0.73779297 0.20605469
vt 0.5908203 0.024475098
vt 0.82714844 0.20605469
vt 0.73779297 0.09552002
vt 0.5 0
vt 0.625 0.024475098
vt 0.5 0.024475098
vt 0.64697266 0.024475098
vt 0.45214844 0.024475098
vt 0.7792969 0.09552002
vt 0.5 0.09552002
vt 0.625 0.20605469
vt 0.8847656 0.20605469
vt 0.7939453 0.09552002
vt 0.6542969 0.024475098
vt 0.9042969 0.20605469
vt 0.4091797 0.09552002
vt 0.5 0.20605469
vt 0.4091797 0.024475098
vt 0.95214844 0.34545898
vt 0.97558594 0.34545898
vt 0.8847656 0.34545898
vt 0.7792969 0.34545898
vt 0.64697266 0.34545898
vt 0.375 0.20605469
vt 0.32714844 0.09552002
vt 0.5 0.34545898
vt 0.375 0.024475098
vt 0.97558594 0.5
vt 0.9042969 0.5
vt 0.7939453 0.5
vt 0.6542969 0.5
vt 1 0.5
vt 0.26220703 0.09552002
vt 0.35302734 0.024475098
vt 0.26220703 0.20605469
vt 0.35302734 0.34545898
vt 0.5 0.5
vt 0.34545898 0.024475098
vt 0.22045898 0.09552002
vt 0.17272949 0.20605469
vt 0.22045898 0.34545898
vt 0.35302734 0.024475098
vt 0.375 0.024475098
vt 0.4091797 0.024475098
vt 0.20605469 0.09552002
vt 0.11529541 0.20605469
vt 0.22045898 0.09552002
vt 0.34545898 0.5
vt 0.11529541 0.34545898
vt 0.09552002 0.20605469
vt 0.26220703 0.09552002
vt 0.20605469 0.5
vt 0.04776001 0.34545898
vt 0.11529541 0.20605469
vt 0.09552002 0.5
vt 0.024475098 0.34545898
vt 0.024475098 0.5
vt 0.32714844 0.09552002
vt 0.17272949 0.20605469
vt 0.04776001 0.34545898
vt 0 0.5
vt 0.45214844 0.024475098
vt 0.22045898 0.6542969
vt 0.11529541 0.6542969
vt 0.04776001 0.6542969
vt 0.35302734 0.6542969
vt 0.5 0.6542969
vt 0.64697266 0.6542969
vt 0.7792969 0.6542969
vt 0.8847656 0.6542969
vt 0.95214844 0.6542969
vt 0.97558594 0.6542969
vt 0.375 0.7939453
vt 0.5 0.7939453
vt 0.625 0.7939453
vt 0.73779297 0.7939453
vt 0.82714844 0.7939453
vt 0.8847656 0.7939453
vt 0.9042969 0.7939453
vt 0.26220703 0.7939453
vt 0.17272949 0.7939453
vt 0.67285156 0.9042969
vt 0.73779297 0.9042969
vt 0.7792969 0.9042969
vt 0.7939453 0.9042969
vt 0.5908203 0.9042969
vt 0.5 0.9042969
vt 0.4091797 0.9042969
vt 0.32714844 0.9042969
vt 0.64697266 0.97558594
vt 0.625 0.97558594
vt 0.5908203 0.97558594
vt 0.54785156 0.97558594
vt 0.5 1
vt 0.6542969 0.97558594
vt 0.5 0.97558594
vt 0.45214844 0.97558594
vt 0.64697266 0.97558594
vt 0.4091797 0.97558594
vt 0.7792969 0.9042969
vt 0.26220703 0.9042969
vt 0.375 0.97558594
vt 0.625 0.97558594
vt 0.8847656 0.7939453
vt 0.11529541 0.7939453
vt 0.35302734 0.97558594
vt 0.5908203 0.97558594
vt 0.34545898 0.97558594
vt 0.73779297 0.9042969
vt 0.22045898 0.9042969
vt 0.95214844 0.6542969
vt 0.024475098 0.6542969
vt 0.82714844 0.7939453
vt 0.67285156 0.9042969
vt 0.20605469 0.9042969
vt 0.09552002 0.7939453
vt 0.97558594 0.5
vt 0.8847656 0.6542969
vt 0.95214844 0.34545898
vt 0.73779297 0.7939453
vt 0.9042969 0.5
vt 0.8847656 0.20605469
vt 0.7792969 0.6542969
vt 0.8847656 0.34545898
vt 0.7792969 0.09552002
vt 0.7939453 0.5
vt 0.82714844 0.20605469
vt 0.64697266 0.024475098
vt 0.73779297 0.09552002
vt 0.7792969 0.34545898
vt 0.625 0.024475098
vt 0.73779297 0.20605469
vt 0.67285156 0.09552002
vt 0.5908203 0.024475098
vt 0.64697266 0.6542969
vt 0.6542969 0.5
vt 0.64697266 0.34545898
vt 0.625 0.20605469
vt 0.5908203 0.09552002
vt 0.54785156 0.024475098
vt 0.5 0.024475098
vt 0.5 0.09552002
vt 0.4091797 0.09552002
vt 0.5 0.20605469
vt 0.5 0.34545898
vt 0.26220703 0.20605469
vt 0.375 0.20605469
vt 0.11529541 0.34545898
vt 0.35302734 0.34545898
vt 0.22045898 0.34545898
vt 0.5 0.5
vt 0.024475098 0.5
vt 0.09552002 0.5
vt 0.04776001 0.6542969
vt 0.20605469 0.5
vt 0.34545898 0.5
vt 0.5 0.6542969
vt 0.11529541 0.7939453
vt 0.11529541 0.6542969
vt 0.22045898 0.6542969
vt 0.35302734 0.6542969
vt 0.22045898 0.9042969
vt 0.17272949 0.7939453
vt 0.26220703 0.7939453
vt 0.375 0.7939453
vt 0.35302734 0.97558594
vt 0.26220703 0.9042969
vt 0.32714844 0.9042969
vt 0.375 0.97558594
vt 0.5 0.7939453
vt 0.4091797 0.97558594
vt 0.4091797 0.9042969
vt 0.625 0.7939453
vt 0.45214844 0.97558594
vt 0.5 0.9042969
vt 0.5908203 0.9042969
vt 0.5 0.97558594
vt 0.54785156 0.97558594
vn 0.8256836 -1.7881393E-07 -0.56396484
vn 0.8256836 -1.7881393E-07 -0.56396484
vn 0.8256836 0.12817383 -0.5493164
vn 0.8256836 0.12817383 -0.5493164
vn 0.8256836 0.2479248 -0.50634766
vn 0.8256836 0.2479248 -0.50634766
vn 0.8256836 0.35302734 -0.4399414
vn 0.8256836 0.35302734 -0.4399414
vn 0.8256836 0.4399414 -0.35302734
vn 0.8256836 0.4399414 -0.35302734
vn 0.8256836 0.50634766 -0.2479248
vn 0.8256836 0.50634766 -0.2479248
vn 0.8256836 0.5493164 -0.12817383
vn 0.8256836 0.5493164 -0.12817383
vn 0.8256836 0.56396484 -1.7881393E-07
vn 0.8256836 0.56396484 -1.1920929E-07
vn 0.8256836 0.5493164 0.12817383
vn 0.8256836 0.5493164 0.12817383
vn 0.8256836 0.50634766 0.2479248
vn 0.8256836 0.50634766 0.2479248
vn 0.8256836 0.4399414 0.35302734
vn 0.8256836 0.4399414 0.35302734
vn 0.8256836 0.35302734 0.4399414
vn 0.8256836 0.35302734 0.4399414
vn 0.8256836 0.2479248 0.50634766
vn 0.8256836 0.2479248 0.50634766
vn 0.8256836 0.12817383 0.5493164
vn 0.8256836 0.12817383 0.5493164
vn 0.8256836 0 0.56396484
vn 0.8256836 0 0.56396484
vn -0 3.5762787E-07 1
vn -0 -0.22729492 0.9736328
vn -0 -0.22729492 0.9736328
vn -0 3.5762787E-07 1
vn -0 0.22729492 0.9736328
vn -0 0.22729492 0.9736328
vn -0 0.43945312 0.8984375
vn -0 0.43945312 0.8984375
vn -0 0.6254883 0.78027344
vn -0 0.6254883 0.78027344
vn -0 0.78027344 0.6254883
vn -0 0.78027344 0.6254883
vn -0 0.8984375 0.43945312
vn -0 0.8984375 0.43945312
vn -0 0.9736328 0.22729492
vn -0 0.9736328 0.22729492
vn -0 1 -4.172325E-07
vn -0 1 -3.5762787E-07
vn -0 0.9736328 -0.22729492
vn -0 0.9736328 -0.22729492
vn -0 0.8984375 -0.43945312
vn -0 0.8984375 -0.43945312
vn -0 0.78027344 -0.6254883
vn -0 0.78027344 -0.6254883
vn -1.7881393E-07 0.6254883 -0.78027344
vn -1.7881393E-07 0.6254883 -0.78027344
vn -0 0.43945312 -0.8984375
vn -0 0.43945312 -0.8984375
vn -0 0.22729492 -0.9736328
vn -0 0.22729492 -0.9736328
vn -0 -0.22729492 0.9736328
vn -0 -0.22729492 0.9736328
vn -0 -0.43945312 0.8984375
vn -0 -0.43945312 0.8984375
vn -0 -0.6254883 0.78027344
vn -0 -0.6254883 0.78027344
vn -0 -0.78027344 0.6254883
vn -0 -0.78027344 0.6254883
vn -0 -0.8984375 0.43945312
vn -0 -0.8984375 0.43945312
vn -0 -0.9736328 0.22729492
vn -0 -0.9736328 0.22729492
vn -0 -1 3.5762787E-07
vn -0 -1 3.5762787E-07
vn -0 -0.9736328 -0.22729492
vn -0 -0.9736328 -0.22729492
vn -1.1920929E-07 -0.8984375 -0.43945312
vn -1.1920929E-07 -0.8984375 -0.43945312
vn -2.3841858E-07 -0.78027344 -0.6254883
vn -2.3841858E-07 -0.78027344 -0.6254883
vn -1.1920929E-07 -0.6254883 -0.78027344
vn -1.1920929E-07 -0.6254883 -0.78027344
vn -0 -0.43945312 -0.8984375
vn -0 -0.43945312 -0.8984375
vn -0 -0.22729492 -0.9736328
vn -0 -0.22729492 -0.9736328
vn -0 -1.7881393E-07 -1
vn -0 -1.7881393E-07 -1
vn 0.8256836 0 0.56396484
vn 0.8256836 0 0.56396484
vn 0.8256836 -0.12817383 0.5493164
vn 0.8256836 -0.12817383 0.5493164
vn 0.8256836 -0.2479248 0.50634766
vn 0.8256836 -0.2479248 0.50634766
vn 0.8256836 -0.35302734 0.4399414
vn 0.8256836 -0.35302734 0.4399414
vn 0.8256836 -0.4399414 0.35302734
vn 0.8256836 -0.4399414 0.35302734
vn 0.8256836 -0.50634766 0.2479248
vn 0.8256836 -0.50634766 0.2479248
vn 0.8256836 -0.5493164 0.12817383
vn 0.8256836 -0.5493164 0.12817383
vn 0.8256836 -0.56396484 2.3841858E-07
vn 0.8256836 -0.56396484 1.1920929E-07
vn 0.8256836 -0.5493164 -0.12817383
vn 0.8256836 -0.5493164 -0.12817383
vn 0.8256836 -0.50634766 -0.2479248
vn 0.8256836 -0.50634766 -0.2479248
vn 0.8256836 -0.4399414 -0.35302734
vn 0.8256836 -0.4399414 -0.35302734
vn 0.8256836 -0.35302734 -0.4399414
vn 0.8256836 -0.35302734 -0.4399414
vn 0.8256836 -0.2479248 -0.50634766
vn 0.8256836 -0.2479248 -0.50634766
vn 0.8256836 -0.12817383 -0.5493164
vn 0.8256836 -0.12817383 -0.5493164
vn 0.8256836 -1.7881393E-07 -0.56396484
vn 0.8256836 -1.7881393E-07 -0.56396484
vn -0 -1.7881393E-07 -1
vn -0 -1.7881393E-07 -1
vn -0 0.22729492 -0.9736328
vn -0 0.22729492 -0.9736328
vn 1 0 0
vn 0.44726562 0.85058594 -0.2763672
vn 0.44726562 0 -0.89453125
vn -0.44726562 0.5258789 -0.7236328
vn -0.44726562 0.85058594 0.2763672
vn -1 -1.1920929E-07 1.1920929E-07
vn 0.44726562 0.5258789 0.7236328
vn 1 0 0
vn -0.44726562 -0.5258789 -0.7236328
vn -1 -1.1920929E-07 1.1920929E-07
vn 0.44726562 -0.85058594 -0.2763672
vn 1 0 0
vn -0.44726562 -0.85058594 0.2763672
vn -1 -1.1920929E-07 1.1920929E-07
vn 0.44726562 -0.5258789 0.7236328
vn 1 0 0
vn -0.44726562 0 0.89453125
vn -1 -1.1920929E-07 1.1920929E-07
vn 0.44726562 0.5258789 0.7236328
vn 1 0 0
vn -0.44726562 0.85058594 0.2763672
vn -1 -1.1920929E-07 1.1920929E-07
vn -0.8256836 -0.2479248 -0.50634766
vn -0.8256836 -0.12817383 -0.5493164
vn -0.8256836 -0.12817383 -0.5493164
vn -0.8256836 -0.2479248 -0.50634766
vn -0.8256836 -1.1920929E-07 -0.56396484
vn -0.8256836 -0.35302734 -0.4399414
vn -0.8256836 -1.1920929E-07 -0.56396484
vn -0.8256836 -0.35302734 -0.4399414
vn -0.8256836 0.12817383 -0.5493164
vn -0.8256836 -0.4399414 -0.35302734
vn -0.8256836 0.12817383 -0.5493164
vn -0.8256836 -0.4399414 -0.35302734
vn -0.8256836 0.2479248 -0.50634766
vn -0.8256836 -0.50634766 -0.2479248
vn -0.8256836 0.2479248 -0.50634766
vn -0.8256836 -0.50634766 -0.2479248
vn -0.8256836 0.35302734 -0.4399414
vn -0.8256836 -0.5493164 -0.12817383
vn -0.8256836 0.35302734 -0.4399414
vn -0.8256836 -0.5493164 -0.12817383
vn -0.8256836 0.4399414 -0.35302734
vn -0.8256836 -0.56396484 1.7881393E-07
vn -0.8256836 0.4399414 -0.35302734
vn -0.8256836 -0.56396484 1.1920929E-07
vn -0.8256836 0.50634766 -0.2479248
vn -0.8256836 -0.5493164 0.12817383
vn -0.8256836 0.50634766 -0.2479248
vn -0.8256836 -0.5493164 0.12817383
vn -0.8256836 0.5493164 -0.12817383
vn -0.8256836 -0.50634766 0.2479248
vn -0.8256836 0.5493164 -0.12817383
vn -0.8256836 -0.50634766 0.2479248
vn -0.8256836 0.56396484 -1.1920929E-07
vn -0.8256836 -0.4399414 0.35302734
vn -0.8256836 0.56396484 -1.7881393E-07
vn -0.8256836 -0.4399414 0.35302734
vn -0.8256836 0.5493164 0.12817383
vn -0.8256836 -0.35302734 0.4399414
vn -0.8256836 0.5493164 0.12817383
vn -0.8256836 -0.35302734 0.4399414
vn -0.8256836 0.50634766 0.2479248
vn -0.8256836 -0.2479248 0.50634766
vn -0.8256836 0.50634766 0.2479248
vn -0.8256836 -0.2479248 0.50634766
vn -0.8256836 0.4399414 0.35302734
vn -0.8256836 -0.12817383 0.5493164
vn -0.8256836 0.4399414 0.35302734
vn -0.8256836 -0.12817383 0.5493164
vn -0.8256836 0.35302734 0.4399414
vn -0.8256836 0 0.56396484
vn -0.8256836 0.35302734 0.4399414
vn -0.8256836 0 0.56396484
vn -0.8256836 0.2479248 0.50634766
vn -0.8256836 0.12817383 0.5493164
vn -0.8256836 0.2479248 0.50634766
vn -0.8256836 0.12817383 0.5493164
vn -0.8017578 0.48364258 -0.35131836
vn -0.8017578 0.5683594 -0.18469238
vn -0.94628906 0.3071289 -0.09979248
vn -0.5805664 0.6586914 -0.47851562
vn -0.94628906 0.26123047 -0.18981934
vn -0.5805664 0.47851562 -0.6586914
vn -0.8017578 0.35131836 -0.48364258
vn -1 0 0
vn -0.94628906 0.18981934 -0.26123047
vn -0.94628906 0.32299805 2.3841858E-07
vn -0.94628906 0.09979248 -0.3071289
vn -0.94628906 0.3071289 0.09979248
vn -0.8017578 0.18469238 -0.5683594
vn -0.8017578 0.59765625 3.5762787E-07
vn -0.5805664 0.77441406 -0.25170898
vn -0.5805664 0.25170898 -0.77441406
vn -0.8017578 9.536743E-07 -0.59765625
vn -0.94628906 5.364418E-07 -0.32299805
vn -0.5805664 1.2516975E-06 -0.8144531
vn -0.8017578 0.5683594 0.18469238
vn -0.5805664 0.8144531 4.7683716E-07
vn -0.94628906 0.26123047 0.18981934
vn -0.30444336 0.2944336 -0.9057617
vn -0.30444336 1.4305115E-06 -0.9526367
vn -0.30444336 0.5600586 -0.7705078
vn -0.30444336 0.7705078 -0.5600586
vn -0.30444336 0.9057617 -0.2944336
vn -0.5805664 0.77441406 0.25170898
vn -0.8017578 0.48364258 0.35131836
vn -0.30444336 0.9526367 5.9604645E-07
vn -0.94628906 0.18981934 0.26123047
vn -1.1920929E-07 0.30908203 -0.9511719
vn -0 0.5878906 -0.80908203
vn -0 0.80908203 -0.5878906
vn -0 0.9511719 -0.30908203
vn -1.1920929E-07 1.4901161E-06 -1
vn -0.8017578 0.35131836 0.48364258
vn -0.94628906 0.09979248 0.3071289
vn -0.5805664 0.6586914 0.47851562
vn -0.30444336 0.9057617 0.2944336
vn -0 1 6.556511E-07
vn -0.94628906 0 0.32299805
vn -0.8017578 0.18469238 0.5683594
vn -0.5805664 0.47851562 0.6586914
vn -0.30444336 0.7705078 0.5600586
vn -0.94628906 -0.09979248 0.3071289
vn -0.94628906 -0.18981934 0.26123047
vn -0.94628906 -0.26123047 0.18981934
vn -0.8017578 -1.7881393E-07 0.59765625
vn -0.5805664 0.25170898 0.77441406
vn -0.8017578 -0.18469238 0.5683594
vn -0 0.9511719 0.30908203
vn -0.30444336 0.5600586 0.7705078
vn -0.5805664 -2.9802322E-07 0.8144531
vn -0.8017578 -0.35131836 0.48364258
vn -1.1920929E-07 0.80908203 0.5878906
vn -0.30444336 0.2944336 0.9057617
vn -0.5805664 -0.25170898 0.77441406
vn -1.1920929E-07 0.5878906 0.80908203
vn -0.30444336 -3.5762787E-07 0.9526367
vn -0 0.30908203 0.9511719
vn -0.8017578 -0.48364258 0.35131836
vn -0.5805664 -0.47851562 0.6586914
vn -0.30444336 -0.2944336 0.9057617
vn -1.1920929E-07 -4.172325E-07 1
vn -0.94628906 -0.3071289 0.09979248
vn 0.30444336 0.7705078 0.5600586
vn 0.30444336 0.5600586 0.7705078
vn 0.30444336 0.2944336 0.9057617
vn 0.30444336 0.9057617 0.2944336
vn 0.30444336 0.9526367 5.9604645E-07
vn 0.30444336 0.9057617 -0.2944336
vn 0.30444336 0.7705078 -0.5600586
vn 0.30444336 0.5600586 -0.7705078
vn 0.30444336 0.2944336 -0.9057617
vn 0.30444336 1.4305115E-06 -0.9526367
vn 0.5805664 0.77441406 0.25170898
vn 0.5805664 0.8144531 4.7683716E-07
vn 0.5805664 0.77441406 -0.25170898
vn 0.5805664 0.6586914 -0.47851562
vn 0.5805664 0.47851562 -0.6586914
vn 0.5805664 0.25170898 -0.77441406
vn 0.5805664 1.1920929E-06 -0.8144531
vn 0.5805664 0.6586914 0.47851562
vn 0.5805664 0.47851562 0.6586914
vn 0.8017578 0.48364258 -0.35131836
vn 0.8017578 0.35131836 -0.48364258
vn 0.8017578 0.18469238 -0.5683594
vn 0.8017578 8.940697E-07 -0.59765625
vn 0.8017578 0.5683594 -0.18469238
vn 0.8017578 0.59765625 3.5762787E-07
vn 0.8017578 0.5683594 0.18469238
vn 0.8017578 0.48364258 0.35131836
vn 0.94628906 0.09979248 -0.3071289
vn 0.94628906 0.18981934 -0.26123047
vn 0.94628906 0.26123047 -0.18981934
vn 0.94628906 0.3071289 -0.09979248
vn 1 0 0
vn 0.94628906 4.172325E-07 -0.32299805
vn 0.94628906 0.32299805 1.7881393E-07
vn 0.94628906 0.3071289 0.09979248
vn 0.94628906 -0.09979248 -0.3071289
vn 0.94628906 0.26123047 0.18981934
vn 0.8017578 -0.18469238 -0.5683594
vn 0.8017578 0.35131836 0.48364258
vn 0.94628906 0.18981934 0.26123047
vn 0.94628906 -0.18981934 -0.26123047
vn 0.5805664 -0.25170898 -0.77441406
vn 0.5805664 0.25170898 0.77441406
vn 0.94628906 0.09979248 0.3071289
vn 0.94628906 -0.26123047 -0.18981934
vn 0.94628906 -1.7881393E-07 0.32299805
vn 0.8017578 -0.35131836 -0.48364258
vn 0.8017578 0.18469238 0.5683594
vn 0.30444336 -0.2944336 -0.9057617
vn 0.30444336 -3.5762787E-07 0.9526367
vn 0.5805664 -0.47851562 -0.6586914
vn 0.8017578 -0.48364258 -0.35131836
vn 0.8017578 -2.3841858E-07 0.59765625
vn 0.5805664 -3.5762787E-07 0.8144531
vn -1.1920929E-07 -0.30908203 -0.9511719
vn 0.30444336 -0.5600586 -0.7705078
vn -0.30444336 -0.2944336 -0.9057617
vn 0.5805664 -0.6586914 -0.47851562
vn -1.7881393E-07 -0.5878906 -0.80908203
vn -0.5805664 -0.25170898 -0.77441406
vn 0.30444336 -0.7705078 -0.5600586
vn -0.30444336 -0.5600586 -0.7705078
vn -0.8017578 -0.18469238 -0.5683594
vn -1.1920929E-07 -0.80908203 -0.5878906
vn -0.5805664 -0.47851562 -0.6586914
vn -0.94628906 -0.09979248 -0.3071289
vn -0.8017578 -0.35131836 -0.48364258
vn -0.30444336 -0.7705078 -0.5600586
vn -0.94628906 -0.18981934 -0.26123047
vn -0.5805664 -0.6586914 -0.47851562
vn -0.8017578 -0.48364258 -0.35131836
vn -0.94628906 -0.26123047 -0.18981934
vn 0.30444336 -0.9057617 -0.2944336
vn -1.1920929E-07 -0.9511719 -0.30908203
vn -0.30444336 -0.9057617 -0.2944336
vn -0.5805664 -0.77441406 -0.25170898
vn -0.8017578 -0.5683594 -0.18469238
vn -0.94628906 -0.3071289 -0.09979248
vn -0.94628906 -0.32299805 -2.9802322E-07
vn -0.8017578 -0.59765625 -5.364418E-07
vn -0.8017578 -0.5683594 0.18469238
vn -0.5805664 -0.8144531 -7.748604E-07
vn -0.30444336 -0.9526367 -8.940697E-07
vn -0.5805664 -0.6586914 0.47851562
vn -0.5805664 -0.77441406 0.25170898
vn -0.30444336 -0.5600586 0.7705078
vn -0.30444336 -0.9057617 0.2944336
vn -0.30444336 -0.7705078 0.5600586
vn -1.1920929E-07 -1 -9.536743E-07
vn -1.1920929E-07 -0.30908203 0.9511719
vn -1.1920929E-07 -0.5878906 0.80908203
vn 0.30444336 -0.2944336 0.9057617
vn -1.7881393E-07 -0.80908203 0.5878906
vn -1.7881393E-07 -0.9511719 0.30908203
vn 0.30444336 -0.9526367 -9.536743E-07
vn 0.5805664 -0.25170898 0.77441406
vn 0.30444336 -0.5600586 0.7705078
vn 0.30444336 -0.7705078 0.5600586
vn 0.30444336 -0.9057617 0.2944336
vn 0.8017578 -0.18469238 0.5683594
vn 0.5805664 -0.47851562 0.6586914
vn 0.5805664 -0.6586914 0.47851562
vn 0.5805664 -0.77441406 0.25170898
vn 0.94628906 -0.09979248 0.3071289
vn 0.8017578 -0.35131836 0.48364258
vn 0.8017578 -0.48364258 0.35131836
vn 0.94628906 -0.18981934 0.26123047
vn 0.5805664 -0.8144531 -7.748604E-07
vn 0.94628906 -0.26123047 0.18981934
vn 0.8017578 -0.5683594 0.18469238
vn 0.5805664 -0.77441406 -0.25170898
vn 0.94628906 -0.3071289 0.09979248
vn 0.8017578 -0.59765625 -5.364418E-07
vn 0.8017578 -0.5683594 -0.18469238
vn 0.94628906 -0.32299805 -2.9802322E-07
vn 0.94628906 -0.3071289 -0.09979248
g Sphere003_0
f 3/3/3 2/2/2 1/1/1
f 4/4/4 3/3/3 1/1/1
f 5/5/5 3/3/3 4/4/4
f 6/6/6 5/5/5 4/4/4
f 7/7/7 5/5/5 6/6/6
f 8/8/8 7/7/7 6/6/6
f 9/9/9 7/7/7 8/8/8
f 10/10/10 9/9/9 8/8/8
f 11/11/11 9/9/9 10/10/10
f 12/12/12 11/11/11 10/10/10
f 13/13/13 11/11/11 12/12/12
f 14/14/14 13/13/13 12/12/12
f 15/15/15 13/13/13 14/14/14
f 16/16/16 15/15/15 14/14/14
f 17/17/17 15/15/15 16/16/16
f 18/18/18 17/17/17 16/16/16
f 19/19/19 17/17/17 18/18/18
f 20/20/20 19/19/19 18/18/18
f 21/21/21 19/19/19 20/20/20
f 22/22/22 21/21/21 20/20/20
f 23/23/23 21/21/21 22/22/22
f 24/24/24 23/23/23 22/22/22
f 25/25/25 23/23/23 24/24/24
f 26/26/26 25/25/25 24/24/24
f 27/27/27 25/25/25 26/26/26
f 28/28/28 27/27/27 26/26/26
f 29/29/29 27/27/27 28/28/28
f 30/30/30 29/29/29 28/28/28
f 33/33/33 32/32/32 31/31/31
f 32/32/32 34/34/34 31/31/31
f 31/31/31 34/34/34 35/35/35
f 34/34/34 36/36/36 35/35/35
f 35/35/35 36/36/36 37/37/37
f 36/36/36 38/38/38 37/37/37
f 37/37/37 38/38/38 39/39/39
f 38/38/38 40/40/40 39/39/39
f 39/39/39 40/40/40 41/41/41
f 40/40/40 42/42/42 41/41/41
f 41/41/41 42/42/42 43/43/43
f 42/42/42 44/44/44 43/43/43
f 43/43/43 44/44/44 45/45/45
f 44/44/44 46/46/46 45/45/45
f 45/45/45 46/46/46 47/47/47
f 46/46/46 48/48/48 47/47/47
f 47/47/47 48/48/48 49/49/49
f 48/48/48 50/50/50 49/49/49
f 49/49/49 50/50/50 51/51/51
f 50/50/50 52/52/52 51/51/51
f 51/51/51 52/52/52 53/53/53
f 52/52/52 54/54/54 53/53/53
f 53/53/53 54/54/54 55/55/55
f 54/54/54 56/56/56 55/55/55
f 55/55/55 56/56/56 57/57/57
f 56/56/56 58/58/58 57/57/57
f 57/57/57 58/58/58 59/59/59
f 58/58/58 60/60/60 59/59/59
f 63/63/63 62/62/62 61/61/61
f 64/64/64 63/63/63 61/61/61
f 65/65/65 63/63/63 64/64/64
f 66/66/66 65/65/65 64/64/64
f 67/67/67 65/65/65 66/66/66
f 68/68/68 67/67/67 66/66/66
f 69/69/69 67/67/67 68/68/68
f 70/70/70 69/69/69 68/68/68
f 71/71/71 69/69/69 70/70/70
f 72/72/72 71/71/71 70/70/70
f 73/73/73 71/71/71 72/72/72
f 74/74/74 73/73/73 72/72/72
f 75/75/75 73/73/73 74/74/74
f 76/76/76 75/75/75 74/74/74
f 77/77/77 75/75/75 76/76/76
f 78/78/78 77/77/77 76/76/76
f 79/79/79 77/77/77 78/78/78
f 80/80/80 79/79/79 78/78/78
f 81/81/81 79/79/79 80/80/80
f 82/82/82 81/81/81 80/80/80
f 83/83/83 81/81/81 82/82/82
f 84/84/84 83/83/83 82/82/82
f 85/85/85 83/83/83 84/84/84
f 86/86/86 85/85/85 84/84/84
f 87/87/87 85/85/85 86/86/86
f 88/88/88 87/87/87 86/86/86
f 91/91/91 90/90/90 89/89/89
f 92/92/92 91/91/91 89/89/89
f 93/93/93 91/91/91 92/92/92
f 94/94/94 93/93/93 92/92/92
f 95/95/95 93/93/93 94/94/94
f 96/96/96 95/95/95 94/94/94
f 97/97/97 95/95/95 96/96/96
f 98/98/98 97/97/97 96/96/96
f 99/99/99 97/97/97 98/98/98
f 100/100/100 99/99/99 98/98/98
f 101/101/101 99/99/99 100/100/100
f 102/102/102 101/101/101 100/100/100
f 103/103/103 101/101/101 102/102/102
f 104/104/104 103/103/103 102/102/102
f 105/105/105 103/103/103 104/104/104
f 106/106/106 105/105/105 104/104/104
f 107/107/107 105/105/105 106/106/106
f 108/108/108 107/107/107 106/106/106
f 109/109/109 107/107/107 108/108/108
f 110/110/110 109/109/109 108/108/108
f 111/111/111 109/109/109 110/110/110
f 112/112/112 111/111/111 110/110/110
f 113/113/113 111/111/111 112/112/112
f 114/114/114 113/113/113 112/112/112
f 115/115/115 113/113/113 114/114/114
f 116/116/116 115/115/115 114/114/114
f 117/117/117 115/115/115 116/116/116
f 118/118/118 117/117/117 116/116/116
f 121/121/121 120/120/120 119/119/119
f 122/122/122 121/121/121 119/119/119
f 125/125/125 124/124/124 123/123/123
f 124/124/124 125/125/125 126/126/126
f 126/126/126 127/127/127 124/124/124
f 127/127/127 126/126/126 128/128/128
f 129/129/129 124/124/124 127/127/127
f 124/124/124 129/129/129 130/130/130
f 131/131/131 126/126/126 125/125/125
f 126/126/126 131/131/131 132/132/132
f 125/125/125 133/133/133 131/131/131
f 133/133/133 125/125/125 134/134/134
f 135/135/135 131/131/131 133/133/133
f 131/131/131 135/135/135 136/136/136
f 133/133/133 137/137/137 135/135/135
f 137/137/137 133/133/133 138/138/138
f 139/139/139 135/135/135 137/137/137
f 135/135/135 139/139/139 140/140/140
f 137/137/137 141/141/141 139/139/139
f 141/141/141 137/137/137 142/142/142
f 143/143/143 139/139/139 141/141/141
f 139/139/139 143/143/143 144/144/144
f 147/147/147 146/146/146 145/145/145
f 146/146/146 148/148/148 145/145/145
f 149/149/149 146/146/146 147/147/147
f 145/145/145 148/148/148 150/150/150
f 151/151/151 149/149/149 147/147/147
f 148/148/148 152/152/152 150/150/150
f 153/153/153 149/149/149 151/151/151
f 150/150/150 152/152/152 154/154/154
f 155/155/155 153/153/153 151/151/151
f 152/152/152 156/156/156 154/154/154
f 157/157/157 153/153/153 155/155/155
f 154/154/154 156/156/156 158/158/158
f 159/159/159 157/157/157 155/155/155
f 156/156/156 160/160/160 158/158/158
f 161/161/161 157/157/157 159/159/159
f 158/158/158 160/160/160 162/162/162
f 163/163/163 161/161/161 159/159/159
f 160/160/160 164/164/164 162/162/162
f 165/165/165 161/161/161 163/163/163
f 162/162/162 164/164/164 166/166/166
f 167/167/167 165/165/165 163/163/163
f 164/164/164 168/168/168 166/166/166
f 169/169/169 165/165/165 167/167/167
f 166/166/166 168/168/168 170/170/170
f 171/171/171 169/169/169 167/167/167
f 168/168/168 172/172/172 170/170/170
f 173/173/173 169/169/169 171/171/171
f 170/170/170 172/172/172 174/174/174
f 175/175/175 173/173/173 171/171/171
f 172/172/172 176/176/176 174/174/174
f 177/177/177 173/173/173 175/175/175
f 174/174/174 176/176/176 178/178/178
f 179/179/179 177/177/177 175/175/175
f 176/176/176 180/180/180 178/178/178
f 181/181/181 177/177/177 179/179/179
f 178/178/178 180/180/180 182/182/182
f 183/183/183 181/181/181 179/179/179
f 180/180/180 184/184/184 182/182/182
f 185/185/185 181/181/181 183/183/183
f 182/182/182 184/184/184 186/186/186
f 187/187/187 185/185/185 183/183/183
f 184/184/184 188/188/188 186/186/186
f 189/189/189 185/185/185 187/187/187
f 186/186/186 188/188/188 190/190/190
f 191/191/191 189/189/189 187/187/187
f 188/188/188 192/192/192 190/190/190
f 193/193/193 189/189/189 191/191/191
f 190/190/190 192/192/192 194/194/194
f 195/195/195 193/193/193 191/191/191
f 192/192/192 196/196/196 194/194/194
f 197/197/197 193/193/193 195/195/195
f 194/194/194 196/196/196 198/198/198
f 199/199/199 197/197/197 195/195/195
f 196/196/196 200/200/200 198/198/198
f 200/200/200 197/197/197 199/199/199
f 198/198/198 200/200/200 199/199/199
f 203/203/203 202/202/202 201/201/201
f 201/201/201 202/202/202 204/204/204
f 205/205/205 203/203/203 201/201/201
f 201/201/201 204/204/204 206/206/206
f 205/205/205 201/201/201 207/207/207
f 207/207/207 201/201/201 206/206/206
f 203/203/203 205/205/205 208/208/208
f 205/205/205 209/209/209 208/208/208
f 209/209/209 205/205/205 207/207/207
f 210/210/210 203/203/203 208/208/208
f 203/203/203 210/210/210 202/202/202
f 209/209/209 211/211/211 208/208/208
f 212/212/212 210/210/210 208/208/208
f 209/209/209 207/207/207 213/213/213
f 211/211/211 209/209/209 213/213/213
f 210/210/210 214/214/214 202/202/202
f 210/210/210 212/212/212 214/214/214
f 202/202/202 215/215/215 204/204/204
f 202/202/202 214/214/214 215/215/215
f 207/207/207 206/206/206 216/216/216
f 213/213/213 207/207/207 216/216/216
f 211/211/211 213/213/213 217/217/217
f 211/211/211 218/218/218 208/208/208
f 218/218/218 211/211/211 217/217/217
f 213/213/213 216/216/216 219/219/219
f 217/217/217 213/213/213 219/219/219
f 212/212/212 220/220/220 214/214/214
f 214/214/214 221/221/221 215/215/215
f 214/214/214 220/220/220 221/221/221
f 222/222/222 212/212/212 208/208/208
f 212/212/212 222/222/222 220/220/220
f 216/216/216 206/206/206 223/223/223
f 219/219/219 216/216/216 224/224/224
f 216/216/216 223/223/223 224/224/224
f 206/206/206 225/225/225 223/223/223
f 206/206/206 204/204/204 225/225/225
f 204/204/204 215/215/215 226/226/226
f 204/204/204 226/226/226 225/225/225
f 215/215/215 221/221/221 227/227/227
f 215/215/215 227/227/227 226/226/226
f 220/220/220 228/228/228 221/221/221
f 222/222/222 229/229/229 220/220/220
f 220/220/220 229/229/229 228/228/228
f 221/221/221 230/230/230 227/227/227
f 221/221/221 228/228/228 230/230/230
f 222/222/222 231/231/231 229/229/229
f 231/231/231 222/222/222 208/208/208
f 223/223/223 225/225/225 232/232/232
f 225/225/225 226/226/226 233/233/233
f 225/225/225 233/233/233 232/232/232
f 226/226/226 227/227/227 234/234/234
f 226/226/226 234/234/234 233/233/233
f 227/227/227 230/230/230 235/235/235
f 227/227/227 235/235/235 234/234/234
f 223/223/223 232/232/232 236/236/236
f 224/224/224 223/223/223 236/236/236
f 231/231/231 237/237/237 229/229/229
f 238/238/238 231/231/231 208/208/208
f 231/231/231 238/238/238 237/237/237
f 229/229/229 237/237/237 239/239/239
f 229/229/229 239/239/239 228/228/228
f 228/228/228 240/240/240 230/230/230
f 228/228/228 239/239/239 240/240/240
f 230/230/230 241/241/241 235/235/235
f 230/230/230 240/240/240 241/241/241
f 242/242/242 238/238/238 208/208/208
f 238/238/238 243/243/243 237/237/237
f 238/238/238 242/242/242 243/243/243
f 237/237/237 244/244/244 239/239/239
f 237/237/237 243/243/243 244/244/244
f 239/239/239 245/245/245 240/240/240
f 239/239/239 244/244/244 245/245/245
f 246/246/246 242/242/242 208/208/208
f 247/247/247 246/246/246 208/208/208
f 248/248/248 247/247/247 208/208/208
f 242/242/242 249/249/249 243/243/243
f 242/242/242 246/246/246 249/249/249
f 243/243/243 250/250/250 244/244/244
f 243/243/243 249/249/249 250/250/250
f 246/246/246 247/247/247 251/251/251
f 246/246/246 251/251/251 249/249/249
f 240/240/240 245/245/245 252/252/252
f 240/240/240 252/252/252 241/241/241
f 244/244/244 253/253/253 245/245/245
f 244/244/244 250/250/250 253/253/253
f 249/249/249 254/254/254 250/250/250
f 249/249/249 251/251/251 254/254/254
f 247/247/247 255/255/255 251/251/251
f 247/247/247 248/248/248 255/255/255
f 245/245/245 256/256/256 252/252/252
f 245/245/245 253/253/253 256/256/256
f 250/250/250 257/257/257 253/253/253
f 250/250/250 254/254/254 257/257/257
f 251/251/251 258/258/258 254/254/254
f 251/251/251 255/255/255 258/258/258
f 253/253/253 259/259/259 256/256/256
f 253/253/253 257/257/257 259/259/259
f 254/254/254 260/260/260 257/257/257
f 254/254/254 258/258/258 260/260/260
f 257/257/257 261/261/261 259/259/259
f 257/257/257 260/260/260 261/261/261
f 248/248/248 262/262/262 255/255/255
f 255/255/255 263/263/263 258/258/258
f 255/255/255 262/262/262 263/263/263
f 258/258/258 264/264/264 260/260/260
f 258/258/258 263/263/263 264/264/264
f 260/260/260 265/265/265 261/261/261
f 260/260/260 264/264/264 265/265/265
f 248/248/248 266/266/266 262/262/262
f 266/266/266 248/248/248 208/208/208
f 256/256/256 259/259/259 267/267/267
f 259/259/259 261/261/261 268/268/268
f 259/259/259 268/268/268 267/267/267
f 261/261/261 265/265/265 269/269/269
f 261/261/261 269/269/269 268/268/268
f 256/256/256 267/267/267 270/270/270
f 252/252/252 256/256/256 270/270/270
f 252/252/252 270/270/270 271/271/271
f 241/241/241 252/252/252 271/271/271
f 241/241/241 271/271/271 272/272/272
f 235/235/235 241/241/241 272/272/272
f 235/235/235 272/272/272 273/273/273
f 234/234/234 235/235/235 273/273/273
f 234/234/234 273/273/273 274/274/274
f 233/233/233 234/234/234 274/274/274
f 233/233/233 274/274/274 275/275/275
f 232/232/232 233/233/233 275/275/275
f 232/232/232 275/275/275 276/276/276
f 236/236/236 232/232/232 276/276/276
f 270/270/270 267/267/267 277/277/277
f 271/271/271 270/270/270 278/278/278
f 270/270/270 277/277/277 278/278/278
f 272/272/272 271/271/271 279/279/279
f 271/271/271 278/278/278 279/279/279
f 273/273/273 272/272/272 280/280/280
f 272/272/272 279/279/279 280/280/280
f 274/274/274 273/273/273 281/281/281
f 273/273/273 280/280/280 281/281/281
f 275/275/275 274/274/274 282/282/282
f 274/274/274 281/281/281 282/282/282
f 276/276/276 275/275/275 283/283/283
f 275/275/275 282/282/282 283/283/283
f 267/267/267 284/284/284 277/277/277
f 267/267/267 268/268/268 284/284/284
f 268/268/268 285/285/285 284/284/284
f 268/268/268 269/269/269 285/285/285
f 280/280/280 279/279/279 286/286/286
f 281/281/281 280/280/280 287/287/287
f 280/280/280 286/286/286 287/287/287
f 282/282/282 281/281/281 288/288/288
f 281/281/281 287/287/287 288/288/288
f 283/283/283 282/282/282 289/289/289
f 282/282/282 288/288/288 289/289/289
f 279/279/279 290/290/290 286/286/286
f 279/279/279 278/278/278 290/290/290
f 278/278/278 291/291/291 290/290/290
f 278/278/278 277/277/277 291/291/291
f 277/277/277 292/292/292 291/291/291
f 277/277/277 284/284/284 292/292/292
f 284/284/284 293/293/293 292/292/292
f 284/284/284 285/285/285 293/293/293
f 288/288/288 287/287/287 294/294/294
f 287/287/287 286/286/286 295/295/295
f 287/287/287 295/295/295 294/294/294
f 286/286/286 290/290/290 296/296/296
f 286/286/286 296/296/296 295/295/295
f 290/290/290 291/291/291 297/297/297
f 290/290/290 297/297/297 296/296/296
f 295/295/295 296/296/296 298/298/298
f 294/294/294 295/295/295 298/298/298
f 296/296/296 297/297/297 298/298/298
f 299/299/299 294/294/294 298/298/298
f 288/288/288 294/294/294 299/299/299
f 297/297/297 300/300/300 298/298/298
f 291/291/291 300/300/300 297/297/297
f 291/291/291 292/292/292 300/300/300
f 289/289/289 288/288/288 299/299/299
f 292/292/292 301/301/301 300/300/300
f 300/300/300 301/301/301 298/298/298
f 292/292/292 293/293/293 301/301/301
f 289/289/289 299/299/299 302/302/302
f 302/302/302 299/299/299 298/298/298
f 293/293/293 303/303/303 301/301/301
f 301/301/301 303/303/303 298/298/298
f 304/304/304 289/289/289 302/302/302
f 283/283/283 289/289/289 304/304/304
f 293/293/293 305/305/305 303/303/303
f 285/285/285 305/305/305 293/293/293
f 303/303/303 306/306/306 298/298/298
f 305/305/305 306/306/306 303/303/303
f 307/307/307 302/302/302 298/298/298
f 304/304/304 302/302/302 307/307/307
f 308/308/308 283/283/283 304/304/304
f 276/276/276 283/283/283 308/308/308
f 285/285/285 309/309/309 305/305/305
f 269/269/269 309/309/309 285/285/285
f 306/306/306 310/310/310 298/298/298
f 311/311/311 307/307/307 298/298/298
f 310/310/310 312/312/312 298/298/298
f 313/313/313 304/304/304 307/307/307
f 308/308/308 304/304/304 313/313/313
f 313/313/313 307/307/307 311/311/311
f 305/305/305 314/314/314 306/306/306
f 314/314/314 310/310/310 306/306/306
f 309/309/309 314/314/314 305/305/305
f 315/315/315 276/276/276 308/308/308
f 236/236/236 276/276/276 315/315/315
f 269/269/269 316/316/316 309/309/309
f 265/265/265 316/316/316 269/269/269
f 317/317/317 308/308/308 313/313/313
f 315/315/315 308/308/308 317/317/317
f 318/318/318 313/313/313 311/311/311
f 317/317/317 313/313/313 318/318/318
f 314/314/314 319/319/319 310/310/310
f 319/319/319 312/312/312 310/310/310
f 309/309/309 320/320/320 314/314/314
f 316/316/316 320/320/320 309/309/309
f 320/320/320 319/319/319 314/314/314
f 321/321/321 236/236/236 315/315/315
f 224/224/224 236/236/236 321/321/321
f 322/322/322 315/315/315 317/317/317
f 321/321/321 315/315/315 322/322/322
f 323/323/323 224/224/224 321/321/321
f 219/219/219 224/224/224 323/323/323
f 322/322/322 317/317/317 324/324/324
f 324/324/324 317/317/317 318/318/318
f 325/325/325 321/321/321 322/322/322
f 323/323/323 321/321/321 325/325/325
f 326/326/326 219/219/219 323/323/323
f 217/217/217 219/219/219 326/326/326
f 327/327/327 322/322/322 324/324/324
f 325/325/325 322/322/322 327/327/327
f 328/328/328 323/323/323 325/325/325
f 326/326/326 323/323/323 328/328/328
f 329/329/329 217/217/217 326/326/326
f 218/218/218 217/217/217 329/329/329
f 330/330/330 325/325/325 327/327/327
f 328/328/328 325/325/325 330/330/330
f 331/331/331 326/326/326 328/328/328
f 329/329/329 326/326/326 331/331/331
f 332/332/332 218/218/218 329/329/329
f 218/218/218 332/332/332 208/208/208
f 332/332/332 329/329/329 333/333/333
f 333/333/333 329/329/329 331/331/331
f 331/331/331 328/328/328 334/334/334
f 334/334/334 328/328/328 330/330/330
f 332/332/332 335/335/335 208/208/208
f 335/335/335 332/332/332 333/333/333
f 333/333/333 331/331/331 336/336/336
f 336/336/336 331/331/331 334/334/334
f 335/335/335 333/333/333 337/337/337
f 337/337/337 333/333/333 336/336/336
f 335/335/335 338/338/338 208/208/208
f 338/338/338 335/335/335 337/337/337
f 330/330/330 327/327/327 339/339/339
f 334/334/334 330/330/330 340/340/340
f 340/340/340 330/330/330 339/339/339
f 336/336/336 334/334/334 341/341/341
f 341/341/341 334/334/334 340/340/340
f 337/337/337 336/336/336 342/342/342
f 342/342/342 336/336/336 341/341/341
f 338/338/338 337/337/337 343/343/343
f 343/343/343 337/337/337 342/342/342
f 338/338/338 344/344/344 208/208/208
f 344/344/344 338/338/338 343/343/343
f 344/344/344 345/345/345 208/208/208
f 345/345/345 266/266/266 208/208/208
f 344/344/344 343/343/343 346/346/346
f 345/345/345 344/344/344 346/346/346
f 266/266/266 345/345/345 347/347/347
f 345/345/345 346/346/346 347/347/347
f 266/266/266 347/347/347 262/262/262
f 343/343/343 342/342/342 348/348/348
f 346/346/346 343/343/343 348/348/348
f 342/342/342 341/341/341 349/349/349
f 348/348/348 342/342/342 349/349/349
f 262/262/262 347/347/347 350/350/350
f 262/262/262 350/350/350 263/263/263
f 347/347/347 346/346/346 351/351/351
f 346/346/346 348/348/348 351/351/351
f 347/347/347 351/351/351 350/350/350
f 263/263/263 350/350/350 352/352/352
f 263/263/263 352/352/352 264/264/264
f 351/351/351 348/348/348 353/353/353
f 348/348/348 349/349/349 353/353/353
f 350/350/350 351/351/351 354/354/354
f 350/350/350 354/354/354 352/352/352
f 351/351/351 353/353/353 354/354/354
f 349/349/349 341/341/341 355/355/355
f 341/341/341 340/340/340 355/355/355
f 264/264/264 352/352/352 356/356/356
f 264/264/264 356/356/356 265/265/265
f 265/265/265 356/356/356 316/316/316
f 352/352/352 354/354/354 357/357/357
f 352/352/352 357/357/357 356/356/356
f 356/356/356 358/358/358 316/316/316
f 356/356/356 357/357/357 358/358/358
f 316/316/316 358/358/358 320/320/320
f 354/354/354 353/353/353 359/359/359
f 354/354/354 359/359/359 357/357/357
f 353/353/353 349/349/349 360/360/360
f 349/349/349 355/355/355 360/360/360
f 353/353/353 360/360/360 359/359/359
f 355/355/355 340/340/340 361/361/361
f 340/340/340 339/339/339 361/361/361
f 358/358/358 362/362/362 320/320/320
f 320/320/320 362/362/362 319/319/319
f 357/357/357 363/363/363 358/358/358
f 357/357/357 359/359/359 363/363/363
f 358/358/358 363/363/363 362/362/362
f 359/359/359 360/360/360 364/364/364
f 359/359/359 364/364/364 363/363/363
f 360/360/360 355/355/355 365/365/365
f 355/355/355 361/361/361 365/365/365
f 360/360/360 365/365/365 364/364/364
f 362/362/362 366/366/366 319/319/319
f 319/319/319 366/366/366 312/312/312
f 363/363/363 367/367/367 362/362/362
f 363/363/363 364/364/364 367/367/367
f 362/362/362 367/367/367 366/366/366
f 364/364/364 365/365/365 368/368/368
f 364/364/364 368/368/368 367/367/367
f 365/365/365 361/361/361 369/369/369
f 365/365/365 369/369/369 368/368/368
f 366/366/366 370/370/370 312/312/312
f 312/312/312 370/370/370 298/298/298
f 367/367/367 371/371/371 366/366/366
f 367/367/367 368/368/368 371/371/371
f 366/366/366 371/371/371 370/370/370
f 368/368/368 372/372/372 371/371/371
f 368/368/368 369/369/369 372/372/372
f 371/371/371 373/373/373 370/370/370
f 370/370/370 373/373/373 298/298/298
f 371/371/371 372/372/372 373/373/373
f 361/361/361 374/374/374 369/369/369
f 361/361/361 339/339/339 374/374/374
f 372/372/372 375/375/375 373/373/373
f 373/373/373 375/375/375 298/298/298
f 369/369/369 376/376/376 372/372/372
f 372/372/372 376/376/376 375/375/375
f 369/369/369 374/374/374 376/376/376
f 339/339/339 377/377/377 374/374/374
f 339/339/339 327/327/327 377/377/377
f 327/327/327 324/324/324 377/377/377
f 376/376/376 378/378/378 375/375/375
f 375/375/375 378/378/378 298/298/298
f 374/374/374 379/379/379 376/376/376
f 374/374/374 377/377/377 379/379/379
f 376/376/376 379/379/379 378/378/378
f 377/377/377 324/324/324 380/380/380
f 377/377/377 380/380/380 379/379/379
f 324/324/324 318/318/318 380/380/380
f 379/379/379 381/381/381 378/378/378
f 378/378/378 381/381/381 298/298/298
f 379/379/379 380/380/380 381/381/381
f 380/380/380 318/318/318 382/382/382
f 380/380/380 382/382/382 381/381/381
f 381/381/381 382/382/382 298/298/298
f 318/318/318 311/311/311 382/382/382
f 382/382/382 311/311/311 298/298/298
