g Sphere002
v -1.8885111 5.812239 8.182307
v -3.592161 4.9441853 8.182307
v -4.944185 6.8050876 5.882107
v -2.5993128 7.9998603 5.882107
v -0.80890316 -2.4603107 14.309387
v -1.2095764 -1.6457636 17.23688
v -0.64425343 -1.9368082 17.268862
v -0.0072195954 -2.0365696 17.26398
v -0.0050933934 -2.5869393 14.306137
v 0.61988354 -1.9372455 17.26398
v 0.7927399 -2.4605727 14.306137
v 1.1856021 -1.6489964 17.26398
v 1.512476 -2.0938473 14.306136
v 1.6345572 -1.20004 17.26398
v 2.0836601 -1.5226612 14.306136
v 1.9228048 -0.63432115 17.26398
v 2.4503832 -0.8029251 14.306136
v 2.0221274 -0.0072175944 17.26398
v 2.5767467 -0.0050913575 14.306136
v 1.9228027 0.6198851 17.26398
v 2.450381 0.7927416 14.306131
v 1.6345538 1.1856029 17.26398
v 2.0836556 1.5124769 14.306137
v 1.185596 1.6345594 17.26398
v 1.5124688 2.0836623 14.306131
v 0.61987627 1.9228061 17.26398
v 0.79273117 2.450384 14.306131
v -0.0072200214 2.0221276 17.263979
v -0.0050950306 2.5767455 14.306131
v -0.63432485 1.9228039 17.26398
v -0.802929 2.4503818 14.306131
v -1.2000424 1.6345569 17.26398
v -1.5226642 2.083659 14.306131
v -1.6489996 1.1855993 17.26398
v -2.0938504 1.5124726 14.306131
v -1.9372476 0.61988133 17.26398
v -2.4605742 0.7927367 14.306131
v -2.0365705 -0.007221443 17.26398
v -2.5869384 -0.0050963075 14.306136
v -1.9368082 -0.6442558 17.268862
v -2.4603095 -0.8089063 14.309387
v -1.6457645 -1.2095776 17.23688
v -2.091903 -1.5284034 14.2728405
v -1.5284015 -2.0919037 14.2728405
v -0.9857584 -2.9957216 11.0181675
v 0.012035537 -3.152013 11.01622
v 0.9835573 -2.9933617 11.016224
v 1.8592695 -2.5420167 11.016181
v 2.5526104 -1.8421739 11.016149
v 2.9957385 -0.96235937 11.016115
v 3.145306 0.011292305 11.0160885
v 2.9867036 0.9834824 11.01607
v 2.5354786 1.8590705 11.0160675
v 1.8357911 2.552391 11.016065
v 0.95612717 2.9955912 11.016076
v -0.017440181 3.145304 11.016098
v -0.98965496 2.986867 11.016128
v -1.865362 2.5357606 11.016162
v -2.558843 1.8361068 11.016196
v -3.0021944 0.9563667 11.016232
v -3.152019 -0.017378023 11.016263
v -2.993726 -0.991936 11.0179615
v -2.528964 -1.8864214 10.975276
v -1.8456634 -2.5584993 10.976881
v -1.0457573 3.1850963 10.335115
v -1.9798647 2.7068279 10.335022
v -2.7204711 1.9633079 10.334924
v -3.1950755 1.0273097 10.334832
v -3.3572 -0.0096582575 10.334686
v -3.191718 -1.0448195 10.336877
v -2.7079482 -1.9877279 10.2927685
v -0.009583725 3.3513076 10.3351965
v -1.9686863 -2.7217474 10.293575
v 1.0272279 3.1892014 10.335251
v -1.0419273 -3.1926563 10.336985
v 1.963209 2.7146435 10.33528
v 0.0040862067 -3.3572028 10.334665
v 2.7067451 1.9740825 10.335289
v 1.0400152 -3.190954 10.334832
v 3.1850524 1.0400065 10.335251
v 1.974132 -2.7126155 10.334919
v 3.3513129 0.0038341114 10.335193
v 2.7147033 -1.9690374 10.335017
v 3.1892445 -1.0330111 10.335112
v -0.0028452068 -4.035837 9.653109
v 1.2437204 -3.8385234 9.653436
v 2.3680992 -3.2656717 9.653649
v 3.2604382 -2.3733954 9.653882
v 3.8333786 -1.24903 9.654104
v 4.0308247 -0.0026324796 9.654292
v -1.2447313 -3.8398082 9.655798
v -2.369163 -3.2687411 9.610262
v -1.5940001 -4.9058433 8.895108
v 3.8334372 1.2437859 9.654429
v -3.2687383 -2.3691678 9.610262
v 5.038452E-06 -5.158309 8.895108
v 3.2605307 2.3682017 9.654508
v -3.839805 -1.2447369 9.655797
v 1.5940096 -4.9058404 8.895108
v 2.36819 3.260539 9.654499
v -4.035836 -0.0028514387 9.653101
v 3.0319815 -4.173155 8.895103
v 1.2437706 3.8334417 9.654429
v -3.8385243 1.2437156 9.653428
v 4.173162 -3.0319717 8.895103
v -0.00263897 4.0308237 9.654292
v -3.2656736 2.3680956 9.653649
v 4.9058437 -1.5939977 8.895103
v -1.2490356 3.8333764 9.654104
v -2.3733995 3.2604349 9.653882
v 5.1583066 7.830603E-06 8.895103
v 4.905839 1.5940129 8.895104
v 4.1731524 3.0319839 8.895104
v 3.031968 4.173163 8.895104
v 1.5939939 4.905844 8.8951025
v -1.9378662E-07 5.1583056 8.8951025
v -1.5940043 4.9058404 8.8951025
v -3.031976 4.173157 8.895104
v -4.1731577 3.031976 8.895104
v -4.9058423 1.5940033 8.895104
v -5.1583066 -2.1494075E-06 8.895103
v -4.905841 -1.5940064 8.895103
v -4.1731563 -3.0319793 8.84942
v -3.0319731 -4.17316 8.84942
v -1.8885111 5.812239 8.182307
v -3.592161 4.9441853 8.182307
v -2.6713556E-07 6.11135 8.182307
v -2.5993128 7.9998603 5.882107
v -4.944186 3.5921605 8.182307
v 1.8884985 5.8122435 8.182307
v -3.6768057E-07 8.411551 5.882107
v 3.5921512 4.944193 8.182307
v -6.8050885 4.9441853 5.882107
v -4.944185 6.8050876 5.882107
v -5.8122396 1.8885096 8.182307
v 2.599295 7.9998655 5.882107
v 4.944179 3.59217 8.182307
v -7.9998612 2.5993109 5.882107
v -6.1113496 -2.0174418E-06 8.182307
v 4.944172 6.8050976 5.882107
v 5.8122354 1.888521 8.182307
v -8.411551 -2.6663977E-06 5.8821063
v -5.8122387 -1.8885134 8.182307
v 6.805079 4.944198 5.882107
v 6.1113496 9.784787E-06 8.182307
v -7.9998593 -2.5993154 5.8821063
v -4.9441833 -3.5921643 8.182307
v 7.9998565 2.5993261 5.882107
v 5.812241 -1.8885025 8.182307
v -6.805085 -4.9441895 5.8821063
v -3.5921578 -4.9441886 8.182307
v 8.411551 1.35779765E-05 5.8821063
v 4.94419 -3.5921545 8.182307
v -4.944181 -6.8050914 5.8821063
v -1.8885059 -5.8122406 8.182307
v 7.999864 -2.5993001 5.8821063
v 3.592167 -4.944182 8.182307
v -2.5993054 -7.999863 5.8821063
v 5.901114E-06 -6.1113496 8.182307
v 1.8885174 -5.8122363 8.182307
v 6.8050942 -4.944176 5.8821063
v 8.122187E-06 -8.411551 5.8821063
v 2.5993211 -7.9998584 5.8821063
v 4.9441943 -6.805082 5.8821063
v -3.0556674 -9.404402 2.9836817
v 9.548203E-06 -9.888371 2.9836817
v 3.055685 -9.404396 2.9836817
v 5.812248 -7.999853 2.9836817
v 7.999868 -5.8122272 2.9836817
v 9.404404 -3.0556607 2.983682
v -5.812233 -7.999865 2.9836817
v 9.888371 1.6075495E-05 2.983682
v -7.9998565 -5.812243 2.9836817
v 9.404394 3.0556915 2.9836822
v -9.404399 -3.0556788 2.983682
v 7.9998503 5.812254 2.9836807
v -9.888371 -3.020913E-06 2.983682
v 5.812223 7.9998717 2.9836807
v -9.404401 3.055673 2.9836822
v 3.0556552 9.4044075 2.9836807
v -7.9998612 5.812239 2.9836807
v -4.3223443E-07 9.888371 2.983681
v -5.8122387 7.9998603 2.9836807
v -3.0556753 9.404399 2.9836807
v -10.397248 -3.0462838E-06 -0.22924508
v -9.888372 3.212925 -0.22924493
v -8.411551 6.1113496 -0.22924481
v -6.1113486 8.411551 -0.22924471
v -3.212927 9.8883705 -0.22924465
v -4.5447817E-07 10.397249 -0.22924463
v -9.888369 -3.2129304 -0.22924444
v 3.212906 9.888378 -0.22924465
v -8.411548 -6.1113534 -0.22924457
v 6.1113324 8.411563 -0.22924471
v -6.1113443 -8.411555 -0.22924466
v 8.41154 6.1113653 -0.22924481
v -3.212918 -9.888374 -0.22924474
v 9.888366 3.2129443 -0.22924493
v 1.0039575E-05 -10.397248 -0.22924475
v 10.397248 1.7032868E-05 -0.22924508
v 3.2129376 -9.888369 -0.22924474
v 9.888375 -3.2129116 -0.22924444
v 6.1113605 -8.411543 -0.22924466
v 8.411559 -6.1113377 -0.22924457
v 9.548202E-06 -9.8883705 -3.4421725
v 3.0556848 -9.404396 -3.4421725
v 5.812248 -7.999853 -3.4421725
v 7.999868 -5.8122277 -3.4421716
v 9.404403 -3.05566 -3.4421716
v 9.8883705 1.6356376E-05 -3.4421713
v -3.0556667 -9.404402 -3.4421725
v 9.404394 3.0556917 -3.4421718
v -5.812233 -7.9998636 -3.4421725
v 7.99985 5.8122535 -3.4421718
v -7.9998565 -5.8122425 -3.4421716
v 5.812223 7.9998713 -3.4421709
v -9.404398 -3.0556781 -3.4421716
v 3.0556543 9.404407 -3.4421709
v -9.8883705 -2.7400292E-06 -3.4421713
v -4.3223443E-07 9.8883705 -3.4421709
v -9.404399 3.0556731 -3.4421718
v -3.0556753 9.404399 -3.4421709
v -7.9998603 5.812238 -3.4421718
v -5.8122373 7.9998593 -3.4421709
v -7.9998593 -2.5993154 -6.3405933
v -8.411551 -2.1321257E-06 -6.3405933
v -7.9998612 2.599311 -6.3405933
v -6.8050885 4.9441853 -6.3405933
v -4.944185 6.8050895 -6.3405933
v -2.5993128 7.9998612 -6.3405933
v -6.805085 -4.9441886 -6.3405933
v -3.6768057E-07 8.411551 -6.3405933
v -4.944181 -6.805091 -6.340594
v 2.599295 7.999867 -6.3405933
v -2.5993054 -7.9998612 -6.340594
v 4.944172 6.8050985 -6.3405933
v 8.122187E-06 -8.4115505 -6.340594
v 6.805079 4.9441986 -6.3405933
v 2.5993211 -7.999857 -6.340594
v 7.9998565 2.5993264 -6.3405933
v 4.9441943 -6.8050804 -6.340594
v 8.411551 1.41122455E-05 -6.3405933
v 6.8050942 -4.9441757 -6.3405933
v 7.999864 -2.5993001 -6.3405933
v 1.8885169 -5.8122354 -8.640797
v 3.5921667 -4.94418 -8.640796
v 4.94419 -3.5921535 -8.640797
v 5.8122406 -1.8885014 -8.640797
v 6.1113486 1.0520147E-05 -8.640797
v 5.8122354 1.8885216 -8.640796
v 5.9011136E-06 -6.111348 -8.640797
v 4.9441786 3.5921707 -8.640796
v -1.8885059 -5.8122387 -8.640797
v 3.5921507 4.944193 -8.640797
v -3.5921571 -4.9441867 -8.640796
v 1.8884982 5.812243 -8.640797
v -4.944183 -3.5921633 -8.640797
v -2.6713556E-07 6.11135 -8.640797
v -5.812237 -1.8885124 -8.640797
v -1.8885111 5.812239 -8.640797
v -6.1113486 -1.2820798E-06 -8.640797
v -3.5921605 4.9441857 -8.640797
v -5.8122387 1.8885102 -8.640796
v -4.9441853 3.5921612 -8.640796
v -2.5993094 -1.8885103 -10.117617
v -3.0556722 -0.9928488 -10.117617
v -3.2129245 -2.730993E-07 -10.117617
v -3.055673 0.9928486 -10.117617
v 6.3168674E-23 7.960476E-07 -10.6264925
v -1.888508 -2.599311 -10.117617
v -2.5993106 1.8885102 -10.117617
v -1.8885095 2.5993114 -10.117617
v -0.9928457 -3.055673 -10.117617
v -0.99284834 3.0556734 -10.117617
v 3.1023972E-06 -3.2129238 -10.117617
v -1.404414E-07 3.2129254 -10.117617
v 0.9928517 -3.055671 -10.117617
v 0.9928418 3.055676 -10.117617
v 1.8885127 -2.5993075 -10.117617
v 1.8885044 2.5993152 -10.117617
v 2.599313 -1.8885053 -10.117617
v 2.5993068 1.8885151 -10.117617
v 3.0556743 -0.9928431 -10.117617
v 3.055671 0.99285436 -10.117617
v 3.2129245 5.9316953E-06 -10.117617
v -0.0072216 -0.0072212145 18.349556
v 0.61987627 1.9228061 17.26398
v 1.185596 1.6345594 17.26398
v 1.6345538 1.1856029 17.26398
v -0.0072200214 2.0221276 17.263979
v 1.9228027 0.6198851 17.26398
v -0.63432485 1.9228039 17.26398
v 2.0221274 -0.0072175944 17.26398
v -1.2000424 1.6345569 17.26398
v 1.9228048 -0.63432115 17.26398
v -1.6489996 1.1855993 17.26398
v 1.6345572 -1.20004 17.26398
v -1.9372476 0.61988133 17.26398
v 1.1856021 -1.6489964 17.26398
v -2.0365705 -0.007221443 17.26398
v 0.61988354 -1.9372455 17.26398
v -1.9368082 -0.6442558 17.268862
v -0.0072195954 -2.0365696 17.26398
v -1.6457645 -1.2095776 17.23688
v -0.64425343 -1.9368082 17.268862
v -1.2095764 -1.6457636 17.23688
vt 0.4091797 0.9042969
vt 0.32714844 0.9042969
vt 0.26220703 0.7939453
vt 0.375 0.7939453
vt 0.43066406 0.9399414
vt 0.36816406 0.9399414
vt 0.43066406 0.9399414
vt 0.5 0.9399414
vt 0.5 0.9399414
vt 0.56933594 0.9399414
vt 0.56933594 0.9399414
vt 0.63183594 0.9399414
vt 0.63183594 0.9399414
vt 0.68115234 0.9399414
vt 0.68115234 0.9399414
vt 0.7133789 0.9399414
vt 0.7133789 0.9399414
vt 0.7241211 0.9399414
vt 0.7241211 0.9399414
vt 0.7133789 0.9399414
vt 0.7133789 0.9399414
vt 0.68115234 0.9399414
vt 0.68115234 0.9399414
vt 0.63183594 0.9399414
vt 0.63183594 0.9399414
vt 0.56933594 0.9399414
vt 0.56933594 0.9399414
vt 0.5 0.9399414
vt 0.5 0.9399414
vt 0.43066406 0.9399414
vt 0.43066406 0.9399414
vt 0.36816406 0.9399414
vt 0.36816406 0.9399414
vt 0.31860352 0.9399414
vt 0.31860352 0.9399414
vt 0.28686523 0.9399414
vt 0.28686523 0.9399414
vt 0.2758789 0.9399414
vt 0.2758789 0.9399414
vt 0.28686523 0.9399414
vt 0.28686523 0.9399414
vt 0.31860352 0.9399414
vt 0.31860352 0.9399414
vt 0.36816406 0.9399414
vt 0.43066406 0.9399414
vt 0.5 0.9399414
vt 0.56933594 0.9399414
vt 0.63183594 0.9399414
vt 0.68115234 0.9399414
vt 0.7133789 0.9399414
vt 0.7241211 0.9399414
vt 0.7133789 0.9399414
vt 0.68115234 0.9399414
vt 0.63183594 0.9399414
vt 0.56933594 0.9399414
vt 0.5 0.9399414
vt 0.43066406 0.9399414
vt 0.36816406 0.9399414
vt 0.31860352 0.9399414
vt 0.28686523 0.9399414
vt 0.2758789 0.9399414
vt 0.28686523 0.9399414
vt 0.31860352 0.9399414
vt 0.36816406 0.9399414
vt 0.43066406 0.9399414
vt 0.36816406 0.9399414
vt 0.31860352 0.9399414
vt 0.28686523 0.9399414
vt 0.2758789 0.9399414
vt 0.28686523 0.9399414
vt 0.31860352 0.9399414
vt 0.5 0.9399414
vt 0.36816406 0.9399414
vt 0.56933594 0.9399414
vt 0.43066406 0.9399414
vt 0.63183594 0.9399414
vt 0.5 0.9399414
vt 0.68115234 0.9399414
vt 0.56933594 0.9399414
vt 0.7133789 0.9399414
vt 0.63183594 0.9399414
vt 0.7241211 0.9399414
vt 0.68115234 0.9399414
vt 0.7133789 0.9399414
vt 0.5 0.9399414
vt 0.56933594 0.9399414
vt 0.63183594 0.9399414
vt 0.68115234 0.9399414
vt 0.7133789 0.9399414
vt 0.7241211 0.9399414
vt 0.43066406 0.9399414
vt 0.36816406 0.9399414
vt 0.43066406 0.9399414
vt 0.7133789 0.9399414
vt 0.31860352 0.9399414
vt 0.5 0.9399414
vt 0.68115234 0.9399414
vt 0.28686523 0.9399414
vt 0.56933594 0.9399414
vt 0.63183594 0.9399414
vt 0.2758789 0.9399414
vt 0.63183594 0.9399414
vt 0.56933594 0.9399414
vt 0.28686523 0.9399414
vt 0.68115234 0.9399414
vt 0.5 0.9399414
vt 0.31860352 0.9399414
vt 0.7133789 0.9399414
vt 0.43066406 0.9399414
vt 0.36816406 0.9399414
vt 0.7241211 0.9399414
vt 0.7133789 0.9399414
vt 0.68115234 0.9399414
vt 0.63183594 0.9399414
vt 0.56933594 0.9399414
vt 0.5 0.9399414
vt 0.43066406 0.9399414
vt 0.36816406 0.9399414
vt 0.31860352 0.9399414
vt 0.28686523 0.9399414
vt 0.2758789 0.9399414
vt 0.28686523 0.9399414
vt 0.31860352 0.9399414
vt 0.36816406 0.9399414
vt 0.4091797 0.9042969
vt 0.32714844 0.9042969
vt 0.5 0.9042969
vt 0.375 0.7939453
vt 0.26220703 0.9042969
vt 0.5908203 0.9042969
vt 0.5 0.7939453
vt 0.67285156 0.9042969
vt 0.17272949 0.7939453
vt 0.26220703 0.7939453
vt 0.22045898 0.9042969
vt 0.625 0.7939453
vt 0.73779297 0.9042969
vt 0.11529541 0.7939453
vt 0.20605469 0.9042969
vt 0.73779297 0.7939453
vt 0.7792969 0.9042969
vt 0.09552002 0.7939453
vt 0.22045898 0.9042969
vt 0.82714844 0.7939453
vt 0.7939453 0.9042969
vt 0.11529541 0.7939453
vt 0.26220703 0.9042969
vt 0.8847656 0.7939453
vt 0.7792969 0.9042969
vt 0.17272949 0.7939453
vt 0.32714844 0.9042969
vt 0.9042969 0.7939453
vt 0.73779297 0.9042969
vt 0.26220703 0.7939453
vt 0.4091797 0.9042969
vt 0.8847656 0.7939453
vt 0.67285156 0.9042969
vt 0.375 0.7939453
vt 0.5 0.9042969
vt 0.5908203 0.9042969
vt 0.82714844 0.7939453
vt 0.5 0.7939453
vt 0.625 0.7939453
vt 0.73779297 0.7939453
vt 0.35302734 0.6542969
vt 0.5 0.6542969
vt 0.64697266 0.6542969
vt 0.7792969 0.6542969
vt 0.8847656 0.6542969
vt 0.95214844 0.6542969
vt 0.22045898 0.6542969
vt 0.97558594 0.6542969
vt 0.11529541 0.6542969
vt 0.95214844 0.6542969
vt 0.04776001 0.6542969
vt 0.8847656 0.6542969
vt 0.024475098 0.6542969
vt 0.7792969 0.6542969
vt 0.04776001 0.6542969
vt 0.64697266 0.6542969
vt 0.11529541 0.6542969
vt 0.5 0.6542969
vt 0.22045898 0.6542969
vt 0.35302734 0.6542969
vt 0 0.5
vt 0.024475098 0.5
vt 0.09552002 0.5
vt 0.20605469 0.5
vt 0.34545898 0.5
vt 0.5 0.5
vt 0.024475098 0.5
vt 0.6542969 0.5
vt 0.09552002 0.5
vt 0.7939453 0.5
vt 0.20605469 0.5
vt 0.9042969 0.5
vt 0.34545898 0.5
vt 0.97558594 0.5
vt 0.5 0.5
vt 1 0.5
vt 0.6542969 0.5
vt 0.97558594 0.5
vt 0.7939453 0.5
vt 0.9042969 0.5
vt 0.5 0.34545898
vt 0.64697266 0.34545898
vt 0.7792969 0.34545898
vt 0.8847656 0.34545898
vt 0.95214844 0.34545898
vt 0.97558594 0.34545898
vt 0.35302734 0.34545898
vt 0.95214844 0.34545898
vt 0.22045898 0.34545898
vt 0.8847656 0.34545898
vt 0.11529541 0.34545898
vt 0.7792969 0.34545898
vt 0.04776001 0.34545898
vt 0.64697266 0.34545898
vt 0.024475098 0.34545898
vt 0.5 0.34545898
vt 0.04776001 0.34545898
vt 0.35302734 0.34545898
vt 0.11529541 0.34545898
vt 0.22045898 0.34545898
vt 0.11529541 0.20605469
vt 0.09552002 0.20605469
vt 0.11529541 0.20605469
vt 0.17272949 0.20605469
vt 0.26220703 0.20605469
vt 0.375 0.20605469
vt 0.17272949 0.20605469
vt 0.5 0.20605469
vt 0.26220703 0.20605469
vt 0.625 0.20605469
vt 0.375 0.20605469
vt 0.73779297 0.20605469
vt 0.5 0.20605469
vt 0.82714844 0.20605469
vt 0.625 0.20605469
vt 0.8847656 0.20605469
vt 0.73779297 0.20605469
vt 0.9042969 0.20605469
vt 0.82714844 0.20605469
vt 0.8847656 0.20605469
vt 0.5908203 0.09552002
vt 0.67285156 0.09552002
vt 0.73779297 0.09552002
vt 0.7792969 0.09552002
vt 0.7939453 0.09552002
vt 0.7792969 0.09552002
vt 0.5 0.09552002
vt 0.73779297 0.09552002
vt 0.4091797 0.09552002
vt 0.67285156 0.09552002
vt 0.32714844 0.09552002
vt 0.5908203 0.09552002
vt 0.26220703 0.09552002
vt 0.5 0.09552002
vt 0.22045898 0.09552002
vt 0.4091797 0.09552002
vt 0.20605469 0.09552002
vt 0.32714844 0.09552002
vt 0.22045898 0.09552002
vt 0.26220703 0.09552002
vt 0.375 0.024475098
vt 0.35302734 0.024475098
vt 0.34545898 0.024475098
vt 0.35302734 0.024475098
vt 0.5 0
vt 0.4091797 0.024475098
vt 0.375 0.024475098
vt 0.4091797 0.024475098
vt 0.45214844 0.024475098
vt 0.45214844 0.024475098
vt 0.5 0.024475098
vt 0.5 0.024475098
vt 0.54785156 0.024475098
vt 0.54785156 0.024475098
vt 0.5908203 0.024475098
vt 0.5908203 0.024475098
vt 0.625 0.024475098
vt 0.625 0.024475098
vt 0.64697266 0.024475098
vt 0.64697266 0.024475098
vt 0.6542969 0.024475098
vt 0.5 1
vt 0.56933594 0.9399414
vt 0.63183594 0.9399414
vt 0.68115234 0.9399414
vt 0.5 0.9399414
vt 0.7133789 0.9399414
vt 0.43066406 0.9399414
vt 0.7241211 0.9399414
vt 0.36816406 0.9399414
vt 0.7133789 0.9399414
vt 0.31860352 0.9399414
vt 0.68115234 0.9399414
vt 0.28686523 0.9399414
vt 0.63183594 0.9399414
vt 0.2758789 0.9399414
vt 0.56933594 0.9399414
vt 0.28686523 0.9399414
vt 0.5 0.9399414
vt 0.31860352 0.9399414
vt 0.43066406 0.9399414
vt 0.36816406 0.9399414
vn -0.32299805 0.63378906 0.7026367
vn -0.32299805 0.63378906 0.7026367
vn -0.32299805 0.63378906 0.7026367
vn -0.32299805 0.63378906 0.7026367
vn -0.3076172 -0.9350586 0.17578125
vn -0.5810547 -0.79345703 0.1817627
vn -0.30639648 -0.93408203 0.18261719
vn 0.0006928444 -0.98291016 0.18286133
vn 0.0014286041 -0.984375 0.17578125
vn 0.30371094 -0.9350586 0.18322754
vn 0.30517578 -0.93603516 0.17626953
vn 0.5776367 -0.79541016 0.18347168
vn 0.57958984 -0.79589844 0.17651367
vn 0.79541016 -0.5776367 0.18371582
vn 0.796875 -0.5776367 0.17675781
vn 0.9345703 -0.30371094 0.18408203
vn 0.93652344 -0.30322266 0.17700195
vn 0.98291016 -6.920099E-05 0.18432617
vn 0.984375 0.0010728836 0.17712402
vn 0.9345703 0.30371094 0.18444824
vn 0.9355469 0.30517578 0.17736816
vn 0.7949219 0.5776367 0.18457031
vn 0.79541016 0.57910156 0.17736816
vn 0.5776367 0.7949219 0.18457031
vn 0.5776367 0.796875 0.17736816
vn 0.30371094 0.9345703 0.18444824
vn 0.30322266 0.93652344 0.17736816
vn -7.164478E-05 0.98291016 0.18432617
vn -0.0010204315 0.984375 0.17712402
vn -0.30371094 0.9345703 0.18408203
vn -0.30517578 0.9355469 0.17700195
vn -0.5776367 0.79541016 0.18371582
vn -0.57958984 0.79589844 0.17675781
vn -0.79541016 0.5776367 0.18347168
vn -0.796875 0.5776367 0.17651367
vn -0.9350586 0.30371094 0.18322754
vn -0.93652344 0.30322266 0.17614746
vn -0.98291016 0.0006918907 0.18286133
vn -0.984375 -0.00018584728 0.17590332
vn -0.93408203 -0.30639648 0.18261719
vn -0.9345703 -0.3095703 0.17565918
vn -0.79345703 -0.5810547 0.1817627
vn -0.79248047 -0.5839844 0.17492676
vn -0.58203125 -0.7944336 0.1751709
vn -0.30493164 -0.9243164 0.22949219
vn 0.0031929016 -0.97314453 0.23083496
vn 0.30419922 -0.9243164 0.23083496
vn 0.57470703 -0.78515625 0.2310791
vn 0.7890625 -0.56884766 0.23132324
vn 0.92626953 -0.29711914 0.23156738
vn 0.97265625 0.003604889 0.23168945
vn 0.9238281 0.30395508 0.2319336
vn 0.78466797 0.57470703 0.2319336
vn 0.56884766 0.7890625 0.2319336
vn 0.29736328 0.92626953 0.2319336
vn -0.0034885406 0.97265625 0.23168945
vn -0.30395508 0.9243164 0.23156738
vn -0.57470703 0.78515625 0.23132324
vn -0.7890625 0.56884766 0.2310791
vn -0.92626953 0.29736328 0.23083496
vn -0.97314453 -0.0029087067 0.23059082
vn -0.92285156 -0.3095703 0.22973633
vn -0.78027344 -0.58154297 0.2298584
vn -0.57373047 -0.7861328 0.22937012
vn -0.26464844 0.8095703 0.5239258
vn -0.5019531 0.6879883 0.5239258
vn -0.6904297 0.49951172 0.5234375
vn -0.81103516 0.26171875 0.5234375
vn -0.8520508 -0.0008544922 0.5234375
vn -0.8076172 -0.27490234 0.5214844
vn -0.6816406 -0.51123047 0.5234375
vn -0.0016441345 0.8515625 0.52441406
vn -0.5083008 -0.6845703 0.52246094
vn 0.2614746 0.8100586 0.52441406
vn -0.2722168 -0.80908203 0.5209961
vn 0.49902344 0.6899414 0.52441406
vn 0.0017232895 -0.8515625 0.5239258
vn 0.6879883 0.5019531 0.52441406
vn 0.26489258 -0.8100586 0.5234375
vn 0.80908203 0.26464844 0.52441406
vn 0.5019531 -0.68847656 0.5234375
vn 0.8515625 0.0015993118 0.52441406
vn 0.6899414 -0.49926758 0.5239258
vn 0.8105469 -0.26171875 0.5239258
vn 0.00046610832 -0.63134766 0.7753906
vn 0.19494629 -0.60009766 0.7758789
vn 0.3708496 -0.5107422 0.7758789
vn 0.5102539 -0.3708496 0.7758789
vn 0.5996094 -0.19494629 0.7763672
vn 0.6303711 -6.943941E-05 0.7763672
vn -0.20666504 -0.5966797 0.7753906
vn -0.3828125 -0.5048828 0.7734375
vn -0.18603516 -0.5463867 0.81640625
vn 0.5996094 0.19470215 0.7763672
vn -0.5048828 -0.3828125 0.7739258
vn 0.00020205975 -0.5810547 0.81347656
vn 0.5097656 0.37036133 0.7763672
vn -0.5966797 -0.20690918 0.7753906
vn 0.17956543 -0.5527344 0.81396484
vn 0.37036133 0.5097656 0.7763672
vn -0.63134766 0.00045967102 0.7753906
vn 0.34155273 -0.4699707 0.81396484
vn 0.19458008 0.5996094 0.7763672
vn -0.60009766 0.19482422 0.7758789
vn 0.4699707 -0.3413086 0.81396484
vn -0.0001732111 0.6303711 0.7763672
vn -0.5107422 0.37060547 0.7758789
vn 0.5522461 -0.17944336 0.81396484
vn -0.19506836 0.5996094 0.7763672
vn -0.3708496 0.5102539 0.7758789
vn 0.5805664 2.425909E-05 0.8144531
vn 0.5522461 0.17944336 0.8144531
vn 0.46948242 0.34106445 0.8144531
vn 0.34106445 0.46948242 0.8144531
vn 0.17944336 0.5522461 0.8144531
vn 2.3066998E-05 0.5805664 0.8144531
vn -0.17944336 0.5522461 0.81396484
vn -0.3413086 0.4699707 0.81396484
vn -0.4699707 0.34155273 0.81396484
vn -0.5527344 0.17956543 0.81396484
vn -0.5810547 0.0002014637 0.81347656
vn -0.5463867 -0.18603516 0.81640625
vn -0.45825195 -0.34301758 0.8198242
vn -0.34301758 -0.45825195 0.8198242
vn -0.18469238 0.5683594 0.8017578
vn -0.35131836 0.48364258 0.8017578
vn -3.5762787E-07 0.59765625 0.8017578
vn -0.25170898 0.77441406 0.5805664
vn -0.48364258 0.35131836 0.8017578
vn 0.18469238 0.5683594 0.8017578
vn -4.7683716E-07 0.8144531 0.5805664
vn 0.35131836 0.48364258 0.8017578
vn -0.6586914 0.47851562 0.5805664
vn -0.47851562 0.6586914 0.5805664
vn -0.5683594 0.18469238 0.8017578
vn 0.25170898 0.77441406 0.5805664
vn 0.48364258 0.35131836 0.8017578
vn -0.77441406 0.25170898 0.5805664
vn -0.59765625 -2.3841858E-07 0.8017578
vn 0.47851562 0.6586914 0.5805664
vn 0.5683594 0.18469238 0.8017578
vn -0.8144531 -3.5762787E-07 0.5805664
vn -0.5683594 -0.18469238 0.8017578
vn 0.6586914 0.47851562 0.5805664
vn 0.59765625 8.940697E-07 0.8017578
vn -0.77441406 -0.25170898 0.5805664
vn -0.48364258 -0.35131836 0.8017578
vn 0.77441406 0.25170898 0.5805664
vn 0.5683594 -0.18469238 0.8017578
vn -0.6586914 -0.47851562 0.5805664
vn -0.35131836 -0.48364258 0.8017578
vn 0.8144531 1.1920929E-06 0.5805664
vn 0.48364258 -0.35131836 0.8017578
vn -0.47851562 -0.6586914 0.5805664
vn -0.18469238 -0.5683594 0.8017578
vn 0.77441406 -0.25170898 0.5805664
vn 0.35131836 -0.48364258 0.8017578
vn -0.25170898 -0.77441406 0.5805664
vn 5.364418E-07 -0.59765625 0.8017578
vn 0.18469238 -0.5683594 0.8017578
vn 0.6586914 -0.47851562 0.5805664
vn 7.748604E-07 -0.8144531 0.5805664
vn 0.25170898 -0.77441406 0.5805664
vn 0.47851562 -0.6586914 0.5805664
vn -0.2944336 -0.9057617 0.30444336
vn 9.536743E-07 -0.9526367 0.30444336
vn 0.2944336 -0.9057617 0.30444336
vn 0.5600586 -0.7705078 0.30444336
vn 0.7705078 -0.5600586 0.30444336
vn 0.9057617 -0.2944336 0.30444336
vn -0.5600586 -0.7705078 0.30444336
vn 0.9526367 1.4305115E-06 0.30444336
vn -0.7705078 -0.5600586 0.30444336
vn 0.9057617 0.2944336 0.30444336
vn -0.9057617 -0.2944336 0.30444336
vn 0.7705078 0.5600586 0.30444336
vn -0.9526367 -3.5762787E-07 0.30444336
vn 0.5600586 0.7705078 0.30444336
vn -0.9057617 0.2944336 0.30444336
vn 0.2944336 0.9057617 0.30444336
vn -0.7705078 0.5600586 0.30444336
vn -5.9604645E-07 0.9526367 0.30444336
vn -0.5600586 0.7705078 0.30444336
vn -0.2944336 0.9057617 0.30444336
vn -1 -4.172325E-07 -1.1920929E-07
vn -0.9511719 0.30908203 0
vn -0.80908203 0.5878906 -1.1920929E-07
vn -0.5878906 0.80908203 -1.1920929E-07
vn -0.30908203 0.9511719 0
vn -6.556511E-07 1 0
vn -0.9511719 -0.30908203 -1.1920929E-07
vn 0.30908203 0.9511719 0
vn -0.80908203 -0.5878906 -1.1920929E-07
vn 0.5878906 0.80908203 0
vn -0.5878906 -0.80908203 -1.7881393E-07
vn 0.80908203 0.5878906 0
vn -0.30908203 -0.9511719 -1.7881393E-07
vn 0.9511719 0.30908203 -1.1920929E-07
vn 9.536743E-07 -1 -1.1920929E-07
vn 1 1.4901161E-06 -1.1920929E-07
vn 0.30908203 -0.9511719 -1.1920929E-07
vn 0.9511719 -0.30908203 -1.1920929E-07
vn 0.5878906 -0.80908203 -1.1920929E-07
vn 0.80908203 -0.5878906 -1.7881393E-07
vn 8.940697E-07 -0.9526367 -0.30444336
vn 0.2944336 -0.9057617 -0.30444336
vn 0.5600586 -0.7705078 -0.30444336
vn 0.7705078 -0.5600586 -0.30444336
vn 0.9057617 -0.2944336 -0.30444336
vn 0.9526367 1.4305115E-06 -0.30444336
vn -0.2944336 -0.9057617 -0.30444336
vn 0.9057617 0.2944336 -0.30444336
vn -0.5600586 -0.7705078 -0.30444336
vn 0.7705078 0.5600586 -0.30444336
vn -0.7705078 -0.5600586 -0.30444336
vn 0.5600586 0.7705078 -0.30444336
vn -0.9057617 -0.2944336 -0.30444336
vn 0.2944336 0.9057617 -0.30444336
vn -0.9526367 -3.5762787E-07 -0.30444336
vn -5.9604645E-07 0.9526367 -0.30444336
vn -0.9057617 0.2944336 -0.30444336
vn -0.2944336 0.9057617 -0.30444336
vn -0.7705078 0.5600586 -0.30444336
vn -0.5600586 0.7705078 -0.30444336
vn -0.77441406 -0.25170898 -0.5805664
vn -0.8144531 -2.9802322E-07 -0.5805664
vn -0.77441406 0.25170898 -0.5805664
vn -0.6586914 0.47851562 -0.5805664
vn -0.47851562 0.6586914 -0.5805664
vn -0.25170898 0.77441406 -0.5805664
vn -0.6586914 -0.47851562 -0.5805664
vn -4.7683716E-07 0.8144531 -0.5805664
vn -0.47851562 -0.6586914 -0.5805664
vn 0.25170898 0.77441406 -0.5805664
vn -0.25170898 -0.77441406 -0.5805664
vn 0.47851562 0.6586914 -0.5805664
vn 7.748604E-07 -0.8144531 -0.5805664
vn 0.6586914 0.47851562 -0.5805664
vn 0.25170898 -0.77441406 -0.5805664
vn 0.77441406 0.25170898 -0.5805664
vn 0.47851562 -0.6586914 -0.5805664
vn 0.8144531 1.2516975E-06 -0.5805664
vn 0.6586914 -0.47851562 -0.5805664
vn 0.77441406 -0.25170898 -0.5805664
vn 0.18469238 -0.5683594 -0.8017578
vn 0.35131836 -0.48364258 -0.8017578
vn 0.48364258 -0.35131836 -0.8017578
vn 0.5683594 -0.18469238 -0.8017578
vn 0.59765625 9.536743E-07 -0.8017578
vn 0.5683594 0.18469238 -0.8017578
vn 5.364418E-07 -0.59765625 -0.8017578
vn 0.48364258 0.35131836 -0.8017578
vn -0.18469238 -0.5683594 -0.8017578
vn 0.35131836 0.48364258 -0.8017578
vn -0.35131836 -0.48364258 -0.8017578
vn 0.18469238 0.5683594 -0.8017578
vn -0.48364258 -0.35131836 -0.8017578
vn -3.5762787E-07 0.59765625 -0.8017578
vn -0.5683594 -0.18469238 -0.8017578
vn -0.18469238 0.5683594 -0.8017578
vn -0.59765625 -1.7881393E-07 -0.8017578
vn -0.35131836 0.48364258 -0.8017578
vn -0.5683594 0.18469238 -0.8017578
vn -0.48364258 0.35131836 -0.8017578
vn -0.26123047 -0.18981934 -0.94628906
vn -0.3071289 -0.09979248 -0.94628906
vn -0.32299805 0 -0.94628906
vn -0.3071289 0.09979248 -0.94628906
vn -0 0 -1
vn -0.18981934 -0.26123047 -0.94628906
vn -0.26123047 0.18981934 -0.94628906
vn -0.18981934 0.26123047 -0.94628906
vn -0.09979248 -0.3071289 -0.94628906
vn -0.09979248 0.3071289 -0.94628906
vn 2.9802322E-07 -0.32299805 -0.94628906
vn -2.3841858E-07 0.32299805 -0.94628906
vn 0.09979248 -0.3071289 -0.94628906
vn 0.09979248 0.3071289 -0.94628906
vn 0.18981934 -0.26123047 -0.94628906
vn 0.18981934 0.26123047 -0.94628906
vn 0.26123047 -0.18981934 -0.94628906
vn 0.26123047 0.18981934 -0.94628906
vn 0.3071289 -0.09979248 -0.94628906
vn 0.3071289 0.09979248 -0.94628906
vn 0.32299805 5.364418E-07 -0.94628906
vn -0.0010194778 -0.0010194778 1
vn 0.14575195 0.44848633 0.88183594
vn 0.27734375 0.3815918 0.88183594
vn 0.3815918 0.27734375 0.88183594
vn -2.9802322E-07 0.4716797 0.88183594
vn 0.44848633 0.14575195 0.88183594
vn -0.14575195 0.44848633 0.88183594
vn 0.4716797 7.748604E-07 0.88183594
vn -0.27734375 0.3815918 0.88183594
vn 0.44848633 -0.14575195 0.88183594
vn -0.3815918 0.27734375 0.88183594
vn 0.3815918 -0.27734375 0.88183594
vn -0.44848633 0.14575195 0.88183594
vn 0.27734375 -0.3815918 0.88183594
vn -0.4716797 0.003829956 0.88183594
vn 0.14575195 -0.44848633 0.88183594
vn -0.44018555 -0.16442871 0.8828125
vn 0.003829956 -0.4716797 0.88183594
vn -0.37426758 -0.30126953 0.8769531
vn -0.16442871 -0.44018555 0.8828125
vn -0.30126953 -0.37426758 0.8769531
g Sphere002_0
f 3/3/3 2/2/2 1/1/1
f 4/4/4 3/3/3 1/1/1
f 7/7/7 6/6/6 5/5/5
f 7/7/7 5/5/5 8/8/8
f 5/5/5 9/9/9 8/8/8
f 8/8/8 9/9/9 10/10/10
f 9/9/9 11/11/11 10/10/10
f 10/10/10 11/11/11 12/12/12
f 11/11/11 13/13/13 12/12/12
f 12/12/12 13/13/13 14/14/14
f 13/13/13 15/15/15 14/14/14
f 14/14/14 15/15/15 16/16/16
f 15/15/15 17/17/17 16/16/16
f 16/16/16 17/17/17 18/18/18
f 17/17/17 19/19/19 18/18/18
f 18/18/18 19/19/19 20/20/20
f 19/19/19 21/21/21 20/20/20
f 20/20/20 21/21/21 22/22/22
f 21/21/21 23/23/23 22/22/22
f 22/22/22 23/23/23 24/24/24
f 23/23/23 25/25/25 24/24/24
f 24/24/24 25/25/25 26/26/26
f 25/25/25 27/27/27 26/26/26
f 26/26/26 27/27/27 28/28/28
f 27/27/27 29/29/29 28/28/28
f 28/28/28 29/29/29 30/30/30
f 29/29/29 31/31/31 30/30/30
f 30/30/30 31/31/31 32/32/32
f 31/31/31 33/33/33 32/32/32
f 32/32/32 33/33/33 34/34/34
f 33/33/33 35/35/35 34/34/34
f 34/34/34 35/35/35 36/36/36
f 35/35/35 37/37/37 36/36/36
f 36/36/36 37/37/37 38/38/38
f 37/37/37 39/39/39 38/38/38
f 38/38/38 39/39/39 40/40/40
f 39/39/39 41/41/41 40/40/40
f 40/40/40 41/41/41 42/42/42
f 41/41/41 43/43/43 42/42/42
f 42/42/42 43/43/43 6/6/6
f 43/43/43 44/44/44 6/6/6
f 6/6/6 44/44/44 5/5/5
f 5/5/5 44/44/44 45/45/45
f 5/5/5 45/45/45 9/9/9
f 45/45/45 46/46/46 9/9/9
f 9/9/9 46/46/46 11/11/11
f 46/46/46 47/47/47 11/11/11
f 11/11/11 47/47/47 13/13/13
f 47/47/47 48/48/48 13/13/13
f 13/13/13 48/48/48 15/15/15
f 48/48/48 49/49/49 15/15/15
f 15/15/15 49/49/49 17/17/17
f 49/49/49 50/50/50 17/17/17
f 17/17/17 50/50/50 19/19/19
f 50/50/50 51/51/51 19/19/19
f 19/19/19 51/51/51 21/21/21
f 51/51/51 52/52/52 21/21/21
f 21/21/21 52/52/52 23/23/23
f 52/52/52 53/53/53 23/23/23
f 23/23/23 53/53/53 25/25/25
f 53/53/53 54/54/54 25/25/25
f 25/25/25 54/54/54 27/27/27
f 54/54/54 55/55/55 27/27/27
f 27/27/27 55/55/55 29/29/29
f 55/55/55 56/56/56 29/29/29
f 29/29/29 56/56/56 31/31/31
f 56/56/56 57/57/57 31/31/31
f 31/31/31 57/57/57 33/33/33
f 57/57/57 58/58/58 33/33/33
f 33/33/33 58/58/58 35/35/35
f 58/58/58 59/59/59 35/35/35
f 35/35/35 59/59/59 37/37/37
f 59/59/59 60/60/60 37/37/37
f 37/37/37 60/60/60 39/39/39
f 60/60/60 61/61/61 39/39/39
f 39/39/39 61/61/61 41/41/41
f 61/61/61 62/62/62 41/41/41
f 41/41/41 62/62/62 43/43/43
f 62/62/62 63/63/63 43/43/43
f 43/43/43 63/63/63 44/44/44
f 63/63/63 64/64/64 44/44/44
f 44/44/44 64/64/64 45/45/45
f 57/57/57 65/65/65 58/58/58
f 58/58/58 66/66/66 59/59/59
f 65/65/65 66/66/66 58/58/58
f 59/59/59 67/67/67 60/60/60
f 66/66/66 67/67/67 59/59/59
f 60/60/60 68/68/68 61/61/61
f 67/67/67 68/68/68 60/60/60
f 61/61/61 69/69/69 62/62/62
f 68/68/68 69/69/69 61/61/61
f 62/62/62 70/70/70 63/63/63
f 69/69/69 70/70/70 62/62/62
f 63/63/63 71/71/71 64/64/64
f 70/70/70 71/71/71 63/63/63
f 72/72/72 65/65/65 57/57/57
f 56/56/56 72/72/72 57/57/57
f 71/71/71 73/73/73 64/64/64
f 64/64/64 73/73/73 45/45/45
f 74/74/74 72/72/72 56/56/56
f 55/55/55 74/74/74 56/56/56
f 73/73/73 75/75/75 45/45/45
f 45/45/45 75/75/75 46/46/46
f 76/76/76 74/74/74 55/55/55
f 54/54/54 76/76/76 55/55/55
f 75/75/75 77/77/77 46/46/46
f 46/46/46 77/77/77 47/47/47
f 78/78/78 76/76/76 54/54/54
f 53/53/53 78/78/78 54/54/54
f 77/77/77 79/79/79 47/47/47
f 47/47/47 79/79/79 48/48/48
f 80/80/80 78/78/78 53/53/53
f 52/52/52 80/80/80 53/53/53
f 79/79/79 81/81/81 48/48/48
f 48/48/48 81/81/81 49/49/49
f 82/82/82 80/80/80 52/52/52
f 51/51/51 82/82/82 52/52/52
f 81/81/81 83/83/83 49/49/49
f 49/49/49 83/83/83 50/50/50
f 50/50/50 84/84/84 51/51/51
f 84/84/84 82/82/82 51/51/51
f 83/83/83 84/84/84 50/50/50
f 79/79/79 77/77/77 85/85/85
f 81/81/81 79/79/79 86/86/86
f 86/86/86 79/79/79 85/85/85
f 83/83/83 81/81/81 87/87/87
f 87/87/87 81/81/81 86/86/86
f 84/84/84 83/83/83 88/88/88
f 88/88/88 83/83/83 87/87/87
f 82/82/82 84/84/84 89/89/89
f 89/89/89 84/84/84 88/88/88
f 80/80/80 82/82/82 90/90/90
f 90/90/90 82/82/82 89/89/89
f 85/85/85 77/77/77 91/91/91
f 77/77/77 75/75/75 91/91/91
f 91/91/91 75/75/75 92/92/92
f 75/75/75 73/73/73 92/92/92
f 85/85/85 91/91/91 93/93/93
f 93/93/93 91/91/91 92/92/92
f 94/94/94 80/80/80 90/90/90
f 78/78/78 80/80/80 94/94/94
f 92/92/92 73/73/73 95/95/95
f 73/73/73 71/71/71 95/95/95
f 96/96/96 85/85/85 93/93/93
f 86/86/86 85/85/85 96/96/96
f 97/97/97 78/78/78 94/94/94
f 76/76/76 78/78/78 97/97/97
f 95/95/95 71/71/71 98/98/98
f 71/71/71 70/70/70 98/98/98
f 99/99/99 86/86/86 96/96/96
f 87/87/87 86/86/86 99/99/99
f 100/100/100 76/76/76 97/97/97
f 74/74/74 76/76/76 100/100/100
f 98/98/98 70/70/70 101/101/101
f 70/70/70 69/69/69 101/101/101
f 102/102/102 87/87/87 99/99/99
f 88/88/88 87/87/87 102/102/102
f 103/103/103 74/74/74 100/100/100
f 72/72/72 74/74/74 103/103/103
f 101/101/101 69/69/69 104/104/104
f 69/69/69 68/68/68 104/104/104
f 105/105/105 88/88/88 102/102/102
f 89/89/89 88/88/88 105/105/105
f 106/106/106 72/72/72 103/103/103
f 65/65/65 72/72/72 106/106/106
f 104/104/104 68/68/68 107/107/107
f 68/68/68 67/67/67 107/107/107
f 108/108/108 89/89/89 105/105/105
f 90/90/90 89/89/89 108/108/108
f 109/109/109 65/65/65 106/106/106
f 66/66/66 65/65/65 109/109/109
f 67/67/67 66/66/66 110/110/110
f 107/107/107 67/67/67 110/110/110
f 110/110/110 66/66/66 109/109/109
f 111/111/111 90/90/90 108/108/108
f 94/94/94 90/90/90 111/111/111
f 112/112/112 94/94/94 111/111/111
f 97/97/97 94/94/94 112/112/112
f 113/113/113 97/97/97 112/112/112
f 100/100/100 97/97/97 113/113/113
f 114/114/114 100/100/100 113/113/113
f 103/103/103 100/100/100 114/114/114
f 115/115/115 103/103/103 114/114/114
f 106/106/106 103/103/103 115/115/115
f 109/109/109 106/106/106 116/116/116
f 116/116/116 106/106/106 115/115/115
f 110/110/110 109/109/109 117/117/117
f 117/117/117 109/109/109 116/116/116
f 118/118/118 110/110/110 117/117/117
f 107/107/107 110/110/110 118/118/118
f 119/119/119 107/107/107 118/118/118
f 104/104/104 107/107/107 119/119/119
f 120/120/120 104/104/104 119/119/119
f 101/101/101 104/104/104 120/120/120
f 121/121/121 101/101/101 120/120/120
f 98/98/98 101/101/101 121/121/121
f 122/122/122 98/98/98 121/121/121
f 95/95/95 98/98/98 122/122/122
f 123/123/123 95/95/95 122/122/122
f 92/92/92 95/95/95 123/123/123
f 124/124/124 92/92/92 123/123/123
f 124/124/124 93/93/93 92/92/92
f 118/118/118 117/117/117 125/125/125
f 119/119/119 118/118/118 126/126/126
f 126/126/126 118/118/118 125/125/125
f 125/125/125 117/117/117 127/127/127
f 117/117/117 116/116/116 127/127/127
f 128/128/128 125/125/125 127/127/127
f 129/129/129 119/119/119 126/126/126
f 120/120/120 119/119/119 129/129/129
f 127/127/127 116/116/116 130/130/130
f 116/116/116 115/115/115 130/130/130
f 131/131/131 128/128/128 127/127/127
f 131/131/131 127/127/127 130/130/130
f 130/130/130 115/115/115 132/132/132
f 115/115/115 114/114/114 132/132/132
f 133/133/133 129/129/129 126/126/126
f 134/134/134 133/133/133 126/126/126
f 135/135/135 120/120/120 129/129/129
f 121/121/121 120/120/120 135/135/135
f 136/136/136 131/131/131 130/130/130
f 136/136/136 130/130/130 132/132/132
f 132/132/132 114/114/114 137/137/137
f 114/114/114 113/113/113 137/137/137
f 133/133/133 138/138/138 129/129/129
f 138/138/138 135/135/135 129/129/129
f 139/139/139 121/121/121 135/135/135
f 122/122/122 121/121/121 139/139/139
f 140/140/140 136/136/136 132/132/132
f 140/140/140 132/132/132 137/137/137
f 137/137/137 113/113/113 141/141/141
f 113/113/113 112/112/112 141/141/141
f 138/138/138 142/142/142 135/135/135
f 142/142/142 139/139/139 135/135/135
f 143/143/143 122/122/122 139/139/139
f 123/123/123 122/122/122 143/143/143
f 144/144/144 140/140/140 137/137/137
f 144/144/144 137/137/137 141/141/141
f 141/141/141 112/112/112 145/145/145
f 112/112/112 111/111/111 145/145/145
f 142/142/142 146/146/146 139/139/139
f 146/146/146 143/143/143 139/139/139
f 147/147/147 123/123/123 143/143/143
f 124/124/124 123/123/123 147/147/147
f 148/148/148 144/144/144 141/141/141
f 148/148/148 141/141/141 145/145/145
f 145/145/145 111/111/111 149/149/149
f 111/111/111 108/108/108 149/149/149
f 146/146/146 150/150/150 143/143/143
f 150/150/150 147/147/147 143/143/143
f 151/151/151 124/124/124 147/147/147
f 93/93/93 124/124/124 151/151/151
f 152/152/152 148/148/148 145/145/145
f 152/152/152 145/145/145 149/149/149
f 149/149/149 108/108/108 153/153/153
f 108/108/108 105/105/105 153/153/153
f 150/150/150 154/154/154 147/147/147
f 154/154/154 151/151/151 147/147/147
f 155/155/155 93/93/93 151/151/151
f 96/96/96 93/93/93 155/155/155
f 156/156/156 152/152/152 149/149/149
f 156/156/156 149/149/149 153/153/153
f 153/153/153 105/105/105 157/157/157
f 105/105/105 102/102/102 157/157/157
f 154/154/154 158/158/158 151/151/151
f 158/158/158 155/155/155 151/151/151
f 159/159/159 96/96/96 155/155/155
f 99/99/99 96/96/96 159/159/159
f 102/102/102 99/99/99 160/160/160
f 157/157/157 102/102/102 160/160/160
f 160/160/160 99/99/99 159/159/159
f 161/161/161 153/153/153 157/157/157
f 161/161/161 156/156/156 153/153/153
f 162/162/162 159/159/159 155/155/155
f 158/158/158 162/162/162 155/155/155
f 163/163/163 160/160/160 159/159/159
f 162/162/162 163/163/163 159/159/159
f 164/164/164 157/157/157 160/160/160
f 164/164/164 161/161/161 157/157/157
f 163/163/163 164/164/164 160/160/160
f 165/165/165 158/158/158 154/154/154
f 166/166/166 162/162/162 158/158/158
f 165/165/165 166/166/166 158/158/158
f 167/167/167 163/163/163 162/162/162
f 166/166/166 167/167/167 162/162/162
f 168/168/168 164/164/164 163/163/163
f 167/167/167 168/168/168 163/163/163
f 169/169/169 161/161/161 164/164/164
f 168/168/168 169/169/169 164/164/164
f 170/170/170 156/156/156 161/161/161
f 169/169/169 170/170/170 161/161/161
f 171/171/171 165/165/165 154/154/154
f 171/171/171 154/154/154 150/150/150
f 170/170/170 172/172/172 156/156/156
f 172/172/172 152/152/152 156/156/156
f 173/173/173 171/171/171 150/150/150
f 173/173/173 150/150/150 146/146/146
f 172/172/172 174/174/174 152/152/152
f 174/174/174 148/148/148 152/152/152
f 175/175/175 173/173/173 146/146/146
f 175/175/175 146/146/146 142/142/142
f 174/174/174 176/176/176 148/148/148
f 176/176/176 144/144/144 148/148/148
f 177/177/177 175/175/175 142/142/142
f 177/177/177 142/142/142 138/138/138
f 176/176/176 178/178/178 144/144/144
f 178/178/178 140/140/140 144/144/144
f 179/179/179 177/177/177 138/138/138
f 179/179/179 138/138/138 133/133/133
f 178/178/178 180/180/180 140/140/140
f 180/180/180 136/136/136 140/140/140
f 181/181/181 179/179/179 133/133/133
f 181/181/181 133/133/133 134/134/134
f 180/180/180 182/182/182 136/136/136
f 182/182/182 131/131/131 136/136/136
f 183/183/183 181/181/181 134/134/134
f 183/183/183 134/134/134 128/128/128
f 184/184/184 128/128/128 131/131/131
f 182/182/182 184/184/184 131/131/131
f 184/184/184 183/183/183 128/128/128
f 185/185/185 177/177/177 179/179/179
f 186/186/186 179/179/179 181/181/181
f 186/186/186 185/185/185 179/179/179
f 187/187/187 181/181/181 183/183/183
f 187/187/187 186/186/186 181/181/181
f 188/188/188 183/183/183 184/184/184
f 188/188/188 187/187/187 183/183/183
f 189/189/189 184/184/184 182/182/182
f 189/189/189 188/188/188 184/184/184
f 190/190/190 182/182/182 180/180/180
f 190/190/190 189/189/189 182/182/182
f 185/185/185 191/191/191 177/177/177
f 191/191/191 175/175/175 177/177/177
f 192/192/192 190/190/190 180/180/180
f 192/192/192 180/180/180 178/178/178
f 191/191/191 193/193/193 175/175/175
f 193/193/193 173/173/173 175/175/175
f 194/194/194 192/192/192 178/178/178
f 194/194/194 178/178/178 176/176/176
f 193/193/193 195/195/195 173/173/173
f 195/195/195 171/171/171 173/173/173
f 196/196/196 194/194/194 176/176/176
f 196/196/196 176/176/176 174/174/174
f 195/195/195 197/197/197 171/171/171
f 197/197/197 165/165/165 171/171/171
f 198/198/198 196/196/196 174/174/174
f 198/198/198 174/174/174 172/172/172
f 197/197/197 199/199/199 165/165/165
f 199/199/199 166/166/166 165/165/165
f 200/200/200 198/198/198 172/172/172
f 200/200/200 172/172/172 170/170/170
f 199/199/199 201/201/201 166/166/166
f 201/201/201 167/167/167 166/166/166
f 202/202/202 200/200/200 170/170/170
f 202/202/202 170/170/170 169/169/169
f 201/201/201 203/203/203 167/167/167
f 203/203/203 168/168/168 167/167/167
f 204/204/204 169/169/169 168/168/168
f 204/204/204 202/202/202 169/169/169
f 203/203/203 204/204/204 168/168/168
f 205/205/205 199/199/199 197/197/197
f 206/206/206 201/201/201 199/199/199
f 205/205/205 206/206/206 199/199/199
f 207/207/207 203/203/203 201/201/201
f 206/206/206 207/207/207 201/201/201
f 208/208/208 204/204/204 203/203/203
f 207/207/207 208/208/208 203/203/203
f 209/209/209 202/202/202 204/204/204
f 208/208/208 209/209/209 204/204/204
f 210/210/210 200/200/200 202/202/202
f 209/209/209 210/210/210 202/202/202
f 211/211/211 205/205/205 197/197/197
f 211/211/211 197/197/197 195/195/195
f 210/210/210 212/212/212 200/200/200
f 212/212/212 198/198/198 200/200/200
f 213/213/213 211/211/211 195/195/195
f 213/213/213 195/195/195 193/193/193
f 212/212/212 214/214/214 198/198/198
f 214/214/214 196/196/196 198/198/198
f 215/215/215 213/213/213 193/193/193
f 215/215/215 193/193/193 191/191/191
f 214/214/214 216/216/216 196/196/196
f 216/216/216 194/194/194 196/196/196
f 217/217/217 215/215/215 191/191/191
f 217/217/217 191/191/191 185/185/185
f 216/216/216 218/218/218 194/194/194
f 218/218/218 192/192/192 194/194/194
f 219/219/219 217/217/217 185/185/185
f 219/219/219 185/185/185 186/186/186
f 218/218/218 220/220/220 192/192/192
f 220/220/220 190/190/190 192/192/192
f 221/221/221 219/219/219 186/186/186
f 221/221/221 186/186/186 187/187/187
f 220/220/220 222/222/222 190/190/190
f 222/222/222 189/189/189 190/190/190
f 223/223/223 221/221/221 187/187/187
f 223/223/223 187/187/187 188/188/188
f 224/224/224 188/188/188 189/189/189
f 222/222/222 224/224/224 189/189/189
f 224/224/224 223/223/223 188/188/188
f 225/225/225 217/217/217 219/219/219
f 226/226/226 219/219/219 221/221/221
f 226/226/226 225/225/225 219/219/219
f 227/227/227 221/221/221 223/223/223
f 227/227/227 226/226/226 221/221/221
f 228/228/228 223/223/223 224/224/224
f 228/228/228 227/227/227 223/223/223
f 229/229/229 224/224/224 222/222/222
f 229/229/229 228/228/228 224/224/224
f 230/230/230 222/222/222 220/220/220
f 230/230/230 229/229/229 222/222/222
f 225/225/225 231/231/231 217/217/217
f 231/231/231 215/215/215 217/217/217
f 232/232/232 230/230/230 220/220/220
f 232/232/232 220/220/220 218/218/218
f 231/231/231 233/233/233 215/215/215
f 233/233/233 213/213/213 215/215/215
f 234/234/234 232/232/232 218/218/218
f 234/234/234 218/218/218 216/216/216
f 233/233/233 235/235/235 213/213/213
f 235/235/235 211/211/211 213/213/213
f 236/236/236 234/234/234 216/216/216
f 236/236/236 216/216/216 214/214/214
f 235/235/235 237/237/237 211/211/211
f 237/237/237 205/205/205 211/211/211
f 238/238/238 236/236/236 214/214/214
f 238/238/238 214/214/214 212/212/212
f 237/237/237 239/239/239 205/205/205
f 239/239/239 206/206/206 205/205/205
f 240/240/240 238/238/238 212/212/212
f 240/240/240 212/212/212 210/210/210
f 239/239/239 241/241/241 206/206/206
f 241/241/241 207/207/207 206/206/206
f 242/242/242 240/240/240 210/210/210
f 242/242/242 210/210/210 209/209/209
f 241/241/241 243/243/243 207/207/207
f 243/243/243 208/208/208 207/207/207
f 244/244/244 209/209/209 208/208/208
f 244/244/244 242/242/242 209/209/209
f 243/243/243 244/244/244 208/208/208
f 245/245/245 239/239/239 237/237/237
f 246/246/246 241/241/241 239/239/239
f 245/245/245 246/246/246 239/239/239
f 247/247/247 243/243/243 241/241/241
f 246/246/246 247/247/247 241/241/241
f 248/248/248 244/244/244 243/243/243
f 247/247/247 248/248/248 243/243/243
f 249/249/249 242/242/242 244/244/244
f 248/248/248 249/249/249 244/244/244
f 250/250/250 240/240/240 242/242/242
f 249/249/249 250/250/250 242/242/242
f 251/251/251 245/245/245 237/237/237
f 251/251/251 237/237/237 235/235/235
f 250/250/250 252/252/252 240/240/240
f 252/252/252 238/238/238 240/240/240
f 253/253/253 251/251/251 235/235/235
f 253/253/253 235/235/235 233/233/233
f 252/252/252 254/254/254 238/238/238
f 254/254/254 236/236/236 238/238/238
f 255/255/255 253/253/253 233/233/233
f 255/255/255 233/233/233 231/231/231
f 254/254/254 256/256/256 236/236/236
f 256/256/256 234/234/234 236/236/236
f 257/257/257 255/255/255 231/231/231
f 257/257/257 231/231/231 225/225/225
f 256/256/256 258/258/258 234/234/234
f 258/258/258 232/232/232 234/234/234
f 259/259/259 257/257/257 225/225/225
f 259/259/259 225/225/225 226/226/226
f 258/258/258 260/260/260 232/232/232
f 260/260/260 230/230/230 232/232/232
f 261/261/261 259/259/259 226/226/226
f 261/261/261 226/226/226 227/227/227
f 260/260/260 262/262/262 230/230/230
f 262/262/262 229/229/229 230/230/230
f 263/263/263 261/261/261 227/227/227
f 263/263/263 227/227/227 228/228/228
f 264/264/264 228/228/228 229/229/229
f 262/262/262 264/264/264 229/229/229
f 264/264/264 263/263/263 228/228/228
f 265/265/265 257/257/257 259/259/259
f 266/266/266 259/259/259 261/261/261
f 266/266/266 265/265/265 259/259/259
f 267/267/267 261/261/261 263/263/263
f 267/267/267 266/266/266 261/261/261
f 268/268/268 263/263/263 264/264/264
f 268/268/268 267/267/267 263/263/263
f 266/266/266 267/267/267 269/269/269
f 265/265/265 266/266/266 269/269/269
f 267/267/267 268/268/268 269/269/269
f 270/270/270 265/265/265 269/269/269
f 265/265/265 270/270/270 257/257/257
f 268/268/268 271/271/271 269/269/269
f 271/271/271 268/268/268 264/264/264
f 271/271/271 264/264/264 262/262/262
f 270/270/270 255/255/255 257/257/257
f 272/272/272 271/271/271 262/262/262
f 271/271/271 272/272/272 269/269/269
f 272/272/272 262/262/262 260/260/260
f 270/270/270 273/273/273 255/255/255
f 273/273/273 270/270/270 269/269/269
f 273/273/273 253/253/253 255/255/255
f 274/274/274 272/272/272 260/260/260
f 272/272/272 274/274/274 269/269/269
f 274/274/274 260/260/260 258/258/258
f 273/273/273 275/275/275 253/253/253
f 275/275/275 273/273/273 269/269/269
f 275/275/275 251/251/251 253/253/253
f 276/276/276 274/274/274 258/258/258
f 274/274/274 276/276/276 269/269/269
f 276/276/276 258/258/258 256/256/256
f 275/275/275 277/277/277 251/251/251
f 277/277/277 275/275/275 269/269/269
f 276/276/276 278/278/278 269/269/269
f 278/278/278 276/276/276 256/256/256
f 279/279/279 277/277/277 269/269/269
f 277/277/277 245/245/245 251/251/251
f 277/277/277 279/279/279 245/245/245
f 278/278/278 256/256/256 254/254/254
f 279/279/279 246/246/246 245/245/245
f 280/280/280 278/278/278 254/254/254
f 278/278/278 280/280/280 269/269/269
f 280/280/280 254/254/254 252/252/252
f 279/279/279 281/281/281 246/246/246
f 281/281/281 279/279/279 269/269/269
f 281/281/281 247/247/247 246/246/246
f 282/282/282 280/280/280 252/252/252
f 280/280/280 282/282/282 269/269/269
f 282/282/282 252/252/252 250/250/250
f 281/281/281 283/283/283 247/247/247
f 283/283/283 281/281/281 269/269/269
f 283/283/283 248/248/248 247/247/247
f 284/284/284 282/282/282 250/250/250
f 282/282/282 284/284/284 269/269/269
f 284/284/284 250/250/250 249/249/249
f 285/285/285 249/249/249 248/248/248
f 283/283/283 285/285/285 248/248/248
f 285/285/285 283/283/283 269/269/269
f 285/285/285 284/284/284 249/249/249
f 284/284/284 285/285/285 269/269/269
f 288/288/288 287/287/287 286/286/286
f 289/289/289 288/288/288 286/286/286
f 287/287/287 290/290/290 286/286/286
f 291/291/291 289/289/289 286/286/286
f 290/290/290 292/292/292 286/286/286
f 293/293/293 291/291/291 286/286/286
f 292/292/292 294/294/294 286/286/286
f 295/295/295 293/293/293 286/286/286
f 294/294/294 296/296/296 286/286/286
f 297/297/297 295/295/295 286/286/286
f 296/296/296 298/298/298 286/286/286
f 299/299/299 297/297/297 286/286/286
f 298/298/298 300/300/300 286/286/286
f 301/301/301 299/299/299 286/286/286
f 300/300/300 302/302/302 286/286/286
f 303/303/303 301/301/301 286/286/286
f 302/302/302 304/304/304 286/286/286
f 305/305/305 303/303/303 286/286/286
f 304/304/304 306/306/306 286/286/286
f 306/306/306 305/305/305 286/286/286
