g FX_MESH_Eye_Round_01R
v 0.023288244 0.0009900521 -0.009705571
v 0.0099046845 0.0032684603 -0.0014992857
v 0.024509016 0.00020230492 -0.0016010188
v 0.00660454 0.0019991635 0.007927566
v 0.01625866 -0.0029709355 0.021966109
v 0.021368137 -0.001760427 0.014384851
v 0.008648329 0.0024833682 0.004895062
v -0.004480323 0.0015371179 0.009854974
v -0.0034452793 -0.0038155455 0.029840121
v -0.0012770344 0.0016613207 0.01107717
v -0.011453501 -0.004126054 0.026784632
v -0.01825622 -0.0034799057 0.02057767
v -0.00720141 0.0017955761 0.00737219
v -0.009146277 0.0025382005 0.0016061091
v -0.023118388 -0.0016233433 0.006162468
v -0.021905134 -0.002529007 0.012970481
v -0.008660975 0.0021759362 0.004329314
v 0.02388629 -0.0007566802 0.0064087748
v 0.009655595 0.0028848653 0.0017046332
v 0.008648329 0.0024833682 0.004895062
v 0.021368137 -0.001760427 0.014384851
v -0.009146277 0.0025382005 0.0016061091
v -0.023001743 -0.00067426154 -0.0019085908
v -0.023118388 -0.0016233433 0.006162468
v -0.0090996185 0.002917833 -0.0016223144
v -0.02158623 0.0003877511 -0.010376229
v 0.024509016 0.00020230492 -0.0016010188
v 0.0099046845 0.0032684603 -0.0014992857
v 0.009655595 0.0028848653 0.0017046332
v 0.02388629 -0.0007566802 0.0064087748
v -0.00720141 0.0017955761 0.00737219
v -0.008660975 0.0021759362 0.004329314
v -0.021905134 -0.002529007 0.012970481
v -0.01825622 -0.0034799057 0.02057767
v 0.0018648311 0.0016304995 0.010832599
v 0.004409383 -0.0038925945 0.029228691
v 0.011020647 -0.0036670747 0.026128788
v 0.0045093363 0.0017207086 0.009592636
v 0.00660454 0.0019991635 0.007927566
v 0.01625866 -0.0029709355 0.021966109
v 0.0018648311 0.0016304995 0.010832599
v -0.0012770344 0.0016613207 0.01107717
v -0.0034452793 -0.0038155455 0.029840121
v 0.004409383 -0.0038925945 0.029228691
vt 0.038106084 0.34082383
vt 0.329077 0.4772092
vt 0.009009421 0.4763099
vt 0.3883692 0.63361925
vt 0.15723991 0.8673349
vt 0.06122458 0.7421872
vt 0.34996307 0.58356017
vt 0.6172215 0.66552883
vt 0.56002045 0.99592954
vt 0.5494814 0.68505704
vt 0.7293706 0.9471089
vt 0.87690115 0.84399813
vt 0.67623365 0.6242845
vt 0.723334 0.5287775
vt 0.99465185 0.6052305
vt 0.96143603 0.7179546
vt 0.71004766 0.5738671
vt 0.015488803 0.6095622
vt 0.3316688 0.5305101
vt 0.34996307 0.58356017
vt 0.06122458 0.7421872
vt 0.723334 0.5287775
vt 0.99861395 0.4709249
vt 0.99465185 0.6052305
vt 0.72491884 0.47505522
vt 0.9766574 0.33020818
vt 0.009009421 0.4763099
vt 0.329077 0.4772092
vt 0.3316688 0.5305101
vt 0.015488803 0.6095622
vt 0.67623365 0.6242845
vt 0.71004766 0.5738671
vt 0.96143603 0.7179546
vt 0.87690115 0.84399813
vt 0.48400605 0.6808075
vt 0.39633197 0.9853056
vt 0.26070482 0.9355698
vt 0.42975515 0.6609132
vt 0.3883692 0.63361925
vt 0.15723991 0.8673349
vt 0.48400605 0.6808075
vt 0.5494814 0.68505704
vt 0.56002045 0.99592954
vt 0.39633197 0.9853056
vn -0.20547475 -0.9765694 -0.0639705
vn -0.20547476 -0.9765694 -0.06397049
vn -0.20547475 -0.9765694 -0.06397049
vn -0.13698106 -0.95965695 -0.2455497
vn -0.13698106 -0.95965695 -0.24554963
vn -0.13698106 -0.95965695 -0.24554966
vn -0.13698106 -0.95965695 -0.24554966
vn 0.13733391 -0.95500094 -0.26289248
vn 0.13733391 -0.95500094 -0.26289248
vn 0.13733394 -0.95500094 -0.26289248
vn 0.13733394 -0.95500094 -0.26289248
vn 0.1458867 -0.9547214 -0.25927612
vn 0.14588675 -0.9547214 -0.25927615
vn 0.23047692 -0.95836675 -0.16856375
vn 0.23047687 -0.95836675 -0.16856375
vn 0.23047692 -0.95836675 -0.16856375
vn 0.23047692 -0.95836675 -0.16856375
vn -0.18735579 -0.96553636 -0.18065827
vn -0.18735579 -0.96553636 -0.18065825
vn -0.18735579 -0.96553636 -0.18065827
vn -0.18735579 -0.96553636 -0.18065827
vn 0.25077757 -0.9618343 -0.10947849
vn 0.25077757 -0.9618343 -0.10947849
vn 0.25077754 -0.9618343 -0.10947849
vn 0.25077757 -0.9618343 -0.10947849
vn 0.25091127 -0.9647763 -0.07905815
vn -0.20455097 -0.9699112 -0.13202712
vn -0.20455095 -0.9699112 -0.13202712
vn -0.20455095 -0.9699112 -0.13202712
vn -0.20455095 -0.9699112 -0.13202712
vn 0.1992898 -0.9560421 -0.21509804
vn 0.1992898 -0.9560421 -0.21509804
vn 0.1992898 -0.9560421 -0.21509804
vn 0.19928977 -0.9560421 -0.21509801
vn -0.09585141 -0.9569291 -0.27404246
vn -0.095851414 -0.9569291 -0.27404246
vn -0.09585141 -0.9569291 -0.27404246
vn -0.09585141 -0.9569291 -0.27404246
vn -0.09185091 -0.9568742 -0.2755998
vn -0.09185089 -0.9568742 -0.27559984
vn -0.031463936 -0.9584812 -0.28341463
vn -0.031463925 -0.9584812 -0.28341463
vn -0.031463936 -0.9584812 -0.28341463
vn -0.03146395 -0.9584812 -0.28341463
g FX_MESH_Eye_Round_01R_0
f 3/3/3 2/2/2 1/1/1
f 6/6/6 5/5/5 4/4/4
f 7/7/7 6/6/6 4/4/4
f 10/10/10 9/9/9 8/8/8
f 9/9/9 11/11/11 8/8/8
f 11/11/11 12/12/12 8/8/8
f 12/12/12 13/13/13 8/8/8
f 16/16/16 15/15/15 14/14/14
f 17/17/17 16/16/16 14/14/14
f 20/20/20 19/19/19 18/18/18
f 21/21/21 20/20/20 18/18/18
f 24/24/24 23/23/23 22/22/22
f 23/23/23 25/25/25 22/22/22
f 23/23/23 26/26/26 25/25/25
f 29/29/29 28/28/28 27/27/27
f 30/30/30 29/29/29 27/27/27
f 33/33/33 32/32/32 31/31/31
f 34/34/34 33/33/33 31/31/31
f 37/37/37 36/36/36 35/35/35
f 38/38/38 37/37/37 35/35/35
f 37/37/37 38/38/38 39/39/39
f 40/40/40 37/37/37 39/39/39
f 43/43/43 42/42/42 41/41/41
f 44/44/44 43/43/43 41/41/41
