g FX_Sphere_002
v 0.0004769516 1.5055695E-08 -0.10969353
v 0.01950717 -0.09567082 -0.12185108
v 0.00047704577 -0.09754515 -0.12185108
v 0.037806068 -0.18766509 -0.15811974
v 0.00047713637 -0.1913417 -0.15811974
v 0.054670427 -0.2724475 -0.21789752
v 0.00047721982 -0.2777851 -0.21789752
v 0.06945216 -0.34675986 -0.3002145
v 0.00047729298 -0.35355338 -0.3002145
v 0.081583224 -0.4077465 -0.40377834
v 0.00047735302 -0.41573483 -0.40377834
v 0.0905974 -0.45306358 -0.52703434
v 0.00047739767 -0.46193972 -0.52703434
v 0.096148305 -0.4809697 -0.6682333
v 0.0004774251 -0.49039257 -0.6682333
v 0.09802262 -0.49039248 -0.8255022
v 0.0004774344 -0.49999994 -0.8255022
v 0.09614832 -0.48096973 -0.9969134
v 0.0004774251 -0.4903926 -0.9969134
v 0.090597406 -0.45306358 -1.1805443
v 0.00047739767 -0.46193972 -1.1805443
v 0.081583224 -0.40774646 -1.3745261
v 0.00047735302 -0.41573477 -1.3745261
v 0.06945216 -0.34675983 -1.5770773
v 0.00047729298 -0.35355335 -1.5770773
v 0.05467042 -0.27244744 -1.786517
v 0.00047721982 -0.27778503 -1.786517
v 0.037806045 -0.18766494 -2.0012653
v 0.00047713637 -0.19134155 -2.0012653
v 0.019507146 -0.09567064 -2.219824
v 0.00047704577 -0.097544976 -2.219824
v 0.0004769516 8.2024115E-08 -2.4407442
v 0.037805922 -0.09011975 -2.219824
v 0.0004769516 8.2024115E-08 -2.4407442
v 0.07370043 -0.17677647 -2.0012653
v 0.10678099 -0.25663978 -1.786517
v 0.13577634 -0.32664055 -1.5770773
v 0.05467017 -0.08110559 -2.219824
v 0.0004769516 8.2024115E-08 -2.4407442
v 0.10678086 -0.15909454 -2.0012653
v 0.15957221 -0.38408867 -1.3745261
v 0.15480638 -0.23096961 -1.786517
v 0.0694518 -0.06897461 -2.219824
v 0.0004769516 8.2024115E-08 -2.4407442
v 0.13577607 -0.13529873 -2.0012653
v 0.19690105 -0.29396862 -1.5770773
v 0.17725413 -0.42677647 -1.1805443
v 0.08158276 -0.054192938 -2.219824
v 0.0004769516 8.2024115E-08 -2.4407442
v 0.19690092 -0.19642341 -1.786517
v 0.23144726 -0.34567055 -1.3745261
v 0.1881426 -0.45306346 -0.9969134
v 0.15957184 -0.10630343 -2.0012653
v 0.25047725 -0.24999961 -1.5770773
v 0.2571174 -0.38408855 -1.1805443
v 0.19181919 -0.46193948 -0.8255022
v 0.09059688 -0.037328668 -2.219824
v 0.0004769516 8.2024115E-08 -2.4407442
v 0.23144703 -0.15432875 -1.786517
v 0.29444623 -0.2939685 -1.3745261
v 0.27292502 -0.4077462 -0.9969134
v 0.18814258 -0.45306346 -0.6682333
v 0.17725366 -0.07322295 -2.0012653
v 0.2944461 -0.19642329 -1.5770773
v 0.3271181 -0.32664028 -1.1805444
v 0.2782626 -0.41573447 -0.8255022
v 0.1772541 -0.42677647 -0.52703434
v 0.096147716 -0.019029876 -2.219824
v 0.0004769516 8.2024115E-08 -2.4407442
v 0.34614813 -0.23096938 -1.3745261
v 0.34723735 -0.34675947 -0.9969134
v 0.272925 -0.4077462 -0.66823316
v 0.15957221 -0.3840887 -0.40377837
v 0.3845662 -0.25663945 -1.1805443
v 0.3540308 -0.35355294 -0.8255022
v 0.2571174 -0.38408855 -0.52703434
v 0.13577634 -0.32664058 -0.3002145
v 0.4082239 -0.27244696 -0.9969134
v 0.34723732 -0.34675947 -0.6682333
v 0.23144726 -0.34567058 -0.40377837
v 0.106781006 -0.25663987 -0.21789752
v 0.4162121 -0.27778453 -0.8255022
v 0.32711807 -0.3266403 -0.52703434
v 0.19690105 -0.29396862 -0.3002145
v 0.07370046 -0.17677662 -0.15811974
v 0.40822387 -0.27244696 -0.6682333
v 0.29444623 -0.29396853 -0.40377837
v 0.15480638 -0.2309697 -0.21789752
v 0.03780597 -0.09011992 -0.12185108
v 0.0004769516 1.5055695E-08 -0.10969353
v 0.10678091 -0.15909468 -0.15811974
v 0.25047725 -0.24999966 -0.3002145
v 0.38456616 -0.2566394 -0.52703434
v 0.05467024 -0.081105754 -0.12185108
v 0.0004769516 1.5055695E-08 -0.10969353
v 0.19690093 -0.19642349 -0.21789752
v 0.34614813 -0.23096938 -0.40377837
v 0.13577615 -0.13529883 -0.15811974
v 0.2944461 -0.19642334 -0.3002145
v 0.06945188 -0.06897475 -0.12185108
v 0.0004769516 1.5055695E-08 -0.10969353
v 0.23144704 -0.15432882 -0.21789752
v 0.15957192 -0.10630353 -0.15811974
v 0.08158287 -0.054193065 -0.12185108
v 0.0004769516 1.5055695E-08 -0.10969353
v 0.42725387 -0.17677604 -0.52703434
v 0.38456607 -0.15909424 -0.40377837
v 0.32711786 -0.13529852 -0.3002145
v 0.2571171 -0.10630337 -0.21789752
v 0.17725375 -0.07322304 -0.15811974
v 0.4535409 -0.18766445 -0.6682333
v 0.09059699 -0.037328772 -0.12185108
v 0.0004769516 1.5055695E-08 -0.10969353
v 0.46241698 -0.19134101 -0.8255022
v 0.45354095 -0.18766445 -0.9969134
v 0.4272539 -0.17677604 -1.1805443
v 0.38456607 -0.15909423 -1.3745261
v 0.32711786 -0.13529849 -1.5770773
v 0.25711706 -0.10630332 -1.786517
v 0.18814205 -0.037328552 -2.0012653
v 0.27292454 -0.054192714 -1.786517
v 0.34723702 -0.068974264 -1.5770773
v 0.40822363 -0.08110517 -1.3745261
v 0.4535408 -0.09011924 -1.1805444
v 0.09802199 2.2798707E-07 -2.219824
v 0.0004769516 8.2024115E-08 -2.4407442
v 0.19181858 3.6899942E-07 -2.0012653
v 0.27826205 4.992922E-07 -1.786517
v 0.35403034 6.135184E-07 -1.5770773
v 0.09614766 0.019030325 -2.219824
v 0.0004769516 8.2024115E-08 -2.4407442
v 0.18814193 0.03732928 -2.0012653
v 0.48144698 -0.09567009 -0.9969134
v 0.41621175 7.069631E-07 -1.3745261
v 0.2729244 0.0541937 -1.786517
v 0.09059675 0.0373291 -2.219824
v 0.0004769516 8.2024115E-08 -2.4407442
v 0.17725344 0.07322364 -2.0012653
v 0.34723678 0.06897548 -1.5770773
v 0.4624167 7.757279E-07 -1.1805443
v 0.4908697 -0.09754438 -0.8255022
v 0.08158259 0.054193337 -2.219824
v 0.0004769516 8.2024115E-08 -2.4407442
v 0.2571167 0.10630426 -1.786517
v 0.40822342 0.081106566 -1.3745261
v 0.49086958 8.168852E-07 -0.9969134
v 0.48144695 -0.0956701 -0.66823316
v 0.1595715 0.10630408 -2.0012653
v 0.32711744 0.13529965 -1.5770773
v 0.45354053 0.09012078 -1.1805443
v 0.50047696 8.285921E-07 -0.8255022
v 0.45354074 -0.09011926 -0.52703434
v 0.06945157 0.068974964 -2.219824
v 0.0004769516 8.2024115E-08 -2.4407442
v 0.38456553 0.15909554 -1.3745261
v 0.48144668 0.0956717 -0.9969134
v 0.49086955 8.1016395E-07 -0.6682333
v 0.40822363 -0.081105195 -0.40377837
v 0.42725334 0.1767775 -1.1805443
v 0.49086943 0.09754601 -0.8255022
v 0.46241668 7.62102E-07 -0.52703434
v 0.34723702 -0.0689743 -0.3002145
v 0.45354033 0.18766597 -0.9969134
v 0.48144662 0.09567168 -0.66823316
v 0.41621175 6.860745E-07 -0.40377837
v 0.2729246 -0.054192755 -0.21789752
v 0.46241638 0.19134255 -0.8255022
v 0.45354047 0.090120755 -0.52703434
v 0.35403034 5.848526E-07 -0.3002145
v 0.18814214 -0.037328616 -0.15811974
v 0.4535403 0.18766594 -0.6682333
v 0.40822342 0.08110654 -0.40377837
v 0.27826208 4.6220444E-07 -0.21789752
v 0.09614784 -0.019029956 -0.12185108
v 0.0004769516 1.5055695E-08 -0.10969353
v 0.19181867 3.2274903E-07 -0.15811974
v 0.34723678 0.06897545 -0.3002145
v 0.4272533 0.17677745 -0.52703434
v 0.09802212 1.7177881E-07 -0.12185108
v 0.0004769516 1.5055695E-08 -0.10969353
v 0.27292442 0.05419366 -0.21789752
v 0.38456553 0.15909553 -0.40377837
v 0.18814203 0.03732925 -0.15811974
v 0.32711744 0.13529962 -0.3002145
v 0.09614778 0.019030293 -0.12185108
v 0.0004769516 1.5055695E-08 -0.10969353
v 0.25711676 0.106304236 -0.21789752
v 0.17725353 0.073223636 -0.15811974
v 0.09059686 0.037329093 -0.12185108
v 0.0004769516 1.5055695E-08 -0.10969353
v 0.3845653 0.2566407 -0.52703434
v 0.3461474 0.23097056 -0.40377837
v 0.29444548 0.19642429 -0.30021444
v 0.23144655 0.1543296 -0.21789752
v 0.15957157 0.10630408 -0.15811974
v 0.408223 0.27244833 -0.6682333
v 0.08158269 0.05419336 -0.12185108
v 0.0004769516 1.5055695E-08 -0.10969353
v 0.41621125 0.2777859 -0.8255022
v 0.40822303 0.27244833 -0.9969134
v 0.38456535 0.25664073 -1.1805443
v 0.3461474 0.23097056 -1.3745261
v 0.2944455 0.19642432 -1.5770773
v 0.23144653 0.15432961 -1.786517
v 0.13577566 0.13529928 -2.0012653
v 0.1969003 0.19642414 -1.786517
v 0.25047645 0.25000054 -1.5770773
v 0.29444528 0.29396954 -1.3745261
v 0.32711703 0.3266414 -1.1805444
v 0.05466991 0.08110591 -2.219824
v 0.0004769516 8.2024115E-08 -2.4407442
v 0.10678034 0.15909502 -2.0012653
v 0.15480562 0.23097022 -1.786517
v 0.1969001 0.29396933 -1.5770773
v 0.03780564 0.09012002 -2.219824
v 0.0004769516 8.2024115E-08 -2.4407442
v 0.07369985 0.17677684 -2.0012653
v 0.34723625 0.34676066 -0.9969134
v 0.23144615 0.3456714 -1.3745261
v 0.10678017 0.25664023 -1.786517
v 0.019506836 0.09567085 -2.219824
v 0.0004769516 8.2024115E-08 -2.4407442
v 0.03780544 0.18766521 -2.0012653
v 0.1357753 0.32664108 -1.5770773
v 0.25711617 0.3840894 -1.1805444
v 0.35402966 0.3535541 -0.8255022
v 0.00047694735 0.09754511 -2.219824
v 0.0004769516 8.2024115E-08 -2.4407442
v 0.0004769432 0.1913417 -2.0012653
v 0.05466954 0.2724477 -1.786517
v 0.00047693946 0.27778515 -1.786517
v 0.06945104 0.34676012 -1.5770773
v 0.00047693614 0.3535534 -1.5770773
v 0.15957099 0.38408926 -1.3745261
v 0.081581905 0.4077468 -1.3745264
v 0.0004769334 0.41573486 -1.3745264
v 0.17725277 0.4267771 -1.1805443
v 0.090595946 0.45306396 -1.1805443
v 0.0004769314 0.4619398 -1.1805443
v 0.27292368 0.40774715 -0.9969134
v 0.18814115 0.45306414 -0.9969134
v 0.09614676 0.48097014 -0.9969134
v 0.00047693017 0.49039268 -0.9969134
v 0.27826124 0.41573536 -0.8255022
v 0.1918177 0.46194017 -0.8255022
v 0.098021045 0.49039286 -0.82550216
v 0.0004769297 0.5 -0.8255022
v 0.34723622 0.3467606 -0.6682333
v 0.27292368 0.40774712 -0.66823316
v 0.32711703 0.32664135 -0.52703434
v 0.18814114 0.45306408 -0.6682333
v 0.096146755 0.48097005 -0.66823316
v 0.00047693017 0.4903926 -0.6682333
v 0.29444528 0.29396948 -0.40377837
v 0.25711614 0.38408935 -0.52703434
v 0.17725274 0.42677703 -0.52703434
v 0.09059594 0.45306388 -0.52703434
v 0.0004769314 0.46193972 -0.52703434
v 0.25047645 0.25000048 -0.3002145
v 0.23144615 0.34567136 -0.40377837
v 0.15957099 0.38408923 -0.40377837
v 0.081581905 0.40774676 -0.40377837
v 0.0004769334 0.41573483 -0.40377837
v 0.19690031 0.19642414 -0.21789752
v 0.1969001 0.2939693 -0.3002145
v 0.1357753 0.32664102 -0.30021444
v 0.06945104 0.3467601 -0.3002145
v 0.00047693614 0.35355338 -0.3002145
v 0.13577572 0.13529931 -0.15811974
v 0.15480563 0.23097022 -0.21789752
v 0.10678019 0.25664023 -0.21789752
v 0.05466955 0.2724477 -0.21789752
v 0.00047693946 0.27778515 -0.21789752
v 0.06945167 0.068974994 -0.12185108
v 0.0004769516 1.5055695E-08 -0.10969353
v 0.1067804 0.15909505 -0.15811974
v 0.07369989 0.17677684 -0.15811974
v 0.03780546 0.18766525 -0.15811974
v 0.0004769432 0.19134174 -0.15811974
v 0.05466998 0.08110596 -0.12185108
v 0.0004769516 1.5055695E-08 -0.10969353
v 0.037805684 0.09012008 -0.12185108
v 0.0004769516 1.5055695E-08 -0.10969353
v 0.019506862 0.09567092 -0.12185108
v 0.0004769516 1.5055695E-08 -0.10969353
v 0.00047694735 0.097545184 -0.12185108
v 0.0004769516 1.5055695E-08 -0.10969353
vt -1.1920929E-07 0.5
vt 0.0625 0.53125
vt 0.0625 0.5
vt 0.125 0.53125
vt 0.125 0.5
vt 0.1875 0.53125
vt 0.1875 0.5
vt 0.25 0.53125
vt 0.25 0.5
vt 0.3125 0.53125
vt 0.3125 0.5
vt 0.375 0.53125
vt 0.375 0.5
vt 0.4375 0.53125
vt 0.4375 0.5
vt 0.5 0.53125
vt 0.5 0.5
vt 0.5625 0.53125
vt 0.5625 0.5
vt 0.625 0.53125
vt 0.625 0.5
vt 0.6875 0.53125
vt 0.6875 0.5
vt 0.75 0.53125
vt 0.75 0.5
vt 0.8125 0.53125
vt 0.8125 0.5
vt 0.875 0.53125
vt 0.875 0.5
vt 0.9375 0.53125
vt 0.9375 0.5
vt 1 0.5
vt 0.9375 0.5625
vt 1 0.53125
vt 0.875 0.5625
vt 0.8125 0.5625
vt 0.75 0.5625
vt 0.9375 0.59375
vt 1 0.5625
vt 0.875 0.59375
vt 0.6875 0.5625
vt 0.8125 0.59375
vt 0.9375 0.625
vt 1 0.59375
vt 0.875 0.625
vt 0.75 0.59375
vt 0.625 0.5625
vt 0.9375 0.65625
vt 1 0.625
vt 0.8125 0.625
vt 0.6875 0.59375
vt 0.5625 0.5625
vt 0.875 0.65625
vt 0.75 0.625
vt 0.625 0.59375
vt 0.5 0.5625
vt 0.9375 0.6875
vt 1 0.65625
vt 0.8125 0.65625
vt 0.6875 0.625
vt 0.5625 0.59375
vt 0.4375 0.5625
vt 0.875 0.6875
vt 0.75 0.65625
vt 0.625 0.625
vt 0.5 0.59375
vt 0.375 0.5625
vt 0.9375 0.71875
vt 1 0.6875
vt 0.6875 0.65625
vt 0.5625 0.625
vt 0.4375 0.59375
vt 0.3125 0.5625
vt 0.625 0.65625
vt 0.5 0.625
vt 0.375 0.59375
vt 0.25 0.5625
vt 0.5625 0.65625
vt 0.4375 0.625
vt 0.3125 0.59375
vt 0.1875 0.5625
vt 0.5 0.65625
vt 0.375 0.625
vt 0.25 0.59375
vt 0.125 0.5625
vt 0.4375 0.65625
vt 0.3125 0.625
vt 0.1875 0.59375
vt 0.0625 0.5625
vt -1.1920929E-07 0.53125
vt 0.125 0.59375
vt 0.25 0.625
vt 0.375 0.65625
vt 0.0625 0.59375
vt -1.1920929E-07 0.5625
vt 0.1875 0.625
vt 0.3125 0.65625
vt 0.125 0.625
vt 0.25 0.65625
vt 0.0625 0.625
vt -1.1920929E-07 0.59375
vt 0.1875 0.65625
vt 0.125 0.65625
vt 0.0625 0.65625
vt -1.1920929E-07 0.625
vt 0.375 0.6875
vt 0.3125 0.6875
vt 0.25 0.6875
vt 0.1875 0.6875
vt 0.125 0.6875
vt 0.4375 0.6875
vt 0.0625 0.6875
vt -1.1920929E-07 0.65625
vt 0.5 0.6875
vt 0.5625 0.6875
vt 0.625 0.6875
vt 0.6875 0.6875
vt 0.75 0.6875
vt 0.8125 0.6875
vt 0.875 0.71875
vt 0.8125 0.71875
vt 0.75 0.71875
vt 0.6875 0.71875
vt 0.625 0.71875
vt 0.9375 0.75
vt 1 0.71875
vt 0.875 0.75
vt 0.8125 0.75
vt 0.75 0.75
vt 0.9375 0.78125
vt 1 0.75
vt 0.875 0.78125
vt 0.5625 0.71875
vt 0.6875 0.75
vt 0.8125 0.78125
vt 0.9375 0.8125
vt 1 0.78125
vt 0.875 0.8125
vt 0.75 0.78125
vt 0.625 0.75
vt 0.5 0.71875
vt 0.9375 0.84375
vt 1 0.8125
vt 0.8125 0.8125
vt 0.6875 0.78125
vt 0.5625 0.75
vt 0.4375 0.71875
vt 0.875 0.84375
vt 0.75 0.8125
vt 0.625 0.78125
vt 0.5 0.75
vt 0.375 0.71875
vt 0.9375 0.875
vt 1 0.84375
vt 0.6875 0.8125
vt 0.5625 0.78125
vt 0.4375 0.75
vt 0.3125 0.71875
vt 0.625 0.8125
vt 0.5 0.78125
vt 0.375 0.75
vt 0.25 0.71875
vt 0.5625 0.8125
vt 0.4375 0.78125
vt 0.3125 0.75
vt 0.1875 0.71875
vt 0.5 0.8125
vt 0.375 0.78125
vt 0.25 0.75
vt 0.125 0.71875
vt 0.4375 0.8125
vt 0.3125 0.78125
vt 0.1875 0.75
vt 0.0625 0.71875
vt -1.1920929E-07 0.6875
vt 0.125 0.75
vt 0.25 0.78125
vt 0.375 0.8125
vt 0.0625 0.75
vt -1.1920929E-07 0.71875
vt 0.1875 0.78125
vt 0.3125 0.8125
vt 0.125 0.78125
vt 0.25 0.8125
vt 0.0625 0.78125
vt -1.1920929E-07 0.75
vt 0.1875 0.8125
vt 0.125 0.8125
vt 0.0625 0.8125
vt -1.1920929E-07 0.78125
vt 0.375 0.84375
vt 0.3125 0.84375
vt 0.25 0.84375
vt 0.1875 0.84375
vt 0.125 0.84375
vt 0.4375 0.84375
vt 0.0625 0.84375
vt -1.1920929E-07 0.8125
vt 0.5 0.84375
vt 0.5625 0.84375
vt 0.625 0.84375
vt 0.6875 0.84375
vt 0.75 0.84375
vt 0.8125 0.84375
vt 0.875 0.875
vt 0.8125 0.875
vt 0.75 0.875
vt 0.6875 0.875
vt 0.625 0.875
vt 0.9375 0.90625
vt 1 0.875
vt 0.875 0.90625
vt 0.8125 0.90625
vt 0.75 0.90625
vt 0.9375 0.9375
vt 1 0.90625
vt 0.875 0.9375
vt 0.5625 0.875
vt 0.6875 0.90625
vt 0.8125 0.9375
vt 0.9375 0.96875
vt 1 0.9375
vt 0.875 0.96875
vt 0.75 0.9375
vt 0.625 0.90625
vt 0.5 0.875
vt 0.9375 1
vt 1 0.96875
vt 0.875 1
vt 0.8125 0.96875
vt 0.8125 1
vt 0.75 0.96875
vt 0.75 1
vt 0.6875 0.9375
vt 0.6875 0.96875
vt 0.6875 1
vt 0.625 0.9375
vt 0.625 0.96875
vt 0.625 1
vt 0.5625 0.90625
vt 0.5625 0.9375
vt 0.5625 0.96875
vt 0.5625 1
vt 0.5 0.90625
vt 0.5 0.9375
vt 0.5 0.96875
vt 0.5 1
vt 0.4375 0.875
vt 0.4375 0.90625
vt 0.375 0.875
vt 0.4375 0.9375
vt 0.4375 0.96875
vt 0.4375 1
vt 0.3125 0.875
vt 0.375 0.90625
vt 0.375 0.9375
vt 0.375 0.96875
vt 0.375 1
vt 0.25 0.875
vt 0.3125 0.90625
vt 0.3125 0.9375
vt 0.3125 0.96875
vt 0.3125 1
vt 0.1875 0.875
vt 0.25 0.90625
vt 0.25 0.9375
vt 0.25 0.96875
vt 0.25 1
vt 0.125 0.875
vt 0.1875 0.90625
vt 0.1875 0.9375
vt 0.1875 0.96875
vt 0.1875 1
vt 0.0625 0.875
vt -1.1920929E-07 0.84375
vt 0.125 0.90625
vt 0.125 0.9375
vt 0.125 0.96875
vt 0.125 1
vt 0.0625 0.90625
vt -1.1920929E-07 0.875
vt 0.0625 0.9375
vt -1.1920929E-07 0.90625
vt 0.0625 0.96875
vt -1.1920929E-07 0.9375
vt 0.0625 1
vt -1.1920929E-07 0.96875
vn -0 0 1
vn 0.04901123 -0.24633789 0.96777344
vn 2.3841858E-07 -0.2512207 0.96777344
vn 0.09240723 -0.4645996 0.8808594
vn 4.7683716E-07 -0.4736328 0.8808594
vn 0.12878418 -0.64746094 0.75097656
vn 6.556511E-07 -0.66015625 0.75097656
vn 0.15661621 -0.78759766 0.5961914
vn 8.34465E-07 -0.8027344 0.5961914
vn 0.17590332 -0.88427734 0.43237305
vn 8.940697E-07 -0.90185547 0.43237305
vn 0.18762207 -0.9433594 0.27392578
vn 1.013279E-06 -0.96191406 0.27392578
vn 0.19348145 -0.97265625 0.12902832
vn 1.1324883E-06 -0.9916992 0.12902832
vn 0.19506836 -0.98095703 0.0025024414
vn 1.1324883E-06 -1 0.0025024414
vn 0.19396973 -0.97558594 -0.10437012
vn 1.0728836E-06 -0.9946289 -0.10437012
vn 0.19140625 -0.96240234 -0.19213867
vn 1.013279E-06 -0.9814453 -0.19213867
vn 0.18823242 -0.94628906 -0.26220703
vn 9.536743E-07 -0.96484375 -0.26220703
vn 0.1850586 -0.9301758 -0.31640625
vn 9.536743E-07 -0.94873047 -0.31640625
vn 0.18225098 -0.9165039 -0.3564453
vn 8.940697E-07 -0.93408203 -0.3564453
vn 0.18017578 -0.9057617 -0.38378906
vn 9.536743E-07 -0.92333984 -0.38378906
vn 0.17883301 -0.89941406 -0.39892578
vn 1.013279E-06 -0.9169922 -0.39892578
vn -0 -5.3048134E-06 -1
vn 0.35083008 -0.84716797 -0.39892578
vn -0 -5.3048134E-06 -1
vn 0.35351562 -0.85302734 -0.38378906
vn 0.35742188 -0.86328125 -0.3564453
vn 0.3630371 -0.87646484 -0.31640625
vn 0.50927734 -0.76220703 -0.39892578
vn -0 -5.3048134E-06 -1
vn 0.5131836 -0.7680664 -0.38378906
vn 0.36938477 -0.89160156 -0.26220703
vn 0.51904297 -0.77685547 -0.3564453
vn 0.6484375 -0.6484375 -0.39892578
vn -0 -5.3048134E-06 -1
vn 0.65283203 -0.65283203 -0.38378906
vn 0.52685547 -0.7885742 -0.31640625
vn 0.37548828 -0.9067383 -0.19213867
vn 0.76220703 -0.50927734 -0.39892578
vn -0 -5.3048134E-06 -1
vn 0.66064453 -0.66064453 -0.3564453
vn 0.5361328 -0.8022461 -0.26220703
vn 0.38061523 -0.9189453 -0.10437012
vn 0.7680664 -0.5131836 -0.38378906
vn 0.67089844 -0.67089844 -0.31640625
vn 0.54541016 -0.81591797 -0.19213867
vn 0.38256836 -0.9238281 0.0025024414
vn 0.84716797 -0.35083008 -0.39892578
vn -0 -5.3048134E-06 -1
vn 0.77685547 -0.51904297 -0.3564453
vn 0.6821289 -0.6821289 -0.26220703
vn 0.5527344 -0.82714844 -0.10437012
vn 0.37939453 -0.9160156 0.12902832
vn 0.85302734 -0.35351562 -0.38378906
vn 0.7885742 -0.52685547 -0.31640625
vn 0.69384766 -0.69384766 -0.19213867
vn 0.55566406 -0.83154297 0.0025024414
vn 0.36816406 -0.8886719 0.27392578
vn 0.89941406 -0.17883301 -0.39892578
vn -0 -5.3048134E-06 -1
vn 0.8022461 -0.5361328 -0.26220703
vn 0.703125 -0.703125 -0.10437012
vn 0.55078125 -0.82470703 0.12902832
vn 0.3449707 -0.8330078 0.43237305
vn 0.81591797 -0.54541016 -0.19213867
vn 0.70703125 -0.70703125 0.0025024414
vn 0.5341797 -0.7998047 0.27392578
vn 0.30737305 -0.7416992 0.5961914
vn 0.82714844 -0.5527344 -0.10437012
vn 0.7011719 -0.7011719 0.12902832
vn 0.50097656 -0.7495117 0.43237305
vn 0.25268555 -0.6098633 0.75097656
vn 0.83154297 -0.55566406 0.0025024414
vn 0.6801758 -0.6801758 0.27392578
vn 0.44604492 -0.66748047 0.5961914
vn 0.18127441 -0.4375 0.8808594
vn 0.82470703 -0.55078125 0.12902832
vn 0.6376953 -0.6376953 0.43237305
vn 0.36669922 -0.5488281 0.75097656
vn 0.09613037 -0.23205566 0.96777344
vn -0 0 1
vn 0.2631836 -0.39379883 0.8808594
vn 0.5678711 -0.5678711 0.5961914
vn 0.7998047 -0.5341797 0.27392578
vn 0.13952637 -0.2088623 0.96777344
vn -0 0 1
vn 0.46679688 -0.46679688 0.75097656
vn 0.7495117 -0.50097656 0.43237305
vn 0.33496094 -0.33496094 0.8808594
vn 0.66748047 -0.44604492 0.5961914
vn 0.1776123 -0.1776123 0.96777344
vn -0 0 1
vn 0.5488281 -0.36669922 0.75097656
vn 0.39379883 -0.2631836 0.8808594
vn 0.2088623 -0.13952637 0.96777344
vn -0 0 1
vn 0.8886719 -0.36816406 0.27392578
vn 0.8330078 -0.3449707 0.43237305
vn 0.7416992 -0.30737305 0.5961914
vn 0.6098633 -0.25268555 0.75097656
vn 0.4375 -0.18127441 0.8808594
vn 0.9160156 -0.37939453 0.12902832
vn 0.23205566 -0.09613037 0.96777344
vn -0 0 1
vn 0.9238281 -0.38256836 0.0025024414
vn 0.9189453 -0.38061523 -0.10437012
vn 0.9067383 -0.37548828 -0.19213867
vn 0.89160156 -0.36938477 -0.26220703
vn 0.87646484 -0.3630371 -0.31640625
vn 0.86328125 -0.35742188 -0.3564453
vn 0.9057617 -0.18017578 -0.38378906
vn 0.9165039 -0.18225098 -0.3564453
vn 0.9301758 -0.1850586 -0.31640625
vn 0.94628906 -0.18823242 -0.26220703
vn 0.96240234 -0.19140625 -0.19213867
vn 0.9169922 1.3709068E-06 -0.39892578
vn -0 -5.3048134E-06 -1
vn 0.92333984 1.4305115E-06 -0.38378906
vn 0.93408203 1.4901161E-06 -0.3564453
vn 0.94873047 1.4901161E-06 -0.31640625
vn 0.89941406 0.17883301 -0.39892578
vn -0 -5.3048134E-06 -1
vn 0.9057617 0.18017578 -0.38378906
vn 0.97558594 -0.19396973 -0.10437012
vn 0.96484375 1.4901161E-06 -0.26220703
vn 0.9165039 0.18225098 -0.3564453
vn 0.84716797 0.35083008 -0.39892578
vn -0 -5.3048134E-06 -1
vn 0.85302734 0.35351562 -0.38378906
vn 0.9301758 0.1850586 -0.31640625
vn 0.9814453 1.5497208E-06 -0.19213867
vn 0.98095703 -0.19506836 0.0025024414
vn 0.76220703 0.50927734 -0.39892578
vn -0 -5.3048134E-06 -1
vn 0.86328125 0.35742188 -0.3564453
vn 0.94628906 0.18823242 -0.26220703
vn 0.9946289 1.5497208E-06 -0.10437012
vn 0.97265625 -0.19348145 0.12902832
vn 0.7680664 0.5131836 -0.38378906
vn 0.87646484 0.3630371 -0.31640625
vn 0.96240234 0.19140625 -0.19213867
vn 1 1.4901161E-06 0.0025024414
vn 0.9433594 -0.18762207 0.27392578
vn 0.6484375 0.6484375 -0.39892578
vn -0 -5.3048134E-06 -1
vn 0.89160156 0.36938477 -0.26220703
vn 0.97558594 0.19396973 -0.10437012
vn 0.9916992 1.4901161E-06 0.12902832
vn 0.88427734 -0.17590332 0.43237305
vn 0.9067383 0.37548828 -0.19213867
vn 0.98095703 0.19506836 0.0025024414
vn 0.96191406 1.4305115E-06 0.27392578
vn 0.78759766 -0.15661621 0.5961914
vn 0.9189453 0.38061523 -0.10437012
vn 0.97265625 0.19348145 0.12902832
vn 0.90185547 1.3709068E-06 0.43237305
vn 0.64746094 -0.12878418 0.75097656
vn 0.9238281 0.38256836 0.0025024414
vn 0.9433594 0.18762207 0.27392578
vn 0.8027344 1.2516975E-06 0.5961914
vn 0.4645996 -0.09240723 0.8808594
vn 0.9160156 0.37939453 0.12902832
vn 0.88427734 0.17590332 0.43237305
vn 0.66015625 1.0728836E-06 0.75097656
vn 0.24633789 -0.048980713 0.96777344
vn -0 0 1
vn 0.4736328 7.1525574E-07 0.8808594
vn 0.78759766 0.15661621 0.5961914
vn 0.8886719 0.36816406 0.27392578
vn 0.2512207 3.5762787E-07 0.96777344
vn -0 0 1
vn 0.64746094 0.12878418 0.75097656
vn 0.8330078 0.3449707 0.43237305
vn 0.4645996 0.09240723 0.8808594
vn 0.7416992 0.30737305 0.5961914
vn 0.24633789 0.04901123 0.96777344
vn -0 0 1
vn 0.6098633 0.25268555 0.75097656
vn 0.4375 0.18127441 0.8808594
vn 0.23205566 0.09613037 0.96777344
vn -0 0 1
vn 0.7998047 0.5341797 0.27392578
vn 0.7495117 0.50097656 0.43237305
vn 0.66748047 0.44604492 0.5961914
vn 0.5488281 0.36669922 0.75097656
vn 0.39379883 0.2631836 0.8808594
vn 0.82470703 0.55078125 0.12902832
vn 0.2088623 0.13952637 0.96777344
vn -0 0 1
vn 0.83154297 0.55566406 0.0025024414
vn 0.82714844 0.5527344 -0.10437012
vn 0.81591797 0.54541016 -0.19213867
vn 0.8022461 0.5361328 -0.26220703
vn 0.7885742 0.52685547 -0.31640625
vn 0.77685547 0.51904297 -0.3564453
vn 0.65283203 0.65283203 -0.38378906
vn 0.66064453 0.66064453 -0.3564453
vn 0.67089844 0.67089844 -0.31640625
vn 0.6821289 0.6821289 -0.26220703
vn 0.69384766 0.69384766 -0.19213867
vn 0.50927734 0.76220703 -0.39892578
vn -0 -5.3048134E-06 -1
vn 0.5131836 0.7680664 -0.38378906
vn 0.51904297 0.77685547 -0.3564453
vn 0.52685547 0.7885742 -0.31640625
vn 0.35083008 0.84716797 -0.39892578
vn -0 -5.3048134E-06 -1
vn 0.35351562 0.85302734 -0.38378906
vn 0.703125 0.703125 -0.10437012
vn 0.5361328 0.8022461 -0.26220703
vn 0.35742188 0.86328125 -0.3564453
vn 0.17883301 0.89941406 -0.39892578
vn -0 -5.3048134E-06 -1
vn 0.18017578 0.9057617 -0.38378906
vn 0.3630371 0.87646484 -0.31640625
vn 0.54541016 0.81591797 -0.19213867
vn 0.70703125 0.70703125 0.0025024414
vn -4.172325E-07 0.9169922 -0.39892578
vn -0 -5.3048134E-06 -1
vn -2.3841858E-07 0.92333984 -0.38378906
vn 0.18225098 0.9165039 -0.3564453
vn -4.7683716E-07 0.93408203 -0.3564453
vn 0.1850586 0.9301758 -0.31640625
vn -5.9604645E-07 0.94873047 -0.31640625
vn 0.36938477 0.89160156 -0.26220703
vn 0.18823242 0.94628906 -0.26220703
vn -5.9604645E-07 0.96484375 -0.26220703
vn 0.37548828 0.9067383 -0.19213867
vn 0.19140625 0.96240234 -0.19213867
vn -5.9604645E-07 0.9814453 -0.19213867
vn 0.5527344 0.82714844 -0.10437012
vn 0.38061523 0.9189453 -0.10437012
vn 0.19396973 0.97558594 -0.10437012
vn -6.556511E-07 0.9946289 -0.10437012
vn 0.55566406 0.83154297 0.0025024414
vn 0.38256836 0.9238281 0.0025024414
vn 0.19506836 0.98095703 0.0025024414
vn -7.1525574E-07 1 0.0025024414
vn 0.7011719 0.7011719 0.12902832
vn 0.55078125 0.82470703 0.12902832
vn 0.6801758 0.6801758 0.27392578
vn 0.37939453 0.9160156 0.12902832
vn 0.19348145 0.97265625 0.12902832
vn -5.9604645E-07 0.9916992 0.12902832
vn 0.6376953 0.6376953 0.43237305
vn 0.5341797 0.7998047 0.27392578
vn 0.36816406 0.8886719 0.27392578
vn 0.18762207 0.9433594 0.27392578
vn -5.364418E-07 0.96191406 0.27392578
vn 0.5678711 0.5678711 0.5961914
vn 0.50097656 0.7495117 0.43237305
vn 0.3449707 0.8330078 0.43237305
vn 0.17590332 0.88427734 0.43237305
vn -5.364418E-07 0.90185547 0.43237305
vn 0.46679688 0.46679688 0.75097656
vn 0.44604492 0.66748047 0.5961914
vn 0.30737305 0.7416992 0.5961914
vn 0.15661621 0.78759766 0.5961914
vn -4.7683716E-07 0.8027344 0.5961914
vn 0.33496094 0.33496094 0.8808594
vn 0.36669922 0.5488281 0.75097656
vn 0.25268555 0.6098633 0.75097656
vn 0.12878418 0.64746094 0.75097656
vn -4.172325E-07 0.66015625 0.75097656
vn 0.1776123 0.1776123 0.96777344
vn -0 0 1
vn 0.2631836 0.39379883 0.8808594
vn 0.18127441 0.4375 0.8808594
vn 0.09240723 0.4645996 0.8808594
vn -2.9802322E-07 0.4736328 0.8808594
vn 0.13952637 0.2088623 0.96777344
vn -0 0 1
vn 0.09613037 0.23205566 0.96777344
vn -0 0 1
vn 0.048980713 0.24633789 0.96777344
vn -0 0 1
vn -1.7881393E-07 0.2512207 0.96777344
vn -0 0 1
g FX_Sphere_002_0
f 3/3/3 2/2/2 1/1/1
f 4/4/4 2/2/2 3/3/3
f 5/5/5 4/4/4 3/3/3
f 6/6/6 4/4/4 5/5/5
f 7/7/7 6/6/6 5/5/5
f 8/8/8 6/6/6 7/7/7
f 9/9/9 8/8/8 7/7/7
f 10/10/10 8/8/8 9/9/9
f 11/11/11 10/10/10 9/9/9
f 12/12/12 10/10/10 11/11/11
f 13/13/13 12/12/12 11/11/11
f 14/14/14 12/12/12 13/13/13
f 15/15/15 14/14/14 13/13/13
f 16/16/16 14/14/14 15/15/15
f 17/17/17 16/16/16 15/15/15
f 18/18/18 16/16/16 17/17/17
f 19/19/19 18/18/18 17/17/17
f 20/20/20 18/18/18 19/19/19
f 21/21/21 20/20/20 19/19/19
f 22/22/22 20/20/20 21/21/21
f 23/23/23 22/22/22 21/21/21
f 24/24/24 22/22/22 23/23/23
f 25/25/25 24/24/24 23/23/23
f 26/26/26 24/24/24 25/25/25
f 27/27/27 26/26/26 25/25/25
f 28/28/28 26/26/26 27/27/27
f 29/29/29 28/28/28 27/27/27
f 30/30/30 28/28/28 29/29/29
f 31/31/31 30/30/30 29/29/29
f 30/30/30 31/31/31 32/32/32
f 30/30/30 33/33/33 28/28/28
f 33/33/33 30/30/30 34/34/34
f 28/28/28 35/35/35 26/26/26
f 33/33/33 35/35/35 28/28/28
f 26/26/26 36/36/36 24/24/24
f 35/35/35 36/36/36 26/26/26
f 24/24/24 37/37/37 22/22/22
f 36/36/36 37/37/37 24/24/24
f 33/33/33 38/38/38 35/35/35
f 38/38/38 33/33/33 39/39/39
f 35/35/35 40/40/40 36/36/36
f 38/38/38 40/40/40 35/35/35
f 37/37/37 41/41/41 22/22/22
f 22/22/22 41/41/41 20/20/20
f 36/36/36 42/42/42 37/37/37
f 40/40/40 42/42/42 36/36/36
f 38/38/38 43/43/43 40/40/40
f 43/43/43 38/38/38 44/44/44
f 43/43/43 45/45/45 40/40/40
f 40/40/40 45/45/45 42/42/42
f 42/42/42 46/46/46 37/37/37
f 37/37/37 46/46/46 41/41/41
f 41/41/41 47/47/47 20/20/20
f 20/20/20 47/47/47 18/18/18
f 43/43/43 48/48/48 45/45/45
f 48/48/48 43/43/43 49/49/49
f 45/45/45 50/50/50 42/42/42
f 42/42/42 50/50/50 46/46/46
f 46/46/46 51/51/51 41/41/41
f 41/41/41 51/51/51 47/47/47
f 47/47/47 52/52/52 18/18/18
f 18/18/18 52/52/52 16/16/16
f 48/48/48 53/53/53 45/45/45
f 45/45/45 53/53/53 50/50/50
f 50/50/50 54/54/54 46/46/46
f 46/46/46 54/54/54 51/51/51
f 51/51/51 55/55/55 47/47/47
f 47/47/47 55/55/55 52/52/52
f 52/52/52 56/56/56 16/16/16
f 16/16/16 56/56/56 14/14/14
f 48/48/48 57/57/57 53/53/53
f 57/57/57 48/48/48 58/58/58
f 53/53/53 59/59/59 50/50/50
f 50/50/50 59/59/59 54/54/54
f 54/54/54 60/60/60 51/51/51
f 51/51/51 60/60/60 55/55/55
f 55/55/55 61/61/61 52/52/52
f 52/52/52 61/61/61 56/56/56
f 56/56/56 62/62/62 14/14/14
f 14/14/14 62/62/62 12/12/12
f 57/57/57 63/63/63 53/53/53
f 53/53/53 63/63/63 59/59/59
f 59/59/59 64/64/64 54/54/54
f 54/54/54 64/64/64 60/60/60
f 60/60/60 65/65/65 55/55/55
f 55/55/55 65/65/65 61/61/61
f 61/61/61 66/66/66 56/56/56
f 56/56/56 66/66/66 62/62/62
f 62/62/62 67/67/67 12/12/12
f 12/12/12 67/67/67 10/10/10
f 57/57/57 68/68/68 63/63/63
f 68/68/68 57/57/57 69/69/69
f 64/64/64 70/70/70 60/60/60
f 60/60/60 70/70/70 65/65/65
f 65/65/65 71/71/71 61/61/61
f 61/61/61 71/71/71 66/66/66
f 66/66/66 72/72/72 62/62/62
f 62/62/62 72/72/72 67/67/67
f 67/67/67 73/73/73 10/10/10
f 10/10/10 73/73/73 8/8/8
f 70/70/70 74/74/74 65/65/65
f 65/65/65 74/74/74 71/71/71
f 71/71/71 75/75/75 66/66/66
f 66/66/66 75/75/75 72/72/72
f 72/72/72 76/76/76 67/67/67
f 67/67/67 76/76/76 73/73/73
f 73/73/73 77/77/77 8/8/8
f 8/8/8 77/77/77 6/6/6
f 74/74/74 78/78/78 71/71/71
f 71/71/71 78/78/78 75/75/75
f 75/75/75 79/79/79 72/72/72
f 72/72/72 79/79/79 76/76/76
f 76/76/76 80/80/80 73/73/73
f 73/73/73 80/80/80 77/77/77
f 77/77/77 81/81/81 6/6/6
f 6/6/6 81/81/81 4/4/4
f 78/78/78 82/82/82 75/75/75
f 75/75/75 82/82/82 79/79/79
f 79/79/79 83/83/83 76/76/76
f 76/76/76 83/83/83 80/80/80
f 80/80/80 84/84/84 77/77/77
f 77/77/77 84/84/84 81/81/81
f 81/81/81 85/85/85 4/4/4
f 4/4/4 85/85/85 2/2/2
f 82/82/82 86/86/86 79/79/79
f 79/79/79 86/86/86 83/83/83
f 83/83/83 87/87/87 80/80/80
f 80/80/80 87/87/87 84/84/84
f 84/84/84 88/88/88 81/81/81
f 81/81/81 88/88/88 85/85/85
f 85/85/85 89/89/89 2/2/2
f 2/2/2 89/89/89 90/90/90
f 85/85/85 91/91/91 89/89/89
f 88/88/88 91/91/91 85/85/85
f 84/84/84 92/92/92 88/88/88
f 87/87/87 92/92/92 84/84/84
f 83/83/83 93/93/93 87/87/87
f 86/86/86 93/93/93 83/83/83
f 91/91/91 94/94/94 89/89/89
f 89/89/89 94/94/94 95/95/95
f 88/88/88 96/96/96 91/91/91
f 92/92/92 96/96/96 88/88/88
f 87/87/87 97/97/97 92/92/92
f 93/93/93 97/97/97 87/87/87
f 91/91/91 98/98/98 94/94/94
f 96/96/96 98/98/98 91/91/91
f 92/92/92 99/99/99 96/96/96
f 97/97/97 99/99/99 92/92/92
f 98/98/98 100/100/100 94/94/94
f 94/94/94 100/100/100 101/101/101
f 96/96/96 102/102/102 98/98/98
f 99/99/99 102/102/102 96/96/96
f 98/98/98 103/103/103 100/100/100
f 102/102/102 103/103/103 98/98/98
f 103/103/103 104/104/104 100/100/100
f 100/100/100 104/104/104 105/105/105
f 93/93/93 106/106/106 97/97/97
f 97/97/97 107/107/107 99/99/99
f 106/106/106 107/107/107 97/97/97
f 99/99/99 108/108/108 102/102/102
f 107/107/107 108/108/108 99/99/99
f 102/102/102 109/109/109 103/103/103
f 108/108/108 109/109/109 102/102/102
f 103/103/103 110/110/110 104/104/104
f 109/109/109 110/110/110 103/103/103
f 111/111/111 106/106/106 93/93/93
f 86/86/86 111/111/111 93/93/93
f 110/110/110 112/112/112 104/104/104
f 104/104/104 112/112/112 113/113/113
f 114/114/114 111/111/111 86/86/86
f 82/82/82 114/114/114 86/86/86
f 115/115/115 114/114/114 82/82/82
f 78/78/78 115/115/115 82/82/82
f 116/116/116 115/115/115 78/78/78
f 74/74/74 116/116/116 78/78/78
f 117/117/117 116/116/116 74/74/74
f 70/70/70 117/117/117 74/74/74
f 118/118/118 117/117/117 70/70/70
f 64/64/64 118/118/118 70/70/70
f 119/119/119 118/118/118 64/64/64
f 59/59/59 119/119/119 64/64/64
f 63/63/63 119/119/119 59/59/59
f 63/63/63 120/120/120 119/119/119
f 68/68/68 120/120/120 63/63/63
f 119/119/119 121/121/121 118/118/118
f 120/120/120 121/121/121 119/119/119
f 118/118/118 122/122/122 117/117/117
f 121/121/121 122/122/122 118/118/118
f 117/117/117 123/123/123 116/116/116
f 122/122/122 123/123/123 117/117/117
f 116/116/116 124/124/124 115/115/115
f 123/123/123 124/124/124 116/116/116
f 68/68/68 125/125/125 120/120/120
f 125/125/125 68/68/68 126/126/126
f 120/120/120 127/127/127 121/121/121
f 125/125/125 127/127/127 120/120/120
f 121/121/121 128/128/128 122/122/122
f 127/127/127 128/128/128 121/121/121
f 122/122/122 129/129/129 123/123/123
f 128/128/128 129/129/129 122/122/122
f 125/125/125 130/130/130 127/127/127
f 130/130/130 125/125/125 131/131/131
f 127/127/127 132/132/132 128/128/128
f 130/130/130 132/132/132 127/127/127
f 124/124/124 133/133/133 115/115/115
f 115/115/115 133/133/133 114/114/114
f 123/123/123 134/134/134 124/124/124
f 129/129/129 134/134/134 123/123/123
f 128/128/128 135/135/135 129/129/129
f 132/132/132 135/135/135 128/128/128
f 130/130/130 136/136/136 132/132/132
f 136/136/136 130/130/130 137/137/137
f 136/136/136 138/138/138 132/132/132
f 132/132/132 138/138/138 135/135/135
f 135/135/135 139/139/139 129/129/129
f 129/129/129 139/139/139 134/134/134
f 134/134/134 140/140/140 124/124/124
f 124/124/124 140/140/140 133/133/133
f 133/133/133 141/141/141 114/114/114
f 114/114/114 141/141/141 111/111/111
f 136/136/136 142/142/142 138/138/138
f 142/142/142 136/136/136 143/143/143
f 138/138/138 144/144/144 135/135/135
f 135/135/135 144/144/144 139/139/139
f 139/139/139 145/145/145 134/134/134
f 134/134/134 145/145/145 140/140/140
f 140/140/140 146/146/146 133/133/133
f 133/133/133 146/146/146 141/141/141
f 141/141/141 147/147/147 111/111/111
f 111/111/111 147/147/147 106/106/106
f 142/142/142 148/148/148 138/138/138
f 138/138/138 148/148/148 144/144/144
f 144/144/144 149/149/149 139/139/139
f 139/139/139 149/149/149 145/145/145
f 145/145/145 150/150/150 140/140/140
f 140/140/140 150/150/150 146/146/146
f 146/146/146 151/151/151 141/141/141
f 141/141/141 151/151/151 147/147/147
f 147/147/147 152/152/152 106/106/106
f 106/106/106 152/152/152 107/107/107
f 142/142/142 153/153/153 148/148/148
f 153/153/153 142/142/142 154/154/154
f 149/149/149 155/155/155 145/145/145
f 145/145/145 155/155/155 150/150/150
f 150/150/150 156/156/156 146/146/146
f 146/146/146 156/156/156 151/151/151
f 151/151/151 157/157/157 147/147/147
f 147/147/147 157/157/157 152/152/152
f 152/152/152 158/158/158 107/107/107
f 107/107/107 158/158/158 108/108/108
f 155/155/155 159/159/159 150/150/150
f 150/150/150 159/159/159 156/156/156
f 156/156/156 160/160/160 151/151/151
f 151/151/151 160/160/160 157/157/157
f 157/157/157 161/161/161 152/152/152
f 152/152/152 161/161/161 158/158/158
f 158/158/158 162/162/162 108/108/108
f 108/108/108 162/162/162 109/109/109
f 159/159/159 163/163/163 156/156/156
f 156/156/156 163/163/163 160/160/160
f 160/160/160 164/164/164 157/157/157
f 157/157/157 164/164/164 161/161/161
f 161/161/161 165/165/165 158/158/158
f 158/158/158 165/165/165 162/162/162
f 162/162/162 166/166/166 109/109/109
f 109/109/109 166/166/166 110/110/110
f 163/163/163 167/167/167 160/160/160
f 160/160/160 167/167/167 164/164/164
f 164/164/164 168/168/168 161/161/161
f 161/161/161 168/168/168 165/165/165
f 165/165/165 169/169/169 162/162/162
f 162/162/162 169/169/169 166/166/166
f 166/166/166 170/170/170 110/110/110
f 110/110/110 170/170/170 112/112/112
f 167/167/167 171/171/171 164/164/164
f 164/164/164 171/171/171 168/168/168
f 168/168/168 172/172/172 165/165/165
f 165/165/165 172/172/172 169/169/169
f 169/169/169 173/173/173 166/166/166
f 166/166/166 173/173/173 170/170/170
f 170/170/170 174/174/174 112/112/112
f 112/112/112 174/174/174 175/175/175
f 170/170/170 176/176/176 174/174/174
f 173/173/173 176/176/176 170/170/170
f 169/169/169 177/177/177 173/173/173
f 172/172/172 177/177/177 169/169/169
f 168/168/168 178/178/178 172/172/172
f 171/171/171 178/178/178 168/168/168
f 176/176/176 179/179/179 174/174/174
f 174/174/174 179/179/179 180/180/180
f 173/173/173 181/181/181 176/176/176
f 177/177/177 181/181/181 173/173/173
f 172/172/172 182/182/182 177/177/177
f 178/178/178 182/182/182 172/172/172
f 176/176/176 183/183/183 179/179/179
f 181/181/181 183/183/183 176/176/176
f 177/177/177 184/184/184 181/181/181
f 182/182/182 184/184/184 177/177/177
f 183/183/183 185/185/185 179/179/179
f 179/179/179 185/185/185 186/186/186
f 181/181/181 187/187/187 183/183/183
f 184/184/184 187/187/187 181/181/181
f 183/183/183 188/188/188 185/185/185
f 187/187/187 188/188/188 183/183/183
f 188/188/188 189/189/189 185/185/185
f 185/185/185 189/189/189 190/190/190
f 178/178/178 191/191/191 182/182/182
f 182/182/182 192/192/192 184/184/184
f 191/191/191 192/192/192 182/182/182
f 184/184/184 193/193/193 187/187/187
f 192/192/192 193/193/193 184/184/184
f 187/187/187 194/194/194 188/188/188
f 193/193/193 194/194/194 187/187/187
f 188/188/188 195/195/195 189/189/189
f 194/194/194 195/195/195 188/188/188
f 196/196/196 191/191/191 178/178/178
f 171/171/171 196/196/196 178/178/178
f 195/195/195 197/197/197 189/189/189
f 189/189/189 197/197/197 198/198/198
f 199/199/199 196/196/196 171/171/171
f 167/167/167 199/199/199 171/171/171
f 200/200/200 199/199/199 167/167/167
f 163/163/163 200/200/200 167/167/167
f 201/201/201 200/200/200 163/163/163
f 159/159/159 201/201/201 163/163/163
f 202/202/202 201/201/201 159/159/159
f 155/155/155 202/202/202 159/159/159
f 203/203/203 202/202/202 155/155/155
f 149/149/149 203/203/203 155/155/155
f 204/204/204 203/203/203 149/149/149
f 144/144/144 204/204/204 149/149/149
f 148/148/148 204/204/204 144/144/144
f 148/148/148 205/205/205 204/204/204
f 153/153/153 205/205/205 148/148/148
f 204/204/204 206/206/206 203/203/203
f 205/205/205 206/206/206 204/204/204
f 203/203/203 207/207/207 202/202/202
f 206/206/206 207/207/207 203/203/203
f 202/202/202 208/208/208 201/201/201
f 207/207/207 208/208/208 202/202/202
f 201/201/201 209/209/209 200/200/200
f 208/208/208 209/209/209 201/201/201
f 153/153/153 210/210/210 205/205/205
f 210/210/210 153/153/153 211/211/211
f 205/205/205 212/212/212 206/206/206
f 210/210/210 212/212/212 205/205/205
f 206/206/206 213/213/213 207/207/207
f 212/212/212 213/213/213 206/206/206
f 207/207/207 214/214/214 208/208/208
f 213/213/213 214/214/214 207/207/207
f 210/210/210 215/215/215 212/212/212
f 215/215/215 210/210/210 216/216/216
f 212/212/212 217/217/217 213/213/213
f 215/215/215 217/217/217 212/212/212
f 209/209/209 218/218/218 200/200/200
f 200/200/200 218/218/218 199/199/199
f 208/208/208 219/219/219 209/209/209
f 214/214/214 219/219/219 208/208/208
f 213/213/213 220/220/220 214/214/214
f 217/217/217 220/220/220 213/213/213
f 215/215/215 221/221/221 217/217/217
f 221/221/221 215/215/215 222/222/222
f 221/221/221 223/223/223 217/217/217
f 217/217/217 223/223/223 220/220/220
f 220/220/220 224/224/224 214/214/214
f 214/214/214 224/224/224 219/219/219
f 219/219/219 225/225/225 209/209/209
f 209/209/209 225/225/225 218/218/218
f 218/218/218 226/226/226 199/199/199
f 199/199/199 226/226/226 196/196/196
f 221/221/221 227/227/227 223/223/223
f 227/227/227 221/221/221 228/228/228
f 227/227/227 229/229/229 223/223/223
f 223/223/223 230/230/230 220/220/220
f 223/223/223 229/229/229 230/230/230
f 220/220/220 230/230/230 224/224/224
f 229/229/229 231/231/231 230/230/230
f 230/230/230 231/231/231 232/232/232
f 230/230/230 232/232/232 224/224/224
f 231/231/231 233/233/233 232/232/232
f 224/224/224 232/232/232 234/234/234
f 224/224/224 234/234/234 219/219/219
f 219/219/219 234/234/234 225/225/225
f 232/232/232 233/233/233 235/235/235
f 232/232/232 235/235/235 234/234/234
f 233/233/233 236/236/236 235/235/235
f 234/234/234 237/237/237 225/225/225
f 234/234/234 235/235/235 237/237/237
f 235/235/235 236/236/236 238/238/238
f 235/235/235 238/238/238 237/237/237
f 236/236/236 239/239/239 238/238/238
f 225/225/225 237/237/237 240/240/240
f 225/225/225 240/240/240 218/218/218
f 218/218/218 240/240/240 226/226/226
f 237/237/237 238/238/238 241/241/241
f 237/237/237 241/241/241 240/240/240
f 238/238/238 239/239/239 242/242/242
f 238/238/238 242/242/242 241/241/241
f 239/239/239 243/243/243 242/242/242
f 240/240/240 244/244/244 226/226/226
f 240/240/240 241/241/241 244/244/244
f 241/241/241 242/242/242 245/245/245
f 241/241/241 245/245/245 244/244/244
f 242/242/242 243/243/243 246/246/246
f 242/242/242 246/246/246 245/245/245
f 243/243/243 247/247/247 246/246/246
f 226/226/226 244/244/244 248/248/248
f 226/226/226 248/248/248 196/196/196
f 196/196/196 248/248/248 191/191/191
f 244/244/244 245/245/245 249/249/249
f 244/244/244 249/249/249 248/248/248
f 248/248/248 250/250/250 191/191/191
f 248/248/248 249/249/249 250/250/250
f 191/191/191 250/250/250 192/192/192
f 245/245/245 246/246/246 251/251/251
f 245/245/245 251/251/251 249/249/249
f 246/246/246 247/247/247 252/252/252
f 246/246/246 252/252/252 251/251/251
f 247/247/247 253/253/253 252/252/252
f 250/250/250 254/254/254 192/192/192
f 192/192/192 254/254/254 193/193/193
f 249/249/249 255/255/255 250/250/250
f 249/249/249 251/251/251 255/255/255
f 250/250/250 255/255/255 254/254/254
f 251/251/251 252/252/252 256/256/256
f 251/251/251 256/256/256 255/255/255
f 252/252/252 253/253/253 257/257/257
f 252/252/252 257/257/257 256/256/256
f 253/253/253 258/258/258 257/257/257
f 254/254/254 259/259/259 193/193/193
f 193/193/193 259/259/259 194/194/194
f 255/255/255 260/260/260 254/254/254
f 255/255/255 256/256/256 260/260/260
f 254/254/254 260/260/260 259/259/259
f 256/256/256 257/257/257 261/261/261
f 256/256/256 261/261/261 260/260/260
f 257/257/257 258/258/258 262/262/262
f 257/257/257 262/262/262 261/261/261
f 258/258/258 263/263/263 262/262/262
f 259/259/259 264/264/264 194/194/194
f 194/194/194 264/264/264 195/195/195
f 260/260/260 265/265/265 259/259/259
f 260/260/260 261/261/261 265/265/265
f 259/259/259 265/265/265 264/264/264
f 261/261/261 262/262/262 266/266/266
f 261/261/261 266/266/266 265/265/265
f 262/262/262 263/263/263 267/267/267
f 262/262/262 267/267/267 266/266/266
f 263/263/263 268/268/268 267/267/267
f 264/264/264 269/269/269 195/195/195
f 195/195/195 269/269/269 197/197/197
f 265/265/265 270/270/270 264/264/264
f 265/265/265 266/266/266 270/270/270
f 264/264/264 270/270/270 269/269/269
f 266/266/266 267/267/267 271/271/271
f 266/266/266 271/271/271 270/270/270
f 267/267/267 268/268/268 272/272/272
f 267/267/267 272/272/272 271/271/271
f 268/268/268 273/273/273 272/272/272
f 269/269/269 274/274/274 197/197/197
f 197/197/197 274/274/274 275/275/275
f 270/270/270 276/276/276 269/269/269
f 270/270/270 271/271/271 276/276/276
f 269/269/269 276/276/276 274/274/274
f 271/271/271 272/272/272 277/277/277
f 271/271/271 277/277/277 276/276/276
f 272/272/272 273/273/273 278/278/278
f 272/272/272 278/278/278 277/277/277
f 273/273/273 279/279/279 278/278/278
f 276/276/276 280/280/280 274/274/274
f 276/276/276 277/277/277 280/280/280
f 274/274/274 280/280/280 281/281/281
f 277/277/277 282/282/282 280/280/280
f 277/277/277 278/278/278 282/282/282
f 280/280/280 282/282/282 283/283/283
f 278/278/278 279/279/279 284/284/284
f 278/278/278 284/284/284 282/282/282
f 282/282/282 284/284/284 285/285/285
f 279/279/279 286/286/286 284/284/284
f 284/284/284 286/286/286 287/287/287
