g FX_Twist_005
v 0.4352949 0.11580009 0
v 0.38786373 0.06799236 0.0052327067
v 0.40433925 0.19849685 0
v 0.3936758 -0.008982582 0.0052327053
v 0.3401923 -0.058318976 0.0104654115
v 0.4495222 0.028653221 0
v 0.32227793 -0.123566665 0.010465411
v 0.38435894 -0.08561226 0.0052327057
v 0.4464748 -0.059594724 0
v 0.291979 -0.18406564 0.010465413
v 0.36027148 -0.15895192 0.0052327057
v 0.42626965 -0.1455525 0
v 0.25045916 -0.23749113 0.010465413
v 0.32233897 -0.22618312 0.0052327053
v 0.38968295 -0.22591686 0
v 0.19931439 -0.2817899 0.010465411
v 0.27201924 -0.28472233 0.0052327053
v 0.33812106 -0.29759932 0
v 0.14051022 -0.31525978 0.010465411
v 0.21124576 -0.3323198 0.0052327053
v 0.2735654 -0.35784516 0
v 0.07630611 -0.33661434 0.010465411
v 0.14235428 -0.36714637 0.0052327057
v 0.19849682 -0.40433928 0
v 0.009169731 -0.34503302 0.0104654115
v 0.06799232 -0.38786376 0.0052327053
v 0.11580009 -0.43529496 0
v -0.058318976 -0.34019217 0.010465411
v -0.00898262 -0.39367583 0.0052327053
v -0.1235667 -0.32227814 0.010465411
v 0.02865387 -0.44952217 0
v 0.11580009 -0.43529496 0
v -0.08561176 -0.38435903 0.0052327067
v -0.05959419 -0.44647488 0
v 0.02865387 -0.44952217 0
v -0.15895152 -0.36027175 0.0052327053
v -0.14555208 -0.4262697 0
v -0.18406527 -0.29197916 0.010465413
v -0.23749088 -0.25045958 0.010465411
v -0.22618286 -0.32233933 0.0052327057
v -0.22591646 -0.38968316 0
v -0.28178975 -0.1993148 0.010465411
v -0.28472215 -0.27201948 0.0052327067
v -0.29759902 -0.33812144 0
v -0.31525967 -0.14051063 0.010465413
v -0.3323196 -0.21124618 0.0052327053
v -0.35784495 -0.27356583 0
v -0.3366143 -0.07630657 0.010465411
v -0.36714628 -0.14235471 0.0052327057
v -0.40433902 -0.19849722 0
v -0.34503302 -0.009170112 0.010465411
v -0.3878637 -0.06799274 0.0052327057
v -0.43529475 -0.115800515 0
v -0.3401923 0.058318708 0.010465413
v -0.39367574 0.008982162 0.0052327057
v -0.4495222 -0.028653601 0
v -0.32227817 0.1235664 0.010465413
v -0.38435897 0.085612066 0.0052327053
v -0.4464749 0.059594497 0
v -0.29197904 0.1840655 0.010465411
v -0.36027163 0.15895179 0.005232705
v -0.42626968 0.14555232 0
v -0.25045946 0.237491 0.010465411
v -0.32233918 0.22618309 0.0052327067
v -0.3896831 0.22591667 0
v -0.19931465 0.28178993 0.0104654115
v -0.27201936 0.28472236 0.0052327053
v -0.33812132 0.29759917 0
v -0.14051045 0.31525984 0.010465411
v -0.21124603 0.3323198 0.0052327067
v -0.2735657 0.35784507 0
v -0.076306455 0.33661452 0.010465413
v -0.14235462 0.36714622 0.0052327053
v -0.19849706 0.4043392 0
v -0.009170036 0.3450331 0.010465411
v -0.06799259 0.38786384 0.0052327053
v -0.115800284 0.43529478 0
v 0.05831886 0.34019232 0.010465413
v 0.008982391 0.39367574 0.0052327053
v -0.028653374 0.44952217 0
v 0.123566434 0.32227805 0.010465411
v 0.0856121 0.38435888 0.005232705
v 0.05959465 0.44647476 0
v 0.18406563 0.29197899 0.01046541
v 0.15895191 0.3602715 0.0052327057
v 0.14555249 0.42626968 0
v 0.2374911 0.25045928 0.010465411
v 0.2261832 0.322339 0.0052327067
v 0.22591694 0.38968298 0
v 0.28179005 0.19931456 0.010465411
v 0.2847224 0.27201918 0.0052327053
v 0.29759938 0.33812118 0
v 0.31525987 0.14051025 0.01046541
v 0.33231983 0.21124588 0.0052327067
v 0.35784525 0.2735655 0
v 0.33661425 0.07630627 0.010465413
v 0.36714655 0.14235438 0.0052327057
v 0.40433925 0.19849685 0
v 0.345033 0.0091697695 0.010465411
v 0.38786373 0.06799236 0.0052327067
v 0.3401923 -0.058318976 0.0104654115
v -0.1235667 -0.32227814 0.010465411
v -0.20027204 -0.1848961 0.029829277
v -0.16035233 -0.22041443 0.02982928
v -0.058318976 -0.34019217 0.010465411
v -0.058318976 -0.34019217 0.010465411
v -0.16035233 -0.22041443 0.02982928
v -0.11427055 -0.24746244 0.029829284
v 0.009169731 -0.34503302 0.0104654115
v 0.009169731 -0.34503302 0.0104654115
v -0.11427055 -0.24746244 0.029829284
v -0.06379738 -0.26500052 0.02982928
v 0.07630611 -0.33661434 0.010465411
v 0.07630611 -0.33661434 0.010465411
v -0.06379738 -0.26500052 0.02982928
v -0.010872459 -0.2723549 0.029829284
v 0.14051022 -0.31525978 0.010465411
v 0.14051022 -0.31525978 0.010465411
v -0.010872459 -0.2723549 0.029829284
v 0.042470284 -0.26924273 0.029829284
v 0.19931439 -0.2817899 0.010465411
v 0.19931439 -0.2817899 0.010465411
v 0.042470284 -0.26924273 0.029829284
v 0.09418087 -0.25578383 0.029829286
v 0.25045916 -0.23749113 0.010465413
v 0.25045916 -0.23749113 0.010465413
v 0.09418087 -0.25578383 0.029829286
v 0.14227214 -0.23249525 0.02982928
v 0.291979 -0.18406564 0.010465413
v 0.291979 -0.18406564 0.010465413
v 0.14227214 -0.23249525 0.02982928
v 0.18489596 -0.20027196 0.02982928
v 0.32227793 -0.123566665 0.010465411
v 0.32227793 -0.123566665 0.010465411
v 0.18489596 -0.20027196 0.02982928
v 0.22041446 -0.16035238 0.029829284
v 0.3401923 -0.058318976 0.0104654115
v 0.3401923 -0.058318976 0.0104654115
v 0.22041446 -0.16035238 0.029829284
v 0.24746242 -0.11427055 0.029829284
v 0.345033 0.0091697695 0.010465411
v 0.345033 0.0091697695 0.010465411
v 0.24746242 -0.11427055 0.029829284
v 0.2650004 -0.0637973 0.029829284
v 0.33661425 0.07630627 0.010465413
v 0.33661425 0.07630627 0.010465413
v 0.2650004 -0.0637973 0.029829284
v 0.27235484 -0.010872421 0.029829286
v 0.31525987 0.14051025 0.01046541
v 0.31525987 0.14051025 0.01046541
v 0.27235484 -0.010872421 0.029829286
v 0.26924273 0.04247036 0.029829284
v 0.28179005 0.19931456 0.010465411
v 0.28179005 0.19931456 0.010465411
v 0.26924273 0.04247036 0.029829284
v 0.2557838 0.094180904 0.029829284
v 0.2374911 0.25045928 0.010465411
v 0.2374911 0.25045928 0.010465411
v 0.2557838 0.094180904 0.029829284
v 0.23249523 0.1422723 0.02982928
v 0.18406563 0.29197899 0.01046541
v 0.18406563 0.29197899 0.01046541
v 0.23249523 0.1422723 0.02982928
v 0.20027187 0.18489613 0.029829286
v 0.123566434 0.32227805 0.010465411
v 0.123566434 0.32227805 0.010465411
v 0.20027187 0.18489613 0.029829286
v 0.16035232 0.2204145 0.029829286
v 0.05831886 0.34019232 0.010465413
v 0.05831886 0.34019232 0.010465413
v 0.16035232 0.2204145 0.029829286
v 0.11427036 0.24746238 0.029829284
v -0.009170036 0.3450331 0.010465411
v -0.009170036 0.3450331 0.010465411
v 0.11427036 0.24746238 0.029829284
v 0.063797146 0.26500067 0.02982929
v -0.076306455 0.33661452 0.010465413
v -0.076306455 0.33661452 0.010465413
v 0.063797146 0.26500067 0.02982929
v 0.01087223 0.27235496 0.02982929
v -0.14051045 0.31525984 0.010465411
v -0.14051045 0.31525984 0.010465411
v 0.01087223 0.27235496 0.02982929
v -0.042470437 0.26924276 0.029829277
v -0.19931465 0.28178993 0.0104654115
v -0.19931465 0.28178993 0.0104654115
v -0.042470437 0.26924276 0.029829277
v -0.094181135 0.25578377 0.029829284
v -0.25045946 0.237491 0.010465411
v -0.25045946 0.237491 0.010465411
v -0.094181135 0.25578377 0.029829284
v -0.1422724 0.23249519 0.029829286
v -0.29197904 0.1840655 0.010465411
v -0.29197904 0.1840655 0.010465411
v -0.1422724 0.23249519 0.029829286
v -0.18489626 0.20027176 0.02982929
v -0.32227817 0.1235664 0.010465413
v -0.32227817 0.1235664 0.010465413
v -0.18489626 0.20027176 0.02982929
v -0.22041461 0.16035213 0.029829284
v -0.3401923 0.058318708 0.010465413
v -0.3401923 0.058318708 0.010465413
v -0.22041461 0.16035213 0.029829284
v -0.24746259 0.11427025 0.029829286
v -0.34503302 -0.009170112 0.010465411
v -0.34503302 -0.009170112 0.010465411
v -0.24746259 0.11427025 0.029829286
v -0.2650007 0.063797034 0.029829284
v -0.3366143 -0.07630657 0.010465411
v -0.3366143 -0.07630657 0.010465411
v -0.2650007 0.063797034 0.029829284
v -0.27235496 0.010872154 0.02982928
v -0.31525967 -0.14051063 0.010465413
v -0.31525967 -0.14051063 0.010465413
v -0.27235496 0.010872154 0.02982928
v -0.26924276 -0.042470627 0.029829284
v -0.28178975 -0.1993148 0.010465411
v -0.28178975 -0.1993148 0.010465411
v -0.26924276 -0.042470627 0.029829284
v -0.25578374 -0.094181284 0.029829284
v -0.23749088 -0.25045958 0.010465411
v -0.23749088 -0.25045958 0.010465411
v -0.25578374 -0.094181284 0.029829284
v -0.232495 -0.14227256 0.029829286
v -0.18406527 -0.29197916 0.010465413
v -0.18406527 -0.29197916 0.010465413
v -0.232495 -0.14227256 0.029829286
v -0.20027204 -0.1848961 0.029829277
v -0.1235667 -0.32227814 0.010465411
v -0.00898262 -0.39367583 0.0052327053
v -0.20271972 -0.04409336 0.049193148
v -0.14316097 0.035306778 0.07190571
v -0.14729813 0.006699066 0.0719057
v -0.19022226 -0.08279472 0.04919316
v -0.19022226 -0.08279472 0.04919316
v -0.14729813 0.006699066 0.0719057
v -0.14577477 -0.0221661 0.07190571
v -0.17041479 -0.1183144 0.04919315
v -0.17041479 -0.1183144 0.04919315
v -0.14577477 -0.0221661 0.07190571
v -0.13864939 -0.050179403 0.0719057
v -0.14405829 -0.14928725 0.049193148
v -0.14405829 -0.14928725 0.049193148
v -0.13864939 -0.050179403 0.0719057
v -0.12619576 -0.076264344 0.0719057
v -0.112165794 -0.17452314 0.049193148
v -0.112165794 -0.17452314 0.049193148
v -0.12619576 -0.076264344 0.0719057
v -0.10889244 -0.09941852 0.07190571
v -0.075962715 -0.19305219 0.049193162
v -0.075962715 -0.19305219 0.049193162
v -0.10889244 -0.09941852 0.07190571
v -0.08740452 -0.118752055 0.0719057
v -0.036840513 -0.20416233 0.049193148
v -0.036840513 -0.20416233 0.049193148
v -0.08740452 -0.118752055 0.0719057
v -0.06255771 -0.13352203 0.07190571
v 0.0036974333 -0.20742665 0.049193148
v 0.0036974333 -0.20742665 0.049193148
v -0.06255771 -0.13352203 0.07190571
v -0.035306778 -0.14316088 0.07190572
v 0.04409336 -0.20271966 0.04919315
v 0.04409336 -0.20271966 0.04919315
v -0.035306778 -0.14316088 0.07190572
v -0.0066991425 -0.14729808 0.07190572
v 0.08279472 -0.1902223 0.04919315
v 0.08279472 -0.1902223 0.04919315
v -0.0066991425 -0.14729808 0.07190572
v 0.022165984 -0.1457747 0.0719057
v 0.11831444 -0.17041478 0.049193148
v 0.11831444 -0.17041478 0.049193148
v 0.022165984 -0.1457747 0.0719057
v 0.050179366 -0.13864936 0.07190571
v 0.14928725 -0.14405833 0.04919315
v 0.14928725 -0.14405833 0.04919315
v 0.050179366 -0.13864936 0.07190571
v 0.07626431 -0.12619567 0.07190571
v 0.17452309 -0.112165794 0.04919316
v 0.17452309 -0.112165794 0.04919316
v 0.07626431 -0.12619567 0.07190571
v 0.09941848 -0.1088924 0.07190571
v 0.19305225 -0.07596268 0.04919315
v 0.19305225 -0.07596268 0.04919315
v 0.09941848 -0.1088924 0.07190571
v 0.118752055 -0.08740452 0.07190571
v 0.20416233 -0.036840513 0.04919316
v 0.20416233 -0.036840513 0.04919316
v 0.118752055 -0.08740452 0.07190571
v 0.13352203 -0.062557675 0.0719057
v 0.20742656 0.0036975096 0.04919315
v 0.20742656 0.0036975096 0.04919315
v 0.13352203 -0.062557675 0.0719057
v 0.14316082 -0.035306778 0.07190571
v 0.20271952 0.044093437 0.04919316
v 0.20271952 0.044093437 0.04919316
v 0.14316082 -0.035306778 0.07190571
v 0.14729805 -0.00669899 0.07190571
v 0.19022232 0.082794875 0.04919315
v 0.19022232 0.082794875 0.04919315
v 0.14729805 -0.00669899 0.07190571
v 0.14577465 0.022166176 0.07190571
v 0.17041469 0.118314475 0.04919315
v 0.17041469 0.118314475 0.04919315
v 0.14577465 0.022166176 0.07190571
v 0.13864928 0.05017944 0.07190571
v 0.14405815 0.14928742 0.04919316
v 0.14405815 0.14928742 0.04919316
v 0.13864928 0.05017944 0.07190571
v 0.1261956 0.07626442 0.07190571
v 0.1121656 0.17452323 0.04919316
v 0.1121656 0.17452323 0.04919316
v 0.1261956 0.07626442 0.07190571
v 0.1088924 0.0994186 0.0719057
v 0.075962596 0.19305229 0.049193148
v 0.075962596 0.19305229 0.049193148
v 0.1088924 0.0994186 0.0719057
v 0.087404326 0.11875209 0.07190571
v 0.036840286 0.20416228 0.04919316
v 0.036840286 0.20416228 0.04919316
v 0.087404326 0.11875209 0.07190571
v 0.06255756 0.13352214 0.07190571
v -0.0036977003 0.20742661 0.04919316
v -0.0036977003 0.20742661 0.04919316
v 0.06255756 0.13352214 0.07190571
v 0.035306625 0.14316097 0.07190569
v -0.04409355 0.20271964 0.04919315
v -0.04409355 0.20271964 0.04919315
v 0.035306625 0.14316097 0.07190569
v 0.006698875 0.1472982 0.07190568
v -0.082795024 0.19022223 0.04919315
v -0.082795024 0.19022223 0.04919315
v 0.006698875 0.1472982 0.07190568
v -0.022166329 0.14577469 0.07190571
v -0.118314706 0.17041466 0.04919316
v -0.118314706 0.17041466 0.04919316
v -0.022166329 0.14577469 0.07190571
v -0.050179634 0.13864926 0.0719057
v -0.14928752 0.14405808 0.04919315
v -0.14928752 0.14405808 0.04919315
v -0.050179634 0.13864926 0.0719057
v -0.07626457 0.12619564 0.0719057
v -0.17452328 0.112165526 0.049193148
v -0.17452328 0.112165526 0.049193148
v -0.07626457 0.12619564 0.0719057
v -0.09941868 0.1088924 0.0719057
v -0.19305235 0.07596256 0.04919315
v -0.19305235 0.07596256 0.04919315
v -0.09941868 0.1088924 0.0719057
v -0.11875225 0.0874044 0.07190571
v -0.20416242 0.03684025 0.049193148
v -0.20416242 0.03684025 0.049193148
v -0.11875225 0.0874044 0.07190571
v -0.13352224 0.06255745 0.07190571
v -0.20742665 -0.003697815 0.04919315
v -0.20742665 -0.003697815 0.04919315
v -0.13352224 0.06255745 0.07190571
v -0.14316097 0.035306778 0.07190571
v -0.20271972 -0.04409336 0.049193148
v -0.232495 -0.14227256 0.029829286
v -0.20027204 -0.1848961 0.029829277
v -0.05266323 -0.08320206 0.09461829
v -0.051490724 -0.015448167 0.12028351
v -0.04748757 -0.02519669 0.12028351
v -0.06788322 -0.07132923 0.09461829
v -0.05351517 -0.005106003 0.120283484
v -0.080494575 -0.056715354 0.09461825
v -0.053483028 0.005432362 0.120283484
v -0.09001251 -0.03992195 0.09461825
v -0.05139556 0.015762 0.120283484
v -0.09607132 -0.021594277 0.09461825
v -0.047332995 0.02548592 0.120283484
v -0.09843818 -0.0024367522 0.09461825
v -0.041451447 0.0342304 0.120283484
v -0.097022094 0.016814385 0.09461825
v -0.03397696 0.041659422 0.120283484
v -0.09187751 0.03541931 0.09461826
v -0.025196744 0.04748754 0.120283484
v -0.08320217 0.052663192 0.09461825
v -0.01544821 0.051490724 0.120283484
v -0.07132935 0.06788326 0.09461826
v -0.0051061534 0.053515114 0.12028348
v -0.05671558 0.08049442 0.09461825
v 0.005432265 0.053482994 0.120283484
v -0.13352224 0.06255745 0.07190571
v -0.14316097 0.035306778 0.07190571
v -0.039922103 0.09001243 0.09461825
v 0.015761908 0.051395558 0.120283484
v -0.021594467 0.09607128 0.09461825
v 0.025485821 0.04733299 0.120283484
v -0.002436943 0.098438144 0.09461825
v 0.034230307 0.04145144 0.120283484
v 0.016814193 0.09702206 0.09461825
v 0.041659374 0.033976953 0.120283484
v 0.035419196 0.09187751 0.09461825
v 0.04748748 0.025196752 0.120283455
v 0.05266304 0.08320217 0.094618216
v 0.051490657 0.015448272 0.12028347
v 0.06788303 0.07132946 0.094618216
v 0.053515084 0.005106084 0.120283484
v 0.08049438 0.056715507 0.09461825
v 0.053482935 -0.0054323217 0.120283484
v 0.09001232 0.039922025 0.09461826
v 0.051395517 -0.015761958 0.12028348
v 0.096071206 0.02159439 0.09461825
v 0.04733294 -0.025485884 0.120283484
v 0.09843807 0.0024368668 0.09461825
v 0.04145141 -0.034230407 0.120283484
v 0.09702206 -0.016814308 0.09461825
v 0.033976898 -0.041659445 0.120283484
v 0.09187744 -0.03541931 0.09461825
v 0.025196658 -0.047487516 0.12028348
v 0.08320202 -0.052663114 0.09461825
v 0.015448143 -0.05149069 0.120283484
v 0.07132923 -0.06788315 0.09461825
v 0.0051059914 -0.053515133 0.120283484
v 0.056715354 -0.080494456 0.09461825
v -0.0054324125 -0.053482983 0.120283484
v 0.039921872 -0.09001243 0.09461825
v -0.015762031 -0.05139552 0.120283484
v 0.021594238 -0.09607124 0.09461825
v -0.025485933 -0.04733295 0.120283484
v 0.0024367522 -0.09843807 0.09461825
v -0.03423047 -0.04145141 0.120283484
v -0.016814461 -0.09702206 0.09461825
v -0.041659493 -0.033976898 0.120283484
v -0.035419427 -0.09187744 0.09461825
v -0.04748757 -0.02519669 0.12028351
v -0.05266323 -0.08320206 0.09461829
v -0.19022226 -0.08279472 0.04919316
v -0.16035233 -0.22041443 0.02982928
v -0.20027204 -0.1848961 0.029829277
v -0.20271972 -0.04409336 0.049193148
v -0.17041479 -0.1183144 0.04919315
v -0.11427055 -0.24746244 0.029829284
v -0.16035233 -0.22041443 0.02982928
v -0.19022226 -0.08279472 0.04919316
v -0.14405829 -0.14928725 0.049193148
v -0.06379738 -0.26500052 0.02982928
v -0.11427055 -0.24746244 0.029829284
v -0.17041479 -0.1183144 0.04919315
v -0.112165794 -0.17452314 0.049193148
v -0.010872459 -0.2723549 0.029829284
v -0.06379738 -0.26500052 0.02982928
v -0.14405829 -0.14928725 0.049193148
v -0.075962715 -0.19305219 0.049193162
v 0.042470284 -0.26924273 0.029829284
v -0.010872459 -0.2723549 0.029829284
v -0.112165794 -0.17452314 0.049193148
v -0.036840513 -0.20416233 0.049193148
v 0.09418087 -0.25578383 0.029829286
v 0.042470284 -0.26924273 0.029829284
v -0.075962715 -0.19305219 0.049193162
v 0.0036974333 -0.20742665 0.049193148
v 0.14227214 -0.23249525 0.02982928
v 0.09418087 -0.25578383 0.029829286
v -0.036840513 -0.20416233 0.049193148
v 0.04409336 -0.20271966 0.04919315
v 0.18489596 -0.20027196 0.02982928
v 0.14227214 -0.23249525 0.02982928
v 0.0036974333 -0.20742665 0.049193148
v 0.08279472 -0.1902223 0.04919315
v 0.22041446 -0.16035238 0.029829284
v 0.18489596 -0.20027196 0.02982928
v 0.04409336 -0.20271966 0.04919315
v 0.11831444 -0.17041478 0.049193148
v 0.24746242 -0.11427055 0.029829284
v 0.22041446 -0.16035238 0.029829284
v 0.08279472 -0.1902223 0.04919315
v 0.14928725 -0.14405833 0.04919315
v 0.2650004 -0.0637973 0.029829284
v 0.24746242 -0.11427055 0.029829284
v 0.11831444 -0.17041478 0.049193148
v 0.17452309 -0.112165794 0.04919316
v 0.27235484 -0.010872421 0.029829286
v 0.2650004 -0.0637973 0.029829284
v 0.14928725 -0.14405833 0.04919315
v 0.19305225 -0.07596268 0.04919315
v 0.26924273 0.04247036 0.029829284
v 0.27235484 -0.010872421 0.029829286
v 0.17452309 -0.112165794 0.04919316
v 0.20416233 -0.036840513 0.04919316
v 0.2557838 0.094180904 0.029829284
v 0.26924273 0.04247036 0.029829284
v 0.19305225 -0.07596268 0.04919315
v 0.20742656 0.0036975096 0.04919315
v 0.23249523 0.1422723 0.02982928
v 0.2557838 0.094180904 0.029829284
v 0.20416233 -0.036840513 0.04919316
v 0.20271952 0.044093437 0.04919316
v 0.20027187 0.18489613 0.029829286
v 0.23249523 0.1422723 0.02982928
v 0.20742656 0.0036975096 0.04919315
v 0.19022232 0.082794875 0.04919315
v 0.16035232 0.2204145 0.029829286
v 0.20027187 0.18489613 0.029829286
v 0.20271952 0.044093437 0.04919316
v 0.17041469 0.118314475 0.04919315
v 0.11427036 0.24746238 0.029829284
v 0.16035232 0.2204145 0.029829286
v 0.19022232 0.082794875 0.04919315
v 0.14405815 0.14928742 0.04919316
v 0.063797146 0.26500067 0.02982929
v 0.11427036 0.24746238 0.029829284
v 0.17041469 0.118314475 0.04919315
v 0.1121656 0.17452323 0.04919316
v 0.01087223 0.27235496 0.02982929
v 0.063797146 0.26500067 0.02982929
v 0.14405815 0.14928742 0.04919316
v 0.075962596 0.19305229 0.049193148
v -0.042470437 0.26924276 0.029829277
v 0.01087223 0.27235496 0.02982929
v 0.1121656 0.17452323 0.04919316
v 0.036840286 0.20416228 0.04919316
v -0.094181135 0.25578377 0.029829284
v -0.042470437 0.26924276 0.029829277
v 0.075962596 0.19305229 0.049193148
v -0.0036977003 0.20742661 0.04919316
v -0.1422724 0.23249519 0.029829286
v -0.094181135 0.25578377 0.029829284
v 0.036840286 0.20416228 0.04919316
v -0.04409355 0.20271964 0.04919315
v -0.18489626 0.20027176 0.02982929
v -0.1422724 0.23249519 0.029829286
v -0.0036977003 0.20742661 0.04919316
v -0.082795024 0.19022223 0.04919315
v -0.22041461 0.16035213 0.029829284
v -0.18489626 0.20027176 0.02982929
v -0.04409355 0.20271964 0.04919315
v -0.118314706 0.17041466 0.04919316
v -0.24746259 0.11427025 0.029829286
v -0.22041461 0.16035213 0.029829284
v -0.082795024 0.19022223 0.04919315
v -0.14928752 0.14405808 0.04919315
v -0.2650007 0.063797034 0.029829284
v -0.24746259 0.11427025 0.029829286
v -0.118314706 0.17041466 0.04919316
v -0.17452328 0.112165526 0.049193148
v -0.27235496 0.010872154 0.02982928
v -0.2650007 0.063797034 0.029829284
v -0.14928752 0.14405808 0.04919315
v -0.19305235 0.07596256 0.04919315
v -0.26924276 -0.042470627 0.029829284
v -0.27235496 0.010872154 0.02982928
v -0.17452328 0.112165526 0.049193148
v -0.20416242 0.03684025 0.049193148
v -0.25578374 -0.094181284 0.029829284
v -0.26924276 -0.042470627 0.029829284
v -0.19305235 0.07596256 0.04919315
v -0.20742665 -0.003697815 0.04919315
v -0.232495 -0.14227256 0.029829286
v -0.25578374 -0.094181284 0.029829284
v -0.20416242 0.03684025 0.049193148
v -0.08320217 0.052663192 0.09461825
v -0.14729813 0.006699066 0.0719057
v -0.14316097 0.035306778 0.07190571
v -0.07132935 0.06788326 0.09461826
v -0.09187751 0.03541931 0.09461826
v -0.14577477 -0.0221661 0.07190571
v -0.14729813 0.006699066 0.0719057
v -0.08320217 0.052663192 0.09461825
v -0.097022094 0.016814385 0.09461825
v -0.13864939 -0.050179403 0.0719057
v -0.14577477 -0.0221661 0.07190571
v -0.09187751 0.03541931 0.09461826
v -0.09843818 -0.0024367522 0.09461825
v -0.12619576 -0.076264344 0.0719057
v -0.13864939 -0.050179403 0.0719057
v -0.097022094 0.016814385 0.09461825
v -0.09607132 -0.021594277 0.09461825
v -0.10889244 -0.09941852 0.07190571
v -0.12619576 -0.076264344 0.0719057
v -0.09843818 -0.0024367522 0.09461825
v -0.09001251 -0.03992195 0.09461825
v -0.08740452 -0.118752055 0.0719057
v -0.10889244 -0.09941852 0.07190571
v -0.09607132 -0.021594277 0.09461825
v -0.080494575 -0.056715354 0.09461825
v -0.06255771 -0.13352203 0.07190571
v -0.08740452 -0.118752055 0.0719057
v -0.09001251 -0.03992195 0.09461825
v -0.06788322 -0.07132923 0.09461829
v -0.035306778 -0.14316088 0.07190572
v -0.06255771 -0.13352203 0.07190571
v -0.080494575 -0.056715354 0.09461825
v -0.05266323 -0.08320206 0.09461829
v -0.0066991425 -0.14729808 0.07190572
v -0.035306778 -0.14316088 0.07190572
v -0.06788322 -0.07132923 0.09461829
v -0.035419427 -0.09187744 0.09461825
v 0.022165984 -0.1457747 0.0719057
v -0.0066991425 -0.14729808 0.07190572
v -0.05266323 -0.08320206 0.09461829
v -0.016814461 -0.09702206 0.09461825
v 0.050179366 -0.13864936 0.07190571
v 0.022165984 -0.1457747 0.0719057
v -0.035419427 -0.09187744 0.09461825
v 0.0024367522 -0.09843807 0.09461825
v 0.07626431 -0.12619567 0.07190571
v 0.050179366 -0.13864936 0.07190571
v -0.016814461 -0.09702206 0.09461825
v 0.021594238 -0.09607124 0.09461825
v 0.09941848 -0.1088924 0.07190571
v 0.07626431 -0.12619567 0.07190571
v 0.0024367522 -0.09843807 0.09461825
v 0.039921872 -0.09001243 0.09461825
v 0.118752055 -0.08740452 0.07190571
v 0.09941848 -0.1088924 0.07190571
v 0.021594238 -0.09607124 0.09461825
v 0.056715354 -0.080494456 0.09461825
v 0.13352203 -0.062557675 0.0719057
v 0.118752055 -0.08740452 0.07190571
v 0.039921872 -0.09001243 0.09461825
v 0.07132923 -0.06788315 0.09461825
v 0.14316082 -0.035306778 0.07190571
v 0.13352203 -0.062557675 0.0719057
v 0.056715354 -0.080494456 0.09461825
v 0.08320202 -0.052663114 0.09461825
v 0.14729805 -0.00669899 0.07190571
v 0.14316082 -0.035306778 0.07190571
v 0.07132923 -0.06788315 0.09461825
v 0.09187744 -0.03541931 0.09461825
v 0.14577465 0.022166176 0.07190571
v 0.14729805 -0.00669899 0.07190571
v 0.08320202 -0.052663114 0.09461825
v 0.09702206 -0.016814308 0.09461825
v 0.13864928 0.05017944 0.07190571
v 0.14577465 0.022166176 0.07190571
v 0.09187744 -0.03541931 0.09461825
v 0.09843807 0.0024368668 0.09461825
v 0.1261956 0.07626442 0.07190571
v 0.13864928 0.05017944 0.07190571
v 0.09702206 -0.016814308 0.09461825
v 0.096071206 0.02159439 0.09461825
v 0.1088924 0.0994186 0.0719057
v 0.1261956 0.07626442 0.07190571
v 0.09843807 0.0024368668 0.09461825
v 0.09001232 0.039922025 0.09461826
v 0.087404326 0.11875209 0.07190571
v 0.1088924 0.0994186 0.0719057
v 0.096071206 0.02159439 0.09461825
v 0.08049438 0.056715507 0.09461825
v 0.06255756 0.13352214 0.07190571
v 0.087404326 0.11875209 0.07190571
v 0.09001232 0.039922025 0.09461826
v 0.06788303 0.07132946 0.094618216
v 0.035306625 0.14316097 0.07190569
v 0.06255756 0.13352214 0.07190571
v 0.08049438 0.056715507 0.09461825
v 0.05266304 0.08320217 0.094618216
v 0.006698875 0.1472982 0.07190568
v 0.035306625 0.14316097 0.07190569
v 0.06788303 0.07132946 0.094618216
v 0.035419196 0.09187751 0.09461825
v -0.022166329 0.14577469 0.07190571
v 0.006698875 0.1472982 0.07190568
v 0.05266304 0.08320217 0.094618216
v 0.016814193 0.09702206 0.09461825
v -0.050179634 0.13864926 0.0719057
v -0.022166329 0.14577469 0.07190571
v 0.035419196 0.09187751 0.09461825
v -0.002436943 0.098438144 0.09461825
v -0.07626457 0.12619564 0.0719057
v -0.050179634 0.13864926 0.0719057
v 0.016814193 0.09702206 0.09461825
v -0.021594467 0.09607128 0.09461825
v -0.09941868 0.1088924 0.0719057
v -0.07626457 0.12619564 0.0719057
v -0.002436943 0.098438144 0.09461825
v -0.039922103 0.09001243 0.09461825
v -0.11875225 0.0874044 0.07190571
v -0.09941868 0.1088924 0.0719057
v -0.021594467 0.09607128 0.09461825
v -0.05671558 0.08049442 0.09461825
v -0.13352224 0.06255745 0.07190571
v -0.11875225 0.0874044 0.07190571
v -0.039922103 0.09001243 0.09461825
v 0.0005958651 0.00169686 0.14594871
v -0.025196744 0.04748754 0.120283484
v -0.01544821 0.051490724 0.120283484
v 0.00091545086 0.0015480076 0.14594871
v 0.0002533792 0.0017805038 0.14594871
v -0.03397696 0.041659422 0.120283484
v -0.025196744 0.04748754 0.120283484
v 0.0005958651 0.00169686 0.14594871
v -9.884313E-05 0.0017957237 0.14594871
v -0.041451447 0.0342304 0.120283484
v -0.03397696 0.041659422 0.120283484
v 0.0002533792 0.0017805038 0.14594871
v -0.00044726414 0.0017419384 0.14594871
v -0.047332995 0.02548592 0.120283484
v -0.041451447 0.0342304 0.120283484
v -9.884313E-05 0.0017957237 0.14594871
v -0.00077850115 0.001621211 0.14594871
v -0.05139556 0.015762 0.120283484
v -0.047332995 0.02548592 0.120283484
v -0.00044726414 0.0017419384 0.14594871
v -0.0010798166 0.001438182 0.14594871
v -0.053483028 0.005432362 0.120283484
v -0.05139556 0.015762 0.120283484
v -0.00077850115 0.001621211 0.14594871
v -0.0013396409 0.0011998869 0.14594871
v -0.05351517 -0.005106003 0.120283484
v -0.053483028 0.005432362 0.120283484
v -0.0010798166 0.001438182 0.14594871
v -0.0015479813 0.00091548235 0.14594871
v -0.051490724 -0.015448167 0.12028351
v -0.05351517 -0.005106003 0.120283484
v -0.0013396409 0.0011998869 0.14594871
v -0.0016968342 0.00059589476 0.14594871
v -0.04748757 -0.02519669 0.12028351
v -0.051490724 -0.015448167 0.12028351
v -0.0015479813 0.00091548235 0.14594871
v -0.0017804756 0.0002534093 0.14594871
v -0.041659493 -0.033976898 0.120283484
v -0.04748757 -0.02519669 0.12028351
v -0.0016968342 0.00059589476 0.14594871
v -0.001795698 -9.8813325E-05 0.14594871
v -0.03423047 -0.04145141 0.120283484
v -0.041659493 -0.033976898 0.120283484
v -0.0017804756 0.0002534093 0.14594871
v -0.0017419099 -0.00044723667 0.14594871
v -0.025485933 -0.04733295 0.120283484
v -0.03423047 -0.04145141 0.120283484
v -0.001795698 -9.8813325E-05 0.14594871
v -0.0016211824 -0.000778474 0.14594871
v -0.015762031 -0.05139552 0.120283484
v -0.025485933 -0.04733295 0.120283484
v -0.0017419099 -0.00044723667 0.14594871
v -0.0014381548 -0.001079791 0.14594871
v -0.0054324125 -0.053482983 0.120283484
v -0.015762031 -0.05139552 0.120283484
v -0.0016211824 -0.000778474 0.14594871
v -0.0011998614 -0.0013396136 0.14594871
v 0.0051059914 -0.053515133 0.120283484
v -0.0054324125 -0.053482983 0.120283484
v -0.0014381548 -0.001079791 0.14594871
v -0.00091545325 -0.0015479533 0.14594871
v 0.015448143 -0.05149069 0.120283484
v 0.0051059914 -0.053515133 0.120283484
v -0.0011998614 -0.0013396136 0.14594871
v -0.0005958663 -0.0016968037 0.14594871
v 0.025196658 -0.047487516 0.12028348
v 0.015448143 -0.05149069 0.120283484
v -0.00091545325 -0.0015479533 0.14594871
v -0.00025337763 -0.0017804501 0.14594871
v 0.033976898 -0.041659445 0.120283484
v 0.025196658 -0.047487516 0.12028348
v -0.0005958663 -0.0016968037 0.14594871
v 9.883925E-05 -0.0017956678 0.14594871
v 0.04145141 -0.034230407 0.120283484
v 0.033976898 -0.041659445 0.120283484
v -0.00025337763 -0.0017804501 0.14594871
v 0.00044726385 -0.0017418808 0.14594871
v 0.04733294 -0.025485884 0.120283484
v 0.04145141 -0.034230407 0.120283484
v 9.883925E-05 -0.0017956678 0.14594871
v 0.0007785027 -0.0016211548 0.14594871
v 0.051395517 -0.015761958 0.12028348
v 0.04733294 -0.025485884 0.120283484
v 0.00044726385 -0.0017418808 0.14594871
v 0.001079818 -0.0014381254 0.14594871
v 0.053482935 -0.0054323217 0.120283484
v 0.051395517 -0.015761958 0.12028348
v 0.0007785027 -0.0016211548 0.14594871
v 0.0013396413 -0.0011998278 0.14594871
v 0.053515084 0.005106084 0.120283484
v 0.053482935 -0.0054323217 0.120283484
v 0.001079818 -0.0014381254 0.14594871
v 0.0015479791 -0.0009154236 0.14594871
v 0.051490657 0.015448272 0.12028347
v 0.053515084 0.005106084 0.120283484
v 0.0013396413 -0.0011998278 0.14594871
v 0.0016968335 -0.0005958347 0.14594871
v 0.04748748 0.025196752 0.120283455
v 0.051490657 0.015448272 0.12028347
v 0.0015479791 -0.0009154236 0.14594871
v 0.0017804764 -0.0002533502 0.14594871
v 0.041659374 0.033976953 0.120283484
v 0.04748748 0.025196752 0.120283455
v 0.0016968335 -0.0005958347 0.14594871
v 0.0017956959 9.8872035E-05 0.14594871
v 0.034230307 0.04145144 0.120283484
v 0.041659374 0.033976953 0.120283484
v 0.0017804764 -0.0002533502 0.14594871
v 0.0017419092 0.00044729694 0.14594871
v 0.025485821 0.04733299 0.120283484
v 0.034230307 0.04145144 0.120283484
v 0.0017956959 9.8872035E-05 0.14594871
v 0.0016211835 0.0007785303 0.14594871
v 0.015761908 0.051395558 0.120283484
v 0.025485821 0.04733299 0.120283484
v 0.0017419092 0.00044729694 0.14594871
v 0.0014381512 0.0010798483 0.14594871
v 0.005432265 0.053482994 0.120283484
v 0.015761908 0.051395558 0.120283484
v 0.0016211835 0.0007785303 0.14594871
v 0.0011998549 0.0013396707 0.14594871
v -0.0051061534 0.053515114 0.12028348
v 0.005432265 0.053482994 0.120283484
v 0.0014381512 0.0010798483 0.14594871
v 0.00091545086 0.0015480076 0.14594871
v -0.01544821 0.051490724 0.120283484
v -0.0051061534 0.053515114 0.12028348
v 0.0011998549 0.0013396707 0.14594871
vt -0.0013395251 0.03125006
vt 0.12403785 0
vt -0.0013395305 0
vt 0.124037854 0.03125006
vt 0.24941525 0
vt -0.0013395251 0.0625
vt 0.24941525 0.03125006
vt 0.124037854 0.0625
vt -0.0013395195 0.09375006
vt 0.24941525 0.0625
vt 0.12403786 0.09375006
vt -0.0013395139 0.12500006
vt 0.24941525 0.09375006
vt 0.12403787 0.12500006
vt -0.0013395139 0.15625
vt 0.24941526 0.12500006
vt 0.12403787 0.15625
vt -0.0013395079 0.1875
vt 0.24941526 0.15625
vt 0.12403788 0.1875
vt -0.0013395023 0.21875
vt 0.24941526 0.1875
vt 0.12403788 0.21875
vt -0.0013394967 0.25
vt 0.24941526 0.21875
vt 0.124037884 0.25
vt -0.0013394967 0.28125
vt 0.24941526 0.25
vt 0.12403789 0.28125
vt 0.2494153 0.28125
vt -0.0013394911 0.31249976
vt -0.0013394967 0.28125
vt 0.12403791 0.31249976
vt -0.0013394855 0.34374976
vt -0.0013394911 0.31249976
vt 0.1240379 0.34374976
vt -0.0013394799 0.37499976
vt 0.2494153 0.31249976
vt 0.2494153 0.34374976
vt 0.1240379 0.37499976
vt -0.0013394799 0.40624982
vt 0.2494153 0.37499976
vt 0.1240379 0.40624982
vt -0.0013394743 0.43749982
vt 0.2494153 0.40624982
vt 0.12403791 0.4374998
vt -0.0013394688 0.46874982
vt 0.24941531 0.43749976
vt 0.124037914 0.46874982
vt -0.0013394632 0.49999982
vt 0.24941531 0.46874982
vt 0.12403792 0.49999982
vt -0.0013394632 0.5312499
vt 0.24941531 0.49999982
vt 0.12403792 0.5312499
vt -0.0013394576 0.5624999
vt 0.24941531 0.5312499
vt 0.12403792 0.5624999
vt -0.001339452 0.5937499
vt 0.24941531 0.5624999
vt 0.12403793 0.5937499
vt -0.001339452 0.6249999
vt 0.24941531 0.5937499
vt 0.124037944 0.6249999
vt -0.0013394464 0.6562499
vt 0.24941534 0.6249999
vt 0.12403795 0.6562499
vt -0.0013394408 0.6874999
vt 0.24941534 0.6562499
vt 0.124037944 0.6874999
vt -0.0013394352 0.7187499
vt 0.24941534 0.6874999
vt 0.124037944 0.7187499
vt -0.0013394352 0.7499999
vt 0.24941534 0.7187499
vt 0.124037944 0.7499999
vt -0.0013394296 0.78124994
vt 0.24941534 0.7499999
vt 0.12403795 0.78124994
vt -0.001339424 0.81249994
vt 0.24941535 0.78124994
vt 0.12403796 0.81249994
vt -0.0013394185 0.84375
vt 0.24941535 0.81249994
vt 0.124037966 0.84375
vt -0.0013394185 0.875
vt 0.24941535 0.84375
vt 0.124037966 0.875
vt -0.0013394129 0.90625
vt 0.24941535 0.875
vt 0.124037966 0.90625
vt -0.0013394068 0.9375
vt 0.24941535 0.90625
vt 0.12403797 0.9375
vt -0.0013394012 0.96875
vt 0.24941535 0.9375
vt 0.124037996 0.96875
vt -0.0013394012 1
vt 0.24941538 0.96875
vt 0.124037996 1
vt 0.24941538 1
vt 0.2494153 0.28125
vt 0.37479267 0.28125
vt 0.37479264 0.25
vt 0.24941526 0.25
vt 0.24941526 0.25
vt 0.37479264 0.25
vt 0.37479264 0.21875
vt 0.24941526 0.21875
vt 0.24941526 0.21875
vt 0.37479264 0.21875
vt 0.37479264 0.1875
vt 0.24941526 0.1875
vt 0.24941526 0.1875
vt 0.37479264 0.1875
vt 0.37479264 0.15625
vt 0.24941526 0.15625
vt 0.24941526 0.15625
vt 0.37479264 0.15625
vt 0.37479264 0.12500006
vt 0.24941526 0.12500006
vt 0.24941526 0.12500006
vt 0.37479264 0.12500006
vt 0.37479264 0.09375006
vt 0.24941525 0.09375006
vt 0.24941525 0.09375006
vt 0.37479264 0.09375006
vt 0.37479264 0.0625
vt 0.24941525 0.0625
vt 0.24941525 0.0625
vt 0.37479264 0.0625
vt 0.37479264 0.03125006
vt 0.24941525 0.03125006
vt 0.24941525 0.03125006
vt 0.37479264 0.03125006
vt 0.37479264 0
vt 0.24941525 0
vt 0.24941538 1
vt 0.37479275 1
vt 0.37479275 0.96875
vt 0.24941538 0.96875
vt 0.24941538 0.96875
vt 0.37479275 0.96875
vt 0.37479275 0.9375
vt 0.24941535 0.9375
vt 0.24941535 0.9375
vt 0.37479275 0.9375
vt 0.37479275 0.90625
vt 0.24941535 0.90625
vt 0.24941535 0.90625
vt 0.37479275 0.90625
vt 0.37479275 0.875
vt 0.24941535 0.875
vt 0.24941535 0.875
vt 0.37479275 0.875
vt 0.3747927 0.84375
vt 0.24941535 0.84375
vt 0.24941535 0.84375
vt 0.3747927 0.84375
vt 0.3747927 0.81249994
vt 0.24941535 0.81249994
vt 0.24941535 0.81249994
vt 0.3747927 0.81249994
vt 0.3747927 0.78124994
vt 0.24941535 0.78124994
vt 0.24941535 0.78124994
vt 0.3747927 0.78124994
vt 0.3747927 0.7499999
vt 0.24941534 0.7499999
vt 0.24941534 0.7499999
vt 0.3747927 0.7499999
vt 0.3747927 0.7187499
vt 0.24941534 0.7187499
vt 0.24941534 0.7187499
vt 0.3747927 0.7187499
vt 0.3747927 0.6874999
vt 0.24941534 0.6874999
vt 0.24941534 0.6874999
vt 0.3747927 0.6874999
vt 0.3747927 0.6562499
vt 0.24941534 0.6562499
vt 0.24941534 0.6562499
vt 0.3747927 0.6562499
vt 0.3747927 0.6249999
vt 0.24941534 0.6249999
vt 0.24941534 0.6249999
vt 0.3747927 0.6249999
vt 0.3747927 0.5937499
vt 0.24941531 0.5937499
vt 0.24941531 0.5937499
vt 0.3747927 0.5937499
vt 0.3747927 0.5624999
vt 0.24941531 0.5624999
vt 0.24941531 0.5624999
vt 0.3747927 0.5624999
vt 0.3747927 0.5312499
vt 0.24941531 0.5312499
vt 0.24941531 0.5312499
vt 0.3747927 0.5312499
vt 0.37479267 0.49999982
vt 0.24941531 0.49999982
vt 0.24941531 0.49999982
vt 0.37479267 0.49999982
vt 0.37479267 0.46874982
vt 0.24941531 0.46874982
vt 0.24941531 0.46874982
vt 0.37479267 0.46874982
vt 0.37479267 0.4374998
vt 0.24941531 0.43749976
vt 0.24941531 0.43749976
vt 0.37479267 0.4374998
vt 0.37479264 0.40624982
vt 0.2494153 0.40624982
vt 0.2494153 0.40624982
vt 0.37479264 0.40624982
vt 0.37479264 0.37499976
vt 0.2494153 0.37499976
vt 0.2494153 0.37499976
vt 0.37479264 0.37499976
vt 0.37479264 0.34374976
vt 0.2494153 0.34374976
vt 0.2494153 0.34374976
vt 0.37479264 0.34374976
vt 0.37479264 0.31249976
vt 0.2494153 0.31249976
vt 0.2494153 0.31249976
vt 0.37479264 0.31249976
vt 0.37479267 0.28125
vt 0.2494153 0.28125
vt 0.12403789 0.28125
vt 0.50017005 0.28125
vt 0.62554747 0.28125
vt 0.62554747 0.25
vt 0.50017005 0.25
vt 0.50017005 0.25
vt 0.62554747 0.25
vt 0.62554747 0.21875
vt 0.50017005 0.21875
vt 0.50017005 0.21875
vt 0.62554747 0.21875
vt 0.62554747 0.1875
vt 0.50017005 0.1875
vt 0.50017005 0.1875
vt 0.62554747 0.1875
vt 0.6255474 0.15625
vt 0.50017005 0.15625
vt 0.50017005 0.15625
vt 0.6255474 0.15625
vt 0.6255474 0.12500006
vt 0.50017005 0.12500006
vt 0.50017005 0.12500006
vt 0.6255474 0.12500006
vt 0.6255474 0.09375006
vt 0.50017005 0.09375006
vt 0.50017005 0.09375006
vt 0.6255474 0.09375006
vt 0.6255474 0.0625
vt 0.50017005 0.0625
vt 0.50017005 0.0625
vt 0.6255474 0.0625
vt 0.6255474 0.03125006
vt 0.50017005 0.03125006
vt 0.50017005 0.03125006
vt 0.6255474 0.03125006
vt 0.6255474 0
vt 0.50017005 0
vt 0.5001702 1
vt 0.6255476 1
vt 0.6255476 0.96875
vt 0.5001702 0.96875
vt 0.5001702 0.96875
vt 0.6255476 0.96875
vt 0.6255476 0.9375
vt 0.5001702 0.9375
vt 0.5001702 0.9375
vt 0.6255476 0.9375
vt 0.6255476 0.90625
vt 0.5001702 0.90625
vt 0.5001702 0.90625
vt 0.6255476 0.90625
vt 0.6255476 0.875
vt 0.5001702 0.875
vt 0.5001702 0.875
vt 0.6255476 0.875
vt 0.6255475 0.84375
vt 0.5001701 0.84375
vt 0.5001701 0.84375
vt 0.6255475 0.84375
vt 0.6255475 0.81249994
vt 0.5001701 0.81249994
vt 0.5001701 0.81249994
vt 0.6255475 0.81249994
vt 0.6255475 0.78124994
vt 0.5001701 0.78124994
vt 0.5001701 0.78124994
vt 0.6255475 0.78124994
vt 0.6255475 0.7499999
vt 0.5001701 0.7499999
vt 0.5001701 0.7499999
vt 0.6255475 0.7499999
vt 0.6255475 0.7187499
vt 0.5001701 0.7187499
vt 0.5001701 0.7187499
vt 0.6255475 0.7187499
vt 0.6255475 0.6874999
vt 0.5001701 0.6874999
vt 0.5001701 0.6874999
vt 0.6255475 0.6874999
vt 0.6255475 0.6562499
vt 0.5001701 0.6562499
vt 0.5001701 0.6562499
vt 0.6255475 0.6562499
vt 0.6255475 0.6249999
vt 0.5001701 0.6249999
vt 0.5001701 0.6249999
vt 0.6255475 0.6249999
vt 0.6255475 0.5937499
vt 0.5001701 0.5937499
vt 0.5001701 0.5937499
vt 0.6255475 0.5937499
vt 0.6255475 0.5624999
vt 0.5001701 0.5624999
vt 0.5001701 0.5624999
vt 0.6255475 0.5624999
vt 0.6255475 0.5312499
vt 0.5001701 0.5312499
vt 0.5001701 0.5312499
vt 0.6255475 0.5312499
vt 0.62554747 0.49999982
vt 0.50017005 0.49999982
vt 0.50017005 0.49999982
vt 0.62554747 0.49999982
vt 0.62554747 0.46874982
vt 0.50017005 0.46874982
vt 0.50017005 0.46874982
vt 0.62554747 0.46874982
vt 0.62554747 0.43749982
vt 0.50017005 0.43749982
vt 0.50017005 0.43749982
vt 0.62554747 0.43749982
vt 0.62554747 0.40624982
vt 0.50017005 0.40624982
vt 0.50017005 0.40624982
vt 0.62554747 0.40624982
vt 0.62554747 0.37499976
vt 0.50017005 0.37499976
vt 0.50017005 0.37499976
vt 0.62554747 0.37499976
vt 0.62554747 0.34374976
vt 0.50017005 0.34374976
vt 0.50017005 0.34374976
vt 0.62554747 0.34374976
vt 0.62554747 0.31249976
vt 0.50017005 0.31249976
vt 0.50017005 0.31249976
vt 0.62554747 0.31249976
vt 0.62554747 0.28125
vt 0.50017005 0.28125
vt 0.37479264 0.31249976
vt 0.37479267 0.28125
vt 0.75092477 0
vt 0.8763021 0.03125006
vt 0.8763021 0
vt 0.75092477 0.03125006
vt 0.8763021 0.0625
vt 0.75092477 0.0625
vt 0.8763021 0.09375006
vt 0.75092477 0.09375006
vt 0.8763021 0.12500006
vt 0.75092477 0.12500006
vt 0.8763021 0.15625
vt 0.75092477 0.15625
vt 0.8763022 0.1875
vt 0.7509248 0.1875
vt 0.8763022 0.21875
vt 0.7509248 0.21875
vt 0.8763022 0.25
vt 0.7509248 0.25
vt 0.8763022 0.28125
vt 0.7509248 0.28125
vt 0.8763022 0.31249976
vt 0.7509248 0.31249976
vt 0.8763022 0.34374976
vt 0.62554747 0.31249976
vt 0.62554747 0.28125
vt 0.7509248 0.34374976
vt 0.8763022 0.37499976
vt 0.7509248 0.37499976
vt 0.8763022 0.40624982
vt 0.7509248 0.40624982
vt 0.8763022 0.43749982
vt 0.7509248 0.43749982
vt 0.8763022 0.46874982
vt 0.7509248 0.46874982
vt 0.8763022 0.49999982
vt 0.7509248 0.49999982
vt 0.87630224 0.5312499
vt 0.75092494 0.5312499
vt 0.87630224 0.5624999
vt 0.75092494 0.5624999
vt 0.87630224 0.5937499
vt 0.75092494 0.5937499
vt 0.87630224 0.6249999
vt 0.75092494 0.6249999
vt 0.87630224 0.6562499
vt 0.75092494 0.6562499
vt 0.87630224 0.6874999
vt 0.75092494 0.6874999
vt 0.8763023 0.7187499
vt 0.75092494 0.7187499
vt 0.8763023 0.7499999
vt 0.75092494 0.7499999
vt 0.8763023 0.78124994
vt 0.75092494 0.78124994
vt 0.8763023 0.81249994
vt 0.75092494 0.81249994
vt 0.8763023 0.84374994
vt 0.75092494 0.84374994
vt 0.8763023 0.875
vt 0.75092494 0.875
vt 0.8763023 0.90625
vt 0.75092494 0.90625
vt 0.8763023 0.9375
vt 0.75092494 0.9375
vt 0.8763023 0.96875
vt 0.75092494 0.96875
vt 0.8763023 1
vt 0.75092494 1
vt 0.50017005 0.25
vt 0.37479264 0.25
vt 0.37479267 0.28125
vt 0.50017005 0.28125
vt 0.50017005 0.21875
vt 0.37479264 0.21875
vt 0.37479264 0.25
vt 0.50017005 0.25
vt 0.50017005 0.1875
vt 0.37479264 0.1875
vt 0.37479264 0.21875
vt 0.50017005 0.21875
vt 0.50017005 0.15625
vt 0.37479264 0.15625
vt 0.37479264 0.1875
vt 0.50017005 0.1875
vt 0.50017005 0.12500006
vt 0.37479264 0.12500006
vt 0.37479264 0.15625
vt 0.50017005 0.15625
vt 0.50017005 0.09375006
vt 0.37479264 0.09375006
vt 0.37479264 0.12500006
vt 0.50017005 0.12500006
vt 0.50017005 0.0625
vt 0.37479264 0.0625
vt 0.37479264 0.09375006
vt 0.50017005 0.09375006
vt 0.50017005 0.03125006
vt 0.37479264 0.03125006
vt 0.37479264 0.0625
vt 0.50017005 0.0625
vt 0.50017005 0
vt 0.37479264 0
vt 0.37479264 0.03125006
vt 0.50017005 0.03125006
vt 0.5001702 0.96875
vt 0.37479275 0.96875
vt 0.37479275 1
vt 0.5001702 1
vt 0.5001702 0.9375
vt 0.37479275 0.9375
vt 0.37479275 0.96875
vt 0.5001702 0.96875
vt 0.5001702 0.90625
vt 0.37479275 0.90625
vt 0.37479275 0.9375
vt 0.5001702 0.9375
vt 0.5001702 0.875
vt 0.37479275 0.875
vt 0.37479275 0.90625
vt 0.5001702 0.90625
vt 0.5001701 0.84375
vt 0.3747927 0.84375
vt 0.37479275 0.875
vt 0.5001702 0.875
vt 0.5001701 0.81249994
vt 0.3747927 0.81249994
vt 0.3747927 0.84375
vt 0.5001701 0.84375
vt 0.5001701 0.78124994
vt 0.3747927 0.78124994
vt 0.3747927 0.81249994
vt 0.5001701 0.81249994
vt 0.5001701 0.7499999
vt 0.3747927 0.7499999
vt 0.3747927 0.78124994
vt 0.5001701 0.78124994
vt 0.5001701 0.7187499
vt 0.3747927 0.7187499
vt 0.3747927 0.7499999
vt 0.5001701 0.7499999
vt 0.5001701 0.6874999
vt 0.3747927 0.6874999
vt 0.3747927 0.7187499
vt 0.5001701 0.7187499
vt 0.5001701 0.6562499
vt 0.3747927 0.6562499
vt 0.3747927 0.6874999
vt 0.5001701 0.6874999
vt 0.5001701 0.6249999
vt 0.3747927 0.6249999
vt 0.3747927 0.6562499
vt 0.5001701 0.6562499
vt 0.5001701 0.5937499
vt 0.3747927 0.5937499
vt 0.3747927 0.6249999
vt 0.5001701 0.6249999
vt 0.5001701 0.5624999
vt 0.3747927 0.5624999
vt 0.3747927 0.5937499
vt 0.5001701 0.5937499
vt 0.5001701 0.5312499
vt 0.3747927 0.5312499
vt 0.3747927 0.5624999
vt 0.5001701 0.5624999
vt 0.50017005 0.49999982
vt 0.37479267 0.49999982
vt 0.3747927 0.5312499
vt 0.5001701 0.5312499
vt 0.50017005 0.46874982
vt 0.37479267 0.46874982
vt 0.37479267 0.49999982
vt 0.50017005 0.49999982
vt 0.50017005 0.43749982
vt 0.37479267 0.4374998
vt 0.37479267 0.46874982
vt 0.50017005 0.46874982
vt 0.50017005 0.40624982
vt 0.37479264 0.40624982
vt 0.37479267 0.4374998
vt 0.50017005 0.43749982
vt 0.50017005 0.37499976
vt 0.37479264 0.37499976
vt 0.37479264 0.40624982
vt 0.50017005 0.40624982
vt 0.50017005 0.34374976
vt 0.37479264 0.34374976
vt 0.37479264 0.37499976
vt 0.50017005 0.37499976
vt 0.50017005 0.31249976
vt 0.37479264 0.31249976
vt 0.37479264 0.34374976
vt 0.50017005 0.34374976
vt 0.7509248 0.25
vt 0.62554747 0.25
vt 0.62554747 0.28125
vt 0.7509248 0.28125
vt 0.7509248 0.21875
vt 0.62554747 0.21875
vt 0.62554747 0.25
vt 0.7509248 0.25
vt 0.7509248 0.1875
vt 0.62554747 0.1875
vt 0.62554747 0.21875
vt 0.7509248 0.21875
vt 0.75092477 0.15625
vt 0.6255474 0.15625
vt 0.62554747 0.1875
vt 0.7509248 0.1875
vt 0.75092477 0.12500006
vt 0.6255474 0.12500006
vt 0.6255474 0.15625
vt 0.75092477 0.15625
vt 0.75092477 0.09375006
vt 0.6255474 0.09375006
vt 0.6255474 0.12500006
vt 0.75092477 0.12500006
vt 0.75092477 0.0625
vt 0.6255474 0.0625
vt 0.6255474 0.09375006
vt 0.75092477 0.09375006
vt 0.75092477 0.03125006
vt 0.6255474 0.03125006
vt 0.6255474 0.0625
vt 0.75092477 0.0625
vt 0.75092477 0
vt 0.6255474 0
vt 0.6255474 0.03125006
vt 0.75092477 0.03125006
vt 0.75092494 0.96875
vt 0.6255476 0.96875
vt 0.6255476 1
vt 0.75092494 1
vt 0.75092494 0.9375
vt 0.6255476 0.9375
vt 0.6255476 0.96875
vt 0.75092494 0.96875
vt 0.75092494 0.90625
vt 0.6255476 0.90625
vt 0.6255476 0.9375
vt 0.75092494 0.9375
vt 0.75092494 0.875
vt 0.6255476 0.875
vt 0.6255476 0.90625
vt 0.75092494 0.90625
vt 0.75092494 0.84374994
vt 0.6255475 0.84375
vt 0.6255476 0.875
vt 0.75092494 0.875
vt 0.75092494 0.81249994
vt 0.6255475 0.81249994
vt 0.6255475 0.84375
vt 0.75092494 0.84374994
vt 0.75092494 0.78124994
vt 0.6255475 0.78124994
vt 0.6255475 0.81249994
vt 0.75092494 0.81249994
vt 0.75092494 0.7499999
vt 0.6255475 0.7499999
vt 0.6255475 0.78124994
vt 0.75092494 0.78124994
vt 0.75092494 0.7187499
vt 0.6255475 0.7187499
vt 0.6255475 0.7499999
vt 0.75092494 0.7499999
vt 0.75092494 0.6874999
vt 0.6255475 0.6874999
vt 0.6255475 0.7187499
vt 0.75092494 0.7187499
vt 0.75092494 0.6562499
vt 0.6255475 0.6562499
vt 0.6255475 0.6874999
vt 0.75092494 0.6874999
vt 0.75092494 0.6249999
vt 0.6255475 0.6249999
vt 0.6255475 0.6562499
vt 0.75092494 0.6562499
vt 0.75092494 0.5937499
vt 0.6255475 0.5937499
vt 0.6255475 0.6249999
vt 0.75092494 0.6249999
vt 0.75092494 0.5624999
vt 0.6255475 0.5624999
vt 0.6255475 0.5937499
vt 0.75092494 0.5937499
vt 0.75092494 0.5312499
vt 0.6255475 0.5312499
vt 0.6255475 0.5624999
vt 0.75092494 0.5624999
vt 0.7509248 0.49999982
vt 0.62554747 0.49999982
vt 0.6255475 0.5312499
vt 0.75092494 0.5312499
vt 0.7509248 0.46874982
vt 0.62554747 0.46874982
vt 0.62554747 0.49999982
vt 0.7509248 0.49999982
vt 0.7509248 0.43749982
vt 0.62554747 0.43749982
vt 0.62554747 0.46874982
vt 0.7509248 0.46874982
vt 0.7509248 0.40624982
vt 0.62554747 0.40624982
vt 0.62554747 0.43749982
vt 0.7509248 0.43749982
vt 0.7509248 0.37499976
vt 0.62554747 0.37499976
vt 0.62554747 0.40624982
vt 0.7509248 0.40624982
vt 0.7509248 0.34374976
vt 0.62554747 0.34374976
vt 0.62554747 0.37499976
vt 0.7509248 0.37499976
vt 0.7509248 0.31249976
vt 0.62554747 0.31249976
vt 0.62554747 0.34374976
vt 0.7509248 0.34374976
vt 1.0016795 0.25
vt 0.8763022 0.25
vt 0.8763022 0.28125
vt 1.0016795 0.28125
vt 1.0016795 0.21875
vt 0.8763022 0.21875
vt 0.8763022 0.25
vt 1.0016795 0.25
vt 1.0016795 0.1875
vt 0.8763022 0.1875
vt 0.8763022 0.21875
vt 1.0016795 0.21875
vt 1.0016795 0.15625
vt 0.8763021 0.15625
vt 0.8763022 0.1875
vt 1.0016795 0.1875
vt 1.0016795 0.12500006
vt 0.8763021 0.12500006
vt 0.8763021 0.15625
vt 1.0016795 0.15625
vt 1.0016795 0.09375006
vt 0.8763021 0.09375006
vt 0.8763021 0.12500006
vt 1.0016795 0.12500006
vt 1.0016795 0.0625
vt 0.8763021 0.0625
vt 0.8763021 0.09375006
vt 1.0016795 0.09375006
vt 1.0016795 0.03125006
vt 0.8763021 0.03125006
vt 0.8763021 0.0625
vt 1.0016795 0.0625
vt 1.0016794 0
vt 0.8763021 0
vt 0.8763021 0.03125006
vt 1.0016795 0.03125006
vt 1.0016797 0.96875
vt 0.8763023 0.96875
vt 0.8763023 1
vt 1.0016797 1
vt 1.0016797 0.9375
vt 0.8763023 0.9375
vt 0.8763023 0.96875
vt 1.0016797 0.96875
vt 1.0016797 0.90625
vt 0.8763023 0.90625
vt 0.8763023 0.9375
vt 1.0016797 0.9375
vt 1.0016797 0.875
vt 0.8763023 0.875
vt 0.8763023 0.90625
vt 1.0016797 0.90625
vt 1.0016797 0.84374994
vt 0.8763023 0.84374994
vt 0.8763023 0.875
vt 1.0016797 0.875
vt 1.0016797 0.81249994
vt 0.8763023 0.81249994
vt 0.8763023 0.84374994
vt 1.0016797 0.84374994
vt 1.0016797 0.78124994
vt 0.8763023 0.78124994
vt 0.8763023 0.81249994
vt 1.0016797 0.81249994
vt 1.0016797 0.7499999
vt 0.8763023 0.7499999
vt 0.8763023 0.78124994
vt 1.0016797 0.78124994
vt 1.0016797 0.7187499
vt 0.8763023 0.7187499
vt 0.8763023 0.7499999
vt 1.0016797 0.7499999
vt 1.0016795 0.6874999
vt 0.87630224 0.6874999
vt 0.8763023 0.7187499
vt 1.0016797 0.7187499
vt 1.0016795 0.6562499
vt 0.87630224 0.6562499
vt 0.87630224 0.6874999
vt 1.0016795 0.6874999
vt 1.0016795 0.6249999
vt 0.87630224 0.6249999
vt 0.87630224 0.6562499
vt 1.0016795 0.6562499
vt 1.0016795 0.5937499
vt 0.87630224 0.5937499
vt 0.87630224 0.6249999
vt 1.0016795 0.6249999
vt 1.0016795 0.5624999
vt 0.87630224 0.5624999
vt 0.87630224 0.5937499
vt 1.0016795 0.5937499
vt 1.0016795 0.5312499
vt 0.87630224 0.5312499
vt 0.87630224 0.5624999
vt 1.0016795 0.5624999
vt 1.0016795 0.49999982
vt 0.8763022 0.49999982
vt 0.87630224 0.5312499
vt 1.0016795 0.5312499
vt 1.0016795 0.46874982
vt 0.8763022 0.46874982
vt 0.8763022 0.49999982
vt 1.0016795 0.49999982
vt 1.0016795 0.43749982
vt 0.8763022 0.43749982
vt 0.8763022 0.46874982
vt 1.0016795 0.46874982
vt 1.0016795 0.40624982
vt 0.8763022 0.40624982
vt 0.8763022 0.43749982
vt 1.0016795 0.43749982
vt 1.0016795 0.37499976
vt 0.8763022 0.37499976
vt 0.8763022 0.40624982
vt 1.0016795 0.40624982
vt 1.0016795 0.34374976
vt 0.8763022 0.34374976
vt 0.8763022 0.37499976
vt 1.0016795 0.37499976
vt 1.0016795 0.31249976
vt 0.8763022 0.31249976
vt 0.8763022 0.34374976
vt 1.0016795 0.34374976
vt 1.0016795 0.28125
vt 0.8763022 0.28125
vt 0.8763022 0.31249976
vt 1.0016795 0.31249976
vn 0.09145716 0.0027421173 0.99580514
vn 0.089164354 0.020531941 0.99580526
vn 0.089164354 0.020531941 0.99580526
vn 0.09145715 0.002742117 0.99580514
vn 0.10557415 -0.008983736 0.9943709
vn 0.090234496 -0.015152775 0.99580526
vn 0.10179265 -0.029407367 0.9943709
vn 0.090234496 -0.015152776 0.99580526
vn 0.08554443 -0.032465484 0.99580526
vn 0.09410008 -0.048701495 0.9943709
vn 0.08554443 -0.032465484 0.99580526
vn 0.07756711 -0.048530642 0.99580526
vn 0.0827907 -0.06612372 0.9943709
vn 0.0775671 -0.04853064 0.99580526
vn 0.0666089 -0.0627309 0.99580514
vn 0.06829956 -0.0810041 0.9943709
vn 0.0666089 -0.0627309 0.99580514
vn 0.053090807 -0.074520215 0.99580526
vn 0.0511842 -0.092772916 0.9943709
vn 0.053090807 -0.0745202 0.99580526
vn 0.037532527 -0.083445586 0.99580526
vn 0.032101676 -0.10097567 0.9943709
vn 0.037532523 -0.08344558 0.99580526
vn 0.020531943 -0.08916432 0.99580526
vn 0.011785424 -0.10529827 0.9943709
vn 0.020531941 -0.0891643 0.99580526
vn 0.020531945 -0.08916432 0.99580526
vn -0.008983436 -0.10557355 0.9943709
vn 0.020531943 -0.08916431 0.99580526
vn -0.008983436 -0.10557357 0.9943709
vn -0.36553615 -0.2641994 0.8925144
vn -0.30680078 -0.33140278 0.8922138
vn -0.015152611 -0.09023452 0.99580526
vn -0.032465473 -0.085544676 0.99580514
vn -0.015152611 -0.09023452 0.99580526
vn -0.032465477 -0.08554468 0.99580526
vn -0.04853077 -0.077567376 0.99580514
vn -0.04870095 -0.094099745 0.9943709
vn -0.066123515 -0.082790725 0.9943709
vn -0.04853077 -0.07756737 0.99580514
vn -0.06273068 -0.066608936 0.99580526
vn -0.08100427 -0.06829975 0.9943709
vn -0.06273066 -0.066608936 0.99580526
vn -0.07452007 -0.05309085 0.99580526
vn -0.09277292 -0.051184334 0.9943709
vn -0.07452007 -0.05309085 0.99580526
vn -0.0834459 -0.03753261 0.99580514
vn -0.100975625 -0.032101758 0.9943709
vn -0.08344591 -0.037532613 0.99580514
vn -0.089164466 -0.020532023 0.99580526
vn -0.105298266 -0.01178553 0.9943709
vn -0.089164466 -0.020532023 0.99580526
vn -0.091457024 -0.0027422307 0.99580514
vn -0.105574094 0.008983544 0.9943709
vn -0.09145702 -0.0027422307 0.99580514
vn -0.09023432 0.015152597 0.99580526
vn -0.10179307 0.029407542 0.9943709
vn -0.09023432 0.015152596 0.99580526
vn -0.08554461 0.032465518 0.99580526
vn -0.09409975 0.04870102 0.9943709
vn -0.08554459 0.032465518 0.99580526
vn -0.077567264 0.04853071 0.99580514
vn -0.08279065 0.06612347 0.9943709
vn -0.07756727 0.04853071 0.99580514
vn -0.06660894 0.06273077 0.99580514
vn -0.06829972 0.0810043 0.9943709
vn -0.066608936 0.06273076 0.99580514
vn -0.053090844 0.0745203 0.99580514
vn -0.051184323 0.09277275 0.9943709
vn -0.053090848 0.0745203 0.99580514
vn -0.03753256 0.08344545 0.99580526
vn -0.032101773 0.100976676 0.99437076
vn -0.03753256 0.08344545 0.99580526
vn -0.020531911 0.0891648 0.99580514
vn -0.011785629 0.10529797 0.9943709
vn -0.02053191 0.089164786 0.99580514
vn -0.0027421508 0.09145713 0.99580514
vn 0.008983818 0.10557444 0.9943709
vn -0.0027421508 0.09145713 0.99580514
vn 0.015152692 0.09023443 0.99580526
vn 0.029407563 0.101793006 0.9943709
vn 0.015152689 0.09023442 0.99580526
vn 0.0324654 0.085544415 0.99580526
vn 0.0487011 0.09409978 0.9943709
vn 0.032465395 0.085544415 0.99580526
vn 0.048530687 0.07756712 0.99580526
vn 0.06612339 0.08279059 0.9943709
vn 0.048530687 0.07756713 0.99580526
vn 0.06273068 0.06660882 0.99580526
vn 0.0810047 0.068299845 0.9943709
vn 0.06273068 0.06660881 0.99580526
vn 0.07452006 0.053090803 0.99580526
vn 0.09277293 0.05118422 0.9943709
vn 0.074520044 0.053090796 0.99580526
vn 0.083446145 0.037532534 0.99580514
vn 0.100975126 0.03210158 0.9943709
vn 0.083446145 0.037532534 0.99580514
vn 0.08344615 0.037532534 0.99580514
vn 0.10529825 0.011785385 0.9943709
vn 0.08344615 0.03753254 0.99580514
vn 0.10529825 0.011785384 0.9943709
vn -0.1144466 -0.22525768 0.9675541
vn -0.1144466 -0.22525766 0.9675541
vn -0.114446595 -0.22525768 0.9675541
vn -0.114446595 -0.22525766 0.9675541
vn -0.068303205 -0.2432581 0.9675537
vn -0.06830321 -0.2432581 0.9675537
vn -0.06830321 -0.24325813 0.9675537
vn -0.068303205 -0.2432581 0.9675537
vn -0.019532807 -0.25190815 0.967554
vn -0.019532807 -0.25190815 0.967554
vn -0.019532807 -0.25190818 0.967554
vn -0.019532807 -0.25190815 0.967554
vn 0.029987039 -0.25087935 0.9675538
vn 0.029987037 -0.25087932 0.9675538
vn 0.029987039 -0.25087932 0.9675538
vn 0.029987037 -0.25087932 0.9675538
vn 0.078355215 -0.24020785 0.967554
vn 0.07835522 -0.24020785 0.967554
vn 0.078355215 -0.24020785 0.967554
vn 0.078355215 -0.24020785 0.967554
vn 0.123711884 -0.22030725 0.9675537
vn 0.12371187 -0.22030725 0.9675537
vn 0.123711884 -0.22030726 0.9675537
vn 0.12371187 -0.22030725 0.9675537
vn 0.16431434 -0.19193858 0.9675538
vn 0.16431434 -0.19193858 0.9675538
vn 0.16431433 -0.19193856 0.9675538
vn 0.16431434 -0.19193858 0.9675538
vn 0.19860199 -0.15619335 0.9675541
vn 0.19860196 -0.15619335 0.9675541
vn 0.19860196 -0.15619333 0.9675541
vn 0.19860196 -0.15619335 0.9675541
vn 0.22525889 -0.11444843 0.9675537
vn 0.22525889 -0.11444843 0.9675537
vn 0.22525887 -0.114448406 0.9675537
vn 0.22525887 -0.11444842 0.9675537
vn 0.24325734 -0.06830245 0.967554
vn 0.24325731 -0.06830245 0.967554
vn 0.24325731 -0.06830245 0.967554
vn 0.24325731 -0.06830245 0.967554
vn 0.25190777 -0.019532526 0.9675541
vn 0.25190774 -0.019532524 0.9675541
vn 0.2519078 -0.019532528 0.9675541
vn 0.25190777 -0.019532526 0.9675541
vn 0.2508798 0.029986652 0.9675537
vn 0.2508798 0.029986655 0.9675537
vn 0.2508798 0.029986657 0.9675537
vn 0.2508798 0.029986657 0.9675537
vn 0.24020799 0.07835493 0.967554
vn 0.24020797 0.07835493 0.967554
vn 0.24020797 0.07835493 0.967554
vn 0.24020799 0.07835493 0.967554
vn 0.2203059 0.12371172 0.967554
vn 0.22030592 0.12371172 0.967554
vn 0.2203059 0.123711705 0.967554
vn 0.2203059 0.123711705 0.967554
vn 0.1919386 0.16431442 0.9675538
vn 0.19193861 0.1643144 0.9675538
vn 0.1919386 0.16431442 0.9675538
vn 0.1919386 0.16431443 0.9675538
vn 0.15619358 0.19860236 0.967554
vn 0.15619358 0.19860236 0.967554
vn 0.15619358 0.19860236 0.967554
vn 0.15619358 0.19860236 0.967554
vn 0.11444812 0.22525881 0.9675537
vn 0.11444813 0.22525884 0.9675537
vn 0.11444813 0.22525884 0.9675537
vn 0.11444813 0.22525884 0.9675537
vn 0.068302125 0.24325691 0.9675541
vn 0.068302125 0.24325691 0.9675541
vn 0.06830212 0.24325688 0.9675541
vn 0.06830213 0.24325691 0.9675541
vn 0.019533679 0.2519093 0.9675537
vn 0.01953368 0.25190932 0.9675537
vn 0.019533679 0.2519093 0.9675537
vn 0.019533679 0.2519093 0.9675537
vn -0.029987456 0.2508783 0.9675541
vn -0.02998746 0.25087833 0.9675541
vn -0.029987462 0.25087833 0.9675541
vn -0.029987462 0.25087833 0.9675541
vn -0.078355275 0.24020725 0.9675541
vn -0.078355275 0.24020725 0.9675541
vn -0.078355275 0.24020725 0.9675541
vn -0.07835527 0.24020724 0.9675541
vn -0.123711854 0.22030655 0.9675539
vn -0.123711854 0.22030656 0.9675539
vn -0.12371187 0.22030658 0.9675539
vn -0.12371187 0.22030655 0.9675539
vn -0.1643145 0.19193827 0.9675539
vn -0.1643145 0.19193827 0.9675539
vn -0.1643145 0.19193825 0.9675539
vn -0.16431451 0.19193827 0.9675539
vn -0.19860248 0.15619382 0.9675539
vn -0.19860247 0.15619382 0.9675539
vn -0.19860247 0.15619382 0.9675539
vn -0.19860247 0.15619381 0.9675539
vn -0.22525835 0.11444723 0.9675539
vn -0.22525838 0.11444724 0.9675539
vn -0.22525834 0.114447236 0.9675539
vn -0.22525837 0.114447236 0.9675539
vn -0.24325784 0.06830265 0.9675538
vn -0.24325784 0.06830264 0.9675538
vn -0.24325787 0.06830265 0.9675538
vn -0.24325784 0.06830264 0.9675538
vn -0.25190875 0.01953282 0.9675539
vn -0.25190875 0.01953282 0.9675539
vn -0.25190875 0.01953282 0.9675539
vn -0.25190875 0.01953282 0.9675539
vn -0.25087896 -0.029987482 0.9675539
vn -0.25087896 -0.029987486 0.9675539
vn -0.25087896 -0.029987484 0.9675539
vn -0.250879 -0.029987486 0.9675539
vn -0.24020799 -0.07835537 0.9675539
vn -0.24020803 -0.078355394 0.9675539
vn -0.24020801 -0.07835538 0.9675539
vn -0.24020799 -0.07835537 0.9675539
vn -0.22030689 -0.12371207 0.9675538
vn -0.22030692 -0.12371207 0.9675538
vn -0.22030689 -0.123712055 0.9675538
vn -0.2203069 -0.12371207 0.9675538
vn -0.19193763 -0.16431451 0.967554
vn -0.19193761 -0.1643145 0.967554
vn -0.19193763 -0.16431451 0.967554
vn -0.19193761 -0.1643145 0.967554
vn -0.24911763 -0.45636383 0.8542087
vn -0.15619452 -0.1986027 0.9675538
vn -0.15619454 -0.19860275 0.9675538
vn -0.1548841 -0.49562913 0.8546126
vn -0.029407702 -0.1017932 0.9943709
vn -0.34498358 -0.042849567 0.9376301
vn -0.34498358 -0.042849567 0.9376301
vn -0.3449836 -0.042849567 0.9376301
vn -0.34498358 -0.042849563 0.9376301
vn -0.32999676 -0.10932854 0.9376297
vn -0.32999668 -0.10932853 0.9376297
vn -0.32999673 -0.10932854 0.9376297
vn -0.3299967 -0.10932854 0.9376297
vn -0.30232596 -0.17160732 0.93763
vn -0.302326 -0.1716073 0.93763
vn -0.302326 -0.17160732 0.93763
vn -0.30232596 -0.1716073 0.93763
vn -0.26303867 -0.22729066 0.93762976
vn -0.26303867 -0.22729068 0.93762976
vn -0.26303867 -0.22729066 0.93762976
vn -0.26303867 -0.2272907 0.93762976
vn -0.21364199 -0.27423948 0.9376299
vn -0.21364197 -0.2742395 0.9376299
vn -0.21364199 -0.2742395 0.9376299
vn -0.21364197 -0.27423948 0.9376299
vn -0.15603466 -0.31064922 0.9376301
vn -0.15603466 -0.31064922 0.9376301
vn -0.15603466 -0.31064922 0.9376301
vn -0.15603466 -0.3106492 0.9376301
vn -0.09243269 -0.3351215 0.9376299
vn -0.0924327 -0.33512154 0.9376299
vn -0.09243269 -0.3351215 0.9376299
vn -0.09243269 -0.33512154 0.9376299
vn -0.025277741 -0.34671515 0.93762976
vn -0.025277743 -0.34671518 0.93762976
vn -0.025277741 -0.34671518 0.93762976
vn -0.025277743 -0.34671518 0.93762976
vn 0.042848986 -0.34498423 0.9376299
vn 0.042848986 -0.34498423 0.9376299
vn 0.04284899 -0.34498426 0.9376299
vn 0.042848986 -0.34498426 0.9376299
vn 0.109328836 -0.32999542 0.9376301
vn 0.109328836 -0.3299954 0.9376301
vn 0.109328836 -0.3299954 0.9376301
vn 0.109328836 -0.32999542 0.9376301
vn 0.1716067 -0.30232683 0.93762976
vn 0.17160672 -0.3023269 0.93762976
vn 0.17160672 -0.30232686 0.93762976
vn 0.17160672 -0.30232686 0.93762976
vn 0.22729053 -0.2630376 0.9376301
vn 0.22729048 -0.26303756 0.9376301
vn 0.2272905 -0.26303756 0.9376301
vn 0.2272905 -0.2630376 0.9376301
vn 0.27423933 -0.21364194 0.9376299
vn 0.27423933 -0.21364194 0.93763
vn 0.27423933 -0.21364193 0.93763
vn 0.27423933 -0.21364194 0.93763
vn 0.31064937 -0.15603535 0.93763
vn 0.3106494 -0.15603535 0.93763
vn 0.3106494 -0.15603535 0.93763
vn 0.3106494 -0.15603536 0.93763
vn 0.33512095 -0.092431605 0.9376302
vn 0.33512095 -0.092431605 0.9376302
vn 0.335121 -0.09243161 0.9376302
vn 0.33512098 -0.0924316 0.9376302
vn 0.34671503 -0.025277253 0.9376299
vn 0.346715 -0.025277251 0.9376299
vn 0.346715 -0.025277253 0.9376299
vn 0.346715 -0.025277253 0.9376299
vn 0.34498537 0.042848166 0.9376296
vn 0.34498537 0.04284817 0.9376296
vn 0.3449854 0.042848174 0.9376296
vn 0.3449854 0.04284817 0.9376296
vn 0.3299948 0.10932908 0.9376303
vn 0.32999486 0.10932909 0.9376303
vn 0.32999483 0.10932909 0.9376303
vn 0.32999483 0.10932909 0.9376303
vn 0.30232623 0.17160714 0.9376299
vn 0.30232623 0.17160712 0.9376299
vn 0.30232623 0.17160714 0.9376299
vn 0.30232623 0.17160712 0.9376299
vn 0.26303783 0.22729068 0.93763
vn 0.26303783 0.22729068 0.93763
vn 0.26303786 0.22729068 0.93763
vn 0.26303786 0.22729068 0.93763
vn 0.21364208 0.27423963 0.93762976
vn 0.21364206 0.27423957 0.93762976
vn 0.21364206 0.27423957 0.93762976
vn 0.21364206 0.27423957 0.93762976
vn 0.15603368 0.31064904 0.9376304
vn 0.15603368 0.31064904 0.9376304
vn 0.15603368 0.31064904 0.9376304
vn 0.15603368 0.31064904 0.9376304
vn 0.09243313 0.33512235 0.9376296
vn 0.092433125 0.33512238 0.9376296
vn 0.09243314 0.33512235 0.9376296
vn 0.09243313 0.33512232 0.9376296
vn 0.025277285 0.34671515 0.93762976
vn 0.025277283 0.34671515 0.93762976
vn 0.025277285 0.34671518 0.93762976
vn 0.025277285 0.34671515 0.93762976
vn -0.042849094 0.34498435 0.9376299
vn -0.042849094 0.34498435 0.9376299
vn -0.042849094 0.34498435 0.9376299
vn -0.042849094 0.34498432 0.9376299
vn -0.109329015 0.32999575 0.93763
vn -0.109329015 0.32999575 0.93763
vn -0.109329015 0.32999575 0.93763
vn -0.109329015 0.32999575 0.93763
vn -0.17160751 0.30232504 0.9376302
vn -0.17160752 0.30232504 0.9376302
vn -0.17160754 0.30232504 0.9376302
vn -0.17160751 0.30232504 0.9376302
vn -0.22729106 0.2630381 0.9376299
vn -0.22729106 0.26303807 0.9376299
vn -0.22729108 0.26303813 0.9376299
vn -0.22729108 0.26303813 0.9376299
vn -0.27424 0.21364251 0.9376296
vn -0.27424 0.21364251 0.9376296
vn -0.27424002 0.21364251 0.9376296
vn -0.27424 0.21364251 0.9376296
vn -0.3106496 0.15603462 0.93763
vn -0.3106496 0.15603462 0.93763
vn -0.3106496 0.15603462 0.93763
vn -0.31064957 0.15603462 0.93763
vn -0.3351219 0.09243206 0.93762976
vn -0.3351219 0.09243205 0.93762976
vn -0.33512193 0.092432044 0.93762976
vn -0.3351219 0.09243206 0.93762976
vn -0.5706016 -0.4709428 0.67277545
vn -0.3467153 0.025277382 0.93762976
vn -0.34671533 0.025277385 0.9376297
vn -0.4680544 -0.5736022 0.6722392
vn -0.2533029 -0.11267844 0.9608024
vn -0.2533029 -0.112678446 0.9608024
vn 0.27859673 -0.7898745 0.54633504
vn -0.4448911 -0.6152945 0.65075684
vn -0.31562454 -0.68939036 0.65201384
vn 0.11975284 -0.82896256 0.5463335
vn -0.55677027 -0.5162108 0.6507943
vn -0.044080757 -0.8362927 0.5465083
vn -0.6463358 -0.39739048 0.6514069
vn -0.2063709 -0.81118685 0.5471626
vn -0.7116526 -0.26456517 0.6508118
vn -0.36131278 -0.7555286 0.54647005
vn -0.7495186 -0.12077113 0.6508734
vn -0.5016694 -0.67054826 0.54652786
vn -0.7582945 0.028597482 0.6512846
vn -0.6232951 -0.5593515 0.5464697
vn -0.7374087 0.17627667 0.65203905
vn -0.72032404 -0.42722663 0.5464527
vn -0.6896789 0.31717858 0.6509537
vn -0.7894742 -0.2788937 0.5467621
vn -0.61472166 0.44514328 0.6511257
vn -0.8291031 -0.11977312 0.54611576
vn -0.515799 0.5563986 0.6514384
vn -0.83608294 0.044723608 0.5467771
vn -0.39750978 0.6465298 0.65114135
vn -0.35120624 0.21367885 0.9115895
vn -0.35120624 0.21367885 0.9115895
vn -0.8116149 0.20724723 0.54619575
vn -0.2649125 0.7107408 0.6516662
vn -0.7555698 0.36071163 0.5468102
vn -0.11903588 0.74928 0.6514676
vn -0.670681 0.501925 0.54613036
vn 0.027667385 0.7580864 0.6515669
vn -0.5589187 0.62405354 0.5460468
vn 0.1763297 0.7376306 0.65177375
vn -0.42731565 0.72066885 0.54592836
vn 0.31655028 0.6893966 0.6515582
vn -0.27834737 0.7904075 0.54569113
vn 0.44415185 0.6155465 0.65102345
vn -0.118539445 0.82915545 0.5463054
vn 0.5551225 0.5163285 0.6521072
vn 0.04343853 0.83650196 0.5462395
vn 0.6460988 0.39816645 0.65116805
vn 0.2072648 0.81168365 0.5460869
vn 0.7107408 0.2649125 0.6516662
vn 0.36131278 0.7555286 0.54647005
vn 0.7495186 0.12077113 0.6508734
vn 0.5021339 0.6703394 0.54635763
vn 0.7586862 -0.028577482 0.65082914
vn 0.62269884 0.5599944 0.5464912
vn 0.7373291 -0.17555456 0.6523238
vn 0.72007185 0.4276978 0.5464166
vn 0.6893966 -0.31655028 0.6515582
vn 0.78980476 0.27919254 0.54613173
vn 0.6154105 -0.44379678 0.65139407
vn 0.8294203 0.11963984 0.54566306
vn 0.51590854 -0.55559385 0.6520383
vn 0.8362927 -0.044080757 0.5465083
vn 0.3977469 -0.64599264 0.6515297
vn 0.8118231 -0.20605908 0.5463359
vn 0.26380137 -0.7111568 0.6516631
vn 0.7553591 -0.36185238 0.5463475
vn 0.11994539 -0.74919736 0.6513957
vn 0.6703394 -0.5021339 0.54635763
vn -0.0276757 -0.7583142 0.65130144
vn 0.5604203 -0.6224823 0.5463011
vn -0.17620969 -0.738051 0.65133005
vn 0.42750674 -0.72037053 0.54617244
vn -0.31562454 -0.68939036 0.65201384
vn 0.27859673 -0.7898745 0.54633504
vn -0.22645187 -0.15993002 0.96080273
vn -0.2264519 -0.15993002 0.96080273
vn -0.2264519 -0.15993 0.96080273
vn -0.22645186 -0.15993 0.96080273
vn -0.19090158 -0.20103607 0.96080226
vn -0.19090155 -0.20103605 0.96080226
vn -0.19090156 -0.20103607 0.96080226
vn -0.19090156 -0.20103608 0.96080226
vn -0.14801201 -0.23441564 0.96080273
vn -0.148012 -0.23441562 0.96080273
vn -0.148012 -0.2344156 0.96080273
vn -0.14801201 -0.23441564 0.96080273
vn -0.09943673 -0.25878778 0.9608024
vn -0.09943674 -0.25878784 0.9608024
vn -0.09943673 -0.25878778 0.9608024
vn -0.09943672 -0.2587878 0.9608024
vn -0.0470388 -0.27321425 0.9608024
vn -0.047038797 -0.27321422 0.9608024
vn -0.047038797 -0.27321422 0.9608024
vn -0.047038797 -0.27321422 0.9608024
vn 0.0071665375 -0.27714124 0.9608025
vn 0.0071665375 -0.2771412 0.9608025
vn 0.007166538 -0.2771412 0.9608025
vn 0.007166538 -0.2771412 0.9608025
vn 0.061096326 -0.27041787 0.9608025
vn 0.061096326 -0.27041787 0.9608025
vn 0.061096318 -0.27041784 0.9608025
vn 0.061096326 -0.27041787 0.9608025
vn 0.11267837 -0.2533026 0.9608025
vn 0.112678364 -0.25330257 0.9608025
vn 0.11267838 -0.2533026 0.9608025
vn 0.11267837 -0.2533026 0.9608025
vn 0.15993018 -0.22645345 0.9608024
vn 0.15993018 -0.22645345 0.9608024
vn 0.1599302 -0.22645344 0.9608024
vn 0.15993017 -0.22645345 0.9608024
vn 0.20103589 -0.19090098 0.9608025
vn 0.20103589 -0.19090098 0.9608025
vn 0.20103587 -0.19090098 0.9608025
vn 0.20103587 -0.19090098 0.9608025
vn 0.23441571 -0.14801186 0.96080273
vn 0.23441574 -0.14801185 0.96080273
vn 0.23441571 -0.14801185 0.96080273
vn 0.23441574 -0.14801183 0.96080273
vn 0.25878817 -0.09943688 0.96080226
vn 0.25878817 -0.09943689 0.96080226
vn 0.25878817 -0.09943689 0.96080226
vn 0.2587882 -0.099436894 0.96080226
vn 0.27321467 -0.047039118 0.96080226
vn 0.27321467 -0.04703911 0.96080226
vn 0.2732147 -0.047039114 0.96080226
vn 0.2732147 -0.047039114 0.96080226
vn 0.27714124 0.0071666064 0.9608025
vn 0.27714124 0.0071666064 0.9608025
vn 0.2771412 0.007166606 0.9608025
vn 0.27714124 0.0071666064 0.9608025
vn 0.2704175 0.06109642 0.9608026
vn 0.27041748 0.06109642 0.9608026
vn 0.2704175 0.06109642 0.9608026
vn 0.2704175 0.061096426 0.9608026
vn 0.25330183 0.1126783 0.96080273
vn 0.25330186 0.112678304 0.96080273
vn 0.25330183 0.1126783 0.96080273
vn 0.25330183 0.1126783 0.96080273
vn 0.22645411 0.15993027 0.96080214
vn 0.22645412 0.15993027 0.96080214
vn 0.22645412 0.15993027 0.96080214
vn 0.22645412 0.15993027 0.96080214
vn 0.19089967 0.2010358 0.96080273
vn 0.19089967 0.2010358 0.96080273
vn 0.19089967 0.2010358 0.96080273
vn 0.19089966 0.2010358 0.96080273
vn 0.14801365 0.23441666 0.96080214
vn 0.14801365 0.23441665 0.96080214
vn 0.14801365 0.23441666 0.96080214
vn 0.14801364 0.23441663 0.96080214
vn 0.099435955 0.25878733 0.9608026
vn 0.099435955 0.25878733 0.9608026
vn 0.099435955 0.25878736 0.9608026
vn 0.09943595 0.25878733 0.9608026
vn 0.047038358 0.27321383 0.9608026
vn 0.047038358 0.27321386 0.9608026
vn 0.04703836 0.2732139 0.9608026
vn 0.047038354 0.27321383 0.9608026
vn -0.0071669044 0.27714074 0.9608026
vn -0.007166905 0.27714077 0.9608026
vn -0.007166905 0.2771408 0.9608026
vn -0.007166905 0.27714077 0.9608026
vn -0.061096318 0.2704181 0.9608024
vn -0.06109631 0.27041808 0.9608024
vn -0.061096303 0.27041808 0.9608024
vn -0.06109631 0.2704181 0.9608024
vn -0.11267856 0.25330195 0.9608026
vn -0.11267856 0.25330195 0.9608026
vn -0.11267858 0.25330198 0.9608026
vn -0.112678565 0.25330195 0.9608026
vn -0.15993048 0.2264533 0.9608024
vn -0.1599305 0.22645332 0.96080226
vn -0.15993047 0.2264533 0.96080226
vn -0.15993048 0.2264533 0.9608024
vn -0.20103642 0.19090126 0.96080226
vn -0.20103641 0.19090125 0.96080226
vn -0.20103642 0.19090126 0.96080226
vn -0.20103642 0.19090126 0.96080226
vn -0.23441604 0.14801203 0.9608026
vn -0.23441604 0.14801203 0.9608026
vn -0.23441607 0.14801203 0.9608026
vn -0.23441607 0.14801204 0.9608026
vn -0.2587872 0.09943555 0.96080273
vn -0.2587872 0.09943555 0.96080273
vn -0.2587872 0.09943555 0.96080273
vn -0.2587872 0.09943555 0.96080273
vn -0.27321455 0.047038782 0.9608024
vn -0.27321455 0.047038782 0.9608024
vn -0.27321455 0.047038775 0.9608024
vn -0.27321455 0.047038782 0.9608024
vn -0.27714103 -0.007166966 0.9608025
vn -0.27714103 -0.007166966 0.9608025
vn -0.27714103 -0.007166965 0.9608025
vn -0.27714106 -0.007166966 0.9608025
vn -0.27041757 -0.061096776 0.9608025
vn -0.2704176 -0.061096776 0.9608025
vn -0.2704176 -0.061096776 0.9608025
vn -0.27041757 -0.061096784 0.9608025
vn -0.3861442 0.14105545 0.9115899
vn -0.3861442 0.14105545 0.9115899
vn -0.3861442 0.14105543 0.9115899
vn -0.3861442 0.14105545 0.9115899
vn -0.40624374 0.06301297 0.9115895
vn -0.40624374 0.06301297 0.9115895
vn -0.40624374 0.06301297 0.9115895
vn -0.4062437 0.06301297 0.9115895
vn -0.41073072 -0.017452268 0.9115896
vn -0.4107307 -0.017452266 0.9115896
vn -0.4107307 -0.017452266 0.9115896
vn -0.41073072 -0.017452268 0.9115896
vn -0.39943397 -0.09724638 0.9115896
vn -0.39943397 -0.097246386 0.9115896
vn -0.39943397 -0.097246386 0.9115896
vn -0.39943397 -0.097246386 0.9115896
vn -0.37278697 -0.17330378 0.9115896
vn -0.372787 -0.17330381 0.9115896
vn -0.372787 -0.17330378 0.9115896
vn -0.372787 -0.17330378 0.9115896
vn -0.33181453 -0.24270102 0.9115895
vn -0.33181453 -0.24270102 0.9115895
vn -0.33181453 -0.24270102 0.9115895
vn -0.33181453 -0.24270105 0.9115895
vn -0.27809003 -0.30277133 0.9115895
vn -0.27809 -0.30277133 0.9115895
vn -0.27809 -0.30277133 0.9115895
vn -0.27809 -0.30277133 0.9115895
vn -0.21367943 -0.3512063 0.9115894
vn -0.21367943 -0.3512063 0.9115894
vn -0.21367942 -0.3512063 0.9115894
vn -0.21367939 -0.35120627 0.9115894
vn -0.14105698 -0.38614482 0.9115893
vn -0.14105698 -0.38614482 0.9115893
vn -0.14105698 -0.38614482 0.9115893
vn -0.14105698 -0.38614482 0.9115893
vn -0.06301166 -0.40624264 0.91159
vn -0.06301166 -0.40624264 0.91159
vn -0.06301166 -0.4062426 0.91159
vn -0.06301165 -0.40624264 0.91159
vn 0.01745113 -0.41073176 0.9115892
vn 0.01745113 -0.41073176 0.9115892
vn 0.01745113 -0.41073176 0.9115892
vn 0.017451128 -0.41073176 0.9115892
vn 0.097247034 -0.39943266 0.9115901
vn 0.09724704 -0.39943263 0.9115901
vn 0.09724703 -0.39943263 0.9115901
vn 0.097247034 -0.39943266 0.9115901
vn 0.17330356 -0.37278718 0.9115896
vn 0.17330357 -0.37278718 0.9115896
vn 0.17330357 -0.37278715 0.9115896
vn 0.17330356 -0.37278715 0.9115896
vn 0.2427006 -0.33181494 0.9115894
vn 0.2427006 -0.33181491 0.9115894
vn 0.2427006 -0.3318149 0.9115894
vn 0.2427006 -0.33181486 0.9115894
vn 0.30277094 -0.27808926 0.9115899
vn 0.30277094 -0.27808928 0.9115899
vn 0.30277094 -0.27808928 0.9115899
vn 0.30277094 -0.27808926 0.9115899
vn 0.35120574 -0.21367814 0.9115899
vn 0.35120574 -0.21367812 0.9115899
vn 0.35120574 -0.21367812 0.9115899
vn 0.35120574 -0.21367814 0.9115899
vn 0.386144 -0.14105591 0.9115898
vn 0.38614398 -0.1410559 0.9115898
vn 0.38614398 -0.1410559 0.9115898
vn 0.38614398 -0.1410559 0.9115898
vn 0.4062436 -0.06301298 0.9115895
vn 0.4062436 -0.06301299 0.9115895
vn 0.40624362 -0.06301298 0.9115895
vn 0.4062436 -0.06301298 0.9115895
vn 0.4107318 0.017451419 0.9115892
vn 0.4107318 0.017451419 0.9115892
vn 0.4107318 0.017451419 0.9115891
vn 0.4107318 0.017451419 0.9115892
vn 0.39943308 0.09724717 0.9115899
vn 0.39943308 0.09724717 0.9115899
vn 0.3994331 0.097247176 0.9115899
vn 0.3994331 0.09724717 0.9115899
vn 0.37278768 0.17330354 0.9115894
vn 0.37278768 0.17330351 0.9115894
vn 0.37278768 0.17330351 0.9115894
vn 0.37278768 0.17330353 0.9115894
vn 0.3318125 0.24270134 0.9115901
vn 0.33181244 0.24270129 0.9115901
vn 0.33181247 0.2427013 0.9115901
vn 0.33181244 0.24270129 0.9115901
vn 0.27809137 0.3027714 0.911589
vn 0.27809137 0.3027714 0.911589
vn 0.2780914 0.30277142 0.911589
vn 0.27809137 0.30277145 0.911589
vn 0.21367706 0.35120568 0.9115902
vn 0.21367706 0.35120565 0.9115902
vn 0.21367705 0.35120568 0.9115902
vn 0.21367706 0.35120568 0.9115902
vn 0.14105524 0.38614392 0.91159
vn 0.14105523 0.38614386 0.91159
vn 0.14105524 0.3861439 0.91159
vn 0.14105524 0.38614392 0.91159
vn 0.06301259 0.4062434 0.9115897
vn 0.063012585 0.40624338 0.9115897
vn 0.063012585 0.4062434 0.9115897
vn 0.063012585 0.4062434 0.9115897
vn -0.017452866 0.41073054 0.9115897
vn -0.017452866 0.41073054 0.9115897
vn -0.017452864 0.4107305 0.9115897
vn -0.017452864 0.4107305 0.9115897
vn -0.0972464 0.3994348 0.9115893
vn -0.09724641 0.3994348 0.9115893
vn -0.09724639 0.39943483 0.9115892
vn -0.09724639 0.39943478 0.9115892
vn -0.17330384 0.37278745 0.9115895
vn -0.17330384 0.37278745 0.9115895
vn -0.17330384 0.37278745 0.9115895
vn -0.17330383 0.37278742 0.9115894
vn -0.24270119 0.33181387 0.9115896
vn -0.24270119 0.33181387 0.9115896
vn -0.24270119 0.33181387 0.9115896
vn -0.24270119 0.33181384 0.9115896
vn -0.30277148 0.27808914 0.9115898
vn -0.3027715 0.27808914 0.9115898
vn -0.3027715 0.27808914 0.9115898
vn -0.30277148 0.2780891 0.9115898
vn -0.15765303 0.41181448 0.89752686
vn -0.15765306 0.41181448 0.89752686
vn -0.15765305 0.41181448 0.89752686
vn -0.15765305 0.41181448 0.89752686
vn -0.23496549 0.37314448 0.89752686
vn -0.23496549 0.3731445 0.89752686
vn -0.23496549 0.37314448 0.89752686
vn -0.23496546 0.37314448 0.89752686
vn -0.30324674 0.3201359 0.8975269
vn -0.30324674 0.3201359 0.89752686
vn -0.30324674 0.3201359 0.89752686
vn -0.3032467 0.32013592 0.89752686
vn -0.3598751 0.25482407 0.8975269
vn -0.35987508 0.25482407 0.8975269
vn -0.35987517 0.2548241 0.8975269
vn -0.35987517 0.2548241 0.8975269
vn -0.40267405 0.1797191 0.8975269
vn -0.40267402 0.1797191 0.8975269
vn -0.40267405 0.17971912 0.8975269
vn -0.402674 0.1797191 0.8975269
vn -0.42999825 0.0977079 0.8975269
vn -0.42999825 0.09770791 0.8975269
vn -0.42999822 0.09770789 0.8975269
vn -0.42999825 0.0977079 0.8975269
vn -0.44079775 0.011942327 0.89752704
vn -0.44079772 0.011942328 0.89752704
vn -0.44079775 0.011942329 0.89752704
vn -0.44079775 0.011942329 0.89752704
vn -0.43465775 -0.07428245 0.89752704
vn -0.43465775 -0.074282445 0.89752704
vn -0.43465772 -0.074282445 0.89752704
vn -0.43465772 -0.07428244 0.89752704
vn -0.4118144 -0.15765178 0.89752704
vn -0.41181436 -0.15765177 0.89752704
vn -0.4118144 -0.15765178 0.89752704
vn -0.41181436 -0.15765178 0.89752704
vn -0.37314385 -0.23496552 0.8975271
vn -0.37314385 -0.23496552 0.8975271
vn -0.37314382 -0.23496552 0.8975271
vn -0.37314388 -0.2349655 0.89752704
vn -0.32013625 -0.30324587 0.89752704
vn -0.32013625 -0.30324587 0.89752704
vn -0.32013628 -0.30324587 0.89752704
vn -0.32013625 -0.30324587 0.89752704
vn -0.25482264 -0.3598759 0.89752704
vn -0.25482264 -0.3598759 0.89752704
vn -0.25482264 -0.3598759 0.89752704
vn -0.25482264 -0.3598759 0.89752704
vn -0.17971946 -0.4026738 0.8975269
vn -0.17971946 -0.40267387 0.8975269
vn -0.17971946 -0.4026738 0.8975269
vn -0.17971946 -0.40267387 0.8975269
vn -0.097708166 -0.42999816 0.8975269
vn -0.097708166 -0.42999822 0.8975269
vn -0.097708166 -0.42999816 0.8975269
vn -0.097708166 -0.42999816 0.8975269
vn -0.011942593 -0.44079778 0.8975269
vn -0.011942593 -0.44079784 0.8975269
vn -0.011942592 -0.44079778 0.8975269
vn -0.011942592 -0.44079778 0.8975269
vn 0.07428393 -0.4346576 0.8975269
vn 0.07428393 -0.4346577 0.8975269
vn 0.07428393 -0.43465766 0.8975269
vn 0.074283935 -0.43465766 0.8975269
vn 0.15765385 -0.4118142 0.89752686
vn 0.15765384 -0.4118142 0.89752686
vn 0.15765385 -0.41181424 0.89752686
vn 0.15765384 -0.4118142 0.89752686
vn 0.23496284 -0.37314633 0.89752674
vn 0.23496284 -0.37314633 0.89752674
vn 0.23496284 -0.3731463 0.89752686
vn 0.23496287 -0.3731463 0.89752686
vn 0.30324668 -0.32013586 0.8975269
vn 0.30324668 -0.32013583 0.8975269
vn 0.3032467 -0.3201359 0.8975269
vn 0.3032467 -0.3201359 0.8975269
vn 0.35987607 -0.2548229 0.8975269
vn 0.35987604 -0.25482294 0.8975269
vn 0.35987604 -0.25482288 0.8975269
vn 0.35987604 -0.25482294 0.8975269
vn 0.40267453 -0.1797188 0.89752686
vn 0.4026745 -0.1797188 0.89752686
vn 0.40267453 -0.1797188 0.89752686
vn 0.40267453 -0.1797188 0.89752686
vn 0.42999887 -0.097707085 0.89752674
vn 0.4299989 -0.0977071 0.89752686
vn 0.42999884 -0.097707085 0.89752686
vn 0.4299989 -0.0977071 0.89752686
vn 0.4407983 -0.011942449 0.89752674
vn 0.4407983 -0.011942447 0.89752674
vn 0.4407983 -0.011942449 0.89752674
vn 0.44079828 -0.011942447 0.89752674
vn 0.43465802 0.07428482 0.8975266
vn 0.43465808 0.07428482 0.89752674
vn 0.43465802 0.07428482 0.8975266
vn 0.43465805 0.074284814 0.8975266
vn 0.41181436 0.15765443 0.89752656
vn 0.41181436 0.15765445 0.89752656
vn 0.4118144 0.15765443 0.89752656
vn 0.4118144 0.15765443 0.89752656
vn 0.37314633 0.23496367 0.89752656
vn 0.37314633 0.23496367 0.89752656
vn 0.37314633 0.23496364 0.89752656
vn 0.37314633 0.23496367 0.89752656
vn 0.3201352 0.30324793 0.8975266
vn 0.32013524 0.30324796 0.8975266
vn 0.3201352 0.30324793 0.8975266
vn 0.3201352 0.30324793 0.8975266
vn 0.25482452 0.35987547 0.8975266
vn 0.25482455 0.35987547 0.8975266
vn 0.25482452 0.35987547 0.8975266
vn 0.25482455 0.35987547 0.8975266
vn 0.17971924 0.4026745 0.89752674
vn 0.17971924 0.4026745 0.89752674
vn 0.17971922 0.40267447 0.89752674
vn 0.17971922 0.40267447 0.89752674
vn 0.097706996 0.42999884 0.89752686
vn 0.09770698 0.42999884 0.89752686
vn 0.09770698 0.42999884 0.89752686
vn 0.09770698 0.4299989 0.89752686
vn 0.011940498 0.44079828 0.89752686
vn 0.011940497 0.44079828 0.89752674
vn 0.011940497 0.44079828 0.89752674
vn 0.011940497 0.44079828 0.89752674
vn -0.07428197 0.43465838 0.89752674
vn -0.074281976 0.43465838 0.89752686
vn -0.07428197 0.43465838 0.89752674
vn -0.07428196 0.43465838 0.89752674
g FX_Twist_005_0
f 3/3/3 2/2/2 1/1/1
f 2/2/2 4/4/4 1/1/1
f 4/4/4 2/2/2 5/5/5
f 1/1/1 4/4/4 6/6/6
f 7/7/7 4/4/4 5/5/5
f 4/4/4 8/8/8 6/6/6
f 8/8/8 4/4/4 7/7/7
f 6/6/6 8/8/8 9/9/9
f 10/10/10 8/8/8 7/7/7
f 8/8/8 11/11/11 9/9/9
f 11/11/11 8/8/8 10/10/10
f 9/9/9 11/11/11 12/12/12
f 13/13/13 11/11/11 10/10/10
f 11/11/11 14/14/14 12/12/12
f 14/14/14 11/11/11 13/13/13
f 12/12/12 14/14/14 15/15/15
f 16/16/16 14/14/14 13/13/13
f 14/14/14 17/17/17 15/15/15
f 17/17/17 14/14/14 16/16/16
f 15/15/15 17/17/17 18/18/18
f 19/19/19 17/17/17 16/16/16
f 17/17/17 20/20/20 18/18/18
f 20/20/20 17/17/17 19/19/19
f 18/18/18 20/20/20 21/21/21
f 22/22/22 20/20/20 19/19/19
f 20/20/20 23/23/23 21/21/21
f 23/23/23 20/20/20 22/22/22
f 21/21/21 23/23/23 24/24/24
f 25/25/25 23/23/23 22/22/22
f 23/23/23 26/26/26 24/24/24
f 26/26/26 23/23/23 25/25/25
f 24/24/24 26/26/26 27/27/27
f 28/28/28 26/26/26 25/25/25
f 26/26/26 29/29/29 27/27/27
f 29/29/29 26/26/26 28/28/28
f 30/30/30 29/29/29 28/28/28
f 32/32/32 29/29/29 31/31/31
f 29/29/29 33/33/33 31/31/31
f 35/35/35 33/33/33 34/34/34
f 33/33/33 36/36/36 34/34/34
f 34/34/34 36/36/36 37/37/37
f 36/36/36 33/33/33 38/38/38
f 39/39/39 36/36/36 38/38/38
f 36/36/36 40/40/40 37/37/37
f 40/40/40 36/36/36 39/39/39
f 37/37/37 40/40/40 41/41/41
f 42/42/42 40/40/40 39/39/39
f 40/40/40 43/43/43 41/41/41
f 43/43/43 40/40/40 42/42/42
f 41/41/41 43/43/43 44/44/44
f 45/45/45 43/43/43 42/42/42
f 43/43/43 46/46/46 44/44/44
f 46/46/46 43/43/43 45/45/45
f 44/44/44 46/46/46 47/47/47
f 48/48/48 46/46/46 45/45/45
f 46/46/46 49/49/49 47/47/47
f 49/49/49 46/46/46 48/48/48
f 47/47/47 49/49/49 50/50/50
f 51/51/51 49/49/49 48/48/48
f 49/49/49 52/52/52 50/50/50
f 52/52/52 49/49/49 51/51/51
f 50/50/50 52/52/52 53/53/53
f 54/54/54 52/52/52 51/51/51
f 52/52/52 55/55/55 53/53/53
f 55/55/55 52/52/52 54/54/54
f 53/53/53 55/55/55 56/56/56
f 57/57/57 55/55/55 54/54/54
f 55/55/55 58/58/58 56/56/56
f 58/58/58 55/55/55 57/57/57
f 56/56/56 58/58/58 59/59/59
f 60/60/60 58/58/58 57/57/57
f 58/58/58 61/61/61 59/59/59
f 61/61/61 58/58/58 60/60/60
f 59/59/59 61/61/61 62/62/62
f 63/63/63 61/61/61 60/60/60
f 61/61/61 64/64/64 62/62/62
f 64/64/64 61/61/61 63/63/63
f 62/62/62 64/64/64 65/65/65
f 66/66/66 64/64/64 63/63/63
f 64/64/64 67/67/67 65/65/65
f 67/67/67 64/64/64 66/66/66
f 65/65/65 67/67/67 68/68/68
f 69/69/69 67/67/67 66/66/66
f 67/67/67 70/70/70 68/68/68
f 70/70/70 67/67/67 69/69/69
f 68/68/68 70/70/70 71/71/71
f 72/72/72 70/70/70 69/69/69
f 70/70/70 73/73/73 71/71/71
f 73/73/73 70/70/70 72/72/72
f 71/71/71 73/73/73 74/74/74
f 75/75/75 73/73/73 72/72/72
f 73/73/73 76/76/76 74/74/74
f 76/76/76 73/73/73 75/75/75
f 74/74/74 76/76/76 77/77/77
f 78/78/78 76/76/76 75/75/75
f 76/76/76 79/79/79 77/77/77
f 79/79/79 76/76/76 78/78/78
f 77/77/77 79/79/79 80/80/80
f 81/81/81 79/79/79 78/78/78
f 79/79/79 82/82/82 80/80/80
f 82/82/82 79/79/79 81/81/81
f 80/80/80 82/82/82 83/83/83
f 84/84/84 82/82/82 81/81/81
f 82/82/82 85/85/85 83/83/83
f 85/85/85 82/82/82 84/84/84
f 83/83/83 85/85/85 86/86/86
f 87/87/87 85/85/85 84/84/84
f 85/85/85 88/88/88 86/86/86
f 88/88/88 85/85/85 87/87/87
f 86/86/86 88/88/88 89/89/89
f 90/90/90 88/88/88 87/87/87
f 88/88/88 91/91/91 89/89/89
f 91/91/91 88/88/88 90/90/90
f 89/89/89 91/91/91 92/92/92
f 93/93/93 91/91/91 90/90/90
f 91/91/91 94/94/94 92/92/92
f 94/94/94 91/91/91 93/93/93
f 92/92/92 94/94/94 95/95/95
f 96/96/96 94/94/94 93/93/93
f 94/94/94 97/97/97 95/95/95
f 97/97/97 94/94/94 96/96/96
f 95/95/95 97/97/97 98/98/98
f 99/99/99 97/97/97 96/96/96
f 97/97/97 100/100/100 98/98/98
f 100/100/100 97/97/97 99/99/99
f 101/101/101 100/100/100 99/99/99
f 104/104/104 103/103/103 102/102/102
f 105/105/105 104/104/104 102/102/102
f 108/108/108 107/107/107 106/106/106
f 109/109/109 108/108/108 106/106/106
f 112/112/112 111/111/111 110/110/110
f 113/113/113 112/112/112 110/110/110
f 116/116/116 115/115/115 114/114/114
f 117/117/117 116/116/116 114/114/114
f 120/120/120 119/119/119 118/118/118
f 121/121/121 120/120/120 118/118/118
f 124/124/124 123/123/123 122/122/122
f 125/125/125 124/124/124 122/122/122
f 128/128/128 127/127/127 126/126/126
f 129/129/129 128/128/128 126/126/126
f 132/132/132 131/131/131 130/130/130
f 133/133/133 132/132/132 130/130/130
f 136/136/136 135/135/135 134/134/134
f 137/137/137 136/136/136 134/134/134
f 140/140/140 139/139/139 138/138/138
f 141/141/141 140/140/140 138/138/138
f 144/144/144 143/143/143 142/142/142
f 145/145/145 144/144/144 142/142/142
f 148/148/148 147/147/147 146/146/146
f 149/149/149 148/148/148 146/146/146
f 152/152/152 151/151/151 150/150/150
f 153/153/153 152/152/152 150/150/150
f 156/156/156 155/155/155 154/154/154
f 157/157/157 156/156/156 154/154/154
f 160/160/160 159/159/159 158/158/158
f 161/161/161 160/160/160 158/158/158
f 164/164/164 163/163/163 162/162/162
f 165/165/165 164/164/164 162/162/162
f 168/168/168 167/167/167 166/166/166
f 169/169/169 168/168/168 166/166/166
f 172/172/172 171/171/171 170/170/170
f 173/173/173 172/172/172 170/170/170
f 176/176/176 175/175/175 174/174/174
f 177/177/177 176/176/176 174/174/174
f 180/180/180 179/179/179 178/178/178
f 181/181/181 180/180/180 178/178/178
f 184/184/184 183/183/183 182/182/182
f 185/185/185 184/184/184 182/182/182
f 188/188/188 187/187/187 186/186/186
f 189/189/189 188/188/188 186/186/186
f 192/192/192 191/191/191 190/190/190
f 193/193/193 192/192/192 190/190/190
f 196/196/196 195/195/195 194/194/194
f 197/197/197 196/196/196 194/194/194
f 200/200/200 199/199/199 198/198/198
f 201/201/201 200/200/200 198/198/198
f 204/204/204 203/203/203 202/202/202
f 205/205/205 204/204/204 202/202/202
f 208/208/208 207/207/207 206/206/206
f 209/209/209 208/208/208 206/206/206
f 212/212/212 211/211/211 210/210/210
f 213/213/213 212/212/212 210/210/210
f 216/216/216 215/215/215 214/214/214
f 217/217/217 216/216/216 214/214/214
f 220/220/220 219/219/219 218/218/218
f 221/221/221 220/220/220 218/218/218
f 224/224/224 223/223/223 222/222/222
f 225/225/225 224/224/224 222/222/222
f 228/228/228 227/227/227 226/226/226
f 229/229/229 228/228/228 226/226/226
f 226/226/226 33/33/33 229/229/229
f 33/33/33 230/230/230 229/229/229
f 233/233/233 232/232/232 231/231/231
f 234/234/234 233/233/233 231/231/231
f 237/237/237 236/236/236 235/235/235
f 238/238/238 237/237/237 235/235/235
f 241/241/241 240/240/240 239/239/239
f 242/242/242 241/241/241 239/239/239
f 245/245/245 244/244/244 243/243/243
f 246/246/246 245/245/245 243/243/243
f 249/249/249 248/248/248 247/247/247
f 250/250/250 249/249/249 247/247/247
f 253/253/253 252/252/252 251/251/251
f 254/254/254 253/253/253 251/251/251
f 257/257/257 256/256/256 255/255/255
f 258/258/258 257/257/257 255/255/255
f 261/261/261 260/260/260 259/259/259
f 262/262/262 261/261/261 259/259/259
f 265/265/265 264/264/264 263/263/263
f 266/266/266 265/265/265 263/263/263
f 269/269/269 268/268/268 267/267/267
f 270/270/270 269/269/269 267/267/267
f 273/273/273 272/272/272 271/271/271
f 274/274/274 273/273/273 271/271/271
f 277/277/277 276/276/276 275/275/275
f 278/278/278 277/277/277 275/275/275
f 281/281/281 280/280/280 279/279/279
f 282/282/282 281/281/281 279/279/279
f 285/285/285 284/284/284 283/283/283
f 286/286/286 285/285/285 283/283/283
f 289/289/289 288/288/288 287/287/287
f 290/290/290 289/289/289 287/287/287
f 293/293/293 292/292/292 291/291/291
f 294/294/294 293/293/293 291/291/291
f 297/297/297 296/296/296 295/295/295
f 298/298/298 297/297/297 295/295/295
f 301/301/301 300/300/300 299/299/299
f 302/302/302 301/301/301 299/299/299
f 305/305/305 304/304/304 303/303/303
f 306/306/306 305/305/305 303/303/303
f 309/309/309 308/308/308 307/307/307
f 310/310/310 309/309/309 307/307/307
f 313/313/313 312/312/312 311/311/311
f 314/314/314 313/313/313 311/311/311
f 317/317/317 316/316/316 315/315/315
f 318/318/318 317/317/317 315/315/315
f 321/321/321 320/320/320 319/319/319
f 322/322/322 321/321/321 319/319/319
f 325/325/325 324/324/324 323/323/323
f 326/326/326 325/325/325 323/323/323
f 329/329/329 328/328/328 327/327/327
f 330/330/330 329/329/329 327/327/327
f 333/333/333 332/332/332 331/331/331
f 334/334/334 333/333/333 331/331/331
f 337/337/337 336/336/336 335/335/335
f 338/338/338 337/337/337 335/335/335
f 341/341/341 340/340/340 339/339/339
f 342/342/342 341/341/341 339/339/339
f 345/345/345 344/344/344 343/343/343
f 346/346/346 345/345/345 343/343/343
f 349/349/349 348/348/348 347/347/347
f 350/350/350 349/349/349 347/347/347
f 353/353/353 352/352/352 351/351/351
f 354/354/354 353/353/353 351/351/351
f 357/357/357 356/356/356 355/355/355
f 358/358/358 357/357/357 355/355/355
f 355/355/355 359/359/359 358/358/358
f 359/359/359 360/360/360 358/358/358
f 363/363/363 362/362/362 361/361/361
f 362/362/362 364/364/364 361/361/361
f 362/362/362 365/365/365 364/364/364
f 365/365/365 366/366/366 364/364/364
f 365/365/365 367/367/367 366/366/366
f 367/367/367 368/368/368 366/366/366
f 367/367/367 369/369/369 368/368/368
f 369/369/369 370/370/370 368/368/368
f 369/369/369 371/371/371 370/370/370
f 371/371/371 372/372/372 370/370/370
f 371/371/371 373/373/373 372/372/372
f 373/373/373 374/374/374 372/372/372
f 373/373/373 375/375/375 374/374/374
f 375/375/375 376/376/376 374/374/374
f 375/375/375 377/377/377 376/376/376
f 377/377/377 378/378/378 376/376/376
f 377/377/377 379/379/379 378/378/378
f 379/379/379 380/380/380 378/378/378
f 379/379/379 381/381/381 380/380/380
f 381/381/381 382/382/382 380/380/380
f 381/381/381 383/383/383 382/382/382
f 382/382/382 384/384/384 380/380/380
f 384/384/384 385/385/385 380/380/380
f 383/383/383 386/386/386 382/382/382
f 383/383/383 387/387/387 386/386/386
f 387/387/387 388/388/388 386/386/386
f 387/387/387 389/389/389 388/388/388
f 389/389/389 390/390/390 388/388/388
f 389/389/389 391/391/391 390/390/390
f 391/391/391 392/392/392 390/390/390
f 391/391/391 393/393/393 392/392/392
f 393/393/393 394/394/394 392/392/392
f 393/393/393 395/395/395 394/394/394
f 395/395/395 396/396/396 394/394/394
f 395/395/395 397/397/397 396/396/396
f 397/397/397 398/398/398 396/396/396
f 397/397/397 399/399/399 398/398/398
f 399/399/399 400/400/400 398/398/398
f 399/399/399 401/401/401 400/400/400
f 401/401/401 402/402/402 400/400/400
f 401/401/401 403/403/403 402/402/402
f 403/403/403 404/404/404 402/402/402
f 403/403/403 405/405/405 404/404/404
f 405/405/405 406/406/406 404/404/404
f 405/405/405 407/407/407 406/406/406
f 407/407/407 408/408/408 406/406/406
f 407/407/407 409/409/409 408/408/408
f 409/409/409 410/410/410 408/408/408
f 409/409/409 411/411/411 410/410/410
f 411/411/411 412/412/412 410/410/410
f 411/411/411 413/413/413 412/412/412
f 413/413/413 414/414/414 412/412/412
f 413/413/413 415/415/415 414/414/414
f 415/415/415 416/416/416 414/414/414
f 415/415/415 417/417/417 416/416/416
f 417/417/417 418/418/418 416/416/416
f 417/417/417 419/419/419 418/418/418
f 419/419/419 420/420/420 418/418/418
f 419/419/419 421/421/421 420/420/420
f 421/421/421 422/422/422 420/420/420
f 421/421/421 423/423/423 422/422/422
f 423/423/423 424/424/424 422/422/422
f 423/423/423 425/425/425 424/424/424
f 425/425/425 426/426/426 424/424/424
f 425/425/425 427/427/427 426/426/426
f 427/427/427 428/428/428 426/426/426
f 431/431/431 430/430/430 429/429/429
f 432/432/432 431/431/431 429/429/429
f 435/435/435 434/434/434 433/433/433
f 436/436/436 435/435/435 433/433/433
f 439/439/439 438/438/438 437/437/437
f 440/440/440 439/439/439 437/437/437
f 443/443/443 442/442/442 441/441/441
f 444/444/444 443/443/443 441/441/441
f 447/447/447 446/446/446 445/445/445
f 448/448/448 447/447/447 445/445/445
f 451/451/451 450/450/450 449/449/449
f 452/452/452 451/451/451 449/449/449
f 455/455/455 454/454/454 453/453/453
f 456/456/456 455/455/455 453/453/453
f 459/459/459 458/458/458 457/457/457
f 460/460/460 459/459/459 457/457/457
f 463/463/463 462/462/462 461/461/461
f 464/464/464 463/463/463 461/461/461
f 467/467/467 466/466/466 465/465/465
f 468/468/468 467/467/467 465/465/465
f 471/471/471 470/470/470 469/469/469
f 472/472/472 471/471/471 469/469/469
f 475/475/475 474/474/474 473/473/473
f 476/476/476 475/475/475 473/473/473
f 479/479/479 478/478/478 477/477/477
f 480/480/480 479/479/479 477/477/477
f 483/483/483 482/482/482 481/481/481
f 484/484/484 483/483/483 481/481/481
f 487/487/487 486/486/486 485/485/485
f 488/488/488 487/487/487 485/485/485
f 491/491/491 490/490/490 489/489/489
f 492/492/492 491/491/491 489/489/489
f 495/495/495 494/494/494 493/493/493
f 496/496/496 495/495/495 493/493/493
f 499/499/499 498/498/498 497/497/497
f 500/500/500 499/499/499 497/497/497
f 503/503/503 502/502/502 501/501/501
f 504/504/504 503/503/503 501/501/501
f 507/507/507 506/506/506 505/505/505
f 508/508/508 507/507/507 505/505/505
f 511/511/511 510/510/510 509/509/509
f 512/512/512 511/511/511 509/509/509
f 515/515/515 514/514/514 513/513/513
f 516/516/516 515/515/515 513/513/513
f 519/519/519 518/518/518 517/517/517
f 520/520/520 519/519/519 517/517/517
f 523/523/523 522/522/522 521/521/521
f 524/524/524 523/523/523 521/521/521
f 527/527/527 526/526/526 525/525/525
f 528/528/528 527/527/527 525/525/525
f 531/531/531 530/530/530 529/529/529
f 532/532/532 531/531/531 529/529/529
f 535/535/535 534/534/534 533/533/533
f 536/536/536 535/535/535 533/533/533
f 539/539/539 538/538/538 537/537/537
f 540/540/540 539/539/539 537/537/537
f 543/543/543 542/542/542 541/541/541
f 544/544/544 543/543/543 541/541/541
f 547/547/547 546/546/546 545/545/545
f 548/548/548 547/547/547 545/545/545
f 551/551/551 550/550/550 549/549/549
f 552/552/552 551/551/551 549/549/549
f 555/555/555 554/554/554 553/553/553
f 556/556/556 555/555/555 553/553/553
f 559/559/559 558/558/558 557/557/557
f 560/560/560 559/559/559 557/557/557
f 563/563/563 562/562/562 561/561/561
f 564/564/564 563/563/563 561/561/561
f 567/567/567 566/566/566 565/565/565
f 568/568/568 567/567/567 565/565/565
f 571/571/571 570/570/570 569/569/569
f 572/572/572 571/571/571 569/569/569
f 575/575/575 574/574/574 573/573/573
f 576/576/576 575/575/575 573/573/573
f 579/579/579 578/578/578 577/577/577
f 580/580/580 579/579/579 577/577/577
f 583/583/583 582/582/582 581/581/581
f 584/584/584 583/583/583 581/581/581
f 587/587/587 586/586/586 585/585/585
f 588/588/588 587/587/587 585/585/585
f 591/591/591 590/590/590 589/589/589
f 592/592/592 591/591/591 589/589/589
f 595/595/595 594/594/594 593/593/593
f 596/596/596 595/595/595 593/593/593
f 599/599/599 598/598/598 597/597/597
f 600/600/600 599/599/599 597/597/597
f 603/603/603 602/602/602 601/601/601
f 604/604/604 603/603/603 601/601/601
f 607/607/607 606/606/606 605/605/605
f 608/608/608 607/607/607 605/605/605
f 611/611/611 610/610/610 609/609/609
f 612/612/612 611/611/611 609/609/609
f 615/615/615 614/614/614 613/613/613
f 616/616/616 615/615/615 613/613/613
f 619/619/619 618/618/618 617/617/617
f 620/620/620 619/619/619 617/617/617
f 623/623/623 622/622/622 621/621/621
f 624/624/624 623/623/623 621/621/621
f 627/627/627 626/626/626 625/625/625
f 628/628/628 627/627/627 625/625/625
f 631/631/631 630/630/630 629/629/629
f 632/632/632 631/631/631 629/629/629
f 635/635/635 634/634/634 633/633/633
f 636/636/636 635/635/635 633/633/633
f 639/639/639 638/638/638 637/637/637
f 640/640/640 639/639/639 637/637/637
f 643/643/643 642/642/642 641/641/641
f 644/644/644 643/643/643 641/641/641
f 647/647/647 646/646/646 645/645/645
f 648/648/648 647/647/647 645/645/645
f 651/651/651 650/650/650 649/649/649
f 652/652/652 651/651/651 649/649/649
f 655/655/655 654/654/654 653/653/653
f 656/656/656 655/655/655 653/653/653
f 659/659/659 658/658/658 657/657/657
f 660/660/660 659/659/659 657/657/657
f 663/663/663 662/662/662 661/661/661
f 664/664/664 663/663/663 661/661/661
f 667/667/667 666/666/666 665/665/665
f 668/668/668 667/667/667 665/665/665
f 671/671/671 670/670/670 669/669/669
f 672/672/672 671/671/671 669/669/669
f 675/675/675 674/674/674 673/673/673
f 676/676/676 675/675/675 673/673/673
f 679/679/679 678/678/678 677/677/677
f 680/680/680 679/679/679 677/677/677
f 683/683/683 682/682/682 681/681/681
f 684/684/684 683/683/683 681/681/681
f 687/687/687 686/686/686 685/685/685
f 688/688/688 687/687/687 685/685/685
f 691/691/691 690/690/690 689/689/689
f 692/692/692 691/691/691 689/689/689
f 695/695/695 694/694/694 693/693/693
f 696/696/696 695/695/695 693/693/693
f 699/699/699 698/698/698 697/697/697
f 700/700/700 699/699/699 697/697/697
f 703/703/703 702/702/702 701/701/701
f 704/704/704 703/703/703 701/701/701
f 707/707/707 706/706/706 705/705/705
f 708/708/708 707/707/707 705/705/705
f 711/711/711 710/710/710 709/709/709
f 712/712/712 711/711/711 709/709/709
f 715/715/715 714/714/714 713/713/713
f 716/716/716 715/715/715 713/713/713
f 719/719/719 718/718/718 717/717/717
f 720/720/720 719/719/719 717/717/717
f 723/723/723 722/722/722 721/721/721
f 724/724/724 723/723/723 721/721/721
f 727/727/727 726/726/726 725/725/725
f 728/728/728 727/727/727 725/725/725
f 731/731/731 730/730/730 729/729/729
f 732/732/732 731/731/731 729/729/729
f 735/735/735 734/734/734 733/733/733
f 736/736/736 735/735/735 733/733/733
f 739/739/739 738/738/738 737/737/737
f 740/740/740 739/739/739 737/737/737
f 743/743/743 742/742/742 741/741/741
f 744/744/744 743/743/743 741/741/741
f 747/747/747 746/746/746 745/745/745
f 748/748/748 747/747/747 745/745/745
f 751/751/751 750/750/750 749/749/749
f 752/752/752 751/751/751 749/749/749
f 755/755/755 754/754/754 753/753/753
f 756/756/756 755/755/755 753/753/753
f 759/759/759 758/758/758 757/757/757
f 760/760/760 759/759/759 757/757/757
f 763/763/763 762/762/762 761/761/761
f 764/764/764 763/763/763 761/761/761
f 767/767/767 766/766/766 765/765/765
f 768/768/768 767/767/767 765/765/765
f 771/771/771 770/770/770 769/769/769
f 772/772/772 771/771/771 769/769/769
f 775/775/775 774/774/774 773/773/773
f 776/776/776 775/775/775 773/773/773
f 779/779/779 778/778/778 777/777/777
f 780/780/780 779/779/779 777/777/777
f 783/783/783 782/782/782 781/781/781
f 784/784/784 783/783/783 781/781/781
f 787/787/787 786/786/786 785/785/785
f 788/788/788 787/787/787 785/785/785
f 791/791/791 790/790/790 789/789/789
f 792/792/792 791/791/791 789/789/789
f 795/795/795 794/794/794 793/793/793
f 796/796/796 795/795/795 793/793/793
f 799/799/799 798/798/798 797/797/797
f 800/800/800 799/799/799 797/797/797
f 803/803/803 802/802/802 801/801/801
f 804/804/804 803/803/803 801/801/801
