g Sphere001
v 3.974445 5.470378 -9.306753
v 2.0894816 6.4308105 -9.306752
v 1.098505 3.3808758 -10.940743
v 5.4703555 7.5293303 -6.76175
v 2.0894885 2.8759465 -10.940743
v 7.529309 5.4703846 -6.76175
v 5.470363 3.974467 -9.306753
v -0 5.071525E-07 -11.5037775
v 2.8759384 2.0895 -10.940743
v -1.5538788E-07 3.5548604 -10.940743
v 3.3808708 1.0985185 -10.940743
v -1.0985123 3.380873 -10.940743
v 6.4308023 2.0895069 -9.306753
v -2.9556546E-07 6.7617497 -9.306752
v 2.8759253 8.851253 -6.76175
v 8.851241 2.8759594 -6.76175
v 6.7617493 1.1266139E-05 -9.306753
v 3.55486 6.189361E-06 -10.940743
v 9.30675 1.5240528E-05 -6.761751
v -2.0894957 6.4308057 -9.306752
v -4.0681095E-07 9.30675 -6.76175
v -2.0894942 2.8759427 -10.940743
v 10.405257 3.3808928 -3.5548644
v 10.940741 1.7723489E-05 -3.5548644
v 8.8512335 6.430822 -3.5548642
v 6.4307885 8.851257 -3.5548642
v 3.3808522 10.40527 -3.5548642
v -2.8759444 8.851246 -6.76175
v -3.974456 5.4703703 -9.306753
v -4.7823494E-07 10.940741 -3.5548642
v -2.8759422 2.0894945 -10.940743
v 10.940735 3.554881 -2.3364985E-06
v 9.306738 6.761767 -2.196321E-06
v 6.7617316 9.306763 -2.0850757E-06
v 3.5548391 10.940749 -2.013652E-06
v 11.503776 1.8471974E-05 -2.4918866E-06
v -5.4703703 3.9744563 -9.306753
v -3.380873 1.0985119 -10.940743
v -5.47037 7.5293193 -6.76175
v -3.380875 10.405262 -3.5548642
v -5.02846E-07 11.503776 -1.9890413E-06
v -3.55486 -6.75779E-07 -10.940743
v -6.430806 2.0894945 -9.306753
v -7.52932 5.4703703 -6.76175
v -6.4308047 8.851245 -3.5548642
v -3.380872 -1.0985131 -10.940743
v -2.875941 -2.0894954 -10.940743
v -2.0894923 -2.8759432 -10.940743
v -6.7617493 -1.7921401E-06 -9.306753
v -8.851246 2.8759427 -6.76175
v -6.4308043 -2.0894978 -9.306753
v -3.5548625 10.940741 -2.0136524E-06
v -8.851246 6.4308047 -3.5548642
v -9.30675 -2.7326523E-06 -6.761751
v -5.4703674 -3.9744592 -9.306753
v -6.7617493 9.30675 -2.0850764E-06
v -10.405264 3.3808727 -3.5548644
v -8.851244 -2.8759477 -6.761751
v -9.306751 6.7617493 -2.196322E-06
v -10.940741 -3.4052514E-06 -3.5548644
v -10.940742 3.55486 -2.3364996E-06
v -3.9744527 -5.470372 -9.306753
v -7.5293164 -5.4703746 -6.761751
v -10.405261 -3.3808792 -3.5548646
v -11.503776 -3.7440993E-06 -2.4918877E-06
v -1.0985093 -3.3808734 -10.940743
v -6.4308057 8.851246 3.5548599
v -8.851246 6.4308057 3.5548599
v -10.405264 3.3808725 3.5548596
v -3.380875 10.405262 3.5548599
v -4.78235E-07 10.940741 3.5548599
v 3.380853 10.405271 3.5548599
v 6.4307885 8.851257 3.5548599
v 8.8512335 6.430822 3.5548599
v 10.405257 3.3808928 3.5548596
v 10.940741 1.7412714E-05 3.5548596
v -2.8759444 8.851245 6.7617493
v -4.0681095E-07 9.306749 6.7617493
v 2.8759253 8.851252 6.7617493
v 5.4703555 7.52933 6.7617493
v 7.529309 5.4703836 6.7617493
v 8.851241 2.8759587 6.7617493
v 9.30675 1.4649398E-05 6.7617493
v -5.47037 7.529319 6.7617493
v -7.52932 5.47037 6.7617493
v 3.974446 5.470378 9.306748
v 5.470363 3.9744666 9.306748
v 6.4308023 2.0895064 9.306748
v 6.7617497 1.0452518E-05 9.306748
v 2.0894818 6.4308105 9.306748
v -2.9556548E-07 6.7617493 9.306749
v -2.089496 6.4308057 9.306748
v -3.9744563 5.4703703 9.306748
v 3.3808734 1.0985183 10.940741
v 2.87594 2.0895004 10.940741
v 2.08949 2.8759477 10.940741
v 1.0985057 3.3808768 10.940741
v -0 -4.985396E-07 11.503774
v 3.5548623 5.2328946E-06 10.940741
v -1.5538797E-07 3.554862 10.940741
v -1.098513 3.3808746 10.940741
v 3.3808763 -1.0985084 10.94074
v -2.0894954 2.8759434 10.940741
v 6.430809 -2.0894866 9.306748
v -5.470371 3.974456 9.306748
v -2.8759444 2.089495 10.940741
v 2.875947 -2.0894923 10.94074
v 8.851249 -2.8759313 6.7617483
v -8.851246 2.875942 6.7617493
v -3.380875 1.0985117 10.940741
v 2.0894992 -2.875942 10.94074
v -3.5548623 -1.6322499E-06 10.940741
v 5.470376 -3.9744499 9.306748
v -6.4308066 2.0894938 9.306748
v 10.405267 -3.3808599 3.5548592
v -10.940741 -3.7160275E-06 3.5548596
v 7.529326 -5.4703608 6.7617483
v 3.9744635 -5.470366 9.306748
v -6.7617497 -2.6057626E-06 9.306748
v -9.30675 -3.3237834E-06 6.7617493
v 10.940745 -3.554846 -2.6472746E-06
v 8.851254 -6.4307947 3.5548592
v 10.405267 -3.3808594 -3.5548646
v 5.4703803 -7.5293126 6.7617483
v 9.306759 -6.7617373 -2.7874526E-06
v 8.851249 -2.8759308 -6.761751
v 6.430817 -8.851237 3.554859
v 8.8512535 -6.430794 -3.5548646
v 6.4308085 -2.0894856 -9.306753
v 6.761761 -9.306742 -2.898698E-06
v 7.529326 -5.47036 -6.761751
v 3.3808746 -1.0985068 -10.940743
v 5.470375 -3.9744487 -9.306753
v 6.430817 -8.851237 -3.5548646
v 2.8759449 -2.08949 -10.940743
v 5.4703803 -7.529312 -6.761751
v 3.9744632 -5.470365 -9.306753
v 2.0894978 -2.8759394 -10.940743
v 3.3808866 -10.40526 3.554859
v 3.5548744 -10.940737 -2.9701223E-06
v 3.380886 -10.405258 -3.5548651
v 2.875954 -8.851242 -6.761751
v 2.0895023 -6.4308033 -9.306753
v 1.0985159 -3.3808708 -10.940743
v 3.43257E-06 -3.5548596 -10.940743
v 6.5291392E-06 -6.7617483 -9.306753
v -2.08949 -6.4308066 -9.306753
v 8.986591E-06 -9.306749 -6.761751
v 1.056437E-05 -10.940741 -3.5548651
v -5.4703655 -7.529323 -6.761751
v -2.8759365 -8.851248 -6.761751
v -8.851241 -6.430811 -3.5548646
v -3.380866 -10.405265 -3.5548651
v -6.4308 -8.851249 -3.5548646
v 1.1108036E-05 -11.503776 -2.9947334E-06
v -10.940739 -3.5548668 -2.6472756E-06
v -9.3067465 -6.761755 -2.787453E-06
v -10.405261 -3.3808796 3.5548592
v -6.7617435 -9.306754 -2.8986988E-06
v -3.5548532 -10.940744 -2.9701228E-06
v 1.056437E-05 -10.940741 3.554859
v -8.851244 -2.8759484 6.7617483
v -8.851242 -6.4308114 3.5548592
v -6.4308 -8.851251 3.554859
v -3.3808663 -10.405266 3.554859
v -6.4308057 -2.089499 9.306748
v -7.5293164 -5.470375 6.7617483
v -5.4703655 -7.5293236 6.7617483
v -2.8759365 -8.851248 6.7617483
v -3.3808746 -1.0985148 10.94074
v -5.470368 -3.9744604 9.306748
v -3.974453 -5.4703736 9.306748
v -2.8759427 -2.0894978 10.94074
v 8.986591E-06 -9.30675 6.7617483
v -2.0894938 -2.875946 10.94074
v -2.0894902 -6.4308085 9.306748
v 2.875954 -8.851242 6.7617483
v -1.09851 -3.3808763 10.94074
v 6.5291406E-06 -6.76175 9.306748
v 2.0895028 -6.4308043 9.306748
v 3.4325722E-06 -3.554863 10.94074
v 1.0985166 -3.3808742 10.94074
vt 0.6727453 0.09549141
vt 0.5908172 0.09549138
vt 0.5477454 0.02447164
vt 0.7377635 0.20610735
vt 0.5908175 0.02447164
vt 0.8272538 0.20610738
vt 0.7377638 0.09549141
vt 0.5 0
vt 0.62499976 0.02447167
vt 0.5 0.02447164
vt 0.64694613 0.02447167
vt 0.4522543 0.02447164
vt 0.77950835 0.09549144
vt 0.5 0.09549138
vt 0.6249992 0.20610735
vt 0.88471025 0.20610738
vt 0.7938926 0.09549144
vt 0.6545084 0.02447167
vt 0.9045085 0.20610741
vt 0.4091822 0.09549138
vt 0.5 0.20610735
vt 0.40918225 0.02447164
vt 0.952254 0.34549144
vt 0.97552824 0.34549147
vt 0.88470995 0.3454914
vt 0.77950776 0.3454914
vt 0.64694536 0.3454914
vt 0.37500003 0.20610735
vt 0.3272543 0.09549141
vt 0.5 0.3454914
vt 0.37500006 0.02447167
vt 0.975528 0.49999994
vt 0.904508 0.49999994
vt 0.79389185 0.4999999
vt 0.6545075 0.4999999
vt 1 0.49999997
vt 0.26223588 0.09549141
vt 0.35305375 0.02447167
vt 0.26223594 0.20610735
vt 0.3530537 0.3454914
vt 0.5 0.4999999
vt 0.3454916 0.02447167
vt 0.2204915 0.09549144
vt 0.17274573 0.20610738
vt 0.22049159 0.3454914
vt 0.3530538 0.02447167
vt 0.37500012 0.02447167
vt 0.4091823 0.0244717
vt 0.20610741 0.09549144
vt 0.11528951 0.20610738
vt 0.22049156 0.09549144
vt 0.34549153 0.4999999
vt 0.11528957 0.3454914
vt 0.0954915 0.20610741
vt 0.262236 0.09549147
vt 0.20610744 0.4999999
vt 0.047745734 0.34549144
vt 0.1152896 0.20610744
vt 0.09549147 0.49999994
vt 0.02447176 0.34549147
vt 0.02447167 0.49999994
vt 0.3272544 0.09549147
vt 0.17274582 0.20610744
vt 0.047745824 0.3454915
vt 0 0.49999997
vt 0.45225438 0.0244717
vt 0.22049153 0.6545084
vt 0.11528954 0.6545085
vt 0.047745705 0.6545085
vt 0.3530537 0.6545084
vt 0.5 0.6545084
vt 0.6469454 0.6545084
vt 0.77950776 0.6545084
vt 0.88470995 0.6545085
vt 0.95225406 0.6545085
vt 0.97552824 0.6545085
vt 0.37500003 0.7938926
vt 0.5 0.7938926
vt 0.6249992 0.7938926
vt 0.7377635 0.7938926
vt 0.8272538 0.7938926
vt 0.88471025 0.7938926
vt 0.9045085 0.7938926
vt 0.26223594 0.7938926
vt 0.17274573 0.7938926
vt 0.6727453 0.9045085
vt 0.7377638 0.9045085
vt 0.77950835 0.9045085
vt 0.7938926 0.9045085
vt 0.5908172 0.9045085
vt 0.5 0.9045085
vt 0.4091822 0.9045085
vt 0.32725427 0.9045085
vt 0.64694625 0.97552824
vt 0.6249999 0.97552824
vt 0.5908176 0.97552824
vt 0.54774547 0.97552824
vt 0.5 1
vt 0.6545085 0.97552824
vt 0.5 0.97552824
vt 0.45225424 0.97552824
vt 0.6469464 0.97552824
vt 0.4091822 0.97552824
vt 0.77950865 0.9045085
vt 0.26223585 0.9045085
vt 0.375 0.97552824
vt 0.6250001 0.97552824
vt 0.88471067 0.7938927
vt 0.11528951 0.7938926
vt 0.35305366 0.97552824
vt 0.590818 0.9755283
vt 0.3454915 0.97552824
vt 0.73776436 0.90450853
vt 0.22049147 0.9045085
vt 0.9522545 0.65450853
vt 0.02447173 0.6545085
vt 0.82725453 0.7938927
vt 0.67274606 0.90450853
vt 0.20610735 0.9045085
vt 0.0954915 0.7938926
vt 0.9755285 0.5
vt 0.8847108 0.65450853
vt 0.9522544 0.3454915
vt 0.73776454 0.79389274
vt 0.9045088 0.5
vt 0.88471067 0.20610744
vt 0.77950895 0.65450853
vt 0.8847108 0.34549153
vt 0.7795086 0.09549144
vt 0.7938931 0.50000006
vt 0.82725453 0.20610744
vt 0.6469463 0.02447167
vt 0.73776436 0.09549147
vt 0.77950895 0.34549153
vt 0.625 0.02447167
vt 0.73776454 0.20610747
vt 0.672746 0.09549147
vt 0.5908179 0.0244717
vt 0.6469468 0.6545086
vt 0.654509 0.50000006
vt 0.6469468 0.34549153
vt 0.6250004 0.20610747
vt 0.5908181 0.0954915
vt 0.5477459 0.0244717
vt 0.5000001 0.0244717
vt 0.50000024 0.0954915
vt 0.4091824 0.0954915
vt 0.50000036 0.20610747
vt 0.5000004 0.34549153
vt 0.26223606 0.20610747
vt 0.37500027 0.20610747
vt 0.11528972 0.34549153
vt 0.35305402 0.34549153
vt 0.22049174 0.34549153
vt 0.5000004 0.50000006
vt 0.02447182 0.5
vt 0.09549162 0.5
vt 0.047745794 0.65450853
vt 0.20610759 0.50000006
vt 0.34549186 0.50000006
vt 0.5000004 0.6545086
vt 0.1152896 0.7938927
vt 0.11528969 0.65450853
vt 0.2204917 0.65450853
vt 0.353054 0.6545086
vt 0.22049153 0.9045085
vt 0.17274582 0.7938927
vt 0.26223606 0.79389274
vt 0.37500027 0.79389274
vt 0.3530537 0.97552824
vt 0.26223594 0.90450853
vt 0.32725438 0.90450853
vt 0.37500003 0.97552824
vt 0.50000036 0.79389274
vt 0.40918225 0.9755283
vt 0.4091824 0.9045086
vt 0.6250004 0.79389274
vt 0.45225435 0.9755283
vt 0.50000024 0.9045086
vt 0.5908181 0.9045086
vt 0.5000001 0.9755283
vt 0.5477459 0.9755283
vn 0.3513923 0.483652 -0.8016259
vn 0.18473749 0.5685665 -0.80162597
vn 0.09981953 0.30721453 -0.9463906
vn 0.478618 0.65876395 -0.5804781
vn 0.18986844 0.2613326 -0.9463906
vn 0.6587621 0.47862056 -0.58047813
vn 0.4836506 0.35139427 -0.80162597
vn -0 0 -1
vn 0.2613318 0.18986951 -0.9463906
vn -2.1868209E-07 0.3230243 -0.9463906
vn 0.30721423 0.09982056 -0.9463906
vn -0.09982002 0.3072144 -0.9463906
vn 0.5685659 0.18473934 -0.80162597
vn -3.5298652E-07 0.59782594 -0.8016259
vn 0.25162387 0.7744227 -0.5804782
vn 0.7744219 0.2516264 -0.58047813
vn 0.597826 9.321129E-07 -0.80162585
vn 0.32302433 5.4216224E-07 -0.9463906
vn 0.81427586 1.2389851E-06 -0.58047813
vn -0.18473837 0.5685662 -0.8016259
vn -4.707342E-07 0.81427586 -0.58047813
vn -0.18986893 0.26133227 -0.9463906
vn 0.9058832 0.294341 -0.30453083
vn 0.95250255 1.4401201E-06 -0.3045308
vn 0.7705896 0.5598684 -0.3045308
vn 0.5598654 0.77059174 -0.30453077
vn 0.29433802 0.9058842 -0.30453077
vn -0.25162518 0.77442235 -0.5804781
vn -0.35139322 0.48365134 -0.8016259
vn -5.8649465E-07 0.95250255 -0.30453074
vn -0.26133215 0.18986899 -0.9463906
vn 0.951056 0.3090186 -1.0499596E-07
vn 0.80901587 0.5877868 0
vn 0.5877837 0.80901814 0
vn 0.3090155 0.951057 0
vn 1 1.5084519E-06 -1.13565854E-07
vn -0.48365122 0.35139325 -0.80162597
vn -0.3072144 0.09981998 -0.9463906
vn -0.47861937 0.65876293 -0.58047813
vn -0.2943396 0.90588367 -0.30453074
vn -6.270813E-07 1 0
vn -0.32302433 0 -0.9463906
vn -0.56856626 0.18473825 -0.80162597
vn -0.65876293 0.47861937 -0.58047813
vn -0.5598669 0.7705907 -0.30453077
vn -0.30721435 -0.09982009 -0.9463906
vn -0.2613321 -0.18986902 -0.9463906
vn -0.18986875 -0.26133227 -0.9463906
vn -0.59782594 -1.9257526E-07 -0.8016259
vn -0.7744224 0.25162488 -0.5804781
vn -0.56856626 -0.1847386 -0.8016259
vn -0.3090171 0.95105654 0
vn -0.7705907 0.5598669 -0.30453077
vn -0.8142758 -2.7619055E-07 -0.58047813
vn -0.4836512 -0.35139346 -0.8016259
vn -0.5877853 0.809017 -1.1029741E-07
vn -0.9058838 0.29433924 -0.3045308
vn -0.7744222 -0.25162542 -0.5804781
vn -0.809017 0.58778524 -1.0762361E-07
vn -0.95250255 -3.4647104E-07 -0.3045308
vn -0.95105654 0.30901676 0
vn -0.35139292 -0.48365155 -0.80162597
vn -0.6587628 -0.47861964 -0.58047813
vn -0.9058836 -0.2943399 -0.30453083
vn -1 -3.9007426E-07 -1.0369065E-07
vn -0.09981973 -0.3072145 -0.9463906
vn -0.5598669 0.7705908 0.30453065
vn -0.7705908 0.5598669 0.30453068
vn -0.9058838 0.29433924 0.3045306
vn -0.29433957 0.9058838 0.30453065
vn -5.8649476E-07 0.95250255 0.30453062
vn 0.29433808 0.9058842 0.30453062
vn 0.5598655 0.77059186 0.30453065
vn 0.7705897 0.5598684 0.30453068
vn 0.9058833 0.29434103 0.30453056
vn 0.95250255 1.4184259E-06 0.30453056
vn -0.2516251 0.7744223 0.5804782
vn -4.7563768E-07 0.8142758 0.58047825
vn 0.25162384 0.77442265 0.58047825
vn 0.478618 0.658764 0.58047813
vn 0.65876204 0.47862056 0.5804782
vn 0.77442193 0.2516263 0.58047813
vn 0.81427586 1.1980451E-06 0.58047813
vn -0.47861934 0.65876305 0.5804782
vn -0.65876305 0.4786193 0.5804782
vn 0.35139233 0.483652 0.80162597
vn 0.4836507 0.35139412 0.8016259
vn 0.56856596 0.1847393 0.80162597
vn 0.59782594 8.77856E-07 0.8016259
vn 0.1847375 0.5685665 0.80162597
vn -3.5785527E-07 0.5978259 0.80162597
vn -0.18473843 0.5685662 0.80162597
vn -0.35139328 0.48365134 0.8016259
vn 0.30721438 0.09982054 0.9463906
vn 0.26133192 0.18986948 0.9463906
vn 0.18986851 0.26133263 0.9463906
vn 0.09981956 0.30721462 0.9463906
vn -0 0 1
vn 0.32302454 4.3707465E-07 0.9463906
vn -1.8847742E-07 0.32302442 0.9463906
vn -0.09982008 0.30721453 0.9463906
vn 0.3072147 -0.09981965 0.9463906
vn -0.18986903 0.2613323 0.9463906
vn 0.56856656 -0.1847376 0.80162585
vn -0.48365134 0.35139322 0.8016259
vn -0.26133233 0.18986897 0.9463906
vn 0.26133257 -0.18986869 0.9463906
vn 0.7744227 -0.251624 0.58047813
vn -0.7744224 0.25162485 0.58047813
vn -0.30721456 0.09981993 0.9463906
vn 0.18986937 -0.26133212 0.9463906
vn -0.32302448 -1.5252141E-07 0.9463906
vn 0.4836519 -0.35139263 0.8016259
vn -0.5685663 0.18473822 0.8016259
vn 0.9058842 -0.2943382 0.3045306
vn -0.95250255 -3.706297E-07 0.30453056
vn 0.6587637 -0.4786184 0.58047813
vn 0.35139385 -0.48365095 0.8016259
vn -0.59782594 -2.5656965E-07 0.8016259
vn -0.81427586 -3.2938937E-07 0.58047813
vn 0.951057 -0.3090157 -1.2954227E-07
vn 0.77059156 -0.55986583 0.30453062
vn 0.9058841 -0.29433817 -0.3045308
vn 0.4786201 -0.6587624 0.58047813
vn 0.80901784 -0.5877841 -1.4913408E-07
vn 0.7744227 -0.25162396 -0.5804781
vn 0.5598679 -0.77059007 0.3045306
vn 0.7705915 -0.5598658 -0.30453083
vn 0.5685665 -0.18473753 -0.80162597
vn 0.5877863 -0.8090163 -1.3164738E-07
vn 0.6587637 -0.4786184 -0.58047813
vn 0.30721456 -0.09981953 -0.9463906
vn 0.48365185 -0.3513926 -0.8016259
vn 0.55986786 -0.77059 -0.30453083
vn 0.26133245 -0.18986855 -0.9463906
vn 0.4786201 -0.65876234 -0.5804782
vn 0.3513939 -0.48365095 -0.8016259
vn 0.18986928 -0.26133192 -0.9463906
vn 0.29434043 -0.9058834 0.30453056
vn 0.30901805 -0.95105624 -1.0082378E-07
vn 0.29434043 -0.9058834 -0.30453086
vn 0.2516259 -0.774422 -0.5804782
vn 0.18473902 -0.568566 -0.80162597
vn 0.099820346 -0.3072143 -0.9463906
vn 3.2500273E-07 -0.3230243 -0.9463906
vn 5.6356134E-07 -0.59782594 -0.8016259
vn -0.1847379 -0.5685665 -0.8016259
vn 7.575878E-07 -0.8142758 -0.58047813
vn 8.895991E-07 -0.9525024 -0.30453083
vn -0.4786189 -0.65876323 -0.5804782
vn -0.2516244 -0.7744225 -0.58047825
vn -0.7705904 -0.55986726 -0.3045308
vn -0.29433867 -0.9058839 -0.30453086
vn -0.5598664 -0.7705911 -0.3045309
vn 9.751857E-07 -1 -1.2765142E-07
vn -0.95105636 -0.3090174 -1.2954231E-07
vn -0.80901664 -0.5877856 -1.441965E-07
vn -0.9058836 -0.29433993 0.3045306
vn -0.58778465 -0.80901736 -1.5139801E-07
vn -0.30901617 -0.9510568 -1.5513794E-07
vn 9.536702E-07 -0.95250255 0.30453065
vn -0.7744222 -0.25162545 0.58047813
vn -0.7705905 -0.5598673 0.30453056
vn -0.5598664 -0.77059114 0.30453062
vn -0.29433873 -0.90588397 0.3045306
vn -0.5685662 -0.18473867 0.8016259
vn -0.6587627 -0.47861966 0.5804781
vn -0.4786189 -0.65876335 0.5804782
vn -0.25162444 -0.7744226 0.5804781
vn -0.3072145 -0.099820256 0.9463906
vn -0.48365113 -0.35139352 0.8016259
vn -0.3513929 -0.4836516 0.8016259
vn -0.2613322 -0.18986924 0.9463906
vn 7.8700873E-07 -0.81427586 0.580478
vn -0.18986888 -0.26133248 0.9463906
vn -0.18473788 -0.5685665 0.8016259
vn 0.2516259 -0.77442205 0.5804781
vn -0.0998198 -0.30721468 0.9463906
vn 5.599096E-07 -0.59782594 0.8016259
vn 0.18473901 -0.56856614 0.80162585
vn 3.165454E-07 -0.32302454 0.94639057
vn 0.0998204 -0.30721453 0.9463906
g Sphere001_0
f 3/3/3 2/2/2 1/1/1
f 1/1/1 2/2/2 4/4/4
f 5/5/5 3/3/3 1/1/1
f 1/1/1 4/4/4 6/6/6
f 5/5/5 1/1/1 7/7/7
f 7/7/7 1/1/1 6/6/6
f 3/3/3 5/5/5 8/8/8
f 5/5/5 9/9/9 8/8/8
f 9/9/9 5/5/5 7/7/7
f 10/10/10 3/3/3 8/8/8
f 3/3/3 10/10/10 2/2/2
f 9/9/9 11/11/11 8/8/8
f 12/12/12 10/10/10 8/8/8
f 9/9/9 7/7/7 13/13/13
f 11/11/11 9/9/9 13/13/13
f 10/10/10 14/14/14 2/2/2
f 10/10/10 12/12/12 14/14/14
f 2/2/2 15/15/15 4/4/4
f 2/2/2 14/14/14 15/15/15
f 7/7/7 6/6/6 16/16/16
f 13/13/13 7/7/7 16/16/16
f 11/11/11 13/13/13 17/17/17
f 11/11/11 18/18/18 8/8/8
f 18/18/18 11/11/11 17/17/17
f 13/13/13 16/16/16 19/19/19
f 17/17/17 13/13/13 19/19/19
f 12/12/12 20/20/20 14/14/14
f 14/14/14 21/21/21 15/15/15
f 14/14/14 20/20/20 21/21/21
f 22/22/22 12/12/12 8/8/8
f 12/12/12 22/22/22 20/20/20
f 16/16/16 6/6/6 23/23/23
f 19/19/19 16/16/16 24/24/24
f 16/16/16 23/23/23 24/24/24
f 6/6/6 25/25/25 23/23/23
f 6/6/6 4/4/4 25/25/25
f 4/4/4 15/15/15 26/26/26
f 4/4/4 26/26/26 25/25/25
f 15/15/15 21/21/21 27/27/27
f 15/15/15 27/27/27 26/26/26
f 20/20/20 28/28/28 21/21/21
f 22/22/22 29/29/29 20/20/20
f 20/20/20 29/29/29 28/28/28
f 21/21/21 30/30/30 27/27/27
f 21/21/21 28/28/28 30/30/30
f 22/22/22 31/31/31 29/29/29
f 31/31/31 22/22/22 8/8/8
f 23/23/23 25/25/25 32/32/32
f 25/25/25 26/26/26 33/33/33
f 25/25/25 33/33/33 32/32/32
f 26/26/26 27/27/27 34/34/34
f 26/26/26 34/34/34 33/33/33
f 27/27/27 30/30/30 35/35/35
f 27/27/27 35/35/35 34/34/34
f 23/23/23 32/32/32 36/36/36
f 24/24/24 23/23/23 36/36/36
f 31/31/31 37/37/37 29/29/29
f 38/38/38 31/31/31 8/8/8
f 31/31/31 38/38/38 37/37/37
f 29/29/29 37/37/37 39/39/39
f 29/29/29 39/39/39 28/28/28
f 28/28/28 40/40/40 30/30/30
f 28/28/28 39/39/39 40/40/40
f 30/30/30 41/41/41 35/35/35
f 30/30/30 40/40/40 41/41/41
f 42/42/42 38/38/38 8/8/8
f 38/38/38 43/43/43 37/37/37
f 38/38/38 42/42/42 43/43/43
f 37/37/37 44/44/44 39/39/39
f 37/37/37 43/43/43 44/44/44
f 39/39/39 45/45/45 40/40/40
f 39/39/39 44/44/44 45/45/45
f 46/46/46 42/42/42 8/8/8
f 47/47/47 46/46/46 8/8/8
f 48/48/48 47/47/47 8/8/8
f 42/42/42 49/49/49 43/43/43
f 42/42/42 46/46/46 49/49/49
f 43/43/43 50/50/50 44/44/44
f 43/43/43 49/49/49 50/50/50
f 46/46/46 47/47/47 51/51/51
f 46/46/46 51/51/51 49/49/49
f 40/40/40 45/45/45 52/52/52
f 40/40/40 52/52/52 41/41/41
f 44/44/44 53/53/53 45/45/45
f 44/44/44 50/50/50 53/53/53
f 49/49/49 54/54/54 50/50/50
f 49/49/49 51/51/51 54/54/54
f 47/47/47 55/55/55 51/51/51
f 47/47/47 48/48/48 55/55/55
f 45/45/45 56/56/56 52/52/52
f 45/45/45 53/53/53 56/56/56
f 50/50/50 57/57/57 53/53/53
f 50/50/50 54/54/54 57/57/57
f 51/51/51 58/58/58 54/54/54
f 51/51/51 55/55/55 58/58/58
f 53/53/53 59/59/59 56/56/56
f 53/53/53 57/57/57 59/59/59
f 54/54/54 60/60/60 57/57/57
f 54/54/54 58/58/58 60/60/60
f 57/57/57 61/61/61 59/59/59
f 57/57/57 60/60/60 61/61/61
f 48/48/48 62/62/62 55/55/55
f 55/55/55 63/63/63 58/58/58
f 55/55/55 62/62/62 63/63/63
f 58/58/58 64/64/64 60/60/60
f 58/58/58 63/63/63 64/64/64
f 60/60/60 65/65/65 61/61/61
f 60/60/60 64/64/64 65/65/65
f 48/48/48 66/66/66 62/62/62
f 66/66/66 48/48/48 8/8/8
f 56/56/56 59/59/59 67/67/67
f 59/59/59 61/61/61 68/68/68
f 59/59/59 68/68/68 67/67/67
f 61/61/61 65/65/65 69/69/69
f 61/61/61 69/69/69 68/68/68
f 56/56/56 67/67/67 70/70/70
f 52/52/52 56/56/56 70/70/70
f 52/52/52 70/70/70 71/71/71
f 41/41/41 52/52/52 71/71/71
f 41/41/41 71/71/71 72/72/72
f 35/35/35 41/41/41 72/72/72
f 35/35/35 72/72/72 73/73/73
f 34/34/34 35/35/35 73/73/73
f 34/34/34 73/73/73 74/74/74
f 33/33/33 34/34/34 74/74/74
f 33/33/33 74/74/74 75/75/75
f 32/32/32 33/33/33 75/75/75
f 32/32/32 75/75/75 76/76/76
f 36/36/36 32/32/32 76/76/76
f 70/70/70 67/67/67 77/77/77
f 71/71/71 70/70/70 78/78/78
f 70/70/70 77/77/77 78/78/78
f 72/72/72 71/71/71 79/79/79
f 71/71/71 78/78/78 79/79/79
f 73/73/73 72/72/72 80/80/80
f 72/72/72 79/79/79 80/80/80
f 74/74/74 73/73/73 81/81/81
f 73/73/73 80/80/80 81/81/81
f 75/75/75 74/74/74 82/82/82
f 74/74/74 81/81/81 82/82/82
f 76/76/76 75/75/75 83/83/83
f 75/75/75 82/82/82 83/83/83
f 67/67/67 84/84/84 77/77/77
f 67/67/67 68/68/68 84/84/84
f 68/68/68 85/85/85 84/84/84
f 68/68/68 69/69/69 85/85/85
f 80/80/80 79/79/79 86/86/86
f 81/81/81 80/80/80 87/87/87
f 80/80/80 86/86/86 87/87/87
f 82/82/82 81/81/81 88/88/88
f 81/81/81 87/87/87 88/88/88
f 83/83/83 82/82/82 89/89/89
f 82/82/82 88/88/88 89/89/89
f 79/79/79 90/90/90 86/86/86
f 79/79/79 78/78/78 90/90/90
f 78/78/78 91/91/91 90/90/90
f 78/78/78 77/77/77 91/91/91
f 77/77/77 92/92/92 91/91/91
f 77/77/77 84/84/84 92/92/92
f 84/84/84 93/93/93 92/92/92
f 84/84/84 85/85/85 93/93/93
f 88/88/88 87/87/87 94/94/94
f 87/87/87 86/86/86 95/95/95
f 87/87/87 95/95/95 94/94/94
f 86/86/86 90/90/90 96/96/96
f 86/86/86 96/96/96 95/95/95
f 90/90/90 91/91/91 97/97/97
f 90/90/90 97/97/97 96/96/96
f 95/95/95 96/96/96 98/98/98
f 94/94/94 95/95/95 98/98/98
f 96/96/96 97/97/97 98/98/98
f 99/99/99 94/94/94 98/98/98
f 88/88/88 94/94/94 99/99/99
f 97/97/97 100/100/100 98/98/98
f 91/91/91 100/100/100 97/97/97
f 91/91/91 92/92/92 100/100/100
f 89/89/89 88/88/88 99/99/99
f 92/92/92 101/101/101 100/100/100
f 100/100/100 101/101/101 98/98/98
f 92/92/92 93/93/93 101/101/101
f 89/89/89 99/99/99 102/102/102
f 102/102/102 99/99/99 98/98/98
f 93/93/93 103/103/103 101/101/101
f 101/101/101 103/103/103 98/98/98
f 104/104/104 89/89/89 102/102/102
f 83/83/83 89/89/89 104/104/104
f 93/93/93 105/105/105 103/103/103
f 85/85/85 105/105/105 93/93/93
f 103/103/103 106/106/106 98/98/98
f 105/105/105 106/106/106 103/103/103
f 107/107/107 102/102/102 98/98/98
f 104/104/104 102/102/102 107/107/107
f 108/108/108 83/83/83 104/104/104
f 76/76/76 83/83/83 108/108/108
f 85/85/85 109/109/109 105/105/105
f 69/69/69 109/109/109 85/85/85
f 106/106/106 110/110/110 98/98/98
f 111/111/111 107/107/107 98/98/98
f 110/110/110 112/112/112 98/98/98
f 113/113/113 104/104/104 107/107/107
f 108/108/108 104/104/104 113/113/113
f 113/113/113 107/107/107 111/111/111
f 105/105/105 114/114/114 106/106/106
f 114/114/114 110/110/110 106/106/106
f 109/109/109 114/114/114 105/105/105
f 115/115/115 76/76/76 108/108/108
f 36/36/36 76/76/76 115/115/115
f 69/69/69 116/116/116 109/109/109
f 65/65/65 116/116/116 69/69/69
f 117/117/117 108/108/108 113/113/113
f 115/115/115 108/108/108 117/117/117
f 118/118/118 113/113/113 111/111/111
f 117/117/117 113/113/113 118/118/118
f 114/114/114 119/119/119 110/110/110
f 119/119/119 112/112/112 110/110/110
f 109/109/109 120/120/120 114/114/114
f 116/116/116 120/120/120 109/109/109
f 120/120/120 119/119/119 114/114/114
f 121/121/121 36/36/36 115/115/115
f 24/24/24 36/36/36 121/121/121
f 122/122/122 115/115/115 117/117/117
f 121/121/121 115/115/115 122/122/122
f 123/123/123 24/24/24 121/121/121
f 19/19/19 24/24/24 123/123/123
f 122/122/122 117/117/117 124/124/124
f 124/124/124 117/117/117 118/118/118
f 125/125/125 121/121/121 122/122/122
f 123/123/123 121/121/121 125/125/125
f 126/126/126 19/19/19 123/123/123
f 17/17/17 19/19/19 126/126/126
f 127/127/127 122/122/122 124/124/124
f 125/125/125 122/122/122 127/127/127
f 128/128/128 123/123/123 125/125/125
f 126/126/126 123/123/123 128/128/128
f 129/129/129 17/17/17 126/126/126
f 18/18/18 17/17/17 129/129/129
f 130/130/130 125/125/125 127/127/127
f 128/128/128 125/125/125 130/130/130
f 131/131/131 126/126/126 128/128/128
f 129/129/129 126/126/126 131/131/131
f 132/132/132 18/18/18 129/129/129
f 18/18/18 132/132/132 8/8/8
f 132/132/132 129/129/129 133/133/133
f 133/133/133 129/129/129 131/131/131
f 131/131/131 128/128/128 134/134/134
f 134/134/134 128/128/128 130/130/130
f 132/132/132 135/135/135 8/8/8
f 135/135/135 132/132/132 133/133/133
f 133/133/133 131/131/131 136/136/136
f 136/136/136 131/131/131 134/134/134
f 135/135/135 133/133/133 137/137/137
f 137/137/137 133/133/133 136/136/136
f 135/135/135 138/138/138 8/8/8
f 138/138/138 135/135/135 137/137/137
f 130/130/130 127/127/127 139/139/139
f 134/134/134 130/130/130 140/140/140
f 140/140/140 130/130/130 139/139/139
f 136/136/136 134/134/134 141/141/141
f 141/141/141 134/134/134 140/140/140
f 137/137/137 136/136/136 142/142/142
f 142/142/142 136/136/136 141/141/141
f 138/138/138 137/137/137 143/143/143
f 143/143/143 137/137/137 142/142/142
f 138/138/138 144/144/144 8/8/8
f 144/144/144 138/138/138 143/143/143
f 144/144/144 145/145/145 8/8/8
f 145/145/145 66/66/66 8/8/8
f 144/144/144 143/143/143 146/146/146
f 145/145/145 144/144/144 146/146/146
f 66/66/66 145/145/145 147/147/147
f 145/145/145 146/146/146 147/147/147
f 66/66/66 147/147/147 62/62/62
f 143/143/143 142/142/142 148/148/148
f 146/146/146 143/143/143 148/148/148
f 142/142/142 141/141/141 149/149/149
f 148/148/148 142/142/142 149/149/149
f 62/62/62 147/147/147 150/150/150
f 62/62/62 150/150/150 63/63/63
f 147/147/147 146/146/146 151/151/151
f 146/146/146 148/148/148 151/151/151
f 147/147/147 151/151/151 150/150/150
f 63/63/63 150/150/150 152/152/152
f 63/63/63 152/152/152 64/64/64
f 151/151/151 148/148/148 153/153/153
f 148/148/148 149/149/149 153/153/153
f 150/150/150 151/151/151 154/154/154
f 150/150/150 154/154/154 152/152/152
f 151/151/151 153/153/153 154/154/154
f 149/149/149 141/141/141 155/155/155
f 141/141/141 140/140/140 155/155/155
f 64/64/64 152/152/152 156/156/156
f 64/64/64 156/156/156 65/65/65
f 65/65/65 156/156/156 116/116/116
f 152/152/152 154/154/154 157/157/157
f 152/152/152 157/157/157 156/156/156
f 156/156/156 158/158/158 116/116/116
f 156/156/156 157/157/157 158/158/158
f 116/116/116 158/158/158 120/120/120
f 154/154/154 153/153/153 159/159/159
f 154/154/154 159/159/159 157/157/157
f 153/153/153 149/149/149 160/160/160
f 149/149/149 155/155/155 160/160/160
f 153/153/153 160/160/160 159/159/159
f 155/155/155 140/140/140 161/161/161
f 140/140/140 139/139/139 161/161/161
f 158/158/158 162/162/162 120/120/120
f 120/120/120 162/162/162 119/119/119
f 157/157/157 163/163/163 158/158/158
f 157/157/157 159/159/159 163/163/163
f 158/158/158 163/163/163 162/162/162
f 159/159/159 160/160/160 164/164/164
f 159/159/159 164/164/164 163/163/163
f 160/160/160 155/155/155 165/165/165
f 155/155/155 161/161/161 165/165/165
f 160/160/160 165/165/165 164/164/164
f 162/162/162 166/166/166 119/119/119
f 119/119/119 166/166/166 112/112/112
f 163/163/163 167/167/167 162/162/162
f 163/163/163 164/164/164 167/167/167
f 162/162/162 167/167/167 166/166/166
f 164/164/164 165/165/165 168/168/168
f 164/164/164 168/168/168 167/167/167
f 165/165/165 161/161/161 169/169/169
f 165/165/165 169/169/169 168/168/168
f 166/166/166 170/170/170 112/112/112
f 112/112/112 170/170/170 98/98/98
f 167/167/167 171/171/171 166/166/166
f 167/167/167 168/168/168 171/171/171
f 166/166/166 171/171/171 170/170/170
f 168/168/168 172/172/172 171/171/171
f 168/168/168 169/169/169 172/172/172
f 171/171/171 173/173/173 170/170/170
f 170/170/170 173/173/173 98/98/98
f 171/171/171 172/172/172 173/173/173
f 161/161/161 174/174/174 169/169/169
f 161/161/161 139/139/139 174/174/174
f 172/172/172 175/175/175 173/173/173
f 173/173/173 175/175/175 98/98/98
f 169/169/169 176/176/176 172/172/172
f 172/172/172 176/176/176 175/175/175
f 169/169/169 174/174/174 176/176/176
f 139/139/139 177/177/177 174/174/174
f 139/139/139 127/127/127 177/177/177
f 127/127/127 124/124/124 177/177/177
f 176/176/176 178/178/178 175/175/175
f 175/175/175 178/178/178 98/98/98
f 174/174/174 179/179/179 176/176/176
f 174/174/174 177/177/177 179/179/179
f 176/176/176 179/179/179 178/178/178
f 177/177/177 124/124/124 180/180/180
f 177/177/177 180/180/180 179/179/179
f 124/124/124 118/118/118 180/180/180
f 179/179/179 181/181/181 178/178/178
f 178/178/178 181/181/181 98/98/98
f 179/179/179 180/180/180 181/181/181
f 180/180/180 118/118/118 182/182/182
f 180/180/180 182/182/182 181/181/181
f 181/181/181 182/182/182 98/98/98
f 118/118/118 111/111/111 182/182/182
f 182/182/182 111/111/111 98/98/98
