# Vectary OBJ Export units=mm
mtllib Project Name.mtl
o 000_Buffer_Layer_1
g Buffer_Layer_1
usemtl lambert5SG_5f0a707f-573c-49a7-9465-7c33dc6eff0f
v -5.233 17.152 1.715
v -5.332 17.461 1.744
v -5.870 17.461 1.904
v -5.820 17.152 1.889
v -5.169 23.578 1.656
v -5.423 24.567 1.731
v -5.713 25.258 1.817
v -5.735 23.971 1.864
v -5.296 17.677 1.734
v -5.852 17.677 1.898
v -5.116 17.872 1.640
v -5.756 17.872 1.870
v -6.165 24.270 1.991
v -6.001 25.673 1.903
v -6.318 26.036 1.996
v -6.599 24.542 2.120
v -6.322 17.677 2.038
v -6.274 17.872 2.024
v -6.793 17.872 2.177
v -6.793 17.677 2.177
v -6.331 17.461 2.040
v -6.793 17.461 2.177
v -6.306 17.152 2.033
v -6.793 17.152 2.177
v -6.219 22.817 2.007
v -6.735 23.034 2.160
v -5.036 22.336 1.617
v -5.703 22.603 1.854
v -6.235 21.511 2.012
v -6.793 21.649 2.177
v -4.962 21.192 1.595
v -5.677 21.372 1.847
v -6.242 19.021 2.014
v -6.245 20.265 2.015
v -6.801 20.340 2.180
v -6.795 19.031 2.178
v -4.979 18.955 1.600
v -4.975 20.070 1.599
v -5.690 20.186 1.851
v -5.689 19.004 1.850
v -5.261 17.152 1.620
v -5.848 17.152 1.794
v -5.898 17.461 1.809
v -5.360 17.461 1.650
v -5.175 23.578 1.635
v -5.763 23.971 1.769
v -5.719 25.258 1.796
v -5.429 24.567 1.710
v -5.880 17.677 1.804
v -5.324 17.677 1.639
v -5.784 17.872 1.775
v -5.122 17.872 1.619
v -6.193 24.270 1.896
v -6.627 24.542 2.025
v -6.324 26.036 1.975
v -6.007 25.673 1.882
v -6.350 17.677 1.943
v -6.821 17.677 2.083
v -6.821 17.872 2.083
v -6.303 17.872 1.929
v -6.359 17.461 1.946
v -6.821 17.461 2.083
v -6.335 17.152 1.938
v -6.821 17.152 2.083
v -6.247 22.817 1.913
v -6.763 23.034 2.065
v -5.042 22.336 1.596
v -5.731 22.603 1.760
v -6.263 21.511 1.917
v -6.821 21.649 2.083
v -4.968 21.192 1.574
v -5.705 21.372 1.752
v -6.270 19.021 1.919
v -6.823 19.031 2.083
v -6.829 20.340 2.085
v -6.273 20.265 1.920
v -4.985 18.955 1.579
v -5.717 19.004 1.755
v -5.718 20.186 1.756
v -4.982 20.070 1.578
v -5.164 16.029 2.147
v -4.984 16.021 2.093
v -4.812 16.551 2.043
v -5.164 16.522 2.147
v -4.311 16.956 1.894
v -4.311 17.202 1.894
v -5.164 17.202 2.147
v -5.164 16.956 2.147
v -6.723 16.029 2.609
v -6.377 16.029 2.506
v -6.377 16.522 2.506
v -6.723 16.522 2.609
v -6.377 16.956 2.506
v -6.769 16.956 2.622
v -6.377 17.202 2.506
v -6.837 17.202 2.643
v -5.164 8.177 2.147
v -4.972 8.452 2.090
v -4.944 8.916 2.082
v -5.164 8.916 2.147
v -6.377 8.099 2.506
v -6.377 8.916 2.506
v -6.734 8.358 2.612
v -6.783 8.916 2.627
v -6.877 8.260 2.373
v -6.942 8.916 2.393
v -7.064 8.916 1.983
v -6.999 8.260 1.964
v -6.508 7.967 2.264
v -6.629 7.967 1.855
v -5.212 8.051 1.880
v -5.333 8.051 1.471
v -4.976 8.260 1.810
v -5.097 8.260 1.401
v -4.928 8.916 1.796
v -5.049 8.916 1.386
v -4.823 16.504 1.765
v -4.976 16.054 1.810
v -5.097 16.054 1.401
v -4.945 16.504 1.356
v -4.300 16.945 1.610
v -4.421 16.945 1.201
v -4.301 17.265 1.610
v -4.422 17.265 1.201
v -5.212 17.265 1.880
v -5.333 17.265 1.471
v -6.508 17.265 2.264
v -6.629 17.265 1.855
v -7.000 17.265 2.410
v -7.121 17.265 2.000
v -6.927 16.945 2.388
v -7.049 16.945 1.979
v -6.877 16.504 2.373
v -6.999 16.504 1.964
v -6.877 16.054 2.373
v -6.999 16.054 1.964
v -5.439 16.029 1.221
v -5.439 16.522 1.221
v -5.087 16.551 1.117
v -5.258 16.021 1.167
v -4.585 16.956 0.968
v -5.439 16.956 1.221
v -5.439 17.202 1.221
v -4.586 17.202 0.968
v -6.997 16.029 1.682
v -6.997 16.522 1.682
v -6.651 16.522 1.580
v -6.651 16.029 1.580
v -6.651 16.956 1.580
v -7.044 16.956 1.696
v -6.651 17.202 1.580
v -7.111 17.202 1.716
v -5.439 8.177 1.221
v -5.439 8.916 1.221
v -5.219 8.916 1.156
v -5.247 8.452 1.164
v -6.651 8.099 1.580
v -6.651 8.916 1.580
v -7.008 8.358 1.686
v -7.058 8.916 1.701
vn 0.28406 -0.00000 0.95881
vn 0.28406 -0.00000 0.95881
vn 0.28406 -0.00000 0.95881
vn 0.28406 -0.00000 0.95881
vn 0.35166 0.02409 0.93582
vn 0.35166 0.02409 0.93582
vn 0.35166 0.02409 0.93582
vn 0.35166 0.02409 0.93582
vn 0.28406 -0.00000 0.95881
vn 0.28406 -0.00000 0.95881
vn 0.28406 -0.00000 0.95881
vn 0.28406 -0.00000 0.95881
vn 0.31231 0.07513 0.94700
vn 0.31231 0.07513 0.94700
vn 0.31231 0.07513 0.94700
vn 0.31231 0.07513 0.94700
vn 0.30208 0.02335 0.95300
vn 0.30208 0.02335 0.95300
vn 0.30208 0.02335 0.95300
vn 0.30208 0.02335 0.95300
vn 0.28406 -0.00000 0.95881
vn 0.28406 -0.00000 0.95881
vn 0.28406 -0.00000 0.95881
vn 0.28406 -0.00000 0.95881
vn 0.28406 -0.00000 0.95881
vn 0.28406 -0.00000 0.95881
vn 0.28406 -0.00000 0.95881
vn 0.28406 -0.00000 0.95881
vn 0.28406 -0.00000 0.95881
vn 0.28406 -0.00000 0.95881
vn 0.28406 -0.00000 0.95881
vn 0.28406 -0.00000 0.95881
vn 0.28406 -0.00000 0.95881
vn 0.28406 -0.00000 0.95881
vn 0.28406 -0.00000 0.95881
vn 0.28406 -0.00000 0.95881
vn 0.34174 0.00399 0.93979
vn 0.34174 0.00399 0.93979
vn 0.34174 0.00399 0.93979
vn 0.34174 0.00399 0.93979
vn 0.28406 -0.00000 0.95881
vn 0.28406 -0.00000 0.95881
vn 0.28406 -0.00000 0.95881
vn 0.28406 -0.00000 0.95881
vn 0.33463 0.00232 0.94235
vn 0.33463 0.00232 0.94235
vn 0.33463 0.00232 0.94235
vn 0.33463 0.00232 0.94235
vn 0.28406 -0.00000 0.95881
vn 0.28406 -0.00000 0.95881
vn 0.28406 -0.00000 0.95881
vn 0.28406 -0.00000 0.95881
vn 0.33251 -0.00005 0.94310
vn 0.33251 -0.00005 0.94310
vn 0.33251 -0.00005 0.94310
vn 0.33251 -0.00005 0.94310
vn 0.28406 -0.00000 0.95881
vn 0.28406 -0.00000 0.95881
vn 0.28406 -0.00000 0.95881
vn 0.28406 -0.00000 0.95881
vn 0.33494 -0.00514 0.94223
vn 0.33494 -0.00514 0.94223
vn 0.33494 -0.00514 0.94223
vn 0.33494 -0.00514 0.94223
vn 0.28406 -0.00000 0.95881
vn 0.28406 -0.00000 0.95881
vn 0.28406 -0.00000 0.95881
vn 0.28406 -0.00000 0.95881
vn 0.33221 -0.00059 0.94320
vn 0.33221 -0.00059 0.94320
vn 0.33221 -0.00059 0.94320
vn 0.33221 -0.00059 0.94320
vn 0.28406 -0.00000 0.95881
vn 0.28406 -0.00000 0.95881
vn 0.28406 -0.00000 0.95881
vn 0.28406 -0.00000 0.95881
vn 0.28406 -0.00000 0.95881
vn 0.28406 -0.00000 0.95881
vn 0.28406 -0.00000 0.95881
vn 0.28406 -0.00000 0.95881
vn 0.28406 -0.00000 0.95881
vn 0.28406 -0.00000 0.95881
vn 0.28406 -0.00000 0.95881
vn 0.28406 -0.00000 0.95881
vn 0.28406 -0.00000 0.95881
vn 0.28406 -0.00000 0.95881
vn 0.28406 -0.00000 0.95881
vn 0.28406 -0.00000 0.95881
vn 0.28406 -0.00000 0.95881
vn 0.28406 -0.00000 0.95881
vn 0.28406 -0.00000 0.95881
vn 0.28406 -0.00000 0.95881
vn 0.28406 -0.00000 0.95881
vn 0.28406 -0.00000 0.95881
vn 0.28406 -0.00000 0.95881
vn 0.28406 -0.00000 0.95881
vn 0.28406 -0.00000 0.95881
vn 0.28406 -0.00000 0.95881
vn 0.28406 -0.00000 0.95881
vn 0.28406 -0.00000 0.95881
vn 0.28406 -0.00000 0.95881
vn 0.28406 -0.00000 0.95881
vn 0.28406 -0.00000 0.95881
vn 0.28406 -0.00000 0.95881
vn 0.30810 0.02654 0.95098
vn 0.30810 0.02654 0.95098
vn 0.30810 0.02654 0.95098
vn 0.30810 0.02654 0.95098
vn -0.28406 0.00000 -0.95881
vn -0.28406 0.00000 -0.95881
vn -0.28406 0.00000 -0.95881
vn -0.28406 0.00000 -0.95881
vn -0.21483 0.02409 -0.97635
vn -0.21483 0.02409 -0.97635
vn -0.21483 0.02409 -0.97635
vn -0.21483 0.02409 -0.97635
vn -0.28406 0.00000 -0.95881
vn -0.28406 0.00000 -0.95881
vn -0.28406 0.00000 -0.95881
vn -0.28406 0.00000 -0.95881
vn -0.25393 0.07513 -0.96430
vn -0.25393 0.07513 -0.96430
vn -0.25393 0.07513 -0.96430
vn -0.25393 0.07513 -0.96430
vn -0.26577 0.02335 -0.96375
vn -0.26577 0.02335 -0.96375
vn -0.26577 0.02335 -0.96375
vn -0.26577 0.02335 -0.96375
vn -0.28406 0.00000 -0.95881
vn -0.28406 0.00000 -0.95881
vn -0.28406 0.00000 -0.95881
vn -0.28406 0.00000 -0.95881
vn -0.28406 0.00000 -0.95881
vn -0.28406 0.00000 -0.95881
vn -0.28406 0.00000 -0.95881
vn -0.28406 0.00000 -0.95881
vn -0.28406 0.00000 -0.95881
vn -0.28406 0.00000 -0.95881
vn -0.28406 0.00000 -0.95881
vn -0.28406 0.00000 -0.95881
vn -0.28406 0.00000 -0.95881
vn -0.28406 0.00000 -0.95881
vn -0.28406 0.00000 -0.95881
vn -0.28406 0.00000 -0.95881
vn -0.22532 0.00399 -0.97428
vn -0.22532 0.00399 -0.97428
vn -0.22532 0.00399 -0.97428
vn -0.22532 0.00399 -0.97428
vn -0.28406 0.00000 -0.95881
vn -0.28406 0.00000 -0.95881
vn -0.28406 0.00000 -0.95881
vn -0.28406 0.00000 -0.95881
vn -0.23267 0.00232 -0.97255
vn -0.23267 0.00232 -0.97255
vn -0.23267 0.00232 -0.97255
vn -0.23267 0.00232 -0.97255
vn -0.28406 0.00000 -0.95881
vn -0.28406 0.00000 -0.95881
vn -0.28406 0.00000 -0.95881
vn -0.28406 0.00000 -0.95881
vn -0.23487 -0.00005 -0.97203
vn -0.23487 -0.00005 -0.97203
vn -0.23487 -0.00005 -0.97203
vn -0.23487 -0.00005 -0.97203
vn -0.28406 0.00000 -0.95881
vn -0.28406 0.00000 -0.95881
vn -0.28406 0.00000 -0.95881
vn -0.28406 0.00000 -0.95881
vn -0.23235 -0.00514 -0.97262
vn -0.23235 -0.00514 -0.97262
vn -0.23235 -0.00514 -0.97262
vn -0.23235 -0.00514 -0.97262
vn -0.28406 0.00000 -0.95881
vn -0.28406 0.00000 -0.95881
vn -0.28406 0.00000 -0.95881
vn -0.28406 0.00000 -0.95881
vn -0.23517 -0.00059 -0.97195
vn -0.23517 -0.00059 -0.97195
vn -0.23517 -0.00059 -0.97195
vn -0.23517 -0.00059 -0.97195
vn -0.28406 0.00000 -0.95881
vn -0.28406 0.00000 -0.95881
vn -0.28406 0.00000 -0.95881
vn -0.28406 0.00000 -0.95881
vn -0.28406 0.00000 -0.95881
vn -0.28406 0.00000 -0.95881
vn -0.28406 0.00000 -0.95881
vn -0.28406 0.00000 -0.95881
vn -0.28406 0.00000 -0.95881
vn -0.28406 0.00000 -0.95881
vn -0.28406 0.00000 -0.95881
vn -0.28406 0.00000 -0.95881
vn -0.28406 0.00000 -0.95881
vn -0.28406 0.00000 -0.95881
vn -0.28406 0.00000 -0.95881
vn -0.28406 0.00000 -0.95881
vn -0.28406 0.00000 -0.95881
vn -0.28406 0.00000 -0.95881
vn -0.28406 0.00000 -0.95881
vn -0.28406 0.00000 -0.95881
vn -0.28406 0.00000 -0.95881
vn -0.28406 0.00000 -0.95881
vn -0.28406 0.00000 -0.95881
vn -0.28406 0.00000 -0.95881
vn -0.28406 0.00000 -0.95881
vn -0.28406 0.00000 -0.95881
vn -0.28406 0.00000 -0.95881
vn -0.28406 0.00000 -0.95881
vn -0.28406 0.00000 -0.95881
vn -0.28406 0.00000 -0.95881
vn -0.28406 0.00000 -0.95881
vn -0.28406 0.00000 -0.95881
vn -0.25963 0.02654 -0.96534
vn -0.25963 0.02654 -0.96534
vn -0.25963 0.02654 -0.96534
vn -0.25963 0.02654 -0.96534
vn 0.90928 0.31724 -0.26938
vn 0.90928 0.31724 -0.26938
vn 0.90928 0.31724 -0.26938
vn 0.90928 0.31724 -0.26938
vn -0.00000 -1.00000 -0.00000
vn -0.00000 -1.00000 -0.00000
vn -0.00000 -1.00000 -0.00000
vn -0.00000 -1.00000 -0.00000
vn 0.92610 0.25896 -0.27437
vn 0.92610 0.25896 -0.27437
vn 0.92610 0.25896 -0.27437
vn 0.92610 0.25896 -0.27437
vn 0.87855 0.40050 -0.26028
vn 0.87855 0.40050 -0.26028
vn 0.87855 0.40050 -0.26028
vn 0.87855 0.40050 -0.26028
vn 0.94483 -0.17015 -0.27991
vn 0.94483 -0.17015 -0.27991
vn 0.94483 -0.17015 -0.27991
vn 0.94483 -0.17015 -0.27991
vn 0.66859 -0.71677 -0.19807
vn 0.66859 -0.71677 -0.19807
vn 0.66859 -0.71677 -0.19807
vn 0.66859 -0.71677 -0.19807
vn 0.70920 0.67297 -0.21011
vn 0.70920 0.67297 -0.21011
vn 0.70920 0.67297 -0.21011
vn 0.70920 0.67297 -0.21011
vn -0.93941 0.20011 0.27831
vn -0.93941 0.20011 0.27831
vn -0.93941 0.20011 0.27831
vn -0.93941 0.20011 0.27831
vn -0.95881 0.00000 0.28406
vn -0.95881 0.00000 0.28406
vn -0.95881 0.00000 0.28406
vn -0.95881 0.00000 0.28406
vn -0.95881 0.00000 0.28406
vn -0.95881 0.00000 0.28406
vn -0.95881 0.00000 0.28406
vn -0.95881 0.00000 0.28406
vn -0.95881 0.00000 0.28406
vn -0.95881 0.00000 0.28406
vn -0.95881 0.00000 0.28406
vn -0.95881 0.00000 0.28406
vn -0.00000 -1.00000 -0.00000
vn -0.00000 -1.00000 -0.00000
vn -0.00000 -1.00000 -0.00000
vn -0.00000 -1.00000 -0.00000
vn -0.95463 0.09330 0.28282
vn -0.95463 0.09330 0.28282
vn -0.95463 0.09330 0.28282
vn -0.95463 0.09330 0.28282
vn 0.95291 0.11072 -0.28231
vn 0.95291 0.11072 -0.28231
vn 0.95291 0.11072 -0.28231
vn 0.95291 0.11072 -0.28231
vn -0.95789 0.04370 0.28378
vn -0.95789 0.04370 0.28378
vn -0.95789 0.04370 0.28378
vn -0.95789 0.04370 0.28378
vn 0.95663 0.06739 -0.28341
vn 0.95663 0.06739 -0.28341
vn 0.95663 0.06739 -0.28341
vn 0.95663 0.06739 -0.28341
vn -0.95880 -0.00454 0.28405
vn -0.95880 -0.00454 0.28405
vn -0.95880 -0.00454 0.28405
vn -0.95880 -0.00454 0.28405
vn 0.95880 -0.00350 -0.28405
vn 0.95880 -0.00350 -0.28405
vn 0.95880 -0.00350 -0.28405
vn 0.95880 -0.00350 -0.28405
vn -0.95881 -0.00202 0.28405
vn -0.95881 -0.00202 0.28405
vn -0.95881 -0.00202 0.28405
vn -0.95881 -0.00202 0.28405
vn 0.95062 -0.13041 -0.28163
vn 0.95062 -0.13041 -0.28163
vn 0.95062 -0.13041 -0.28163
vn 0.95062 -0.13041 -0.28163
vn -0.95879 0.00618 0.28405
vn -0.95879 0.00618 0.28405
vn -0.95879 0.00618 0.28405
vn -0.95879 0.00618 0.28405
vn 0.95874 -0.01228 -0.28403
vn 0.95874 -0.01228 -0.28403
vn 0.95874 -0.01228 -0.28403
vn 0.95874 -0.01228 -0.28403
vn -0.00000 -1.00000 -0.00000
vn -0.00000 -1.00000 -0.00000
vn -0.00000 -1.00000 -0.00000
vn -0.00000 -1.00000 -0.00000
vn 0.77642 0.58674 -0.23002
vn 0.77642 0.58674 -0.23002
vn 0.77642 0.58674 -0.23002
vn 0.77642 0.58674 -0.23002
vn 0.28406 -0.00000 0.95881
vn 0.28406 -0.00000 0.95881
vn 0.28406 -0.00000 0.95881
vn 0.28406 -0.00000 0.95881
vn 0.28406 -0.00000 0.95881
vn 0.28406 -0.00000 0.95881
vn 0.28406 -0.00000 0.95881
vn 0.28406 -0.00000 0.95881
vn 0.28406 -0.00000 0.95881
vn 0.28406 -0.00000 0.95881
vn 0.28406 -0.00000 0.95881
vn 0.28406 -0.00000 0.95881
vn 0.28406 -0.00000 0.95881
vn 0.28406 -0.00000 0.95881
vn 0.28406 -0.00000 0.95881
vn 0.28406 -0.00000 0.95881
vn 0.28406 -0.00000 0.95881
vn 0.28406 -0.00000 0.95881
vn 0.28406 -0.00000 0.95881
vn 0.28406 -0.00000 0.95881
vn 0.28406 -0.00000 0.95881
vn 0.28406 -0.00000 0.95881
vn 0.28406 -0.00000 0.95881
vn 0.28406 -0.00000 0.95881
vn 0.28406 -0.00000 0.95881
vn 0.28406 -0.00000 0.95881
vn 0.28406 -0.00000 0.95881
vn 0.28406 -0.00000 0.95881
vn 0.28406 -0.00000 0.95881
vn 0.28406 -0.00000 0.95881
vn 0.28406 -0.00000 0.95881
vn 0.28406 -0.00000 0.95881
vn 0.28406 -0.00000 0.95881
vn 0.28406 -0.00000 0.95881
vn 0.28406 -0.00000 0.95881
vn 0.28406 -0.00000 0.95881
vn 0.28406 -0.00000 0.95881
vn 0.28406 -0.00000 0.95881
vn 0.28406 -0.00000 0.95881
vn 0.28406 -0.00000 0.95881
vn 0.28406 -0.00000 0.95881
vn 0.28406 -0.00000 0.95881
vn 0.28406 -0.00000 0.95881
vn 0.28406 -0.00000 0.95881
vn 0.28406 -0.00000 0.95881
vn 0.28406 -0.00000 0.95881
vn 0.28406 -0.00000 0.95881
vn 0.28406 -0.00000 0.95881
vn -0.95373 -0.10277 0.28255
vn -0.95373 -0.10277 0.28255
vn -0.95373 -0.10277 0.28255
vn -0.95373 -0.10277 0.28255
vn -0.57914 -0.79697 0.17158
vn -0.57914 -0.79697 0.17158
vn -0.57914 -0.79697 0.17158
vn -0.57914 -0.79697 0.17158
vn 0.05915 -0.99810 -0.01752
vn 0.05915 -0.99810 -0.01752
vn 0.05915 -0.99810 -0.01752
vn 0.05915 -0.99810 -0.01752
vn 0.61979 -0.76299 -0.18362
vn 0.61979 -0.76299 -0.18362
vn 0.61979 -0.76299 -0.18362
vn 0.61979 -0.76299 -0.18362
vn 0.95599 -0.07667 -0.28322
vn 0.95599 -0.07667 -0.28322
vn 0.95599 -0.07667 -0.28322
vn 0.95599 -0.07667 -0.28322
vn 0.90389 -0.33359 -0.26778
vn 0.90389 -0.33359 -0.26778
vn 0.90389 -0.33359 -0.26778
vn 0.90389 -0.33359 -0.26778
vn 0.60232 -0.77805 -0.17844
vn 0.60232 -0.77805 -0.17844
vn 0.60232 -0.77805 -0.17844
vn 0.60232 -0.77805 -0.17844
vn 0.95881 0.00195 -0.28405
vn 0.95881 0.00195 -0.28405
vn 0.95881 0.00195 -0.28405
vn 0.95881 0.00195 -0.28405
vn 0.00000 1.00000 0.00000
vn 0.00000 1.00000 0.00000
vn 0.00000 1.00000 0.00000
vn 0.00000 1.00000 0.00000
vn 0.00000 1.00000 0.00000
vn 0.00000 1.00000 0.00000
vn 0.00000 1.00000 0.00000
vn 0.00000 1.00000 0.00000
vn 0.00000 1.00000 0.00000
vn 0.00000 1.00000 0.00000
vn 0.00000 1.00000 0.00000
vn 0.00000 1.00000 0.00000
vn -0.93311 -0.22999 0.27644
vn -0.93311 -0.22999 0.27644
vn -0.93311 -0.22999 0.27644
vn -0.93311 -0.22999 0.27644
vn -0.95220 -0.11718 0.28210
vn -0.95220 -0.11718 0.28210
vn -0.95220 -0.11718 0.28210
vn -0.95220 -0.11718 0.28210
vn -0.95881 0.00000 0.28406
vn -0.95881 0.00000 0.28406
vn -0.95881 0.00000 0.28406
vn -0.95881 0.00000 0.28406
vn -0.82976 -0.09343 0.55024
vn -0.82976 -0.09343 0.55024
vn -0.82976 -0.09343 0.55024
vn -0.82976 -0.09343 0.55024
vn -0.38411 -0.72851 0.56722
vn -0.38411 -0.72851 0.56722
vn -0.38411 -0.72851 0.56722
vn -0.38411 -0.72851 0.56722
vn 0.17513 -0.90187 0.39491
vn 0.17513 -0.90187 0.39491
vn 0.17513 -0.90187 0.39491
vn 0.17513 -0.90187 0.39491
vn 0.75446 -0.59548 0.27603
vn 0.75446 -0.59548 0.27603
vn 0.75446 -0.59548 0.27603
vn 0.75446 -0.59548 0.27603
vn 0.99670 -0.06700 0.04575
vn 0.99670 -0.06700 0.04575
vn 0.99670 -0.06700 0.04575
vn 0.99670 -0.06700 0.04575
vn 0.94940 -0.31405 0.00252
vn 0.94940 -0.31405 0.00252
vn 0.94940 -0.31405 0.00252
vn 0.94940 -0.31405 0.00252
vn 0.64847 -0.75711 0.07923
vn 0.64847 -0.75711 0.07923
vn 0.64847 -0.75711 0.07923
vn 0.64847 -0.75711 0.07923
vn 0.99926 0.00202 0.03829
vn 0.99926 0.00202 0.03829
vn 0.99926 0.00202 0.03829
vn 0.99926 0.00202 0.03829
vn 0.06448 0.97390 0.21763
vn 0.06448 0.97390 0.21763
vn 0.06448 0.97390 0.21763
vn 0.06448 0.97390 0.21763
vn 0.06448 0.97390 0.21763
vn 0.06448 0.97390 0.21763
vn 0.06448 0.97390 0.21763
vn 0.06448 0.97390 0.21763
vn 0.06448 0.97390 0.21763
vn 0.06448 0.97390 0.21763
vn 0.06448 0.97390 0.21763
vn 0.06448 0.97390 0.21763
vn -0.81218 -0.24068 0.53144
vn -0.81218 -0.24068 0.53144
vn -0.81218 -0.24068 0.53144
vn -0.81218 -0.24068 0.53144
vn -0.82389 -0.10906 0.55615
vn -0.82389 -0.10906 0.55615
vn -0.82389 -0.10906 0.55615
vn -0.82389 -0.10906 0.55615
vn -0.83523 0.00000 0.54990
vn -0.83523 0.00000 0.54990
vn -0.83523 0.00000 0.54990
vn -0.83523 0.00000 0.54990
vn -0.28406 0.00000 -0.95881
vn -0.28406 0.00000 -0.95881
vn -0.28406 0.00000 -0.95881
vn -0.28406 0.00000 -0.95881
vn -0.28406 -0.00000 -0.95881
vn -0.28406 -0.00000 -0.95881
vn -0.28406 -0.00000 -0.95881
vn -0.28406 -0.00000 -0.95881
vn -0.28406 0.00000 -0.95881
vn -0.28406 0.00000 -0.95881
vn -0.28406 0.00000 -0.95881
vn -0.28406 0.00000 -0.95881
vn -0.28406 0.00000 -0.95881
vn -0.28406 0.00000 -0.95881
vn -0.28406 0.00000 -0.95881
vn -0.28406 0.00000 -0.95881
vn -0.28406 0.00000 -0.95881
vn -0.28406 0.00000 -0.95881
vn -0.28406 0.00000 -0.95881
vn -0.28406 0.00000 -0.95881
vn -0.28406 0.00000 -0.95881
vn -0.28406 0.00000 -0.95881
vn -0.28406 0.00000 -0.95881
vn -0.28406 0.00000 -0.95881
vn -0.28406 0.00000 -0.95881
vn -0.28406 0.00000 -0.95881
vn -0.28406 0.00000 -0.95881
vn -0.28406 0.00000 -0.95881
vn -0.28406 0.00000 -0.95881
vn -0.28406 0.00000 -0.95881
vn -0.28406 0.00000 -0.95881
vn -0.28406 0.00000 -0.95881
vn -0.28406 0.00000 -0.95881
vn -0.28406 0.00000 -0.95881
vn -0.28406 0.00000 -0.95881
vn -0.28406 0.00000 -0.95881
vn -0.28406 0.00000 -0.95881
vn -0.28406 0.00000 -0.95881
vn -0.28406 0.00000 -0.95881
vn -0.28406 0.00000 -0.95881
vn -0.28406 0.00000 -0.95881
vn -0.28406 0.00000 -0.95881
vn -0.28406 0.00000 -0.95881
vn -0.28406 0.00000 -0.95881
vn -0.28406 0.00000 -0.95881
vn -0.28406 0.00000 -0.95881
vn -0.28406 0.00000 -0.95881
vn -0.28406 0.00000 -0.95881
vn -0.99558 -0.09343 -0.00946
vn -0.99558 -0.09343 -0.00946
vn -0.99558 -0.09343 -0.00946
vn -0.99558 -0.09343 -0.00946
vn -0.63110 -0.72851 -0.26645
vn -0.63110 -0.72851 -0.26645
vn -0.63110 -0.72851 -0.26645
vn -0.63110 -0.72851 -0.26645
vn -0.06824 -0.90187 -0.42658
vn -0.06824 -0.90187 -0.42658
vn -0.06824 -0.90187 -0.42658
vn -0.06824 -0.90187 -0.42658
vn 0.48235 -0.59548 -0.64245
vn 0.48235 -0.59548 -0.64245
vn 0.48235 -0.59548 -0.64245
vn 0.48235 -0.59548 -0.64245
vn 0.81094 -0.06700 -0.58128
vn 0.81094 -0.06700 -0.58128
vn 0.81094 -0.06700 -0.58128
vn 0.81094 -0.06700 -0.58128
vn 0.79482 -0.31405 -0.51926
vn 0.79482 -0.31405 -0.51926
vn 0.79482 -0.31405 -0.51926
vn 0.79482 -0.31405 -0.51926
vn 0.50066 -0.75711 -0.41967
vn 0.50066 -0.75711 -0.41967
vn 0.50066 -0.75711 -0.41967
vn 0.50066 -0.75711 -0.41967
vn 0.81715 0.00202 -0.57642
vn 0.81715 0.00202 -0.57642
vn 0.81715 0.00202 -0.57642
vn 0.81715 0.00202 -0.57642
vn -0.06448 0.97390 -0.21763
vn -0.06448 0.97390 -0.21763
vn -0.06448 0.97390 -0.21763
vn -0.06448 0.97390 -0.21763
vn -0.06448 0.97390 -0.21763
vn -0.06448 0.97390 -0.21763
vn -0.06448 0.97390 -0.21763
vn -0.06448 0.97390 -0.21763
vn -0.06448 0.97390 -0.21763
vn -0.06448 0.97390 -0.21763
vn -0.06448 0.97390 -0.21763
vn -0.06448 0.97390 -0.21763
vn -0.97060 -0.24068 -0.00328
vn -0.97060 -0.24068 -0.00328
vn -0.97060 -0.24068 -0.00328
vn -0.97060 -0.24068 -0.00328
vn -0.99388 -0.10906 -0.01762
vn -0.99388 -0.10906 -0.01762
vn -0.99388 -0.10906 -0.01762
vn -0.99388 -0.10906 -0.01762
vn -0.99998 0.00000 -0.00620
vn -0.99998 0.00000 -0.00620
vn -0.99998 0.00000 -0.00620
vn -0.99998 0.00000 -0.00620
f 2//2 3//3 4//4 1//1 
f 6//6 7//7 8//8 5//5 
f 9//10 10//11 3//12 2//9 
f 11//14 12//15 10//16 9//13 
f 14//18 15//19 16//20 13//17 
f 18//22 19//23 20//24 17//21 
f 17//26 20//27 22//28 21//25 
f 21//30 22//31 24//32 23//29 
f 13//34 16//35 26//36 25//33 
f 5//38 8//39 28//40 27//37 
f 25//42 26//43 30//44 29//41 
f 27//46 28//47 32//48 31//45 
f 34//50 35//51 36//52 33//49 
f 38//54 39//55 40//56 37//53 
f 33//58 36//59 19//60 18//57 
f 37//62 40//63 12//64 11//61 
f 29//66 30//67 35//68 34//65 
f 31//70 32//71 39//72 38//69 
f 3//74 21//75 23//76 4//73 
f 10//78 17//79 21//80 3//77 
f 12//82 18//83 17//84 10//81 
f 40//86 33//87 18//88 12//85 
f 39//90 34//91 33//92 40//89 
f 32//94 29//95 34//96 39//93 
f 28//98 25//99 29//100 32//97 
f 8//102 13//103 25//104 28//101 
f 7//106 14//107 13//108 8//105 
f 42//110 43//111 44//112 41//109 
f 46//114 47//115 48//116 45//113 
f 43//118 49//119 50//120 44//117 
f 49//122 51//123 52//124 50//121 
f 54//126 55//127 56//128 53//125 
f 58//130 59//131 60//132 57//129 
f 62//134 58//135 57//136 61//133 
f 64//138 62//139 61//140 63//137 
f 66//142 54//143 53//144 65//141 
f 68//146 46//147 45//148 67//145 
f 70//150 66//151 65//152 69//149 
f 72//154 68//155 67//156 71//153 
f 74//158 75//159 76//160 73//157 
f 78//162 79//163 80//164 77//161 
f 59//166 74//167 73//168 60//165 
f 51//170 78//171 77//172 52//169 
f 75//174 70//175 69//176 76//173 
f 79//178 72//179 71//180 80//177 
f 63//182 61//183 43//184 42//181 
f 61//186 57//187 49//188 43//185 
f 57//190 60//191 51//192 49//189 
f 60//194 73//195 78//196 51//193 
f 73//198 76//199 79//200 78//197 
f 76//202 69//203 72//204 79//201 
f 69//206 65//207 68//208 72//205 
f 65//210 53//211 46//212 68//209 
f 53//214 56//215 47//216 46//213 
f 44//218 2//219 1//220 41//217 
f 41//222 1//223 4//224 42//221 
f 48//226 6//227 5//228 45//225 
f 47//230 7//231 6//232 48//229 
f 50//234 9//235 2//236 44//233 
f 52//238 11//239 9//240 50//237 
f 55//242 15//243 14//244 56//241 
f 54//246 16//247 15//248 55//245 
f 58//250 20//251 19//252 59//249 
f 62//254 22//255 20//256 58//253 
f 64//258 24//259 22//260 62//257 
f 63//262 23//263 24//264 64//261 
f 66//266 26//267 16//268 54//265 
f 45//270 5//271 27//272 67//269 
f 70//274 30//275 26//276 66//273 
f 67//278 27//279 31//280 71//277 
f 74//282 36//283 35//284 75//281 
f 80//286 38//287 37//288 77//285 
f 59//290 19//291 36//292 74//289 
f 77//294 37//295 11//296 52//293 
f 75//298 35//299 30//300 70//297 
f 71//302 31//303 38//304 80//301 
f 42//306 4//307 23//308 63//305 
f 56//310 14//311 7//312 47//309 
f 82//314 83//315 84//316 81//313 
f 86//318 87//319 88//320 85//317 
f 85//322 88//323 84//324 83//321 
f 90//326 91//327 92//328 89//325 
f 94//330 92//331 91//332 93//329 
f 96//334 94//335 93//336 95//333 
f 81//338 84//339 91//340 90//337 
f 93//342 91//343 84//344 88//341 
f 95//346 93//347 88//348 87//345 
f 98//350 99//351 100//352 97//349 
f 97//354 100//355 102//356 101//353 
f 101//358 102//359 104//360 103//357 
f 106//362 107//363 108//364 105//361 
f 105//366 108//367 110//368 109//365 
f 109//370 110//371 112//372 111//369 
f 111//374 112//375 114//376 113//373 
f 113//378 114//379 116//380 115//377 
f 118//382 119//383 120//384 117//381 
f 117//386 120//387 122//388 121//385 
f 121//390 122//391 124//392 123//389 
f 123//394 124//395 126//396 125//393 
f 125//398 126//399 128//400 127//397 
f 127//402 128//403 130//404 129//401 
f 129//406 130//407 132//408 131//405 
f 131//410 132//411 134//412 133//409 
f 133//414 134//415 136//416 135//413 
f 103//418 104//419 106//420 105//417 
f 103//422 105//423 109//424 101//421 
f 101//426 109//427 111//428 97//425 
f 97//430 111//431 113//432 98//429 
f 113//434 115//435 99//436 98//433 
f 83//438 82//439 118//440 117//437 
f 85//442 83//443 117//444 121//441 
f 86//446 85//447 121//448 123//445 
f 87//450 86//451 123//452 125//449 
f 95//454 87//455 125//456 127//453 
f 96//458 95//459 127//460 129//457 
f 96//462 129//463 131//464 94//461 
f 94//466 131//467 133//468 92//465 
f 92//470 133//471 135//472 89//469 
f 138//474 139//475 140//476 137//473 
f 142//478 143//479 144//480 141//477 
f 138//482 142//483 141//484 139//481 
f 146//486 147//487 148//488 145//485 
f 147//490 146//491 150//492 149//489 
f 149//494 150//495 152//496 151//493 
f 147//498 138//499 137//500 148//497 
f 138//502 147//503 149//504 142//501 
f 142//506 149//507 151//508 143//505 
f 154//510 155//511 156//512 153//509 
f 158//514 154//515 153//516 157//513 
f 160//518 158//519 157//520 159//517 
f 107//522 160//523 159//524 108//521 
f 110//526 108//527 159//528 157//525 
f 112//530 110//531 157//532 153//529 
f 114//534 112//535 153//536 156//533 
f 155//538 116//539 114//540 156//537 
f 119//542 140//543 139//544 120//541 
f 120//546 139//547 141//548 122//545 
f 122//550 141//551 144//552 124//549 
f 124//554 144//555 143//556 126//553 
f 126//558 143//559 151//560 128//557 
f 128//562 151//563 152//564 130//561 
f 132//566 130//567 152//568 150//565 
f 134//570 132//571 150//572 146//569 
f 136//574 134//575 146//576 145//573 
o 001_Buffer_Layer
g Buffer_Layer
usemtl lambert4SG_8ed8a46b-369b-4b19-81ba-9d118f755b26
v -5.164 8.916 2.147
v -4.944 8.916 2.082
v -4.895 10.357 2.067
v -5.164 10.357 2.147
v -4.852 11.986 2.055
v -4.858 13.625 2.056
v -5.146 13.596 2.141
v -5.154 12.019 2.144
v -4.925 15.354 2.076
v -4.984 16.021 2.093
v -5.164 16.029 2.147
v -5.150 15.347 2.143
v -6.783 8.916 2.627
v -6.377 8.916 2.506
v -6.377 10.357 2.506
v -6.836 10.357 2.642
v -6.385 12.019 2.508
v -6.855 12.008 2.648
v -6.392 13.596 2.511
v -6.832 13.640 2.641
v -6.377 16.029 2.506
v -6.723 16.029 2.609
v -6.770 15.347 2.623
v -6.389 15.347 2.510
v -7.019 11.967 2.415
v -6.994 13.664 2.408
v -7.115 13.664 1.999
v -7.140 11.967 2.006
v -6.999 10.357 2.409
v -7.120 10.357 2.000
v -6.942 8.916 2.393
v -7.064 8.916 1.983
v -4.869 10.357 1.778
v -4.928 8.916 1.796
v -5.049 8.916 1.386
v -4.990 10.357 1.369
v -4.842 11.974 1.770
v -4.963 11.974 1.361
v -4.860 13.664 1.776
v -4.982 13.664 1.367
v -4.925 15.372 1.795
v -5.046 15.372 1.386
v -4.976 16.054 1.810
v -5.097 16.054 1.401
v -6.928 15.372 2.388
v -6.877 16.054 2.373
v -6.999 16.054 1.964
v -7.050 15.372 1.979
v -5.439 8.916 1.221
v -5.439 10.357 1.221
v -5.169 10.357 1.141
v -5.219 8.916 1.156
v -5.127 11.986 1.128
v -5.429 12.019 1.218
v -5.420 13.596 1.215
v -5.133 13.625 1.130
v -5.199 15.354 1.150
v -5.424 15.347 1.216
v -5.439 16.029 1.221
v -5.258 16.021 1.167
v -7.058 8.916 1.701
v -7.111 10.357 1.716
v -6.651 10.357 1.580
v -6.651 8.916 1.580
v -6.659 12.019 1.582
v -7.130 12.008 1.722
v -6.666 13.596 1.585
v -7.106 13.640 1.715
v -6.651 16.029 1.580
v -6.663 15.347 1.584
v -7.045 15.347 1.697
v -6.997 16.029 1.682
vn 0.28406 -0.00000 0.95881
vn 0.28406 -0.00000 0.95881
vn 0.28406 -0.00000 0.95881
vn 0.28406 -0.00000 0.95881
vn 0.28406 -0.00000 0.95881
vn 0.28406 -0.00000 0.95881
vn 0.28406 -0.00000 0.95881
vn 0.28406 -0.00000 0.95881
vn 0.28406 -0.00000 0.95881
vn 0.28406 -0.00000 0.95881
vn 0.28406 -0.00000 0.95881
vn 0.28406 -0.00000 0.95881
vn 0.28406 -0.00000 0.95881
vn 0.28406 -0.00000 0.95881
vn 0.28406 -0.00000 0.95881
vn 0.28406 -0.00000 0.95881
vn 0.28406 -0.00000 0.95881
vn 0.28406 -0.00000 0.95881
vn 0.28406 -0.00000 0.95881
vn 0.28406 -0.00000 0.95881
vn 0.28406 -0.00000 0.95881
vn 0.28406 -0.00000 0.95881
vn 0.28406 -0.00000 0.95881
vn 0.28406 -0.00000 0.95881
vn 0.28406 -0.00000 0.95881
vn 0.28406 -0.00000 0.95881
vn 0.28406 -0.00000 0.95881
vn 0.28406 -0.00000 0.95881
vn 0.28406 -0.00000 0.95881
vn 0.28406 -0.00000 0.95881
vn 0.28406 -0.00000 0.95881
vn 0.28406 -0.00000 0.95881
vn 0.28406 -0.00000 0.95881
vn 0.28406 -0.00000 0.95881
vn 0.28406 -0.00000 0.95881
vn 0.28406 -0.00000 0.95881
vn 0.28406 -0.00000 0.95881
vn 0.28406 -0.00000 0.95881
vn 0.28406 -0.00000 0.95881
vn 0.28406 -0.00000 0.95881
vn 0.28406 -0.00000 0.95881
vn 0.28406 -0.00000 0.95881
vn 0.28406 -0.00000 0.95881
vn 0.28406 -0.00000 0.95881
vn 0.28406 -0.00000 0.95881
vn 0.28406 -0.00000 0.95881
vn 0.28406 -0.00000 0.95881
vn 0.28406 -0.00000 0.95881
vn 0.28406 -0.00000 0.95881
vn 0.28406 -0.00000 0.95881
vn 0.28406 -0.00000 0.95881
vn 0.28406 -0.00000 0.95881
vn 0.28406 -0.00000 0.95881
vn 0.28406 -0.00000 0.95881
vn 0.28406 -0.00000 0.95881
vn 0.28406 -0.00000 0.95881
vn 0.28406 -0.00000 0.95881
vn 0.28406 -0.00000 0.95881
vn 0.28406 -0.00000 0.95881
vn 0.28406 -0.00000 0.95881
vn -0.95869 0.01551 0.28402
vn -0.95869 0.01551 0.28402
vn -0.95869 0.01551 0.28402
vn -0.95869 0.01551 0.28402
vn -0.95873 -0.01291 0.28403
vn -0.95873 -0.01291 0.28403
vn -0.95873 -0.01291 0.28403
vn -0.95873 -0.01291 0.28403
vn -0.95800 -0.04108 0.28382
vn -0.95800 -0.04108 0.28382
vn -0.95800 -0.04108 0.28382
vn -0.95800 -0.04108 0.28382
vn 0.95793 -0.04266 -0.28380
vn 0.95793 -0.04266 -0.28380
vn 0.95793 -0.04266 -0.28380
vn 0.95793 -0.04266 -0.28380
vn 0.95866 -0.01732 -0.28401
vn 0.95866 -0.01732 -0.28401
vn 0.95866 -0.01732 -0.28401
vn 0.95866 -0.01732 -0.28401
vn 0.95874 0.01148 -0.28404
vn 0.95874 0.01148 -0.28404
vn 0.95874 0.01148 -0.28404
vn 0.95874 0.01148 -0.28404
vn 0.95806 0.03947 -0.28383
vn 0.95806 0.03947 -0.28383
vn 0.95806 0.03947 -0.28383
vn 0.95806 0.03947 -0.28383
vn 0.95591 0.07766 -0.28320
vn 0.95591 0.07766 -0.28320
vn 0.95591 0.07766 -0.28320
vn 0.95591 0.07766 -0.28320
vn -0.95591 0.07766 0.28320
vn -0.95591 0.07766 0.28320
vn -0.95591 0.07766 0.28320
vn -0.95591 0.07766 0.28320
vn -0.95804 0.03999 0.28383
vn -0.95804 0.03999 0.28383
vn -0.95804 0.03999 0.28383
vn -0.95804 0.03999 0.28383
vn -0.81901 0.01452 0.57360
vn -0.81901 0.01452 0.57360
vn -0.81901 0.01452 0.57360
vn -0.81901 0.01452 0.57360
vn -0.81796 -0.01169 0.57516
vn -0.81796 -0.01169 0.57516
vn -0.81796 -0.01169 0.57516
vn -0.81796 -0.01169 0.57516
vn -0.82283 -0.03780 0.56703
vn -0.82283 -0.03780 0.56703
vn -0.82283 -0.03780 0.56703
vn -0.82283 -0.03780 0.56703
vn 0.99654 -0.03666 0.07462
vn 0.99654 -0.03666 0.07462
vn 0.99654 -0.03666 0.07462
vn 0.99654 -0.03666 0.07462
vn 0.99768 -0.02090 0.06486
vn 0.99768 -0.02090 0.06486
vn 0.99768 -0.02090 0.06486
vn 0.99768 -0.02090 0.06486
vn 0.99985 0.00731 0.01566
vn 0.99985 0.00731 0.01566
vn 0.99985 0.00731 0.01566
vn 0.99985 0.00731 0.01566
vn 0.99927 0.03810 -0.00058
vn 0.99927 0.03810 -0.00058
vn 0.99927 0.03810 -0.00058
vn 0.99927 0.03810 -0.00058
vn 0.99652 0.08086 0.02033
vn 0.99652 0.08086 0.02033
vn 0.99652 0.08086 0.02033
vn 0.99652 0.08086 0.02033
vn -0.82631 0.07170 0.55863
vn -0.82631 0.07170 0.55863
vn -0.82631 0.07170 0.55863
vn -0.82631 0.07170 0.55863
vn -0.82228 0.03680 0.56790
vn -0.82228 0.03680 0.56790
vn -0.82228 0.03680 0.56790
vn -0.82228 0.03680 0.56790
vn -0.28406 0.00000 -0.95881
vn -0.28406 0.00000 -0.95881
vn -0.28406 0.00000 -0.95881
vn -0.28406 0.00000 -0.95881
vn -0.28406 0.00000 -0.95881
vn -0.28406 0.00000 -0.95881
vn -0.28406 0.00000 -0.95881
vn -0.28406 0.00000 -0.95881
vn -0.28406 0.00000 -0.95881
vn -0.28406 0.00000 -0.95881
vn -0.28406 0.00000 -0.95881
vn -0.28406 0.00000 -0.95881
vn -0.28406 0.00000 -0.95881
vn -0.28406 0.00000 -0.95881
vn -0.28406 0.00000 -0.95881
vn -0.28406 0.00000 -0.95881
vn -0.28406 0.00000 -0.95881
vn -0.28406 0.00000 -0.95881
vn -0.28406 0.00000 -0.95881
vn -0.28406 0.00000 -0.95881
vn -0.28406 0.00000 -0.95881
vn -0.28406 0.00000 -0.95881
vn -0.28406 0.00000 -0.95881
vn -0.28406 0.00000 -0.95881
vn -0.28406 0.00000 -0.95881
vn -0.28406 0.00000 -0.95881
vn -0.28406 0.00000 -0.95881
vn -0.28406 0.00000 -0.95881
vn -0.28406 0.00000 -0.95881
vn -0.28406 0.00000 -0.95881
vn -0.28406 0.00000 -0.95881
vn -0.28406 0.00000 -0.95881
vn -0.28406 0.00000 -0.95881
vn -0.28406 0.00000 -0.95881
vn -0.28406 0.00000 -0.95881
vn -0.28406 0.00000 -0.95881
vn -0.28406 0.00000 -0.95881
vn -0.28406 0.00000 -0.95881
vn -0.28406 0.00000 -0.95881
vn -0.28406 0.00000 -0.95881
vn -0.28406 0.00000 -0.95881
vn -0.28406 0.00000 -0.95881
vn -0.28406 0.00000 -0.95881
vn -0.28406 0.00000 -0.95881
vn -0.28406 0.00000 -0.95881
vn -0.28406 0.00000 -0.95881
vn -0.28406 0.00000 -0.95881
vn -0.28406 0.00000 -0.95881
vn -0.28406 0.00000 -0.95881
vn -0.28406 0.00000 -0.95881
vn -0.28406 0.00000 -0.95881
vn -0.28406 0.00000 -0.95881
vn -0.28406 0.00000 -0.95881
vn -0.28406 0.00000 -0.95881
vn -0.28406 0.00000 -0.95881
vn -0.28406 0.00000 -0.95881
vn -0.28406 0.00000 -0.95881
vn -0.28406 0.00000 -0.95881
vn -0.28406 0.00000 -0.95881
vn -0.28406 0.00000 -0.95881
vn -0.99928 0.01452 -0.03491
vn -0.99928 0.01452 -0.03491
vn -0.99928 0.01452 -0.03491
vn -0.99928 0.01452 -0.03491
vn -0.99925 -0.01169 -0.03679
vn -0.99925 -0.01169 -0.03679
vn -0.99925 -0.01169 -0.03679
vn -0.99925 -0.01169 -0.03679
vn -0.99891 -0.03780 -0.02732
vn -0.99891 -0.03780 -0.02732
vn -0.99891 -0.03780 -0.02732
vn -0.99891 -0.03780 -0.02732
vn 0.79508 -0.03666 -0.60540
vn 0.79508 -0.03666 -0.60540
vn 0.79508 -0.03666 -0.60540
vn 0.79508 -0.03666 -0.60540
vn 0.80135 -0.02090 -0.59784
vn 0.80135 -0.02090 -0.59784
vn 0.80135 -0.02090 -0.59784
vn 0.80135 -0.02090 -0.59784
vn 0.82997 0.00731 -0.55776
vn 0.82997 0.00731 -0.55776
vn 0.82997 0.00731 -0.55776
vn 0.82997 0.00731 -0.55776
vn 0.83833 0.03810 -0.54383
vn 0.83833 0.03810 -0.54383
vn 0.83833 0.03810 -0.54383
vn 0.83833 0.03810 -0.54383
vn 0.82463 0.08086 -0.55986
vn 0.82463 0.08086 -0.55986
vn 0.82463 0.08086 -0.55986
vn 0.82463 0.08086 -0.55986
vn -0.99726 0.07170 -0.01838
vn -0.99726 0.07170 -0.01838
vn -0.99726 0.07170 -0.01838
vn -0.99726 0.07170 -0.01838
vn -0.99892 0.03680 -0.02835
vn -0.99892 0.03680 -0.02835
vn -0.99892 0.03680 -0.02835
vn -0.99892 0.03680 -0.02835
f 162//578 163//579 164//580 161//577 
f 166//582 167//583 168//584 165//581 
f 170//586 171//587 172//588 169//585 
f 165//590 168//591 164//592 163//589 
f 174//594 175//595 176//596 173//593 
f 178//598 176//599 175//600 177//597 
f 180//602 178//603 177//604 179//601 
f 182//606 183//607 184//608 181//605 
f 161//610 164//611 175//612 174//609 
f 177//614 175//615 164//616 168//613 
f 179//618 177//619 168//620 167//617 
f 181//622 184//623 172//624 171//621 
f 169//626 172//627 167//628 166//625 
f 179//630 167//631 172//632 184//629 
f 180//634 179//635 184//636 183//633 
f 186//638 187//639 188//640 185//637 
f 185//642 188//643 190//644 189//641 
f 189//646 190//647 192//648 191//645 
f 194//650 195//651 196//652 193//649 
f 193//654 196//655 198//656 197//653 
f 197//658 198//659 200//660 199//657 
f 199//662 200//663 202//664 201//661 
f 201//666 202//667 204//668 203//665 
f 206//670 207//671 208//672 205//669 
f 205//674 208//675 187//676 186//673 
f 178//678 180//679 186//680 185//677 
f 176//682 178//683 185//684 189//681 
f 173//686 176//687 189//688 191//685 
f 194//690 193//691 163//692 162//689 
f 165//694 163//695 193//696 197//693 
f 166//698 165//699 197//700 199//697 
f 169//702 166//703 199//704 201//701 
f 170//706 169//707 201//708 203//705 
f 183//710 182//711 206//712 205//709 
f 180//714 183//715 205//716 186//713 
f 210//718 211//719 212//720 209//717 
f 214//722 215//723 216//724 213//721 
f 218//726 219//727 220//728 217//725 
f 210//730 214//731 213//732 211//729 
f 222//734 223//735 224//736 221//733 
f 223//738 222//739 226//740 225//737 
f 225//742 226//743 228//744 227//741 
f 230//746 231//747 232//748 229//745 
f 223//750 210//751 209//752 224//749 
f 210//754 223//755 225//756 214//753 
f 214//758 225//759 227//760 215//757 
f 218//762 230//763 229//764 219//761 
f 215//766 218//767 217//768 216//765 
f 218//770 215//771 227//772 230//769 
f 230//774 227//775 228//776 231//773 
f 187//778 228//779 226//780 188//777 
f 188//782 226//783 222//784 190//781 
f 190//786 222//787 221//788 192//785 
f 211//790 196//791 195//792 212//789 
f 196//794 211//795 213//796 198//793 
f 198//798 213//799 216//800 200//797 
f 200//802 216//803 217//804 202//801 
f 202//806 217//807 220//808 204//805 
f 207//810 232//811 231//812 208//809 
f 208//814 231//815 228//816 187//813 
o 002_Mesh_1
g Mesh_1
usemtl Mesh material 1_5b14c558-6f33-439c-99bc-7aa8f5b9112b
v -36.278 7.016 -33.141
v -38.172 7.016 -26.750
v -38.172 13.681 -26.750
v -36.278 13.681 -33.141
v -1.331 13.681 -22.788
v -3.224 13.681 -16.396
v -3.224 7.016 -16.396
v -1.331 7.016 -22.788
v -2.325 7.016 -23.602
v -35.001 7.016 -33.282
v -35.001 13.681 -33.282
v -35.143 6.518 -32.805
v -36.278 7.016 -33.141
v -2.467 6.518 -23.124
v -36.278 13.681 -33.141
v -1.331 7.016 -22.788
v -35.143 14.179 -32.805
v -2.325 13.681 -23.602
v -1.331 13.681 -22.788
v -2.467 14.179 -23.124
v -3.224 13.681 -16.396
v -1.331 13.681 -22.788
v -4.360 14.179 -16.733
v -37.036 14.179 -26.413
v -36.278 13.681 -33.141
v -38.172 13.681 -26.750
v -4.502 13.681 -16.255
v -3.224 13.681 -16.396
v -37.177 13.681 -25.936
v -38.172 13.681 -26.750
v -38.172 7.016 -26.750
v -37.177 7.016 -25.936
v -37.036 6.518 -26.413
v -4.502 7.016 -16.255
v -3.224 7.016 -16.396
v -4.360 6.518 -16.733
v -2.467 6.518 -23.124
v -1.331 7.016 -22.788
v -3.224 7.016 -16.396
v -35.143 6.518 -32.805
v -38.172 7.016 -26.750
v -36.278 7.016 -33.141
vn -0.95881 0.00000 -0.28406
vn -0.95881 0.00000 -0.28406
vn -0.95881 0.00000 -0.28406
vn -0.95881 0.00000 -0.28406
vn -0.95881 0.00000 -0.28406
vn -0.95881 0.00000 -0.28406
vn 0.95881 -0.00000 0.28406
vn 0.95881 -0.00000 0.28406
vn 0.95881 -0.00000 0.28406
vn 0.95881 -0.00000 0.28406
vn 0.95881 -0.00000 0.28406
vn 0.95881 -0.00000 0.28406
vn 0.28406 -0.00000 -0.95881
vn 0.28406 -0.00000 -0.95881
vn 0.28406 -0.00000 -0.95881
vn 0.20086 -0.70709 -0.67800
vn 0.20086 -0.70709 -0.67800
vn 0.20086 -0.70709 -0.67800
vn -0.08068 -0.67777 -0.73083
vn -0.08068 -0.67777 -0.73083
vn -0.08068 -0.67777 -0.73083
vn 0.20086 -0.70709 -0.67800
vn 0.20086 -0.70709 -0.67800
vn 0.20086 -0.70709 -0.67800
vn -0.10973 -0.00000 -0.99396
vn -0.10973 -0.00000 -0.99396
vn -0.10973 -0.00000 -0.99396
vn -0.10973 -0.00000 -0.99396
vn -0.10973 -0.00000 -0.99396
vn -0.10973 -0.00000 -0.99396
vn 0.46575 -0.67777 -0.56895
vn 0.46575 -0.67777 -0.56895
vn 0.46575 -0.67777 -0.56895
vn -0.08068 0.67777 -0.73083
vn -0.08068 0.67777 -0.73083
vn -0.08068 0.67777 -0.73083
vn 0.63344 -0.00000 -0.77379
vn 0.63344 -0.00000 -0.77379
vn 0.63344 -0.00000 -0.77379
vn 0.28406 -0.00000 -0.95881
vn 0.28406 -0.00000 -0.95881
vn 0.28406 -0.00000 -0.95881
vn 0.63344 -0.00000 -0.77379
vn 0.63344 -0.00000 -0.77379
vn 0.63344 -0.00000 -0.77379
vn 0.46575 0.67777 -0.56895
vn 0.46575 0.67777 -0.56895
vn 0.46575 0.67777 -0.56895
vn 0.20086 0.70709 -0.67800
vn 0.20086 0.70709 -0.67800
vn 0.20086 0.70709 -0.67800
vn 0.20086 0.70709 -0.67800
vn 0.20086 0.70709 -0.67800
vn 0.20086 0.70709 -0.67800
vn 0.37161 0.92184 0.11009
vn 0.37161 0.92184 0.11009
vn 0.37161 0.92184 0.11009
vn 0.37161 0.92184 0.11009
vn 0.37161 0.92184 0.11009
vn 0.37161 0.92184 0.11009
vn 0.00000 1.00000 -0.00000
vn 0.00000 1.00000 -0.00000
vn 0.00000 1.00000 -0.00000
vn 0.00000 1.00000 -0.00000
vn 0.00000 1.00000 -0.00000
vn 0.00000 1.00000 -0.00000
vn -0.37161 0.92184 -0.11009
vn -0.37161 0.92184 -0.11009
vn -0.37161 0.92184 -0.11009
vn -0.37161 0.92184 -0.11009
vn -0.37161 0.92184 -0.11009
vn -0.37161 0.92184 -0.11009
vn -0.20086 0.70709 0.67800
vn -0.20086 0.70709 0.67800
vn -0.20086 0.70709 0.67800
vn 0.08068 0.67777 0.73083
vn 0.08068 0.67777 0.73083
vn 0.08068 0.67777 0.73083
vn -0.20086 0.70709 0.67800
vn -0.20086 0.70709 0.67800
vn -0.20086 0.70709 0.67800
vn -0.46575 0.67777 0.56895
vn -0.46575 0.67777 0.56895
vn -0.46575 0.67777 0.56895
vn -0.63344 0.00000 0.77379
vn -0.63344 0.00000 0.77379
vn -0.63344 0.00000 0.77379
vn -0.63344 0.00000 0.77379
vn -0.63344 0.00000 0.77379
vn -0.63344 0.00000 0.77379
vn -0.28406 0.00000 0.95881
vn -0.28406 0.00000 0.95881
vn -0.28406 0.00000 0.95881
vn -0.46575 -0.67777 0.56895
vn -0.46575 -0.67777 0.56895
vn -0.46575 -0.67777 0.56895
vn 0.10973 0.00000 0.99396
vn 0.10973 0.00000 0.99396
vn 0.10973 0.00000 0.99396
vn -0.28406 0.00000 0.95881
vn -0.28406 0.00000 0.95881
vn -0.28406 0.00000 0.95881
vn 0.10973 0.00000 0.99396
vn 0.10973 0.00000 0.99396
vn 0.10973 0.00000 0.99396
vn 0.08068 -0.67777 0.73083
vn 0.08068 -0.67777 0.73083
vn 0.08068 -0.67777 0.73083
vn -0.20086 -0.70709 0.67800
vn -0.20086 -0.70709 0.67800
vn -0.20086 -0.70709 0.67800
vn -0.20086 -0.70709 0.67800
vn -0.20086 -0.70709 0.67800
vn -0.20086 -0.70709 0.67800
vn -0.00000 -1.00000 0.00000
vn -0.00000 -1.00000 0.00000
vn -0.00000 -1.00000 0.00000
vn 0.37161 -0.92184 0.11009
vn 0.37161 -0.92184 0.11009
vn 0.37161 -0.92184 0.11009
vn 0.37161 -0.92184 0.11009
vn 0.37161 -0.92184 0.11009
vn 0.37161 -0.92184 0.11009
vn -0.00000 -1.00000 0.00000
vn -0.00000 -1.00000 0.00000
vn -0.00000 -1.00000 0.00000
vn -0.37161 -0.92184 -0.11009
vn -0.37161 -0.92184 -0.11009
vn -0.37161 -0.92184 -0.11009
vn -0.37161 -0.92184 -0.11009
vn -0.37161 -0.92184 -0.11009
vn -0.37161 -0.92184 -0.11009
f 233//817 234//818 235//819 
f 233//820 235//821 236//822 
f 237//823 238//824 239//825 
f 237//826 239//827 240//828 
f 241//829 242//830 243//831 
f 241//832 244//833 242//834 
f 242//835 244//836 245//837 
f 241//838 246//839 244//840 
f 242//841 245//842 247//843 
f 242//844 247//845 243//846 
f 241//847 248//848 246//849 
f 243//850 247//851 249//852 
f 250//853 248//854 241//855 
f 241//856 243//857 250//858 
f 250//859 251//860 248//861 
f 250//862 252//863 251//864 
f 243//865 252//866 250//867 
f 243//868 249//869 252//870 
f 252//871 253//872 254//873 
f 252//874 255//875 253//876 
f 249//877 255//878 252//879 
f 249//880 256//881 255//882 
f 257//883 256//884 249//885 
f 257//886 258//887 256//888 
f 256//889 259//890 255//891 
f 255//892 259//893 260//894 
f 256//895 261//896 259//897 
f 262//898 261//899 256//900 
f 263//901 261//902 262//903 
f 263//904 264//905 261//906 
f 259//907 261//908 264//909 
f 265//910 264//911 263//912 
f 260//913 259//914 266//915 
f 259//916 264//917 266//918 
f 260//919 266//920 267//921 
f 267//922 266//923 268//924 
f 268//925 266//926 264//927 
f 268//928 264//929 265//930 
f 269//931 268//932 265//933 
f 270//934 268//935 269//936 
f 270//937 271//938 268//939 
f 269//940 265//941 272//942 
f 272//943 265//944 273//945 
f 272//946 273//947 274//948 
o 003_Mesh
g Mesh
usemtl Mesh material_de9d6f2f-8d10-40be-aded-8c1dded36455
v -36.269 13.339 16.464
v -38.162 13.339 10.072
v -38.162 6.674 10.072
v -36.269 6.674 16.464
v -1.321 6.674 6.110
v -3.215 6.674 -0.281
v -3.215 13.339 -0.281
v -1.321 13.339 6.110
v -2.315 13.339 6.924
v -34.991 13.339 16.605
v -34.991 6.674 16.605
v -35.133 13.838 16.127
v -36.269 13.339 16.464
v -2.457 13.838 6.446
v -36.269 6.674 16.464
v -1.321 13.339 6.110
v -35.133 6.176 16.127
v -2.315 6.674 6.924
v -1.321 6.674 6.110
v -2.457 6.176 6.446
v -3.215 6.674 -0.281
v -1.321 6.674 6.110
v -4.350 6.176 0.055
v -37.026 6.176 9.736
v -36.269 6.674 16.464
v -38.162 6.674 10.072
v -4.492 6.674 -0.422
v -3.215 6.674 -0.281
v -37.168 6.674 9.258
v -38.162 6.674 10.072
v -38.162 13.339 10.072
v -37.168 13.339 9.258
v -37.026 13.838 9.736
v -4.492 13.339 -0.422
v -3.215 13.339 -0.281
v -4.350 13.838 0.055
v -2.457 13.838 6.446
v -1.321 13.339 6.110
v -3.215 13.339 -0.281
v -35.133 13.838 16.127
v -38.162 13.339 10.072
v -36.269 13.339 16.464
vn -0.95881 -0.00000 0.28406
vn -0.95881 -0.00000 0.28406
vn -0.95881 -0.00000 0.28406
vn -0.95881 -0.00000 0.28406
vn -0.95881 -0.00000 0.28406
vn -0.95881 -0.00000 0.28406
vn 0.95881 0.00000 -0.28406
vn 0.95881 0.00000 -0.28406
vn 0.95881 0.00000 -0.28406
vn 0.95881 0.00000 -0.28406
vn 0.95881 0.00000 -0.28406
vn 0.95881 0.00000 -0.28406
vn 0.28406 -0.00000 0.95881
vn 0.28406 -0.00000 0.95881
vn 0.28406 -0.00000 0.95881
vn 0.20086 0.70709 0.67800
vn 0.20086 0.70709 0.67800
vn 0.20086 0.70709 0.67800
vn -0.08068 0.67777 0.73083
vn -0.08068 0.67777 0.73083
vn -0.08068 0.67777 0.73083
vn 0.20086 0.70709 0.67800
vn 0.20086 0.70709 0.67800
vn 0.20086 0.70709 0.67800
vn -0.10973 -0.00000 0.99396
vn -0.10973 -0.00000 0.99396
vn -0.10973 -0.00000 0.99396
vn -0.10973 -0.00000 0.99396
vn -0.10973 -0.00000 0.99396
vn -0.10973 -0.00000 0.99396
vn 0.46575 0.67777 0.56895
vn 0.46575 0.67777 0.56895
vn 0.46575 0.67777 0.56895
vn -0.08068 -0.67777 0.73083
vn -0.08068 -0.67777 0.73083
vn -0.08068 -0.67777 0.73083
vn 0.63344 0.00000 0.77379
vn 0.63344 0.00000 0.77379
vn 0.63344 0.00000 0.77379
vn 0.28406 -0.00000 0.95881
vn 0.28406 -0.00000 0.95881
vn 0.28406 -0.00000 0.95881
vn 0.63344 0.00000 0.77379
vn 0.63344 0.00000 0.77379
vn 0.63344 0.00000 0.77379
vn 0.46575 -0.67777 0.56895
vn 0.46575 -0.67777 0.56895
vn 0.46575 -0.67777 0.56895
vn 0.20086 -0.70709 0.67800
vn 0.20086 -0.70709 0.67800
vn 0.20086 -0.70709 0.67800
vn 0.20086 -0.70709 0.67800
vn 0.20086 -0.70709 0.67800
vn 0.20086 -0.70709 0.67800
vn 0.37161 -0.92184 -0.11009
vn 0.37161 -0.92184 -0.11009
vn 0.37161 -0.92184 -0.11009
vn 0.37161 -0.92184 -0.11009
vn 0.37161 -0.92184 -0.11009
vn 0.37161 -0.92184 -0.11009
vn 0.00000 -1.00000 -0.00000
vn 0.00000 -1.00000 -0.00000
vn 0.00000 -1.00000 -0.00000
vn 0.00000 -1.00000 -0.00000
vn 0.00000 -1.00000 -0.00000
vn 0.00000 -1.00000 -0.00000
vn -0.37161 -0.92184 0.11009
vn -0.37161 -0.92184 0.11009
vn -0.37161 -0.92184 0.11009
vn -0.37161 -0.92184 0.11009
vn -0.37161 -0.92184 0.11009
vn -0.37161 -0.92184 0.11009
vn -0.20086 -0.70709 -0.67800
vn -0.20086 -0.70709 -0.67800
vn -0.20086 -0.70709 -0.67800
vn 0.08068 -0.67777 -0.73083
vn 0.08068 -0.67777 -0.73083
vn 0.08068 -0.67777 -0.73083
vn -0.20086 -0.70709 -0.67800
vn -0.20086 -0.70709 -0.67800
vn -0.20086 -0.70709 -0.67800
vn -0.46575 -0.67777 -0.56895
vn -0.46575 -0.67777 -0.56895
vn -0.46575 -0.67777 -0.56895
vn -0.63344 -0.00000 -0.77379
vn -0.63344 -0.00000 -0.77379
vn -0.63344 -0.00000 -0.77379
vn -0.63344 -0.00000 -0.77379
vn -0.63344 -0.00000 -0.77379
vn -0.63344 -0.00000 -0.77379
vn -0.28406 0.00000 -0.95881
vn -0.28406 0.00000 -0.95881
vn -0.28406 0.00000 -0.95881
vn -0.46575 0.67777 -0.56895
vn -0.46575 0.67777 -0.56895
vn -0.46575 0.67777 -0.56895
vn 0.10973 0.00000 -0.99396
vn 0.10973 0.00000 -0.99396
vn 0.10973 0.00000 -0.99396
vn -0.28406 0.00000 -0.95881
vn -0.28406 0.00000 -0.95881
vn -0.28406 0.00000 -0.95881
vn 0.10973 0.00000 -0.99396
vn 0.10973 0.00000 -0.99396
vn 0.10973 0.00000 -0.99396
vn 0.08068 0.67777 -0.73083
vn 0.08068 0.67777 -0.73083
vn 0.08068 0.67777 -0.73083
vn -0.20086 0.70709 -0.67800
vn -0.20086 0.70709 -0.67800
vn -0.20086 0.70709 -0.67800
vn -0.20086 0.70709 -0.67800
vn -0.20086 0.70709 -0.67800
vn -0.20086 0.70709 -0.67800
vn -0.00000 1.00000 0.00000
vn -0.00000 1.00000 0.00000
vn -0.00000 1.00000 0.00000
vn 0.37161 0.92184 -0.11009
vn 0.37161 0.92184 -0.11009
vn 0.37161 0.92184 -0.11009
vn 0.37161 0.92184 -0.11009
vn 0.37161 0.92184 -0.11009
vn 0.37161 0.92184 -0.11009
vn -0.00000 1.00000 0.00000
vn -0.00000 1.00000 0.00000
vn -0.00000 1.00000 0.00000
vn -0.37161 0.92184 0.11009
vn -0.37161 0.92184 0.11009
vn -0.37161 0.92184 0.11009
vn -0.37161 0.92184 0.11009
vn -0.37161 0.92184 0.11009
vn -0.37161 0.92184 0.11009
f 275//949 276//950 277//951 
f 275//952 277//953 278//954 
f 279//955 280//956 281//957 
f 279//958 281//959 282//960 
f 283//961 284//962 285//963 
f 283//964 286//965 284//966 
f 284//967 286//968 287//969 
f 283//970 288//971 286//972 
f 284//973 287//974 289//975 
f 284//976 289//977 285//978 
f 283//979 290//980 288//981 
f 285//982 289//983 291//984 
f 292//985 290//986 283//987 
f 283//988 285//989 292//990 
f 292//991 293//992 290//993 
f 292//994 294//995 293//996 
f 285//997 294//998 292//999 
f 285//1000 291//1001 294//1002 
f 294//1003 295//1004 296//1005 
f 294//1006 297//1007 295//1008 
f 291//1009 297//1010 294//1011 
f 291//1012 298//1013 297//1014 
f 299//1015 298//1016 291//1017 
f 299//1018 300//1019 298//1020 
f 298//1021 301//1022 297//1023 
f 297//1024 301//1025 302//1026 
f 298//1027 303//1028 301//1029 
f 304//1030 303//1031 298//1032 
f 305//1033 303//1034 304//1035 
f 305//1036 306//1037 303//1038 
f 301//1039 303//1040 306//1041 
f 307//1042 306//1043 305//1044 
f 302//1045 301//1046 308//1047 
f 301//1048 306//1049 308//1050 
f 302//1051 308//1052 309//1053 
f 309//1054 308//1055 310//1056 
f 310//1057 308//1058 306//1059 
f 310//1060 306//1061 307//1062 
f 311//1063 310//1064 307//1065 
f 312//1066 310//1067 311//1068 
f 312//1069 313//1070 310//1071 
f 311//1072 307//1073 314//1074 
f 314//1075 307//1076 315//1077 
f 314//1078 315//1079 316//1080 
